<svg width="36" height="18" viewBox="0 0 36 18" fill="none" xmlns="http://www.w3.org/2000/svg">
<path d="M8.4375 10.125C7.71436 10.125 7.00747 10.3394 6.4062 10.7412C5.80493 11.1429 5.3363 11.714 5.05957 12.3821C4.78283 13.0502 4.71043 13.7853 4.85151 14.4945C4.99258 15.2038 5.34081 15.8553 5.85214 16.3666C6.36348 16.8779 7.01496 17.2262 7.7242 17.3672C8.43345 17.5083 9.1686 17.4359 9.83669 17.1592C10.5048 16.8825 11.0758 16.4138 11.4776 15.8126C11.8793 15.2113 12.0938 14.5044 12.0938 13.7812C12.0927 12.8119 11.7071 11.8825 11.0216 11.1971C10.3362 10.5117 9.40686 10.1261 8.4375 10.125ZM8.4375 15.4688C8.10375 15.4688 7.77748 15.3698 7.49998 15.1844C7.22247 14.9989 7.00618 14.7354 6.87845 14.427C6.75073 14.1187 6.71731 13.7794 6.78243 13.452C6.84754 13.1247 7.00826 12.824 7.24426 12.588C7.48026 12.352 7.78094 12.1913 8.10829 12.1262C8.43563 12.0611 8.77493 12.0945 9.08328 12.2222C9.39163 12.3499 9.65518 12.5662 9.84061 12.8437C10.026 13.1212 10.125 13.4475 10.125 13.7812C10.125 14.2288 9.94721 14.658 9.63074 14.9745C9.31428 15.291 8.88505 15.4688 8.4375 15.4688Z" fill="#B2C10F"/>
<path d="M28.6875 10.125C27.9644 10.125 27.2575 10.3394 26.6562 10.7412C26.0549 11.1429 25.5863 11.714 25.3096 12.3821C25.0328 13.0502 24.9604 13.7853 25.1015 14.4945C25.2426 15.2038 25.5908 15.8553 26.1021 16.3666C26.6135 16.8779 27.265 17.2262 27.9742 17.3672C28.6834 17.5083 29.4186 17.4359 30.0867 17.1592C30.7548 16.8825 31.3258 16.4138 31.7276 15.8126C32.1293 15.2113 32.3438 14.5044 32.3438 13.7812C32.3427 12.8119 31.9571 11.8825 31.2716 11.1971C30.5862 10.5117 29.6569 10.1261 28.6875 10.125ZM28.6875 15.4688C28.3537 15.4688 28.0275 15.3698 27.75 15.1844C27.4725 14.9989 27.2562 14.7354 27.1285 14.427C27.0007 14.1187 26.9673 13.7794 27.0324 13.452C27.0975 13.1247 27.2583 12.824 27.4943 12.588C27.7303 12.352 28.0309 12.1913 28.3583 12.1262C28.6856 12.0611 29.0249 12.0945 29.3333 12.2222C29.6416 12.3499 29.9052 12.5662 30.0906 12.8437C30.276 13.1212 30.375 13.4475 30.375 13.7812C30.375 14.2288 30.1972 14.658 29.8807 14.9745C29.5643 15.291 29.1351 15.4688 28.6875 15.4688Z" fill="#B2C10F"/>
<path d="M33.5672 7.10438L27 5.90626L21.4091 1.26739C20.855 0.812234 20.1603 0.563142 19.4432 0.562509H11.2064C10.7422 0.561409 10.2838 0.665283 9.86547 0.866358C9.44711 1.06743 9.07964 1.3605 8.79054 1.72365L5.21944 5.90626H2.8125C2.1414 5.907 1.498 6.17393 1.02346 6.64847C0.548918 7.12301 0.281994 7.76641 0.28125 8.43751V11.5313C0.282162 12.3515 0.608403 13.1379 1.1884 13.7179C1.76839 14.2979 2.55477 14.6241 3.375 14.625H4.01801C3.8932 13.9741 3.91371 13.3037 4.07808 12.6616C4.24245 12.0195 4.54661 11.4217 4.96883 10.9108C5.39105 10.4 5.92091 9.98867 6.52053 9.70634C7.12015 9.42401 7.77473 9.27761 8.4375 9.27761C9.10027 9.27761 9.75485 9.42401 10.3545 9.70634C10.9541 9.98867 11.4839 10.4 11.9062 10.9108C12.3284 11.4217 12.6326 12.0195 12.7969 12.6616C12.9613 13.3037 12.9818 13.9741 12.857 14.625H24.268C24.1432 13.9741 24.1637 13.3037 24.3281 12.6616C24.4924 12.0195 24.7966 11.4217 25.2188 10.9108C25.6411 10.4 26.1709 9.98867 26.7705 9.70634C27.3702 9.42401 28.0247 9.27761 28.6875 9.27761C29.3503 9.27761 30.0048 9.42401 30.6045 9.70634C31.2041 9.98867 31.7339 10.4 32.1562 10.9108C32.5784 11.4217 32.8825 12.0195 33.0469 12.6616C33.2113 13.3037 33.2318 13.9741 33.107 14.625H33.1875C33.8586 14.6243 34.502 14.3573 34.9765 13.8828C35.4511 13.4083 35.718 12.7649 35.7188 12.0938V9.60695C35.7218 9.00059 35.5058 8.41352 35.1105 7.95372C34.7152 7.49393 34.1671 7.19232 33.5672 7.10438ZM12.6562 5.06251C12.6562 5.28628 12.5674 5.5009 12.4091 5.65913C12.2509 5.81736 12.0363 5.90626 11.8125 5.90626H8.10316C8.0225 5.9063 7.94351 5.88322 7.87556 5.83975C7.80761 5.79628 7.75355 5.73423 7.71979 5.66097C7.68602 5.58772 7.67397 5.50631 7.68505 5.42641C7.69614 5.34651 7.7299 5.27147 7.78233 5.21017L10.2374 2.33438C10.3166 2.24171 10.415 2.16733 10.5258 2.11635C10.6366 2.06537 10.7571 2.039 10.879 2.03907H11.8125C12.0363 2.03907 12.2509 2.12797 12.4091 2.2862C12.5674 2.44443 12.6562 2.65904 12.6562 2.88282V5.06251ZM16.875 9.00001H15.75C15.5262 9.00001 15.3116 8.91111 15.1534 8.75288C14.9951 8.59465 14.9062 8.38003 14.9062 8.15626C14.9062 7.93248 14.9951 7.71787 15.1534 7.55964C15.3116 7.4014 15.5262 7.31251 15.75 7.31251H16.875C17.0988 7.31251 17.3134 7.4014 17.4716 7.55964C17.6299 7.71787 17.7188 7.93248 17.7188 8.15626C17.7188 8.38003 17.6299 8.59465 17.4716 8.75288C17.3134 8.91111 17.0988 9.00001 16.875 9.00001ZM23.5181 5.92693L15.4668 5.90823C15.2433 5.90771 15.0292 5.81858 14.8714 5.6604C14.7136 5.50223 14.625 5.28791 14.625 5.06448V2.88282C14.625 2.65904 14.7139 2.44443 14.8721 2.2862C15.0304 2.12797 15.245 2.03907 15.4688 2.03907H19.5151C19.7047 2.03909 19.8889 2.10299 20.0377 2.22048L23.7803 5.1736C23.8493 5.22792 23.8996 5.30242 23.9243 5.3867C23.9489 5.47097 23.9466 5.56084 23.9177 5.64376C23.8889 5.72669 23.8349 5.79854 23.7632 5.8493C23.6916 5.90006 23.6059 5.9272 23.5181 5.92693Z" fill="#B2C10F"/>
</svg>
