<svg width="24" height="24" viewBox="0 0 24 24" fill="none" xmlns="http://www.w3.org/2000/svg">
<g clip-path="url(#clip0_6_3186)">
<path d="M19.4062 6.97266C19.6651 6.97266 19.875 6.7628 19.875 6.50391V1.40625C19.875 0.630844 19.2442 0 18.4688 0H1.40625C0.630844 0 0 0.630844 0 1.40625V22.5938C0 23.3692 0.630844 24 1.40625 24H18.4688C19.2442 24 19.875 23.3692 19.875 22.5938V19.1404C19.875 18.8815 19.6651 18.6716 19.4062 18.6716C19.1474 18.6716 18.9375 18.8815 18.9375 19.1404V22.5938C18.9375 22.8522 18.7272 23.0625 18.4688 23.0625H1.40625C1.14778 23.0625 0.9375 22.8522 0.9375 22.5938V1.40625C0.9375 1.14778 1.14778 0.9375 1.40625 0.9375H18.4688C18.7272 0.9375 18.9375 1.14778 18.9375 1.40625V6.50391C18.9375 6.7628 19.1474 6.97266 19.4062 6.97266Z" fill="white"/>
<path d="M9.9375 2.53125C7.55958 2.53125 5.625 4.46583 5.625 6.84375C5.625 8.07736 6.14578 9.19148 6.97884 9.97823C6.99445 9.99492 7.01105 10.0107 7.02919 10.0251C7.79658 10.7272 8.81784 11.1562 9.93745 11.1562C11.0571 11.1562 12.0783 10.7272 12.8457 10.0251C12.8639 10.0107 12.8805 9.99487 12.8961 9.97823C13.7292 9.19148 14.25 8.07736 14.25 6.84375C14.25 4.46583 12.3154 2.53125 9.9375 2.53125ZM9.9375 10.2187C9.17208 10.2187 8.46567 9.96225 7.89886 9.53119C8.31084 8.80064 9.07964 8.34375 9.9375 8.34375C10.7954 8.34375 11.5642 8.80064 11.9761 9.53119C11.4093 9.96225 10.7029 10.2187 9.9375 10.2187ZM9.1875 6.65625V6.35156C9.1875 5.93803 9.52397 5.60156 9.9375 5.60156C10.351 5.60156 10.6875 5.93803 10.6875 6.35156V6.65625C10.6875 7.06978 10.351 7.40625 9.9375 7.40625C9.52397 7.40625 9.1875 7.06978 9.1875 6.65625ZM12.6534 8.84451C12.3077 8.3318 11.8286 7.93303 11.2724 7.68684C11.4931 7.40152 11.625 7.04409 11.625 6.65625V6.35156C11.625 5.42105 10.868 4.66406 9.9375 4.66406C9.00698 4.66406 8.25 5.42105 8.25 6.35156V6.65625C8.25 7.04409 8.38186 7.40152 8.60264 7.68684C8.04637 7.93303 7.56727 8.3318 7.22156 8.84451C6.8077 8.28422 6.5625 7.5922 6.5625 6.84375C6.5625 4.98277 8.07652 3.46875 9.9375 3.46875C11.7985 3.46875 13.3125 4.98277 13.3125 6.84375C13.3125 7.5922 13.0673 8.28422 12.6534 8.84451Z" fill="white"/>
<path d="M12.4687 20.5312H9.9375C9.67866 20.5312 9.46875 20.7411 9.46875 21C9.46875 21.2589 9.67866 21.4688 9.9375 21.4688H12.4687C12.7276 21.4688 12.9375 21.2589 12.9375 21C12.9375 20.7411 12.7276 20.5312 12.4687 20.5312Z" fill="white"/>
<path d="M12.4687 17.9062H5.8125C5.55366 17.9062 5.34375 18.1161 5.34375 18.375C5.34375 18.6339 5.55366 18.8438 5.8125 18.8438H12.4687C12.7276 18.8438 12.9375 18.6339 12.9375 18.375C12.9375 18.1161 12.7276 17.9062 12.4687 17.9062Z" fill="white"/>
<path d="M12.4687 15.2812H5.8125C5.55366 15.2812 5.34375 15.4911 5.34375 15.75C5.34375 16.0089 5.55366 16.2188 5.8125 16.2188H12.4687C12.7276 16.2188 12.9375 16.0089 12.9375 15.75C12.9375 15.4911 12.7276 15.2812 12.4687 15.2812Z" fill="white"/>
<path d="M4.14042 12.7936C4.05328 12.7064 3.93234 12.6562 3.80859 12.6562C3.68527 12.6562 3.56433 12.7064 3.47719 12.7936C3.39 12.8808 3.33984 13.0017 3.33984 13.125C3.33984 13.2483 3.38995 13.3692 3.47719 13.4564C3.56484 13.5436 3.68527 13.5938 3.80859 13.5938C3.93234 13.5938 4.05281 13.5436 4.14042 13.4564C4.22761 13.3692 4.27781 13.2483 4.27781 13.125C4.27781 13.0017 4.22766 12.8808 4.14042 12.7936Z" fill="white"/>
<path d="M4.14042 15.4186C4.05281 15.3314 3.93234 15.2812 3.80859 15.2812C3.68527 15.2812 3.56484 15.3314 3.47719 15.4186C3.39 15.5058 3.33984 15.6267 3.33984 15.75C3.33984 15.8733 3.38995 15.9942 3.47719 16.0814C3.56484 16.1686 3.68527 16.2188 3.80859 16.2188C3.93234 16.2188 4.05281 16.1686 4.14042 16.0814C4.22761 15.9942 4.27781 15.8733 4.27781 15.75C4.27781 15.6267 4.22766 15.5058 4.14042 15.4186Z" fill="white"/>
<path d="M4.14042 18.0436C4.05281 17.9564 3.93234 17.9062 3.80859 17.9062C3.68527 17.9062 3.56484 17.9564 3.47719 18.0436C3.39 18.1308 3.33984 18.2517 3.33984 18.375C3.33984 18.4983 3.38995 18.6192 3.47719 18.7064C3.56433 18.7936 3.68527 18.8438 3.80859 18.8438C3.93234 18.8438 4.05328 18.7936 4.14042 18.7064C4.22761 18.6192 4.27781 18.4983 4.27781 18.375C4.27781 18.2517 4.22766 18.1308 4.14042 18.0436Z" fill="white"/>
<path d="M12.4687 12.6562H5.8125C5.55366 12.6562 5.34375 12.8661 5.34375 13.125C5.34375 13.3839 5.55366 13.5938 5.8125 13.5938H12.4687C12.7276 13.5938 12.9375 13.3839 12.9375 13.125C12.9375 12.8661 12.7276 12.6562 12.4687 12.6562Z" fill="white"/>
<path d="M23.0154 6.10933C22.5601 5.84641 22.0295 5.77656 21.5215 5.91264C21.0136 6.04876 20.589 6.37455 20.3261 6.82994L14.4272 17.047C14.3949 17.103 14.3745 17.1651 14.3673 17.2293L13.9521 20.9486C13.9315 21.1337 14.0223 21.3134 14.1836 21.4066C14.2564 21.4486 14.3372 21.4694 14.4179 21.4694C14.516 21.4694 14.6137 21.4387 14.6959 21.3781L17.7092 19.1588C17.7613 19.1205 17.8049 19.0718 17.8372 19.0158L23.736 8.79873C24.2788 7.85861 23.9556 6.65214 23.0154 6.10933ZM15.0027 19.9878L15.2195 18.0457L16.5762 18.829L15.0027 19.9878ZM17.2597 18.141L15.4735 17.1098L20.2072 8.91086L21.9934 9.94211L17.2597 18.141ZM22.9241 8.32994L22.4621 9.13023L20.6759 8.09898L21.138 7.29869C21.2757 7.06014 21.4981 6.88951 21.7641 6.81822C22.0303 6.74687 22.3081 6.78353 22.5466 6.92125C22.7852 7.05897 22.9558 7.28134 23.0271 7.54741C23.0984 7.81347 23.0618 8.09139 22.9241 8.32994Z" fill="white"/>
</g>
<defs>
<clipPath id="clip0_6_3186">
<rect width="24" height="24" fill="white"/>
</clipPath>
</defs>
</svg>
