<svg width="232" height="200" viewBox="0 0 232 200" fill="none" xmlns="http://www.w3.org/2000/svg">
<g clip-path="url(#clip0_6_3896)">
<path d="M133.192 88.5815C126.927 88.5815 121.83 93.7038 121.83 100C121.83 106.296 126.927 111.418 133.192 111.418C139.457 111.418 144.554 106.296 144.554 100C144.554 93.7038 139.457 88.5815 133.192 88.5815Z" fill="white" fill-opacity="0.8"/>
<path d="M140.719 53.9692V74.5598C146.554 76.306 151.549 80.0259 154.933 84.9493L174.421 78.5856C167.794 65.7506 155.404 56.3851 140.719 53.9692Z" fill="white" fill-opacity="0.8"/>
<path d="M179.084 92.9673L159.59 99.3328C159.596 99.5553 159.607 99.7764 159.607 99.9998C159.607 106.062 157.57 111.652 154.154 116.126L166.19 132.773C174.483 124.343 179.611 112.762 179.611 99.9998C179.611 97.6099 179.43 95.2615 179.084 92.9673Z" fill="white" fill-opacity="0.8"/>
<path d="M133.194 0.427734H41.6396C37.4836 0.427734 34.1142 3.81384 34.1142 7.9905C34.1142 12.1672 37.4836 15.5533 41.6396 15.5533H80.7574C72.5043 20.7475 65.0629 27.1267 58.673 34.4556H7.52346C3.36743 34.4561 -0.00195312 37.8426 -0.00195312 42.0193C-0.00195312 46.1959 3.36743 49.582 7.52346 49.582H47.7863C39.1041 64.3793 34.1137 81.6139 34.1137 99.9997C34.1137 121.393 40.8638 141.232 52.3334 157.48H30.9812C26.8251 157.48 23.4558 160.867 23.4558 165.043C23.4558 169.22 26.8251 172.606 30.9812 172.606H65.4684C70.1607 177.029 75.2803 180.998 80.7574 184.446H8.29969C4.14365 184.446 0.77427 187.832 0.77427 192.008C0.77427 196.185 4.14365 199.571 8.29969 199.571H133.194C187.828 199.571 232.275 154.903 232.275 99.9992C232.275 45.0954 187.828 0.427734 133.194 0.427734ZM169.75 149.631C169.612 149.749 169.474 149.867 169.325 149.975C169.157 150.098 168.985 150.212 168.811 150.319C158.756 157.527 146.46 161.773 133.194 161.773C119.929 161.773 107.633 157.527 97.5776 150.319C97.4034 150.212 97.2319 150.098 97.064 149.975C96.9152 149.866 96.7778 149.748 96.6389 149.631C81.5341 138.365 71.7259 120.313 71.7259 99.9997C71.7259 65.9376 99.3006 38.226 133.194 38.226C167.088 38.226 194.663 65.9376 194.663 99.9997C194.663 120.313 184.855 138.365 169.75 149.631Z" fill="white" fill-opacity="0.8"/>
<path d="M91.9678 78.5851L111.455 84.9488C114.841 80.0258 119.835 76.306 125.67 74.5594V53.9688C110.985 56.3851 98.5958 65.7501 91.9678 78.5851Z" fill="white" fill-opacity="0.8"/>
<path d="M141.987 125.027C139.235 126.007 136.278 126.545 133.195 126.545C130.114 126.545 127.156 126.007 124.404 125.027L112.365 141.678C118.633 144.855 125.709 146.647 133.195 146.647C140.681 146.647 147.758 144.855 154.025 141.678L141.987 125.027Z" fill="white" fill-opacity="0.8"/>
<path d="M106.779 99.9998C106.779 99.7764 106.79 99.5553 106.795 99.3328L87.3016 92.9673C86.955 95.2615 86.7744 97.6099 86.7744 99.9998C86.7744 112.763 91.9031 124.343 100.196 132.774L112.231 116.126C108.816 111.653 106.779 106.062 106.779 99.9998Z" fill="white" fill-opacity="0.8"/>
</g>
<defs>
<clipPath id="clip0_6_3896">
<rect width="232.277" height="200" fill="white"/>
</clipPath>
</defs>
</svg>
