<svg width="350" height="48" viewBox="0 0 350 48" fill="none" xmlns="http://www.w3.org/2000/svg">
<mask id="path-1-inside-1_6_3346" fill="white">
<path d="M0 0H350V48H0V0Z"/>
</mask>
<path d="M350 46H0V50H350V46Z" fill="#B2C10F" mask="url(#path-1-inside-1_6_3346)"/>
<path d="M8.4375 19.125C7.71436 19.125 7.00747 19.3394 6.4062 19.7412C5.80493 20.1429 5.3363 20.714 5.05957 21.3821C4.78283 22.0502 4.71043 22.7853 4.85151 23.4945C4.99258 24.2038 5.34081 24.8553 5.85214 25.3666C6.36348 25.8779 7.01496 26.2262 7.7242 26.3672C8.43345 26.5083 9.1686 26.4359 9.83669 26.1592C10.5048 25.8825 11.0758 25.4138 11.4776 24.8126C11.8793 24.2113 12.0938 23.5044 12.0938 22.7812C12.0927 21.8119 11.7071 20.8825 11.0216 20.1971C10.3362 19.5117 9.40686 19.1261 8.4375 19.125ZM8.4375 24.4688C8.10375 24.4688 7.77748 24.3698 7.49998 24.1844C7.22247 23.9989 7.00618 23.7354 6.87845 23.427C6.75073 23.1187 6.71731 22.7794 6.78243 22.452C6.84754 22.1247 7.00826 21.824 7.24426 21.588C7.48026 21.352 7.78094 21.1913 8.10829 21.1262C8.43563 21.0611 8.77493 21.0945 9.08328 21.2222C9.39163 21.3499 9.65518 21.5662 9.84061 21.8437C10.026 22.1212 10.125 22.4475 10.125 22.7812C10.125 23.2288 9.94721 23.658 9.63074 23.9745C9.31428 24.291 8.88505 24.4688 8.4375 24.4688Z" fill="#B2C10F"/>
<path d="M28.6875 19.125C27.9644 19.125 27.2575 19.3394 26.6562 19.7412C26.0549 20.1429 25.5863 20.714 25.3096 21.3821C25.0328 22.0502 24.9604 22.7853 25.1015 23.4945C25.2426 24.2038 25.5908 24.8553 26.1021 25.3666C26.6135 25.8779 27.265 26.2262 27.9742 26.3672C28.6834 26.5083 29.4186 26.4359 30.0867 26.1592C30.7548 25.8825 31.3258 25.4138 31.7276 24.8126C32.1293 24.2113 32.3438 23.5044 32.3438 22.7812C32.3427 21.8119 31.9571 20.8825 31.2716 20.1971C30.5862 19.5117 29.6569 19.1261 28.6875 19.125ZM28.6875 24.4688C28.3537 24.4688 28.0275 24.3698 27.75 24.1844C27.4725 23.9989 27.2562 23.7354 27.1285 23.427C27.0007 23.1187 26.9673 22.7794 27.0324 22.452C27.0975 22.1247 27.2583 21.824 27.4943 21.588C27.7303 21.352 28.0309 21.1913 28.3583 21.1262C28.6856 21.0611 29.0249 21.0945 29.3333 21.2222C29.6416 21.3499 29.9052 21.5662 30.0906 21.8437C30.276 22.1212 30.375 22.4475 30.375 22.7812C30.375 23.2288 30.1972 23.658 29.8807 23.9745C29.5643 24.291 29.1351 24.4688 28.6875 24.4688Z" fill="#B2C10F"/>
<path d="M33.5672 16.1044L27 14.9063L21.4091 10.2674C20.855 9.81223 20.1603 9.56314 19.4432 9.56251H11.2064C10.7422 9.56141 10.2838 9.66528 9.86547 9.86636C9.44711 10.0674 9.07964 10.3605 8.79054 10.7236L5.21944 14.9063H2.8125C2.1414 14.907 1.498 15.1739 1.02346 15.6485C0.548918 16.123 0.281994 16.7664 0.28125 17.4375V20.5313C0.282162 21.3515 0.608403 22.1379 1.1884 22.7179C1.76839 23.2979 2.55477 23.6241 3.375 23.625H4.01801C3.8932 22.9741 3.91371 22.3037 4.07808 21.6616C4.24245 21.0195 4.54661 20.4217 4.96883 19.9108C5.39105 19.4 5.92091 18.9887 6.52053 18.7063C7.12015 18.424 7.77473 18.2776 8.4375 18.2776C9.10027 18.2776 9.75485 18.424 10.3545 18.7063C10.9541 18.9887 11.4839 19.4 11.9062 19.9108C12.3284 20.4217 12.6326 21.0195 12.7969 21.6616C12.9613 22.3037 12.9818 22.9741 12.857 23.625H24.268C24.1432 22.9741 24.1637 22.3037 24.3281 21.6616C24.4924 21.0195 24.7966 20.4217 25.2188 19.9108C25.6411 19.4 26.1709 18.9887 26.7705 18.7063C27.3702 18.424 28.0247 18.2776 28.6875 18.2776C29.3503 18.2776 30.0048 18.424 30.6045 18.7063C31.2041 18.9887 31.7339 19.4 32.1562 19.9108C32.5784 20.4217 32.8825 21.0195 33.0469 21.6616C33.2113 22.3037 33.2318 22.9741 33.107 23.625H33.1875C33.8586 23.6243 34.502 23.3573 34.9765 22.8828C35.4511 22.4083 35.718 21.7649 35.7188 21.0938V18.6069C35.7218 18.0006 35.5058 17.4135 35.1105 16.9537C34.7152 16.4939 34.1671 16.1923 33.5672 16.1044ZM12.6562 14.0625C12.6562 14.2863 12.5674 14.5009 12.4091 14.6591C12.2509 14.8174 12.0363 14.9063 11.8125 14.9063H8.10316C8.0225 14.9063 7.94351 14.8832 7.87556 14.8397C7.80761 14.7963 7.75355 14.7342 7.71979 14.661C7.68602 14.5877 7.67397 14.5063 7.68505 14.4264C7.69614 14.3465 7.7299 14.2715 7.78233 14.2102L10.2374 11.3344C10.3166 11.2417 10.415 11.1673 10.5258 11.1163C10.6366 11.0654 10.7571 11.039 10.879 11.0391H11.8125C12.0363 11.0391 12.2509 11.128 12.4091 11.2862C12.5674 11.4444 12.6562 11.659 12.6562 11.8828V14.0625ZM16.875 18H15.75C15.5262 18 15.3116 17.9111 15.1534 17.7529C14.9951 17.5946 14.9062 17.38 14.9062 17.1563C14.9062 16.9325 14.9951 16.7179 15.1534 16.5596C15.3116 16.4014 15.5262 16.3125 15.75 16.3125H16.875C17.0988 16.3125 17.3134 16.4014 17.4716 16.5596C17.6299 16.7179 17.7188 16.9325 17.7188 17.1563C17.7188 17.38 17.6299 17.5946 17.4716 17.7529C17.3134 17.9111 17.0988 18 16.875 18ZM23.5181 14.9269L15.4668 14.9082C15.2433 14.9077 15.0292 14.8186 14.8714 14.6604C14.7136 14.5022 14.625 14.2879 14.625 14.0645V11.8828C14.625 11.659 14.7139 11.4444 14.8721 11.2862C15.0304 11.128 15.245 11.0391 15.4688 11.0391H19.5151C19.7047 11.0391 19.8889 11.103 20.0377 11.2205L23.7803 14.1736C23.8493 14.2279 23.8996 14.3024 23.9243 14.3867C23.9489 14.471 23.9466 14.5608 23.9177 14.6438C23.8889 14.7267 23.8349 14.7985 23.7632 14.8493C23.6916 14.9001 23.6059 14.9272 23.5181 14.9269Z" fill="#B2C10F"/>
<path d="M64.496 23.736C62.624 23.928 61.024 24.016 59.696 24C58.368 23.968 57.256 23.824 56.36 23.568C55.464 23.296 54.728 22.904 54.152 22.392C53.432 21.736 52.96 20.968 52.736 20.088C52.528 19.208 52.424 18.216 52.424 17.112V14.04C51.32 14.2 50.248 14.352 49.208 14.496C48.184 14.64 47.312 14.768 46.592 14.88C46.192 14.928 45.824 14.832 45.488 14.592C45.168 14.336 44.984 14.008 44.936 13.608C44.872 13.192 44.96 12.824 45.2 12.504C45.456 12.184 45.784 11.992 46.184 11.928C46.888 11.848 47.8 11.736 48.92 11.592C50.056 11.448 51.224 11.296 52.424 11.136V7.152C52.424 6.736 52.568 6.392 52.856 6.12C53.16 5.832 53.512 5.688 53.912 5.688C54.328 5.688 54.672 5.832 54.944 6.12C55.232 6.408 55.376 6.76 55.376 7.176V10.728C56.32 10.6 57.144 10.496 57.848 10.416C58.552 10.32 59.04 10.248 59.312 10.2C61.024 9.928 62.312 10.016 63.176 10.464C64.056 10.896 64.584 11.696 64.76 12.864C64.936 14.064 64.616 15.112 63.8 16.008C63 16.904 61.592 17.616 59.576 18.144C59.176 18.24 58.8 18.2 58.448 18.024C58.096 17.848 57.856 17.56 57.728 17.16C57.616 16.776 57.648 16.408 57.824 16.056C58.016 15.688 58.312 15.448 58.712 15.336C59.864 15.016 60.648 14.72 61.064 14.448C61.496 14.176 61.696 13.864 61.664 13.512C61.648 13.208 61.528 13.024 61.304 12.96C61.08 12.88 60.624 12.888 59.936 12.984C59.6 13.032 59.016 13.112 58.184 13.224C57.368 13.336 56.432 13.472 55.376 13.632V17.112C55.376 17.976 55.44 18.632 55.568 19.08C55.696 19.512 55.904 19.864 56.192 20.136C56.688 20.584 57.552 20.864 58.784 20.976C60.016 21.088 61.824 21.024 64.208 20.784C64.624 20.752 64.984 20.864 65.288 21.12C65.608 21.376 65.792 21.712 65.84 22.128C65.872 22.528 65.76 22.888 65.504 23.208C65.248 23.528 64.912 23.704 64.496 23.736ZM72.536 16.464C72.136 16.464 71.784 16.32 71.48 16.032C71.192 15.728 71.048 15.376 71.048 14.976C71.048 14.56 71.192 14.208 71.48 13.92C71.784 13.632 72.136 13.488 72.536 13.488H87.488C87.904 13.488 88.256 13.632 88.544 13.92C88.832 14.208 88.976 14.56 88.976 14.976C88.976 15.376 88.832 15.728 88.544 16.032C88.256 16.32 87.904 16.464 87.488 16.464H72.536ZM110.144 20.88C108.752 21.408 107.536 21.64 106.496 21.576C105.456 21.512 104.64 21.136 104.048 20.448C103.472 19.744 103.184 18.712 103.184 17.352V9.72C103.184 9.304 103.328 8.952 103.616 8.664C103.92 8.376 104.272 8.232 104.672 8.232C105.088 8.232 105.432 8.376 105.704 8.664C105.992 8.952 106.136 9.304 106.136 9.72V16.896C106.136 18.416 107.056 18.84 108.896 18.168C109.616 17.896 110.4 17.576 111.248 17.208C112.112 16.84 112.88 16.496 113.552 16.176C113.92 16 114.296 15.976 114.68 16.104C115.064 16.216 115.352 16.456 115.544 16.824C115.736 17.176 115.768 17.552 115.64 17.952C115.528 18.352 115.288 18.64 114.92 18.816C114.184 19.168 113.392 19.536 112.544 19.92C111.696 20.288 110.896 20.608 110.144 20.88ZM94.424 22.416C94.056 22.576 93.68 22.592 93.296 22.464C92.912 22.32 92.632 22.064 92.456 21.696C92.296 21.328 92.28 20.952 92.408 20.568C92.552 20.168 92.808 19.888 93.176 19.728C94.472 19.12 95.496 18.384 96.248 17.52C97 16.64 97.536 15.648 97.856 14.544C98.176 13.424 98.336 12.224 98.336 10.944C98.336 10.528 98.48 10.176 98.768 9.888C99.056 9.6 99.4 9.456 99.8 9.456C100.216 9.456 100.56 9.6 100.832 9.888C101.12 10.176 101.264 10.528 101.264 10.944C101.248 13.696 100.648 16.048 99.464 18C98.28 19.952 96.6 21.424 94.424 22.416ZM121.664 26.04C121.28 26.04 120.952 25.912 120.68 25.656C120.424 25.416 120.296 25.088 120.296 24.672V5.064C120.296 4.648 120.424 4.32 120.68 4.08C120.952 3.824 121.28 3.696 121.664 3.696C122.048 3.696 122.368 3.824 122.624 4.08C122.88 4.32 123.008 4.648 123.008 5.064V7.56C123.024 7.56 123.048 7.544 123.08 7.512C123.336 7.336 123.616 7.256 123.92 7.272C124.224 7.288 124.456 7.408 124.616 7.632C124.712 7.744 124.84 7.92 125 8.16C125.176 8.384 125.352 8.616 125.528 8.856C125.704 9.08 125.832 9.264 125.912 9.408C125.944 9.184 126.032 8.992 126.176 8.832C126.32 8.656 126.52 8.568 126.776 8.568H130.064V7.68H125.528C125.24 7.68 125.008 7.584 124.832 7.392C124.672 7.2 124.592 6.976 124.592 6.72C124.592 6.464 124.672 6.24 124.832 6.048C125.008 5.84 125.24 5.736 125.528 5.736H130.064V4.896C130.064 4.48 130.2 4.152 130.472 3.912C130.744 3.672 131.072 3.552 131.456 3.552C131.84 3.552 132.16 3.672 132.416 3.912C132.688 4.152 132.824 4.48 132.824 4.896V5.736H137.72C138.008 5.736 138.232 5.84 138.392 6.048C138.552 6.24 138.632 6.464 138.632 6.72C138.632 6.976 138.552 7.2 138.392 7.392C138.232 7.584 138.008 7.68 137.72 7.68H132.824V8.568H136.304C136.576 8.568 136.784 8.664 136.928 8.856C137.072 9.048 137.144 9.264 137.144 9.504C137.144 9.744 137.072 9.96 136.928 10.152C136.784 10.344 136.576 10.44 136.304 10.44H132.824V11.4H138.392C138.696 11.4 138.928 11.496 139.088 11.688C139.248 11.88 139.328 12.112 139.328 12.384C139.328 12.64 139.248 12.864 139.088 13.056C138.928 13.248 138.696 13.344 138.392 13.344H124.832C124.528 13.344 124.296 13.248 124.136 13.056C123.976 12.864 123.896 12.64 123.896 12.384C123.896 12.112 123.976 11.88 124.136 11.688C124.296 11.496 124.528 11.4 124.832 11.4H130.064V10.44H126.776C126.648 10.44 126.528 10.416 126.416 10.368C126.32 10.304 126.232 10.24 126.152 10.176C126.152 10.576 125.992 10.888 125.672 11.112C125.416 11.288 125.128 11.352 124.808 11.304C124.488 11.256 124.24 11.104 124.064 10.848C123.952 10.672 123.792 10.432 123.584 10.128C123.376 9.808 123.184 9.52 123.008 9.264V24.672C123.008 25.088 122.88 25.416 122.624 25.656C122.368 25.912 122.048 26.04 121.664 26.04ZM127.472 26.208C127.088 26.208 126.76 26.08 126.488 25.824C126.216 25.568 126.08 25.232 126.08 24.816V17.52C126.08 16.688 126.184 16.032 126.392 15.552C126.616 15.056 126.992 14.704 127.52 14.496C128.064 14.272 128.816 14.16 129.776 14.16H133.472C134.432 14.16 135.176 14.272 135.704 14.496C136.232 14.704 136.6 15.056 136.808 15.552C137.032 16.032 137.144 16.688 137.144 17.52V22.8C137.144 24 136.84 24.848 136.232 25.344C135.624 25.856 134.736 26.112 133.568 26.112C133.168 26.112 132.84 26 132.584 25.776C132.328 25.568 132.184 25.288 132.152 24.936C132.12 24.568 132.2 24.248 132.392 23.976C132.584 23.704 132.872 23.544 133.256 23.496C133.704 23.432 134 23.36 134.144 23.28C134.304 23.184 134.384 22.944 134.384 22.56V21.96H128.84V24.816C128.84 25.232 128.704 25.568 128.432 25.824C128.16 26.08 127.84 26.208 127.472 26.208ZM117.392 15.264C117.056 15.2 116.816 15.032 116.672 14.76C116.528 14.472 116.488 14.168 116.552 13.848C116.648 13.464 116.744 12.992 116.84 12.432C116.936 11.856 117.024 11.28 117.104 10.704C117.184 10.128 117.24 9.64 117.272 9.24C117.304 8.824 117.456 8.52 117.728 8.328C118.016 8.136 118.352 8.072 118.736 8.136C119.056 8.184 119.312 8.336 119.504 8.592C119.696 8.832 119.776 9.136 119.744 9.504C119.696 9.968 119.632 10.512 119.552 11.136C119.472 11.744 119.384 12.336 119.288 12.912C119.192 13.488 119.096 13.976 119 14.376C118.92 14.728 118.728 14.984 118.424 15.144C118.136 15.304 117.792 15.344 117.392 15.264ZM128.84 20.112H134.384V19.056H128.84V20.112ZM128.84 17.208H134.384C134.368 16.744 134.264 16.456 134.072 16.344C133.896 16.216 133.512 16.152 132.92 16.152H130.304C129.712 16.152 129.32 16.216 129.128 16.344C128.952 16.456 128.856 16.744 128.84 17.208ZM153.992 26.064C153.64 26.064 153.328 25.936 153.056 25.68C152.8 25.44 152.672 25.12 152.672 24.72V8.424C152.672 7.368 152.792 6.552 153.032 5.976C153.288 5.384 153.744 4.968 154.4 4.728C155.056 4.488 156.008 4.368 157.256 4.368C158.504 4.368 159.456 4.472 160.112 4.68C160.784 4.888 161.24 5.256 161.48 5.784C161.736 6.312 161.864 7.048 161.864 7.992C161.864 9.048 161.736 9.872 161.48 10.464C161.224 11.056 160.808 11.472 160.232 11.712C159.672 11.936 158.92 12.056 157.976 12.072C157.56 12.072 157.232 11.952 156.992 11.712C156.752 11.456 156.616 11.128 156.584 10.728C156.568 10.36 156.68 10.056 156.92 9.816C157.176 9.56 157.504 9.424 157.904 9.408C158.432 9.376 158.776 9.288 158.936 9.144C159.096 8.984 159.176 8.696 159.176 8.28C159.176 7.672 159.056 7.28 158.816 7.104C158.576 6.928 158.056 6.84 157.256 6.84C156.472 6.84 155.952 6.944 155.696 7.152C155.456 7.344 155.336 7.768 155.336 8.424V12.72H159.032C160.312 12.72 161.192 13.016 161.672 13.608C162.152 14.184 162.272 15.064 162.032 16.248C161.68 17.992 161.136 19.512 160.4 20.808C160.752 21.208 161.12 21.6 161.504 21.984C161.888 22.352 162.304 22.704 162.752 23.04C163.04 23.248 163.192 23.544 163.208 23.928C163.24 24.296 163.144 24.616 162.92 24.888C162.664 25.192 162.344 25.352 161.96 25.368C161.576 25.4 161.232 25.296 160.928 25.056C160.544 24.752 160.176 24.432 159.824 24.096C159.488 23.776 159.168 23.44 158.864 23.088C158.608 23.376 158.344 23.664 158.072 23.952C157.816 24.224 157.544 24.496 157.256 24.768C156.984 25.024 156.664 25.168 156.296 25.2C155.928 25.248 155.608 25.144 155.336 24.888C155.288 25.24 155.136 25.52 154.88 25.728C154.64 25.952 154.344 26.064 153.992 26.064ZM146.672 26.112C146.32 26.112 146.016 25.992 145.76 25.752C145.504 25.512 145.376 25.192 145.376 24.792V21.696H142.472C142.152 21.696 141.872 21.584 141.632 21.36C141.408 21.12 141.296 20.84 141.296 20.52C141.296 20.2 141.408 19.928 141.632 19.704C141.872 19.464 142.152 19.344 142.472 19.344H145.376V17.712H142.16C141.84 17.712 141.56 17.6 141.32 17.376C141.096 17.136 140.984 16.856 140.984 16.536C140.984 16.216 141.096 15.944 141.32 15.72C141.56 15.48 141.84 15.36 142.16 15.36H143.432C143.32 15.056 143.208 14.76 143.096 14.472C142.984 14.184 142.912 14 142.88 13.92C142.752 13.616 142.76 13.32 142.904 13.032C143.048 12.744 143.272 12.544 143.576 12.432H141.776C141.456 12.432 141.176 12.32 140.936 12.096C140.712 11.856 140.6 11.576 140.6 11.256C140.6 10.936 140.712 10.664 140.936 10.44C141.176 10.2 141.456 10.08 141.776 10.08H145.376V8.568H142.808C142.488 8.568 142.216 8.456 141.992 8.232C141.768 7.992 141.656 7.72 141.656 7.416C141.656 7.096 141.768 6.824 141.992 6.6C142.216 6.376 142.488 6.264 142.808 6.264H145.376V4.992C145.376 4.592 145.504 4.272 145.76 4.032C146.016 3.792 146.32 3.672 146.672 3.672C147.04 3.672 147.352 3.792 147.608 4.032C147.864 4.272 147.992 4.592 147.992 4.992V6.264H150.464C150.784 6.264 151.056 6.376 151.28 6.6C151.504 6.824 151.616 7.096 151.616 7.416C151.616 7.72 151.504 7.992 151.28 8.232C151.056 8.456 150.784 8.568 150.464 8.568H147.992V10.08H151.328C151.648 10.08 151.92 10.2 152.144 10.44C152.384 10.664 152.504 10.936 152.504 11.256C152.504 11.576 152.384 11.856 152.144 12.096C151.92 12.32 151.648 12.432 151.328 12.432H149.744C150.032 12.544 150.24 12.744 150.368 13.032C150.512 13.304 150.52 13.584 150.392 13.872C150.36 13.984 150.28 14.192 150.152 14.496C150.04 14.784 149.92 15.072 149.792 15.36H150.92C151.24 15.36 151.512 15.48 151.736 15.72C151.976 15.944 152.096 16.216 152.096 16.536C152.096 16.856 151.976 17.136 151.736 17.376C151.512 17.6 151.24 17.712 150.92 17.712H147.992V19.344H150.632C150.952 19.344 151.224 19.464 151.448 19.704C151.688 19.928 151.808 20.2 151.808 20.52C151.808 20.84 151.688 21.12 151.448 21.36C151.224 21.584 150.952 21.696 150.632 21.696H147.992V24.792C147.992 25.192 147.864 25.512 147.608 25.752C147.352 25.992 147.04 26.112 146.672 26.112ZM145.952 15.36H147.32C147.4 15.152 147.488 14.896 147.584 14.592C147.696 14.288 147.792 14 147.872 13.728C147.968 13.456 148.032 13.28 148.064 13.2C148.112 13.008 148.2 12.848 148.328 12.72C148.456 12.592 148.6 12.496 148.76 12.432H144.44C144.76 12.56 144.992 12.784 145.136 13.104C145.2 13.248 145.28 13.472 145.376 13.776C145.488 14.08 145.6 14.384 145.712 14.688C145.824 14.976 145.904 15.2 145.952 15.36ZM155.336 22.968C156.088 22.264 156.744 21.552 157.304 20.832C156.52 19.456 155.92 17.888 155.504 16.128C155.408 15.744 155.456 15.416 155.648 15.144H155.336V22.968ZM158.792 18.312C158.92 17.992 159.04 17.664 159.152 17.328C159.28 16.992 159.376 16.648 159.44 16.296C159.552 15.832 159.544 15.528 159.416 15.384C159.304 15.224 159 15.144 158.504 15.144H157.64C157.736 15.256 157.808 15.416 157.856 15.624C158.096 16.568 158.408 17.464 158.792 18.312Z" fill="#333333"/>
</svg>
