<svg width="12" height="12" viewBox="0 0 12 12" fill="none" xmlns="http://www.w3.org/2000/svg">
<g clip-path="url(#clip0_6_1536)">
<path d="M9.91372 5.81204L3.27022 0.0630399C3.21972 0.0195399 3.15422 -0.00196012 3.08822 0.00253988C3.02172 0.00803988 2.96022 0.0385399 2.91672 0.0895399L1.81022 1.38054C1.76722 1.43054 1.74572 1.49654 1.75072 1.56254C1.75622 1.62904 1.78772 1.69054 1.83822 1.73354L6.86372 6.00104L1.83822 10.2705C1.78722 10.3135 1.75622 10.375 1.75072 10.4415C1.74572 10.5075 1.76672 10.5735 1.81022 10.6235L2.91672 11.9145C2.96022 11.9655 3.02172 11.996 3.08822 12.0015C3.09422 12.002 3.10072 12.002 3.10672 12.002C3.16672 12.002 3.22472 11.9805 3.27022 11.941L9.91372 6.19004C9.96872 6.14254 10.0002 6.07404 10.0002 6.00104C10.0002 5.92804 9.96872 5.85954 9.91372 5.81204Z" fill="white"/>
</g>
<defs>
<clipPath id="clip0_6_1536">
<rect width="12" height="12" fill="white"/>
</clipPath>
</defs>
</svg>
