<svg width="36" height="18" viewBox="0 0 36 18" fill="none" xmlns="http://www.w3.org/2000/svg">
<path d="M8.4375 10.0352C7.71436 10.0352 7.00747 10.2496 6.4062 10.6513C5.80493 11.0531 5.3363 11.6241 5.05957 12.2922C4.78283 12.9603 4.71043 13.6955 4.85151 14.4047C4.99258 15.1139 5.34081 15.7654 5.85214 16.2768C6.36348 16.7881 7.01496 17.1363 7.7242 17.2774C8.43345 17.4185 9.1686 17.3461 9.83669 17.0693C10.5048 16.7926 11.0758 16.324 11.4776 15.7227C11.8793 15.1214 12.0938 14.4145 12.0938 13.6914C12.0927 12.722 11.7071 11.7927 11.0216 11.1073C10.3362 10.4218 9.40686 10.0363 8.4375 10.0352ZM8.4375 15.3789C8.10375 15.3789 7.77748 15.2799 7.49998 15.0945C7.22247 14.9091 7.00618 14.6455 6.87845 14.3372C6.75073 14.0288 6.71731 13.6895 6.78243 13.3622C6.84754 13.0348 7.00826 12.7342 7.24426 12.4982C7.48026 12.2622 7.78094 12.1014 8.10829 12.0363C8.43563 11.9712 8.77493 12.0046 9.08328 12.1324C9.39163 12.2601 9.65518 12.4764 9.84061 12.7539C10.026 13.0314 10.125 13.3577 10.125 13.6914C10.125 14.139 9.94721 14.5682 9.63074 14.8846C9.31428 15.2011 8.88505 15.3789 8.4375 15.3789Z" fill="#B2C10F"/>
<path d="M28.6875 10.0352C27.9644 10.0352 27.2575 10.2496 26.6562 10.6513C26.0549 11.0531 25.5863 11.6241 25.3096 12.2922C25.0328 12.9603 24.9604 13.6955 25.1015 14.4047C25.2426 15.1139 25.5908 15.7654 26.1021 16.2768C26.6135 16.7881 27.265 17.1363 27.9742 17.2774C28.6834 17.4185 29.4186 17.3461 30.0867 17.0693C30.7548 16.7926 31.3258 16.324 31.7276 15.7227C32.1293 15.1214 32.3438 14.4145 32.3438 13.6914C32.3427 12.722 31.9571 11.7927 31.2716 11.1073C30.5862 10.4218 29.6569 10.0363 28.6875 10.0352ZM28.6875 15.3789C28.3537 15.3789 28.0275 15.2799 27.75 15.0945C27.4725 14.9091 27.2562 14.6455 27.1285 14.3372C27.0007 14.0288 26.9673 13.6895 27.0324 13.3622C27.0975 13.0348 27.2583 12.7342 27.4943 12.4982C27.7303 12.2622 28.0309 12.1014 28.3583 12.0363C28.6856 11.9712 29.0249 12.0046 29.3333 12.1324C29.6416 12.2601 29.9052 12.4764 30.0906 12.7539C30.276 13.0314 30.375 13.3577 30.375 13.6914C30.375 14.139 30.1972 14.5682 29.8807 14.8846C29.5643 15.2011 29.1351 15.3789 28.6875 15.3789Z" fill="#B2C10F"/>
<path d="M33.5672 7.01454L27 5.81641L21.4091 1.17755C20.855 0.72239 20.1603 0.473298 19.4432 0.472665H11.2064C10.7422 0.471566 10.2838 0.575439 9.86547 0.776514C9.44711 0.977589 9.07964 1.27066 8.79054 1.63381L5.21944 5.81641H2.8125C2.1414 5.81716 1.498 6.08408 1.02346 6.55862C0.548918 7.03316 0.281994 7.67656 0.28125 8.34766V11.4414C0.282162 12.2616 0.608403 13.048 1.1884 13.628C1.76839 14.208 2.55477 14.5343 3.375 14.5352H4.01801C3.8932 13.8843 3.91371 13.2138 4.07808 12.5718C4.24245 11.9297 4.54661 11.3319 4.96883 10.821C5.39105 10.3101 5.92091 9.89883 6.52053 9.6165C7.12015 9.33416 7.77473 9.18776 8.4375 9.18776C9.10027 9.18776 9.75485 9.33416 10.3545 9.6165C10.9541 9.89883 11.4839 10.3101 11.9062 10.821C12.3284 11.3319 12.6326 11.9297 12.7969 12.5718C12.9613 13.2138 12.9818 13.8843 12.857 14.5352H24.268C24.1432 13.8843 24.1637 13.2138 24.3281 12.5718C24.4924 11.9297 24.7966 11.3319 25.2188 10.821C25.6411 10.3101 26.1709 9.89883 26.7705 9.6165C27.3702 9.33416 28.0247 9.18776 28.6875 9.18776C29.3503 9.18776 30.0048 9.33416 30.6045 9.6165C31.2041 9.89883 31.7339 10.3101 32.1562 10.821C32.5784 11.3319 32.8825 11.9297 33.0469 12.5718C33.2113 13.2138 33.2318 13.8843 33.107 14.5352H33.1875C33.8586 14.5344 34.502 14.2675 34.9765 13.793C35.4511 13.3184 35.718 12.675 35.7188 12.0039V9.5171C35.7218 8.91074 35.5058 8.32367 35.1105 7.86388C34.7152 7.40408 34.1671 7.10248 33.5672 7.01454ZM12.6562 4.97266C12.6562 5.19644 12.5674 5.41105 12.4091 5.56929C12.2509 5.72752 12.0363 5.81641 11.8125 5.81641H8.10316C8.0225 5.81646 7.94351 5.79338 7.87556 5.74991C7.80761 5.70643 7.75355 5.64439 7.71979 5.57113C7.68602 5.49787 7.67397 5.41647 7.68505 5.33657C7.69614 5.25667 7.7299 5.18162 7.78233 5.12032L10.2374 2.24454C10.3166 2.15187 10.415 2.07748 10.5258 2.0265C10.6366 1.97552 10.7571 1.94916 10.879 1.94923H11.8125C12.0363 1.94923 12.2509 2.03812 12.4091 2.19636C12.5674 2.35459 12.6562 2.5692 12.6562 2.79298V4.97266ZM16.875 8.91016H15.75C15.5262 8.91016 15.3116 8.82127 15.1534 8.66304C14.9951 8.5048 14.9062 8.29019 14.9062 8.06641C14.9062 7.84264 14.9951 7.62803 15.1534 7.46979C15.3116 7.31156 15.5262 7.22266 15.75 7.22266H16.875C17.0988 7.22266 17.3134 7.31156 17.4716 7.46979C17.6299 7.62803 17.7188 7.84264 17.7188 8.06641C17.7188 8.29019 17.6299 8.5048 17.4716 8.66304C17.3134 8.82127 17.0988 8.91016 16.875 8.91016ZM23.5181 5.83709L15.4668 5.81838C15.2433 5.81786 15.0292 5.72874 14.8714 5.57056C14.7136 5.41238 14.625 5.19807 14.625 4.97463V2.79298C14.625 2.5692 14.7139 2.35459 14.8721 2.19636C15.0304 2.03812 15.245 1.94923 15.4688 1.94923H19.5151C19.7047 1.94924 19.8889 2.01315 20.0377 2.13063L23.7803 5.08376C23.8493 5.13808 23.8996 5.21257 23.9243 5.29685C23.9489 5.38113 23.9466 5.471 23.9177 5.55392C23.8889 5.63685 23.8349 5.7087 23.7632 5.75945C23.6916 5.81021 23.6059 5.83735 23.5181 5.83709Z" fill="#B2C10F"/>
</svg>
