<svg width="8" height="12" viewBox="0 0 8 12" fill="none" xmlns="http://www.w3.org/2000/svg">
<path d="M7.68345 5.82082L1.43079 0.410032C1.38326 0.369091 1.32161 0.348856 1.2595 0.353091C1.19691 0.358268 1.13903 0.386973 1.09809 0.434973L0.0566813 1.65002C0.016211 1.69708 -0.00402416 1.7592 0.000681686 1.82132C0.00585812 1.8839 0.035505 1.94179 0.0830341 1.98226L4.81288 5.9987L0.0830341 10.017C0.0350345 10.0575 0.00585812 10.1154 0.000681686 10.178C-0.00402416 10.2401 0.0157404 10.3022 0.0566813 10.3493L1.09809 11.5643C1.13903 11.6123 1.19691 11.641 1.2595 11.6462C1.26514 11.6467 1.27126 11.6467 1.27691 11.6467C1.33338 11.6467 1.38797 11.6264 1.43079 11.5892L7.68345 6.17658C7.73521 6.13187 7.76486 6.0674 7.76486 5.9987C7.76486 5.92999 7.73521 5.86552 7.68345 5.82082Z" fill="#444444"/>
</svg>
