<svg width="90" height="60" viewBox="0 0 90 60" fill="none" xmlns="http://www.w3.org/2000/svg">
<path d="M79.7007 24.8644C79.5323 17.3994 73.4144 11.3938 65.8934 11.3938C64.3779 11.3938 62.9186 11.6183 61.5716 12.0674C60.1123 5.16371 53.9944 0 46.6978 0C40.4116 0 35.0234 3.81665 32.7222 9.20486C31.5996 8.92423 30.4771 8.75585 29.2984 8.75585C21.7774 8.75585 15.6595 14.8176 15.4911 22.2825C6.90365 22.3948 0 29.4107 0 37.9981C0 46.6978 7.07203 53.7138 15.7156 53.7138C17.7923 53.7138 19.8129 53.3209 21.6651 52.5351C23.9663 56.9691 28.5688 60 33.957 60C39.2891 60 43.8915 56.9691 46.1927 52.5351C48.4939 56.9691 53.0964 60 58.4284 60C64.3218 60 69.3732 56.2956 71.3377 51.0196C72.6848 51.4687 74.1441 51.7493 75.7156 51.7493C83.3489 51.7493 89.5229 45.5753 89.5229 37.942C89.5229 31.8241 85.3695 26.5482 79.7007 24.8644Z" fill="white" fill-opacity="0.75"/>
</svg>
