<svg width="93" height="60" viewBox="0 0 93 60" fill="none" xmlns="http://www.w3.org/2000/svg">
<path d="M77.5251 22.132C77.0825 22.132 76.6398 22.132 76.2604 22.1952C76.3237 21.6261 76.3237 21.1202 76.3237 20.5511C76.3237 9.23219 67.1547 0 55.7725 0C48.5006 0 42.114 3.79405 38.4464 9.54836C37.6876 9.48513 36.992 9.42189 36.2332 9.42189C25.6099 9.42189 16.8835 17.4526 15.8085 27.823C15.5556 27.823 15.3027 27.823 15.0497 27.823C6.76607 27.823 0 34.5259 0 42.8728C0 51.1565 6.70283 57.9225 15.0497 57.9225C17.8953 57.9225 20.4879 57.1637 22.7643 55.7725C26.6848 58.6813 32.123 60.3254 38.0037 59.946C44.2007 59.5666 49.5756 56.974 53.1167 53.3064C55.8358 56.152 59.6931 57.9225 63.9298 57.9225C68.7355 57.9225 72.9723 55.6461 75.7546 52.1682C76.3869 52.2314 76.956 52.2947 77.5883 52.2947C85.872 52.2947 92.6381 45.5918 92.6381 37.2449C92.5748 28.898 85.8088 22.132 77.5251 22.132Z" fill="white" fill-opacity="0.75"/>
</svg>
