<svg width="92" height="36" viewBox="0 0 92 36" fill="none" xmlns="http://www.w3.org/2000/svg">
<path d="M90.3329 36C90.9988 34.3576 91.3983 32.5376 91.3983 30.6732C91.3983 22.9938 85.1838 16.7793 77.5044 16.7793C76.4834 16.7793 75.5068 16.9125 74.5302 17.09C72.2663 12.5179 67.561 9.41059 62.1011 9.41059C61.5684 9.41059 61.0358 9.45501 60.5031 9.4994C58.9495 4.03947 53.889 0 47.8964 0C43.9014 0 40.3502 1.7756 37.9531 4.61654C35.4229 2.75217 32.3157 1.6424 28.9864 1.6424C21.1295 1.6424 14.693 7.63503 13.9827 15.2701C13.9384 15.2701 13.9383 15.2701 13.894 15.2701C6.21455 15.2701 0 21.4846 0 29.164C0 31.6498 0.665834 34.0025 1.81997 36H90.3329Z" fill="white" fill-opacity="0.75"/>
</svg>
