<svg width="96" height="72" viewBox="0 0 96 72" fill="none" xmlns="http://www.w3.org/2000/svg">
<path d="M90.8586 37.2177C90.9835 36.4059 91.046 35.5317 91.046 34.6574C91.046 23.8543 82.3035 15.0494 71.438 15.0494C68.9401 15.0494 66.5672 15.549 64.3816 16.3608C62.4458 6.99394 54.1405 0 44.2116 0C33.6583 0 24.9783 7.93062 23.7919 18.1093C15.2368 19.4206 8.61751 26.7893 8.61751 35.719C8.61751 35.9688 8.61751 36.281 8.61751 36.5308C3.49696 39.0911 0 44.0867 0 49.7693C0 58.137 7.49349 64.9436 16.7355 64.9436C19.9826 64.9436 22.98 64.1318 25.5403 62.6956C29.0373 68.1908 37.0304 72 46.3348 72C54.3903 72 61.4467 69.1275 65.4432 64.7563C68.6279 67.3166 72.6245 68.8777 76.9332 68.8777C87.1743 68.8777 95.4796 60.3227 95.4796 49.7693C95.4796 44.961 93.7311 40.5898 90.8586 37.2177Z" fill="white" fill-opacity="0.75"/>
</svg>
