<svg width="81" height="80" viewBox="0 0 81 80" fill="none" xmlns="http://www.w3.org/2000/svg">
<g clip-path="url(#clip0_106_5521)">
<path d="M2.7666 51.2593V55.543C2.7666 56.0613 3.18676 56.4816 3.7052 56.4816H58.8457C58.8457 56.4816 66.1343 50.0541 66.1343 42.903C66.1343 35.752 61.4897 30.791 61.4897 30.791H55.9446L57.3293 36.1449C58.8224 41.918 54.4638 47.5473 48.5008 47.5473H42.828C39.9143 47.5473 37.556 45.1777 37.5697 42.264L37.5813 39.8163C37.5813 37.4424 35.6591 35.5182 33.288 35.5182H18.4979C9.80973 35.5182 2.7666 42.5657 2.7666 51.2593Z" fill="#FFD15B"/>
<path d="M32.8948 39.8168L32.8833 42.2645C32.8694 45.1782 35.2277 47.5478 38.1416 47.5478H42.8291C39.9153 47.5478 37.557 45.1782 37.5708 42.2645L37.5823 39.8168C37.5823 37.4429 35.6602 35.5186 33.2891 35.5186H28.6016C30.9727 35.5186 32.8948 37.4429 32.8948 39.8168Z" fill="#FDB441"/>
<path d="M61.4907 30.791H57.7932C57.7932 30.791 61.4478 35.752 61.4478 42.903C61.4478 50.0541 54.1592 56.4816 54.1592 56.4816H58.8467C58.8467 56.4816 66.1353 50.0541 66.1353 42.903C66.1353 35.752 61.4907 30.791 61.4907 30.791Z" fill="#FDB441"/>
<path d="M17.6895 67.1875C22.9534 67.1875 27.2207 62.9202 27.2207 57.6562C27.2207 52.3923 22.9534 48.125 17.6895 48.125C12.4255 48.125 8.1582 52.3923 8.1582 57.6562C8.1582 62.9202 12.4255 67.1875 17.6895 67.1875Z" fill="#7A6D79"/>
<path d="M66.6494 67.1875C71.9134 67.1875 76.1807 62.9202 76.1807 57.6562C76.1807 52.3923 71.9134 48.125 66.6494 48.125C61.3855 48.125 57.1182 52.3923 57.1182 57.6562C57.1182 62.9202 61.3855 67.1875 66.6494 67.1875Z" fill="#7A6D79"/>
<path d="M17.69 60.92C19.4928 60.92 20.9542 59.4586 20.9542 57.6558C20.9542 55.853 19.4928 54.3916 17.69 54.3916C15.8872 54.3916 14.4258 55.853 14.4258 57.6558C14.4258 59.4586 15.8872 60.92 17.69 60.92Z" fill="#9FACBA"/>
<path d="M66.649 60.92C68.4518 60.92 69.9132 59.4586 69.9132 57.6558C69.9132 55.853 68.4518 54.3916 66.649 54.3916C64.8462 54.3916 63.3848 55.853 63.3848 57.6558C63.3848 59.4586 64.8462 60.92 66.649 60.92Z" fill="#9FACBA"/>
<path d="M5.85607 56.4815H29.5233C29.8459 56.4815 30.1058 56.212 30.0908 55.8895C29.7819 49.3031 24.3478 44.0576 17.6897 44.0576C11.0317 44.0576 5.59748 49.3031 5.28873 55.8895C5.27342 56.212 5.53342 56.4815 5.85607 56.4815Z" fill="#BD80E1"/>
<path d="M17.6895 44.0576C16.888 44.0576 16.1049 44.1354 15.3457 44.2806C20.8934 45.3417 25.1313 50.0959 25.403 55.8895C25.4182 56.212 25.1582 56.4817 24.8355 56.4817H29.523C29.8457 56.4817 30.1057 56.2122 30.0905 55.8895C29.7816 49.3029 24.3474 44.0576 17.6895 44.0576Z" fill="#AF66DA"/>
<path d="M13.4705 35.5425H35.6339C36.9292 35.5425 37.9794 34.4923 37.9794 33.197C37.9794 31.9017 36.9292 30.8516 35.6339 30.8516H13.4705C12.1752 30.8516 11.125 31.9017 11.125 33.197C11.125 34.4923 12.1752 35.5425 13.4705 35.5425Z" fill="#918291"/>
<path d="M35.6348 30.8516H30.9473C32.2426 30.8516 33.2927 31.9017 33.2927 33.197C33.2927 34.4925 32.2426 35.5425 30.9473 35.5425H35.6348C36.9301 35.5425 37.9802 34.4925 37.9802 33.197C37.9802 31.9017 36.9301 30.8516 35.6348 30.8516Z" fill="#7A6D79"/>
<path d="M55.7637 30.7914H67.4416C68.2512 30.7914 68.9074 30.1352 68.9074 29.3257V25.7832C68.9074 24.9736 68.2512 24.3174 67.4416 24.3174H61.1521C58.1762 24.3174 55.7637 26.7299 55.7637 29.7058V30.7914Z" fill="#BD80E1"/>
<path d="M64.6916 30.7914H67.4422C68.2516 30.7914 68.9077 30.1354 68.9077 29.326V25.7835C68.9077 24.9738 68.2513 24.3174 67.4416 24.3174H64.6914V30.7914H64.6916Z" fill="#FFD15B"/>
<path d="M53.1914 19.0625C54.9173 19.0625 56.3164 17.6634 56.3164 15.9375C56.3164 14.2116 54.9173 12.8125 53.1914 12.8125C51.4655 12.8125 50.0664 14.2116 50.0664 15.9375C50.0664 17.6634 51.4655 19.0625 53.1914 19.0625Z" fill="#BD80E1"/>
<path d="M21.5475 30.8486H4.05406C2.58531 30.8486 1.39453 29.6579 1.39453 28.1891V19.9111H24.207V28.1891C24.207 29.6579 23.0163 30.8486 21.5475 30.8486Z" fill="#EB5569"/>
<path d="M19.5199 19.9111V28.1891C19.5199 29.6579 18.3291 30.8486 16.8604 30.8486H21.5479C23.0166 30.8486 24.2074 29.6579 24.2074 28.1891V19.9111H19.5199Z" fill="#E53950"/>
<path d="M24.207 19.9111H1.39453V17.2582C1.39453 15.7894 2.58531 14.5986 4.05406 14.5986H21.5475C23.0163 14.5986 24.207 15.7894 24.207 17.2582V19.9111Z" fill="#F9F3F1"/>
<path d="M21.5479 14.5986H16.8604C18.3291 14.5986 19.5199 15.7894 19.5199 17.2582V19.9111H24.2074V17.2582C24.2074 15.7893 23.0166 14.5986 21.5479 14.5986Z" fill="#EFE2DD"/>
<path d="M54.8277 56.4815H78.4832C78.8057 56.4815 79.0655 56.212 79.0504 55.8895C78.7416 49.3031 73.3102 44.0576 66.6554 44.0576C60.0007 44.0576 54.5691 49.3031 54.2604 55.8895C54.2454 56.212 54.5052 56.4815 54.8277 56.4815Z" fill="#BD80E1"/>
<path d="M66.6553 44.0576C65.8539 44.0576 65.0707 44.1354 64.3115 44.2807C69.8559 45.3423 74.0912 50.0962 74.3628 55.8893C74.3779 56.2118 74.1181 56.4815 73.7956 56.4815H78.4831C78.8056 56.4815 79.0654 56.212 79.0503 55.8893C78.7417 49.3029 73.3101 44.0576 66.6553 44.0576Z" fill="#AF66DA"/>
<path d="M59.7119 56.4785H73.5989C73.5989 52.681 70.4907 49.6035 66.6553 49.6035C62.8202 49.6035 59.7119 52.6812 59.7119 56.4785Z" fill="#FFD15B"/>
<path d="M10.8145 56.4785H24.5645C24.5645 52.681 21.4868 49.6035 17.6895 49.6035C13.8921 49.6035 10.8145 52.6812 10.8145 56.4785Z" fill="#FFD15B"/>
<path d="M8.20898 56.667C8.17539 56.9923 8.1582 57.3223 8.1582 57.6565C8.1582 62.9204 12.4255 67.1878 17.6895 67.1878C22.9534 67.1878 27.2207 62.9204 27.2207 57.6565C27.2207 57.3757 27.2085 57.0978 27.1848 56.8231" stroke="black" stroke-width="2.34375" stroke-miterlimit="10" stroke-linecap="round" stroke-linejoin="round"/>
<path d="M57.1541 56.8232C57.1304 57.0978 57.1182 57.3756 57.1182 57.6562C57.1182 62.9201 61.3855 67.1875 66.6494 67.1875C71.9133 67.1875 76.1807 62.9201 76.1807 57.6562C76.1807 57.394 76.17 57.1343 76.1493 56.8775" stroke="black" stroke-width="2.34375" stroke-miterlimit="10" stroke-linecap="round" stroke-linejoin="round"/>
<path d="M14.5419 56.7901C14.4661 57.0659 14.4258 57.3563 14.4258 57.6562C14.4258 59.459 15.8872 60.9204 17.69 60.9204C19.4928 60.9204 20.9541 59.459 20.9541 57.6562C20.9541 57.3524 20.9125 57.0584 20.835 56.7793" stroke="black" stroke-width="2.34375" stroke-miterlimit="10" stroke-linecap="round" stroke-linejoin="round"/>
<path d="M63.5201 56.7232C63.4321 57.0188 63.3848 57.3319 63.3848 57.656C63.3848 59.4588 64.8462 60.9202 66.649 60.9202C68.4518 60.9202 69.9132 59.4588 69.9132 57.656C69.9132 57.3191 69.8621 56.9941 69.7674 56.6885" stroke="black" stroke-width="2.34375" stroke-miterlimit="10" stroke-linecap="round" stroke-linejoin="round"/>
<path d="M5.85607 56.4815H29.5233C29.8459 56.4815 30.1058 56.212 30.0908 55.8895C29.7819 49.3031 24.3478 44.0576 17.6897 44.0576C11.0317 44.0576 5.59748 49.3031 5.28873 55.8895C5.27342 56.212 5.53342 56.4815 5.85607 56.4815Z" stroke="black" stroke-width="2.34375" stroke-miterlimit="10" stroke-linecap="round" stroke-linejoin="round"/>
<path d="M45.917 56.4824H58.8456" stroke="black" stroke-width="2.34375" stroke-miterlimit="10" stroke-linecap="round" stroke-linejoin="round"/>
<path d="M66.1091 43.6363C66.1257 43.3929 66.1343 43.1484 66.1343 42.903C66.1343 35.752 61.4897 30.791 61.4897 30.791H55.9447L57.3294 36.1449C58.8225 41.918 54.4639 47.5473 48.501 47.5473H42.8282C39.9144 47.5473 37.5561 45.1777 37.5699 42.264L37.5814 39.8163C37.5814 37.4424 35.6593 35.5182 33.2882 35.5182H18.498C9.80988 35.5182 2.7666 42.5657 2.7666 51.2593V55.543C2.7666 56.0613 3.18676 56.4816 3.7052 56.4816H40.641" stroke="black" stroke-width="2.34375" stroke-miterlimit="10" stroke-linecap="round" stroke-linejoin="round"/>
<path d="M13.4705 35.5425H35.6339C36.9292 35.5425 37.9794 34.4923 37.9794 33.197C37.9794 31.9017 36.9292 30.8516 35.6339 30.8516H13.4705C12.1752 30.8516 11.125 31.9017 11.125 33.197C11.125 34.4923 12.1752 35.5425 13.4705 35.5425Z" stroke="black" stroke-width="2.34375" stroke-miterlimit="10" stroke-linecap="round" stroke-linejoin="round"/>
<path d="M55.7637 30.7914H67.4416C68.2512 30.7914 68.9074 30.1352 68.9074 29.3257V25.7832C68.9074 24.9736 68.2512 24.3174 67.4416 24.3174H61.1521C58.1762 24.3174 55.7637 26.7299 55.7637 29.7058V30.7914Z" stroke="black" stroke-width="2.34375" stroke-miterlimit="10" stroke-linecap="round" stroke-linejoin="round"/>
<path d="M64.6916 30.7914H67.4422C68.2516 30.7914 68.9077 30.1354 68.9077 29.326V25.7835C68.9077 24.9738 68.2513 24.3174 67.4416 24.3174H64.6914V30.7914H64.6916Z" stroke="black" stroke-width="2.34375" stroke-miterlimit="10" stroke-linecap="round" stroke-linejoin="round"/>
<path d="M61.4288 30.791H51.8135" stroke="black" stroke-width="2.34375" stroke-miterlimit="10" stroke-linecap="round" stroke-linejoin="round"/>
<path d="M60.2786 24.3173L59.7744 20.2797C59.6648 19.4022 59.1658 18.6209 58.4158 18.1523L56.6211 17.0312" stroke="black" stroke-width="2.34375" stroke-miterlimit="10" stroke-linecap="round" stroke-linejoin="round"/>
<path d="M53.1914 19.0625C54.9173 19.0625 56.3164 17.6634 56.3164 15.9375C56.3164 14.2116 54.9173 12.8125 53.1914 12.8125C51.4655 12.8125 50.0664 14.2116 50.0664 15.9375C50.0664 17.6634 51.4655 19.0625 53.1914 19.0625Z" stroke="black" stroke-width="2.34375" stroke-miterlimit="10" stroke-linecap="round" stroke-linejoin="round"/>
<path d="M21.5475 30.8486H4.05406C2.58531 30.8486 1.39453 29.6579 1.39453 28.1891V19.9111H24.207V28.1891C24.207 29.6579 23.0163 30.8486 21.5475 30.8486Z" stroke="black" stroke-width="2.34375" stroke-miterlimit="10" stroke-linecap="round" stroke-linejoin="round"/>
<path d="M13.1394 14.5986H21.5475C23.0163 14.5986 24.207 15.7894 24.207 17.2582V19.9111H1.39453V17.2582C1.39453 15.7894 2.58531 14.5986 4.05406 14.5986H7.51438" stroke="black" stroke-width="2.34375" stroke-miterlimit="10" stroke-linecap="round" stroke-linejoin="round"/>
<path d="M30.0913 41.2926H25.9371C23.9135 41.2926 22.0536 40.1807 21.0957 38.3982L13.9072 25.0225" stroke="black" stroke-width="2.34375" stroke-miterlimit="10" stroke-linecap="round" stroke-linejoin="round"/>
<path d="M54.8277 56.4815H78.4832C78.8057 56.4815 79.0655 56.212 79.0504 55.8895C78.7416 49.3031 73.3102 44.0576 66.6554 44.0576C60.0007 44.0576 54.5691 49.3031 54.2604 55.8895C54.2454 56.212 54.5052 56.4815 54.8277 56.4815Z" stroke="black" stroke-width="2.34375" stroke-miterlimit="10" stroke-linecap="round" stroke-linejoin="round"/>
<path d="M59.7119 56.4785H73.5989C73.5989 52.681 70.4907 49.6035 66.6553 49.6035C62.8202 49.6035 59.7119 52.6812 59.7119 56.4785Z" stroke="black" stroke-width="2.34375" stroke-miterlimit="10" stroke-linecap="round" stroke-linejoin="round"/>
<path d="M10.8145 56.4785H24.5645C24.5645 52.681 21.4868 49.6035 17.6895 49.6035C13.8921 49.6035 10.8145 52.6812 10.8145 56.4785Z" stroke="black" stroke-width="2.34375" stroke-miterlimit="10" stroke-linecap="round" stroke-linejoin="round"/>
</g>
<defs>
<clipPath id="clip0_106_5521">
<rect width="80" height="80" fill="white" transform="translate(0.222656)"/>
</clipPath>
</defs>
</svg>
