<svg width="81" height="80" viewBox="0 0 81 80" fill="none" xmlns="http://www.w3.org/2000/svg">
<g clip-path="url(#clip0_106_5527)">
<path d="M76.2563 55.0411H4.36227C2.90773 55.0411 1.72852 53.8619 1.72852 52.4074V21.0644C1.72852 19.6099 2.90773 18.4307 4.36227 18.4307H73.6107C74.218 18.4306 74.8065 18.6414 75.2758 19.027C75.745 19.4126 76.0658 19.9491 76.1835 20.5449L79.3332 36.4841C79.3663 36.6516 79.3829 36.8218 79.3829 36.9925V51.9144C79.3831 53.6411 77.9832 55.0411 76.2563 55.0411Z" fill="#E8EB6B"/>
<path opacity="0.419608" d="M79.3332 36.4841L76.1835 20.5449C76.0658 19.9491 75.7449 19.4126 75.2757 19.027C74.8064 18.6414 74.2179 18.4306 73.6105 18.4307H69.9548L72.114 29.3575C72.1298 29.4375 72.1377 29.5188 72.1377 29.6004V46.0264C72.1377 46.9964 71.3513 47.7829 70.3813 47.7829H1.72852V52.4072C1.72852 53.8618 2.90773 55.041 4.36227 55.041H76.2563C77.9832 55.041 79.383 53.6411 79.383 51.9143V36.9924C79.3829 36.8217 79.3663 36.6515 79.3332 36.4841Z" fill="#BCAE0F"/>
<path d="M15.6883 61.5689C19.2937 61.5689 22.2164 58.6462 22.2164 55.0408C22.2164 51.4354 19.2937 48.5127 15.6883 48.5127C12.0829 48.5127 9.16016 51.4354 9.16016 55.0408C9.16016 58.6462 12.0829 61.5689 15.6883 61.5689Z" fill="#35495D"/>
<path d="M65.4227 61.5689C69.028 61.5689 71.9508 58.6462 71.9508 55.0408C71.9508 51.4354 69.028 48.5127 65.4227 48.5127C61.8173 48.5127 58.8945 51.4354 58.8945 55.0408C58.8945 58.6462 61.8173 61.5689 65.4227 61.5689Z" fill="#35495D"/>
<path d="M64.6957 61.5277C64.937 61.5549 65.1796 61.5686 65.4225 61.5689C69.0278 61.5689 71.9506 58.6461 71.9506 55.0408C71.9506 51.4354 69.0278 48.5127 65.4225 48.5127C65.1761 48.5127 64.9334 48.5275 64.694 48.5541L64.6957 61.5277ZM14.9617 61.5277C15.203 61.5549 15.4456 61.5686 15.6884 61.5689C19.2937 61.5689 22.2165 58.6461 22.2165 55.0408C22.2165 51.4354 19.2937 48.5127 15.6884 48.5127C15.442 48.5127 15.1993 48.5275 14.96 48.5541L14.9617 61.5277Z" fill="#2A3A4C"/>
<path d="M65.4225 57.8703C66.9853 57.8703 68.2521 56.6034 68.2521 55.0406C68.2521 53.4778 66.9853 52.2109 65.4225 52.2109C63.8597 52.2109 62.5928 53.4778 62.5928 55.0406C62.5928 56.6034 63.8597 57.8703 65.4225 57.8703Z" fill="#CADDEA"/>
<path d="M79.3829 36.9921C79.3829 36.8215 79.3662 36.6512 79.3332 36.4837L76.7054 23.1855H59.8798C59.641 23.1855 59.412 23.2804 59.2432 23.4492C59.0743 23.6181 58.9795 23.8471 58.9795 24.0859V36.7351C58.9795 37.5535 59.3654 38.3251 60.0249 38.8096C61.8912 40.1805 66.8543 42.481 79.3829 42.917V36.9921ZM27.249 37.778H7.61773C7.5261 37.778 7.43536 37.76 7.35069 37.7249C7.26603 37.6899 7.1891 37.6385 7.12431 37.5737C7.05951 37.5089 7.00811 37.4319 6.97304 37.3473C6.93797 37.2626 6.91992 37.1719 6.91992 37.0802V23.8834C6.91992 23.6983 6.99344 23.5208 7.12431 23.3899C7.25517 23.2591 7.43266 23.1855 7.61773 23.1855H27.249C27.4341 23.1855 27.6115 23.2591 27.7424 23.3899C27.8733 23.5208 27.9468 23.6983 27.9468 23.8834V37.0802C27.9468 37.4655 27.6343 37.778 27.249 37.778ZM52.9929 37.778H33.3616C33.27 37.778 33.1793 37.76 33.0946 37.7249C33.0099 37.6899 32.933 37.6385 32.8682 37.5737C32.8034 37.5089 32.752 37.4319 32.7169 37.3473C32.6819 37.2626 32.6638 37.1719 32.6638 37.0802V23.8834C32.6638 23.6983 32.7374 23.5208 32.8682 23.3899C32.9991 23.2591 33.1766 23.1855 33.3616 23.1855H52.9929C53.178 23.1855 53.3555 23.2591 53.4863 23.3899C53.6172 23.5208 53.6907 23.6983 53.6907 23.8834V37.0802C53.6907 37.4655 53.3782 37.778 52.9929 37.778Z" fill="#B5E7FE"/>
<path d="M78.5055 32.2952L76.7053 23.1855H70.8945L72.1141 29.3573C72.1298 29.4373 72.1378 29.5185 72.1378 29.6001V42.3851C74.2158 42.6334 76.6142 42.8209 79.3828 42.9171V36.9923C79.3827 36.8216 79.366 36.6513 79.333 36.4838L78.5055 32.2952Z" fill="#9AD8ED"/>
<path d="M15.6881 57.8703C17.2509 57.8703 18.5178 56.6034 18.5178 55.0406C18.5178 53.4778 17.2509 52.2109 15.6881 52.2109C14.1253 52.2109 12.8584 53.4778 12.8584 55.0406C12.8584 56.6034 14.1253 57.8703 15.6881 57.8703Z" fill="#CADDEA"/>
<path d="M58.9795 45.8642H61.0399C61.1939 45.8642 61.3465 45.8339 61.4888 45.7749C61.6311 45.716 61.7604 45.6296 61.8693 45.5207C61.9782 45.4118 62.0646 45.2825 62.1235 45.1402C62.1824 44.9979 62.2128 44.8454 62.2127 44.6914C62.2128 44.5373 62.1824 44.3848 62.1235 44.2425C62.0646 44.1002 61.9782 43.9709 61.8693 43.862C61.7604 43.7531 61.6311 43.6667 61.4888 43.6078C61.3465 43.5489 61.1939 43.5185 61.0399 43.5186H58.9795C58.6684 43.5186 58.3701 43.6421 58.1501 43.8621C57.9302 44.082 57.8066 44.3803 57.8066 44.6914C57.8066 45.0024 57.9302 45.3007 58.1501 45.5207C58.3701 45.7406 58.6684 45.8642 58.9795 45.8642Z" fill="black"/>
<path d="M80.5519 36.8442C80.5444 36.6468 80.5215 36.4503 80.4835 36.2565L77.8558 22.9584C77.8556 22.958 77.8555 22.9575 77.8555 22.957L77.3339 20.3175C76.9836 18.5447 75.4177 17.2578 73.6105 17.2578H4.36206C2.26316 17.2577 0.555664 18.9653 0.555664 21.0644V52.4073C0.555664 54.5062 2.26316 56.2137 4.36206 56.2137H8.0769C8.6433 59.9054 11.841 62.7419 15.6886 62.7419C19.5363 62.7419 22.7339 59.9055 23.3003 56.2137H26.3206C26.6317 56.2137 26.93 56.0901 27.1499 55.8702C27.3699 55.6502 27.4934 55.3519 27.4934 55.0409C27.4934 54.7298 27.3699 54.4315 27.1499 54.2116C26.93 53.9916 26.6317 53.8681 26.3206 53.8681H23.3001C22.7337 50.1765 19.5361 47.3399 15.6884 47.3399C11.8408 47.3399 8.64315 50.1763 8.07674 53.8681H4.36206C3.55644 53.8681 2.90113 53.2126 2.90113 52.4071V21.0644C2.90113 20.2587 3.55644 19.6033 4.36206 19.6033H73.6104C73.946 19.604 74.271 19.7207 74.5303 19.9338C74.7896 20.1469 74.9671 20.4431 75.0329 20.7722L75.278 22.0131H59.8796C58.7365 22.0131 57.8065 22.9431 57.8065 24.0862V36.7354C57.8065 37.9254 58.3762 39.0543 59.3304 39.7551C61.6274 41.4426 66.7632 43.5279 78.2099 44.0442V51.9143C78.2099 52.9918 77.3333 53.8684 76.2558 53.8684H73.0341C72.4676 50.1768 69.2701 47.3403 65.4223 47.3403C61.5746 47.3403 58.3771 50.1767 57.8106 53.8684H31.7776C31.4666 53.8684 31.1683 53.9919 30.9483 54.2119C30.7284 54.4318 30.6048 54.7301 30.6048 55.0412C30.6048 55.3522 30.7284 55.6505 30.9483 55.8705C31.1683 56.0904 31.4666 56.214 31.7776 56.214H57.8109C58.3773 59.9057 61.5749 62.7423 65.4226 62.7423C69.2704 62.7423 72.4679 59.9058 73.0344 56.214H76.2561C78.6269 56.214 80.5557 54.2852 80.5557 51.9145V36.9926C80.5553 36.9431 80.554 36.8936 80.5519 36.8442ZM15.6886 49.6856C18.6416 49.6856 21.0439 52.0879 21.0439 55.0409C21.0439 57.9938 18.6416 60.3963 15.6886 60.3963C12.7356 60.3963 10.3333 57.9938 10.3333 55.0409C10.3333 52.0879 12.7356 49.6856 15.6886 49.6856ZM65.4226 60.3962C62.4696 60.3962 60.0673 57.9937 60.0673 55.0407C60.0673 52.0877 62.4696 49.6854 65.4226 49.6854C68.3755 49.6854 70.778 52.0877 70.778 55.0407C70.7779 57.9937 68.3755 60.3962 65.4226 60.3962ZM78.21 41.696C66.8499 41.1723 62.3846 39.0882 60.7191 37.8646C60.3641 37.6039 60.1521 37.1817 60.1521 36.7353V24.3586H75.7415L78.1824 36.7118C78.1868 36.7339 78.1889 36.7564 78.1922 36.7787C78.2019 36.8439 78.2082 36.9096 78.2089 36.9754C78.2089 36.9812 78.2097 36.9868 78.2097 36.9925V41.696H78.21Z" fill="black"/>
<path d="M27.2488 22.0127H7.61754C6.58613 22.0127 5.74707 22.8518 5.74707 23.8832V37.08C5.74707 38.1114 6.58613 38.9505 7.61754 38.9505H27.2488C28.2802 38.9505 29.1193 38.1114 29.1193 37.08V23.8832C29.1193 22.8519 28.2802 22.0127 27.2488 22.0127ZM16.2604 36.6052H8.09254V24.3583H16.2604V36.6052ZM26.7738 36.6052H18.606V24.3583H26.7738V36.6052ZM33.3613 38.9507H52.9927C54.0241 38.9507 54.8632 38.1116 54.8632 37.0802V23.8833C54.8632 22.8519 54.0241 22.0129 52.9927 22.0129H33.3613C32.3299 22.0129 31.4908 22.8519 31.4908 23.8833V37.0802C31.4908 38.1116 32.3299 38.9507 33.3613 38.9507ZM33.8363 24.3583H42.0041V26.7033C42.0041 26.8573 42.0344 27.0099 42.0933 27.1522C42.1523 27.2945 42.2387 27.4238 42.3476 27.5327C42.4565 27.6416 42.5858 27.728 42.7281 27.7869C42.8704 27.8458 43.0229 27.8762 43.1769 27.8761C43.3309 27.8762 43.4835 27.8458 43.6258 27.7869C43.7681 27.728 43.8974 27.6416 44.0063 27.5327C44.1152 27.4238 44.2016 27.2945 44.2605 27.1522C44.3194 27.0099 44.3498 26.8573 44.3497 26.7033V24.3583H52.5177V36.6052H44.3497V32.1604C44.3498 32.0063 44.3194 31.8538 44.2605 31.7115C44.2016 31.5692 44.1152 31.4399 44.0063 31.331C43.8974 31.2221 43.7681 31.1357 43.6258 31.0768C43.4835 31.0178 43.3309 30.9875 43.1769 30.9875C43.0229 30.9875 42.8704 31.0178 42.7281 31.0768C42.5858 31.1357 42.4565 31.2221 42.3476 31.331C42.2387 31.4399 42.1523 31.5692 42.0933 31.7115C42.0344 31.8538 42.0041 32.0063 42.0041 32.1604V36.6052H33.8363V24.3583Z" fill="black"/>
<path d="M65.4225 57.8703C66.9853 57.8703 68.2521 56.6034 68.2521 55.0406C68.2521 53.4778 66.9853 52.2109 65.4225 52.2109C63.8597 52.2109 62.5928 53.4778 62.5928 55.0406C62.5928 56.6034 63.8597 57.8703 65.4225 57.8703Z" stroke="black" stroke-width="2.34375" stroke-miterlimit="10" stroke-linecap="round" stroke-linejoin="round"/>
<path d="M15.6881 57.8703C17.2509 57.8703 18.5178 56.6034 18.5178 55.0406C18.5178 53.4778 17.2509 52.2109 15.6881 52.2109C14.1253 52.2109 12.8584 53.4778 12.8584 55.0406C12.8584 56.6034 14.1253 57.8703 15.6881 57.8703Z" stroke="black" stroke-width="2.34375" stroke-miterlimit="10" stroke-linecap="round" stroke-linejoin="round"/>
</g>
<defs>
<clipPath id="clip0_106_5527">
<rect width="80" height="80" fill="white" transform="translate(0.555664)"/>
</clipPath>
</defs>
</svg>
