<svg width="81" height="80" viewBox="0 0 81 80" fill="none" xmlns="http://www.w3.org/2000/svg">
<g clip-path="url(#clip0_106_5525)">
<path d="M76.7282 59.1039H3.01664C2.05711 59.1039 1.2793 58.3261 1.2793 57.3666V51.5557H78.9418V56.8903C78.9418 58.1128 77.9507 59.1039 76.7282 59.1039Z" fill="#399AEA"/>
<path d="M76.7281 59.1039H56.3984V28.4854H69.2814C69.9525 28.4854 70.5958 28.7541 71.0673 29.2316L78.2173 36.4699C78.6814 36.9397 78.9417 37.5736 78.9417 38.2341V56.8903C78.9417 58.1128 77.9506 59.1039 76.7281 59.1039Z" fill="#61AFF6"/>
<path d="M78.2166 36.4699L71.0666 29.2316C70.5951 28.7541 69.9518 28.4854 69.2807 28.4854H60.6191C61.2902 28.4854 61.9335 28.7541 62.4051 29.2316L69.5551 36.4699C70.0191 36.9397 70.2794 37.5736 70.2794 38.2341V59.104H76.7274C77.9499 59.104 78.941 58.113 78.941 56.8905V38.2339C78.941 37.5736 78.6807 36.9397 78.2166 36.4699Z" fill="#399AEA"/>
<path d="M60.7041 43.6634V34.15C60.7041 33.5773 61.1683 33.1133 61.7408 33.1133H68.098C68.3752 33.1133 68.6408 33.2242 68.8357 33.4214L74.3367 38.9905C74.5285 39.1845 74.636 39.4462 74.636 39.719V43.6634C74.636 44.2361 74.1717 44.7001 73.5992 44.7001H61.741C61.1682 44.7001 60.7041 44.2361 60.7041 43.6634Z" fill="#33D8DD"/>
<path d="M67.1566 65.1638C70.9144 65.1638 73.9606 62.1175 73.9606 58.3597C73.9606 54.6019 70.9144 51.5557 67.1566 51.5557C63.3988 51.5557 60.3525 54.6019 60.3525 58.3597C60.3525 62.1175 63.3988 65.1638 67.1566 65.1638Z" fill="#3D6687"/>
<path d="M67.158 60.988C68.6099 60.988 69.7868 59.811 69.7868 58.3592C69.7868 56.9074 68.6099 55.7305 67.158 55.7305C65.7062 55.7305 64.5293 56.9074 64.5293 58.3592C64.5293 59.811 65.7062 60.988 67.158 60.988Z" fill="#CCCBCA"/>
<path d="M1.2793 54.782H56.3986V16.0782C56.3986 15.3925 55.8428 14.8369 55.1573 14.8369H2.52054C1.83492 14.8369 1.2793 15.3927 1.2793 16.0782V54.782Z" fill="#F8BF0D"/>
<path d="M55.1574 14.8369H47.7373V54.7821H56.3988V16.0783C56.3987 15.3927 55.8429 14.8369 55.1574 14.8369Z" fill="#EDA558"/>
<path d="M14.888 65.1638C18.6458 65.1638 21.6921 62.1175 21.6921 58.3597C21.6921 54.6019 18.6458 51.5557 14.888 51.5557C11.1303 51.5557 8.08398 54.6019 8.08398 58.3597C8.08398 62.1175 11.1303 65.1638 14.888 65.1638Z" fill="#3D6687"/>
<path d="M14.8885 60.988C16.3403 60.988 17.5173 59.811 17.5173 58.3592C17.5173 56.9074 16.3403 55.7305 14.8885 55.7305C13.4367 55.7305 12.2598 56.9074 12.2598 58.3592C12.2598 59.811 13.4367 60.988 14.8885 60.988Z" fill="#CCCBCA"/>
<path d="M34.0801 29.1105H23.0153C22.4998 29.1105 22.082 28.6927 22.082 28.1772V14.8369H35.0134V28.1772C35.0134 28.6927 34.5956 29.1105 34.0801 29.1105Z" fill="#FF4C4C"/>
<path d="M50.2391 42.8818C50.8844 42.8818 51.4075 42.3587 51.4075 41.7134C51.4075 41.0679 50.8844 40.5449 50.2391 40.5449H45.2427C44.5973 40.5449 44.0742 41.068 44.0742 41.7134C44.0742 42.3588 44.5973 42.8818 45.2427 42.8818H50.2391Z" fill="#333333"/>
<path d="M37.9809 42.8818H39.8036C40.4489 42.8818 40.972 42.3587 40.972 41.7134C40.972 41.0679 40.4489 40.5449 39.8036 40.5449H37.9809C37.3356 40.5449 36.8125 41.068 36.8125 41.7134C36.8125 42.3587 37.3356 42.8818 37.9809 42.8818Z" fill="#333333"/>
<path d="M37.9809 49.6337H50.2372C50.8825 49.6337 51.4056 49.1106 51.4056 48.4653C51.4056 47.82 50.8825 47.2969 50.2372 47.2969H37.9809C37.3356 47.2969 36.8125 47.82 36.8125 48.4653C36.8125 49.1106 37.3356 49.6337 37.9809 49.6337Z" fill="#333333"/>
<path d="M67.1596 54.5635C65.0657 54.5635 63.3623 56.2669 63.3623 58.3608C63.3623 60.4547 65.0657 62.1582 67.1596 62.1582C69.2534 62.1582 70.9568 60.4547 70.9568 58.3608C70.9568 56.2669 69.2534 54.5635 67.1596 54.5635ZM67.1596 59.8211C66.3543 59.8211 65.6993 59.166 65.6993 58.3608C65.6993 57.5557 66.3543 56.9005 67.1596 56.9005C67.9648 56.9005 68.62 57.5557 68.62 58.3608C68.62 59.166 67.9648 59.8211 67.1596 59.8211Z" fill="#333333"/>
<path d="M14.889 54.5635C12.7952 54.5635 11.0918 56.2669 11.0918 58.3608C11.0918 60.4547 12.7952 62.1582 14.889 62.1582C16.9829 62.1582 18.6863 60.4547 18.6863 58.3608C18.6863 56.2669 16.9829 54.5635 14.889 54.5635ZM14.889 59.8211C14.0838 59.8211 13.4287 59.166 13.4287 58.3608C13.4287 57.5557 14.0837 56.9005 14.889 56.9005C15.6943 56.9005 16.3493 57.5557 16.3493 58.3608C16.3493 59.166 15.6943 59.8211 14.889 59.8211Z" fill="#333333"/>
<path d="M69.6654 32.5998C69.2538 32.1832 68.682 31.9443 68.0967 31.9443H61.7395C60.5234 31.9443 59.5342 32.9336 59.5342 34.1498V43.6631C59.5342 44.879 60.5234 45.8684 61.7395 45.8684H73.5977C74.8137 45.8684 75.8031 44.8792 75.8031 43.6631V39.7187C75.8031 39.1351 75.5771 38.5848 75.1668 38.1689L69.6654 32.5998ZM73.466 43.5312H61.8712V34.2814H68.0417L73.466 39.7728V43.5312Z" fill="#333333"/>
<path d="M80.111 56.8862V38.2348C80.111 37.2606 79.734 36.3425 79.0495 35.6495L71.8995 28.4112C71.2131 27.7164 70.2592 27.3178 69.2823 27.3178H57.5679V16.0777C57.5679 14.7489 56.4868 13.668 55.1581 13.668H35.0125H22.0811H2.52117C1.19242 13.6678 0.111328 14.7487 0.111328 16.0775V19.1622C0.111328 19.8076 0.634452 20.3306 1.27976 20.3306C1.92507 20.3306 2.4482 19.8075 2.4482 19.1622V16.0775C2.4482 16.0373 2.48085 16.0048 2.52101 16.0048H20.9124V28.1765C20.9124 29.3354 21.8552 30.2783 23.0143 30.2783H34.0791C35.238 30.2783 36.1808 29.3354 36.1808 28.1765V16.0048H55.1578C55.1979 16.0048 55.2306 16.0373 55.2306 16.0775V28.4861V53.6129H21.2932C20.1258 52.0337 18.4454 50.9637 16.555 50.5643C16.5171 50.5562 16.4791 50.5482 16.4408 50.5406C16.3519 50.5231 16.2625 50.507 16.1727 50.4926C16.1102 50.4824 16.0472 50.4735 15.9843 50.4649C15.9099 50.4548 15.8357 50.4446 15.7608 50.4365C15.6749 50.4271 15.5883 50.4204 15.5016 50.4137C15.4446 50.4093 15.388 50.4037 15.3307 50.4007C15.1841 50.3926 15.0366 50.3877 14.888 50.3877C14.7394 50.3877 14.5919 50.3926 14.4454 50.4007C14.3882 50.4038 14.3316 50.4095 14.2746 50.4137C14.1879 50.4204 14.1011 50.4271 14.0152 50.4365C13.9405 50.4446 13.8663 50.4548 13.7921 50.4649C13.729 50.4737 13.6658 50.4826 13.6032 50.4927C13.5135 50.5071 13.4244 50.5232 13.3355 50.5407C13.2971 50.5484 13.259 50.5563 13.2207 50.5645C11.3305 50.964 9.65022 52.0338 8.48303 53.6129H2.44835V24.6931C2.44835 24.0476 1.92523 23.5247 1.27992 23.5247C0.634608 23.5247 0.111328 24.0476 0.111328 24.6931V54.7816V57.3673C0.111328 58.9696 1.41492 60.2732 3.01726 60.2732H7.14913C8.00834 63.7483 11.1513 66.3332 14.8882 66.3332C18.625 66.3332 21.7682 63.7483 22.6274 60.2732H56.3993H59.4197C60.2789 63.7483 63.422 66.3332 67.1589 66.3332C70.8957 66.3332 74.0388 63.7483 74.8979 60.2732H76.729C78.591 60.2732 80.1063 58.7604 80.1109 56.8995C80.1109 56.8966 80.1113 56.8937 80.1113 56.8909C80.1112 56.8893 80.111 56.8877 80.111 56.8862ZM33.8439 27.9412H23.2496V16.0047H33.8439V27.9412ZM7.28366 55.9655C7.23694 56.1137 7.19475 56.2637 7.15663 56.4154C7.1496 56.4432 7.14397 56.4715 7.13725 56.4995C7.10772 56.6227 7.08085 56.7468 7.0571 56.8721C7.04913 56.9145 7.04163 56.9568 7.03428 56.9991C7.01428 57.1148 6.99694 57.2312 6.9821 57.3485C6.97678 57.3898 6.971 57.431 6.96632 57.4724C6.95038 57.6162 6.93757 57.7609 6.92944 57.9066C6.92882 57.9165 6.92741 57.9262 6.92694 57.936H3.01726C2.70367 57.936 2.44835 57.6809 2.44835 57.3671V55.9499H7.28788C7.28631 55.9552 7.28522 55.9604 7.28366 55.9655ZM20.4894 58.9762C20.1816 61.7949 17.7874 63.996 14.888 63.996C11.9888 63.996 9.59459 61.7951 9.28678 58.9763C9.26397 58.767 9.2524 58.5598 9.2524 58.3604C9.2524 58.242 9.25725 58.124 9.26475 58.0063C9.26678 57.9745 9.26943 57.9429 9.27194 57.9113C9.27944 57.8179 9.28897 57.7249 9.301 57.6323C9.30444 57.606 9.30725 57.5798 9.311 57.5537C9.32787 57.4365 9.34787 57.3199 9.37209 57.2043C9.37475 57.1913 9.37819 57.1787 9.381 57.1659C9.40287 57.0645 9.42819 56.9638 9.45569 56.864C9.46412 56.8335 9.47272 56.8032 9.48162 56.773C9.50897 56.6799 9.53881 56.5876 9.57084 56.496C9.57787 56.476 9.58412 56.4556 9.59131 56.4356C9.62881 56.3324 9.67022 56.2307 9.71381 56.1298C9.73037 56.0913 9.74803 56.0535 9.76553 56.0156C9.79584 55.9495 9.82772 55.884 9.86053 55.819C9.88131 55.7779 9.90178 55.7366 9.9235 55.6962C9.97115 55.6076 10.0212 55.5201 10.0737 55.4338C10.1035 55.3848 10.1352 55.337 10.1666 55.289C10.1916 55.2505 10.2169 55.2121 10.2427 55.1745C10.2808 55.1191 10.3196 55.0643 10.3594 55.0104C10.3733 54.9916 10.3877 54.9732 10.4018 54.9546C11.2062 53.8977 12.3744 53.1326 13.7183 52.8477C13.7313 52.8451 13.7441 52.8416 13.7572 52.839C13.8132 52.8276 13.8699 52.8185 13.9265 52.8087C13.9808 52.7995 14.0352 52.7901 14.0901 52.7824C14.1377 52.7757 14.1857 52.7696 14.2338 52.7641C14.3027 52.7562 14.3721 52.7496 14.4416 52.7443C14.4801 52.7413 14.5183 52.7377 14.5569 52.7356C14.6668 52.7291 14.7769 52.7251 14.888 52.7251C14.999 52.7251 15.1093 52.7293 15.2191 52.7356C15.2577 52.7377 15.296 52.7413 15.3344 52.7443C15.404 52.7498 15.4732 52.7562 15.5422 52.7641C15.5904 52.7698 15.6383 52.7757 15.686 52.7824C15.7408 52.7901 15.795 52.7993 15.8494 52.8087C15.906 52.8184 15.9627 52.8276 16.0186 52.839C16.0315 52.8416 16.0441 52.8449 16.0569 52.8477C17.4016 53.1326 18.5704 53.8982 19.3749 54.9559C19.3885 54.9738 19.4025 54.9916 19.416 55.0099C19.4563 55.0643 19.4952 55.1195 19.5336 55.1752C19.5591 55.2124 19.5839 55.2502 19.6086 55.2881C19.6404 55.3365 19.6722 55.3848 19.7025 55.4343C19.755 55.5204 19.8049 55.6077 19.8525 55.6962C19.8744 55.7368 19.8949 55.7782 19.9158 55.8195C19.9486 55.8843 19.9804 55.9495 20.0105 56.0154C20.028 56.0535 20.0458 56.0915 20.0624 56.1301C20.1058 56.2309 20.1472 56.3326 20.1847 56.4356C20.1921 56.4557 20.1983 56.4763 20.2054 56.4965C20.2374 56.5879 20.2671 56.6801 20.2944 56.773C20.3033 56.8034 20.3119 56.8338 20.3204 56.8643C20.3479 56.9641 20.373 57.0646 20.3949 57.1659C20.3977 57.1788 20.4011 57.1915 20.4038 57.2045C20.428 57.3201 20.448 57.4366 20.4649 57.5538C20.4686 57.5799 20.4714 57.6063 20.4749 57.6326C20.4869 57.7251 20.4964 57.818 20.5039 57.9112C20.5064 57.9429 20.5093 57.9746 20.5111 58.0065C20.5185 58.1241 20.5235 58.242 20.5235 58.3604C20.5236 58.5598 20.5122 58.7668 20.4894 58.9762ZM55.2308 57.9362H22.8494C22.8489 57.9263 22.8475 57.9166 22.8469 57.9068C22.8386 57.7609 22.826 57.6163 22.81 57.4726C22.8053 57.4312 22.7996 57.3901 22.7943 57.3487C22.7793 57.2313 22.7621 57.1149 22.7421 56.9993C22.7347 56.957 22.7274 56.9145 22.7193 56.8723C22.6955 56.747 22.6686 56.6227 22.6391 56.4996C22.6324 56.4716 22.6266 56.4435 22.6197 56.4156C22.5816 56.264 22.5394 56.1138 22.4927 55.9659C22.4911 55.9607 22.4899 55.9554 22.4883 55.9502H55.2308V57.9362ZM72.7599 58.9765C72.452 61.7952 70.0579 63.9962 67.1587 63.9962C64.2593 63.9962 61.8651 61.7951 61.5573 58.9763C61.5345 58.7671 61.5229 58.5599 61.5229 58.3605C61.5229 55.2531 64.051 52.7249 67.1585 52.7249C70.266 52.7249 72.7942 55.2531 72.7942 58.3605C72.7943 58.5598 72.7828 58.7671 72.7599 58.9765ZM77.774 56.891C77.774 57.4674 77.3051 57.9362 76.7288 57.9362H75.1201C75.1138 57.8177 75.1042 57.7002 75.0929 57.5834C75.0917 57.571 75.0913 57.5584 75.0901 57.5459C75.0767 57.414 75.0598 57.2831 75.0401 57.1532C75.0345 57.1157 75.0267 57.079 75.0204 57.0418C75.0049 56.9498 74.9896 56.8576 74.9712 56.7666C74.9618 56.721 74.9504 56.6762 74.9402 56.6307C74.9221 56.5491 74.9045 56.4673 74.8838 56.3866C74.8713 56.3377 74.8568 56.2899 74.8434 56.2413C74.8224 56.1652 74.8018 56.089 74.7787 56.0138C74.7632 55.9638 74.7459 55.9148 74.7295 55.8652C74.7056 55.7927 74.682 55.7201 74.656 55.6484C74.6379 55.5985 74.6181 55.5498 74.599 55.5004C74.572 55.4302 74.5452 55.3599 74.5162 55.2909C74.4956 55.2416 74.4734 55.1934 74.4517 55.1446C74.4217 55.0768 74.3918 55.009 74.3601 54.9423C74.337 54.8937 74.3123 54.8459 74.2881 54.7977C74.2552 54.7324 74.2226 54.667 74.1881 54.6026C74.1624 54.5548 74.1354 54.5077 74.1087 54.4606C74.0732 54.3974 74.0376 54.3345 74.0004 54.2726C73.9724 54.2259 73.9432 54.1799 73.9142 54.1338C73.8759 54.0729 73.8374 54.012 73.7976 53.9523C73.7674 53.907 73.7362 53.8623 73.7049 53.8176C73.664 53.7588 73.6229 53.7002 73.5806 53.6427C73.5481 53.5987 73.5146 53.5552 73.4813 53.5118C73.4379 53.4554 73.3943 53.3993 73.3495 53.3441C73.3148 53.3015 73.2795 53.2595 73.2438 53.2174C73.1981 53.1634 73.152 53.1098 73.1048 53.057C73.0679 53.0157 73.0306 52.9751 72.9929 52.9346C72.9449 52.8831 72.8965 52.832 72.8471 52.7816C72.8082 52.7421 72.769 52.7031 72.7293 52.6643C72.6792 52.6151 72.6284 52.5667 72.5768 52.5188C72.536 52.4809 72.4948 52.4435 72.4531 52.4065C72.4009 52.3599 72.3479 52.3143 72.2945 52.2691C72.2517 52.2331 72.2087 52.1973 72.1651 52.162C72.1109 52.1181 72.0559 52.0751 72.0006 52.0326C71.956 51.9984 71.9112 51.9645 71.8659 51.9312C71.8096 51.8899 71.7526 51.8496 71.6953 51.8098C71.649 51.7776 71.6026 51.7457 71.5557 51.7145C71.4976 51.6759 71.4385 51.6384 71.3793 51.6013C71.3313 51.5713 71.2835 51.5413 71.2349 51.5123C71.1751 51.4765 71.1143 51.442 71.0534 51.4077C71.0038 51.3799 70.9545 51.352 70.9043 51.3251C70.8426 51.2921 70.7801 51.2606 70.7174 51.2292C70.6665 51.2037 70.6159 51.1779 70.5643 51.1535C70.5009 51.1234 70.4367 51.0951 70.3723 51.0667C70.3201 51.0435 70.2681 51.0201 70.2153 50.9981C70.1503 50.971 70.0843 50.9457 70.0184 50.9202C69.9649 50.8996 69.9117 50.8785 69.8578 50.859C69.7909 50.8349 69.7231 50.8127 69.6554 50.7904C69.6012 50.7724 69.5471 50.7538 69.4924 50.737C69.4235 50.7159 69.3539 50.697 69.2842 50.6777C69.2292 50.6626 69.1746 50.6465 69.1193 50.6324C69.0484 50.6145 68.9765 50.5988 68.9048 50.5827C68.8496 50.5704 68.7949 50.557 68.7395 50.5457C68.6654 50.5307 68.5904 50.5185 68.5157 50.5056C68.4615 50.4962 68.4076 50.4856 68.3529 50.4774C68.274 50.4656 68.1943 50.4567 68.1148 50.4471C68.0632 50.441 68.0123 50.4334 67.9604 50.4281C67.8724 50.4193 67.7834 50.4137 67.6946 50.4077C67.6504 50.4048 67.6065 50.4002 67.5621 50.3979C67.4285 50.3912 67.2942 50.3877 67.159 50.3877C67.0239 50.3877 66.8895 50.3913 66.7559 50.3979C66.7115 50.4001 66.6676 50.4048 66.6234 50.4077C66.5345 50.4137 66.4456 50.4192 66.3576 50.4281C66.3059 50.4332 66.2548 50.4409 66.2032 50.4471C66.1237 50.4567 66.0439 50.4656 65.9651 50.4774C65.9104 50.4857 65.8567 50.4963 65.8023 50.5056C65.7276 50.5185 65.6526 50.5307 65.5785 50.5457C65.5229 50.557 65.4682 50.5704 65.4131 50.5827C65.3414 50.5988 65.2696 50.6143 65.1987 50.6323C65.1432 50.6463 65.0887 50.6624 65.0337 50.6777C64.9642 50.697 64.8943 50.7159 64.8256 50.737C64.7707 50.7538 64.7168 50.7724 64.6626 50.7904C64.595 50.8127 64.5271 50.8349 64.4603 50.859C64.4062 50.8785 64.3531 50.8996 64.2996 50.9202C64.2337 50.9457 64.1678 50.9709 64.1028 50.9981C64.05 51.0201 63.9981 51.0435 63.9459 51.0667C63.8815 51.0951 63.8171 51.1235 63.7537 51.1537C63.7023 51.1781 63.6517 51.2037 63.6009 51.2292C63.5381 51.2606 63.4754 51.2921 63.4136 51.3252C63.3636 51.352 63.3142 51.3799 63.2646 51.4077C63.2037 51.442 63.1431 51.4765 63.0831 51.5123C63.0343 51.5413 62.9864 51.5715 62.9382 51.6015C62.8792 51.6385 62.8203 51.6759 62.7623 51.7145C62.7153 51.7457 62.6689 51.7777 62.6226 51.8099C62.5653 51.8498 62.5082 51.8901 62.452 51.9313C62.4067 51.9646 62.362 51.9985 62.3175 52.0326C62.262 52.0752 62.2068 52.1182 62.1526 52.1623C62.1092 52.1974 62.0662 52.2331 62.0236 52.2691C61.97 52.3145 61.917 52.3602 61.8645 52.407C61.8229 52.4438 61.7818 52.4812 61.7412 52.519C61.6896 52.5668 61.6389 52.6154 61.5886 52.6646C61.5489 52.7034 61.5096 52.7424 61.4707 52.782C61.4214 52.8323 61.3729 52.8834 61.325 52.9349C61.2873 52.9754 61.2498 53.016 61.2131 53.0573C61.1661 53.1099 61.12 53.1635 61.0742 53.2176C61.0386 53.2596 61.0032 53.3016 60.9684 53.3445C60.9236 53.3996 60.88 53.4557 60.8365 53.5121C60.8031 53.5556 60.7698 53.599 60.7373 53.6431C60.695 53.7006 60.6539 53.759 60.6129 53.8177C60.5818 53.8626 60.5504 53.9071 60.5203 53.9526C60.4804 54.0124 60.442 54.0732 60.4037 54.1341C60.3748 54.1802 60.3456 54.2262 60.3175 54.2729C60.2803 54.3349 60.2448 54.3979 60.2092 54.4609C60.1826 54.5081 60.1556 54.5551 60.1298 54.6029C60.0953 54.6673 60.0626 54.7326 60.0298 54.798C60.0056 54.8462 59.9809 54.894 59.9578 54.9426C59.9261 55.0093 59.8962 55.077 59.8662 55.1448C59.8447 55.1935 59.8223 55.242 59.8017 55.2912C59.7728 55.3604 59.7459 55.4305 59.7189 55.5007C59.6998 55.5499 59.68 55.5988 59.6618 55.6487C59.6357 55.7204 59.6122 55.7934 59.5881 55.8662C59.5718 55.9154 59.5545 55.9643 59.5392 56.014C59.5159 56.0893 59.4953 56.1659 59.4742 56.2423C59.4609 56.2906 59.4464 56.3384 59.4339 56.387C59.4132 56.4676 59.3956 56.5495 59.3775 56.631C59.3673 56.6763 59.3559 56.7212 59.3465 56.767C59.3279 56.8579 59.3126 56.9501 59.2973 57.0421C59.2911 57.0795 59.2832 57.1162 59.2776 57.1535C59.2578 57.2834 59.2411 57.4141 59.2276 57.546C59.2261 57.5615 59.2254 57.5771 59.224 57.5926C59.2131 57.7066 59.2036 57.8212 59.1975 57.9365H57.5679V54.7816V29.6547H69.2823C69.6387 29.6547 69.9867 29.8 70.2368 30.0534L77.3868 37.2917C77.6365 37.5445 77.774 37.8795 77.774 38.2346V56.891Z" fill="#333333"/>
</g>
<defs>
<clipPath id="clip0_106_5525">
<rect width="80" height="80" fill="white" transform="translate(0.111328)"/>
</clipPath>
</defs>
</svg>
