<svg width="81" height="80" viewBox="0 0 81 80" fill="none" xmlns="http://www.w3.org/2000/svg">
<g clip-path="url(#clip0_106_5524)">
<path d="M77.6237 34.6412L64.6866 32.485L58.424 16.2021H43.3937C42.0102 16.2021 40.8887 17.3237 40.8887 18.7071V33.7451H2.06055V51.2804C2.06055 52.664 3.18227 53.7856 4.56586 53.7854L78.4644 53.7778C79.1562 53.7778 79.7168 53.217 79.7168 52.5253V37.112C79.7168 35.8876 78.8315 34.8425 77.6237 34.6412Z" fill="#F198AC"/>
<path d="M2.06055 47.5225H79.7168V52.5326C79.7168 53.2243 79.156 53.7851 78.4643 53.7851H4.56555C3.18211 53.7851 2.06055 52.6636 2.06055 51.2801V47.5225Z" fill="#F198AC"/>
<path d="M47.1515 38.7547H79.717V37.1116C79.717 35.887 78.8316 34.8419 77.6237 34.6406L64.7329 32.4922H47.1515C45.768 32.4922 44.6465 33.6137 44.6465 34.9972V36.2497C44.6463 37.6331 45.7679 38.7547 47.1515 38.7547Z" fill="#F198AC"/>
<path d="M74.707 38.7541V42.5116C74.707 43.895 75.8286 45.0166 77.212 45.0166H79.7172V38.7539L74.707 38.7541Z" fill="#FFFABE"/>
<path d="M49.6554 32.4836H64.6857L60.3501 21.2109H47.1504V29.9786C47.1504 31.362 48.272 32.4836 49.6554 32.4836Z" fill="#00D7FF"/>
<path d="M40.8887 33.7451H2.06055V38.7545H40.8887V33.7451Z" fill="#F198AC"/>
<path d="M67.1917 42.5127C60.7003 42.5127 55.3646 47.4539 54.7373 53.78L78.4645 53.7775C78.9378 53.7775 79.335 53.5046 79.5479 53.1172C78.6248 47.1144 73.4528 42.5127 67.1917 42.5127Z" fill="#CB667C"/>
<path d="M67.191 63.7961C72.033 63.7961 75.9582 59.8709 75.9582 55.0289C75.9582 50.1869 72.033 46.2617 67.191 46.2617C62.349 46.2617 58.4238 50.1869 58.4238 55.0289C58.4238 59.8709 62.349 63.7961 67.191 63.7961Z" fill="#5B5D6E"/>
<path d="M67.1922 58.779C69.2632 58.779 70.9421 57.1001 70.9421 55.0291C70.9421 52.9582 69.2632 51.2793 67.1922 51.2793C65.1212 51.2793 63.4424 52.9582 63.4424 55.0291C63.4424 57.1001 65.1212 58.779 67.1922 58.779Z" fill="#C7CFE2"/>
<path d="M30.7987 53.7827C30.1725 47.4553 24.8362 42.5127 18.3442 42.5127C11.8514 42.5127 6.51465 47.4568 5.88965 53.7852L30.7987 53.7827Z" fill="#CB667C"/>
<path d="M18.3443 63.7961C23.1863 63.7961 27.1115 59.8709 27.1115 55.0289C27.1115 50.1869 23.1863 46.2617 18.3443 46.2617C13.5024 46.2617 9.57715 50.1869 9.57715 55.0289C9.57715 59.8709 13.5024 63.7961 18.3443 63.7961Z" fill="#5B5D6E"/>
<path d="M18.3436 58.779C20.4146 58.779 22.0934 57.1001 22.0934 55.0291C22.0934 52.9582 20.4146 51.2793 18.3436 51.2793C16.2726 51.2793 14.5938 52.9582 14.5938 55.0291C14.5938 57.1001 16.2726 58.779 18.3436 58.779Z" fill="#C7CFE2"/>
<path d="M58.426 16.209H43.3161C41.9689 16.2504 40.8877 17.349 40.8877 18.7063V19.9666H59.8711L58.426 16.209Z" fill="#F198AC"/>
<path d="M60.3532 21.2192L60.3529 21.2186L47.1504 21.2109V24.9762H61.7982L60.3532 21.2192Z" fill="#00C3FF"/>
<path d="M22.1011 53.8571C21.4539 53.8571 20.9292 54.3818 20.9292 55.029C20.9292 56.4548 19.7692 57.6146 18.3434 57.6146C16.9177 57.6146 15.7578 56.4548 15.7578 55.029C15.7578 53.6032 16.9177 52.4434 18.3434 52.4434C18.9906 52.4434 19.5153 51.9187 19.5153 51.2715C19.5153 50.6243 18.9906 50.0996 18.3434 50.0996C15.6253 50.0996 13.4141 52.3109 13.4141 55.029C13.4141 57.7471 15.6253 59.9584 18.3434 59.9584C21.0616 59.9584 23.273 57.7471 23.273 55.029C23.273 54.3818 22.7483 53.8571 22.1011 53.8571Z" fill="#333333"/>
<path d="M70.9486 53.8571C70.3014 53.8571 69.7767 54.3818 69.7767 55.029C69.7767 56.4548 68.6169 57.6146 67.1911 57.6146C65.7653 57.6146 64.6055 56.4548 64.6055 55.029C64.6055 53.6032 65.7653 52.4434 67.1911 52.4434C67.8383 52.4434 68.363 51.9187 68.363 51.2715C68.363 50.6243 67.8383 50.0996 67.1911 50.0996C64.473 50.0996 62.2617 52.3109 62.2617 55.029C62.2617 57.7471 64.473 59.9584 67.1911 59.9584C69.9092 59.9584 72.1205 57.7471 72.1205 55.029C72.1205 54.3818 71.5958 53.8571 70.9486 53.8571Z" fill="#333333"/>
<path d="M77.8162 33.4853L65.5399 31.4392L60.1302 17.374H60.929C61.5762 17.374 62.1009 16.8493 62.1009 16.2021C62.1009 15.555 61.5762 15.0303 60.929 15.0303H43.3937C41.3662 15.0303 39.7168 16.6798 39.7168 18.7071V32.5656H2.06055C1.41336 32.5656 0.888672 33.0903 0.888672 33.7375V51.2728C0.888672 53.3003 2.5382 54.9496 4.56555 54.9496H8.40586C8.4057 54.9767 8.40383 55.0032 8.40383 55.0303C8.40383 60.5111 12.8627 64.9698 18.3434 64.9698C23.8241 64.9698 28.2829 60.5109 28.2829 55.0303C28.2829 55.0032 28.281 54.9767 28.2809 54.9496H57.2541C57.254 54.9767 57.2521 55.0032 57.2521 55.0303C57.2521 60.5111 61.711 64.9698 67.1916 64.9698C72.6723 64.9698 77.1312 60.5109 77.1312 55.0303C77.1312 55.0032 77.1293 54.9767 77.1291 54.9496H78.4643C79.8012 54.9496 80.8887 53.8621 80.8887 52.5253V37.112C80.8887 35.3073 79.5965 33.782 77.8162 33.4853ZM78.5449 43.8382H77.2118C76.4766 43.8382 75.8787 43.2401 75.8787 42.5051V39.9195H78.5449V43.8382ZM62.9802 31.3131H49.6562C48.921 31.3131 48.323 30.715 48.323 29.98V22.3842H59.546L62.9802 31.3131ZM18.3432 62.6262C14.1549 62.6262 10.7474 59.2187 10.7474 55.0304C10.7474 50.8421 14.1549 47.4346 18.3432 47.4346C22.5316 47.4346 25.939 50.8421 25.939 55.0304C25.9391 59.2187 22.5316 62.6262 18.3432 62.6262ZM67.1916 62.6262C63.0032 62.6262 59.5959 59.2187 59.5959 55.0304C59.5959 50.8421 63.0034 47.4346 67.1916 47.4346C71.3799 47.4346 74.7874 50.8421 74.7874 55.0304C74.7874 59.2187 71.3799 62.6262 67.1916 62.6262ZM78.4643 52.6059H76.8309C75.7457 48.2934 71.8362 45.0907 67.1916 45.0907C62.5471 45.0907 58.6376 48.2934 57.5524 52.6059H27.9826C26.8974 48.2934 22.9879 45.0907 18.3434 45.0907C13.6988 45.0907 9.7893 48.2934 8.70414 52.6059H4.56555C3.83039 52.6059 3.23242 52.0078 3.23242 51.2728V34.9093H39.7168V48.7676C39.7168 49.4148 40.2415 49.9395 40.8887 49.9395C41.5359 49.9395 42.0605 49.4148 42.0605 48.7676V18.7073C42.0605 17.9721 42.6587 17.3742 43.3937 17.3742H57.619L58.6445 20.0406H47.151C46.5038 20.0406 45.9791 20.5653 45.9791 21.2125V29.9801C45.9791 32.0076 47.6287 33.657 49.656 33.657H64.5893L77.4307 35.7971C78.0762 35.9046 78.5446 36.4578 78.5446 37.1121V37.5757H74.7065C74.0593 37.5757 73.5346 38.1004 73.5346 38.7476V42.5051C73.5346 44.5326 75.1841 46.182 77.2115 46.182H78.5449V52.5253C78.5449 52.5698 78.5088 52.6059 78.4643 52.6059Z" fill="#333333"/>
<path d="M62.1805 37.5752H47.1504C46.5032 37.5752 45.9785 38.0999 45.9785 38.7471C45.9785 39.3943 46.5032 39.9189 47.1504 39.9189H62.1805C62.8277 39.9189 63.3524 39.3943 63.3524 38.7471C63.3524 38.0999 62.8277 37.5752 62.1805 37.5752Z" fill="#333333"/>
<path d="M69.6964 37.5752H67.1914C66.5442 37.5752 66.0195 38.0999 66.0195 38.7471C66.0195 39.3943 66.5442 39.9189 67.1914 39.9189H69.6964C70.3436 39.9189 70.8683 39.3943 70.8683 38.7471C70.8683 38.0999 70.3436 37.5752 69.6964 37.5752Z" fill="#333333"/>
<path d="M35.8794 37.5752H7.07129C6.4241 37.5752 5.89941 38.0999 5.89941 38.7471C5.89941 39.3943 6.4241 39.9189 7.07129 39.9189H35.8793C36.5264 39.9189 37.0511 39.3943 37.0511 38.7471C37.0511 38.0999 36.5266 37.5752 35.8794 37.5752Z" fill="#333333"/>
</g>
<defs>
<clipPath id="clip0_106_5524">
<rect width="80" height="80" fill="white" transform="translate(0.888672)"/>
</clipPath>
</defs>
</svg>
