<svg width="81" height="80" viewBox="0 0 81 80" fill="none" xmlns="http://www.w3.org/2000/svg">
<path d="M62.5437 45.3442H63.8703C65.4818 45.3442 66.7928 46.6554 66.7928 48.2669C66.7928 49.8786 65.4818 51.1895 63.8703 51.1895H61.6855L61.444 55.8338C61.388 56.9023 61.7578 57.9124 62.484 58.6777C63.2103 59.4421 64.1973 59.8631 65.2653 59.8631H69.6088L70.4139 39.1386C70.5067 36.7673 71.1386 34.3885 72.2928 32.0689L72.4143 31.8242L72.2751 31.9277C67.5325 35.4597 64.0373 40.2983 62.5437 45.3442Z" fill="#DBCA0B"/>
<path d="M64.5313 48.2664C64.5313 47.9026 64.2353 47.6064 63.8715 47.6064H40.3643C40.4798 48.0426 40.5803 48.4828 40.6662 48.9264H63.8713C64.2351 48.9264 64.5313 48.6304 64.5313 48.2664Z" fill="#FFEC6B"/>
<path d="M34.9398 15.9009C34.9398 16.5259 34.4334 17.0323 33.8084 17.0323H24.3458V32.9998C26.8012 33.4139 29.1658 34.2713 31.3089 35.5593C33.9436 37.1422 37.2367 37.2078 39.9031 35.7299L41.0391 35.0999L36.3684 16.1721C36.2852 15.8345 36.3618 15.4772 36.5766 15.2036C36.7908 14.9295 37.1195 14.7697 37.4671 14.7697H38.6865C39.071 14.7697 39.3839 14.4567 39.3839 14.0719C39.3839 13.6871 39.071 13.374 38.6865 13.374H13.6559C13.271 13.374 12.958 13.6871 12.958 14.0719C12.958 14.4567 13.271 14.7697 13.6559 14.7697H33.8084C34.4334 14.7695 34.9398 15.2759 34.9398 15.9009Z" fill="#FFF296"/>
<path d="M50.8158 54.6768C47.6073 54.6768 44.9971 57.2868 44.9971 60.4953C44.9971 63.7038 47.6075 66.3137 50.8158 66.3137C54.0243 66.3137 56.6339 63.7036 56.6339 60.4953C56.6339 57.2868 54.0241 54.6768 50.8158 54.6768ZM50.8158 64.7065C48.4936 64.7065 46.6043 62.8172 46.6043 60.4953C46.6043 58.1732 48.4936 56.2841 50.8158 56.2841C51.4404 56.2841 51.9471 56.7904 51.9471 57.4155C51.9471 58.0404 51.4404 58.5468 50.8158 58.5468C49.7412 58.5468 48.8668 59.4211 48.8668 60.4955C48.8668 61.5697 49.7411 62.444 50.8158 62.444C51.8897 62.444 52.7641 61.5696 52.7641 60.4955C52.7641 59.8705 53.2708 59.3641 53.8953 59.3641C54.52 59.3641 55.0267 59.8705 55.0267 60.4955C55.0267 62.8172 53.1374 64.7065 50.8158 64.7065Z" fill="#A3A3A3"/>
<path d="M20.197 39.7793C12.8815 39.7793 6.92969 45.7311 6.92969 53.0465C6.92969 60.3623 12.8815 66.3142 20.197 66.3142C27.5129 66.3142 33.4646 60.3623 33.4646 53.0465C33.4646 45.731 27.5129 39.7793 20.197 39.7793ZM20.197 61.0478C15.7854 61.0478 12.1961 57.4585 12.1961 53.0465C12.1961 48.6345 15.7852 45.0452 20.197 45.0452C24.609 45.0452 28.1982 48.6345 28.1982 53.0465C28.1982 57.4585 24.609 61.0478 20.197 61.0478Z" fill="#A3A3A3"/>
<path d="M20.1961 47.3076C17.0322 47.3076 14.458 49.8819 14.458 53.0462C14.458 56.2105 17.0322 58.7847 20.1961 58.7847C23.3602 58.7847 25.9346 56.2105 25.9346 53.0462C25.9346 49.882 23.3604 47.3076 20.1961 47.3076ZM20.1961 57.0983C17.9617 57.0983 16.1442 55.2804 16.1442 53.0462C16.1442 52.4212 16.6505 51.9148 17.2756 51.9148C17.9006 51.9148 18.407 52.4212 18.407 53.0462C18.407 54.0329 19.2095 54.8356 20.1961 54.8356C21.1826 54.8356 21.9855 54.0329 21.9855 53.0462C21.9855 52.0596 21.1826 51.2571 20.1961 51.2571C19.5711 51.2571 19.0647 50.7507 19.0647 50.1257C19.0647 49.5007 19.5711 48.9943 20.1961 48.9943C22.4303 48.9943 24.2482 50.8118 24.2482 53.0462C24.2482 55.2804 22.4305 57.0983 20.1961 57.0983Z" fill="#DBCA0B"/>
<path d="M50.8159 52.4141C52.0906 52.4141 53.2929 52.719 54.3663 53.247L54.61 51.1885H40.9718C41.0116 51.7043 41.0374 52.2222 41.0374 52.7422C41.0374 53.3672 40.5306 53.8736 39.906 53.8736C39.281 53.8736 38.7746 53.3672 38.7746 52.7422C38.7746 49.5171 37.9022 46.3592 36.2516 43.6096C35.9302 43.0741 36.1036 42.3789 36.6394 42.0573C37.1746 41.7354 37.8706 41.9096 38.1918 42.4451C38.7482 43.3722 39.2162 44.3442 39.613 45.343H55.3023L55.7574 41.4957L42.4522 36.9035L41.0006 37.7086C37.6303 39.5787 33.4703 39.4981 30.1436 37.4987C27.3922 35.8456 24.2319 34.9717 21.0041 34.9717C16.9078 34.9717 13.0588 36.3261 9.87399 38.8886C9.35063 39.3096 9.03175 39.932 8.99895 40.596C8.97495 41.083 9.10263 41.5464 9.36071 41.9419C12.1614 39.2083 15.9828 37.516 20.1962 37.516C28.7598 37.516 35.7265 44.4827 35.7265 53.0459C35.7265 54.4498 35.5225 55.8037 35.1716 57.0981H43.4932C44.7798 54.337 47.5742 52.4141 50.8159 52.4141Z" fill="#19B041"/>
<path d="M53.7733 38.416L54.2389 36.6603C54.384 36.116 54.0813 35.5422 53.5503 35.3542L42.4639 31.4248L43.2967 34.8L53.7733 38.416Z" fill="#A3A3A3"/>
<path d="M22.0831 32.7462V17.0332H17.165L14.4844 33.809C16.5711 33.0908 18.7753 32.7097 21.0041 32.7097C21.3649 32.7097 21.7242 32.727 22.0831 32.7462Z" fill="#DBCA0B"/>
<path d="M53.8955 59.3632C53.2709 59.3632 52.7643 59.8696 52.7643 60.4946C52.7643 61.5688 51.8899 62.443 50.816 62.443C49.7415 62.443 48.8671 61.5686 48.8671 60.4946C48.8671 59.4202 49.7413 58.5459 50.816 58.5459C51.4407 58.5459 51.9474 58.0395 51.9474 57.4146C51.9474 56.7896 51.4407 56.2832 50.816 56.2832C48.4938 56.2832 46.6045 58.1723 46.6045 60.4944C46.6045 62.8163 48.4938 64.7056 50.816 64.7056C53.1376 64.7056 55.0269 62.8163 55.0269 60.4944C55.0269 59.8696 54.5202 59.3632 53.8955 59.3632Z" fill="#333333"/>
<path d="M20.1972 45.0449C15.7856 45.0449 12.1963 48.6342 12.1963 53.0462C12.1963 57.4582 15.7854 61.0475 20.1972 61.0475C24.6092 61.0475 28.1984 57.4582 28.1984 53.0462C28.1984 48.6342 24.6092 45.0449 20.1972 45.0449ZM20.1972 58.7848C17.0334 58.7848 14.4592 56.2105 14.4592 53.0462C14.4592 49.882 17.0334 47.3076 20.1972 47.3076C23.3614 47.3076 25.9358 49.8819 25.9358 53.0462C25.9358 56.2105 23.3616 58.7848 20.1972 58.7848Z" fill="#333333"/>
<path d="M20.1944 48.9941C19.5695 48.9941 19.0631 49.5005 19.0631 50.1255C19.0631 50.7505 19.5695 51.2569 20.1944 51.2569C21.181 51.2569 21.9839 52.0594 21.9839 53.046C21.9839 54.0327 21.181 54.8354 20.1944 54.8354C19.2079 54.8354 18.4053 54.0327 18.4053 53.046C18.4053 52.421 17.8989 51.9146 17.2739 51.9146C16.649 51.9146 16.1426 52.421 16.1426 53.046C16.1426 55.2802 17.96 57.0981 20.1944 57.0981C22.4287 57.0981 24.2466 55.2802 24.2466 53.046C24.2466 50.8116 22.4288 48.9941 20.1944 48.9941Z" fill="#333333"/>
<path d="M74.8593 27.1827L70.9246 30.112C65.5964 34.0792 61.7203 39.6024 60.1996 45.3432H57.5801L58.1113 40.8565C58.174 40.3285 57.8603 39.8275 57.3571 39.654L55.9172 39.1571L56.4252 37.2416C56.8694 35.5667 55.9383 33.8011 54.3046 33.2222L41.8134 28.7948L38.9092 17.0241C40.4375 16.91 41.6462 15.6294 41.6462 14.072C41.6462 12.4393 40.3183 11.1113 38.686 11.1113H13.6558C12.0233 11.1113 10.6951 12.4393 10.6951 14.072C10.6951 15.7044 12.0233 17.0326 13.6558 17.0326H14.8732L12.0252 34.8555C10.7651 35.4867 9.56154 36.2356 8.4553 37.1256C7.4289 37.9516 6.80314 39.1758 6.73898 40.4849C6.68138 41.6537 7.08282 42.7944 7.84282 43.6731C5.85866 46.2816 4.66602 49.5235 4.66602 53.0462C4.66602 61.6097 11.6327 68.5765 20.1959 68.5765C26.51 68.5765 31.9455 64.7833 34.371 59.3611H42.8233C42.7707 59.7328 42.7342 60.1094 42.7342 60.4955C42.7342 64.9512 46.3595 68.5766 50.8156 68.5766C55.2711 68.5766 58.8964 64.9512 58.8964 60.4955C58.8964 58.2392 57.9646 56.1982 56.4683 54.7307L56.8876 51.1886H59.4199L59.1844 55.7152C59.0961 57.4097 59.6852 59.0145 60.8431 60.2347C62.0003 61.4537 63.5705 62.1251 65.2654 62.1251H72.7438C73.3684 62.1251 73.8751 61.6187 73.8751 60.9937C73.8751 60.3688 73.3683 59.8624 72.7438 59.8624H71.8732L72.6753 39.2259C72.7548 37.1765 73.3079 35.1073 74.3185 33.076L76.5473 28.594C76.7809 28.1252 76.6615 27.5576 76.2601 27.2222C75.8595 26.8867 75.2798 26.8701 74.8593 27.1827ZM53.5491 35.3552C54.0801 35.543 54.3828 36.1168 54.2377 36.6613L53.7721 38.4169L43.2955 34.8011L42.4627 31.4259L53.5491 35.3552ZM13.6558 14.7699C13.2708 14.7699 12.9579 14.4569 12.9579 14.0721C12.9579 13.6873 13.2708 13.3742 13.6558 13.3742H38.6862C39.0707 13.3742 39.3836 13.6873 39.3836 14.0721C39.3836 14.4569 39.0707 14.7699 38.6862 14.7699H37.4668C37.1191 14.7699 36.7905 14.9297 36.5763 15.2038C36.3615 15.4774 36.2849 15.8347 36.3681 16.1723L41.0388 35.1001L39.9028 35.7301C37.2364 37.208 33.9433 37.1425 31.3086 35.5595C29.1655 34.2715 26.8009 33.4141 24.3455 33V17.0324H33.8081C34.4331 17.0324 34.9395 16.526 34.9395 15.9011C34.9395 15.2761 34.4331 14.7697 33.8081 14.7697L13.6558 14.7699ZM17.1649 17.0326H22.083V32.7456C21.7241 32.7264 21.3647 32.7091 21.0039 32.7091C18.7751 32.7091 16.571 33.0902 14.4843 33.8084L17.1649 17.0326ZM20.1959 66.3139C12.8804 66.3139 6.92858 60.3621 6.92858 53.0462C6.92858 45.7307 12.8804 39.779 20.1959 39.779C27.5118 39.779 33.4635 45.7309 33.4635 53.0462C33.4635 60.3621 27.5118 66.3139 20.1959 66.3139ZM35.1715 57.0984C35.5223 55.804 35.7263 54.4499 35.7263 53.0462C35.7263 44.483 28.7596 37.5163 20.1961 37.5163C15.9827 37.5163 12.1612 39.2086 9.36058 41.9422C9.10266 41.5467 8.97498 41.0833 8.99882 40.5963C9.03162 39.9323 9.3505 39.3099 9.87386 38.8889C13.0588 36.3264 16.9076 34.972 21.0039 34.972C24.2319 34.972 27.3921 35.8459 30.1435 37.499C33.4702 39.4984 37.6302 39.579 41.0004 37.7089L42.4521 36.9038L55.7572 41.496L55.3022 45.3433H39.6129C39.2161 44.3445 38.7481 43.3725 38.1916 42.4454C37.8705 41.9099 37.1745 41.7357 36.6393 42.0576C36.1035 42.3792 35.93 43.0744 36.2515 43.6099C37.902 46.3595 38.7745 49.5174 38.7745 52.7425C38.7745 53.3675 39.2809 53.8739 39.9059 53.8739C40.5305 53.8739 41.0372 53.3675 41.0372 52.7425C41.0372 52.2224 41.0115 51.7046 40.9716 51.1888H54.6097L54.366 53.2473C53.2926 52.7193 52.0905 52.4144 50.8156 52.4144C47.5739 52.4144 44.7795 54.3373 43.4931 57.0985H35.1715V57.0984ZM56.6339 60.4955C56.6339 63.704 54.0243 66.3139 50.8158 66.3139C47.6073 66.3139 44.9971 63.7038 44.9971 60.4955C44.9971 57.287 47.6075 54.6769 50.8158 54.6769C54.0241 54.6769 56.6339 57.287 56.6339 60.4955ZM40.6654 48.9259C40.5796 48.4822 40.479 48.0422 40.3635 47.6059H63.8705C64.2343 47.6059 64.5303 47.9019 64.5303 48.2659C64.5303 48.6297 64.2343 48.9259 63.8705 48.9259H40.6654ZM72.2931 32.068C71.1388 34.3878 70.507 36.7664 70.4142 39.1377L69.6091 59.8622H65.2655C64.1977 59.8622 63.2107 59.4412 62.4843 58.6768C61.758 57.9115 61.3883 56.9013 61.4443 55.8329L61.6857 51.1886H63.8705C65.482 51.1886 66.7931 49.8776 66.7931 48.2661C66.7931 46.6545 65.482 45.3433 63.8705 45.3433H62.5439C64.0375 40.2973 67.5327 35.4588 72.2753 31.927L72.4145 31.8235L72.2931 32.068Z" fill="#333333"/>
</svg>
