<svg width="81" height="80" viewBox="0 0 81 80" fill="none" xmlns="http://www.w3.org/2000/svg">
<g clip-path="url(#clip0_106_5522)">
<path d="M20.0592 18.9307H6.72608H4.02343C2.74406 18.9307 1.70703 19.9679 1.70703 21.2472V52.1334C1.70703 53.4131 2.74422 54.4503 4.02343 54.4503H6.72608H13.2919C13.287 54.3409 13.2836 54.2317 13.2836 54.1214C13.2836 50.2833 16.3948 47.172 20.2329 47.172C24.0707 47.172 27.182 50.2833 27.182 54.1214C27.182 54.2317 27.1785 54.3411 27.1737 54.4503H55.3957C55.3905 54.3409 55.3871 54.2317 55.3871 54.1214C55.3871 50.2833 58.4983 47.172 62.3361 47.172C66.1743 47.172 69.2855 50.2833 69.2855 54.1214C69.2855 54.2317 69.2821 54.3411 69.2772 54.4503H74.1614H76.8641C78.1434 54.4503 79.1805 53.4131 79.1805 52.1334V27.0571C79.1784 22.5683 75.5394 18.9307 71.0505 18.9307H61.5654H24.2698" fill="#FF5357"/>
<path d="M6.26531 52.1334V21.2472C6.26531 19.9677 7.30249 18.9307 8.58171 18.9307H7.97218H5.26953C3.99015 18.9307 2.95312 19.9679 2.95312 21.2472V52.1334C2.95312 53.4131 3.99031 54.4503 5.26953 54.4503H7.97218H8.58171C7.30249 54.45 6.26531 53.4129 6.26531 52.1334Z" fill="#ED3A47"/>
<path d="M62.3377 61.07C66.1756 61.07 69.2868 57.9588 69.2868 54.1209C69.2868 50.2831 66.1756 47.1719 62.3377 47.1719C58.4999 47.1719 55.3887 50.2831 55.3887 54.1209C55.3887 57.9588 58.4999 61.07 62.3377 61.07Z" fill="#5B5E5E"/>
<path d="M20.2342 61.07C24.0721 61.07 27.1833 57.9588 27.1833 54.1209C27.1833 50.2831 24.0721 47.1719 20.2342 47.1719C16.3964 47.1719 13.2852 50.2831 13.2852 54.1209C13.2852 57.9588 16.3964 61.07 20.2342 61.07Z" fill="#5B5E5E"/>
<path d="M62.34 56.5071C63.6582 56.5071 64.7269 55.4385 64.7269 54.1203C64.7269 52.802 63.6582 51.7334 62.34 51.7334C61.0218 51.7334 59.9531 52.802 59.9531 54.1203C59.9531 55.4385 61.0218 56.5071 62.34 56.5071Z" fill="#E6E9ED"/>
<path d="M20.2355 56.5071C21.5537 56.5071 22.6224 55.4385 22.6224 54.1203C22.6224 52.802 21.5537 51.7334 20.2355 51.7334C18.9173 51.7334 17.8486 52.802 17.8486 54.1203C17.8486 55.4385 18.9173 56.5071 20.2355 56.5071Z" fill="#E6E9ED"/>
<path d="M50.9315 24.7207H31.7568V54.4486H50.9315V24.7207Z" fill="#97D3EE"/>
<path d="M41.3446 24.7207H31.7568V54.4486H41.3446V24.7207Z" fill="#52B2CC"/>
<path d="M50.9315 40.9043H31.7568V54.1202H50.9315V40.9043Z" fill="#EF4556"/>
<path d="M41.3446 40.9043H31.7568V54.1202H41.3446V40.9043Z" fill="#E23740"/>
<path d="M70.0811 40.9047H79.1814V26.4775H62.3369V40.9047H65.8707" fill="#97D3EE"/>
<path d="M62.3363 26.4775H50.9326V40.9044H62.3363V26.4775Z" fill="#52B2CC"/>
<path d="M31.6371 26.4775H20.2334V40.9044H31.6371V26.4775Z" fill="#97D3EE"/>
<path d="M20.2355 26.4775H8.83008V40.9044H20.2355V26.4775Z" fill="#52B2CC"/>
<path d="M1.70703 49.6237V44.9316H4.15468C5.45031 44.9316 6.50077 45.9819 6.50077 47.2777C6.50077 48.5734 5.45046 49.6238 4.15468 49.6238H1.70703V49.6237Z" fill="#F98B38"/>
<path d="M79.1805 49.6237V44.9316H75.5746C74.279 44.9316 73.2285 45.9819 73.2285 47.2777C73.2285 48.5734 74.2788 49.6238 75.5746 49.6238H79.1805V49.6237Z" fill="#97D3EE"/>
<path d="M17.7 54.1201C17.7 50.8529 19.9552 48.1139 22.993 47.3711C22.4621 47.2412 21.9078 47.1709 21.3371 47.1709C17.4989 47.1709 14.3877 50.2821 14.3877 54.1203C14.3877 57.9579 17.4989 61.0696 21.3371 61.0696C21.9078 61.0696 22.4621 60.9992 22.993 60.8693C19.9552 60.1262 17.7 57.387 17.7 54.1201Z" fill="#424444"/>
<path d="M59.9491 54.1201C59.9491 50.8529 62.2041 48.1139 65.242 47.3711C64.7111 47.2412 64.1569 47.1709 63.5859 47.1709C59.748 47.1709 56.6367 50.2821 56.6367 54.1203C56.6367 57.9579 59.748 61.0696 63.5859 61.0696C64.1569 61.0696 64.7111 60.9992 65.242 60.8693C62.2041 60.1262 59.9491 57.387 59.9491 54.1201Z" fill="#424444"/>
<path d="M76.8582 47.1713C76.8582 45.8757 77.9087 44.8252 79.2045 44.8252H75.8921C74.5965 44.8252 73.5459 45.8755 73.5459 47.1713C73.5459 48.4669 74.5964 49.5174 75.8921 49.5174H79.2045C77.9089 49.5172 76.8582 48.4671 76.8582 47.1713Z" fill="#6CC6E4"/>
<path d="M80.399 26.1468C79.9381 21.3948 75.9214 17.667 71.0512 17.667H24.2704C23.5726 17.667 23.0073 18.2326 23.0073 18.9301C23.0073 19.6276 23.5726 20.1932 24.2704 20.1932H71.0512C74.1976 20.1932 76.8553 22.3221 77.6639 25.2142H62.337H62.3367H52.196V24.7214C52.196 24.0237 51.6306 23.4582 50.9328 23.4582H31.7574C31.0596 23.4582 30.4943 24.0239 30.4943 24.7214V25.2142H20.2334H8.8287C8.13088 25.2142 7.56557 25.7798 7.56557 26.4773V40.9044C7.56557 41.6021 8.13088 42.1676 8.8287 42.1676H20.2334H30.4943V53.1865H28.3929C28.3858 53.1241 28.3758 53.0629 28.3673 53.0008C28.3599 52.9472 28.3535 52.8933 28.3452 52.84C28.3321 52.7563 28.3163 52.6736 28.3005 52.5908C28.2916 52.5438 28.284 52.4963 28.2743 52.4497C28.2532 52.348 28.2291 52.2472 28.2043 52.1469C28.1977 52.1202 28.1923 52.0929 28.1852 52.0661C28.1526 51.9399 28.1168 51.8147 28.0785 51.6908C28.0665 51.6522 28.0527 51.6147 28.0402 51.5765C28.0124 51.4913 27.9844 51.406 27.954 51.3219C27.9363 51.2735 27.9169 51.2261 27.8983 51.178C27.8704 51.1054 27.8426 51.0329 27.8127 50.9613C27.7913 50.9101 27.768 50.8596 27.7457 50.809C27.716 50.7419 27.6866 50.6749 27.6551 50.6088C27.6305 50.5571 27.6046 50.5063 27.579 50.4552C27.5469 50.3916 27.5149 50.3279 27.4815 50.2652C27.454 50.214 27.4257 50.1633 27.3973 50.1129C27.363 50.0519 27.3283 49.9912 27.2927 49.931C27.2627 49.8807 27.2319 49.831 27.201 49.7813C27.1643 49.7226 27.1269 49.6641 27.0887 49.6063C27.0563 49.5574 27.0237 49.509 26.9904 49.461C26.9508 49.404 26.9105 49.3474 26.8696 49.2915C26.8352 49.2444 26.8007 49.1977 26.7655 49.1513C26.7232 49.0958 26.6799 49.0413 26.6365 48.9871C26.6002 48.9421 26.5643 48.8969 26.5269 48.8529C26.4818 48.799 26.4354 48.7462 26.3888 48.6933C26.3513 48.6507 26.3138 48.608 26.2755 48.566C26.2265 48.5127 26.1763 48.461 26.126 48.4091C26.0879 48.3699 26.0504 48.3301 26.0115 48.2916C25.9574 48.238 25.9016 48.1862 25.8463 48.134C25.8091 48.0991 25.7727 48.0633 25.7351 48.0293C25.6707 47.971 25.6046 47.9149 25.5384 47.8588C25.5077 47.8327 25.4779 47.8057 25.4468 47.7802C25.3491 47.6997 25.2496 47.6215 25.1482 47.5454C25.1243 47.5276 25.0994 47.5108 25.0754 47.4933C24.9968 47.4357 24.9177 47.3785 24.8371 47.3238C24.7976 47.2971 24.7569 47.2718 24.7168 47.2457C24.6501 47.2021 24.5834 47.1583 24.5154 47.1165C24.4701 47.0887 24.4238 47.0626 24.3779 47.0357C24.3134 46.9977 24.249 46.9599 24.1835 46.9238C24.1348 46.8971 24.0854 46.8716 24.0362 46.8458C23.9718 46.8121 23.9074 46.7785 23.8421 46.7463C23.791 46.7212 23.7393 46.6973 23.6877 46.6732C23.6226 46.6429 23.5574 46.6129 23.4913 46.5843C23.4385 46.5613 23.3852 46.5393 23.3318 46.5176C23.2654 46.4904 23.199 46.464 23.1316 46.4385C23.0773 46.4179 23.0227 46.398 22.9679 46.3787C22.9002 46.3548 22.8319 46.3316 22.7637 46.3094C22.7082 46.2915 22.6527 46.274 22.5968 46.2569C22.5274 46.236 22.4573 46.2163 22.3873 46.1972C22.3312 46.1819 22.2751 46.1668 22.2185 46.1527C22.1469 46.1349 22.0746 46.1187 22.0024 46.1027C21.9462 46.0904 21.8901 46.0776 21.8334 46.0663C21.759 46.0515 21.6838 46.0388 21.6087 46.026C21.553 46.0166 21.4977 46.0065 21.4418 45.9982C21.3627 45.9866 21.283 45.9773 21.2034 45.9679C21.1505 45.9616 21.0977 45.9543 21.0446 45.949C20.9555 45.9402 20.8655 45.9343 20.7757 45.9283C20.731 45.9255 20.6868 45.9212 20.6418 45.919C20.5065 45.9123 20.3707 45.9085 20.2338 45.9085C20.0971 45.9085 19.961 45.9123 19.8259 45.919C19.7809 45.9212 19.7366 45.9255 19.6918 45.9283C19.602 45.9343 19.5121 45.9401 19.423 45.949C19.3696 45.9541 19.317 45.9616 19.2638 45.9679C19.1843 45.9773 19.1046 45.9866 19.0259 45.9982C18.9698 46.0065 18.9141 46.0166 18.8585 46.0262C18.7835 46.0388 18.7088 46.0516 18.6345 46.0663C18.5776 46.0776 18.5212 46.0904 18.4645 46.1029C18.3926 46.1187 18.3206 46.1349 18.2495 46.1526C18.1926 46.1668 18.1362 46.1821 18.0795 46.1974C18.0098 46.2165 17.9402 46.236 17.8712 46.2566C17.8148 46.2737 17.7588 46.2913 17.7029 46.3094C17.6349 46.3315 17.5673 46.3544 17.5001 46.3782C17.4446 46.3977 17.3895 46.4179 17.3345 46.4387C17.2679 46.4638 17.2021 46.4901 17.1365 46.5168C17.0824 46.5388 17.0284 46.5612 16.9748 46.5843C16.9095 46.6126 16.8449 46.6423 16.7806 46.6722C16.7282 46.6966 16.6759 46.721 16.6241 46.7462C16.5598 46.7779 16.4963 46.811 16.4329 46.8443C16.3827 46.8705 16.3323 46.8965 16.2829 46.9238C16.2185 46.9591 16.1554 46.9965 16.0923 47.0337C16.0452 47.0613 15.9977 47.088 15.9513 47.1166C15.8851 47.1572 15.8202 47.1998 15.7554 47.2423C15.7137 47.2696 15.671 47.296 15.6298 47.324C15.5527 47.3763 15.4776 47.4308 15.4026 47.4857C15.3748 47.5058 15.3462 47.5251 15.3187 47.5457C15.2177 47.6213 15.1185 47.6993 15.0215 47.7794C14.9881 47.8071 14.956 47.8362 14.9227 47.8643C14.8592 47.9185 14.7951 47.9726 14.7331 48.0287C14.6938 48.064 14.656 48.101 14.6177 48.1371C14.5637 48.188 14.5093 48.2385 14.4565 48.2908C14.4168 48.3302 14.3782 48.371 14.3393 48.4113C14.2899 48.4624 14.2404 48.5132 14.1923 48.5654C14.1532 48.6079 14.1151 48.6515 14.077 48.6947C14.0312 48.7468 13.9854 48.7988 13.9407 48.8519C13.9031 48.8969 13.8665 48.9426 13.8298 48.9882C13.7867 49.0419 13.7438 49.0957 13.7023 49.1504C13.6665 49.1972 13.6317 49.2446 13.597 49.2922C13.5565 49.3477 13.5167 49.4035 13.4776 49.4602C13.4438 49.509 13.4109 49.5577 13.3784 49.6071C13.3404 49.6646 13.3034 49.7224 13.2668 49.7807C13.2356 49.8307 13.2045 49.8808 13.1742 49.9318C13.1388 49.9911 13.1045 50.0515 13.0704 50.1119C13.0417 50.1632 13.0129 50.2141 12.9852 50.266C12.9521 50.3282 12.9204 50.391 12.8887 50.4541C12.8627 50.5058 12.8365 50.5574 12.8117 50.6096C12.7806 50.6751 12.7512 50.7416 12.7217 50.808C12.6988 50.8593 12.6757 50.9101 12.6542 50.9618C12.6245 51.0326 12.5971 51.1044 12.5695 51.1761C12.5506 51.2251 12.5309 51.2732 12.5129 51.3226C12.4826 51.406 12.4549 51.4905 12.4273 51.5751C12.4146 51.6138 12.4006 51.6521 12.3885 51.6911C12.3501 51.8149 12.3145 51.9401 12.2818 52.0661C12.2746 52.0941 12.269 52.1226 12.2621 52.1505C12.2376 52.2497 12.2138 52.3493 12.1929 52.4497C12.1831 52.4968 12.1754 52.5446 12.1665 52.5919C12.1509 52.6744 12.1353 52.7568 12.122 52.8402C12.1135 52.8935 12.1071 52.9474 12.0999 53.001C12.0915 53.0629 12.0813 53.1243 12.0743 53.1866H4.02402C3.44324 53.1866 2.97074 52.714 2.97074 52.133V50.8874H4.15527C6.14526 50.8874 7.76448 49.2683 7.76448 47.2782C7.76448 45.288 6.14542 43.669 4.15527 43.669H2.97074V21.2468C2.97074 20.6659 3.44339 20.1934 4.02402 20.1934H20.0599C20.7577 20.1934 21.323 19.6278 21.323 18.9303C21.323 18.2328 20.7577 17.6671 20.0599 17.6671H4.02402C2.05011 17.667 0.444336 19.2729 0.444336 21.2468V44.9319V49.624V52.1327C0.444336 54.1068 2.05011 55.7127 4.02402 55.7127H12.1771C12.9207 59.4814 16.2498 62.3332 20.2334 62.3332C24.2168 62.3332 27.5457 59.4816 28.2893 55.7127H31.7574H50.9328H54.2808C55.0244 59.4814 58.3533 62.3332 62.3367 62.3332C66.3203 62.3332 69.6494 59.4816 70.393 55.7127H76.8647C78.8386 55.7127 80.4443 54.1068 80.4443 52.1327V49.624V44.9319V40.9044V27.056V26.4773C80.4442 26.3628 80.4275 26.2523 80.399 26.1468ZM4.15511 46.1952C4.75214 46.1952 5.23808 46.681 5.23808 47.2782C5.23808 47.8754 4.75214 48.3612 4.15511 48.3612H2.97058V46.1954H4.15511V46.1952ZM61.0734 27.7406V39.6413H52.1958V27.7406H61.0734ZM33.0207 42.1677H49.6697V52.8577H33.0207V42.1677ZM49.6696 26.4774V39.6413H42.6085V25.9846H49.6697V26.4774H49.6696ZM40.0822 25.9846V39.6413H33.0207V25.9846H40.0822ZM10.092 27.7406H18.9702V39.6413H10.092V27.7406ZM30.3743 39.6415H21.4966V27.7407H30.3743V39.6415ZM20.2334 59.8069C17.1893 59.8069 14.6967 57.4024 14.554 54.393C14.5499 54.3025 14.5471 54.2121 14.5471 54.1208C14.5471 50.9855 17.0981 48.4346 20.2334 48.4346C23.3685 48.4346 25.9193 50.9855 25.9193 54.1208C25.9193 54.2121 25.9165 54.3024 25.9124 54.3929C25.7698 57.4022 23.2773 59.8069 20.2334 59.8069ZM62.3366 59.8069C59.2945 59.8069 56.8031 57.4052 56.6578 54.3985C56.6577 54.3954 56.658 54.3922 56.6578 54.3891C56.6536 54.2999 56.6508 54.2108 56.6508 54.1208C56.6508 50.9855 59.2016 48.4346 62.3367 48.4346C65.472 48.4346 68.023 50.9855 68.023 54.1208C68.0228 57.256 65.472 59.8069 62.3366 59.8069ZM76.8645 53.1865H70.4962C70.4892 53.1241 70.4792 53.0629 70.4706 53.0008C70.4633 52.9472 70.4569 52.8933 70.4486 52.84C70.4355 52.7566 70.4198 52.6743 70.404 52.5918C70.3951 52.5444 70.3873 52.4966 70.3776 52.4496C70.3567 52.3491 70.333 52.2494 70.3084 52.1504C70.3016 52.1224 70.2958 52.0938 70.2887 52.066C70.2561 51.9397 70.2203 51.8147 70.182 51.691C70.1698 51.6519 70.1559 51.6138 70.1433 51.5749C70.1156 51.4904 70.088 51.4058 70.0576 51.3224C70.0398 51.2732 70.02 51.2249 70.0011 51.176C69.9734 51.1043 69.9461 51.0324 69.9164 50.9616C69.8948 50.9099 69.8714 50.8591 69.8489 50.8079C69.8194 50.7413 69.7901 50.6751 69.7589 50.6094C69.7339 50.5571 69.7078 50.5057 69.6819 50.454C69.6501 50.391 69.6186 50.328 69.5853 50.2658C69.5576 50.214 69.5289 50.1627 69.5001 50.1116C69.4662 50.0513 69.4322 49.9911 69.3966 49.9318C69.3662 49.8808 69.3351 49.8305 69.3037 49.7802C69.2673 49.7219 69.2303 49.6641 69.1926 49.6069C69.16 49.5576 69.127 49.5085 69.0933 49.4601C69.0542 49.4037 69.0142 49.3477 68.9739 49.2921C68.9392 49.2446 68.9044 49.1971 68.8686 49.1502C68.8269 49.0955 68.784 49.0416 68.7411 48.988C68.7044 48.9424 68.6678 48.8968 68.6301 48.8518C68.5855 48.7985 68.5398 48.7465 68.4939 48.6946C68.4556 48.6512 68.4178 48.6077 68.3786 48.5651C68.3306 48.5129 68.2812 48.4621 68.232 48.4113C68.193 48.3708 68.1542 48.3299 68.1144 48.2904C68.062 48.2383 68.008 48.1882 67.954 48.1374C67.9153 48.101 67.8772 48.0638 67.8378 48.028C67.7761 47.9722 67.7128 47.9187 67.6497 47.8649C67.6161 47.8365 67.5836 47.8068 67.5497 47.7788C67.4525 47.6987 67.3534 47.6208 67.2525 47.5452C67.225 47.5246 67.1964 47.5055 67.1686 47.4852C67.0934 47.4305 67.0184 47.3757 66.9414 47.3235C66.9001 47.2954 66.8575 47.2691 66.8158 47.2418C66.7508 47.1993 66.6861 47.1568 66.6198 47.1162C66.5734 47.0877 66.5259 47.0607 66.4789 47.0332C66.4156 46.9962 66.3526 46.959 66.2883 46.9233C66.2387 46.896 66.1883 46.8701 66.1381 46.8438C66.0748 46.8107 66.0112 46.7774 65.947 46.7458C65.8951 46.7204 65.8427 46.696 65.79 46.6716C65.7256 46.6418 65.6612 46.6122 65.5961 46.5838C65.5425 46.5605 65.4884 46.5383 65.4344 46.5162C65.3689 46.4894 65.3028 46.463 65.2364 46.438C65.1816 46.4173 65.1264 46.3971 65.0711 46.3776C65.0039 46.3538 64.9362 46.3308 64.8681 46.3088C64.8123 46.2907 64.7562 46.2729 64.7 46.2562C64.6309 46.2352 64.5612 46.2157 64.4916 46.1968C64.4352 46.1815 64.3787 46.1662 64.322 46.1519C64.2508 46.1343 64.1789 46.118 64.1067 46.1022C64.0502 46.0897 63.9937 46.0769 63.9367 46.0657C63.8625 46.051 63.7877 46.0382 63.7127 46.0255C63.6569 46.0162 63.6014 46.006 63.5453 45.9976C63.4666 45.986 63.3869 45.9766 63.3073 45.9673C63.2542 45.961 63.2016 45.9537 63.1481 45.9483C63.0591 45.9396 62.9691 45.9337 62.8794 45.9277C62.8345 45.9249 62.7903 45.9205 62.7455 45.9183C62.6102 45.9116 62.4744 45.9079 62.3375 45.9079C62.2008 45.9079 62.0647 45.9116 61.9295 45.9183C61.8847 45.9205 61.8405 45.9249 61.7956 45.9277C61.7056 45.9337 61.6158 45.9394 61.5267 45.9483C61.4734 45.9535 61.4209 45.9608 61.368 45.9673C61.2883 45.9766 61.2084 45.986 61.1295 45.9976C61.0736 46.0058 61.0183 46.0158 60.9627 46.0254C60.8875 46.0382 60.8125 46.0508 60.738 46.0657C60.6814 46.0769 60.6252 46.0896 60.5689 46.1021C60.4964 46.118 60.4244 46.1343 60.3528 46.1521C60.2963 46.1663 60.2402 46.1815 60.1841 46.1966C60.1139 46.2158 60.0439 46.2354 59.9745 46.2563C59.9186 46.2732 59.863 46.2908 59.8077 46.3088C59.7391 46.331 59.6711 46.3541 59.6034 46.378C59.5486 46.3974 59.4939 46.4173 59.4395 46.438C59.3725 46.4635 59.3059 46.4899 59.2398 46.5171C59.1864 46.539 59.1331 46.5608 59.0802 46.5838C59.0141 46.6124 58.9488 46.6424 58.8838 46.6727C58.832 46.6968 58.7803 46.7207 58.7294 46.7458C58.6641 46.7779 58.5997 46.8115 58.5353 46.8454C58.4861 46.8713 58.4366 46.8966 58.388 46.9233C58.3225 46.9596 58.2581 46.9974 58.1936 47.0352C58.1478 47.0621 58.1014 47.0883 58.0561 47.116C57.9881 47.1577 57.9216 47.2016 57.8547 47.2452C57.8145 47.2715 57.7741 47.2966 57.7344 47.3233C57.6541 47.3779 57.5756 47.4346 57.4974 47.4921C57.4728 47.5101 57.4475 47.5269 57.4231 47.5452C57.3217 47.6212 57.2224 47.6994 57.1247 47.7799C57.0936 47.8055 57.0639 47.8326 57.0331 47.8585C56.9669 47.9146 56.9008 47.9708 56.8364 48.029C56.7988 48.0632 56.7622 48.0988 56.7252 48.1337C56.6695 48.1857 56.6141 48.2376 56.56 48.2913C56.5211 48.3299 56.4836 48.3696 56.4455 48.4088C56.3952 48.4607 56.3447 48.5126 56.2959 48.5657C56.2574 48.6076 56.2202 48.6504 56.1824 48.693C56.1359 48.7457 56.0895 48.7985 56.0444 48.8522C56.0072 48.8968 55.9709 48.9418 55.9345 48.9871C55.8911 49.0412 55.848 49.0955 55.8058 49.1507C55.7705 49.1969 55.7358 49.244 55.7014 49.2912C55.6606 49.3471 55.6205 49.4035 55.5809 49.4604C55.5477 49.5085 55.5149 49.5571 55.4827 49.6058C55.4444 49.6636 55.407 49.7221 55.3703 49.7808C55.3394 49.8305 55.3084 49.8802 55.2786 49.9305C55.2428 49.9904 55.2085 50.051 55.1742 50.1118C55.1456 50.1627 55.117 50.2135 55.0895 50.2652C55.0563 50.3276 55.0245 50.3907 54.9928 50.4538C54.967 50.5054 54.941 50.5566 54.9163 50.6086C54.8852 50.6743 54.8556 50.741 54.8261 50.8076C54.8036 50.8587 54.7803 50.9093 54.7586 50.961C54.7288 51.0321 54.7014 51.1043 54.6736 51.1765C54.6549 51.2249 54.6352 51.2729 54.6175 51.3218C54.5872 51.4049 54.5597 51.4894 54.5322 51.5738C54.5194 51.6129 54.5053 51.6513 54.4931 51.6907C54.4547 51.8144 54.4191 51.9394 54.3866 52.0655C54.3794 52.0935 54.3738 52.1219 54.3669 52.1499C54.3424 52.2491 54.3186 52.3486 54.2977 52.4491C54.2878 52.4965 54.2802 52.5444 54.2711 52.5921C54.2556 52.6743 54.2397 52.7565 54.2269 52.8394C54.2185 52.8932 54.2119 52.9476 54.2047 53.0015C54.1963 53.0629 54.1864 53.1241 54.1792 53.186H52.1978V42.1677H62.3386H62.3389H65.8722C66.57 42.1677 67.1353 41.6021 67.1353 40.9046C67.1353 40.207 66.57 39.6415 65.8722 39.6415H63.602V27.7407H77.9186V39.6415H70.0814C69.3836 39.6415 68.8183 40.2071 68.8183 40.9046C68.8183 41.6023 69.3836 42.1677 70.0814 42.1677H77.9186V43.6688H75.5759C73.5859 43.6688 71.9667 45.2879 71.9667 47.278C71.9667 49.2682 73.5858 50.8872 75.5759 50.8872H77.9186V52.1329C77.9179 52.714 77.4453 53.1865 76.8645 53.1865ZM77.9179 48.3608H75.5753C74.9783 48.3608 74.4923 47.8751 74.4923 47.2779C74.4923 46.6807 74.9783 46.1949 75.5753 46.1949H77.9179V48.3608Z" fill="#231F20"/>
<path d="M20.233 50.4707C18.2203 50.4707 16.583 52.108 16.583 54.1207C16.583 56.1334 18.2203 57.7707 20.233 57.7707C22.2457 57.7707 23.883 56.1334 23.883 54.1207C23.883 52.108 22.2457 50.4707 20.233 50.4707ZM20.233 55.2444C19.6133 55.2444 19.1093 54.7404 19.1093 54.1207C19.1093 53.501 19.6133 52.9969 20.233 52.9969C20.8527 52.9969 21.3567 53.501 21.3567 54.1207C21.3567 54.7404 20.8527 55.2444 20.233 55.2444Z" fill="#231F20"/>
<path d="M62.3375 50.4707C60.3248 50.4707 58.6875 52.108 58.6875 54.1207C58.6875 56.1334 60.3248 57.7707 62.3375 57.7707C64.3501 57.7707 65.9875 56.1334 65.9875 54.1207C65.9875 52.108 64.3501 50.4707 62.3375 50.4707ZM62.3375 55.2444C61.7178 55.2444 61.2137 54.7404 61.2137 54.1207C61.2137 53.501 61.7178 52.9969 62.3375 52.9969C62.9572 52.9969 63.4612 53.501 63.4612 54.1207C63.4612 54.7404 62.9572 55.2444 62.3375 55.2444Z" fill="#231F20"/>
</g>
<defs>
<clipPath id="clip0_106_5522">
<rect width="80" height="80" fill="white" transform="translate(0.444336)"/>
</clipPath>
</defs>
</svg>
