<svg width="80" height="80" viewBox="0 0 80 80" fill="none" xmlns="http://www.w3.org/2000/svg">
<g clip-path="url(#clip0_106_5520)">
<path d="M77.5 40.0004C77.5 40.0004 71.1609 35.8988 61.7438 32.177C60.6984 32.7863 54.5609 36.2504 50 36.2504C44.0109 36.2504 29.1203 31.327 27.8859 30.916L30.5391 26.3223C21.1875 26.7473 14.8859 28.9988 2.5 31.2504L5 37.5004L2.5 43.7504L5 51.2504H77.5L76.25 45.0004L77.5 40.0004Z" fill="#EEBA17"/>
<path d="M61.25 53.75C64.7018 53.75 67.5 50.9518 67.5 47.5C67.5 44.0482 64.7018 41.25 61.25 41.25C57.7982 41.25 55 44.0482 55 47.5C55 50.9518 57.7982 53.75 61.25 53.75Z" fill="#D2D2D2"/>
<path d="M61.7436 32.1766C53.917 29.0828 43.9623 26.25 33.7498 26.25C32.6342 26.25 31.5686 26.275 30.5389 26.3219L27.8857 30.9156C29.1186 31.3266 44.0107 36.25 49.9998 36.25C54.5592 36.25 60.6982 32.7859 61.7436 32.1766Z" fill="#7D7D7D"/>
<path d="M17.5 53.75C20.9518 53.75 23.75 50.9518 23.75 47.5C23.75 44.0482 20.9518 41.25 17.5 41.25C14.0482 41.25 11.25 44.0482 11.25 47.5C11.25 50.9518 14.0482 53.75 17.5 53.75Z" fill="#D2D2D2"/>
<path d="M78.8124 45.0613L79.9264 40.6066C80.1858 39.5691 79.7561 38.4816 78.8593 37.902C78.6343 37.7566 73.2686 34.3051 65.0374 30.8238C57.4108 27.5973 45.7921 23.752 33.7514 23.752C25.7608 23.752 20.1655 24.9801 13.0827 26.5332C9.91549 27.2285 6.32487 28.016 2.05455 28.7926C1.31549 28.927 0.677991 29.3863 0.313928 30.0426C-0.0485717 30.6988 -0.0985717 31.4848 0.181116 32.1816L2.30924 37.5035L0.177991 42.8223C-0.0423217 43.3707 -0.0595093 43.9801 0.127991 44.541L2.62799 52.041C2.96862 53.0613 3.9233 53.7504 4.99987 53.7504H11.3842C12.9624 55.2957 15.1217 56.2504 17.4999 56.2504C19.878 56.2504 22.0358 55.2957 23.6155 53.7504H55.1342C56.7124 55.2957 58.8717 56.2504 61.2499 56.2504C63.628 56.2504 65.7858 55.2957 67.3655 53.7504H77.4999C78.2483 53.7504 78.9577 53.4145 79.4327 52.8348C79.9077 52.2551 80.0983 51.4941 79.9514 50.7598L78.8124 45.0613ZM55.3733 32.5363C53.6046 33.2082 51.653 33.7504 50.0014 33.7504C45.8889 33.7504 36.7514 31.1582 31.6764 29.566L32.1436 28.7863C32.1436 28.7863 32.1499 28.7738 32.153 28.7691C32.6749 28.7582 33.2046 28.7504 33.7499 28.7504C41.4655 28.7504 49.0514 30.4738 55.3717 32.5363H55.3733ZM5.1608 43.8285L6.69205 40.0004H7.49987C8.88112 40.0004 9.99987 38.8816 9.99987 37.5004C9.99987 36.1191 8.88112 35.0004 7.49987 35.0004H6.69205L5.9483 33.1426C9.01705 32.541 11.7092 31.952 14.1514 31.416C18.5342 30.4551 22.1624 29.6598 26.0671 29.1941L24.1046 32.4645C23.6389 33.2395 23.6296 34.2066 24.078 34.991L31.9405 48.7504H26.1577C26.2171 48.3426 26.2483 47.9254 26.2483 47.5004C26.2483 42.6754 22.3233 38.7504 17.4983 38.7504C12.6733 38.7504 8.7483 42.6754 8.7483 47.5004C8.7483 47.9254 8.77955 48.3426 8.83893 48.7504H6.79987L5.15924 43.8285H5.1608ZM13.7499 47.5004C13.7499 45.4332 15.4327 43.7504 17.4999 43.7504C19.5671 43.7504 21.2499 45.4332 21.2499 47.5004C21.2499 49.5676 19.5671 51.2504 17.4999 51.2504C15.4327 51.2504 13.7499 49.5676 13.7499 47.5004ZM57.4999 47.5004C57.4999 45.4332 59.1827 43.7504 61.2499 43.7504C63.3171 43.7504 64.9999 45.4332 64.9999 47.5004C64.9999 49.5676 63.3171 51.2504 61.2499 51.2504C59.1827 51.2504 57.4999 49.5676 57.4999 47.5004ZM73.7983 45.491L74.4499 48.7504H69.9092C69.9686 48.3426 69.9999 47.9254 69.9999 47.5004C69.9999 42.6754 66.0749 38.7504 61.2499 38.7504C56.4249 38.7504 52.4999 42.6754 52.4999 47.5004C52.4999 47.9254 52.5311 48.3426 52.5905 48.7504H37.6999L29.3046 34.0598C33.2092 35.3066 44.4921 38.7504 49.9983 38.7504C54.753 38.7504 60.2233 35.9395 61.9733 34.966C62.3186 35.1082 62.6608 35.2488 62.9905 35.3879C68.3702 37.6582 72.5249 39.952 74.6249 41.1816L73.8217 44.3941C73.7327 44.7535 73.7233 45.1285 73.7952 45.491H73.7983Z" fill="#414141"/>
</g>
<defs>
<clipPath id="clip0_106_5520">
<rect width="80" height="80" fill="white"/>
</clipPath>
</defs>
</svg>
