<svg width="81" height="80" viewBox="0 0 81 80" fill="none" xmlns="http://www.w3.org/2000/svg">
<g clip-path="url(#clip0_106_5523)">
<path d="M76.9928 38.748L74.9052 32.4854H66.9727V38.748C66.9727 39.4397 67.5334 40.0005 68.2252 40.0005H78.2453L76.9928 38.748Z" fill="#5D5360"/>
<path d="M74.9052 32.4854H66.9727V36.2429H76.1577L74.9052 32.4854Z" fill="#4B3F4E"/>
<path d="M66.9828 53.8584H66.9703C66.3231 53.8584 65.8047 54.3831 65.8047 55.0303C65.8047 55.6775 66.3356 56.2022 66.9828 56.2022C67.63 56.2022 68.1547 55.6775 68.1547 55.0303C68.1547 54.3831 67.63 53.8584 66.9828 53.8584Z" fill="#333333"/>
<path d="M78.7614 40.5187L76.9901 38.7473L73.2326 27.4746H61.96V53.7776L78.2427 53.7783C78.9344 53.7783 79.4952 53.2175 79.4952 52.5258V42.2901C79.4952 41.6257 79.2312 40.9885 78.7614 40.5187Z" fill="#DBD9DC"/>
<path d="M3.09137 19.96H60.7074C61.3991 19.96 61.9599 20.5207 61.9599 21.2125V50.0205H3.09137C2.39965 50.0205 1.83887 49.4597 1.83887 48.768V21.2123C1.83887 20.5206 2.39965 19.96 3.09137 19.96Z" fill="#3A7C97"/>
<path d="M61.9599 50.0208H3.09137C2.39965 50.0208 1.83887 49.46 1.83887 48.7683V45.0107H61.9599V50.0208Z" fill="#7DA5D7"/>
<path d="M66.9683 55.0305H6.84723C6.15551 55.0305 5.59473 54.4697 5.59473 53.778V50.0205H66.9683V55.0305Z" fill="#6F6571"/>
<path d="M66.9693 60.0383C69.736 60.0383 71.9787 57.7955 71.9787 55.0289C71.9787 52.2623 69.736 50.0195 66.9693 50.0195C64.2027 50.0195 61.96 52.2623 61.96 55.0289C61.96 57.7955 64.2027 60.0383 66.9693 60.0383Z" fill="#4B3F4E"/>
<path d="M25.6334 60.0383C28.4 60.0383 30.6428 57.7955 30.6428 55.0289C30.6428 52.2623 28.4 50.0195 25.6334 50.0195C22.8668 50.0195 20.624 52.2623 20.624 55.0289C20.624 57.7955 22.8668 60.0383 25.6334 60.0383Z" fill="#4B3F4E"/>
<path d="M15.6149 60.0383C18.3815 60.0383 20.6242 57.7955 20.6242 55.0289C20.6242 52.2623 18.3815 50.0195 15.6149 50.0195C12.8482 50.0195 10.6055 52.2623 10.6055 55.0289C10.6055 57.7955 12.8482 60.0383 15.6149 60.0383Z" fill="#4B3F4E"/>
<path d="M15.6293 53.8584H15.6166C14.9695 53.8584 14.4512 54.3831 14.4512 55.0303C14.4512 55.6775 14.9821 56.2022 15.6293 56.2022C16.2765 56.2022 16.8012 55.6775 16.8012 55.0303C16.8012 54.3831 16.2765 53.8584 15.6293 53.8584Z" fill="#333333"/>
<path d="M25.6488 53.8584H25.6363C24.9891 53.8584 24.4707 54.3831 24.4707 55.0303C24.4707 55.6775 25.0016 56.2022 25.6488 56.2022C26.296 56.2022 26.8207 55.6775 26.8207 55.0303C26.8207 54.3831 26.296 53.8584 25.6488 53.8584Z" fill="#333333"/>
<path d="M79.5901 39.689L78.0145 38.1134L74.8403 28.5906C75.3139 28.4401 75.6571 27.9971 75.6571 27.4738C75.6571 26.8267 75.1325 26.302 74.4853 26.302H63.132V21.2115C63.132 19.8746 62.0445 18.7871 60.7076 18.7871H3.09137C1.75449 18.7873 0.666992 19.8749 0.666992 21.2115V48.7669C0.666992 50.1037 1.75449 51.1912 3.09137 51.1912H4.4245V53.7762C4.4245 55.1131 5.512 56.2006 6.84888 56.2006H9.54748C10.0969 59.0506 12.6086 61.2106 15.6166 61.2106C17.6762 61.2106 19.5027 60.1972 20.6266 58.6437C21.7506 60.1972 23.577 61.2106 25.6367 61.2106C28.6447 61.2106 31.1566 59.0506 31.7058 56.2006H60.9009C61.4502 59.0506 63.962 61.2106 66.9699 61.2106C70.3787 61.2106 73.1518 58.4373 73.1518 55.0287C73.1518 55.0019 73.1501 54.9755 73.1498 54.9487H78.2426C79.5795 54.9487 80.667 53.8612 80.667 52.5244V42.2887C80.6672 41.3067 80.2847 40.3834 79.5901 39.689ZM9.54748 53.857H6.84888C6.80435 53.857 6.76825 53.8209 6.76825 53.7764V51.1914H10.7753C10.169 51.9548 9.73889 52.8636 9.54748 53.857ZM15.6166 58.8673C13.5001 58.8673 11.7784 57.1455 11.7784 55.0292C11.7784 52.9209 13.4873 51.2047 15.5926 51.1915H15.6408C17.7461 51.2045 19.455 52.9208 19.455 55.0292C19.4548 57.1453 17.733 58.8673 15.6166 58.8673ZM25.6369 58.8673C23.5205 58.8673 21.7986 57.1455 21.7986 55.0292C21.7986 52.9209 23.5075 51.2047 25.6128 51.1915H25.6609C27.7663 51.2045 29.4752 52.9208 29.4752 55.0292C29.475 57.1453 27.7533 58.8673 25.6369 58.8673ZM60.901 53.857H31.706C31.5146 52.8636 31.0844 51.9547 30.478 51.1912H53.1923C53.8394 51.1912 54.3641 50.6665 54.3641 50.0194C54.3641 49.3722 53.8394 48.8475 53.1923 48.8475H3.09137C3.04684 48.8475 3.01075 48.8114 3.01075 48.7669V21.2115C3.01075 21.167 3.04684 21.1309 3.09137 21.1309H60.7074C60.752 21.1309 60.788 21.167 60.788 21.2115V48.8476H58.2029C57.5557 48.8476 57.031 49.3723 57.031 50.0195C57.031 50.6667 57.5557 51.1914 58.2029 51.1914H62.1288C61.5224 51.9548 61.0924 52.8636 60.901 53.857ZM75.7818 38.827H68.2226C68.1781 38.827 68.142 38.7909 68.142 38.7464V33.6556H74.0581L75.7818 38.827ZM66.9701 58.8673C64.8537 58.8673 63.132 57.1455 63.132 55.0292C63.132 52.9209 64.8409 51.2047 66.9462 51.1915H66.9702C66.9729 51.1915 66.9756 51.1912 66.9784 51.1911C69.091 51.1955 70.8085 52.9155 70.8085 55.0291C70.8082 57.1453 69.0865 58.8673 66.9701 58.8673ZM78.3234 45.0901H76.9903C76.3431 45.0901 75.8184 45.6148 75.8184 46.262C75.8184 46.9092 76.3431 47.4339 76.9903 47.4339H78.3234V52.5247C78.3234 52.5692 78.2873 52.6053 78.2428 52.6053H72.6565C71.712 50.398 69.519 48.8472 66.9701 48.8472C66.962 48.8472 66.9542 48.8478 66.946 48.8478H63.132V28.7267V28.726C63.132 28.6815 63.1681 28.6454 63.2126 28.6454H72.3881L73.2768 31.3117H66.9701C66.3229 31.3117 65.7982 31.8364 65.7982 32.4835V38.7462C65.7982 40.0831 66.8857 41.1706 68.2226 41.1706H77.7573L77.9329 41.3462C78.1846 41.5981 78.3234 41.9328 78.3234 42.2889V45.0901Z" fill="#333333"/>
<path d="M6.84668 46.1826H56.9476C57.5948 46.1826 58.1194 45.6579 58.1194 45.0107C58.1194 44.3636 57.5948 43.8389 56.9476 43.8389H6.84668C6.19949 43.8389 5.6748 44.3636 5.6748 45.0107C5.6748 45.6579 6.19949 46.1826 6.84668 46.1826Z" fill="#333333"/>
</g>
<defs>
<clipPath id="clip0_106_5523">
<rect width="80" height="80" fill="white" transform="translate(0.666992)"/>
</clipPath>
</defs>
</svg>
