<svg width="81" height="80" viewBox="0 0 81 80" fill="none" xmlns="http://www.w3.org/2000/svg">
<g clip-path="url(#clip0_106_5526)">
<path d="M2.83301 52.501V46.251H5.33301V38.751C5.33301 37.4249 5.85979 36.1531 6.79748 35.2154C7.73515 34.2778 9.00693 33.751 10.333 33.751H12.833L20.333 22.501H45.333L59.083 35.001C66.408 35.001 69.6455 36.8135 72.833 40.001C74.1614 41.3704 75.0345 43.1166 75.333 45.001L76.583 52.501H2.83301Z" fill="#C89D14"/>
<path d="M72.5455 48.026C72.2573 46.1054 71.3844 44.3203 70.0455 42.9135C66.783 39.651 63.458 37.7885 55.9705 37.7885L41.8455 25.001H18.2455L20.333 22.501H45.333L59.083 35.001C66.408 35.001 69.6455 36.8135 72.833 40.001C74.1614 41.3704 75.0345 43.1166 75.333 45.001L76.583 52.501H73.2955L72.5455 48.026Z" fill="#FFB028"/>
<path d="M45.333 22.501L59.083 35.001H39.083V22.501H45.333Z" fill="#6EE1EF"/>
<path d="M42.4205 25.001H39.083V22.501H45.333L59.083 35.001H53.4205L42.4205 25.001Z" fill="#5FB1D7"/>
<path d="M26.583 22.501H39.083V35.001H19.083L26.583 22.501Z" fill="#6EE1EF"/>
<path d="M24.708 25.001L26.583 22.501H39.083V25.001H24.708Z" fill="#5FB1D7"/>
<path d="M76.583 57.502C77.246 57.502 77.8819 57.2386 78.3508 56.7697C78.8196 56.3009 79.083 55.665 79.083 55.002C79.083 54.3389 78.8196 53.703 78.3508 53.2342C77.8819 52.7653 77.246 52.502 76.583 52.502H4.08302C3.41998 52.502 2.78409 52.7653 2.31525 53.2342C1.84641 53.703 1.58302 54.3389 1.58302 55.002C1.58302 55.665 1.84641 56.3009 2.31525 56.7697C2.78409 57.2386 3.41998 57.502 4.08302 57.502H76.583Z" fill="#58595B"/>
<path d="M64.083 62.501C59.9409 62.501 56.583 59.1431 56.583 55.001C56.583 50.8588 59.9409 47.501 64.083 47.501C68.2251 47.501 71.583 50.8588 71.583 55.001C71.583 59.1431 68.2251 62.501 64.083 62.501Z" fill="#808285"/>
<path d="M64.083 58.751C62.0119 58.751 60.333 57.072 60.333 55.001C60.333 52.9299 62.0119 51.251 64.083 51.251C66.1541 51.251 67.833 52.9299 67.833 55.001C67.833 57.072 66.1541 58.751 64.083 58.751Z" fill="#F1F2F2"/>
<path d="M21.583 62.501C17.4409 62.501 14.083 59.1431 14.083 55.001C14.083 50.8588 17.4409 47.501 21.583 47.501C25.7251 47.501 29.083 50.8588 29.083 55.001C29.083 59.1431 25.7251 62.501 21.583 62.501Z" fill="#808285"/>
<path d="M21.582 58.751C19.511 58.751 17.832 57.072 17.832 55.001C17.832 52.9299 19.511 51.251 21.582 51.251C23.6531 51.251 25.332 52.9299 25.332 55.001C25.332 57.072 23.6531 58.751 21.582 58.751Z" fill="#F1F2F2"/>
<path d="M26.583 22.501H39.083L36.583 17.501H29.083L26.583 22.501Z" fill="#FFB028"/>
<path d="M64.083 46.251C65.8136 46.251 67.5053 46.7642 68.9442 47.7256C70.3832 48.6871 71.5047 50.0536 72.1669 51.6525C72.8292 53.2514 73.0025 55.0107 72.6649 56.708C72.3273 58.4053 71.4939 59.9645 70.2702 61.1882C69.0465 62.4119 67.4874 63.2452 65.79 63.5828C64.0927 63.9205 62.3334 63.7472 60.7345 63.0849C59.1357 62.4227 57.7691 61.3011 56.8076 59.8622C55.8462 58.4233 55.333 56.7316 55.333 55.001C55.333 52.6803 56.2549 50.4547 57.8958 48.8138C59.5368 47.1728 61.7624 46.251 64.083 46.251ZM64.083 61.251C65.3191 61.251 66.5275 60.8844 67.5553 60.1977C68.5831 59.5109 69.3842 58.5348 69.8573 57.3927C70.3303 56.2507 70.4541 54.994 70.2129 53.7817C69.9718 52.5693 69.3765 51.4556 68.5024 50.5816C67.6283 49.7075 66.5147 49.1122 65.3023 48.8711C64.0899 48.6299 62.8333 48.7537 61.6912 49.2267C60.5492 49.6998 59.5731 50.5009 58.8863 51.5287C58.1996 52.5565 57.833 53.7648 57.833 55.001C57.833 56.6586 58.4915 58.2483 59.6636 59.4204C60.8357 60.5925 62.4254 61.251 64.083 61.251Z" fill="#333333"/>
<path d="M60.333 53.751C60.6645 53.751 60.9825 53.8827 61.2169 54.1171C61.4513 54.3515 61.583 54.6695 61.583 55.001C61.583 55.4954 61.7296 55.9788 62.0043 56.3899C62.279 56.801 62.6695 57.1215 63.1263 57.3107C63.5831 57.4999 64.0858 57.5494 64.5707 57.4529C65.0557 57.3565 65.5011 57.1184 65.8508 56.7687C66.2004 56.4191 66.4385 55.9737 66.535 55.4887C66.6314 55.0038 66.5819 54.5011 66.3927 54.0443C66.2035 53.5875 65.8831 53.197 65.4719 52.9223C65.0608 52.6476 64.5775 52.501 64.083 52.501C63.7515 52.501 63.4335 52.3693 63.1991 52.1349C62.9647 51.9004 62.833 51.5825 62.833 51.251C62.833 50.9195 62.9647 50.6015 63.1991 50.3671C63.4335 50.1327 63.7515 50.001 64.083 50.001C65.0719 50.001 66.0386 50.2942 66.8609 50.8436C67.6831 51.393 68.324 52.1739 68.7024 53.0876C69.0808 54.0012 69.1799 55.0065 68.9869 55.9764C68.794 56.9463 68.3178 57.8372 67.6185 58.5365C66.9193 59.2358 66.0284 59.712 65.0585 59.9049C64.0886 60.0978 63.0832 59.9988 62.1696 59.6204C61.256 59.2419 60.4751 58.6011 59.9257 57.7788C59.3763 56.9566 59.083 55.9899 59.083 55.001C59.083 54.6695 59.2147 54.3515 59.4491 54.1171C59.6835 53.8827 60.0015 53.751 60.333 53.751Z" fill="#333333"/>
<path d="M21.583 46.251C23.3136 46.251 25.0053 46.7642 26.4442 47.7256C27.8832 48.6871 29.0047 50.0536 29.6669 51.6525C30.3292 53.2514 30.5025 55.0107 30.1649 56.708C29.8273 58.4053 28.9939 59.9645 27.7702 61.1882C26.5465 62.4119 24.9874 63.2452 23.29 63.5828C21.5927 63.9205 19.8334 63.7472 18.2345 63.0849C16.6357 62.4227 15.2691 61.3011 14.3076 59.8622C13.3462 58.4233 12.833 56.7316 12.833 55.001C12.833 52.6803 13.7549 50.4547 15.3958 48.8138C17.0368 47.1728 19.2624 46.251 21.583 46.251ZM21.583 61.251C22.8191 61.251 24.0275 60.8844 25.0553 60.1977C26.0831 59.5109 26.8842 58.5348 27.3572 57.3927C27.8303 56.2507 27.9541 54.994 27.7129 53.7817C27.4718 52.5693 26.8765 51.4556 26.0024 50.5816C25.1283 49.7075 24.0147 49.1122 22.8023 48.8711C21.5899 48.6299 20.3333 48.7537 19.1912 49.2267C18.0492 49.6998 17.0731 50.5009 16.3863 51.5287C15.6996 52.5565 15.333 53.7648 15.333 55.001C15.333 56.6586 15.9915 58.2483 17.1636 59.4204C18.3357 60.5925 19.9254 61.251 21.583 61.251Z" fill="#333333"/>
<path d="M17.833 53.751C18.1645 53.751 18.4825 53.8827 18.7169 54.1171C18.9513 54.3515 19.083 54.6695 19.083 55.001C19.083 55.4954 19.2296 55.9788 19.5043 56.3899C19.779 56.801 20.1695 57.1215 20.6263 57.3107C21.0831 57.4999 21.5858 57.5494 22.0707 57.4529C22.5557 57.3565 23.0011 57.1184 23.3508 56.7687C23.7004 56.4191 23.9385 55.9737 24.035 55.4887C24.1314 55.0038 24.0819 54.5011 23.8927 54.0443C23.7035 53.5875 23.3831 53.197 22.9719 52.9223C22.5608 52.6476 22.0775 52.501 21.583 52.501C21.2515 52.501 20.9335 52.3693 20.6991 52.1349C20.4647 51.9004 20.333 51.5825 20.333 51.251C20.333 50.9195 20.4647 50.6015 20.6991 50.3671C20.9335 50.1327 21.2515 50.001 21.583 50.001C22.5719 50.001 23.5386 50.2942 24.3609 50.8436C25.1831 51.393 25.824 52.1739 26.2024 53.0876C26.5808 54.0012 26.6799 55.0065 26.4869 55.9764C26.294 56.9463 25.8178 57.8372 25.1185 58.5365C24.4193 59.2358 23.5284 59.712 22.5585 59.9049C21.5886 60.0978 20.5832 59.9988 19.6696 59.6204C18.756 59.2419 17.9751 58.6011 17.4257 57.7788C16.8763 56.9566 16.583 55.9899 16.583 55.001C16.583 54.6695 16.7147 54.3515 16.9491 54.1171C17.1835 53.8827 17.5015 53.751 17.833 53.751Z" fill="#333333"/>
<path d="M31.583 56.251H54.083C54.4145 56.251 54.7325 56.3827 54.9669 56.6171C55.2013 56.8515 55.333 57.1695 55.333 57.501C55.333 57.8325 55.2013 58.1504 54.9669 58.3849C54.7325 58.6193 54.4145 58.751 54.083 58.751H31.583C31.2515 58.751 30.9335 58.6193 30.6991 58.3849C30.4647 58.1504 30.333 57.8325 30.333 57.501C30.333 57.1695 30.4647 56.8515 30.6991 56.6171C30.9335 56.3827 31.2515 56.251 31.583 56.251Z" fill="#333333"/>
<path d="M1.58353 52.276V46.251C1.58353 45.9195 1.71523 45.6015 1.94965 45.3671C2.18407 45.1327 2.50201 45.001 2.83353 45.001H4.08353V38.751C4.08353 37.0934 4.74201 35.5037 5.91412 34.3316C7.08622 33.1595 8.67593 32.501 10.3335 32.501H12.1585L19.296 21.8135C19.4093 21.6415 19.5632 21.5002 19.7442 21.4021C19.9252 21.3039 20.1276 21.252 20.3335 21.251H25.8085L27.971 16.9385C28.0749 16.7323 28.2338 16.559 28.4302 16.4376C28.6266 16.3163 28.8527 16.2517 29.0835 16.251H36.5835C36.8144 16.2517 37.0405 16.3163 37.2369 16.4376C37.4332 16.559 37.5922 16.7323 37.696 16.9385L39.8585 21.251H45.3335C45.6433 21.2518 45.9418 21.3676 46.171 21.576L59.571 33.751C66.9835 33.8385 70.396 35.7885 73.721 39.1135C75.2402 40.6678 76.2403 42.6548 76.5835 44.801L77.6835 51.451C78.5168 51.7335 79.2242 52.3 79.682 53.0514C80.1397 53.8027 80.3187 54.6912 80.1876 55.5612C80.0565 56.4312 79.6237 57.2274 78.9648 57.8106C78.306 58.3937 77.463 58.7266 76.5835 58.751H74.0835C73.752 58.751 73.4341 58.6193 73.1997 58.3849C72.9652 58.1504 72.8335 57.8325 72.8335 57.501C72.8335 57.1695 72.9652 56.8515 73.1997 56.6171C73.4341 56.3827 73.752 56.251 74.0835 56.251H76.5835C76.9151 56.251 77.233 56.1193 77.4674 55.8849C77.7018 55.6504 77.8335 55.3325 77.8335 55.001C77.8335 54.6695 77.7018 54.3515 77.4674 54.1171C77.233 53.8827 76.9151 53.751 76.5835 53.751H74.0835C73.752 53.751 73.4341 53.6193 73.1997 53.3849C72.9652 53.1504 72.8335 52.8325 72.8335 52.501C72.8335 52.1695 72.9652 51.8515 73.1997 51.6171C73.4341 51.3827 73.752 51.251 74.0835 51.251H75.1085L74.0835 45.1385C73.8097 43.5381 73.0606 42.0572 71.9335 40.8885C68.946 37.876 66.0085 36.251 59.0835 36.251H19.0835C18.8629 36.2509 18.6462 36.1925 18.4555 36.0816C18.2647 35.9707 18.1068 35.8113 17.9976 35.6196C17.8884 35.4279 17.8319 35.2107 17.8338 34.9901C17.8357 34.7694 17.896 34.5533 18.0085 34.3635L24.371 23.751H21.0085L13.871 34.4385C13.7578 34.6104 13.6038 34.7517 13.4228 34.8499C13.2419 34.948 13.0394 34.9999 12.8335 35.001H10.3335C9.33897 35.001 8.38515 35.3961 7.68188 36.0993C6.97862 36.8026 6.58353 37.7564 6.58353 38.751V46.251C6.58353 46.5825 6.45184 46.9004 6.21741 47.1349C5.98299 47.3693 5.66505 47.501 5.33353 47.501H4.08353V51.251H11.5835C11.9151 51.251 12.233 51.3827 12.4674 51.6171C12.7018 51.8515 12.8335 52.1695 12.8335 52.501C12.8335 52.8325 12.7018 53.1504 12.4674 53.3849C12.233 53.6193 11.9151 53.751 11.5835 53.751H4.08353C3.75201 53.751 3.43407 53.8827 3.19965 54.1171C2.96523 54.3515 2.83353 54.6695 2.83353 55.001C2.83353 55.3325 2.96523 55.6504 3.19965 55.8849C3.43407 56.1193 3.75201 56.251 4.08353 56.251H11.5835C11.9151 56.251 12.233 56.3827 12.4674 56.6171C12.7018 56.8515 12.8335 57.1695 12.8335 57.501C12.8335 57.8325 12.7018 58.1504 12.4674 58.3849C12.233 58.6193 11.9151 58.751 11.5835 58.751H4.08353C3.09695 58.7257 2.15775 58.3225 1.4599 57.6246C0.762047 56.9268 0.358841 55.9876 0.333534 55.001C0.343254 54.4852 0.459282 53.977 0.674362 53.5081C0.889442 53.0392 1.19895 52.6198 1.58353 52.276ZM35.8085 18.751H29.8585L28.6085 21.251H37.0585L35.8085 18.751ZM40.3335 23.751V33.751H55.846L44.846 23.751H40.3335ZM37.8335 33.751V23.751H27.296L21.296 33.751H37.8335Z" fill="#333333"/>
<path d="M55.333 52.501C55.333 52.8325 55.2013 53.1504 54.9669 53.3849C54.7325 53.6193 54.4145 53.751 54.083 53.751H31.583C31.2515 53.751 30.9335 53.6193 30.6991 53.3849C30.4647 53.1504 30.333 52.8325 30.333 52.501C30.333 52.1695 30.4647 51.8515 30.6991 51.6171C30.9335 51.3827 31.2515 51.251 31.583 51.251H54.083C54.4145 51.251 54.7325 51.3827 54.9669 51.6171C55.2013 51.8515 55.333 52.1695 55.333 52.501Z" fill="#333333"/>
<path d="M50.333 40.001H55.333C55.6645 40.001 55.9825 40.1327 56.2169 40.3671C56.4513 40.6015 56.583 40.9195 56.583 41.251C56.583 41.5825 56.4513 41.9004 56.2169 42.1349C55.9825 42.3693 55.6645 42.501 55.333 42.501H54.083V46.251C54.083 46.5825 53.9513 46.9004 53.7169 47.1349C53.4825 47.3693 53.1645 47.501 52.833 47.501C52.5015 47.501 52.1835 47.3693 51.9491 47.1349C51.7147 46.9004 51.583 46.5825 51.583 46.251V42.501H50.333C50.0015 42.501 49.6835 42.3693 49.4491 42.1349C49.2147 41.9004 49.083 41.5825 49.083 41.251C49.083 40.9195 49.2147 40.6015 49.4491 40.3671C49.6835 40.1327 50.0015 40.001 50.333 40.001Z" fill="#333333"/>
<path d="M45.333 40.001C46.3196 40.0263 47.2588 40.4295 47.9566 41.1273C48.6545 41.8252 49.0577 42.7644 49.083 43.751V46.251C49.083 46.5825 48.9513 46.9004 48.7169 47.1349C48.4825 47.3693 48.1645 47.501 47.833 47.501C47.5015 47.501 47.1835 47.3693 46.9491 47.1349C46.7147 46.9004 46.583 46.5825 46.583 46.251H44.083C44.083 46.5825 43.9513 46.9004 43.7169 47.1349C43.4825 47.3693 43.1645 47.501 42.833 47.501C42.5015 47.501 42.1835 47.3693 41.9491 47.1349C41.7147 46.9004 41.583 46.5825 41.583 46.251V43.751C41.6083 42.7644 42.0115 41.8252 42.7094 41.1273C43.4072 40.4295 44.3464 40.0263 45.333 40.001ZM46.583 43.751C46.583 43.4195 46.4513 43.1015 46.2169 42.8671C45.9825 42.6327 45.6645 42.501 45.333 42.501C45.0015 42.501 44.6835 42.6327 44.4491 42.8671C44.2147 43.1015 44.083 43.4195 44.083 43.751H46.583Z" fill="#333333"/>
<path d="M39.972 47.1387C39.8558 47.2559 39.7176 47.3489 39.5653 47.4123C39.4129 47.4758 39.2496 47.5085 39.0845 47.5085C38.9195 47.5085 38.7562 47.4758 38.6038 47.4123C38.4515 47.3489 38.3133 47.2559 38.1971 47.1387L36.5845 45.5137L34.972 47.1387C34.8558 47.2559 34.7176 47.3489 34.5653 47.4123C34.4129 47.4758 34.2496 47.5085 34.0845 47.5085C33.9195 47.5085 33.7562 47.4758 33.6038 47.4123C33.4515 47.3489 33.3133 47.2559 33.1971 47.1387C33.0799 47.0225 32.9869 46.8843 32.9234 46.7319C32.86 46.5796 32.8273 46.4162 32.8273 46.2512C32.8273 46.0862 32.86 45.9228 32.9234 45.7705C32.9869 45.6182 33.0799 45.4799 33.1971 45.3637L34.822 43.7512L33.1971 42.1387C32.9617 41.9033 32.8294 41.5841 32.8294 41.2512C32.8294 40.9183 32.9617 40.5991 33.1971 40.3637C33.4324 40.1283 33.7517 39.9961 34.0845 39.9961C34.4174 39.9961 34.7367 40.1283 34.972 40.3637L36.5845 41.9887L38.1971 40.3637C38.4324 40.1283 38.7517 39.9961 39.0845 39.9961C39.4174 39.9961 39.7367 40.1283 39.972 40.3637C40.2074 40.5991 40.3397 40.9183 40.3397 41.2512C40.3397 41.5841 40.2074 41.9033 39.972 42.1387L38.347 43.7512L39.972 45.3637C40.0892 45.4799 40.1822 45.6182 40.2457 45.7705C40.3091 45.9228 40.3418 46.0862 40.3418 46.2512C40.3418 46.4162 40.3091 46.5796 40.2457 46.7319C40.1822 46.8843 40.0892 47.0225 39.972 47.1387Z" fill="#333333"/>
<path d="M29.083 46.251V41.251C29.083 40.9195 29.2147 40.6015 29.4491 40.3671C29.6835 40.1327 30.0015 40.001 30.333 40.001C30.6645 40.001 30.9825 40.1327 31.2169 40.3671C31.4513 40.6015 31.583 40.9195 31.583 41.251V46.251C31.583 46.5825 31.4513 46.9004 31.2169 47.1349C30.9825 47.3693 30.6645 47.501 30.333 47.501C30.0015 47.501 29.6835 47.3693 29.4491 47.1349C29.2147 46.9004 29.083 46.5825 29.083 46.251Z" fill="#333333"/>
<path d="M21.583 40.001H19.083V42.501H21.583V40.001Z" fill="#333333"/>
<path d="M19.083 42.501H16.583V45.001H19.083V42.501Z" fill="#333333"/>
<path d="M16.582 40.001H14.082V42.501H16.582V40.001Z" fill="#333333"/>
<path d="M11.583 40.001H9.08301V42.501H11.583V40.001Z" fill="#333333"/>
<path d="M14.083 42.501H11.583V45.001H14.083V42.501Z" fill="#333333"/>
<path d="M71.583 42.501H69.083V45.001H71.583V42.501Z" fill="#333333"/>
</g>
<defs>
<clipPath id="clip0_106_5526">
<rect width="80" height="80" fill="white" transform="matrix(-1 0 0 1 80.333 0)"/>
</clipPath>
</defs>
</svg>
