<svg width="16" height="17" viewBox="0 0 16 17" fill="none" xmlns="http://www.w3.org/2000/svg">
<path d="M0 15.9473C0 16.4998 0.4475 16.9473 1 16.9473H15C15.5525 16.9473 16 16.4998 16 15.9473V6.94727H0V15.9473ZM11 7.94727H15V9.94727H11V7.94727ZM11 10.9473H15V12.9473H11V10.9473ZM11 13.9473H15V15.9473H11V13.9473ZM6 7.94727H10V9.94727H6V7.94727ZM6 10.9473H10V12.9473H6V10.9473ZM6 13.9473H10V15.9473H6V13.9473ZM1 7.94727H5V9.94727H1V7.94727ZM1 10.9473H5V12.9473H1V10.9473ZM1 13.9473H5V15.9473H1V13.9473ZM15 2.94727H13V1.51877C13 1.20327 12.776 0.947266 12.5 0.947266C12.224 0.947266 12 1.20327 12 1.51877V2.94727H4V1.51877C4 1.20327 3.776 0.947266 3.5 0.947266C3.224 0.947266 3 1.20327 3 1.51877V2.94727H1C0.4475 2.94727 0 3.39477 0 3.94727V5.94727H16V3.94727C16 3.39477 15.5525 2.94727 15 2.94727ZM3.5 5.44727C2.9475 5.44727 2.5 4.99977 2.5 4.44727C2.5 4.07727 2.701 3.75427 3 3.58127V4.44727C3 4.72327 3.224 4.94727 3.5 4.94727C3.776 4.94727 4 4.72327 4 4.44727V3.58127C4.299 3.75427 4.5 4.07727 4.5 4.44727C4.5 4.99977 4.0525 5.44727 3.5 5.44727ZM12.5 5.44727C11.9475 5.44727 11.5 4.99977 11.5 4.44727C11.5 4.07727 11.701 3.75427 12 3.58127V4.44727C12 4.72327 12.224 4.94727 12.5 4.94727C12.776 4.94727 13 4.72327 13 4.44727V3.58127C13.299 3.75427 13.5 4.07727 13.5 4.44727C13.5 4.99977 13.0525 5.44727 12.5 5.44727Z" fill="#444444"/>
</svg>
