<svg width="16" height="17" viewBox="0 0 16 17" fill="none" xmlns="http://www.w3.org/2000/svg">
<g clip-path="url(#clip0_24_810)">
<path fill-rule="evenodd" clip-rule="evenodd" d="M6.19048 12.6005V16.5663C6.19048 16.7768 6.36103 16.9473 6.57143 16.9473H14C14.2104 16.9473 14.381 16.7768 14.381 16.5663V1.32822C14.381 1.11782 14.2104 0.947266 14 0.947266H6.57143C6.36103 0.947266 6.19048 1.11782 6.19048 1.32822V5.29403C6.37943 5.29266 6.5725 5.36197 6.72922 5.51869L9.34968 8.13915C9.79598 8.58546 9.79598 9.30908 9.34968 9.75538L6.72922 12.3758C6.5725 12.5326 6.37943 12.6019 6.19048 12.6005ZM6.19048 11.8371L8.81093 9.21664C8.9597 9.06787 8.9597 8.82666 8.81093 8.67789L6.19048 6.05744V7.23298C6.19048 7.54858 5.93465 7.80441 5.61905 7.80441H2.38095C2.17055 7.80441 2 7.97496 2 8.18536V9.70917C2 9.91957 2.17055 10.0901 2.38095 10.0901H5.61905C5.93465 10.0901 6.19048 10.346 6.19048 10.6616V11.8371ZM12.6667 7.51869C12.8771 7.51869 13.0476 7.68925 13.0476 7.89965V9.99488C13.0476 10.2053 12.8771 10.3758 12.6667 10.3758C12.4563 10.3758 12.2857 10.2053 12.2857 9.99488V7.89965C12.2857 7.68925 12.4563 7.51869 12.6667 7.51869Z" fill="#444444"/>
</g>
<defs>
<clipPath id="clip0_24_810">
<rect width="16" height="16" fill="white" transform="translate(0 0.947266)"/>
</clipPath>
</defs>
</svg>
