<svg width="16" height="16" viewBox="0 0 16 16" fill="none" xmlns="http://www.w3.org/2000/svg">
<g clip-path="url(#clip0_24_977)">
<path d="M0 15C0 15.5525 0.4475 16 1 16H15C15.5525 16 16 15.5525 16 15V6H0V15ZM11 7H15V9H11V7ZM11 10H15V12H11V10ZM11 13H15V15H11V13ZM6 7H10V9H6V7ZM6 10H10V12H6V10ZM6 13H10V15H6V13ZM1 7H5V9H1V7ZM1 10H5V12H1V10ZM1 13H5V15H1V13ZM15 2H13V0.5715C13 0.256 12.776 0 12.5 0C12.224 0 12 0.256 12 0.5715V2H4V0.5715C4 0.256 3.776 0 3.5 0C3.224 0 3 0.256 3 0.5715V2H1C0.4475 2 0 2.4475 0 3V5H16V3C16 2.4475 15.5525 2 15 2ZM3.5 4.5C2.9475 4.5 2.5 4.0525 2.5 3.5C2.5 3.13 2.701 2.807 3 2.634V3.5C3 3.776 3.224 4 3.5 4C3.776 4 4 3.776 4 3.5V2.634C4.299 2.807 4.5 3.13 4.5 3.5C4.5 4.0525 4.0525 4.5 3.5 4.5ZM12.5 4.5C11.9475 4.5 11.5 4.0525 11.5 3.5C11.5 3.13 11.701 2.807 12 2.634V3.5C12 3.776 12.224 4 12.5 4C12.776 4 13 3.776 13 3.5V2.634C13.299 2.807 13.5 3.13 13.5 3.5C13.5 4.0525 13.0525 4.5 12.5 4.5Z" fill="#444444"/>
</g>
<defs>
<clipPath id="clip0_24_977">
<rect width="16" height="16" fill="white"/>
</clipPath>
</defs>
</svg>
