<svg width="33" height="32" viewBox="0 0 33 32" fill="none" xmlns="http://www.w3.org/2000/svg">
<path d="M9.8259 0.00976562H23.2659C28.3859 0.00976562 32.5459 4.16977 32.5459 9.28977V22.7298C32.5459 25.191 31.5682 27.5514 29.8279 29.2917C28.0875 31.0321 25.7271 32.0098 23.2659 32.0098H9.8259C4.7059 32.0098 0.545898 27.8498 0.545898 22.7298V9.28977C0.545898 6.82856 1.52361 4.46815 3.26395 2.72781C5.00429 0.987477 7.36469 0.00976563 9.8259 0.00976562ZM9.5059 3.20977C7.97825 3.20977 6.51317 3.81662 5.43296 4.89683C4.35275 5.97704 3.7459 7.44212 3.7459 8.96977V23.0498C3.7459 26.2338 6.3219 28.8098 9.5059 28.8098H23.5859C25.1135 28.8098 26.5786 28.2029 27.6588 27.1227C28.739 26.0425 29.3459 24.5774 29.3459 23.0498V8.96977C29.3459 5.78577 26.7699 3.20977 23.5859 3.20977H9.5059ZM24.9459 5.60977C25.4763 5.60977 25.985 5.82048 26.3601 6.19555C26.7352 6.57062 26.9459 7.07933 26.9459 7.60977C26.9459 8.1402 26.7352 8.64891 26.3601 9.02398C25.985 9.39905 25.4763 9.60977 24.9459 9.60977C24.4155 9.60977 23.9068 9.39905 23.5317 9.02398C23.1566 8.64891 22.9459 8.1402 22.9459 7.60977C22.9459 7.07933 23.1566 6.57062 23.5317 6.19555C23.9068 5.82048 24.4155 5.60977 24.9459 5.60977ZM16.5459 8.00977C18.6676 8.00977 20.7025 8.85262 22.2028 10.3529C23.703 11.8532 24.5459 13.888 24.5459 16.0098C24.5459 18.1315 23.703 20.1663 22.2028 21.6666C20.7025 23.1669 18.6676 24.0098 16.5459 24.0098C14.4242 24.0098 12.3893 23.1669 10.889 21.6666C9.38875 20.1663 8.5459 18.1315 8.5459 16.0098C8.5459 13.888 9.38875 11.8532 10.889 10.3529C12.3893 8.85262 14.4242 8.00977 16.5459 8.00977ZM16.5459 11.2098C15.2729 11.2098 14.052 11.7155 13.1518 12.6157C12.2516 13.5158 11.7459 14.7367 11.7459 16.0098C11.7459 17.2828 12.2516 18.5037 13.1518 19.4039C14.052 20.3041 15.2729 20.8098 16.5459 20.8098C17.8189 20.8098 19.0398 20.3041 19.94 19.4039C20.8402 18.5037 21.3459 17.2828 21.3459 16.0098C21.3459 14.7367 20.8402 13.5158 19.94 12.6157C19.0398 11.7155 17.8189 11.2098 16.5459 11.2098Z" fill="#333333"/>
</svg>
