<svg width="940" height="737" viewBox="0 0 940 737" fill="none" xmlns="http://www.w3.org/2000/svg">
<path d="M799.7 31.2544C799.7 25.2389 794.795 20.3164 788.789 20.3164H667.035C661.029 20.3164 656.124 25.2389 656.124 31.2544V107.209C656.124 112.126 652.11 116.147 647.214 116.147H631.641C625.635 116.147 620.73 121.07 620.73 127.085V171.097C620.73 177.112 625.635 182.035 631.641 182.035H682.608C688.613 182.035 693.518 177.112 693.518 171.097V159.029C693.518 154.113 697.533 150.091 702.428 150.091H788.789C794.795 150.091 799.7 145.169 799.7 139.153V31.2544Z" fill="white" stroke="#333333" stroke-width="2"/>
<path d="M399.092 508.344H283.706C277.66 508.344 272.734 513.182 272.734 519.178V555.706C272.734 561.703 277.66 566.541 283.706 566.541H399.092C405.138 566.541 410.064 561.703 410.064 555.706V519.178C410.064 513.182 405.138 508.344 399.092 508.344Z" fill="white" stroke="#333333" stroke-width="2"/>
<path d="M247.385 508.344H160.298C154.232 508.344 149.305 513.236 149.305 519.282V641.378C149.305 647.424 154.232 652.316 160.298 652.316H247.385C253.451 652.316 258.378 647.424 258.378 641.378V519.282C258.378 513.236 253.451 508.344 247.385 508.344Z" fill="white" stroke="#333333" stroke-width="2"/>
<path d="M607.747 338.273C601.746 338.273 596.841 343.18 596.841 349.182V377.958C596.841 382.855 592.83 386.866 587.934 386.866H508.207C502.206 386.866 497.301 391.772 497.301 397.774V483.168C497.301 489.17 502.206 494.076 508.207 494.076H587.934C593.935 494.076 598.841 489.17 598.841 483.168V446.366C598.841 441.469 602.851 437.458 607.747 437.458H644.543C650.544 437.458 655.45 432.552 655.45 426.55V349.182C655.45 343.18 650.544 338.273 644.543 338.273H607.747Z" fill="white" stroke="#333333" stroke-width="2"/>
<path d="M363.998 387.076C357.974 387.076 353.051 392.007 353.051 398.036V483.878C353.051 489.907 357.974 494.838 363.998 494.838H415.156C420.073 494.838 424.103 498.871 424.103 503.798V540.792C424.103 546.821 429.026 551.752 435.05 551.752H471.997C478.022 551.752 482.944 546.821 482.944 540.792V398.036C482.944 392.007 478.022 387.076 471.997 387.076H363.998Z" fill="white" stroke="#333333" stroke-width="2"/>
<path d="M327.739 387.076H219.74C213.7 387.076 208.793 391.945 208.793 397.965V483.188C208.793 489.207 213.7 494.076 219.74 494.076H327.739C333.78 494.076 338.687 489.207 338.687 483.188V397.965C338.687 391.945 333.78 387.076 327.739 387.076Z" fill="white" stroke="#333333" stroke-width="2"/>
<path d="M680.69 395.949C674.703 395.949 669.8 400.817 669.8 406.784V443.312C669.8 448.163 665.803 452.146 660.911 452.146H624.179C618.192 452.146 613.289 457.014 613.289 462.981V499.509C613.289 505.476 618.192 510.344 624.179 510.344H717.422C723.408 510.344 728.311 505.476 728.311 499.509V406.784C728.311 400.817 723.408 395.949 717.422 395.949H680.69Z" fill="white" stroke="#333333" stroke-width="2"/>
<path d="M631.585 194.824C625.603 194.824 620.73 199.761 620.73 205.778V313.85C620.73 319.867 625.603 324.804 631.585 324.804H661.149C666.008 324.804 670.004 328.826 670.004 333.758V370.729C670.004 376.747 674.877 381.683 680.859 381.683H717.462C723.444 381.683 728.317 376.747 728.317 370.729V205.778C728.317 199.761 723.444 194.824 717.462 194.824H631.585Z" fill="white" stroke="#333333" stroke-width="2"/>
</svg>
