<svg width="1440" height="372" viewBox="0 0 1440 372" fill="none" xmlns="http://www.w3.org/2000/svg">
<path d="M1.93289 79.4996C1.93289 79.4996 291.035 29.6038 506.327 33.6559C855.424 40.2265 1315.88 169.212 1315.88 169.212L1346.79 272.244L1.93282 127.5L1.93289 79.4996Z" fill="#6FBADA"/>
<path d="M2.43359 121.5C2.43359 121.5 115.218 136.337 187.934 139C352.567 145.029 444.391 119.364 607.934 99.5C795.008 76.7782 897.534 46.3592 1084.93 26.5C1224.12 11.7499 1442.43 1 1442.43 1V371.5H2.43359C2.43359 371.5 2.43365 371.5 2.43359 121.5Z" fill="#D6E816"/>
<path d="M1376.54 108.165L1370.13 108.265C1369.32 108.278 1368.51 108.104 1367.77 107.756C1367.03 107.407 1366.38 106.892 1365.86 106.249L1354.69 92.4275C1352.84 90.1414 1350.43 88.4038 1347.7 87.3901C1344.98 86.3764 1342.03 86.1225 1339.16 86.6539L1308.92 92.2941C1306.05 92.8331 1303.36 94.1381 1301.12 96.0773C1298.88 98.0166 1297.18 100.522 1296.17 103.34L1290.01 120.712C1289.76 121.431 1289.36 122.091 1288.85 122.653C1288.34 123.215 1287.73 123.667 1287.05 123.983L1281.31 126.637C1279.88 127.298 1278.64 128.322 1277.69 129.611C1276.75 130.901 1276.14 132.412 1275.93 134.002C1275.92 134.054 1275.92 134.112 1275.92 134.165C1275.8 135.078 1275.81 136.003 1275.95 136.909L1278.07 149.66C1278.48 152.117 1279.83 154.296 1281.81 155.717C1283.8 157.139 1286.26 157.688 1288.66 157.243L1295.33 156C1296.72 158.027 1298.65 159.601 1300.89 160.536C1303.13 161.472 1305.59 161.732 1307.99 161.285C1310.38 160.839 1312.61 159.704 1314.42 158.014C1316.22 156.324 1317.53 154.147 1318.18 151.738L1356.85 144.526C1358.24 146.554 1360.17 148.127 1362.41 149.063C1364.65 149.999 1367.11 150.258 1369.51 149.812C1371.9 149.365 1374.13 148.231 1375.94 146.54C1377.74 144.85 1379.05 142.674 1379.7 140.264L1386.37 139.021C1388.77 138.57 1390.9 137.164 1392.31 135.11C1393.72 133.055 1394.28 130.521 1393.88 128.063L1392.88 122.087C1392.24 118.132 1390.24 114.56 1387.24 112.009C1384.25 109.458 1380.45 108.095 1376.54 108.165ZM1386.1 116.132C1387 117.141 1387.75 118.293 1388.3 119.544L1386.91 119.804C1385.47 120.072 1384 119.747 1382.81 118.902C1382.13 118.417 1381.58 117.785 1381.17 117.05L1386.1 116.132ZM1279.55 136.002L1282.65 135.426L1282.36 139.303L1280.15 139.714L1279.57 136.234C1279.56 136.156 1279.56 136.079 1279.55 136.002ZM1307.37 157.577C1305.58 157.911 1303.74 157.693 1302.09 156.952C1300.43 156.211 1299.03 154.979 1298.06 153.413C1297.1 151.847 1296.61 150.016 1296.66 148.153C1296.71 146.289 1297.29 144.476 1298.34 142.944C1299.39 141.411 1300.86 140.228 1302.55 139.543C1304.25 138.858 1306.1 138.702 1307.87 139.096C1309.64 139.489 1311.25 140.414 1312.5 141.753C1313.74 143.092 1314.57 144.785 1314.88 146.619C1315.28 149.077 1314.72 151.612 1313.31 153.666C1311.91 155.72 1309.77 157.127 1307.37 157.577ZM1368.89 146.104C1367.1 146.437 1365.26 146.22 1363.61 145.479C1361.95 144.737 1360.55 143.506 1359.58 141.939C1358.62 140.373 1358.13 138.543 1358.18 136.679C1358.23 134.816 1358.81 133.003 1359.86 131.47C1360.91 129.938 1362.38 128.754 1364.07 128.069C1365.77 127.384 1367.62 127.229 1369.39 127.622C1371.16 128.015 1372.77 128.94 1374.02 130.279C1375.26 131.619 1376.09 133.312 1376.4 135.146C1376.8 137.604 1376.24 140.138 1374.83 142.193C1373.43 144.247 1371.29 145.653 1368.89 146.104ZM1385.75 135.312L1380.18 136.352C1380.15 134.452 1379.72 132.586 1378.91 130.883C1378.11 129.179 1376.96 127.678 1375.54 126.481C1374.11 125.284 1372.45 124.421 1370.66 123.95C1368.87 123.479 1367 123.411 1365.18 123.751C1363.35 124.092 1361.62 124.832 1360.09 125.922C1358.56 127.011 1357.27 128.424 1356.32 130.065C1355.37 131.705 1354.77 133.533 1354.56 135.424C1354.36 137.315 1354.56 139.225 1355.14 141.022L1318.66 147.825C1318.63 145.925 1318.2 144.06 1317.39 142.356C1316.59 140.653 1315.44 139.151 1314.02 137.954C1312.59 136.758 1310.93 135.894 1309.14 135.423C1307.35 134.952 1305.48 134.884 1303.66 135.225C1301.83 135.565 1300.1 136.305 1298.57 137.395C1297.04 138.485 1295.75 139.898 1294.8 141.538C1293.85 143.178 1293.25 145.006 1293.04 146.898C1292.84 148.789 1293.04 150.698 1293.62 152.496L1288.04 153.535C1286.6 153.803 1285.13 153.475 1283.94 152.622C1282.74 151.768 1281.94 150.46 1281.69 148.985L1280.77 143.422L1284.39 142.748C1284.79 142.672 1285.16 142.461 1285.43 142.147C1285.71 141.834 1285.88 141.436 1285.91 141.017L1286.49 133.263C1286.51 132.977 1286.46 132.69 1286.36 132.425C1286.26 132.16 1286.1 131.923 1285.89 131.733C1285.69 131.542 1285.44 131.403 1285.17 131.325C1284.9 131.247 1284.62 131.234 1284.35 131.285L1280.53 131.998C1281.1 131.159 1281.88 130.494 1282.79 130.072L1288.53 127.416C1289.66 126.889 1290.68 126.135 1291.53 125.199C1292.38 124.263 1293.03 123.163 1293.46 121.966L1299.62 104.593C1300.4 102.401 1301.73 100.453 1303.47 98.9449C1305.21 97.4366 1307.3 96.4217 1309.53 96.0024L1339.77 90.3622C1342.01 89.9488 1344.3 90.1461 1346.42 90.9341C1348.54 91.7222 1350.42 93.0731 1351.86 94.8508L1363.02 108.673C1363.89 109.746 1364.97 110.604 1366.21 111.186C1367.44 111.767 1368.78 112.057 1370.15 112.034L1376.55 111.936C1378.43 111.905 1380.28 112.294 1381.98 113.076L1378.44 113.738C1377.96 113.827 1377.53 114.108 1377.25 114.519C1376.97 114.93 1376.85 115.437 1376.94 115.929C1377.14 117.147 1377.57 118.31 1378.21 119.35C1378.85 120.391 1379.69 121.289 1380.67 121.994C1381.66 122.698 1382.77 123.195 1383.94 123.455C1385.12 123.716 1386.33 123.735 1387.52 123.513L1389.33 123.175L1390.26 128.738C1390.5 130.213 1390.17 131.734 1389.32 132.967C1388.48 134.2 1387.19 135.044 1385.75 135.312Z" fill="#333333" fill-opacity="0.8"/>
<path d="M1354.81 101.772C1354.49 101.396 1354.04 101.166 1353.56 101.134C1353.07 101.102 1352.59 101.269 1352.22 101.6C1351.85 101.93 1351.62 102.396 1351.58 102.896C1351.55 103.395 1351.71 103.887 1352.02 104.263L1355.49 108.373L1333.34 112.507L1330.87 97.6545L1341.25 95.7167C1342.19 95.5444 1343.16 95.6227 1344.05 95.9442C1344.95 96.2657 1345.74 96.8196 1346.36 97.5523L1347.84 99.3024C1348.15 99.6784 1348.61 99.9078 1349.09 99.9401C1349.58 99.9724 1350.06 99.8049 1350.43 99.4745C1350.8 99.144 1351.03 98.6778 1351.06 98.1782C1351.1 97.6786 1350.94 97.1867 1350.62 96.8106L1349.15 95.0609C1348.11 93.8402 1346.79 92.9176 1345.3 92.3821C1343.81 91.8466 1342.2 91.7162 1340.64 92.0036L1328.44 94.2793C1327.96 94.3689 1327.54 94.6505 1327.25 95.062C1326.97 95.4735 1326.86 95.9814 1326.94 96.4738L1330.02 115.039C1330.11 115.532 1330.38 115.968 1330.77 116.253C1331.17 116.538 1331.66 116.648 1332.14 116.558L1359.3 111.49C1359.62 111.43 1359.92 111.284 1360.17 111.067C1360.42 110.849 1360.61 110.569 1360.72 110.253C1360.83 109.938 1360.86 109.599 1360.8 109.271C1360.74 108.943 1360.6 108.638 1360.39 108.387L1354.81 101.772Z" fill="#333333" fill-opacity="0.8"/>
<path d="M1321.33 95.461L1309.13 97.7367C1307.57 98.0324 1306.1 98.7357 1304.87 99.7786C1303.65 100.822 1302.7 102.169 1302.12 103.691L1295.85 120.285C1295.73 120.597 1295.69 120.936 1295.74 121.265C1295.79 121.594 1295.93 121.903 1296.13 122.16C1296.34 122.416 1296.61 122.611 1296.91 122.725C1297.22 122.839 1297.55 122.868 1297.87 122.808L1325.03 117.74C1325.51 117.65 1325.93 117.369 1326.22 116.957C1326.5 116.545 1326.61 116.038 1326.53 115.545L1323.44 96.9796C1323.36 96.4872 1323.09 96.0506 1322.7 95.7658C1322.3 95.481 1321.81 95.3714 1321.33 95.461ZM1322.6 114.364L1300.45 118.498L1305.54 105.024C1305.89 104.111 1306.46 103.302 1307.19 102.676C1307.93 102.05 1308.81 101.627 1309.75 101.45L1320.13 99.512L1322.6 114.364Z" fill="#333333" fill-opacity="0.8"/>
<path d="M1336.19 117.785L1332.57 118.46C1332.09 118.549 1331.67 118.83 1331.39 119.241C1331.1 119.651 1330.99 120.158 1331.07 120.65C1331.16 121.141 1331.42 121.577 1331.82 121.861C1332.22 122.145 1332.71 122.255 1333.19 122.165L1336.81 121.491C1337.29 121.401 1337.72 121.12 1338 120.71C1338.28 120.299 1338.39 119.792 1338.31 119.301C1338.23 118.809 1337.96 118.374 1337.56 118.089C1337.16 117.805 1336.67 117.696 1336.19 117.785Z" fill="#333333" fill-opacity="0.8"/>
<path d="M1301.91 124.037L1298.29 124.712C1297.81 124.801 1297.39 125.082 1297.1 125.493C1296.82 125.903 1296.71 126.41 1296.79 126.902C1296.87 127.393 1297.14 127.829 1297.54 128.113C1297.94 128.397 1298.43 128.507 1298.91 128.417L1302.53 127.743C1303.01 127.653 1303.43 127.372 1303.72 126.962C1304 126.551 1304.11 126.044 1304.03 125.553C1303.95 125.061 1303.68 124.626 1303.28 124.341C1302.88 124.057 1302.39 123.948 1301.91 124.037Z" fill="#333333" fill-opacity="0.8"/>
<path d="M1366.44 131.561C1365.36 131.762 1364.37 132.285 1363.57 133.065C1362.78 133.845 1362.23 134.847 1361.99 135.943C1361.74 137.039 1361.82 138.181 1362.21 139.224C1362.6 140.267 1363.28 141.165 1364.17 141.803C1365.06 142.441 1366.12 142.791 1367.21 142.81C1368.3 142.828 1369.38 142.513 1370.3 141.906C1371.23 141.298 1371.96 140.424 1372.4 139.395C1372.85 138.366 1372.99 137.228 1372.8 136.124C1372.56 134.645 1371.75 133.333 1370.56 132.477C1369.36 131.621 1367.88 131.292 1366.44 131.561ZM1367.67 139C1367.32 139.066 1366.95 139.023 1366.61 138.874C1366.28 138.725 1366 138.478 1365.81 138.164C1365.61 137.85 1365.52 137.483 1365.53 137.109C1365.54 136.735 1365.65 136.372 1365.86 136.064C1366.08 135.757 1366.37 135.519 1366.71 135.382C1367.05 135.245 1367.42 135.213 1367.77 135.292C1368.13 135.371 1368.45 135.557 1368.7 135.825C1368.95 136.094 1369.12 136.434 1369.18 136.801C1369.26 137.295 1369.15 137.803 1368.87 138.215C1368.58 138.628 1368.15 138.91 1367.67 139Z" fill="#333333" fill-opacity="0.8"/>
<path d="M1305.1 142.748C1304.02 142.949 1303.03 143.473 1302.23 144.253C1301.44 145.033 1300.89 146.034 1300.65 147.13C1300.4 148.227 1300.48 149.369 1300.87 150.412C1301.26 151.455 1301.94 152.352 1302.83 152.99C1303.72 153.629 1304.78 153.979 1305.87 153.997C1306.96 154.016 1308.04 153.701 1308.96 153.093C1309.89 152.485 1310.62 151.612 1311.06 150.583C1311.51 149.554 1311.65 148.415 1311.46 147.312C1311.22 145.832 1310.41 144.52 1309.22 143.664C1308.02 142.809 1306.54 142.479 1305.1 142.748ZM1306.33 150.187C1305.98 150.254 1305.61 150.21 1305.27 150.062C1304.94 149.913 1304.66 149.666 1304.47 149.352C1304.27 149.037 1304.18 148.67 1304.19 148.296C1304.2 147.923 1304.31 147.559 1304.52 147.252C1304.74 146.944 1305.03 146.707 1305.37 146.569C1305.71 146.432 1306.08 146.401 1306.43 146.48C1306.79 146.559 1307.11 146.744 1307.36 147.013C1307.61 147.281 1307.78 147.621 1307.84 147.989C1307.92 148.482 1307.81 148.991 1307.53 149.403C1307.24 149.815 1306.81 150.097 1306.33 150.187Z" fill="#333333" fill-opacity="0.8"/>
<path d="M871.271 236.946C871.271 236.946 1057.76 216.484 1174.79 195.691C1292.5 174.776 1471.1 130.221 1471.1 130.221" stroke="#333333" stroke-opacity="0.6" stroke-width="2"/>
<path d="M870.396 232.969C870.396 232.969 1056.89 212.507 1173.91 191.714C1291.63 170.799 1470.22 126.244 1470.22 126.244" stroke="#333333" stroke-opacity="0.6"/>
<path d="M698.709 215.657C698.709 215.657 875.748 208.953 986.081 194.048C1097.06 179.056 1264.22 139.06 1264.22 139.06" stroke="#333333" stroke-opacity="0.6" stroke-width="2"/>
<path d="M697.717 212.563C697.717 212.563 874.755 205.859 985.089 190.954C1096.07 175.962 1263.23 135.966 1263.23 135.966" stroke="#333333" stroke-opacity="0.6"/>
<path d="M1395.73 109.858C1395.73 109.858 1440.03 99.5056 1467.51 90.9432C1495.15 82.3305 1536.55 65.9313 1536.55 65.9313" stroke="#333333" stroke-opacity="0.6" stroke-width="2"/>
<path d="M1393.43 107.256C1393.43 107.256 1437.74 96.904 1465.21 88.3416C1492.85 79.729 1534.26 63.3298 1534.26 63.3298" stroke="#333333" stroke-opacity="0.6"/>
<mask id="mask0_98_122" style="mask-type:luminance" maskUnits="userSpaceOnUse" x="26" y="0" width="152" height="157">
<path d="M26.3516 0H177.826V156.932H26.3516V0Z" fill="white"/>
</mask>
<g mask="url(#mask0_98_122)">
<path fill-rule="evenodd" clip-rule="evenodd" d="M83.7927 72.005C83.7927 75.5535 86.5689 78.4297 89.994 78.4297H114.189C117.614 78.4297 120.391 75.5537 120.391 72.005V6.46796C120.391 2.91925 117.614 0.0432587 114.189 0.0432587H89.994C86.5689 0.0432587 83.7927 2.91948 83.7927 6.46796V36.6289C83.7927 37.8985 84.7861 38.9277 86.0116 38.9277C87.237 38.9277 88.2304 37.8985 88.2304 36.6289V6.46796C88.2304 5.45867 89.0198 4.64086 89.994 4.64086H114.189C115.163 4.64086 115.953 5.45889 115.953 6.46796V72.005C115.953 73.0141 115.163 73.8321 114.189 73.8321H89.994C89.0198 73.8321 88.2304 73.0143 88.2304 72.005V47.2175C88.2304 45.9479 87.237 44.9187 86.0116 44.9187C84.7861 44.9187 83.7927 45.9479 83.7927 47.2175V72.005Z" fill="#333333" fill-opacity="0.8"/>
<path fill-rule="evenodd" clip-rule="evenodd" d="M92.1716 17.2057C92.1716 22.8824 96.613 27.4844 102.093 27.4844C107.572 27.4844 112.014 22.8825 112.014 17.2057C112.014 11.5291 107.572 6.92725 102.093 6.92725C96.6131 6.92725 92.1716 11.5292 92.1716 17.2057ZM102.093 22.8868C99.0641 22.8868 96.6093 20.3434 96.6093 17.2057C96.6093 14.0682 99.0641 11.5249 102.093 11.5249C105.121 11.5249 107.576 14.0683 107.576 17.2057C107.576 20.3434 105.121 22.8868 102.093 22.8868Z" fill="#333333" fill-opacity="0.8"/>
<path fill-rule="evenodd" clip-rule="evenodd" d="M92.1716 39.2353C92.1716 44.9118 96.6131 49.5137 102.093 49.5137C107.572 49.5137 112.014 44.9118 112.014 39.2353C112.014 33.5585 107.572 28.9565 102.093 28.9565C96.613 28.9565 92.1716 33.5585 92.1716 39.2353ZM102.093 44.9161C99.0641 44.9161 96.6093 42.3727 96.6093 39.2353C96.6093 36.0975 99.0641 33.5542 102.093 33.5542C105.121 33.5542 107.576 36.0975 107.576 39.2353C107.576 42.3726 105.121 44.9161 102.093 44.9161Z" fill="#333333" fill-opacity="0.8"/>
<path fill-rule="evenodd" clip-rule="evenodd" d="M92.1718 61.2704C92.1718 66.9469 96.6133 71.5488 102.093 71.5488C107.572 71.5488 112.014 66.947 112.014 61.2704C112.014 55.5936 107.572 50.9917 102.093 50.9917C96.6132 50.9917 92.1718 55.5937 92.1718 61.2704ZM102.093 66.9512C99.0643 66.9512 96.6095 64.4078 96.6095 61.2704C96.6095 58.1326 99.0643 55.5893 102.093 55.5893C105.121 55.5893 107.576 58.1327 107.576 61.2704C107.576 64.4078 105.121 66.9512 102.093 66.9512Z" fill="#333333" fill-opacity="0.8"/>
<path fill-rule="evenodd" clip-rule="evenodd" d="M87.0076 154.592C87.0076 155.861 88.001 156.891 89.2264 156.891H114.957C116.183 156.891 117.176 155.861 117.176 154.592V145.427C117.176 142.799 115.12 140.669 112.583 140.669H91.6C89.0635 140.669 87.0076 142.799 87.0076 145.427V154.592ZM91.4453 152.293V145.427C91.4453 145.338 91.5147 145.266 91.6 145.266H112.583C112.669 145.266 112.738 145.338 112.738 145.427V152.293H91.4453Z" fill="#333333" fill-opacity="0.8"/>
<path fill-rule="evenodd" clip-rule="evenodd" d="M95.6597 142.969C95.6597 144.238 96.6531 145.268 97.8786 145.268H106.302C107.527 145.268 108.521 144.238 108.521 142.969V115.173C108.521 113.903 107.527 112.874 106.302 112.874C105.076 112.874 104.083 113.903 104.083 115.173V140.67H100.097V78.4316H104.083V104.42C104.083 105.689 105.076 106.718 106.302 106.718C107.527 106.718 108.521 105.689 108.521 104.42V76.1328C108.521 74.8632 107.527 73.8339 106.302 73.8339H97.8786C96.6531 73.8339 95.6597 74.8632 95.6597 76.1328V142.969Z" fill="#333333" fill-opacity="0.8"/>
</g>
</svg>
