<svg width="79" height="59" viewBox="0 0 79 59" fill="none" xmlns="http://www.w3.org/2000/svg">
<g clip-path="url(#clip0_56_7281)">
<path d="M46.4275 9.93772C46.6774 9.93772 46.8801 9.74496 46.8801 9.50716V4.82487C46.8801 4.11264 46.2709 3.5332 45.5222 3.5332H29.0463C28.2975 3.5332 27.6884 4.11264 27.6884 4.82487V24.286C27.6884 24.9982 28.2975 25.5776 29.0463 25.5776H45.5222C46.2709 25.5776 46.8801 24.9982 46.8801 24.286V21.114C46.8801 20.8762 46.6774 20.6834 46.4275 20.6834C46.1775 20.6834 45.9748 20.8762 45.9748 21.114V24.286C45.9748 24.5234 45.7718 24.7165 45.5222 24.7165H29.0463C28.7967 24.7165 28.5936 24.5234 28.5936 24.286V4.82487C28.5936 4.58746 28.7967 4.39431 29.0463 4.39431H45.5222C45.7718 4.39431 45.9748 4.58746 45.9748 4.82487V9.50716C45.9748 9.74496 46.1775 9.93772 46.4275 9.93772Z" fill="#333333"/>
<path d="M37.2842 5.85938C34.9881 5.85938 33.12 7.63632 33.12 9.82049C33.12 10.9536 33.6229 11.9769 34.4273 12.6996C34.4424 12.7149 34.4584 12.7294 34.4759 12.7426C35.2169 13.3876 36.2031 13.7816 37.2842 13.7816C38.3653 13.7816 39.3515 13.3875 40.0925 12.7426C40.11 12.7294 40.126 12.7149 40.1411 12.6996C40.9456 11.9769 41.4485 10.9536 41.4485 9.82049C41.4485 7.63632 39.5804 5.85938 37.2842 5.85938ZM37.2842 12.9205C36.5451 12.9205 35.863 12.6849 35.3157 12.2889C35.7135 11.6179 36.4559 11.1983 37.2842 11.1983C38.1126 11.1983 38.855 11.6179 39.2528 12.2889C38.7054 12.6849 38.0233 12.9205 37.2842 12.9205ZM36.56 9.64826V9.3684C36.56 8.98857 36.8849 8.67951 37.2842 8.67951C37.6836 8.67951 38.0085 8.98857 38.0085 9.3684V9.64826C38.0085 10.0281 37.6836 10.3372 37.2842 10.3372C36.8849 10.3372 36.56 10.0281 36.56 9.64826ZM39.9068 11.6582C39.573 11.1873 39.1104 10.821 38.5732 10.5949C38.7864 10.3328 38.9137 10.0045 38.9137 9.64826V9.3684C38.9137 8.51371 38.1828 7.8184 37.2842 7.8184C36.3857 7.8184 35.6548 8.51371 35.6548 9.3684V9.64826C35.6548 10.0045 35.7821 10.3328 35.9953 10.5949C35.4581 10.821 34.9955 11.1873 34.6617 11.6582C34.262 11.1436 34.0253 10.508 34.0253 9.82049C34.0253 8.11114 35.4872 6.72049 37.2842 6.72049C39.0812 6.72049 40.5432 8.11114 40.5432 9.82049C40.5432 10.508 40.3064 11.1436 39.9068 11.6582Z" fill="#333333"/>
<path d="M39.7284 22.3926H37.2842C37.0342 22.3926 36.8315 22.5853 36.8315 22.8231C36.8315 23.0609 37.0342 23.2537 37.2842 23.2537H39.7284C39.9784 23.2537 40.181 23.0609 40.181 22.8231C40.181 22.5853 39.9784 22.3926 39.7284 22.3926Z" fill="#333333"/>
<path d="M39.7284 19.9805H33.301C33.0511 19.9805 32.8484 20.1732 32.8484 20.411C32.8484 20.6488 33.0511 20.8416 33.301 20.8416H39.7284C39.9784 20.8416 40.1811 20.6488 40.1811 20.411C40.1811 20.1732 39.9784 19.9805 39.7284 19.9805Z" fill="#333333"/>
<path d="M39.7284 17.5703H33.301C33.0511 17.5703 32.8484 17.7631 32.8484 18.0009C32.8484 18.2387 33.0511 18.4314 33.301 18.4314H39.7284C39.9784 18.4314 40.1811 18.2387 40.1811 18.0009C40.1811 17.7631 39.9784 17.5703 39.7284 17.5703Z" fill="#333333"/>
<path d="M31.6864 15.2844C31.6022 15.2043 31.4855 15.1582 31.366 15.1582C31.2469 15.1582 31.1301 15.2043 31.046 15.2844C30.9618 15.3644 30.9133 15.4755 30.9133 15.5888C30.9133 15.702 30.9617 15.8131 31.046 15.8932C31.1306 15.9732 31.2469 16.0193 31.366 16.0193C31.4855 16.0193 31.6018 15.9732 31.6864 15.8932C31.7706 15.8131 31.8191 15.702 31.8191 15.5888C31.8191 15.4755 31.7706 15.3644 31.6864 15.2844Z" fill="#333333"/>
<path d="M31.6864 17.6965C31.6018 17.6164 31.4855 17.5703 31.366 17.5703C31.2469 17.5703 31.1306 17.6164 31.046 17.6965C30.9618 17.7765 30.9133 17.8876 30.9133 18.0009C30.9133 18.1141 30.9617 18.2252 31.046 18.3053C31.1306 18.3854 31.2469 18.4314 31.366 18.4314C31.4855 18.4314 31.6018 18.3854 31.6864 18.3053C31.7706 18.2252 31.8191 18.1141 31.8191 18.0009C31.8191 17.8876 31.7706 17.7765 31.6864 17.6965Z" fill="#333333"/>
<path d="M31.6864 20.1066C31.6018 20.0265 31.4855 19.9805 31.366 19.9805C31.2469 19.9805 31.1306 20.0265 31.046 20.1066C30.9618 20.1867 30.9133 20.2978 30.9133 20.411C30.9133 20.5243 30.9617 20.6353 31.046 20.7154C31.1301 20.7955 31.2469 20.8416 31.366 20.8416C31.4855 20.8416 31.6022 20.7955 31.6864 20.7154C31.7706 20.6353 31.8191 20.5243 31.8191 20.411C31.8191 20.2978 31.7706 20.1867 31.6864 20.1066Z" fill="#333333"/>
<path d="M39.7284 15.1582H33.301C33.0511 15.1582 32.8484 15.351 32.8484 15.5888C32.8484 15.8266 33.0511 16.0193 33.301 16.0193H39.7284C39.9784 16.0193 40.1811 15.8266 40.1811 15.5888C40.1811 15.351 39.9784 15.1582 39.7284 15.1582Z" fill="#333333"/>
<path d="M49.9145 9.14538C49.4747 8.90389 48.9624 8.83973 48.4719 8.96472C47.9814 9.08976 47.5714 9.38899 47.3176 9.80728L41.6215 19.1918C41.5903 19.2432 41.5706 19.3003 41.5637 19.3593L41.1627 22.7755C41.1428 22.9455 41.2305 23.1106 41.3862 23.1962C41.4565 23.2348 41.5346 23.2539 41.6125 23.2539C41.7072 23.2539 41.8015 23.2257 41.881 23.17L44.7907 21.1316C44.841 21.0964 44.8831 21.0516 44.9142 21.0002L50.6102 11.6157C51.1344 10.7521 50.8223 9.64397 49.9145 9.14538ZM42.1772 21.893L42.3865 20.1091L43.6966 20.8286L42.1772 21.893ZM44.3566 20.1967L42.6318 19.2495L47.2028 11.7186L48.9275 12.6659L44.3566 20.1967ZM49.8263 11.1851L49.3801 11.9201L47.6554 10.9729L48.1015 10.2378C48.2345 10.0187 48.4492 9.862 48.7061 9.79651C48.9632 9.73098 49.2315 9.76465 49.4618 9.89115C49.6921 10.0176 49.8569 10.2219 49.9257 10.4663C49.9946 10.7107 49.9593 10.9659 49.8263 11.1851Z" fill="#333333"/>
</g>
<defs>
<clipPath id="clip0_56_7281">
<rect width="23.1749" height="22.0444" fill="white" transform="translate(27.6882 3.5332)"/>
</clipPath>
</defs>
</svg>
