<svg width="44" height="40" viewBox="0 0 44 40" fill="none" xmlns="http://www.w3.org/2000/svg">
<path fill-rule="evenodd" clip-rule="evenodd" d="M18.8105 12.726C18.8105 13.0607 19.1211 13.332 19.5042 13.332H27.0369C27.42 13.332 27.7305 13.0607 27.7305 12.726C27.7305 12.3913 27.42 12.1199 27.0369 12.1199H19.5042C19.1211 12.1199 18.8105 12.3913 18.8105 12.726Z" fill="#333333"/>
<path fill-rule="evenodd" clip-rule="evenodd" d="M18.8105 10.3041C18.8105 10.6388 19.0992 10.9102 19.4552 10.9102H33.4572C33.8133 10.9102 34.1019 10.6388 34.1019 10.3041C34.1019 9.96938 33.8133 9.69804 33.4572 9.69804H19.4552C19.0992 9.69804 18.8105 9.96938 18.8105 10.3041Z" fill="#333333"/>
<path fill-rule="evenodd" clip-rule="evenodd" d="M18.8105 22.4252C18.8105 22.7599 19.1211 23.0312 19.5042 23.0312H27.0369C27.42 23.0312 27.7305 22.7599 27.7305 22.4252C27.7305 22.0905 27.42 21.8191 27.0369 21.8191H19.5042C19.1211 21.8191 18.8105 22.0905 18.8105 22.4252Z" fill="#333333"/>
<path fill-rule="evenodd" clip-rule="evenodd" d="M18.8105 19.9994C18.8105 20.3341 19.0992 20.6055 19.4552 20.6055H33.4572C33.8133 20.6055 34.1019 20.3341 34.1019 19.9994C34.1019 19.6647 33.8133 19.3933 33.4572 19.3933H19.4552C19.0992 19.3933 18.8105 19.6647 18.8105 19.9994Z" fill="#333333"/>
<path fill-rule="evenodd" clip-rule="evenodd" d="M18.8105 32.1205C18.8105 32.4552 19.1211 32.7266 19.5042 32.7266H27.0369C27.42 32.7266 27.7305 32.4552 27.7305 32.1205C27.7305 31.7858 27.42 31.5144 27.0369 31.5144H19.5042C19.1211 31.5144 18.8105 31.7858 18.8105 32.1205Z" fill="#333333"/>
<path fill-rule="evenodd" clip-rule="evenodd" d="M18.8105 29.6986C18.8105 30.0333 19.0992 30.3047 19.4552 30.3047H33.4572C33.8133 30.3047 34.1019 30.0333 34.1019 29.6986C34.1019 29.3639 33.8133 29.0926 33.4572 29.0926H19.4552C19.0992 29.0926 18.8105 29.3639 18.8105 29.6986Z" fill="#333333"/>
<mask id="mask0_268_39054" style="mask-type:luminance" maskUnits="userSpaceOnUse" x="0" y="0" width="44" height="40">
<path d="M0.974609 0H43.0259V40H0.974609V0Z" fill="white"/>
</mask>
<g mask="url(#mask0_268_39054)">
<path fill-rule="evenodd" clip-rule="evenodd" d="M14.9883 4.14467C14.9883 5.20386 15.7927 6.0625 16.7851 6.0625H27.2086C28.2009 6.0625 29.0054 5.20386 29.0054 4.14467V1.91982C29.0054 0.860564 28.2009 0.001894 27.2086 0.001894H16.7851C15.7927 0.001894 14.9883 0.860564 14.9883 1.91982V4.14467ZM16.7851 4.77577C16.4585 4.77577 16.1937 4.49316 16.1937 4.14467V1.91982C16.1937 1.57121 16.4585 1.28863 16.7851 1.28863H27.2086C27.5352 1.28863 27.7999 1.57121 27.7999 1.91982V4.14467C27.7999 4.49316 27.5352 4.77577 27.2086 4.77577H16.7851Z" fill="#333333"/>
<path fill-rule="evenodd" clip-rule="evenodd" d="M9.89453 12.8889C9.89453 13.8046 10.6749 14.5469 11.6375 14.5469H14.5229C15.4856 14.5469 16.2659 13.8046 16.2659 12.8889V10.1442C16.2659 9.22853 15.4856 8.48627 14.5229 8.48627H11.6375C10.6749 8.48627 9.89453 9.22853 9.89453 10.1442V12.8889ZM11.6375 13.3118C11.392 13.3118 11.193 13.1225 11.193 12.8889V10.1442C11.193 9.91072 11.3919 9.72138 11.6375 9.72138H14.5229C14.7685 9.72138 14.9675 9.91072 14.9675 10.1442V12.8889C14.9675 13.1225 14.7685 13.3118 14.5229 13.3118H11.6375Z" fill="#333333"/>
<path fill-rule="evenodd" clip-rule="evenodd" d="M9.89453 22.5842C9.89453 23.4999 10.6749 24.2422 11.6375 24.2422H14.5229C15.4856 24.2422 16.2659 23.4999 16.2659 22.5842V19.8395C16.2659 18.9238 15.4856 18.1816 14.5229 18.1816H11.6375C10.6749 18.1816 9.89453 18.9238 9.89453 19.8395V22.5842ZM11.6375 23.0071C11.392 23.0071 11.193 22.8178 11.193 22.5842V19.8395C11.193 19.606 11.3919 19.4167 11.6375 19.4167H14.5229C14.7685 19.4167 14.9675 19.606 14.9675 19.8395V22.5842C14.9675 22.8178 14.7685 23.0071 14.5229 23.0071H11.6375Z" fill="#333333"/>
<path fill-rule="evenodd" clip-rule="evenodd" d="M9.89453 32.2794C9.89453 33.1952 10.6748 33.9375 11.6375 33.9375H14.5229C15.4856 33.9375 16.2659 33.1952 16.2659 32.2794V29.5349C16.2659 28.6193 15.4856 27.8769 14.5229 27.8769H11.6375C10.6748 27.8769 9.89453 28.6193 9.89453 29.5349V32.2794ZM11.6375 32.7024C11.392 32.7024 11.193 32.5131 11.193 32.2794V29.5349C11.193 29.3013 11.392 29.112 11.6375 29.112H14.5229C14.7685 29.112 14.9675 29.3013 14.9675 29.5349V32.2794C14.9675 32.5131 14.7685 32.7024 14.5229 32.7024H11.6375Z" fill="#333333"/>
<path fill-rule="evenodd" clip-rule="evenodd" d="M8.7692 38.8359C7.9679 38.8359 7.31836 38.228 7.31836 37.4784V4.94572C7.31836 4.19609 7.96785 3.58836 8.7692 3.58836H12.4971C12.8406 3.58836 13.1191 3.32776 13.1191 3.0063C13.1191 2.68484 12.8406 2.42424 12.4971 2.42424H8.7692C7.28083 2.42424 6.07422 3.55307 6.07422 4.94572V37.4784C6.07422 38.871 7.28078 40 8.7692 40H35.2364C36.7247 40 37.9312 38.871 37.9312 37.4784V4.94572C37.9312 3.55309 36.7247 2.42424 35.2364 2.42424H31.5085C31.1649 2.42424 30.8864 2.68484 30.8864 3.0063C30.8864 3.32776 31.1649 3.58836 31.5085 3.58836H35.2364C36.0376 3.58836 36.6871 4.19607 36.6871 4.94572V37.4784C36.6871 38.2281 36.0376 38.8359 35.2364 38.8359H8.7692Z" fill="#333333"/>
</g>
</svg>
