<svg width="34" height="40" viewBox="0 0 34 40" fill="none" xmlns="http://www.w3.org/2000/svg">
<g clip-path="url(#clip0_268_39097)">
<path d="M27.3816 13.2969C27.7444 13.2969 28.0387 13.0171 28.0387 12.6719V5.875C28.0387 4.84113 27.1544 4 26.0675 4H2.15084C1.06395 4 0.179688 4.84113 0.179688 5.875V34.125C0.179688 35.1589 1.06395 36 2.15084 36H26.0675C27.1544 36 28.0387 35.1589 28.0387 34.125V29.5205C28.0387 29.1753 27.7444 28.8955 27.3816 28.8955C27.0188 28.8955 26.7246 29.1753 26.7246 29.5205V34.125C26.7246 34.4696 26.4298 34.75 26.0675 34.75H2.15084C1.78854 34.75 1.49379 34.4696 1.49379 34.125V5.875C1.49379 5.53038 1.78854 5.25 2.15084 5.25H26.0675C26.4298 5.25 26.7246 5.53038 26.7246 5.875V12.6719C26.7246 13.0171 27.0188 13.2969 27.3816 13.2969Z" fill="#333333"/>
<path d="M14.1074 7.375C10.7742 7.375 8.0625 9.95444 8.0625 13.125C8.0625 14.7698 8.79248 16.2553 9.9602 17.3043C9.98208 17.3266 10.0053 17.3476 10.0308 17.3668C11.1064 18.303 12.5379 18.8749 14.1073 18.8749C15.6767 18.8749 17.1082 18.3029 18.1839 17.3668C18.2093 17.3476 18.2325 17.3265 18.2544 17.3043C19.4223 16.2553 20.1522 14.7698 20.1522 13.125C20.1522 9.95444 17.4405 7.375 14.1074 7.375ZM14.1074 17.625C13.0345 17.625 12.0443 17.283 11.2498 16.7083C11.8273 15.7342 12.9049 15.125 14.1074 15.125C15.3098 15.125 16.3875 15.7342 16.965 16.7083C16.1704 17.283 15.1803 17.625 14.1074 17.625ZM13.0561 12.875V12.4688C13.0561 11.9174 13.5277 11.4688 14.1074 11.4688C14.687 11.4688 15.1587 11.9174 15.1587 12.4688V12.875C15.1587 13.4264 14.687 13.875 14.1074 13.875C13.5277 13.875 13.0561 13.4264 13.0561 12.875ZM17.9143 15.7927C17.4298 15.1091 16.7582 14.5774 15.9785 14.2491C16.2879 13.8687 16.4728 13.3921 16.4728 12.875V12.4688C16.4728 11.2281 15.4117 10.2188 14.1074 10.2188C12.8031 10.2188 11.742 11.2281 11.742 12.4688V12.875C11.742 13.3921 11.9268 13.8687 12.2363 14.2491C11.4566 14.5774 10.785 15.1091 10.3004 15.7927C9.72031 15.0456 9.3766 14.1229 9.3766 13.125C9.3766 10.6437 11.4988 8.625 14.1074 8.625C16.7159 8.625 18.8381 10.6437 18.8381 13.125C18.8381 14.1229 18.4944 15.0456 17.9143 15.7927Z" fill="#333333"/>
<path d="M17.6583 31.375H14.1102C13.7474 31.375 13.4531 31.6548 13.4531 32C13.4531 32.3452 13.7474 32.625 14.1102 32.625H17.6583C18.0211 32.625 18.3153 32.3452 18.3153 32C18.3153 31.6548 18.0211 31.375 17.6583 31.375Z" fill="#333333"/>
<path d="M17.6591 27.875H8.32893C7.9661 27.875 7.67188 28.1548 7.67188 28.5C7.67188 28.8452 7.9661 29.125 8.32893 29.125H17.6591C18.0219 29.125 18.3161 28.8452 18.3161 28.5C18.3161 28.1548 18.0219 27.875 17.6591 27.875Z" fill="#333333"/>
<path d="M17.6591 24.375H8.32893C7.9661 24.375 7.67188 24.6548 7.67188 25C7.67188 25.3452 7.9661 25.625 8.32893 25.625H17.6591C18.0219 25.625 18.3161 25.3452 18.3161 25C18.3161 24.6548 18.0219 24.375 17.6591 24.375Z" fill="#333333"/>
<path d="M5.98155 21.0581C5.85941 20.9419 5.68989 20.875 5.51643 20.875C5.34356 20.875 5.17404 20.9419 5.05189 21.0581C4.92968 21.1744 4.85938 21.3356 4.85938 21.5C4.85938 21.6644 4.92961 21.8256 5.05189 21.9419C5.17476 22.0581 5.34356 22.125 5.51643 22.125C5.68989 22.125 5.85875 22.0581 5.98155 21.9419C6.10376 21.8256 6.17413 21.6644 6.17413 21.5C6.17413 21.3356 6.10383 21.1744 5.98155 21.0581Z" fill="#333333"/>
<path d="M5.98155 24.5581C5.85875 24.4419 5.68989 24.375 5.51643 24.375C5.34356 24.375 5.17476 24.4419 5.05189 24.5581C4.92968 24.6744 4.85938 24.8356 4.85938 25C4.85938 25.1644 4.92961 25.3256 5.05189 25.4419C5.17476 25.5581 5.34356 25.625 5.51643 25.625C5.68989 25.625 5.85875 25.5581 5.98155 25.4419C6.10376 25.3256 6.17413 25.1644 6.17413 25C6.17413 24.8356 6.10383 24.6744 5.98155 24.5581Z" fill="#333333"/>
<path d="M5.98155 28.0581C5.85875 27.9419 5.68989 27.875 5.51643 27.875C5.34356 27.875 5.17476 27.9419 5.05189 28.0581C4.92968 28.1744 4.85938 28.3356 4.85938 28.5C4.85938 28.6644 4.92961 28.8256 5.05189 28.9419C5.17404 29.0581 5.34356 29.125 5.51643 29.125C5.68989 29.125 5.85941 29.0581 5.98155 28.9419C6.10376 28.8256 6.17413 28.6644 6.17413 28.5C6.17413 28.3356 6.10383 28.1744 5.98155 28.0581Z" fill="#333333"/>
<path d="M17.6591 20.875H8.32893C7.9661 20.875 7.67188 21.1548 7.67188 21.5C7.67188 21.8452 7.9661 22.125 8.32893 22.125H17.6591C18.0219 22.125 18.3161 21.8452 18.3161 21.5C18.3161 21.1548 18.0219 20.875 17.6591 20.875Z" fill="#333333"/>
<path d="M32.4426 12.1458C31.8043 11.7952 31.0606 11.7021 30.3485 11.8835C29.6365 12.065 29.0414 12.4994 28.6729 13.1066L20.4044 26.7293C20.3591 26.804 20.3305 26.8868 20.3204 26.9725L19.7384 31.9315C19.7095 32.1782 19.8369 32.4179 20.0629 32.5421C20.1649 32.5981 20.2783 32.6258 20.3913 32.6258C20.5288 32.6258 20.6657 32.5849 20.781 32.5041L25.0048 29.5451C25.0778 29.494 25.1389 29.429 25.1842 29.3543L33.4526 15.7316C34.2135 14.4781 33.7604 12.8695 32.4426 12.1458ZM21.211 30.6504L21.515 28.0609L23.4166 29.1053L21.211 30.6504ZM24.3747 28.188L21.871 26.813L28.5063 15.8811L31.01 17.2561L24.3747 28.188ZM32.3146 15.1066L31.6669 16.1736L29.1632 14.7986L29.8109 13.7316C30.0039 13.4135 30.3156 13.186 30.6886 13.091C31.0617 12.9958 31.4512 13.0447 31.7855 13.2283C32.1198 13.412 32.359 13.7085 32.4589 14.0632C32.5589 14.418 32.5076 14.7885 32.3146 15.1066Z" fill="#333333"/>
</g>
<defs>
<clipPath id="clip0_268_39097">
<rect width="33.641" height="32" fill="white" transform="translate(0.179688 4)"/>
</clipPath>
</defs>
</svg>
