<svg width="38" height="40" viewBox="0 0 38 40" fill="none" xmlns="http://www.w3.org/2000/svg">
<path d="M25.6148 12.4916C25.3246 12.4919 25.0433 12.392 24.8183 12.2088C24.5933 12.0256 24.4386 11.7703 24.3802 11.4861C24.0856 10.0604 24.4 8.85201 25.2654 8.08305C25.2824 8.07082 25.2958 8.05412 25.3039 8.03481C25.3121 8.01549 25.3148 7.99429 25.3117 7.97354L25.0245 7.1562C24.9562 6.96169 24.9366 6.75338 24.9676 6.54954C24.9985 6.34571 25.079 6.15259 25.2021 5.98715C25.3251 5.8217 25.4868 5.68899 25.6731 5.60066C25.8594 5.51233 26.0646 5.47109 26.2705 5.48055L27.0727 5.51683C27.0949 5.51793 27.1166 5.5102 27.1331 5.49535C27.1496 5.48049 27.1595 5.45971 27.1607 5.43755L27.2058 4.56814C27.2227 4.24964 27.3599 3.94945 27.5897 3.7283C27.8602 3.44693 28.0598 3.10509 28.1717 2.73117C28.2836 2.35725 28.3048 1.96203 28.2334 1.5783C28.2008 1.31568 28.2513 1.04945 28.3778 0.817039C28.5044 0.584625 28.7006 0.397714 28.9389 0.282585L29.1932 0.159632C29.3752 0.0704637 29.5761 0.0265586 29.7788 0.0316469C29.9814 0.0367351 30.1798 0.0906663 30.3572 0.188858C30.8448 0.451312 31.2932 0.780701 31.6895 1.16744C31.8607 1.34259 31.9743 1.56589 32.015 1.80741C32.0888 2.12434 32.2305 2.42147 32.4305 2.6782C32.6304 2.93493 32.8838 3.14514 33.173 3.29426C33.913 3.68292 34.7459 3.85973 35.58 3.80523C35.9011 3.79509 36.2139 3.908 36.4545 4.12087C36.6951 4.33375 36.8453 4.6305 36.8744 4.95044L37.0487 6.86998C37.0755 7.16493 36.9975 7.45988 36.8284 7.70304C36.6594 7.9462 36.41 8.12202 36.1242 8.19962C35.465 8.38261 34.7868 8.4888 34.1032 8.51608C34.0924 8.51664 34.0819 8.51966 34.0725 8.5249C34.0631 8.53014 34.055 8.53746 34.0488 8.54631C33.7499 8.95726 33.5104 9.40826 33.3373 9.88603C33.2827 10.0488 33.1962 10.1992 33.0829 10.3282C32.9697 10.4573 32.8318 10.5626 32.6775 10.6379C32.5273 10.7106 32.3639 10.7524 32.1971 10.7606C32.0304 10.7689 31.8637 10.7435 31.707 10.6859C30.9605 10.4226 30.239 10.0929 29.5513 9.70093C29.5402 9.69431 29.5279 9.68995 29.5151 9.68811C29.5023 9.68626 29.4892 9.68697 29.4767 9.69018C29.4696 9.69176 29.463 9.69482 29.4572 9.69916C29.4514 9.70351 29.4466 9.70903 29.4431 9.71537L29.4253 9.75132C29.3063 9.99648 29.111 10.1964 28.8687 10.3211C28.6264 10.4457 28.3502 10.4884 28.0815 10.4427C27.9201 10.4174 27.7607 10.3804 27.6045 10.3322C27.4837 10.3904 27.3836 10.4843 27.3178 10.6012C27.252 10.7181 27.2237 10.8524 27.2367 10.9859C27.2399 11.2027 27.1881 11.4169 27.086 11.6082C26.984 11.7996 26.835 11.9619 26.6531 12.08C26.5346 12.1553 26.3935 12.2413 26.2423 12.328C26.0509 12.4361 25.8346 12.4925 25.6148 12.4916ZM26.2124 6.65498C26.1993 6.65462 26.1863 6.6575 26.1746 6.66336C26.1629 6.66922 26.1528 6.67788 26.1452 6.68858C26.1367 6.69946 26.1312 6.71235 26.1291 6.726C26.127 6.73966 26.1285 6.75361 26.1334 6.76651L26.4203 7.58352C26.5022 7.82429 26.5103 8.08403 26.4435 8.32943C26.3768 8.57483 26.2383 8.7947 26.0458 8.96086C25.3564 9.57361 25.3853 10.5421 25.5308 11.2469C25.5332 11.2603 25.5389 11.2729 25.5474 11.2835C25.5559 11.2942 25.5669 11.3025 25.5795 11.3077C25.5918 11.3135 25.6055 11.3162 25.6191 11.3155C25.6328 11.3148 25.646 11.3108 25.6578 11.3037C25.7921 11.2268 25.9174 11.1502 26.0233 11.083C26.0368 11.0698 26.0472 11.0536 26.0536 11.0358C26.06 11.018 26.0622 10.999 26.0602 10.9802C26.053 10.6758 26.12 10.3742 26.2555 10.1016C26.391 9.82895 26.5909 9.59342 26.8379 9.41538C26.9911 9.29506 27.1707 9.21283 27.3619 9.17545C27.5532 9.13807 27.7505 9.14662 27.9378 9.20038C28.0485 9.23659 28.1621 9.26323 28.2774 9.28C28.2968 9.28228 28.3165 9.27808 28.3333 9.26806C28.3501 9.25804 28.3632 9.24276 28.3704 9.22457L28.393 9.17989C28.4699 9.02852 28.5775 8.89481 28.7089 8.78724C28.8403 8.67967 28.9926 8.6006 29.1562 8.55505C29.3231 8.5085 29.4977 8.49641 29.6694 8.51951C29.8411 8.54261 30.0063 8.60042 30.155 8.68942C30.7783 9.04297 31.432 9.34033 32.1081 9.57798C32.1174 9.58167 32.1274 9.58333 32.1374 9.58287C32.1475 9.58241 32.1573 9.57982 32.1662 9.57529C32.1796 9.56854 32.1914 9.55909 32.201 9.54752C32.2105 9.53595 32.2176 9.52253 32.2216 9.5081C32.431 8.91893 32.7243 8.36306 33.0924 7.85764C33.2044 7.70237 33.3503 7.57475 33.5192 7.48456C33.6881 7.39437 33.8753 7.34399 34.0666 7.33727C34.6575 7.31308 35.2437 7.22087 35.8135 7.06248C35.8332 7.05766 35.8505 7.04598 35.8623 7.02954C35.8741 7.01309 35.8797 6.99296 35.878 6.97278L35.7036 5.05357C35.6996 5.0099 35.6603 4.96623 35.6237 4.97731C34.5609 5.04457 33.5009 4.80904 32.5666 4.29805C32.1331 4.06217 31.7558 3.73513 31.4608 3.33943C31.1658 2.94374 30.96 2.4888 30.8577 2.00594C30.5417 1.69198 30.1819 1.42539 29.7895 1.21448C29.7778 1.20771 29.7647 1.20392 29.7513 1.20345C29.7379 1.20298 29.7246 1.20585 29.7125 1.21179L29.4468 1.34012C29.4305 1.34981 29.4177 1.36425 29.4098 1.38148C29.402 1.39871 29.3997 1.41792 29.4031 1.43653C29.4942 2.00084 29.4514 2.57866 29.2782 3.12339C29.1049 3.66811 28.8061 4.1645 28.4057 4.57251C28.3897 4.58737 28.38 4.60781 28.3785 4.62962L28.3335 5.49835C28.3158 5.83042 28.1676 6.14206 27.9214 6.36551C27.6751 6.58896 27.3505 6.70615 27.0183 6.6916L26.2157 6.65498H26.2124Z" fill="#333333"/>
<path d="M20.6372 34.1278C20.6063 34.1278 20.5751 34.1278 20.5438 34.1245L19.7386 34.0623C19.5286 34.0469 19.3261 33.9777 19.1507 33.8613C18.9752 33.7449 18.8327 33.5853 18.7368 33.3978L18.3001 32.554C18.2178 32.3946 18.1713 32.2193 18.1638 32.0401C18.1563 31.8609 18.188 31.6822 18.2568 31.5166L18.6414 30.5881C18.6464 30.5746 18.6464 30.5598 18.6414 30.5464L18.4224 29.9525C18.4176 29.9413 18.4096 29.9318 18.3995 29.9251C18.3893 29.9184 18.3774 29.9148 18.3653 29.9148L17.8594 29.9458C17.698 29.9553 17.5364 29.9325 17.384 29.8786C16.7035 29.6496 15.9713 29.6224 15.2757 29.8003C15.2635 29.804 15.2532 29.8122 15.2468 29.8231L14.9078 30.3254C14.8048 30.4772 14.669 30.6041 14.5104 30.6965C14.3519 30.7889 14.1746 30.8446 13.9917 30.8595L12.4736 30.9872C12.3048 31.0011 12.1349 30.9802 11.9745 30.9258C11.8141 30.8714 11.6666 30.7847 11.541 30.671L10.9256 30.1114C10.9188 30.1054 10.9107 30.101 10.902 30.0987C10.8933 30.0963 10.8841 30.0959 10.8752 30.0976L9.54558 30.3603C9.3392 30.401 9.12583 30.3883 8.92576 30.3233C8.72569 30.2583 8.54556 30.1433 8.40249 29.989C8.25942 29.8348 8.15816 29.6466 8.10834 29.4422C8.05852 29.2378 8.06179 29.0241 8.11784 28.8214L8.26599 28.2855C8.3514 27.9749 8.55556 27.7103 8.8344 27.5488L12.0651 25.6676C12.202 25.588 12.3529 25.5353 12.5096 25.5124C13.9329 25.3058 15.1611 25.1764 15.9408 25.1052C16.1081 25.0899 16.2767 25.1089 16.4363 25.1611C16.596 25.2134 16.7432 25.2977 16.8691 25.4089C16.9949 25.5201 17.0967 25.6559 17.1682 25.8079C17.2396 25.9599 17.2792 26.1249 17.2846 26.2928C17.285 26.3019 17.2876 26.3109 17.2921 26.3189C17.2966 26.3268 17.303 26.3336 17.3107 26.3387C17.3183 26.3437 17.3271 26.3469 17.3362 26.3479C17.3454 26.3489 17.3546 26.3477 17.3632 26.3445L18.4768 25.9007C18.4886 25.8955 18.4984 25.8865 18.5044 25.8751C18.5105 25.8637 18.5126 25.8506 18.5104 25.8379L18.289 24.4646C18.2619 24.2956 18.2701 24.1228 18.3131 23.9572C18.3561 23.7915 18.433 23.6366 18.539 23.5021L19.0093 22.9072C19.1541 22.7253 19.3472 22.5879 19.5665 22.5107C19.7858 22.4335 20.0224 22.4195 20.2492 22.4705L21.2839 22.7056C21.2934 22.7077 21.3032 22.7075 21.3125 22.7048C21.3218 22.7022 21.3304 22.6973 21.3373 22.6905L23.142 20.9436C23.7961 19.7603 24.6053 18.6698 25.5483 17.7008C25.554 17.6949 25.5582 17.6877 25.5607 17.6798C25.5632 17.672 25.5639 17.6636 25.5627 17.6555L25.4495 16.7219C25.4278 16.5444 25.445 16.3643 25.4999 16.1941C25.5548 16.0239 25.646 15.8677 25.7673 15.7363L26.4909 14.9522C26.4994 14.9429 26.5047 14.9311 26.5061 14.9186L26.6139 13.7327C26.6386 13.4644 26.7502 13.2114 26.9317 13.0122L27.7064 12.1639C27.8935 11.9581 28.1449 11.8218 28.4195 11.7774C28.6941 11.7331 28.9757 11.7832 29.2181 11.9197L29.6548 12.1636C29.8984 12.3003 30.0886 12.5154 30.1943 12.774L31.2431 15.3335C31.3418 15.5737 31.3618 15.839 31.3002 16.0914L30.5894 19.0278C30.5232 19.3004 30.3662 19.5423 30.1443 19.7138L29.1364 20.4921C29.1273 20.499 29.1204 20.5085 29.1167 20.5194C29.113 20.5302 29.1126 20.5419 29.1156 20.5529L29.3881 21.5581C29.4167 21.6632 29.4316 21.7716 29.4324 21.8806C29.4008 23.363 29.1265 24.8302 28.6204 26.2239L28.646 27.4309C28.65 27.6419 28.6001 27.8505 28.5011 28.0368C28.402 28.2231 28.2571 28.3811 28.0799 28.4958L26.0878 29.7801C25.817 29.9556 25.488 30.0174 25.172 29.9521L23.2894 29.5655C23.2788 29.5635 23.2678 29.5644 23.2577 29.5682C23.2476 29.572 23.2387 29.5785 23.232 29.587L22.7546 30.2152C22.7493 30.2222 22.7457 30.2303 22.744 30.2389C22.7423 30.2475 22.7426 30.2564 22.7449 30.2649C22.7472 30.2734 22.7514 30.2813 22.7571 30.2879C22.7629 30.2945 22.7701 30.2998 22.7782 30.3032L22.9525 30.3774C23.1578 30.4647 23.3356 30.606 23.4668 30.7864C23.5981 30.9668 23.6778 31.1795 23.6976 31.4017L23.7423 31.8952C23.7704 32.1923 23.6893 32.4894 23.5141 32.7309C23.3389 32.9725 23.0817 33.1418 22.7906 33.2074C22.2863 33.3182 21.8133 33.5408 21.4065 33.8588C21.1878 34.0328 20.9167 34.1276 20.6372 34.1278ZM18.374 28.7391C18.6261 28.7383 18.8723 28.8153 19.0791 28.9596C19.2858 29.1039 19.4431 29.3084 19.5293 29.5453L19.7477 30.1389C19.8555 30.43 19.8491 30.751 19.7299 31.0375L19.3452 31.9657C19.342 31.9735 19.3406 31.9819 19.341 31.9904C19.3414 31.9988 19.3436 32.007 19.3476 32.0145L19.7843 32.8583C19.7888 32.8671 19.7955 32.8745 19.8038 32.88C19.812 32.8855 19.8215 32.8888 19.8313 32.8896L20.6352 32.9514C20.6508 32.9511 20.6659 32.9458 20.6782 32.9363C21.2261 32.5075 21.8633 32.2072 22.5427 32.0575C22.5532 32.0524 22.5619 32.0441 22.5674 32.0338C22.5728 32.0234 22.5748 32.0116 22.5729 32L22.5269 31.5072C22.5261 31.4969 22.5226 31.4871 22.5167 31.4787C22.5108 31.4703 22.5027 31.4636 22.4933 31.4595L22.3186 31.3849C22.1459 31.3114 21.9923 31.1994 21.8694 31.0575C21.7465 30.9156 21.6577 30.7476 21.6096 30.5662C21.5615 30.3847 21.5554 30.1947 21.5918 30.0106C21.6282 29.8265 21.7062 29.6531 21.8197 29.5037L22.2971 28.8755C22.4383 28.6909 22.6285 28.5498 22.846 28.4681C23.0635 28.3863 23.2995 28.3673 23.5273 28.4132L25.4106 28.7999C25.4253 28.8026 25.4405 28.7997 25.4532 28.7918L27.444 27.5075C27.4523 27.5023 27.4591 27.495 27.4638 27.4863C27.4684 27.4777 27.4708 27.468 27.4705 27.4581L27.4426 26.2682C27.4389 26.1164 27.4635 25.9653 27.5152 25.8225C27.9708 24.5586 28.2211 23.2299 28.2566 21.8869L27.9808 20.86C27.9165 20.6246 27.9237 20.3753 28.0015 20.144C28.0792 19.9126 28.2241 19.7097 28.4175 19.5609L29.4254 18.7825C29.4357 18.7747 29.443 18.7636 29.4462 18.751L30.1577 15.8129C30.1606 15.801 30.1595 15.7885 30.1547 15.7773L29.1062 13.2177C29.1012 13.2055 29.0922 13.1953 29.0807 13.1889L28.644 12.945C28.6326 12.9387 28.6194 12.9363 28.6065 12.9384C28.5937 12.9405 28.5819 12.9468 28.5731 12.9564L27.7987 13.8053C27.7904 13.8146 27.7852 13.8264 27.784 13.8389L27.6761 15.0248C27.6512 15.2948 27.5383 15.5492 27.355 15.749L26.6314 16.5334C26.6256 16.5396 26.6213 16.547 26.6188 16.555C26.6162 16.563 26.6155 16.5715 26.6166 16.5798L26.7298 17.5083C26.7529 17.6914 26.7343 17.8774 26.6755 18.0523C26.6167 18.2272 26.5191 18.3865 26.3902 18.5185C25.5265 19.4046 24.7853 20.4022 24.1861 21.4848C24.1272 21.5956 24.0514 21.6965 23.9613 21.7838L22.1563 23.5327C22.0091 23.6756 21.8286 23.7794 21.631 23.8348C21.4335 23.8901 21.2252 23.8952 21.0252 23.8495L19.9905 23.6143C19.9799 23.6117 19.9688 23.6122 19.9585 23.6157C19.9482 23.6193 19.9391 23.6258 19.9324 23.6345L19.4621 24.2294C19.4571 24.2357 19.4535 24.2429 19.4514 24.2507C19.4494 24.2585 19.449 24.2665 19.4504 24.2745L19.6714 25.6501C19.7181 25.9274 19.6679 26.2122 19.5294 26.4569C19.391 26.7016 19.1725 26.8912 18.9108 26.9939L17.7972 27.4376C17.6134 27.5105 17.4148 27.538 17.2181 27.518C17.0214 27.498 16.8325 27.431 16.6671 27.3226C16.5017 27.2143 16.3649 27.0678 16.268 26.8954C16.1711 26.7231 16.1171 26.53 16.1105 26.3324C16.1104 26.3244 16.1086 26.3165 16.1053 26.3092C16.1019 26.3019 16.097 26.2954 16.091 26.2901C16.0854 26.2851 16.0788 26.2814 16.0717 26.2791C16.0646 26.2768 16.0571 26.2759 16.0497 26.2766C15.2837 26.3472 14.0777 26.4735 12.6799 26.6767L9.42531 28.565C9.41249 28.5724 9.40299 28.5845 9.39877 28.5986L9.25096 29.1341C9.24825 29.1437 9.24806 29.1537 9.25038 29.1633C9.25271 29.173 9.25749 29.1818 9.26425 29.189C9.27101 29.1963 9.27952 29.2016 9.28897 29.2046C9.29841 29.2076 9.30846 29.2081 9.31815 29.206L10.6481 28.943C10.837 28.9062 11.0319 28.914 11.2173 28.9656C11.4028 29.0172 11.5736 29.1112 11.7164 29.2403L12.3322 29.8C12.344 29.8103 12.3595 29.8156 12.3752 29.8147L13.8939 29.6871C13.9025 29.6864 13.9108 29.6837 13.9182 29.6793C13.9255 29.675 13.9319 29.669 13.9366 29.6619L14.2793 29.158C14.445 28.9151 14.6923 28.7398 14.9763 28.6638C15.897 28.4228 16.8681 28.4579 17.769 28.7646L18.2974 28.7394C18.323 28.7397 18.3485 28.7391 18.374 28.7391Z" fill="#333333"/>
<path d="M2.59391 39.9684C2.51546 39.9685 2.43778 39.9528 2.36548 39.9224C2.29318 39.8919 2.22773 39.8472 2.17298 39.791L1.47457 39.0751C1.33226 38.9291 1.24217 38.7402 1.2183 38.5377C1.19442 38.3353 1.2381 38.1306 1.34254 37.9555L2.90163 35.3415C3.01801 35.1466 3.18508 34.9868 3.38504 34.8793L3.91247 34.5951L3.87585 34.0012L3.3229 34.2682C3.10193 34.3747 2.84771 34.3891 2.61614 34.3082C2.38457 34.2273 2.19459 34.0578 2.08799 33.8369L1.03785 31.658C0.97508 31.5277 0.943774 31.3844 0.946447 31.2398C0.94912 31.0951 0.985698 30.9531 1.05324 30.8252C1.12078 30.6973 1.2174 30.587 1.33533 30.5032C1.45326 30.4194 1.5892 30.3645 1.73223 30.3428L2.6349 30.2054C2.82491 30.1769 3.01893 30.1921 3.20215 30.25C3.38536 30.3079 3.55294 30.4068 3.69209 30.5393L3.96958 30.805C3.98046 30.815 3.99378 30.822 4.00821 30.8252L5.71511 31.186H5.744L6.89895 31.0066C6.98409 30.993 7.07119 30.9984 7.15398 31.0225C7.23676 31.0466 7.31316 31.0888 7.37766 31.146L7.91516 31.6194C8.12299 31.8029 8.26466 32.0497 8.31829 32.3218L8.39555 32.7179L9.3093 32.5959C9.43005 32.5799 9.55289 32.5933 9.66736 32.6349C9.78184 32.6765 9.88457 32.7452 9.96683 32.835C10.0491 32.9248 10.1084 33.0332 10.1398 33.1509C10.1712 33.2686 10.1737 33.3921 10.1471 33.511L9.92071 34.5212C9.91749 34.5355 9.9183 34.5505 9.92304 34.5644C9.92778 34.5784 9.93627 34.5907 9.94758 34.6001L10.4579 35.0227C10.5468 35.0965 10.6177 35.1897 10.665 35.2951C10.7124 35.4006 10.7349 35.5154 10.731 35.6309C10.727 35.7464 10.6966 35.8595 10.6422 35.9614C10.5878 36.0634 10.5107 36.1515 10.4169 36.219L9.21154 37.0867C9.16682 37.1187 9.12014 37.1479 9.07179 37.1741L7.91348 37.7962C7.89964 37.8037 7.88829 37.8151 7.88083 37.8289C7.87337 37.8428 7.87012 37.8585 7.87149 37.8742L7.96925 38.9609C7.98082 39.0888 7.96562 39.2178 7.9246 39.3395C7.88358 39.4612 7.81766 39.573 7.73103 39.6678C7.64439 39.7627 7.53895 39.8384 7.42143 39.8902C7.30391 39.942 7.17688 39.9688 7.04844 39.9687H6.52136C6.25134 39.97 5.9882 39.8836 5.77142 39.7226C5.55465 39.5616 5.39591 39.3347 5.31904 39.0758L5.01501 38.068L2.97755 39.8246C2.87113 39.9171 2.73492 39.9682 2.59391 39.9684ZM5.14267 36.7014C5.34132 36.7014 5.53471 36.7653 5.69428 36.8836C5.85386 37.0019 5.97116 37.1684 6.02887 37.3585L6.44476 38.7359C6.44978 38.7523 6.45991 38.7667 6.47369 38.777C6.48747 38.7872 6.50417 38.7929 6.52136 38.793H6.77129L6.69806 37.98C6.67587 37.7346 6.72641 37.488 6.84338 37.2711C6.96035 37.0542 7.13857 36.8765 7.35583 36.7602L8.51582 36.1391L9.28847 35.5824L9.19676 35.5068C9.01771 35.3594 8.8832 35.165 8.80827 34.9455C8.73335 34.726 8.72095 34.49 8.77247 34.2639L8.86721 33.8412L8.0015 33.9568C7.85299 33.9765 7.70256 33.9388 7.58089 33.8514C7.45922 33.764 7.37548 33.6335 7.34676 33.4865L7.16333 32.5459C7.16005 32.5284 7.15107 32.5126 7.1378 32.5009L6.80623 32.2093L5.92339 32.3463C5.77288 32.3702 5.61928 32.3662 5.47021 32.3346L3.76432 31.9754C3.53579 31.9272 3.32523 31.8162 3.15627 31.655L2.87845 31.3889C2.8697 31.3803 2.85906 31.374 2.84738 31.3703C2.83571 31.3666 2.82334 31.3657 2.81126 31.3677L2.24521 31.4537L3.03836 33.0998L3.70183 32.7793C3.83846 32.7135 3.98917 32.6823 4.14071 32.6884C4.29224 32.6945 4.43995 32.7378 4.57083 32.8144C4.70171 32.891 4.81175 32.9987 4.89125 33.1278C4.97076 33.257 5.0173 33.4037 5.02677 33.555L5.09597 34.6831C5.10647 34.8592 5.06653 35.0347 4.98085 35.1889C4.89517 35.3431 4.7673 35.4697 4.61222 35.5539L3.9427 35.9146C3.9299 35.9214 3.9192 35.9315 3.91179 35.9439L2.45147 38.3925L2.62885 38.5743L4.54033 36.9262C4.70762 36.7814 4.92142 36.7016 5.14267 36.7014Z" fill="#333333"/>
<path d="M13.9175 37.1775C13.8736 37.1775 13.8297 37.1751 13.7861 37.1704L12.9359 37.078C12.736 37.0567 12.5445 36.9859 12.3789 36.872C12.2133 36.7581 12.0786 36.6047 11.9872 36.4256L11.9109 36.2768C11.8168 36.0916 11.7714 35.8853 11.7792 35.6776C11.7869 35.47 11.8475 35.2677 11.9553 35.09L12.7904 33.7244C12.9226 33.5079 13.1194 33.3384 13.3531 33.2396C13.5867 33.1408 13.8454 33.1178 14.0928 33.1738L14.7462 33.3216C14.7521 33.323 14.7583 33.3229 14.7641 33.3214C14.77 33.3199 14.7754 33.3169 14.7798 33.3128L15.5115 32.6625C15.6352 32.5524 15.7802 32.4688 15.9374 32.4168C16.0946 32.3648 16.2609 32.3456 16.4258 32.3602C16.5908 32.3749 16.751 32.4232 16.8966 32.5021C17.0422 32.581 17.1701 32.6888 17.2725 32.819L17.7818 33.4681C17.9317 33.6581 18.0212 33.8888 18.0385 34.1303C18.0559 34.3718 18.0004 34.613 17.8792 34.8226L17.34 35.7591C17.2064 35.9907 17.0001 36.1718 16.7532 36.2742C16.5062 36.3767 16.2324 36.3948 15.9741 36.3259L15.4839 36.1945C15.4781 36.193 15.4719 36.1929 15.466 36.1945C15.4601 36.196 15.4547 36.199 15.4504 36.2033L14.7419 36.8563C14.5173 37.0634 14.2229 37.1781 13.9175 37.1775ZM13.8258 34.3197C13.819 34.3194 13.8123 34.3209 13.8064 34.3242C13.8005 34.3275 13.7955 34.3323 13.7922 34.3381L12.9574 35.7034C12.9542 35.709 12.9525 35.7154 12.9525 35.7219C12.9525 35.7283 12.9542 35.7347 12.9574 35.7403L13.0333 35.8892C13.0362 35.8946 13.0404 35.8992 13.0455 35.9026C13.0506 35.9061 13.0564 35.9083 13.0625 35.909L13.9134 36.0017L14.6525 35.3389C14.8025 35.1994 14.9857 35.1004 15.1846 35.0514C15.3835 35.0025 15.5917 35.0051 15.7893 35.0591L16.2791 35.1904C16.2872 35.1927 16.2958 35.1922 16.3036 35.189C16.3113 35.1858 16.3178 35.18 16.3218 35.1726L16.8593 34.236C16.863 34.2295 16.8647 34.222 16.8642 34.2145C16.8637 34.2071 16.8609 34.1999 16.8563 34.194L16.347 33.5453L16.2922 33.5406L15.5612 34.191C15.4168 34.3191 15.2441 34.4111 15.0572 34.4594C14.8703 34.5076 14.6746 34.5107 14.4862 34.4685L13.8332 34.3207C13.8307 34.3201 13.8283 34.3197 13.8258 34.3197Z" fill="#333333"/>
</svg>
