<svg width="79" height="59" viewBox="0 0 79 59" fill="none" xmlns="http://www.w3.org/2000/svg">
<path d="M52.3238 12.9542L50.5449 12.6582C50.318 12.6207 50.1023 12.533 49.9136 12.4015C49.7249 12.27 49.568 12.098 49.4542 11.8982L46.9974 7.59947C46.59 6.88828 46.0023 6.29713 45.2934 5.88566C44.5846 5.47418 43.7798 5.25694 42.9602 5.25586H34.3246C33.505 5.25689 32.7002 5.47405 31.9914 5.88543C31.2826 6.29681 30.6948 6.88786 30.2873 7.59895L27.7815 11.9839C27.6773 12.1653 27.5376 12.3238 27.3708 12.45C27.204 12.5762 27.0135 12.6676 26.8107 12.7186L25.0984 13.1464C24.6721 13.2531 24.2802 13.4672 23.96 13.7681C23.6397 14.0691 23.4018 14.447 23.2689 14.8659C23.2632 14.8793 23.2627 14.8953 23.2581 14.9093C23.1833 15.1501 23.1443 15.4006 23.1423 15.6528V19.2059C23.1432 19.8908 23.4156 20.5474 23.8999 21.0317C24.3842 21.516 25.0408 21.7884 25.7257 21.7893H27.6296C27.9218 22.4074 28.3836 22.9299 28.9613 23.2957C29.5389 23.6616 30.2086 23.8559 30.8924 23.8559C31.5761 23.8559 32.2458 23.6616 32.8235 23.2957C33.4011 22.9299 33.8629 22.4074 34.1551 21.7893H45.1963C45.4885 22.4074 45.9504 22.9299 46.528 23.2957C47.1056 23.6616 47.7753 23.8559 48.4591 23.8559C49.1429 23.8559 49.8125 23.6616 50.3902 23.2957C50.9678 22.9299 51.4296 22.4074 51.7219 21.7893H53.6258C54.3107 21.7884 54.9673 21.516 55.4516 21.0317C55.9359 20.5474 56.2083 19.8908 56.2091 19.2059V17.5407C56.2119 16.4393 55.8224 15.3729 55.1105 14.5325C54.3985 13.6921 53.4107 13.1326 52.3238 12.9542ZM54.6043 15.5892C54.8087 15.9078 54.9616 16.2565 55.0575 16.6226H54.6591C54.2492 16.6225 53.856 16.4606 53.5648 16.172C53.4012 16.0071 53.2759 15.8081 53.198 15.5892H54.6043ZM24.1808 15.5892H25.0638L24.8055 16.6226H24.1757V15.6528C24.1757 15.6311 24.1803 15.6104 24.1808 15.5892ZM30.8924 22.8226C30.3814 22.8226 29.882 22.6711 29.4571 22.3872C29.0323 22.1034 28.7012 21.6999 28.5057 21.2278C28.3101 20.7558 28.259 20.2364 28.3587 19.7353C28.4583 19.2341 28.7044 18.7738 29.0657 18.4125C29.4269 18.0513 29.8873 17.8052 30.3884 17.7055C30.8895 17.6059 31.4089 17.657 31.881 17.8526C32.353 18.0481 32.7565 18.3792 33.0403 18.804C33.3242 19.2288 33.4757 19.7283 33.4757 20.2392C33.4749 20.9241 33.2024 21.5807 32.7182 22.065C32.2339 22.5493 31.5773 22.8218 30.8924 22.8226ZM48.4591 22.8226C47.9482 22.8226 47.4487 22.6711 47.0239 22.3872C46.599 22.1034 46.2679 21.6999 46.0724 21.2278C45.8769 20.7558 45.8257 20.2364 45.9254 19.7353C46.0251 19.2341 46.2711 18.7738 46.6324 18.4125C46.9937 18.0513 47.454 17.8052 47.9551 17.7055C48.4562 17.6059 48.9756 17.657 49.4477 17.8526C49.9197 18.0481 50.3232 18.3792 50.6071 18.804C50.8909 19.2288 51.0424 19.7283 51.0424 20.2392C51.0416 20.9241 50.7692 21.5807 50.2849 22.065C49.8006 22.5493 49.144 22.8218 48.4591 22.8226ZM53.6258 20.7559H52.0344C52.113 20.2408 52.0793 19.7148 51.9357 19.214C51.7921 18.7131 51.542 18.2492 51.2025 17.8539C50.8629 17.4587 50.442 17.1415 49.9685 16.9241C49.495 16.7066 48.9801 16.594 48.4591 16.594C47.938 16.594 47.4232 16.7066 46.9497 16.9241C46.4762 17.1415 46.0552 17.4587 45.7157 17.8539C45.3762 18.2492 45.1261 18.7131 44.9825 19.214C44.8389 19.7148 44.8052 20.2408 44.8837 20.7559H34.4677C34.5463 20.2408 34.5126 19.7148 34.369 19.214C34.2254 18.7131 33.9753 18.2492 33.6357 17.8539C33.2962 17.4587 32.8753 17.1415 32.4018 16.9241C31.9283 16.7066 31.4134 16.594 30.8924 16.594C30.3713 16.594 29.8564 16.7066 29.3829 16.9241C28.9094 17.1415 28.4885 17.4587 28.149 17.8539C27.8095 18.2492 27.5593 18.7131 27.4157 19.214C27.2721 19.7148 27.2385 20.2408 27.317 20.7559H25.7257C25.3146 20.7559 24.9203 20.5926 24.6297 20.3019C24.339 20.0112 24.1757 19.617 24.1757 19.2059V17.6559H25.209C25.3242 17.6559 25.4361 17.6174 25.5269 17.5465C25.6177 17.4757 25.6822 17.3765 25.7102 17.2648L26.2268 15.1981C26.2459 15.1219 26.2474 15.0424 26.2311 14.9656C26.2149 14.8887 26.1813 14.8166 26.133 14.7547C26.0847 14.6928 26.0229 14.6427 25.9523 14.6083C25.8817 14.5738 25.8042 14.5559 25.7257 14.5559H24.635C24.832 14.3582 25.0789 14.2176 25.3495 14.1493L27.0623 13.721C27.4 13.6357 27.7172 13.4833 27.9948 13.273C28.2725 13.0626 28.505 12.7985 28.6784 12.4965L31.1843 8.11149C31.5013 7.55845 31.9585 7.09878 32.5098 6.77884C33.0612 6.4589 33.6871 6.29001 34.3246 6.2892H42.9602C43.5976 6.29001 44.2236 6.4589 44.7749 6.77884C45.3263 7.09878 45.7835 7.55845 46.1005 8.11149L48.5567 12.4102C48.7462 12.7436 49.0078 13.0304 49.3224 13.2497C49.6369 13.4689 49.9966 13.6151 50.3749 13.6776L52.1538 13.9741C52.674 14.0602 53.1691 14.2587 53.6046 14.5559H52.5924C52.4554 14.5559 52.324 14.6103 52.2271 14.7072C52.1302 14.8041 52.0758 14.9355 52.0758 15.0726C52.0754 15.4119 52.142 15.748 52.2717 16.0616C52.4014 16.3751 52.5917 16.6601 52.8317 16.9C53.0716 17.14 53.3565 17.3302 53.6701 17.46C53.9837 17.5897 54.3198 17.6562 54.6591 17.6559H55.1758V19.2059C55.1758 19.617 55.0125 20.0112 54.7218 20.3019C54.4311 20.5926 54.0369 20.7559 53.6258 20.7559Z" fill="#333333"/>
<path d="M46.6293 10.1572C46.5587 10.0397 46.4444 9.95508 46.3114 9.92189C46.1784 9.8887 46.0377 9.90971 45.9202 9.98028C45.8027 10.0508 45.718 10.1652 45.6848 10.2982C45.6516 10.4312 45.6726 10.5719 45.7432 10.6894L46.5136 11.9733H40.1926V7.83998H43.1557C43.4233 7.84071 43.6862 7.91036 43.919 8.04221C44.1519 8.17406 44.3468 8.36367 44.4851 8.59276L44.8127 9.1394C44.8833 9.2569 44.9976 9.34156 45.1306 9.37474C45.2636 9.40793 45.4043 9.38693 45.5218 9.31636C45.6393 9.24579 45.724 9.13143 45.7572 8.99844C45.7903 8.86546 45.7693 8.72473 45.6988 8.60723L45.3707 8.0606C45.1403 7.67894 44.8155 7.36307 44.4275 7.14343C44.0395 6.9238 43.6015 6.80781 43.1557 6.80664H39.676C39.5389 6.80664 39.4075 6.86107 39.3106 6.95797C39.2137 7.05486 39.1593 7.18628 39.1593 7.32331V12.49C39.1593 12.627 39.2137 12.7584 39.3106 12.8553C39.4075 12.9522 39.5389 13.0067 39.676 13.0067H47.426C47.5174 13.0066 47.6073 12.9824 47.6862 12.9363C47.7652 12.8902 47.8306 12.824 47.8756 12.7444C47.9206 12.6648 47.9437 12.5747 47.9425 12.4832C47.9413 12.3918 47.9159 12.3023 47.8688 12.2239L46.6293 10.1572Z" fill="#333333"/>
<path d="M37.6089 6.80664H34.1291C33.6833 6.80781 33.2453 6.9238 32.8574 7.14343C32.4694 7.36307 32.1446 7.67894 31.9142 8.0606L29.4161 12.2239C29.369 12.3023 29.3435 12.3918 29.3423 12.4832C29.3411 12.5747 29.3642 12.6648 29.4093 12.7444C29.4543 12.824 29.5196 12.8902 29.5986 12.9363C29.6776 12.9824 29.7674 13.0066 29.8589 13.0067H37.6089C37.7459 13.0067 37.8773 12.9522 37.9742 12.8553C38.0711 12.7584 38.1256 12.627 38.1256 12.49V7.32331C38.1256 7.18628 38.0711 7.05486 37.9742 6.95797C37.8773 6.86107 37.7459 6.80664 37.6089 6.80664ZM37.0922 11.9733H30.7713L32.7997 8.59276C32.938 8.36367 33.133 8.17406 33.3658 8.04221C33.5987 7.91036 33.8615 7.84071 34.1291 7.83998H37.0922V11.9733Z" fill="#333333"/>
<path d="M40.7093 13.5215H39.676C39.5389 13.5215 39.4075 13.5759 39.3106 13.6728C39.2137 13.7697 39.1593 13.9011 39.1593 14.0382C39.1593 14.1752 39.2137 14.3066 39.3106 14.4035C39.4075 14.5004 39.5389 14.5548 39.676 14.5548H40.7093C40.8463 14.5548 40.9778 14.5004 41.0746 14.4035C41.1715 14.3066 41.226 14.1752 41.226 14.0382C41.226 13.9011 41.1715 13.7697 41.0746 13.6728C40.9778 13.5759 40.8463 13.5215 40.7093 13.5215Z" fill="#333333"/>
<path d="M30.8923 13.5215H29.859C29.7219 13.5215 29.5905 13.5759 29.4936 13.6728C29.3967 13.7697 29.3423 13.9011 29.3423 14.0382C29.3423 14.1752 29.3967 14.3066 29.4936 14.4035C29.5905 14.5004 29.7219 14.5548 29.859 14.5548H30.8923C31.0293 14.5548 31.1607 14.5004 31.2576 14.4035C31.3545 14.3066 31.409 14.1752 31.409 14.0382C31.409 13.9011 31.3545 13.7697 31.2576 13.6728C31.1607 13.5759 31.0293 13.5215 30.8923 13.5215Z" fill="#333333"/>
<path d="M48.4593 18.6895C48.1527 18.6895 47.8531 18.7804 47.5982 18.9507C47.3433 19.121 47.1446 19.3631 47.0273 19.6463C46.91 19.9295 46.8793 20.2412 46.9391 20.5418C46.9989 20.8425 47.1465 21.1187 47.3633 21.3355C47.5801 21.5522 47.8562 21.6999 48.1569 21.7597C48.4576 21.8195 48.7692 21.7888 49.0525 21.6715C49.3357 21.5542 49.5778 21.3555 49.7481 21.1006C49.9184 20.8457 50.0093 20.546 50.0093 20.2395C50.0093 19.8284 49.846 19.4341 49.5553 19.1434C49.2646 18.8528 48.8704 18.6895 48.4593 18.6895ZM48.4593 20.7561C48.3571 20.7561 48.2572 20.7258 48.1723 20.6691C48.0873 20.6123 48.0211 20.5316 47.982 20.4372C47.9429 20.3428 47.9326 20.2389 47.9526 20.1387C47.9725 20.0384 48.0217 19.9464 48.094 19.8741C48.1662 19.8019 48.2583 19.7527 48.3585 19.7327C48.4587 19.7128 48.5626 19.723 48.657 19.7621C48.7514 19.8012 48.8321 19.8674 48.8889 19.9524C48.9457 20.0374 48.976 20.1373 48.976 20.2395C48.976 20.3765 48.9215 20.5079 48.8246 20.6048C48.7278 20.7017 48.5963 20.7561 48.4593 20.7561Z" fill="#333333"/>
<path d="M30.8923 18.6895C30.5857 18.6895 30.2861 18.7804 30.0312 18.9507C29.7763 19.121 29.5776 19.3631 29.4603 19.6463C29.343 19.9295 29.3123 20.2412 29.3721 20.5418C29.4319 20.8425 29.5795 21.1187 29.7963 21.3355C30.013 21.5522 30.2892 21.6999 30.5899 21.7597C30.8906 21.8195 31.2022 21.7888 31.4855 21.6715C31.7687 21.5542 32.0108 21.3555 32.1811 21.1006C32.3514 20.8457 32.4423 20.546 32.4423 20.2395C32.4423 19.8284 32.279 19.4341 31.9883 19.1434C31.6976 18.8528 31.3034 18.6895 30.8923 18.6895ZM30.8923 20.7561C30.7901 20.7561 30.6902 20.7258 30.6052 20.6691C30.5203 20.6123 30.4541 20.5316 30.415 20.4372C30.3758 20.3428 30.3656 20.2389 30.3856 20.1387C30.4055 20.0384 30.4547 19.9464 30.527 19.8741C30.5992 19.8019 30.6913 19.7527 30.7915 19.7327C30.8917 19.7128 30.9956 19.723 31.09 19.7621C31.1844 19.8012 31.2651 19.8674 31.3219 19.9524C31.3787 20.0374 31.409 20.1373 31.409 20.2395C31.409 20.3765 31.3545 20.5079 31.2576 20.6048C31.1607 20.7017 31.0293 20.7561 30.8923 20.7561Z" fill="#333333"/>
</svg>
