<svg width="50" height="40" viewBox="0 0 50 40" fill="none" xmlns="http://www.w3.org/2000/svg">
<path d="M44.0404 17.5889L41.3625 17.1433C41.0209 17.0868 40.6962 16.9548 40.4122 16.7568C40.1281 16.5589 39.8918 16.3 39.7206 15.9991L36.0222 9.52801C35.409 8.45741 34.5241 7.5675 33.4571 6.94808C32.39 6.32866 31.1785 6.00163 29.9447 6H16.9448C15.7111 6.00155 14.4996 6.32846 13.4325 6.94775C12.3655 7.56703 11.4806 8.45678 10.8673 9.52723L7.09502 16.1283C6.93812 16.4013 6.72786 16.6399 6.47678 16.8299C6.2257 17.0199 5.93893 17.1574 5.63357 17.2343L3.05601 17.8783C2.41424 18.0389 1.82425 18.3611 1.34218 18.8142C0.86011 19.2673 0.501986 19.8361 0.301884 20.4667C0.293329 20.4869 0.292551 20.5111 0.285551 20.5321C0.172945 20.8946 0.114244 21.2717 0.111328 21.6513L0.111328 27.0001C0.112563 28.0311 0.522682 29.0195 1.25173 29.7486C1.98077 30.4776 2.96921 30.8877 4.00023 30.889H6.86635C7.30625 31.8196 8.00145 32.606 8.87102 33.1568C9.74058 33.7076 10.7487 34 11.778 34C12.8074 34 13.8155 33.7076 14.6851 33.1568C15.5546 32.606 16.2498 31.8196 16.6897 30.889H33.3109C33.7508 31.8196 34.446 32.606 35.3156 33.1568C36.1851 33.7076 37.1933 34 38.2226 34C39.2519 34 40.26 33.7076 41.1296 33.1568C41.9992 32.606 42.6944 31.8196 43.1343 30.889H46.0004C47.0314 30.8877 48.0198 30.4776 48.7489 29.7486C49.4779 29.0195 49.8881 28.0311 49.8893 27.0001V24.4933C49.8934 22.8352 49.3071 21.2299 48.2354 19.9648C47.1637 18.6996 45.6765 17.8574 44.0404 17.5889ZM47.4735 21.5556C47.7811 22.0351 48.0113 22.5601 48.1556 23.1112H47.5559C46.9389 23.111 46.3469 22.8673 45.9086 22.4329C45.6622 22.1847 45.4737 21.8851 45.3564 21.5556H47.4735ZM1.67467 21.5556H3.00389L2.615 23.1112H1.66689V21.6513C1.66689 21.6186 1.67389 21.5875 1.67467 21.5556ZM11.778 32.4445C11.0089 32.4445 10.257 32.2165 9.61748 31.7891C8.97795 31.3618 8.4795 30.7545 8.18516 30.0439C7.89082 29.3333 7.8138 28.5513 7.96386 27.7969C8.11391 27.0426 8.48429 26.3496 9.02817 25.8058C9.57204 25.2619 10.265 24.8915 11.0194 24.7415C11.7737 24.5914 12.5557 24.6684 13.2663 24.9628C13.9769 25.2571 14.5842 25.7556 15.0115 26.3951C15.4389 27.0346 15.6669 27.7865 15.6669 28.5556C15.6657 29.5867 15.2556 30.5751 14.5265 31.3041C13.7975 32.0332 12.8091 32.4433 11.778 32.4445ZM38.2226 32.4445C37.4534 32.4445 36.7015 32.2165 36.062 31.7891C35.4225 31.3618 34.924 30.7545 34.6297 30.0439C34.3354 29.3333 34.2583 28.5513 34.4084 27.7969C34.5585 27.0426 34.9288 26.3496 35.4727 25.8058C36.0166 25.2619 36.7095 24.8915 37.4639 24.7415C38.2183 24.5914 39.0002 24.6684 39.7108 24.9628C40.4214 25.2571 41.0288 25.7556 41.4561 26.3951C41.8834 27.0346 42.1115 27.7865 42.1115 28.5556C42.1102 29.5867 41.7001 30.5751 40.9711 31.3041C40.242 32.0332 39.2536 32.4433 38.2226 32.4445ZM46.0004 29.3334H43.6048C43.7231 28.558 43.6724 27.7662 43.4562 27.0122C43.24 26.2582 42.8635 25.5598 42.3524 24.9649C41.8413 24.3699 41.2076 23.8924 40.4948 23.565C39.7821 23.2377 39.0069 23.0682 38.2226 23.0682C37.4382 23.0682 36.6631 23.2377 35.9503 23.565C35.2375 23.8924 34.6039 24.3699 34.0928 24.9649C33.5816 25.5598 33.2051 26.2582 32.9889 27.0122C32.7728 27.7662 32.7221 28.558 32.8403 29.3334H17.1603C17.2785 28.558 17.2278 27.7662 17.0117 27.0122C16.7955 26.2582 16.419 25.5598 15.9079 24.9649C15.3967 24.3699 14.7631 23.8924 14.0503 23.565C13.3375 23.2377 12.5624 23.0682 11.778 23.0682C10.9937 23.0682 10.2186 23.2377 9.50577 23.565C8.79298 23.8924 8.15934 24.3699 7.64822 24.9649C7.1371 25.5598 6.76057 26.2582 6.54441 27.0122C6.32824 27.7662 6.27755 28.558 6.3958 29.3334H4.00023C3.38139 29.3334 2.7879 29.0876 2.35031 28.65C1.91272 28.2124 1.66689 27.6189 1.66689 27.0001V24.6667H3.22245C3.39584 24.6667 3.56426 24.6088 3.70095 24.5021C3.83764 24.3954 3.93476 24.2461 3.9769 24.078L4.75468 20.9668C4.78341 20.8521 4.78561 20.7324 4.76113 20.6168C4.73665 20.5011 4.68612 20.3925 4.61338 20.2993C4.54065 20.2061 4.44762 20.1307 4.34138 20.0789C4.23513 20.027 4.11846 20.0001 4.00023 20.0001H2.35834C2.65485 19.7024 3.02664 19.4908 3.43401 19.3879L6.01235 18.7432C6.52078 18.6148 6.99819 18.3854 7.41615 18.0688C7.83411 17.7521 8.18409 17.3545 8.44525 16.8998L12.2175 10.2988C12.6947 9.46626 13.383 8.77429 14.213 8.29266C15.0429 7.81104 15.9852 7.55679 16.9448 7.55556H29.9447C30.9043 7.55679 31.8466 7.81104 32.6765 8.29266C33.5065 8.77429 34.1948 9.46626 34.672 10.2988L38.3696 16.7699C38.6548 17.2718 39.0486 17.7036 39.5221 18.0337C39.9957 18.3638 40.537 18.5839 41.1066 18.6778L43.7845 19.1243C44.5675 19.2538 45.3129 19.5527 45.9685 20.0001H44.4448C44.2385 20.0001 44.0407 20.082 43.8948 20.2279C43.749 20.3737 43.667 20.5716 43.667 20.7778C43.6665 21.2887 43.7668 21.7946 43.962 22.2667C44.1573 22.7387 44.4437 23.1676 44.8049 23.5288C45.1662 23.8901 45.5951 24.1765 46.0671 24.3718C46.5392 24.567 47.0451 24.6672 47.5559 24.6667H48.3337V27.0001C48.3337 27.6189 48.0879 28.2124 47.6503 28.65C47.2127 29.0876 46.6192 29.3334 46.0004 29.3334Z" fill="#333333"/>
<path d="M35.4659 13.3759C35.3596 13.1991 35.1875 13.0716 34.9873 13.0217C34.7871 12.9717 34.5752 13.0033 34.3983 13.1095C34.2215 13.2158 34.094 13.3879 34.0441 13.5881C33.9941 13.7883 34.0257 14.0002 34.132 14.1771L35.2916 16.1098H25.7763V9.88759H30.2368C30.6397 9.8887 31.0354 9.99354 31.3859 10.192C31.7364 10.3905 32.0299 10.676 32.2381 11.0208L32.7312 11.8437C32.8374 12.0206 33.0096 12.148 33.2098 12.198C33.41 12.248 33.6218 12.2163 33.7987 12.1101C33.9756 12.0039 34.103 11.8317 34.153 11.6315C34.2029 11.4313 34.1713 11.2195 34.0651 11.0426L33.5712 10.2197C33.2243 9.64517 32.7353 9.16966 32.1513 8.83903C31.5673 8.5084 30.9079 8.33379 30.2368 8.33203H24.9985C24.7922 8.33203 24.5944 8.41398 24.4485 8.55984C24.3026 8.7057 24.2207 8.90353 24.2207 9.10981V16.8876C24.2207 17.0939 24.3026 17.2917 24.4485 17.4376C24.5944 17.5835 24.7922 17.6654 24.9985 17.6654H36.6652C36.8029 17.6654 36.938 17.6288 37.057 17.5594C37.1759 17.4901 37.2742 17.3904 37.342 17.2706C37.4098 17.1507 37.4446 17.0151 37.4428 16.8774C37.441 16.7398 37.4026 16.6051 37.3317 16.4871L35.4659 13.3759Z" fill="#333333"/>
<path d="M21.8877 8.33203H16.6493C15.9782 8.33379 15.3189 8.5084 14.7349 8.83903C14.1508 9.16966 13.6618 9.64517 13.315 10.2197L9.55443 16.4871C9.48354 16.6051 9.44523 16.7398 9.44343 16.8774C9.44162 17.0151 9.47639 17.1507 9.54417 17.2706C9.61195 17.3904 9.71032 17.4901 9.82923 17.5594C9.94814 17.6288 10.0833 17.6654 10.221 17.6654H21.8877C22.094 17.6654 22.2918 17.5835 22.4377 17.4376C22.5835 17.2917 22.6655 17.0939 22.6655 16.8876V9.10981C22.6655 8.90353 22.5835 8.7057 22.4377 8.55984C22.2918 8.41398 22.094 8.33203 21.8877 8.33203ZM21.1099 16.1098H11.5946L14.6481 11.0208C14.8563 10.676 15.1498 10.3905 15.5003 10.192C15.8508 9.99354 16.2465 9.8887 16.6493 9.88759H21.1099V16.1098Z" fill="#333333"/>
<path d="M26.554 18.4453H24.9985C24.7922 18.4453 24.5944 18.5273 24.4485 18.6731C24.3026 18.819 24.2207 19.0168 24.2207 19.2231C24.2207 19.4294 24.3026 19.6272 24.4485 19.7731C24.5944 19.9189 24.7922 20.0009 24.9985 20.0009H26.554C26.7603 20.0009 26.9582 19.9189 27.104 19.7731C27.2499 19.6272 27.3318 19.4294 27.3318 19.2231C27.3318 19.0168 27.2499 18.819 27.104 18.6731C26.9582 18.5273 26.7603 18.4453 26.554 18.4453Z" fill="#333333"/>
<path d="M11.7767 18.4453H10.2211C10.0149 18.4453 9.81703 18.5273 9.67117 18.6731C9.5253 18.819 9.44336 19.0168 9.44336 19.2231C9.44336 19.4294 9.5253 19.6272 9.67117 19.7731C9.81703 19.9189 10.0149 20.0009 10.2211 20.0009H11.7767C11.983 20.0009 12.1808 19.9189 12.3267 19.7731C12.4725 19.6272 12.5545 19.4294 12.5545 19.2231C12.5545 19.0168 12.4725 18.819 12.3267 18.6731C12.1808 18.5273 11.983 18.4453 11.7767 18.4453Z" fill="#333333"/>
<path d="M38.222 26.2227C37.7605 26.2227 37.3094 26.3595 36.9257 26.6159C36.542 26.8723 36.2429 27.2367 36.0663 27.6631C35.8897 28.0894 35.8435 28.5586 35.9335 29.0112C36.0235 29.4638 36.2458 29.8796 36.5721 30.2059C36.8984 30.5322 37.3142 30.7545 37.7668 30.8445C38.2194 30.9345 38.6886 30.8883 39.1149 30.7117C39.5413 30.5351 39.9057 30.236 40.1621 29.8523C40.4185 29.4686 40.5554 29.0175 40.5554 28.556C40.5554 27.9372 40.3095 27.3437 39.8719 26.9061C39.4343 26.4685 38.8409 26.2227 38.222 26.2227ZM38.222 29.3338C38.0682 29.3338 37.9178 29.2882 37.7899 29.2027C37.662 29.1172 37.5623 28.9958 37.5034 28.8536C37.4446 28.7115 37.4292 28.5551 37.4592 28.4043C37.4892 28.2534 37.5633 28.1148 37.672 28.006C37.7808 27.8972 37.9194 27.8232 38.0703 27.7932C38.2212 27.7632 38.3775 27.7786 38.5197 27.8374C38.6618 27.8963 38.7833 27.996 38.8687 28.1239C38.9542 28.2518 38.9998 28.4022 38.9998 28.556C38.9998 28.7623 38.9179 28.9601 38.772 29.106C38.6261 29.2518 38.4283 29.3338 38.222 29.3338Z" fill="#333333"/>
<path d="M11.7767 26.2227C11.3152 26.2227 10.8641 26.3595 10.4804 26.6159C10.0967 26.8723 9.79758 27.2367 9.62098 27.6631C9.44437 28.0894 9.39816 28.5586 9.48819 29.0112C9.57823 29.4638 9.80046 29.8796 10.1268 30.2059C10.4531 30.5322 10.8689 30.7545 11.3215 30.8445C11.7741 30.9345 12.2433 30.8883 12.6696 30.7117C13.096 30.5351 13.4604 30.236 13.7168 29.8523C13.9732 29.4686 14.11 29.0175 14.11 28.556C14.11 27.9372 13.8642 27.3437 13.4266 26.9061C12.989 26.4685 12.3955 26.2227 11.7767 26.2227ZM11.7767 29.3338C11.6229 29.3338 11.4725 29.2882 11.3446 29.2027C11.2167 29.1172 11.117 28.9958 11.0581 28.8536C10.9993 28.7115 10.9839 28.5551 11.0139 28.4043C11.0439 28.2534 11.118 28.1148 11.2267 28.006C11.3355 27.8972 11.4741 27.8232 11.625 27.7932C11.7758 27.7632 11.9322 27.7786 12.0743 27.8374C12.2165 27.8963 12.3379 27.996 12.4234 28.1239C12.5089 28.2518 12.5545 28.4022 12.5545 28.556C12.5545 28.7623 12.4725 28.9601 12.3267 29.106C12.1808 29.2518 11.983 29.3338 11.7767 29.3338Z" fill="#333333"/>
</svg>
