<svg width="40" height="40" viewBox="0 0 40 40" fill="none" xmlns="http://www.w3.org/2000/svg">
<g clip-path="url(#clip0_268_39132)">
<path d="M18.4382 27.1406C18.1154 27.1406 17.8535 27.3897 17.8535 27.6973V28.8227C17.8535 29.1303 18.1154 29.3794 18.4382 29.3794C18.761 29.3794 19.0229 29.1303 19.0229 28.8227V27.6973C19.0229 27.3897 18.761 27.1406 18.4382 27.1406Z" fill="#333333"/>
<path d="M9.93821 18.8555H7.66086C7.12322 18.8555 6.68555 19.2715 6.68555 19.7832V25.3711C6.68555 25.8828 7.12322 26.2988 7.66086 26.2988H9.93821C10.4758 26.2988 10.9135 25.8828 10.9135 25.3711V19.7832C10.9135 19.2715 10.4758 18.8555 9.93821 18.8555ZM9.74315 25.1855H7.85592V19.9688H9.74315V25.1855Z" fill="#333333"/>
<path d="M32.3327 18.8555H30.0554C29.5177 18.8555 29.0801 19.2715 29.0801 19.7832V25.3711C29.0801 25.8828 29.5177 26.2988 30.0554 26.2988H32.3327C32.8704 26.2988 33.308 25.8828 33.308 25.3711V19.7832C33.308 19.2715 32.8704 18.8555 32.3327 18.8555ZM32.1377 25.1855H30.2505V19.9688H32.1377V25.1855Z" fill="#333333"/>
<path d="M20.2573 14.375H19.7471C18.481 14.375 17.4512 15.3549 17.4512 16.5592V18.675C17.4512 19.1166 17.8288 19.4758 18.293 19.4758H21.7115C22.1756 19.4758 22.5533 19.1166 22.5533 18.675V16.5592C22.5533 15.3549 21.5234 14.375 20.2573 14.375ZM18.6212 18.3625V16.5592C18.6212 15.9687 19.1263 15.4883 19.7471 15.4883H20.2573C20.8779 15.4883 21.3829 15.9687 21.3829 16.5592V18.3625H18.6212Z" fill="#333333"/>
<path d="M39.3889 32.7013H36.6382V16.2717H38.9988C39.3161 16.2717 39.5876 16.1296 39.7257 15.8916C39.8635 15.6536 39.8446 15.359 39.6751 15.1039L34.8882 7.90002C34.6678 7.56807 34.2079 7.32715 33.7952 7.32715H21.4722L20.6992 6.44029C20.5225 6.23735 20.2674 6.12109 19.9998 6.12109C19.7318 6.12109 19.477 6.23735 19.3003 6.44029L18.5273 7.32715H6.20429C5.7913 7.32715 5.33169 7.56807 5.11102 7.90002L0.324384 15.1039C0.154924 15.3593 0.136027 15.6536 0.27379 15.8916C0.411857 16.1296 0.68342 16.2717 1.0007 16.2717H3.36126V28.1461C2.77272 28.6816 2.40515 29.4345 2.40515 30.2686C2.40515 30.4214 2.41825 30.5712 2.44203 30.7179H2.19363C1.65599 30.7179 1.21832 31.1343 1.21832 31.6457V32.7013H0.610577C0.287505 32.7013 0.0253906 32.9506 0.0253906 33.2579C0.0253906 33.5655 0.287505 33.8145 0.610577 33.8145H39.3889C39.712 33.8145 39.9741 33.5655 39.9741 33.2579C39.9741 32.9506 39.712 32.7013 39.3889 32.7013ZM36.9869 13.142H26.5401L25.7641 12.2514H36.395L36.9869 13.142ZM35.0634 10.2475L35.6553 11.1381H24.7937L24.0174 10.2475H35.0634ZM33.7891 8.44043C33.8211 8.44565 33.8806 8.47696 33.9022 8.49986L34.3237 9.1342H23.047L22.4426 8.44043H33.7891ZM4.93608 10.2475H8.8422C9.16527 10.2475 9.42738 9.99815 9.42738 9.69084C9.42738 9.38324 9.16527 9.1342 8.8422 9.1342H5.67549L6.09731 8.49957C6.11895 8.47696 6.17838 8.44565 6.21008 8.44043H17.5569L16.9522 9.1342H11.5731C11.25 9.1342 10.9879 9.38324 10.9879 9.69084C10.9879 9.99815 11.25 10.2475 11.5731 10.2475H15.9821L15.2058 11.1381H4.34419L4.93608 10.2475ZM3.60448 12.2514H14.2354L13.4591 13.142H3.01258L3.60448 12.2514ZM1.67275 15.1584L2.27287 14.2553H12.4889L11.7017 15.1584H1.67275ZM12.9598 27.3007C12.5167 27.0603 12.0074 26.9232 11.4707 26.9232C10.4164 26.9232 9.43897 27.4572 8.8934 28.2934C8.7471 28.2661 8.59746 28.2525 8.44537 28.2525C8.22684 28.2525 8.01532 28.2818 7.81446 28.3357C7.2369 27.7121 6.39325 27.3303 5.49383 27.3303C5.15796 27.3303 4.83459 27.3824 4.53163 27.4772V16.2717H10.7313C10.5188 16.5158 10.4667 16.8121 10.5914 17.0646C10.7163 17.3174 10.99 17.4684 11.3234 17.4684H12.9598V27.3007ZM6.12992 30.7179H3.63556C3.59716 30.5741 3.57552 30.4237 3.57552 30.2686C3.57552 29.2623 4.43623 28.4435 5.49383 28.4435C5.97692 28.4435 6.43409 28.6213 6.78124 28.9196C6.36918 29.32 6.11468 29.8673 6.11468 30.4704C6.11468 30.5541 6.12017 30.6368 6.12992 30.7179ZM12.9598 32.7013H2.38869V31.8312H12.9598V32.7013ZM12.9601 30.7179H7.31553C7.29603 30.6385 7.28505 30.5556 7.28505 30.4704C7.28505 29.8612 7.80563 29.3658 8.44537 29.3658C8.61849 29.3658 8.7852 29.4014 8.94095 29.4713C9.08816 29.5377 9.25731 29.5423 9.40849 29.4852C9.55966 29.4278 9.67853 29.313 9.73735 29.1686C10.012 28.4914 10.709 28.0365 11.471 28.0365C12.0723 28.0365 12.6179 28.3171 12.9601 28.7526V30.7179ZM12.179 16.3552L19.9998 7.38194L27.8205 16.3552H26.7885L20.4502 9.08318C20.339 8.9559 20.1738 8.88197 19.9998 8.88197C19.8254 8.88197 19.6602 8.9559 19.5493 9.08347L13.211 16.3552H12.179ZM22.4776 32.7013H17.5219V24.062H22.4776V32.7013ZM35.4679 32.7013H27.0397V25.9795C27.0397 25.6722 26.7775 25.4229 26.4545 25.4229C26.1314 25.4229 25.8693 25.6722 25.8693 25.9795V32.7013H23.648V23.8765C23.648 23.3651 23.2107 22.9487 22.6727 22.9487H17.3268C16.7888 22.9487 16.3515 23.3651 16.3515 23.8765V32.7013H14.1302V17.0449L19.9998 10.3107L25.8693 17.0449V23.3448C25.8693 23.6524 26.1314 23.9014 26.4545 23.9014C26.7775 23.9014 27.0397 23.6524 27.0397 23.3448V17.4684H28.6757C29.0092 17.4684 29.2829 17.3174 29.4078 17.0646C29.5328 16.8121 29.4804 16.5158 29.2682 16.2717H31.5474C31.8705 16.2717 32.1326 16.0226 32.1326 15.715C32.1326 15.4077 31.8705 15.1584 31.5474 15.1584H28.2978L27.5106 14.2553H37.7266L38.3268 15.1584H34.3563C34.0332 15.1584 33.7711 15.4077 33.7711 15.715C33.7711 16.0226 34.0332 16.2717 34.3563 16.2717H35.4679V32.7013Z" fill="#333333"/>
</g>
<defs>
<clipPath id="clip0_268_39132">
<rect width="39.9487" height="38" fill="white" transform="translate(0.0253906 1)"/>
</clipPath>
</defs>
</svg>
