<svg width="79" height="59" viewBox="0 0 79 59" fill="none" xmlns="http://www.w3.org/2000/svg">
<path fill-rule="evenodd" clip-rule="evenodd" d="M37.719 10.5469C37.719 10.7313 37.8901 10.8809 38.1013 10.8809H42.2526C42.4637 10.8809 42.6349 10.7313 42.6349 10.5469C42.6349 10.3624 42.4637 10.2128 42.2526 10.2128H38.1013C37.8901 10.2128 37.719 10.3624 37.719 10.5469Z" fill="#333333"/>
<path fill-rule="evenodd" clip-rule="evenodd" d="M37.719 9.21287C37.719 9.39734 37.8781 9.54688 38.0743 9.54688H45.791C45.9872 9.54688 46.1462 9.39734 46.1462 9.21287C46.1462 9.0284 45.9872 8.87886 45.791 8.87886H38.0743C37.8781 8.87886 37.719 9.0284 37.719 9.21287Z" fill="#333333"/>
<path fill-rule="evenodd" clip-rule="evenodd" d="M37.719 15.8926C37.719 16.077 37.8901 16.2266 38.1013 16.2266H42.2526C42.4637 16.2266 42.6349 16.077 42.6349 15.8926C42.6349 15.7081 42.4637 15.5585 42.2526 15.5585H38.1013C37.8901 15.5585 37.719 15.7081 37.719 15.8926Z" fill="#333333"/>
<path fill-rule="evenodd" clip-rule="evenodd" d="M37.719 14.5547C37.719 14.7391 37.8781 14.8887 38.0743 14.8887H45.791C45.9872 14.8887 46.1462 14.7391 46.1462 14.5547C46.1462 14.3702 45.9872 14.2207 45.791 14.2207H38.0743C37.8781 14.2207 37.719 14.3702 37.719 14.5547Z" fill="#333333"/>
<path fill-rule="evenodd" clip-rule="evenodd" d="M37.719 21.2363C37.719 21.4208 37.8901 21.5703 38.1013 21.5703H42.2526C42.4637 21.5703 42.6349 21.4208 42.6349 21.2363C42.6349 21.0518 42.4637 20.9023 42.2526 20.9023H38.1013C37.8901 20.9023 37.719 21.0518 37.719 21.2363Z" fill="#333333"/>
<path fill-rule="evenodd" clip-rule="evenodd" d="M37.719 19.9004C37.719 20.0848 37.8781 20.2344 38.0743 20.2344H45.791C45.9872 20.2344 46.1462 20.0848 46.1462 19.9004C46.1462 19.7159 45.9872 19.5664 45.791 19.5664H38.0743C37.8781 19.5664 37.719 19.7159 37.719 19.9004Z" fill="#333333"/>
<mask id="mask0_56_7249" style="mask-type:luminance" maskUnits="userSpaceOnUse" x="27" y="3" width="25" height="23">
<path d="M27.8883 3.53368H51.0632V25.5781H27.8883V3.53368Z" fill="white"/>
</mask>
<g mask="url(#mask0_56_7249)">
<path fill-rule="evenodd" clip-rule="evenodd" d="M35.6115 5.81806C35.6115 6.40179 36.0548 6.875 36.6017 6.875H42.3462C42.8931 6.875 43.3364 6.40179 43.3364 5.81806V4.59192C43.3364 4.00815 42.8931 3.53493 42.3462 3.53493H36.6017C36.0548 3.53493 35.6115 4.00815 35.6115 4.59192V5.81806ZM36.6017 6.16587C36.4217 6.16587 36.2758 6.01012 36.2758 5.81806V4.59192C36.2758 4.3998 36.4217 4.24407 36.6017 4.24407H42.3462C42.5262 4.24407 42.6721 4.3998 42.6721 4.59192V5.81806C42.6721 6.01012 42.5262 6.16587 42.3462 6.16587H36.6017Z" fill="#333333"/>
<path fill-rule="evenodd" clip-rule="evenodd" d="M32.8051 10.637C32.8051 11.1417 33.2351 11.5508 33.7656 11.5508H35.3558C35.8863 11.5508 36.3164 11.1417 36.3164 10.637V9.12442C36.3164 8.61978 35.8863 8.21071 35.3558 8.21071H33.7656C33.2351 8.21071 32.8051 8.61978 32.8051 9.12442V10.637ZM33.7656 10.8701C33.6303 10.8701 33.5206 10.7658 33.5206 10.637V9.12442C33.5206 8.99575 33.6303 8.8914 33.7656 8.8914H35.3558C35.4912 8.8914 35.6008 8.99575 35.6008 9.12442V10.637C35.6008 10.7658 35.4911 10.8701 35.3558 10.8701H33.7656Z" fill="#333333"/>
<path fill-rule="evenodd" clip-rule="evenodd" d="M32.8051 15.9788C32.8051 16.4835 33.2351 16.8926 33.7656 16.8926H35.3558C35.8863 16.8926 36.3164 16.4835 36.3164 15.9788V14.4662C36.3164 13.9616 35.8863 13.5525 35.3558 13.5525H33.7656C33.2351 13.5525 32.8051 13.9616 32.8051 14.4662V15.9788ZM33.7656 16.2119C33.6303 16.2119 33.5206 16.1076 33.5206 15.9788V14.4662C33.5206 14.3375 33.6303 14.2332 33.7656 14.2332H35.3558C35.4912 14.2332 35.6008 14.3375 35.6008 14.4662V15.9788C35.6008 16.1076 35.4911 16.2119 35.3558 16.2119H33.7656Z" fill="#333333"/>
<path fill-rule="evenodd" clip-rule="evenodd" d="M32.8051 21.3225C32.8051 21.8272 33.2351 22.2363 33.7656 22.2363H35.3558C35.8864 22.2363 36.3164 21.8272 36.3164 21.3225V19.81C36.3164 19.3054 35.8864 18.8963 35.3558 18.8963H33.7656C33.2351 18.8963 32.8051 19.3054 32.8051 19.81V21.3225ZM33.7656 21.5557C33.6303 21.5557 33.5206 21.4513 33.5206 21.3225V19.81C33.5206 19.6813 33.6303 19.5769 33.7656 19.5769H35.3558C35.4911 19.5769 35.6008 19.6813 35.6008 19.81V21.3225C35.6008 21.4513 35.4911 21.5557 35.3558 21.5557H33.7656Z" fill="#333333"/>
<path fill-rule="evenodd" clip-rule="evenodd" d="M32.1827 24.9366C31.7411 24.9366 31.3832 24.6016 31.3832 24.1885V6.25933C31.3832 5.84619 31.7411 5.51127 32.1827 5.51127H34.2372C34.4266 5.51127 34.58 5.36765 34.58 5.19049C34.58 5.01333 34.4266 4.86971 34.2372 4.86971H32.1827C31.3625 4.86971 30.6975 5.49182 30.6975 6.25933V24.1885C30.6975 24.9559 31.3625 25.5781 32.1827 25.5781H46.7691C47.5893 25.5781 48.2543 24.9559 48.2543 24.1885V6.25933C48.2543 5.49183 47.5893 4.86971 46.7691 4.86971H44.7146C44.5253 4.86971 44.3718 5.01333 44.3718 5.19049C44.3718 5.36765 44.5253 5.51127 44.7146 5.51127H46.7691C47.2107 5.51127 47.5686 5.84618 47.5686 6.25933V24.1885C47.5686 24.6016 47.2106 24.9366 46.7691 24.9366H32.1827Z" fill="#333333"/>
</g>
</svg>
