<svg width="80" height="59" viewBox="0 0 80 59" fill="none" xmlns="http://www.w3.org/2000/svg">
<g clip-path="url(#clip0_56_7218)">
<path d="M36.074 23.775V24.0957C36.074 24.7697 36.6503 25.3181 37.3589 25.3181C38.0675 25.3181 38.6442 24.7697 38.6442 24.0957V23.7879H41.9455V24.0957C41.9455 24.7697 42.5222 25.3181 43.2308 25.3181C43.9394 25.3181 44.5157 24.7697 44.5157 24.0957V23.775C45.224 23.7094 45.7814 23.1464 45.7814 22.4558V11.7411C45.7814 11.0067 45.1532 10.409 44.3811 10.409H44.2088V9.98133C44.2088 9.6411 43.993 9.34884 43.6853 9.21912V4.46372H44.234C44.4294 4.46372 44.5876 4.31311 44.5876 4.12737C44.5876 3.94162 44.4294 3.79102 44.234 3.79102C42.4863 3.79102 38.3624 3.79102 36.3537 3.79102C36.1582 3.79102 36.0001 3.94162 36.0001 4.12737C36.0001 4.31311 36.1582 4.46372 36.3537 4.46372H36.9021V9.21912C36.5943 9.34884 36.3785 9.6411 36.3785 9.98133V10.409H36.2086C35.4365 10.409 34.8083 11.0067 34.8083 11.7411V22.4558C34.8083 23.1464 35.3657 23.7094 36.074 23.775ZM37.937 24.0957C37.937 24.3989 37.6776 24.6454 37.3589 24.6454C37.0405 24.6454 36.7812 24.3989 36.7812 24.0957V23.7879H37.937V24.0957ZM43.8085 24.0957C43.8085 24.3989 43.5491 24.6454 43.2308 24.6454C42.912 24.6454 42.6527 24.3989 42.6527 24.0957V23.7879H43.8085V24.0957ZM43.1617 9.98133C43.1617 9.89216 43.238 9.8197 43.3316 9.8197C43.4252 9.8197 43.5015 9.89212 43.5015 9.98133V10.409H43.1617V9.98133H43.1617ZM37.6093 4.46372H42.978V9.21912C42.6703 9.34884 42.4545 9.6411 42.4545 9.98133V10.409H38.1328V9.98133C38.1328 9.6411 37.917 9.34884 37.6093 9.21912V4.46372ZM37.0857 9.98133C37.0857 9.89216 37.1621 9.8197 37.2557 9.8197C37.3493 9.8197 37.4256 9.89212 37.4256 9.98133V10.409H37.0858L37.0857 9.98133ZM35.5155 11.7411C35.5155 11.3775 35.8263 11.0817 36.2086 11.0817C36.7564 11.0817 44.4293 11.0817 44.381 11.0817C44.7633 11.0817 45.0741 11.3775 45.0741 11.7411V22.4558C45.0741 22.8194 44.7633 23.1152 44.381 23.1152C38.6174 23.1152 42.3104 23.1152 36.2086 23.1152C35.8264 23.1152 35.5155 22.8194 35.5155 22.4558V11.7411Z" fill="#333333"/>
<path d="M38.447 21.6939C39.0927 21.6939 39.6183 21.194 39.6183 20.5796V13.6184C39.6183 13.0039 39.0927 12.5039 38.447 12.5039C37.8009 12.5039 37.2753 13.0039 37.2753 13.6184V20.5796C37.2753 21.194 37.8008 21.6939 38.447 21.6939ZM37.9825 13.6184C37.9825 13.3749 38.1907 13.1766 38.4469 13.1766C38.7028 13.1766 38.911 13.3749 38.911 13.6184V20.5796C38.911 20.8231 38.7028 21.0212 38.4469 21.0212C38.1907 21.0212 37.9825 20.8231 37.9825 20.5796V13.6184Z" fill="#333333"/>
<path d="M42.1412 21.6939C42.7873 21.6939 43.3129 21.194 43.3129 20.5796V13.6184C43.3129 13.0039 42.7873 12.5039 42.1412 12.5039C41.4954 12.5039 40.9698 13.0039 40.9698 13.6184V20.5796C40.9698 21.194 41.4954 21.6939 42.1412 21.6939ZM41.6771 13.6184C41.6771 13.3749 41.8853 13.1766 42.1412 13.1766C42.3975 13.1766 42.6057 13.3749 42.6057 13.6184V20.5796C42.6057 20.8231 42.3975 21.0212 42.1412 21.0212C41.8853 21.0212 41.6771 20.8231 41.6771 20.5796V13.6184Z" fill="#333333"/>
</g>
<defs>
<clipPath id="clip0_56_7218">
<rect width="11.7111" height="22.0444" fill="white" transform="translate(34.2202 3.5332)"/>
</clipPath>
</defs>
</svg>
