<svg width="80" height="59" viewBox="0 0 80 59" fill="none" xmlns="http://www.w3.org/2000/svg">
<path d="M44.4325 9.3826C44.2326 9.38285 44.0388 9.31404 43.8838 9.18783C43.7289 9.06161 43.6222 8.88573 43.582 8.68995C43.3791 7.70779 43.5957 6.87536 44.1918 6.34563C44.2036 6.3372 44.2128 6.3257 44.2184 6.31239C44.224 6.29908 44.2259 6.28448 44.2238 6.27018L44.0259 5.70713C43.9788 5.57313 43.9653 5.42963 43.9867 5.28921C44.008 5.14879 44.0635 5.01575 44.1482 4.90178C44.233 4.78781 44.3444 4.69638 44.4727 4.63553C44.6011 4.57468 44.7424 4.54627 44.8842 4.55279L45.4369 4.57778C45.4522 4.57854 45.4671 4.57322 45.4785 4.56298C45.4898 4.55275 45.4967 4.53843 45.4975 4.52317L45.5285 3.92424C45.5402 3.70483 45.6347 3.49803 45.793 3.34568C45.9794 3.15185 46.1168 2.91637 46.194 2.65878C46.2711 2.40119 46.2856 2.12892 46.2365 1.86457C46.214 1.68366 46.2488 1.50026 46.336 1.34015C46.4231 1.18004 46.5583 1.05128 46.7224 0.97197L46.8976 0.887269C47.023 0.825842 47.1614 0.795596 47.301 0.799102C47.4406 0.802607 47.5773 0.839759 47.6995 0.907403C48.0354 1.0882 48.3443 1.31512 48.6173 1.58154C48.7353 1.7022 48.8135 1.85602 48.8416 2.0224C48.8924 2.24074 48.99 2.44542 49.1278 2.62228C49.2655 2.79914 49.4401 2.94395 49.6393 3.04668C50.1491 3.31442 50.7229 3.43623 51.2975 3.39868C51.5187 3.39169 51.7342 3.46948 51.8999 3.61612C52.0657 3.76277 52.1691 3.9672 52.1891 4.1876L52.3092 5.50996C52.3277 5.71314 52.274 5.91633 52.1575 6.08384C52.041 6.25135 51.8693 6.37247 51.6724 6.42593C51.2182 6.55199 50.751 6.62514 50.2801 6.64393C50.2727 6.64432 50.2655 6.6464 50.259 6.65001C50.2525 6.65362 50.2469 6.65866 50.2426 6.66476C50.0367 6.94786 49.8717 7.25855 49.7525 7.58768C49.7148 7.69984 49.6553 7.80339 49.5772 7.89231C49.4992 7.98123 49.4043 8.05373 49.298 8.1056C49.1944 8.15574 49.0819 8.18451 48.967 8.19019C48.8522 8.19588 48.7373 8.17836 48.6294 8.1387C48.1151 7.9573 47.6181 7.73021 47.1443 7.46016C47.1367 7.4556 47.1282 7.4526 47.1194 7.45133C47.1106 7.45006 47.1016 7.45054 47.093 7.45276C47.0881 7.45384 47.0835 7.45595 47.0795 7.45895C47.0755 7.46194 47.0722 7.46575 47.0698 7.47011L47.0575 7.49488C46.9756 7.66376 46.841 7.8015 46.6741 7.88738C46.5072 7.97326 46.3169 8.00266 46.1318 7.97115C46.0206 7.95371 45.9108 7.92827 45.8032 7.89501C45.72 7.93512 45.651 7.99981 45.6057 8.08035C45.5604 8.16088 45.5409 8.25338 45.5498 8.34536C45.5521 8.49474 45.5164 8.64226 45.4461 8.77408C45.3757 8.90591 45.2731 9.01774 45.1478 9.0991C45.0661 9.15094 44.9689 9.21019 44.8648 9.26989C44.733 9.34441 44.584 9.38326 44.4325 9.3826ZM44.8442 5.36185C44.8352 5.3616 44.8262 5.36358 44.8182 5.36761C44.8101 5.37165 44.8031 5.37762 44.7979 5.38499C44.7921 5.39248 44.7882 5.40136 44.7868 5.41077C44.7854 5.42017 44.7864 5.42979 44.7898 5.43868L44.9875 6.0015C45.0439 6.16737 45.0494 6.3463 45.0034 6.51535C44.9575 6.6844 44.862 6.83587 44.7294 6.95034C44.2545 7.37245 44.2744 8.03965 44.3746 8.52517C44.3763 8.53441 44.3802 8.54308 44.3861 8.5504C44.3919 8.55772 44.3996 8.56345 44.4082 8.56706C44.4167 8.57108 44.4261 8.57292 44.4355 8.57244C44.4449 8.57196 44.4541 8.56915 44.4621 8.56428C44.5547 8.51129 44.641 8.45852 44.7139 8.41224C44.7232 8.40313 44.7304 8.39203 44.7348 8.37976C44.7392 8.36749 44.7408 8.35438 44.7394 8.34142C44.7344 8.13174 44.7806 7.924 44.8739 7.73618C44.9673 7.54836 45.105 7.3861 45.2751 7.26345C45.3807 7.18056 45.5044 7.12391 45.6361 7.09817C45.7678 7.07242 45.9038 7.0783 46.0328 7.11534C46.1091 7.14028 46.1874 7.15863 46.2668 7.17019C46.2802 7.17176 46.2937 7.16887 46.3053 7.16197C46.3169 7.15506 46.3259 7.14453 46.3309 7.132L46.3464 7.10122C46.3994 6.99695 46.4735 6.90483 46.564 6.83073C46.6545 6.75663 46.7595 6.70216 46.8722 6.67078C46.9871 6.63871 47.1074 6.63038 47.2257 6.6463C47.344 6.66221 47.4578 6.70204 47.5602 6.76335C47.9896 7.00691 48.4399 7.21175 48.9057 7.37546C48.9121 7.378 48.919 7.37915 48.9259 7.37883C48.9328 7.37851 48.9396 7.37673 48.9457 7.37361C48.955 7.36896 48.9631 7.36245 48.9697 7.35448C48.9763 7.34651 48.9811 7.33727 48.9839 7.32733C49.1281 6.92146 49.3302 6.53852 49.5838 6.19034C49.6609 6.08337 49.7615 5.99546 49.8778 5.93333C49.9941 5.8712 50.1231 5.83649 50.2549 5.83187C50.662 5.8152 51.0658 5.75168 51.4583 5.64256C51.4718 5.63925 51.4838 5.6312 51.4919 5.61987C51.5001 5.60854 51.5039 5.59468 51.5027 5.58077L51.3826 4.25865C51.3798 4.22856 51.3528 4.19848 51.3275 4.20612C50.5954 4.25245 49.8652 4.09019 49.2216 3.73818C48.9229 3.57569 48.663 3.35039 48.4598 3.0778C48.2565 2.80521 48.1148 2.4918 48.0443 2.15917C47.8266 1.94289 47.5787 1.75924 47.3084 1.61394C47.3004 1.60928 47.2914 1.60667 47.2821 1.60634C47.2729 1.60602 47.2637 1.60799 47.2554 1.61209L47.0724 1.70049C47.0612 1.70717 47.0523 1.71711 47.0469 1.72899C47.0415 1.74086 47.0399 1.75409 47.0423 1.76691C47.105 2.15566 47.0755 2.55371 46.9562 2.92897C46.8368 3.30422 46.631 3.64618 46.3552 3.92725C46.3441 3.93749 46.3374 3.95157 46.3364 3.96659L46.3054 4.56505C46.2932 4.79381 46.1912 5.0085 46.0215 5.16243C45.8518 5.31636 45.6283 5.39709 45.3994 5.38707L44.8465 5.36185H44.8442Z" fill="#333333"/>
<path d="M41.0036 24.2886C40.9823 24.2886 40.9608 24.2886 40.9392 24.2863L40.3845 24.2435C40.2399 24.2329 40.1004 24.1852 39.9795 24.105C39.8586 24.0248 39.7604 23.9149 39.6944 23.7857L39.3936 23.2044C39.3369 23.0946 39.3048 22.9738 39.2997 22.8504C39.2945 22.727 39.3164 22.6039 39.3637 22.4898L39.6287 21.8501C39.6321 21.8409 39.6321 21.8307 39.6287 21.8214L39.4778 21.4123C39.4745 21.4046 39.469 21.398 39.462 21.3934C39.455 21.3888 39.4468 21.3863 39.4385 21.3863L39.0899 21.4076C38.9788 21.4142 38.8674 21.3985 38.7625 21.3614C38.2937 21.2036 37.7893 21.1849 37.3101 21.3074C37.3017 21.31 37.2946 21.3156 37.2902 21.3232L37.0566 21.6691C36.9857 21.7738 36.8921 21.8611 36.7829 21.9248C36.6737 21.9885 36.5516 22.0269 36.4256 22.0371L35.3798 22.1251C35.2635 22.1346 35.1465 22.1202 35.036 22.0828C34.9254 22.0453 34.8238 21.9856 34.7373 21.9073L34.3134 21.5217C34.3087 21.5176 34.3031 21.5146 34.2971 21.513C34.2911 21.5113 34.2848 21.5111 34.2786 21.5122L33.3627 21.6932C33.2205 21.7213 33.0735 21.7125 32.9357 21.6677C32.7979 21.623 32.6738 21.5437 32.5752 21.4375C32.4766 21.3312 32.4069 21.2015 32.3726 21.0608C32.3382 20.92 32.3405 20.7727 32.3791 20.6331L32.4812 20.2639C32.54 20.0499 32.6807 19.8676 32.8727 19.7564L35.0983 18.4605C35.1927 18.4056 35.2966 18.3694 35.4045 18.3535C36.3851 18.2112 37.2311 18.1221 37.7683 18.0731C37.8835 18.0625 37.9997 18.0756 38.1096 18.1116C38.2196 18.1475 38.321 18.2056 38.4077 18.2822C38.4944 18.3589 38.5646 18.4524 38.6138 18.5571C38.663 18.6618 38.6903 18.7755 38.694 18.8911C38.6943 18.8975 38.696 18.9036 38.6992 18.9091C38.7023 18.9146 38.7067 18.9193 38.712 18.9228C38.7172 18.9262 38.7233 18.9284 38.7296 18.9291C38.7358 18.9298 38.7422 18.929 38.7481 18.9268L39.5153 18.6211C39.5234 18.6175 39.5301 18.6113 39.5343 18.6034C39.5385 18.5956 39.54 18.5866 39.5384 18.5778L39.3859 17.6317C39.3672 17.5153 39.3729 17.3963 39.4025 17.2822C39.4321 17.168 39.4851 17.0613 39.5581 16.9687L39.8821 16.5589C39.9819 16.4336 40.1149 16.3389 40.266 16.2857C40.417 16.2325 40.58 16.2229 40.7363 16.258L41.4491 16.42C41.4556 16.4214 41.4624 16.4213 41.4688 16.4194C41.4752 16.4176 41.4811 16.4142 41.4859 16.4096L42.7291 15.2062C43.1797 14.391 43.7372 13.6397 44.3868 12.9722C44.3907 12.9681 44.3936 12.9632 44.3953 12.9578C44.3971 12.9524 44.3975 12.9466 44.3967 12.941L44.3187 12.2979C44.3038 12.1756 44.3156 12.0515 44.3534 11.9343C44.3912 11.817 44.4541 11.7094 44.5376 11.6189L45.0361 11.0787C45.042 11.0723 45.0456 11.0642 45.0465 11.0556L45.1208 10.2387C45.1379 10.0538 45.2147 9.87952 45.3398 9.74227L45.8734 9.15792C46.0023 9.01612 46.1755 8.92226 46.3647 8.89169C46.5539 8.86113 46.7478 8.89568 46.9148 8.98968L47.2157 9.15769C47.3835 9.25187 47.5145 9.40008 47.5873 9.57819L48.3099 11.3414C48.3778 11.5069 48.3916 11.6897 48.3492 11.8635L47.8595 13.8864C47.8139 14.0742 47.7058 14.2408 47.5529 14.3589L46.8586 14.8951C46.8523 14.8999 46.8476 14.9064 46.845 14.9139C46.8425 14.9214 46.8422 14.9294 46.8442 14.937L47.0319 15.6295C47.0516 15.7019 47.0619 15.7766 47.0625 15.8516C47.0407 16.8728 46.8517 17.8836 46.5031 18.8437L46.5207 19.6752C46.5235 19.8206 46.4891 19.9642 46.4209 20.0926C46.3526 20.2209 46.2528 20.3298 46.1308 20.4088L44.7584 21.2935C44.5719 21.4144 44.3453 21.457 44.1276 21.412L42.8307 21.1457C42.8233 21.1443 42.8158 21.1449 42.8088 21.1475C42.8018 21.1501 42.7957 21.1546 42.7911 21.1605L42.4622 21.5932C42.4586 21.5981 42.4561 21.6037 42.4549 21.6096C42.4538 21.6155 42.454 21.6217 42.4555 21.6275C42.4571 21.6334 42.46 21.6388 42.4639 21.6433C42.4679 21.6479 42.4729 21.6515 42.4784 21.6539L42.5985 21.705C42.74 21.7651 42.8625 21.8625 42.9529 21.9868C43.0433 22.1111 43.0982 22.2576 43.1118 22.4106L43.1426 22.7506C43.162 22.9552 43.1061 23.1599 42.9854 23.3263C42.8647 23.4927 42.6875 23.6094 42.487 23.6545C42.1396 23.7309 41.8138 23.8842 41.5335 24.1033C41.3829 24.2231 41.1961 24.2885 41.0036 24.2886ZM39.4445 20.5764C39.6182 20.5758 39.7878 20.6289 39.9302 20.7283C40.0726 20.8277 40.1809 20.9686 40.2403 21.1318L40.3908 21.5407C40.465 21.7412 40.4607 21.9624 40.3785 22.1598L40.1135 22.7992C40.1113 22.8046 40.1103 22.8103 40.1106 22.8161C40.1109 22.8219 40.1124 22.8276 40.1151 22.8327L40.416 23.4141C40.4191 23.4201 40.4238 23.4252 40.4294 23.429C40.4351 23.4328 40.4416 23.435 40.4484 23.4356L41.0022 23.4782C41.0129 23.478 41.0233 23.4743 41.0318 23.4678C41.4093 23.1724 41.8482 22.9655 42.3162 22.8624C42.3235 22.8589 42.3295 22.8532 42.3332 22.8461C42.337 22.8389 42.3383 22.8308 42.337 22.8228L42.3053 22.4833C42.3048 22.4762 42.3024 22.4694 42.2983 22.4636C42.2943 22.4578 42.2887 22.4533 42.2822 22.4504L42.1618 22.3991C42.0429 22.3484 41.9371 22.2713 41.8524 22.1735C41.7678 22.0758 41.7065 21.96 41.6734 21.835C41.6403 21.71 41.6361 21.5792 41.6612 21.4523C41.6863 21.3255 41.74 21.206 41.8182 21.1031L42.147 20.6703C42.2443 20.5432 42.3753 20.446 42.5251 20.3897C42.675 20.3334 42.8376 20.3203 42.9945 20.3519L44.2919 20.6183C44.302 20.6201 44.3125 20.6182 44.3213 20.6127L45.6927 19.728C45.6984 19.7244 45.7031 19.7193 45.7063 19.7134C45.7095 19.7074 45.7111 19.7007 45.711 19.6939L45.6918 18.8742C45.6892 18.7697 45.7062 18.6655 45.7417 18.5671C46.0556 17.6965 46.228 16.7812 46.2525 15.856L46.0625 15.1486C46.0182 14.9864 46.0231 14.8147 46.0767 14.6553C46.1303 14.4959 46.2301 14.3561 46.3633 14.2536L47.0576 13.7174C47.0647 13.712 47.0698 13.7043 47.072 13.6957L47.5621 11.6716C47.5641 11.6635 47.5634 11.6549 47.56 11.6471L46.8378 9.8839C46.8343 9.87546 46.8281 9.86844 46.8202 9.864L46.5193 9.69598C46.5115 9.69164 46.5024 9.69005 46.4936 9.69148C46.4847 9.6929 46.4766 9.69726 46.4705 9.70385L45.9371 10.2887C45.9313 10.2951 45.9277 10.3032 45.9269 10.3118L45.8526 11.1287C45.8354 11.3148 45.7577 11.49 45.6314 11.6277L45.1329 12.1681C45.1289 12.1723 45.126 12.1774 45.1242 12.1829C45.1224 12.1884 45.1219 12.1942 45.1227 12.2L45.2007 12.8396C45.2166 12.9658 45.2038 13.0939 45.1633 13.2143C45.1228 13.3348 45.0556 13.4446 44.9667 13.5355C44.3718 14.146 43.8611 14.8332 43.4483 15.579C43.4078 15.6553 43.3555 15.7248 43.2935 15.785L42.0501 16.9898C41.9487 17.0882 41.8243 17.1597 41.6882 17.1979C41.5521 17.236 41.4086 17.2395 41.2709 17.208L40.5581 17.046C40.5508 17.0442 40.5431 17.0445 40.536 17.047C40.5289 17.0494 40.5226 17.0539 40.518 17.0599L40.1941 17.4697C40.1906 17.474 40.1881 17.479 40.1867 17.4844C40.1853 17.4897 40.1851 17.4953 40.186 17.5007L40.3382 18.4484C40.3704 18.6394 40.3358 18.8356 40.2404 19.0042C40.145 19.1727 39.9946 19.3034 39.8143 19.3741L39.0471 19.6798C38.9205 19.73 38.7837 19.749 38.6482 19.7352C38.5127 19.7214 38.3825 19.6752 38.2686 19.6006C38.1547 19.5259 38.0604 19.425 37.9937 19.3063C37.9269 19.1876 37.8897 19.0546 37.8851 18.9184C37.8851 18.9129 37.8839 18.9075 37.8816 18.9024C37.8792 18.8974 37.8759 18.8929 37.8717 18.8893C37.8679 18.8859 37.8633 18.8833 37.8584 18.8817C37.8535 18.8801 37.8484 18.8795 37.8433 18.88C37.3156 18.9286 36.4848 19.0156 35.5218 19.1557L33.2798 20.4565C33.271 20.4616 33.2644 20.4699 33.2615 20.4796L33.1597 20.8485C33.1578 20.8551 33.1577 20.862 33.1593 20.8686C33.1609 20.8753 33.1642 20.8814 33.1689 20.8864C33.1735 20.8913 33.1794 20.895 33.1859 20.8971C33.1924 20.8991 33.1993 20.8995 33.206 20.898L34.1222 20.7168C34.2523 20.6915 34.3866 20.6968 34.5143 20.7324C34.6421 20.7679 34.7598 20.8327 34.8581 20.9216L35.2823 21.3072C35.2905 21.3143 35.3011 21.318 35.3119 21.3174L36.3582 21.2294C36.3641 21.2289 36.3698 21.2271 36.3749 21.2241C36.38 21.2211 36.3843 21.217 36.3876 21.2121L36.6237 20.8649C36.7378 20.6977 36.9082 20.5769 37.1039 20.5245C37.7381 20.3585 38.4071 20.3827 39.0277 20.594L39.3917 20.5766C39.4093 20.5768 39.4269 20.5764 39.4445 20.5764Z" fill="#333333"/>
<path d="M28.5737 28.3095C28.5197 28.3095 28.4662 28.2987 28.4164 28.2778C28.3666 28.2568 28.3215 28.226 28.2838 28.1873L27.8026 27.6941C27.7046 27.5935 27.6426 27.4634 27.6261 27.3239C27.6097 27.1844 27.6397 27.0434 27.7117 26.9228L28.7857 25.1221C28.8659 24.9878 28.981 24.8777 29.1188 24.8036L29.4821 24.6079L29.4569 24.1987L29.0759 24.3827C28.9237 24.4561 28.7486 24.466 28.5891 24.4102C28.4295 24.3545 28.2987 24.2377 28.2252 24.0855L27.5018 22.5845C27.4586 22.4947 27.437 22.3961 27.4388 22.2964C27.4407 22.1968 27.4659 22.099 27.5124 22.0108C27.5589 21.9227 27.6255 21.8467 27.7067 21.789C27.788 21.7313 27.8816 21.6934 27.9801 21.6785L28.602 21.5839C28.7329 21.5642 28.8665 21.5747 28.9928 21.6146C29.119 21.6544 29.2344 21.7226 29.3303 21.8139L29.5214 21.9969C29.5289 22.0038 29.5381 22.0086 29.548 22.0108L30.7239 22.2594H30.7438L31.5394 22.1358C31.5981 22.1264 31.6581 22.1301 31.7151 22.1468C31.7722 22.1634 31.8248 22.1924 31.8692 22.2318L32.2395 22.5579C32.3827 22.6844 32.4803 22.8544 32.5172 23.0418L32.5704 23.3147L33.1999 23.2307C33.2831 23.2196 33.3677 23.2288 33.4466 23.2575C33.5254 23.2862 33.5962 23.3335 33.6529 23.3954C33.7095 23.4573 33.7504 23.5319 33.772 23.613C33.7937 23.6941 33.7954 23.7792 33.7771 23.8611L33.6211 24.557C33.6189 24.5668 33.6194 24.5772 33.6227 24.5868C33.626 24.5963 33.6318 24.6049 33.6396 24.6113L33.9911 24.9025C34.0524 24.9533 34.1012 25.0175 34.1339 25.0901C34.1665 25.1627 34.182 25.2419 34.1793 25.3214C34.1766 25.401 34.1556 25.4789 34.1181 25.5491C34.0806 25.6194 34.0275 25.6801 33.9629 25.7266L33.1326 26.3243C33.1018 26.3464 33.0696 26.3665 33.0363 26.3845L32.2383 26.8131C32.2288 26.8183 32.221 26.8261 32.2158 26.8356C32.2107 26.8452 32.2085 26.856 32.2094 26.8668L32.2768 27.6154C32.2847 27.7036 32.2743 27.7924 32.246 27.8762C32.2177 27.9601 32.1723 28.0371 32.1127 28.1024C32.053 28.1677 31.9803 28.2199 31.8994 28.2556C31.8184 28.2913 31.7309 28.3097 31.6424 28.3097H31.2793C31.0933 28.3106 30.912 28.2511 30.7627 28.1402C30.6134 28.0292 30.504 27.8729 30.4511 27.6946L30.2416 27.0003L28.838 28.2104C28.7647 28.2742 28.6709 28.3093 28.5737 28.3095ZM30.3296 26.0589C30.4664 26.0589 30.5996 26.1029 30.7096 26.1844C30.8195 26.2659 30.9003 26.3806 30.9401 26.5116L31.2266 27.4604C31.23 27.4717 31.237 27.4816 31.2465 27.4887C31.256 27.4958 31.2675 27.4997 31.2793 27.4997H31.4515L31.4011 26.9397C31.3858 26.7706 31.4206 26.6008 31.5012 26.4514C31.5817 26.3019 31.7045 26.1795 31.8542 26.0994L32.6533 25.6715L33.1856 25.288L33.1224 25.2359C32.999 25.1344 32.9064 25.0005 32.8548 24.8493C32.8031 24.6981 32.7946 24.5355 32.8301 24.3797L32.8954 24.0886L32.299 24.1682C32.1967 24.1817 32.093 24.1558 32.0092 24.0956C31.9254 24.0354 31.8677 23.9455 31.8479 23.8442L31.7216 23.1962C31.7193 23.1842 31.7131 23.1733 31.704 23.1652L31.4756 22.9643L30.8674 23.0587C30.7637 23.0751 30.6579 23.0724 30.5552 23.0506L29.38 22.8032C29.2226 22.77 29.0775 22.6935 28.9612 22.5824L28.7698 22.3992C28.7637 22.3933 28.7564 22.3889 28.7484 22.3863C28.7403 22.3838 28.7318 22.3832 28.7235 22.3846L28.3335 22.4438L28.8799 23.5778L29.337 23.357C29.4311 23.3117 29.5349 23.2902 29.6393 23.2944C29.7437 23.2986 29.8455 23.3284 29.9356 23.3812C30.0258 23.434 30.1016 23.5081 30.1564 23.5971C30.2111 23.686 30.2432 23.7871 30.2497 23.8914L30.2974 24.6685C30.3046 24.7898 30.2771 24.9107 30.2181 25.0169C30.1591 25.1232 30.071 25.2104 29.9641 25.2683L29.5029 25.5169C29.4941 25.5215 29.4867 25.5285 29.4816 25.537L28.4756 27.2239L28.5978 27.3491L29.9146 26.2137C30.0299 26.114 30.1771 26.059 30.3296 26.0589Z" fill="#333333"/>
<path d="M36.3746 26.3882C36.3444 26.3882 36.3142 26.3866 36.2842 26.3834L35.6984 26.3197C35.5607 26.305 35.4288 26.2563 35.3147 26.1778C35.2006 26.0993 35.1079 25.9936 35.0449 25.8703L34.9923 25.7678C34.9275 25.6402 34.8962 25.4981 34.9016 25.355C34.9069 25.2119 34.9487 25.0726 35.0229 24.9502L35.5982 24.0094C35.6893 23.8603 35.8249 23.7435 35.9858 23.6755C36.1468 23.6074 36.325 23.5916 36.4954 23.6301L36.9456 23.732C36.9496 23.7329 36.9538 23.7329 36.9579 23.7318C36.9619 23.7308 36.9656 23.7288 36.9687 23.7259L37.4727 23.2779C37.558 23.2021 37.6578 23.1445 37.7661 23.1087C37.8745 23.0728 37.989 23.0596 38.1026 23.0697C38.2162 23.0798 38.3266 23.113 38.4269 23.1674C38.5272 23.2218 38.6154 23.2961 38.6859 23.3857L39.0367 23.8329C39.14 23.9638 39.2016 24.1227 39.2136 24.2891C39.2256 24.4555 39.1873 24.6216 39.1038 24.766L38.7324 25.4112C38.6403 25.5707 38.4982 25.6954 38.3281 25.766C38.158 25.8366 37.9694 25.8491 37.7914 25.8016L37.4538 25.7111C37.4497 25.71 37.4455 25.71 37.4414 25.7111C37.4374 25.7121 37.4336 25.7142 37.4306 25.7171L36.9426 26.167C36.7879 26.3096 36.5851 26.3886 36.3746 26.3882ZM36.3115 24.4195C36.3068 24.4193 36.3022 24.4204 36.2981 24.4226C36.294 24.4249 36.2906 24.4282 36.2883 24.4322L35.7132 25.3727C35.711 25.3766 35.7099 25.381 35.7099 25.3855C35.7099 25.3899 35.711 25.3943 35.7132 25.3982L35.7655 25.5007C35.7675 25.5044 35.7704 25.5076 35.7739 25.51C35.7774 25.5124 35.7815 25.5139 35.7857 25.5144L36.3719 25.5782L36.881 25.1217C36.9843 25.0255 37.1105 24.9574 37.2475 24.9236C37.3846 24.8899 37.528 24.8917 37.6641 24.9289L38.0015 25.0194C38.0071 25.021 38.0131 25.0206 38.0184 25.0184C38.0237 25.0162 38.0282 25.0122 38.0309 25.0071L38.4012 24.3619C38.4038 24.3574 38.405 24.3523 38.4046 24.3471C38.4042 24.3419 38.4023 24.337 38.3991 24.333L38.0483 23.8861L38.0106 23.8828L37.507 24.3309C37.4075 24.4192 37.2885 24.4825 37.1598 24.5158C37.031 24.549 36.8962 24.5511 36.7664 24.522L36.3166 24.4202C36.3149 24.4198 36.3132 24.4196 36.3115 24.4195Z" fill="#333333"/>
</svg>
