<svg width="22" height="40" viewBox="0 0 22 40" fill="none" xmlns="http://www.w3.org/2000/svg">
<g clip-path="url(#clip0_268_39034)">
<path d="M3.74179 36.73V37.312C3.74179 38.535 4.78757 39.5301 6.07334 39.5301C7.3591 39.5301 8.40554 38.535 8.40554 37.312V36.7534H14.3958V37.312C14.3958 38.535 15.4422 39.5301 16.728 39.5301C18.0138 39.5301 19.0595 38.535 19.0595 37.312V36.73C20.3447 36.611 21.356 35.5895 21.356 34.3363V14.8944C21.356 13.5616 20.2163 12.4772 18.8152 12.4772H18.5025V11.7012C18.5025 11.0838 18.111 10.5535 17.5526 10.3181V1.68937H18.5483C18.9029 1.68937 19.1899 1.41609 19.1899 1.07906C19.1899 0.742031 18.9029 0.46875 18.5483 0.46875C15.377 0.46875 7.89419 0.46875 4.24936 0.46875C3.89472 0.46875 3.60775 0.742031 3.60775 1.07906C3.60775 1.41609 3.89472 1.68937 4.24936 1.68937H5.24438V10.3181C4.68597 10.5535 4.29445 11.0838 4.29445 11.7012V12.4772H3.98613C2.58505 12.4772 1.44531 13.5616 1.44531 14.8944V34.3362C1.44531 35.5894 2.45668 36.6109 3.74179 36.73ZM7.12224 37.312C7.12224 37.8621 6.65162 38.3094 6.07334 38.3094C5.49562 38.3094 5.02501 37.862 5.02501 37.312V36.7534H7.12224V37.312ZM17.7762 37.312C17.7762 37.8621 17.3056 38.3094 16.7279 38.3094C16.1495 38.3094 15.679 37.862 15.679 37.312V36.7534H17.7762V37.312ZM16.6026 11.7012C16.6026 11.5394 16.7411 11.4079 16.9109 11.4079C17.0808 11.4079 17.2192 11.5393 17.2192 11.7012V12.4772H16.6027V11.7012H16.6026ZM6.52761 1.68937H16.2693V10.3181C15.7109 10.5535 15.3194 11.0838 15.3194 11.7012V12.4772H7.47754V11.7012C7.47754 11.0838 7.08602 10.5535 6.52761 10.3181V1.68937ZM5.57767 11.7012C5.57767 11.5394 5.71615 11.4079 5.88599 11.4079C6.05584 11.4079 6.19432 11.5393 6.19432 11.7012V12.4772H5.57775L5.57767 11.7012ZM2.72853 14.8944C2.72853 14.2346 3.29245 13.6978 3.98613 13.6978C4.98008 13.6978 18.9028 13.6978 18.8151 13.6978C19.5088 13.6978 20.0727 14.2345 20.0727 14.8944V34.3362C20.0727 34.996 19.5088 35.5328 18.8151 35.5328C8.35692 35.5328 15.0579 35.5328 3.98613 35.5328C3.29253 35.5328 2.72853 34.9961 2.72853 34.3362V14.8944Z" fill="#333333"/>
<path d="M8.04793 32.9528C9.2197 32.9528 10.1733 32.0456 10.1733 30.9308V18.2997C10.1733 17.1845 9.21962 16.2773 8.04793 16.2773C6.87559 16.2773 5.92188 17.1845 5.92188 18.2997V30.9308C5.92188 32.0456 6.8755 32.9528 8.04793 32.9528ZM7.2051 18.2997C7.2051 17.8577 7.5829 17.498 8.04785 17.498C8.51213 17.498 8.89002 17.8577 8.89002 18.2997V30.9308C8.89002 31.3727 8.51222 31.7321 8.04785 31.7321C7.5829 31.7321 7.2051 31.3727 7.2051 30.9308V18.2997Z" fill="#333333"/>
<path d="M14.7504 32.9528C15.9227 32.9528 16.8765 32.0456 16.8765 30.9308V18.2997C16.8765 17.1845 15.9227 16.2773 14.7504 16.2773C13.5786 16.2773 12.625 17.1845 12.625 18.2997V30.9308C12.625 32.0456 13.5787 32.9528 14.7504 32.9528ZM13.9083 18.2997C13.9083 17.8577 14.2861 17.498 14.7505 17.498C15.2154 17.498 15.5932 17.8577 15.5932 18.2997V30.9308C15.5932 31.3727 15.2154 31.7321 14.7505 31.7321C14.2862 31.7321 13.9083 31.3727 13.9083 30.9308V18.2997Z" fill="#333333"/>
</g>
<defs>
<clipPath id="clip0_268_39034">
<rect width="21.25" height="40" fill="white" transform="translate(0.375)"/>
</clipPath>
</defs>
</svg>
