<svg width="80" height="59" viewBox="0 0 80 59" fill="none" xmlns="http://www.w3.org/2000/svg">
<g clip-path="url(#clip0_56_7316)">
<path d="M39.0004 19.4746C38.7781 19.4746 38.5977 19.6462 38.5977 19.8581V20.6334C38.5977 20.8453 38.7781 21.0169 39.0004 21.0169C39.2228 21.0169 39.4032 20.8453 39.4032 20.6334V19.8581C39.4032 19.6462 39.2228 19.4746 39.0004 19.4746Z" fill="#333333"/>
<path d="M33.1454 13.7656H31.5765C31.2062 13.7656 30.9047 14.0522 30.9047 14.4047V18.2541C30.9047 18.6067 31.2062 18.8933 31.5765 18.8933H33.1454C33.5158 18.8933 33.8173 18.6067 33.8173 18.2541V14.4047C33.8173 14.0522 33.5158 13.7656 33.1454 13.7656ZM33.011 18.1263H31.7109V14.5326H33.011V18.1263Z" fill="#333333"/>
<path d="M48.5717 13.7656H47.0028C46.6324 13.7656 46.3309 14.0522 46.3309 14.4047V18.2541C46.3309 18.6067 46.6324 18.8933 47.0028 18.8933H48.5717C48.942 18.8933 49.2435 18.6067 49.2435 18.2541V14.4047C49.2435 14.0522 48.942 13.7656 48.5717 13.7656ZM48.4373 18.1263H47.1372V14.5326H48.4373V18.1263Z" fill="#333333"/>
<path d="M40.2519 10.6797H39.9004C39.0282 10.6797 38.3187 11.3547 38.3187 12.1844V13.6419C38.3187 13.9461 38.5789 14.1936 38.8986 14.1936H41.2536C41.5734 14.1936 41.8335 13.9461 41.8335 13.6419V12.1844C41.8335 11.3547 41.124 10.6797 40.2519 10.6797ZM39.1248 13.4266V12.1844C39.1248 11.7776 39.4727 11.4466 39.9004 11.4466H40.2519C40.6793 11.4466 41.0272 11.7776 41.0272 12.1844V13.4266H39.1248Z" fill="#333333"/>
<path d="M53.4328 23.3049H51.5379V11.9868H53.164C53.3826 11.9868 53.5697 11.8889 53.6648 11.7249C53.7597 11.561 53.7467 11.358 53.6299 11.1823L50.3323 6.21963C50.1805 5.99095 49.8636 5.82498 49.5793 5.82498H41.0901L40.5577 5.21403C40.4359 5.07423 40.2601 4.99414 40.0758 4.99414C39.8912 4.99414 39.7157 5.07423 39.5939 5.21403L39.0615 5.82498H30.5722C30.2877 5.82498 29.9711 5.99095 29.8191 6.21963L26.5216 11.1823C26.4049 11.3582 26.3919 11.561 26.4868 11.7249C26.5819 11.8889 26.769 11.9868 26.9876 11.9868H28.6137V20.1669C28.2083 20.5358 27.9551 21.0545 27.9551 21.6291C27.9551 21.7343 27.9641 21.8376 27.9805 21.9386H27.8093C27.439 21.9386 27.1375 22.2254 27.1375 22.5777V23.3049H26.7188C26.4962 23.3049 26.3157 23.4767 26.3157 23.6884C26.3157 23.9003 26.4962 24.0719 26.7188 24.0719H53.4328C53.6553 24.0719 53.8359 23.9003 53.8359 23.6884C53.8359 23.4767 53.6553 23.3049 53.4328 23.3049ZM51.7781 9.83077H44.5814L44.0468 9.21723H51.3703L51.7781 9.83077ZM50.453 7.83676L50.8607 8.45031H43.3783L42.8435 7.83676H50.453ZM49.5751 6.59191C49.5972 6.5955 49.6381 6.61707 49.653 6.63285L49.9434 7.06984H42.175L41.7586 6.59191H49.5751ZM29.6986 7.83676H32.3895C32.612 7.83676 32.7926 7.665 32.7926 7.4533C32.7926 7.2414 32.612 7.06984 32.3895 7.06984H30.208L30.4986 6.63265C30.5135 6.61707 30.5544 6.5955 30.5762 6.59191H38.3929L37.9764 7.06984H34.2707C34.0482 7.06984 33.8676 7.2414 33.8676 7.4533C33.8676 7.665 34.0482 7.83676 34.2707 7.83676H37.3081L36.7733 8.45031H29.2908L29.6986 7.83676ZM28.7813 9.21723H36.1048L35.57 9.83077H28.3735L28.7813 9.21723ZM27.4505 11.2198L27.8639 10.5977H34.9017L34.3593 11.2198H27.4505ZM35.2261 19.5845C34.9208 19.419 34.5699 19.3245 34.2002 19.3245C33.4739 19.3245 32.8006 19.6924 32.4247 20.2684C32.324 20.2496 32.2209 20.2402 32.1161 20.2402C31.9656 20.2402 31.8198 20.2604 31.6815 20.2975C31.2836 19.8679 30.7024 19.6049 30.0828 19.6049C29.8514 19.6049 29.6287 19.6409 29.42 19.7062V11.9868H33.6908C33.5445 12.1549 33.5086 12.359 33.5944 12.533C33.6805 12.7072 33.8691 12.8112 34.0988 12.8112H35.2261V19.5845ZM30.521 21.9386H28.8027C28.7762 21.8396 28.7613 21.7359 28.7613 21.6291C28.7613 20.9358 29.3543 20.3718 30.0828 20.3718C30.4156 20.3718 30.7306 20.4943 30.9697 20.6998C30.6858 20.9756 30.5105 21.3527 30.5105 21.7681C30.5105 21.8258 30.5143 21.8827 30.521 21.9386ZM35.2261 23.3049H27.9437V22.7056H35.2261V23.3049ZM35.2263 21.9386H31.3378C31.3243 21.8839 31.3168 21.8268 31.3168 21.7681C31.3168 21.3485 31.6754 21.0071 32.1161 21.0071C32.2354 21.0071 32.3502 21.0317 32.4575 21.0798C32.5589 21.1256 32.6754 21.1288 32.7796 21.0894C32.8837 21.0499 32.9656 20.9708 33.0061 20.8713C33.1953 20.4048 33.6755 20.0914 34.2004 20.0914C34.6147 20.0914 34.9905 20.2847 35.2263 20.5847V21.9386ZM34.6881 12.0443L40.0758 5.86273L45.4634 12.0443H44.7525L40.3861 7.03469C40.3095 6.94701 40.1957 6.89608 40.0758 6.89608C39.9557 6.89608 39.8419 6.94701 39.7655 7.03489L35.3991 12.0443H34.6881ZM41.7828 23.3049H38.3688V17.3535H41.7828V23.3049ZM50.7316 23.3049H44.9255V18.6744C44.9255 18.4627 44.7449 18.2909 44.5224 18.2909C44.2998 18.2909 44.1192 18.4627 44.1192 18.6744V23.3049H42.589V17.2256C42.589 16.8733 42.2877 16.5865 41.9172 16.5865H38.2344C37.8638 16.5865 37.5625 16.8733 37.5625 17.2256V23.3049H36.0323V12.5194L40.0758 7.8803L44.1192 12.5194V16.8593C44.1192 17.0712 44.2998 17.2428 44.5224 17.2428C44.7449 17.2428 44.9255 17.0712 44.9255 16.8593V12.8112H46.0526C46.2823 12.8112 46.4708 12.7072 46.5569 12.533C46.643 12.359 46.6069 12.1549 46.4608 11.9868H48.0309C48.2534 11.9868 48.434 11.8152 48.434 11.6033C48.434 11.3916 48.2534 11.2198 48.0309 11.2198H45.7922L45.2499 10.5977H52.2876L52.7011 11.2198H49.9659C49.7433 11.2198 49.5627 11.3916 49.5627 11.6033C49.5627 11.8152 49.7433 11.9868 49.9659 11.9868H50.7316V23.3049Z" fill="#333333"/>
</g>
<defs>
<clipPath id="clip0_56_7316">
<rect width="27.5202" height="26.1778" fill="white" transform="translate(26.3157 1.4668)"/>
</clipPath>
</defs>
</svg>
