<svg width="232" height="201" viewBox="0 0 232 201" fill="none" xmlns="http://www.w3.org/2000/svg">
<g clip-path="url(#clip0_18_17773)">
<path d="M133.192 88.604C126.927 88.604 121.83 93.7262 121.83 100.022C121.83 106.319 126.927 111.441 133.192 111.441C139.457 111.441 144.554 106.319 144.554 100.022C144.554 93.7262 139.457 88.604 133.192 88.604Z" fill="#DEEDE4"/>
<path d="M140.719 53.9917V74.5823C146.554 76.3285 151.549 80.0483 154.933 84.9718L174.421 78.6081C167.794 65.7731 155.404 56.4076 140.719 53.9917Z" fill="#DEEDE4"/>
<path d="M179.084 92.9897L159.59 99.3553C159.596 99.5778 159.607 99.7989 159.607 100.022C159.607 106.085 157.57 111.675 154.154 116.149L166.19 132.796C174.483 124.365 179.611 112.785 179.611 100.022C179.611 97.6324 179.43 95.2839 179.084 92.9897Z" fill="#DEEDE4"/>
<path d="M133.194 0.450195H41.6396C37.4836 0.450195 34.1142 3.8363 34.1142 8.01296C34.1142 12.1896 37.4836 15.5757 41.6396 15.5757H80.7574C72.5043 20.77 65.0629 27.1492 58.673 34.4781H7.52346C3.36743 34.4785 -0.00195312 37.8651 -0.00195312 42.0417C-0.00195312 46.2184 3.36743 49.6045 7.52346 49.6045H47.7863C39.1041 64.4018 34.1137 81.6364 34.1137 100.022C34.1137 121.416 40.8638 141.254 52.3334 157.503H30.9812C26.8251 157.503 23.4558 160.889 23.4558 165.066C23.4558 169.242 26.8251 172.628 30.9812 172.628H65.4684C70.1607 177.052 75.2803 181.021 80.7574 184.468H8.29969C4.14365 184.468 0.77427 187.854 0.77427 192.031C0.77427 196.208 4.14365 199.594 8.29969 199.594H133.194C187.828 199.594 232.275 154.926 232.275 100.022C232.275 45.1178 187.828 0.450195 133.194 0.450195ZM169.75 149.653C169.612 149.771 169.474 149.89 169.325 149.998C169.157 150.12 168.985 150.235 168.811 150.341C158.756 157.55 146.46 161.795 133.194 161.795C119.929 161.795 107.633 157.55 97.5776 150.341C97.4034 150.235 97.2319 150.12 97.064 149.998C96.9152 149.889 96.7778 149.77 96.6389 149.653C81.5341 138.388 71.7259 120.335 71.7259 100.022C71.7259 65.9601 99.3006 38.2485 133.194 38.2485C167.088 38.2485 194.663 65.9601 194.663 100.022C194.663 120.336 184.855 138.388 169.75 149.653Z" fill="#DEEDE4"/>
<path d="M91.9678 78.6076L111.455 84.9713C114.841 80.0483 119.835 76.3284 125.67 74.5818V53.9912C110.985 56.4076 98.5958 65.7726 91.9678 78.6076Z" fill="#DEEDE4"/>
<path d="M141.987 125.05C139.235 126.029 136.278 126.568 133.195 126.568C130.114 126.568 127.156 126.029 124.404 125.05L112.365 141.701C118.633 144.877 125.709 146.67 133.195 146.67C140.681 146.67 147.758 144.878 154.025 141.701L141.987 125.05Z" fill="#DEEDE4"/>
<path d="M106.779 100.022C106.779 99.7989 106.79 99.5778 106.795 99.3553L87.3016 92.9897C86.955 95.2839 86.7744 97.6324 86.7744 100.022C86.7744 112.785 91.9031 124.366 100.196 132.797L112.231 116.149C108.816 111.675 106.779 106.085 106.779 100.022Z" fill="#DEEDE4"/>
</g>
<defs>
<clipPath id="clip0_18_17773">
<rect width="232.277" height="200" fill="white" transform="translate(0 0.0224609)"/>
</clipPath>
</defs>
</svg>
