<svg width="414" height="331" viewBox="0 0 414 331" fill="none" xmlns="http://www.w3.org/2000/svg">
<path d="M45.5 0.652344H6.5C4.77609 0.652344 3.12279 1.19559 1.90381 2.16257C0.68482 3.12956 0 4.44107 0 5.80859L0 330.652H52V5.80859C52 4.44107 51.3152 3.12956 50.0962 2.16257C48.8772 1.19559 47.2239 0.652344 45.5 0.652344Z" fill="white" fill-opacity="0.5"/>
<path d="M407.531 39.5137H64.6875V91.014H407.531C409.247 91.014 410.892 90.3357 412.105 89.1285C413.318 87.9212 414 86.2838 414 84.5764V45.9512C414 44.2439 413.318 42.6065 412.105 41.3992C410.892 40.1919 409.247 39.5137 407.531 39.5137Z" fill="white" fill-opacity="0.5"/>
<path d="M310.5 123.201C311.6 123.201 312.635 123.201 313.734 123.266V103.889H152.016V123.266C153.115 123.201 154.15 123.201 155.25 123.201H310.5Z" fill="white" fill-opacity="0.5"/>
<path d="M232.875 213.326C243.593 213.326 252.281 204.68 252.281 194.014C252.281 183.348 243.593 174.701 232.875 174.701C222.157 174.701 213.469 183.348 213.469 194.014C213.469 204.68 222.157 213.326 232.875 213.326Z" fill="white" fill-opacity="0.5"/>
<path d="M310.5 213.326C321.218 213.326 329.906 204.68 329.906 194.014C329.906 183.348 321.218 174.701 310.5 174.701C299.782 174.701 291.094 183.348 291.094 194.014C291.094 204.68 299.782 213.326 310.5 213.326Z" fill="white" fill-opacity="0.5"/>
<path d="M310.5 136.076H155.25C139.809 136.076 125.001 142.18 114.083 153.046C103.165 163.911 97.0313 178.648 97.0312 194.014C97.0312 209.38 103.165 224.117 114.083 234.982C125.001 245.848 139.809 251.952 155.25 251.952H310.5C325.941 251.952 340.749 245.848 351.667 234.982C362.585 224.117 368.719 209.38 368.719 194.014C368.719 178.648 362.585 163.911 351.667 153.046C340.749 142.18 325.941 136.076 310.5 136.076ZM155.25 226.202C148.853 226.202 142.6 224.314 137.281 220.777C131.962 217.24 127.816 212.213 125.368 206.332C122.92 200.45 122.28 193.978 123.528 187.735C124.776 181.491 127.856 175.755 132.38 171.254C136.903 166.752 142.666 163.687 148.94 162.445C155.214 161.203 161.717 161.84 167.627 164.276C173.537 166.713 178.589 170.838 182.143 176.131C185.697 181.425 187.594 187.648 187.594 194.014C187.583 202.548 184.173 210.729 178.109 216.763C172.046 222.797 163.825 226.191 155.25 226.202ZM232.875 226.202C226.478 226.202 220.225 224.314 214.906 220.777C209.587 217.24 205.441 212.213 202.993 206.332C200.545 200.45 199.905 193.978 201.153 187.735C202.401 181.491 205.481 175.755 210.005 171.254C214.528 166.752 220.291 163.687 226.565 162.445C232.839 161.203 239.342 161.84 245.252 164.276C251.162 166.713 256.214 170.838 259.768 176.131C263.322 181.425 265.219 187.648 265.219 194.014C265.208 202.548 261.798 210.729 255.734 216.763C249.671 222.797 241.45 226.191 232.875 226.202ZM310.5 226.202C304.103 226.202 297.85 224.314 292.531 220.777C287.212 217.24 283.066 212.213 280.618 206.332C278.17 200.45 277.53 193.978 278.778 187.735C280.026 181.491 283.106 175.755 287.629 171.254C292.153 166.752 297.916 163.687 304.19 162.445C310.464 161.203 316.967 161.84 322.877 164.276C328.787 166.713 333.839 170.838 337.393 176.131C340.947 181.425 342.844 187.648 342.844 194.014C342.833 202.548 339.423 210.729 333.359 216.763C327.296 222.797 319.075 226.191 310.5 226.202Z" fill="white" fill-opacity="0.5"/>
<path d="M155.25 213.326C165.968 213.326 174.656 204.68 174.656 194.014C174.656 183.348 165.968 174.701 155.25 174.701C144.532 174.701 135.844 183.348 135.844 194.014C135.844 204.68 144.532 213.326 155.25 213.326Z" fill="white" fill-opacity="0.5"/>
</svg>
