<svg width="422" height="200" viewBox="0 0 422 200" fill="none" xmlns="http://www.w3.org/2000/svg">
<g clip-path="url(#clip0_194_12313)">
<path d="M379.393 146.789C393.855 146.789 405.627 158.56 405.627 173.024C405.627 187.492 393.854 199.265 379.393 199.265C364.917 199.265 353.15 187.492 353.15 173.024C353.15 158.56 364.917 146.789 379.393 146.789ZM379.393 191.234C389.432 191.234 397.606 183.072 397.606 173.023C397.606 162.978 389.438 154.809 379.393 154.809C369.345 154.809 361.169 162.978 361.169 173.023C361.17 183.072 369.345 191.234 379.393 191.234ZM0 103.754V87.3091L16.4131 15.0615C16.4131 10.0561 23.6784 10.0561 26.4449 10.0561H113.152C115.915 10.0561 118.164 10.5811 118.164 15.0615V146.638C118.164 159.746 115.915 161.996 113.152 161.996H95.4643C89.9162 149.783 77.6069 141.27 63.3372 141.27C49.0772 141.27 36.7832 149.787 31.2247 161.996H5.01825C2.24942 161.996 0 159.746 0 156.98V131.684H4.71481V103.754H0ZM79.5336 87.2104H98.4932V83.3602H79.5336V87.2104ZM102.293 77.2099V23.4258H29.8864L21.6096 77.2099H102.293ZM18.1616 150.301H31.602C35.3984 143.062 43.6752 137.887 43.6752 137.887H18.1616V150.301ZM404.461 133.081H130.19V164.5H275.545C280.475 150.957 293.474 141.27 308.691 141.27C323.911 141.27 336.901 150.956 341.832 164.5H345.08C350.009 150.957 362.997 141.27 378.217 141.27C393.211 141.27 406.04 150.679 411.132 163.897C417.406 162.092 422 156.316 422 149.454V148.118C422 144.719 420.83 141.63 418.938 139.112V126.844L419.08 1.37305H134.563L134.849 126.852H404.461V133.081ZM64.5142 146.789C78.9813 146.789 90.7551 158.56 90.7551 173.024C90.7551 187.492 78.9821 199.265 64.5142 199.265C50.0462 199.265 38.2748 187.492 38.2748 173.024C38.2748 158.56 50.0454 146.789 64.5142 146.789ZM64.5142 191.234C74.5587 191.234 82.7279 183.072 82.7279 173.023C82.7279 162.978 74.5675 154.809 64.5142 154.809C54.4648 154.809 46.2932 162.978 46.2932 173.023C46.2923 183.072 54.472 191.234 64.5142 191.234ZM309.867 146.789C324.333 146.789 336.107 158.56 336.107 173.024C336.107 187.492 324.333 199.265 309.867 199.265C295.395 199.265 283.628 187.492 283.628 173.024C283.628 158.56 295.395 146.789 309.867 146.789ZM309.867 191.234C319.906 191.234 328.084 183.072 328.084 173.023C328.084 162.978 319.911 154.809 309.867 154.809C299.823 154.809 291.648 162.978 291.648 173.023C291.647 183.072 299.823 191.234 309.867 191.234Z" fill="white" fill-opacity="0.5"/>
</g>
<defs>
<clipPath id="clip0_194_12313">
<rect width="422" height="199" fill="white" transform="matrix(-1 0 0 1 422 0.652344)"/>
</clipPath>
</defs>
</svg>
