<svg width="357" height="262" viewBox="0 0 357 262" fill="none" xmlns="http://www.w3.org/2000/svg">
<path d="M48.6819 66.2233H97.3637V1.31445H324.545C342.477 1.31445 357 15.8376 357 33.7693V212.27H324.545C324.545 239.126 302.72 260.952 275.863 260.952C249.007 260.952 227.181 239.126 227.181 212.27H129.818C129.818 239.126 107.992 260.952 81.1359 260.952C54.2795 260.952 32.4541 239.126 32.4541 212.27H-0.000762939V131.133L48.6819 66.2233ZM275.863 236.61C289.332 236.61 300.204 225.738 300.204 212.269C300.204 198.8 289.332 187.928 275.863 187.928C262.394 187.928 251.522 198.8 251.522 212.269C251.522 225.738 262.395 236.61 275.863 236.61ZM81.1359 236.61C94.6048 236.61 105.477 225.738 105.477 212.269C105.477 198.8 94.6048 187.928 81.1359 187.928C67.667 187.928 56.795 198.8 56.795 212.269C56.795 225.738 67.6678 236.61 81.1359 236.61ZM97.3637 131.133V90.565H56.7958L24.9091 131.133H97.3637Z" fill="#6FBAD9" fill-opacity="0.5"/>
</svg>
