<svg width="417" height="381" viewBox="0 0 417 381" fill="none" xmlns="http://www.w3.org/2000/svg">
<g clip-path="url(#clip0_194_7819)">
<path d="M220.084 278.619C217.69 278.184 215.427 277.205 213.471 275.757C211.516 274.309 209.919 272.431 208.804 270.268C207.426 267.613 206.81 264.629 207.024 261.645C207.238 258.662 208.274 255.796 210.016 253.365L239.378 213.059L203.787 164.134C203.596 163.875 203.481 163.567 203.456 163.246C203.43 162.925 203.494 162.603 203.641 162.317C203.788 162.03 204.011 161.79 204.287 161.623C204.562 161.457 204.879 161.37 205.201 161.373H216.784C218.178 161.326 219.533 160.901 220.704 160.144C221.875 159.387 222.819 158.326 223.434 157.075C224.049 155.823 224.313 154.428 224.198 153.039C224.082 151.649 223.591 150.317 222.778 149.184L173.246 76.4864C173.07 76.2232 172.968 75.9171 172.951 75.6005C172.935 75.2839 173.005 74.9688 173.153 74.6889C173.302 74.4089 173.524 74.1745 173.795 74.0107C174.067 73.847 174.377 73.7599 174.694 73.7589H184.729C185.808 73.7391 186.859 73.4109 187.758 72.8131C188.657 72.2152 189.366 71.3727 189.801 70.385C190.236 69.3972 190.38 68.3055 190.215 67.2387C190.05 66.1719 189.584 65.1746 188.87 64.3645L143.851 3.2837C143.178 2.38216 142.304 1.6501 141.299 1.1458C140.294 0.641507 139.184 0.378906 138.059 0.378906C136.935 0.378906 135.825 0.641507 134.82 1.1458C133.814 1.6501 132.94 2.38216 132.268 3.2837L87.2485 64.3645C86.538 65.1756 86.0737 66.1726 85.9104 67.2384C85.747 68.3043 85.8913 69.3946 86.3262 70.3813C86.7612 71.3679 87.4688 72.2099 88.3659 72.8082C89.2629 73.4066 90.3121 73.7364 91.3902 73.7589H101.424C101.741 73.7599 102.052 73.847 102.324 74.0107C102.595 74.1745 102.817 74.4089 102.965 74.6889C103.114 74.9688 103.184 75.2839 103.168 75.6005C103.151 75.9171 103.049 76.2232 102.872 76.4864L53.341 149.184C52.5272 150.319 52.0373 151.654 51.9238 153.046C51.8102 154.439 52.0773 155.835 52.6964 157.087C53.3155 158.339 54.2634 159.4 55.4386 160.155C56.6138 160.909 57.9721 161.331 59.3682 161.373H70.9513C71.2709 161.376 71.5836 161.466 71.8555 161.634C72.1274 161.802 72.3482 162.041 72.4939 162.326C72.6396 162.61 72.7046 162.929 72.682 163.248C72.6594 163.567 72.5499 163.873 72.3656 164.134L19.5007 236.798C18.6871 237.931 18.1963 239.263 18.0807 240.653C17.9651 242.043 18.2291 243.438 18.8445 244.689C19.4598 245.94 20.4034 247.001 21.5746 247.758C22.7458 248.515 24.1006 248.94 25.4943 248.987H41.0507C41.3531 248.991 41.6494 249.073 41.9108 249.225C42.1722 249.377 42.3898 249.594 42.5424 249.855C42.695 250.116 42.7774 250.412 42.7815 250.714C42.7856 251.017 42.7114 251.315 42.566 251.58L1.85666 324.412C1.04303 325.545 0.552236 326.877 0.436654 328.267C0.321072 329.657 0.585045 331.052 1.20039 332.303C1.81574 333.555 2.75937 334.616 3.93055 335.373C5.10173 336.13 6.4565 336.554 7.85025 336.602H114.253V372.088C114.253 373.21 114.473 374.32 114.902 375.356C115.331 376.392 115.96 377.333 116.752 378.126C117.545 378.919 118.486 379.548 119.522 379.978C120.558 380.407 121.668 380.628 122.789 380.628H153.346C154.468 380.628 155.578 380.407 156.614 379.978C157.65 379.548 158.591 378.919 159.383 378.126C160.176 377.333 160.805 376.392 161.233 375.356C161.662 374.32 161.883 373.21 161.882 372.088V336.602H194.46C193.513 334.205 193.151 331.617 193.403 329.053C193.655 326.488 194.513 324.02 195.908 321.853L220.084 278.619Z" fill="white" fill-opacity="0.5"/>
<path d="M415.48 327.155L383.95 270.775C383.831 270.569 383.769 270.335 383.769 270.097C383.77 269.86 383.834 269.626 383.954 269.421C384.074 269.216 384.246 269.046 384.453 268.929C384.66 268.812 384.894 268.752 385.132 268.754H397.152C398.23 268.715 399.276 268.386 400.181 267.8C401.086 267.215 401.816 266.396 402.294 265.43C402.771 264.464 402.979 263.386 402.894 262.312C402.809 261.237 402.436 260.206 401.813 259.326L360.885 203.094C360.736 202.893 360.646 202.655 360.625 202.405C360.604 202.156 360.653 201.906 360.766 201.683C360.879 201.46 361.053 201.273 361.266 201.143C361.48 201.012 361.725 200.944 361.975 200.946H370.949C372.029 200.908 373.078 200.579 373.985 199.992C374.892 199.406 375.624 198.585 376.101 197.616C376.579 196.647 376.785 195.567 376.698 194.49C376.611 193.413 376.233 192.38 375.606 191.501L337.25 135.202C337.11 134.999 337.029 134.761 337.015 134.516C337 134.27 337.054 134.025 337.169 133.807C337.284 133.589 337.457 133.407 337.668 133.281C337.88 133.155 338.122 133.089 338.368 133.09H346.133C346.971 133.079 347.788 132.828 348.487 132.366C349.187 131.905 349.739 131.252 350.078 130.486C350.418 129.72 350.53 128.872 350.402 128.044C350.274 127.216 349.91 126.442 349.355 125.814L314.491 78.525C313.973 77.8225 313.296 77.2516 312.517 76.8582C311.737 76.4647 310.876 76.2598 310.003 76.2598C309.13 76.2598 308.269 76.4647 307.489 76.8582C306.71 77.2516 306.033 77.8225 305.514 78.525L270.651 125.814C270.096 126.442 269.732 127.216 269.604 128.044C269.476 128.872 269.588 129.72 269.928 130.486C270.267 131.252 270.819 131.905 271.518 132.366C272.218 132.828 273.035 133.079 273.873 133.09H281.638C281.884 133.089 282.126 133.155 282.338 133.281C282.549 133.407 282.722 133.589 282.837 133.807C282.952 134.025 283.006 134.27 282.991 134.516C282.977 134.761 282.895 134.999 282.756 135.202L244.4 191.481C243.769 192.36 243.388 193.394 243.299 194.473C243.21 195.552 243.415 196.635 243.894 197.606C244.372 198.577 245.105 199.4 246.014 199.987C246.923 200.574 247.975 200.903 249.057 200.939H258.03C258.281 200.938 258.526 201.006 258.74 201.136C258.953 201.266 259.127 201.453 259.24 201.676C259.353 201.899 259.402 202.149 259.381 202.399C259.36 202.648 259.27 202.886 259.121 203.087L218.193 259.319C217.57 260.199 217.196 261.23 217.112 262.305C217.027 263.379 217.234 264.457 217.712 265.423C218.19 266.389 218.92 267.208 219.825 267.794C220.73 268.379 221.776 268.708 222.853 268.748H234.874C235.112 268.745 235.346 268.805 235.553 268.922C235.76 269.039 235.932 269.209 236.052 269.414C236.172 269.619 236.236 269.853 236.237 270.091C236.237 270.328 236.175 270.562 236.056 270.768L204.526 327.155C203.903 328.034 203.529 329.066 203.444 330.14C203.36 331.215 203.567 332.292 204.045 333.258C204.522 334.225 205.252 335.044 206.157 335.629C207.062 336.214 208.109 336.544 209.186 336.583H291.557V373.406C291.557 375.318 292.317 377.15 293.668 378.502C295.019 379.853 296.852 380.612 298.763 380.612H321.243C323.154 380.612 324.987 379.853 326.338 378.502C327.689 377.15 328.448 375.318 328.448 373.406V336.6H410.82C411.9 336.563 412.949 336.234 413.857 335.647C414.765 335.061 415.497 334.24 415.975 333.271C416.453 332.302 416.659 331.222 416.572 330.145C416.485 329.068 416.108 328.034 415.48 327.155Z" fill="white" fill-opacity="0.5"/>
</g>
<defs>
<clipPath id="clip0_194_7819">
<rect width="417" height="381" fill="white"/>
</clipPath>
</defs>
</svg>
