<svg width="30" height="28" viewBox="0 0 30 28" fill="none" xmlns="http://www.w3.org/2000/svg">
<g clip-path="url(#clip0_194_7419)">
<path d="M14.0695 19.2617C13.8343 19.2617 13.6436 19.4452 13.6436 19.6719V20.5012C13.6436 20.7278 13.8343 20.9113 14.0695 20.9113C14.3046 20.9113 14.4953 20.7278 14.4953 20.5012V19.6719C14.4953 19.4452 14.3046 19.2617 14.0695 19.2617Z" fill="white"/>
<path d="M7.88631 13.1562H6.22887C5.83758 13.1562 5.51904 13.4628 5.51904 13.8398V17.9572C5.51904 18.3343 5.83758 18.6408 6.22887 18.6408H7.88631C8.27761 18.6408 8.59614 18.3343 8.59614 17.9572V13.8398C8.59614 13.4628 8.27761 13.1562 7.88631 13.1562ZM7.74435 17.8205H6.37083V13.9766H7.74435V17.8205Z" fill="white"/>
<path d="M24.1842 13.1562H22.5267C22.1354 13.1562 21.8169 13.4628 21.8169 13.8398V17.9572C21.8169 18.3343 22.1354 18.6408 22.5267 18.6408H24.1842C24.5755 18.6408 24.894 18.3343 24.894 17.9572V13.8398C24.894 13.4628 24.5755 13.1562 24.1842 13.1562ZM24.0422 17.8205H22.6687V13.9766H24.0422V17.8205Z" fill="white"/>
<path d="M15.39 9.85547H15.0186C14.0972 9.85547 13.3477 10.5775 13.3477 11.4649V13.0239C13.3477 13.3493 13.6225 13.614 13.9603 13.614H16.4483C16.7861 13.614 17.0609 13.3493 17.0609 13.0239V11.4649C17.0609 10.5775 16.3114 9.85547 15.39 9.85547ZM14.1992 12.7936V11.4649C14.1992 11.0298 14.5668 10.6758 15.0186 10.6758H15.39C15.8416 10.6758 16.2091 11.0298 16.2091 11.4649V12.7936H14.1992Z" fill="white"/>
<path d="M29.3166 23.3588H27.3146V11.2528H29.0326C29.2635 11.2528 29.4612 11.1481 29.5617 10.9727C29.6619 10.7974 29.6482 10.5803 29.5249 10.3923L26.0409 5.08423C25.8806 4.83963 25.5458 4.66211 25.2455 4.66211H16.2768L15.7143 4.00864C15.5856 3.8591 15.4 3.77344 15.2052 3.77344C15.0102 3.77344 14.8248 3.8591 14.6961 4.00864L14.1336 4.66211H5.16494C4.86437 4.66211 4.52987 4.83963 4.36927 5.08423L0.885575 10.3923C0.762243 10.5805 0.74849 10.7974 0.848753 10.9727C0.949237 11.1481 1.14688 11.2528 1.3778 11.2528H3.0958V20.0024C2.66746 20.3969 2.39995 20.9517 2.39995 21.5663C2.39995 21.6789 2.40948 21.7893 2.42679 21.8974H2.246C1.85471 21.8974 1.53618 22.2042 1.53618 22.581V23.3588H1.09386C0.858735 23.3588 0.667969 23.5425 0.667969 23.769C0.667969 23.9956 0.858735 24.1791 1.09386 24.1791H29.3166C29.5517 24.1791 29.7425 23.9956 29.7425 23.769C29.7425 23.5425 29.5517 23.3588 29.3166 23.3588ZM27.5684 8.94675H19.9653L19.4005 8.2905H27.1376L27.5684 8.94675ZM26.1685 6.81393L26.5993 7.47018H18.6942L18.1293 6.81393H26.1685ZM25.2411 5.48242C25.2643 5.48627 25.3076 5.50934 25.3233 5.52621L25.6301 5.99362H17.423L16.9831 5.48242H25.2411ZM4.24195 6.81393H7.0848C7.31993 6.81393 7.5107 6.63022 7.5107 6.40378C7.5107 6.17712 7.31993 5.99362 7.0848 5.99362H4.78008L5.08708 5.526C5.10283 5.50934 5.14609 5.48627 5.16916 5.48242H13.4273L12.9872 5.99362H9.07231C8.83718 5.99362 8.64642 6.17712 8.64642 6.40378C8.64642 6.63022 8.83718 6.81393 9.07231 6.81393H12.2812L11.7162 7.47018H3.81117L4.24195 6.81393ZM3.27281 8.2905H11.0099L10.4449 8.94675H2.84203L3.27281 8.2905ZM1.86691 10.4325L2.30368 9.76706H9.73888L9.16592 10.4325H1.86691ZM10.0816 19.3795C9.75907 19.2024 9.38841 19.1013 8.99778 19.1013C8.2305 19.1013 7.51912 19.4948 7.12207 20.1109C7.01559 20.0908 6.90668 20.0808 6.79599 20.0808C6.63694 20.0808 6.483 20.1024 6.33682 20.1421C5.91647 19.6826 5.30247 19.4012 4.64788 19.4012C4.40343 19.4012 4.16808 19.4397 3.94759 19.5096V11.2528H8.45964C8.30504 11.4327 8.2671 11.651 8.35783 11.8371C8.44878 12.0233 8.64797 12.1346 8.89064 12.1346H10.0816V19.3795ZM5.11082 21.8974H3.29544C3.26749 21.7915 3.25174 21.6806 3.25174 21.5663C3.25174 20.8248 3.87816 20.2216 4.64788 20.2216C4.99946 20.2216 5.33219 20.3525 5.58485 20.5723C5.28495 20.8673 5.09973 21.2707 5.09973 21.715C5.09973 21.7767 5.10372 21.8376 5.11082 21.8974ZM10.0816 23.3588H2.38797V22.7177H10.0816V23.3588ZM10.0818 21.8974H5.9737C5.9595 21.8389 5.95152 21.7778 5.95152 21.715C5.95152 21.2662 6.33039 20.9011 6.79599 20.9011C6.92198 20.9011 7.04332 20.9274 7.15667 20.9789C7.26381 21.0278 7.38692 21.0312 7.49694 20.9891C7.60697 20.9468 7.69348 20.8622 7.73629 20.7558C7.93615 20.2568 8.44345 19.9216 8.998 19.9216C9.43566 19.9216 9.83272 20.1284 10.0818 20.4493V21.8974ZM9.51329 11.3143L15.2052 4.70248L20.8971 11.3143H20.146L15.5331 5.95602C15.4521 5.86224 15.3319 5.80777 15.2052 5.80777C15.0783 5.80777 14.9581 5.86224 14.8774 5.95624L10.2644 11.3143H9.51329ZM17.0086 23.3588H13.4018V16.9931H17.0086V23.3588ZM26.4628 23.3588H20.3288V18.406C20.3288 18.1795 20.1381 17.9958 19.9029 17.9958C19.6678 17.9958 19.477 18.1795 19.477 18.406V23.3588H17.8604V16.8564C17.8604 16.4795 17.5421 16.1728 17.1506 16.1728H13.2598C12.8683 16.1728 12.55 16.4795 12.55 16.8564V23.3588H10.9334V11.8225L15.2052 6.8605L19.477 11.8225V16.4646C19.477 16.6912 19.6678 16.8747 19.9029 16.8747C20.1381 16.8747 20.3288 16.6912 20.3288 16.4646V12.1346H21.5196C21.7622 12.1346 21.9614 12.0233 22.0524 11.8371C22.1433 11.651 22.1052 11.4327 21.9508 11.2528H23.6096C23.8447 11.2528 24.0355 11.0693 24.0355 10.8427C24.0355 10.6162 23.8447 10.4325 23.6096 10.4325H21.2445L20.6715 9.76706H28.1068L28.5435 10.4325H25.6539C25.4187 10.4325 25.228 10.6162 25.228 10.8427C25.228 11.0693 25.4187 11.2528 25.6539 11.2528H26.4628V23.3588Z" fill="white"/>
</g>
<defs>
<clipPath id="clip0_194_7419">
<rect width="29.0745" height="28" fill="white" transform="translate(0.667969)"/>
</clipPath>
</defs>
</svg>
