<svg width="407" height="408" viewBox="0 0 407 408" fill="none" xmlns="http://www.w3.org/2000/svg">
<path d="M401.818 120.018C371.6 129.037 297.655 157.641 301.165 220.162C301.88 232.631 307.34 244.354 316.427 252.923C358.897 292.243 389.448 342.72 404.587 398.582C405.149 400.768 404.663 403.092 403.273 404.869C401.882 406.647 399.744 407.678 397.487 407.659L193.166 407.615C189.815 407.595 186.913 405.287 186.138 402.026C151.575 261.586 39.9053 227.836 5.69751 220.714C2.35773 219.998 -0.0209045 217.037 0.00012207 213.621V119.335C-0.000701904 117.198 0.937805 115.17 2.56726 113.788C4.19672 112.406 6.35205 111.811 8.45883 112.162C50.0808 119.525 91.0095 130.377 130.812 144.603V57.8681C116.638 54.2087 107.397 40.581 109.242 26.0592C111.086 11.5374 123.441 0.652344 138.08 0.652344C152.718 0.652344 165.073 11.5374 166.917 26.0592C168.761 40.581 159.52 54.2087 145.347 57.8681V149.742C148.551 150.528 151.879 149.029 153.414 146.108C190.898 72.6569 351.478 60.9854 399.493 59.14C401.461 59.0752 403.372 59.8115 404.787 61.182C406.202 62.5518 407.001 64.4377 407 66.4077V113.078C407.005 116.285 404.894 119.111 401.818 120.018ZM66.2054 172.271C56.5177 169.61 46.9255 167.372 37.703 165.614C35.1262 165.06 32.4514 165.946 30.7136 167.928C28.9757 169.909 28.4474 172.677 29.3325 175.16C30.2176 177.643 32.3778 179.451 34.9781 179.886C43.83 181.58 53.0444 183.731 62.3615 186.289C62.9918 186.461 63.6414 186.549 64.2943 186.55C67.9375 186.553 71.0193 183.858 71.5031 180.247C71.9861 176.636 69.7207 173.225 66.2054 172.271ZM134.024 197.554C124.199 192.851 114.213 188.55 104.33 184.785C101.885 183.767 99.079 184.161 97.0078 185.812C94.9366 187.463 93.9277 190.109 94.3743 192.72C94.8209 195.331 96.6526 197.492 99.155 198.36C108.661 201.994 118.283 206.129 127.752 210.656C128.728 211.132 129.799 211.38 130.884 211.383C134.267 211.37 137.192 209.025 137.942 205.727C138.692 202.428 137.068 199.049 134.023 197.575V197.554H134.024ZM198.9 237.117C189.927 230.187 180.608 223.718 170.978 217.735C167.567 215.62 163.087 216.671 160.971 220.082C158.856 223.494 159.907 227.973 163.318 230.089C172.524 235.799 181.435 241.969 190.019 248.577C193.198 250.959 197.702 250.346 200.129 247.201C202.557 244.057 202.009 239.545 198.899 237.072L198.9 237.117ZM219.692 264.413C216.854 267.251 216.854 271.851 219.692 274.688C229.538 284.461 238.617 294.976 246.849 306.141C249.231 309.374 253.783 310.064 257.016 307.682C260.249 305.3 260.939 300.748 258.556 297.515C249.876 285.755 240.309 274.676 229.938 264.376C227.094 261.569 222.516 261.585 219.692 264.413ZM268.063 126.871C265.891 123.496 261.395 122.52 258.019 124.691C246.99 131.577 236.937 139.915 228.129 149.479C226.332 151.407 225.718 154.157 226.527 156.665C227.337 159.174 229.44 161.048 232.025 161.563C234.61 162.077 237.271 161.152 238.979 159.145C246.908 150.566 255.951 143.089 265.868 136.915C267.491 135.874 268.635 134.231 269.046 132.348C269.458 130.464 269.104 128.494 268.063 126.871ZM273.979 335.284C272.255 336.148 270.946 337.663 270.339 339.493C269.732 341.324 269.878 343.32 270.744 345.043C277.48 358.511 283.085 372.515 287.503 386.91C288.234 389.432 290.268 391.364 292.824 391.964C295.381 392.563 298.062 391.736 299.837 389.802C301.613 387.867 302.207 385.126 301.39 382.63C296.737 367.461 290.83 352.706 283.731 338.517C281.93 334.932 277.564 333.484 273.979 335.284ZM325.649 101.457C324.334 97.6673 320.196 95.66 316.405 96.9731C306.492 100.396 296.856 104.24 287.742 108.477C285.385 109.566 283.788 111.831 283.552 114.416C283.317 117.002 284.479 119.518 286.601 121.015C288.723 122.512 291.483 122.763 293.839 121.674C302.509 117.67 311.703 113.979 321.157 110.7C324.951 109.389 326.962 105.251 325.649 101.457ZM383.628 80.7814C373.584 82.2345 363.635 84.1172 354.064 86.2976C351.511 86.8534 349.453 88.7369 348.673 91.2312C347.894 93.7256 348.513 96.4456 350.296 98.3558C352.078 100.267 354.749 101.073 357.291 100.469C366.499 98.376 376.077 96.588 385.749 95.1568C389.638 94.4877 392.283 90.8372 391.707 86.9335C391.131 83.029 387.545 80.2984 383.628 80.7814Z" fill="white" fill-opacity="0.4"/>
</svg>
