<svg width="472" height="473" viewBox="0 0 472 473" fill="none" xmlns="http://www.w3.org/2000/svg">
<g clip-path="url(#clip0_194_13986)">
<path d="M225.201 225.833C219.245 231.789 219.245 241.479 225.202 247.435C231.157 253.39 240.847 253.39 246.803 247.435C252.758 241.479 252.758 231.789 246.803 225.833C240.848 219.88 231.157 219.877 225.201 225.833Z" fill="white" fill-opacity="0.5"/>
<path d="M373.074 258.012C378.664 221.861 369.983 183.916 347.031 153.355H124.97C102.018 183.915 93.3375 221.86 98.9273 258.012C154.91 262.506 198.416 311.217 194.507 369.083C220.68 377.219 249.929 377.651 277.493 369.083C273.586 311.236 317.07 262.507 373.074 258.012ZM166.602 222.754H138.842V194.994H166.602V222.754ZM266.43 267.063C258.041 275.452 247.02 279.648 236 279.648C224.98 279.648 213.96 275.453 205.57 267.063C188.792 250.285 188.792 222.983 205.569 206.205C222.349 189.426 249.651 189.427 266.429 206.204C283.209 222.983 283.209 250.285 266.43 267.063ZM305.398 194.994H333.158V222.754H305.398V194.994Z" fill="white" fill-opacity="0.5"/>
<path d="M343.544 109.463L392.739 60.2671C303.541 -19.2115 168.54 -19.2791 79.2656 60.2671L128.461 109.463C190.321 57.0739 281.682 57.0739 343.544 109.463Z" fill="white" fill-opacity="0.5"/>
<path d="M412.364 79.8965L363.169 129.092C369.612 136.699 375.332 144.851 380.24 153.356C414.749 213.162 409.061 289.987 363.168 344.176L412.364 393.371C491.842 304.172 491.911 169.172 412.364 79.8965Z" fill="white" fill-opacity="0.5"/>
<path d="M128.457 363.805L79.2617 413.001C168.46 492.477 303.46 492.548 392.736 413.001L343.54 363.805C281.655 416.211 190.323 416.2 128.457 363.805Z" fill="white" fill-opacity="0.5"/>
<path d="M91.7587 153.355C92.1519 152.793 98.0757 141.791 108.831 129.092L59.6346 79.8965C-19.8431 169.095 -19.9134 304.095 59.6346 393.37L108.83 344.175C62.938 289.985 57.2483 213.162 91.7587 153.355Z" fill="white" fill-opacity="0.5"/>
</g>
<defs>
<clipPath id="clip0_194_13986">
<rect width="472" height="472" fill="white" transform="translate(0 0.632812)"/>
</clipPath>
</defs>
</svg>
