<svg width="354" height="352" viewBox="0 0 354 352" fill="none" xmlns="http://www.w3.org/2000/svg">
<path d="M114.807 124.623H0V189.436H158.651L114.807 124.623Z" fill="white" fill-opacity="0.5"/>
<path d="M126.641 229.611C165.951 229.611 197.934 261.322 197.934 300.3C197.934 303.079 197.768 305.82 197.452 308.516H245.287V269.165H213.253V248.598H245.287V238.795C245.287 222.893 232.286 210.002 216.248 210.002H0V308.516H55.8297C55.5137 305.82 55.3478 303.079 55.3478 300.301C55.3478 261.323 87.3295 229.611 126.641 229.611Z" fill="white" fill-opacity="0.5"/>
<path d="M301.68 153.998H280.938V330.548H191.059H167.789C174.127 322.092 177.883 311.627 177.883 300.306C177.883 272.291 154.896 249.498 126.641 249.498C98.3857 249.498 75.3985 272.291 75.3985 300.306C75.3985 311.627 79.155 322.092 85.4924 330.548H62.2224H0V351.114H354V330.548H301.68V153.998Z" fill="white" fill-opacity="0.5"/>
<path d="M292.6 43.082H283.254V62.1738C286.769 62.1567 290.371 62.143 292.6 62.143C298.023 62.143 302.604 57.7788 302.604 52.6132C302.604 47.4462 298.023 43.082 292.6 43.082Z" fill="white" fill-opacity="0.5"/>
<path d="M218.855 0.111328V134.115H354.004V0.111328H218.855ZM292.606 82.706C290.415 82.706 286.793 82.7204 283.26 82.7376V110.484H262.518V22.5129H292.606C309.56 22.5129 323.352 36.0141 323.352 52.6098C323.352 69.2056 309.56 82.706 292.606 82.706Z" fill="white" fill-opacity="0.5"/>
</svg>
