<svg width="324" height="333" viewBox="0 0 324 333" fill="none" xmlns="http://www.w3.org/2000/svg">
<g clip-path="url(#clip0_194_13772)">
<path d="M267.311 302.68C240.815 302.356 219.599 280.617 219.922 254.126C220.246 227.634 241.987 206.42 268.483 206.744C294.978 207.068 316.195 228.806 315.871 255.298C315.547 281.79 293.806 303.003 267.311 302.68Z" fill="white" fill-opacity="0.5"/>
<path d="M48.3731 302.689C21.8776 302.366 0.661162 280.627 0.984838 254.135C1.30851 227.643 23.0497 206.43 49.5452 206.754C76.0407 207.077 97.2571 228.816 96.9335 255.308C96.6098 281.8 74.8686 303.013 48.3731 302.689Z" fill="white" fill-opacity="0.5"/>
<path d="M145.722 69.1398C142.879 71.9606 139.046 73.5572 135.042 73.5881L109.02 167.281C104.325 184.173 108.527 202.452 120.582 215.187C120.582 215.187 136.066 231.872 159.248 231.898C166.562 231.846 173.558 228.904 178.71 223.713C183.862 218.522 186.752 211.504 186.748 204.19C186.75 194.066 185.619 183.974 183.376 174.102C180.484 162.774 178.597 159.078 175.128 151.971C163.807 150.421 159.436 133.763 167.807 120.198C176.587 105.932 195.833 104.298 219.034 112.417C242.235 120.535 263.912 116.158 293.87 111.035C323.99 105.887 328.704 152.101 306.949 152.101H293.799C309.346 161.359 321.977 174.802 330.247 190.897C331.194 192.72 331.773 194.712 331.95 196.758C332.127 198.805 331.898 200.866 331.278 202.825C330.658 204.783 329.658 206.6 328.335 208.172C327.012 209.743 325.392 211.039 323.569 211.984C321.828 212.859 319.858 213.17 317.932 212.873C316.007 212.577 314.221 211.688 312.824 210.331C305.588 202.974 296.647 197.519 286.796 194.45C280.655 192.613 274.289 191.64 267.881 191.558C251.138 191.577 235.087 198.237 223.249 210.076C211.411 221.915 204.753 237.967 204.736 254.71C204.736 256.007 204.775 257.314 204.853 258.633C204.881 259.076 204.818 259.52 204.668 259.937C204.518 260.355 204.284 260.737 203.98 261.061C203.676 261.384 203.309 261.642 202.901 261.817C202.493 261.993 202.054 262.083 201.61 262.082H128.337C124.174 261.965 120.193 260.353 117.12 257.542C114.047 254.731 112.088 250.909 111.601 246.773C110.079 234.781 105.149 223.478 97.3948 214.205C89.6411 204.932 79.3897 198.078 67.8572 194.457C61.717 192.62 55.3509 191.646 48.9423 191.565C34.358 191.552 20.2232 196.611 8.95966 205.876C4.36871 209.643 -2.1481 204.346 0.672607 199.119L0.750427 198.983C10.1186 182.368 24.3469 169.018 41.5242 160.725C43.9818 159.532 46.4717 158.462 48.9747 157.483C49.8177 114.115 100.156 73.6076 100.156 73.6076C86.636 74.3987 86.1626 60.9371 86.1626 60.9371C85.3326 44.6159 96.382 31.5369 111.627 30.6421C115.467 30.4429 119.274 31.4422 122.521 33.5017L131.339 39.0394C134.291 40.9411 137.408 42.5751 140.651 43.9221C142.883 44.8249 144.872 46.2385 146.459 48.0493C148.045 49.8601 149.185 52.0178 149.787 54.349C149.787 54.349 153.853 55.5551 155.344 56.9427C156.399 57.8441 157.171 59.0313 157.566 60.3613C157.961 61.6913 157.963 63.1072 157.572 64.4383C157.181 65.7694 156.412 66.9589 155.36 67.8633C154.308 68.7677 153.017 69.3484 151.642 69.5354C151.642 69.5354 149.567 69.8855 145.722 69.1398Z" fill="white" fill-opacity="0.5"/>
</g>
<defs>
<clipPath id="clip0_194_13772">
<rect width="332" height="332" fill="white" transform="matrix(-1 0 0 1 332 0.632812)"/>
</clipPath>
</defs>
</svg>
