<svg width="401" height="347" viewBox="0 0 401 347" fill="none" xmlns="http://www.w3.org/2000/svg">
<g clip-path="url(#clip0_194_9652)">
<path d="M231.096 153.689C220.226 153.689 211.383 162.577 211.383 173.5C211.383 184.424 220.226 193.312 231.096 193.312C241.966 193.312 250.809 184.424 250.809 173.5C250.809 162.577 241.966 153.689 231.096 153.689Z" fill="white" fill-opacity="0.5"/>
<path d="M244.152 93.6367V129.361C254.276 132.391 262.942 138.845 268.815 147.387L302.626 136.346C291.127 114.077 269.632 97.8283 244.152 93.6367Z" fill="white" fill-opacity="0.5"/>
<path d="M310.713 161.297L276.892 172.341C276.902 172.727 276.922 173.111 276.922 173.498C276.922 184.016 273.388 193.715 267.461 201.477L288.343 230.361C302.731 215.733 311.628 195.641 311.628 173.498C311.628 169.352 311.315 165.277 310.713 161.297Z" fill="white" fill-opacity="0.5"/>
<path d="M231.096 0.742188H72.2481C65.0374 0.742188 59.1915 6.61707 59.1915 13.8636C59.1915 21.1101 65.0374 26.985 72.2481 26.985H140.118C125.798 35.997 112.887 47.0649 101.801 59.7805H13.0566C5.84587 59.7813 0 65.657 0 72.9035C0 80.15 5.84587 86.0249 13.0566 86.0249H82.9127C67.849 111.698 59.1907 141.6 59.1907 173.5C59.1907 210.617 70.9022 245.038 90.8019 273.229H53.7557C46.545 273.229 40.6991 279.104 40.6991 286.35C40.6991 293.597 46.545 299.471 53.7557 299.471H113.591C121.732 307.146 130.615 314.032 140.118 320.013H14.4033C7.19262 320.013 1.34675 325.888 1.34675 333.135C1.34675 340.381 7.19262 346.256 14.4033 346.256H231.096C325.885 346.256 403 268.757 403 173.499C403 78.2405 325.884 0.742188 231.096 0.742188ZM294.52 259.61C294.28 259.814 294.041 260.019 293.782 260.207C293.491 260.42 293.193 260.618 292.891 260.803C275.446 273.31 254.111 280.676 231.096 280.676C208.081 280.676 186.747 273.31 169.3 260.803C168.998 260.618 168.701 260.42 168.409 260.207C168.151 260.018 167.913 259.812 167.672 259.61C141.465 240.064 124.448 208.743 124.448 173.5C124.448 114.402 172.29 66.3223 231.096 66.3223C289.902 66.3223 337.744 114.402 337.744 173.5C337.744 208.743 320.727 240.064 294.52 259.61Z" fill="white" fill-opacity="0.5"/>
<path d="M159.566 136.346L193.377 147.387C199.251 138.846 207.916 132.392 218.04 129.361V93.6367C192.561 97.8291 171.066 114.077 159.566 136.346Z" fill="white" fill-opacity="0.5"/>
<path d="M246.351 216.922C241.576 218.621 236.445 219.555 231.097 219.555C225.751 219.555 220.618 218.621 215.844 216.922L194.957 245.811C205.832 251.322 218.109 254.433 231.097 254.433C244.085 254.433 256.363 251.323 267.237 245.811L246.351 216.922Z" fill="white" fill-opacity="0.5"/>
<path d="M185.27 173.498C185.27 173.111 185.289 172.727 185.298 172.341L151.477 161.297C150.876 165.277 150.562 169.352 150.562 173.498C150.562 195.642 159.461 215.734 173.848 230.362L194.73 201.477C188.804 193.716 185.27 184.016 185.27 173.498Z" fill="white" fill-opacity="0.5"/>
</g>
<defs>
<clipPath id="clip0_194_9652">
<rect width="403" height="347" fill="white"/>
</clipPath>
</defs>
</svg>
