<svg width="463" height="245" viewBox="0 0 463 245" fill="none" xmlns="http://www.w3.org/2000/svg">
<g clip-path="url(#clip0_206_124)">
<path d="M455.911 76.5371H387.777L411.06 99.7239H463.001V83.5977C463.001 79.6955 459.824 76.5371 455.911 76.5371Z" fill="#CFE01A"/>
<path d="M296.223 76.5371H228.09C224.176 76.5371 221 79.6955 221 83.5977V99.7239H272.94L296.223 76.5371Z" fill="#CFE01A"/>
<path d="M326.309 173.846H357.693V241.909H326.309V173.846Z" fill="#CFE01A"/>
<path d="M342 113.346C337.535 113.346 333.902 116.964 333.902 121.411C333.902 125.857 337.535 129.476 342 129.476C346.466 129.476 350.099 125.857 350.099 121.411C350.099 116.964 346.466 113.346 342 113.346Z" fill="#CFE01A"/>
<path d="M349.09 57.9844H334.91L278.815 113.847H221V234.849C221 238.748 224.174 241.91 228.09 241.91H312.128V166.786C312.128 162.886 315.302 159.725 319.218 159.725H364.782C368.698 159.725 371.872 162.886 371.872 166.786V241.91H455.91C459.826 241.91 463 238.748 463 234.849V113.847H405.185L349.09 57.9844ZM265.556 204.599C265.556 208.498 262.382 211.659 258.466 211.659C254.551 211.659 251.376 208.498 251.376 204.599V189.473C251.376 185.574 254.551 182.413 258.466 182.413C262.382 182.413 265.556 185.574 265.556 189.473V204.599ZM265.556 159.223C265.556 163.122 262.382 166.283 258.466 166.283C254.551 166.283 251.376 163.122 251.376 159.223V144.098C251.376 140.198 254.551 137.037 258.466 137.037C262.382 137.037 265.556 140.198 265.556 144.098V159.223ZM295.932 204.599C295.932 208.498 292.757 211.659 288.842 211.659C284.926 211.659 281.752 208.498 281.752 204.599V189.473C281.752 185.574 284.926 182.413 288.842 182.413C292.757 182.413 295.932 185.574 295.932 189.473V204.599ZM295.932 159.223C295.932 163.122 292.757 166.283 288.842 166.283C284.926 166.283 281.752 163.122 281.752 159.223V144.098C281.752 140.198 284.926 137.037 288.842 137.037C292.757 137.037 295.932 140.198 295.932 144.098V159.223ZM342 143.596C329.716 143.596 319.722 133.643 319.722 121.41C319.722 109.177 329.716 99.2236 342 99.2236C354.284 99.2236 364.278 109.177 364.278 121.41C364.278 133.643 354.284 143.596 342 143.596ZM402.248 204.599C402.248 208.498 399.074 211.659 395.158 211.659C391.243 211.659 388.068 208.498 388.068 204.599V189.473C388.068 185.574 391.243 182.413 395.158 182.413C399.074 182.413 402.248 185.574 402.248 189.473V204.599ZM402.248 159.223C402.248 163.122 399.074 166.283 395.158 166.283C391.243 166.283 388.068 163.122 388.068 159.223V144.098C388.068 140.198 391.243 137.037 395.158 137.037C399.074 137.037 402.248 140.198 402.248 144.098V159.223ZM418.444 144.098C418.444 140.198 421.618 137.037 425.534 137.037C429.449 137.037 432.624 140.198 432.624 144.098V159.223C432.624 163.122 429.449 166.283 425.534 166.283C421.618 166.283 418.444 163.122 418.444 159.223V144.098ZM418.444 189.473C418.444 185.574 421.618 182.413 425.534 182.413C429.449 182.413 432.624 185.574 432.624 189.473V204.599C432.624 208.498 429.449 211.66 425.534 211.66C421.618 211.66 418.444 208.498 418.444 204.599V189.473Z" fill="#CFE01A"/>
</g>
<path d="M117.646 220.721C124.301 220.721 129.695 226.115 129.695 232.77C129.695 239.425 124.301 244.82 117.646 244.82C110.994 244.812 105.604 239.422 105.596 232.77C105.596 226.115 110.991 220.721 117.646 220.721Z" fill="#CFE01A"/>
<path d="M4.76807 205.253L18.1984 199.123C18.6561 198.919 19.0435 198.585 19.3118 198.162L30.9499 179.61C33.1173 176.15 36.9256 174.063 41.0085 174.098H88.3026C91.9949 174.087 95.4819 175.795 97.7357 178.72L112.702 198.328C113.037 198.776 113.511 199.1 114.05 199.249L139.064 206.094C142.637 207.088 145.099 210.353 145.074 214.061V223.208C145.074 227.762 141.515 231.55 136.96 231.55H134.781C134.139 223.087 127.414 216.362 118.951 215.719C109.491 215.001 101.239 222.089 100.521 231.55H46.3567C45.7145 223.087 38.989 216.362 30.5265 215.719C21.0659 215.001 12.8143 222.089 12.0963 231.55H8.11281C3.55836 231.55 -0.000793457 227.762 -0.000793457 223.208V212.766C-0.026474 209.542 1.8396 206.602 4.76807 205.253Z" fill="#CFE01A"/>
<path d="M29.2239 220.721C35.8787 220.721 41.2734 226.115 41.2734 232.77C41.2734 239.425 35.8787 244.82 29.2242 244.82C22.5726 244.812 17.182 239.422 17.1743 232.77C17.1743 226.115 22.5694 220.721 29.2239 220.721Z" fill="#CFE01A"/>
<defs>
<clipPath id="clip0_206_124">
<rect width="242" height="241" fill="white" transform="translate(221 0.910156)"/>
</clipPath>
</defs>
</svg>
