<svg width="426" height="480" viewBox="0 0 426 480" fill="none" xmlns="http://www.w3.org/2000/svg">
<path d="M411.938 150.629H276.797L322.978 196.81H426V164.691C426 156.92 419.7 150.629 411.938 150.629Z" fill="#D6E816" fill-opacity="0.5"/>
<path d="M95.2031 150.629H-39.9375C-47.7 150.629 -54 156.92 -54 164.691V196.81H49.0219L95.2031 150.629Z" fill="#D6E816" fill-opacity="0.5"/>
<path d="M154.875 344.438H217.125V480H154.875V344.438Z" fill="#D6E816" fill-opacity="0.5"/>
<path d="M186 223.938C177.143 223.938 169.938 231.144 169.938 240.001C169.938 248.857 177.143 256.064 186 256.064C194.856 256.064 202.063 248.857 202.063 240.001C202.063 231.144 194.856 223.938 186 223.938Z" fill="#D6E816" fill-opacity="0.5"/>
<path d="M200.062 113.676H171.938L60.675 224.938H-54V465.938C-54 473.704 -47.7038 480 -39.9375 480H126.75V330.375C126.75 322.609 133.046 316.313 140.812 316.313H231.188C238.954 316.313 245.25 322.609 245.25 330.375V480H411.938C419.704 480 426 473.704 426 465.938V224.938H311.325L200.062 113.676ZM34.3753 405.687C34.3753 413.454 28.0791 419.75 20.3128 419.75C12.5466 419.75 6.25031 413.454 6.25031 405.687V375.563C6.25031 367.796 12.5466 361.5 20.3128 361.5C28.0791 361.5 34.3753 367.796 34.3753 375.563V405.687ZM34.3753 315.312C34.3753 323.079 28.0791 329.375 20.3128 329.375C12.5466 329.375 6.25031 323.079 6.25031 315.312V285.188C6.25031 277.421 12.5466 271.125 20.3128 271.125C28.0791 271.125 34.3753 277.421 34.3753 285.188V315.312ZM94.6247 405.687C94.6247 413.454 88.3284 419.75 80.5622 419.75C72.7959 419.75 66.4997 413.454 66.4997 405.687V375.563C66.4997 367.796 72.7959 361.5 80.5622 361.5C88.3284 361.5 94.6247 367.796 94.6247 375.563V405.687ZM94.6247 315.312C94.6247 323.079 88.3284 329.375 80.5622 329.375C72.7959 329.375 66.4997 323.079 66.4997 315.312V285.188C66.4997 277.421 72.7959 271.125 80.5622 271.125C88.3284 271.125 94.6247 277.421 94.6247 285.188V315.312ZM186 284.188C161.635 284.188 141.813 264.365 141.813 240C141.813 215.635 161.635 195.812 186 195.812C210.365 195.812 230.188 215.635 230.188 240C230.188 264.365 210.365 284.188 186 284.188ZM305.5 405.687C305.5 413.454 299.204 419.75 291.438 419.75C283.672 419.75 277.375 413.454 277.375 405.687V375.563C277.375 367.796 283.672 361.5 291.438 361.5C299.204 361.5 305.5 367.796 305.5 375.563V405.687ZM305.5 315.312C305.5 323.079 299.204 329.375 291.438 329.375C283.672 329.375 277.375 323.079 277.375 315.312V285.188C277.375 277.421 283.672 271.125 291.438 271.125C299.204 271.125 305.5 277.421 305.5 285.188V315.312ZM337.625 285.188C337.625 277.421 343.921 271.125 351.687 271.125C359.453 271.125 365.75 277.421 365.75 285.188V315.312C365.75 323.079 359.453 329.375 351.687 329.375C343.921 329.375 337.625 323.079 337.625 315.312V285.188ZM337.625 375.563C337.625 367.796 343.921 361.5 351.687 361.5C359.453 361.5 365.75 367.796 365.75 375.563V405.688C365.75 413.455 359.453 419.751 351.687 419.751C343.921 419.751 337.625 413.455 337.625 405.688V375.563Z" fill="#D6E816" fill-opacity="0.5"/>
</svg>
