<svg width="48" height="34" viewBox="0 0 48 34" fill="none" xmlns="http://www.w3.org/2000/svg">
<path d="M1.52539 23.7556V26.3258C1.52539 26.6368 1.77748 26.889 2.08855 26.889H35.1728C35.1728 26.889 39.546 23.0325 39.546 18.7418C39.546 14.4512 36.7593 11.4746 36.7593 11.4746H33.4322L34.263 14.687C35.1589 18.1508 32.5437 21.5284 28.9659 21.5284H25.5622C23.814 21.5284 22.399 20.1066 22.4073 18.3584L22.4142 16.8898C22.4142 15.4655 21.2609 14.3109 19.8382 14.3109H10.9641C5.75127 14.3109 1.52539 18.5394 1.52539 23.7556Z" fill="#FFD15B"/>
<path d="M19.6033 16.8905L19.5964 18.3591C19.588 20.1073 21.003 21.5291 22.7513 21.5291H25.5638C23.8156 21.5291 22.4006 20.1073 22.4089 18.3591L22.4158 16.8905C22.4158 15.4661 21.2625 14.3115 19.8398 14.3115H17.0273C18.45 14.3115 19.6033 15.4661 19.6033 16.8905Z" fill="#FDB441"/>
<path d="M36.7603 11.4756H34.5418C34.5418 11.4756 36.7345 14.4521 36.7345 18.7428C36.7345 23.0335 32.3613 26.89 32.3613 26.89H35.1738C35.1738 26.89 39.547 23.0335 39.547 18.7428C39.547 14.4521 36.7603 11.4756 36.7603 11.4756Z" fill="#FDB441"/>
<path d="M10.4805 33.3125C13.6388 33.3125 16.1992 30.7521 16.1992 27.5938C16.1992 24.4354 13.6388 21.875 10.4805 21.875C7.32209 21.875 4.76172 24.4354 4.76172 27.5938C4.76172 30.7521 7.32209 33.3125 10.4805 33.3125Z" fill="#7A6D79"/>
<path d="M39.8555 33.3125C43.0138 33.3125 45.5742 30.7521 45.5742 27.5938C45.5742 24.4354 43.0138 21.875 39.8555 21.875C36.6971 21.875 34.1367 24.4354 34.1367 27.5938C34.1367 30.7521 36.6971 33.3125 39.8555 33.3125Z" fill="#7A6D79"/>
<path d="M10.48 29.5528C11.5617 29.5528 12.4385 28.6759 12.4385 27.5943C12.4385 26.5126 11.5617 25.6357 10.48 25.6357C9.39835 25.6357 8.52148 26.5126 8.52148 27.5943C8.52148 28.6759 9.39835 29.5528 10.48 29.5528Z" fill="#9FACBA"/>
<path d="M39.855 29.5528C40.9367 29.5528 41.8135 28.6759 41.8135 27.5943C41.8135 26.5126 40.9367 25.6357 39.855 25.6357C38.7733 25.6357 37.8965 26.5126 37.8965 27.5943C37.8965 28.6759 38.7733 29.5528 39.855 29.5528Z" fill="#9FACBA"/>
<path d="M3.37985 26.8889H17.5802C17.7738 26.8889 17.9297 26.7272 17.9207 26.5337C17.7353 22.5819 14.4749 19.4346 10.48 19.4346C6.48523 19.4346 3.2247 22.5819 3.03945 26.5337C3.03026 26.7272 3.18626 26.8889 3.37985 26.8889Z" fill="#BD80E1"/>
<path d="M10.4805 19.4346C9.99963 19.4346 9.52975 19.4813 9.07422 19.5684C12.4028 20.205 14.9456 23.0575 15.1086 26.5337C15.1177 26.7272 14.9617 26.889 14.7681 26.889H17.5806C17.7742 26.889 17.9302 26.7273 17.9211 26.5337C17.7358 22.5818 14.4753 19.4346 10.4805 19.4346Z" fill="#AF66DA"/>
<path d="M7.9483 14.3253H21.2464C22.0235 14.3253 22.6536 13.6952 22.6536 12.918C22.6536 12.1408 22.0235 11.5107 21.2464 11.5107H7.9483C7.17111 11.5107 6.54102 12.1408 6.54102 12.918C6.54102 13.6952 7.17111 14.3253 7.9483 14.3253Z" fill="#918291"/>
<path d="M21.248 11.5107H18.4355C19.2127 11.5107 19.8428 12.1408 19.8428 12.918C19.8428 13.6953 19.2127 14.3253 18.4355 14.3253H21.248C22.0252 14.3253 22.6553 13.6953 22.6553 12.918C22.6553 12.1408 22.0252 11.5107 21.248 11.5107Z" fill="#7A6D79"/>
<path d="M33.3242 11.4753H40.331C40.8167 11.4753 41.2105 11.0815 41.2105 10.5958V8.47029C41.2105 7.98457 40.8167 7.59082 40.331 7.59082H36.5573C34.7717 7.59082 33.3242 9.03832 33.3242 10.8239V11.4753Z" fill="#BD80E1"/>
<path d="M38.6817 11.4753H40.3321C40.8177 11.4753 41.2114 11.0816 41.2114 10.596V8.47048C41.2114 7.98467 40.8175 7.59082 40.3317 7.59082H38.6816V11.4753H38.6817Z" fill="#FFD15B"/>
<path d="M31.7812 4.4375C32.8168 4.4375 33.6562 3.59803 33.6562 2.5625C33.6562 1.52697 32.8168 0.6875 31.7812 0.6875C30.7457 0.6875 29.9062 1.52697 29.9062 2.5625C29.9062 3.59803 30.7457 4.4375 31.7812 4.4375Z" fill="#BD80E1"/>
<path d="M12.7949 11.5098H2.29884C1.41759 11.5098 0.703125 10.7953 0.703125 9.91405V4.94727H14.3906V9.91405C14.3906 10.7953 13.6762 11.5098 12.7949 11.5098Z" fill="#EB5569"/>
<path d="M11.5781 4.94727V9.91405C11.5781 10.7953 10.8637 11.5098 9.98242 11.5098H12.7949C13.6762 11.5098 14.3906 10.7953 14.3906 9.91405V4.94727H11.5781Z" fill="#E53950"/>
<path d="M14.3906 4.94629H0.703125V3.35451C0.703125 2.47326 1.41759 1.75879 2.29884 1.75879H12.7949C13.6762 1.75879 14.3906 2.47326 14.3906 3.35451V4.94629Z" fill="#F9F3F1"/>
<path d="M12.7949 1.75879H9.98242C10.8637 1.75879 11.5781 2.47326 11.5781 3.35451V4.94629H14.3906V3.35451C14.3906 2.47316 13.6762 1.75879 12.7949 1.75879Z" fill="#EFE2DD"/>
<path d="M32.7627 26.8889H46.9559C47.1494 26.8889 47.3053 26.7272 47.2962 26.5337C47.111 22.5819 43.8522 19.4346 39.8592 19.4346C35.8664 19.4346 32.6075 22.5819 32.4222 26.5337C32.4132 26.7272 32.5692 26.8889 32.7627 26.8889Z" fill="#BD80E1"/>
<path d="M39.8594 19.4346C39.3785 19.4346 38.9087 19.4813 38.4531 19.5684C41.7797 20.2054 44.3209 23.0577 44.4839 26.5336C44.493 26.7271 44.3371 26.8889 44.1436 26.8889H46.9561C47.1496 26.8889 47.3055 26.7272 47.2964 26.5336C47.1112 22.5818 43.8523 19.4346 39.8594 19.4346Z" fill="#AF66DA"/>
<path d="M35.6934 26.8867H44.0256C44.0256 24.6082 42.1606 22.7617 39.8594 22.7617C37.5583 22.7617 35.6934 24.6083 35.6934 26.8867Z" fill="#FFD15B"/>
<path d="M6.35547 26.8867H14.6055C14.6055 24.6082 12.7589 22.7617 10.4805 22.7617C8.20206 22.7617 6.35547 24.6083 6.35547 26.8867Z" fill="#FFD15B"/>
<path d="M4.79219 27C4.77203 27.1952 4.76172 27.3932 4.76172 27.5937C4.76172 30.7521 7.32213 33.3125 10.4805 33.3125C13.6388 33.3125 16.1992 30.7521 16.1992 27.5937C16.1992 27.4253 16.1919 27.2585 16.1777 27.0937" stroke="black" stroke-width="0.878906" stroke-miterlimit="10" stroke-linecap="round" stroke-linejoin="round"/>
<path d="M34.1583 27.0938C34.144 27.2585 34.1367 27.4252 34.1367 27.5935C34.1367 30.7519 36.6971 33.3123 39.8555 33.3123C43.0138 33.3123 45.5742 30.7519 45.5742 27.5935C45.5742 27.4362 45.5678 27.2804 45.5554 27.1263" stroke="black" stroke-width="0.878906" stroke-miterlimit="10" stroke-linecap="round" stroke-linejoin="round"/>
<path d="M8.59114 27.0739C8.54567 27.2393 8.52148 27.4136 8.52148 27.5935C8.52148 28.6752 9.39833 29.552 10.48 29.552C11.5617 29.552 12.4385 28.6752 12.4385 27.5935C12.4385 27.4113 12.4135 27.2348 12.367 27.0674" stroke="black" stroke-width="0.878906" stroke-miterlimit="10" stroke-linecap="round" stroke-linejoin="round"/>
<path d="M37.9777 27.0345C37.9249 27.2119 37.8965 27.3997 37.8965 27.5942C37.8965 28.6759 38.7733 29.5527 39.855 29.5527C40.9367 29.5527 41.8135 28.6759 41.8135 27.5942C41.8135 27.392 41.7829 27.197 41.7261 27.0137" stroke="black" stroke-width="0.878906" stroke-miterlimit="10" stroke-linecap="round" stroke-linejoin="round"/>
<path d="M3.37985 26.8889H17.5802C17.7738 26.8889 17.9297 26.7272 17.9207 26.5337C17.7353 22.5819 14.4749 19.4346 10.48 19.4346C6.48523 19.4346 3.2247 22.5819 3.03945 26.5337C3.03026 26.7272 3.18626 26.8889 3.37985 26.8889Z" stroke="black" stroke-width="0.878906" stroke-miterlimit="10" stroke-linecap="round" stroke-linejoin="round"/>
<path d="M27.416 26.8896H35.1732" stroke="black" stroke-width="0.878906" stroke-miterlimit="10" stroke-linecap="round" stroke-linejoin="round"/>
<path d="M39.5309 19.1818C39.5408 19.0357 39.546 18.889 39.546 18.7418C39.546 14.4512 36.7593 11.4746 36.7593 11.4746H33.4323L34.2631 14.687C35.159 18.1508 32.5438 21.5284 28.966 21.5284H25.5623C23.8141 21.5284 22.3991 20.1066 22.4074 18.3584L22.4143 16.8898C22.4143 15.4655 21.261 14.3109 19.8383 14.3109H10.9642C5.75136 14.3109 1.52539 18.5394 1.52539 23.7556V26.3258C1.52539 26.6368 1.77748 26.889 2.08855 26.889H24.25" stroke="black" stroke-width="0.878906" stroke-miterlimit="10" stroke-linecap="round" stroke-linejoin="round"/>
<path d="M7.9483 14.3253H21.2464C22.0235 14.3253 22.6536 13.6952 22.6536 12.918C22.6536 12.1408 22.0235 11.5107 21.2464 11.5107H7.9483C7.17111 11.5107 6.54102 12.1408 6.54102 12.918C6.54102 13.6952 7.17111 14.3253 7.9483 14.3253Z" stroke="black" stroke-width="0.878906" stroke-miterlimit="10" stroke-linecap="round" stroke-linejoin="round"/>
<path d="M33.3242 11.4753H40.331C40.8167 11.4753 41.2105 11.0815 41.2105 10.5958V8.47029C41.2105 7.98457 40.8167 7.59082 40.331 7.59082H36.5573C34.7717 7.59082 33.3242 9.03832 33.3242 10.8239V11.4753Z" stroke="black" stroke-width="0.878906" stroke-miterlimit="10" stroke-linecap="round" stroke-linejoin="round"/>
<path d="M38.6817 11.4753H40.3321C40.8177 11.4753 41.2114 11.0816 41.2114 10.596V8.47048C41.2114 7.98467 40.8175 7.59082 40.3317 7.59082H38.6816V11.4753H38.6817Z" stroke="black" stroke-width="0.878906" stroke-miterlimit="10" stroke-linecap="round" stroke-linejoin="round"/>
<path d="M36.7243 11.4746H30.9551" stroke="black" stroke-width="0.878906" stroke-miterlimit="10" stroke-linecap="round" stroke-linejoin="round"/>
<path d="M36.0343 7.59041L35.7318 5.16781C35.6661 4.64131 35.3667 4.17256 34.9167 3.89141L33.8398 3.21875" stroke="black" stroke-width="0.878906" stroke-miterlimit="10" stroke-linecap="round" stroke-linejoin="round"/>
<path d="M31.7812 4.4375C32.8168 4.4375 33.6562 3.59803 33.6562 2.5625C33.6562 1.52697 32.8168 0.6875 31.7812 0.6875C30.7457 0.6875 29.9062 1.52697 29.9062 2.5625C29.9062 3.59803 30.7457 4.4375 31.7812 4.4375Z" stroke="black" stroke-width="0.878906" stroke-miterlimit="10" stroke-linecap="round" stroke-linejoin="round"/>
<path d="M12.7949 11.5098H2.29884C1.41759 11.5098 0.703125 10.7953 0.703125 9.91405V4.94727H14.3906V9.91405C14.3906 10.7953 13.6762 11.5098 12.7949 11.5098Z" stroke="black" stroke-width="0.878906" stroke-miterlimit="10" stroke-linecap="round" stroke-linejoin="round"/>
<path d="M7.75003 1.75879H12.7949C13.6762 1.75879 14.3906 2.47326 14.3906 3.35451V4.94629H0.703125V3.35451C0.703125 2.47326 1.41759 1.75879 2.29884 1.75879H4.37503" stroke="black" stroke-width="0.878906" stroke-miterlimit="10" stroke-linecap="round" stroke-linejoin="round"/>
<path d="M17.9214 17.7758H15.4288C14.2147 17.7758 13.0988 17.1086 12.524 16.0391L8.21094 8.01367" stroke="black" stroke-width="0.878906" stroke-miterlimit="10" stroke-linecap="round" stroke-linejoin="round"/>
<path d="M32.7627 26.8889H46.9559C47.1494 26.8889 47.3053 26.7272 47.2962 26.5337C47.111 22.5819 43.8522 19.4346 39.8592 19.4346C35.8664 19.4346 32.6075 22.5819 32.4222 26.5337C32.4132 26.7272 32.5692 26.8889 32.7627 26.8889Z" stroke="black" stroke-width="0.878906" stroke-miterlimit="10" stroke-linecap="round" stroke-linejoin="round"/>
<path d="M35.6934 26.8867H44.0256C44.0256 24.6082 42.1606 22.7617 39.8594 22.7617C37.5583 22.7617 35.6934 24.6083 35.6934 26.8867Z" stroke="black" stroke-width="0.878906" stroke-miterlimit="10" stroke-linecap="round" stroke-linejoin="round"/>
<path d="M6.35547 26.8867H14.6055C14.6055 24.6082 12.7589 22.7617 10.4805 22.7617C8.20206 22.7617 6.35547 24.6083 6.35547 26.8867Z" stroke="black" stroke-width="0.878906" stroke-miterlimit="10" stroke-linecap="round" stroke-linejoin="round"/>
</svg>
