<svg width="48" height="48" viewBox="0 0 48 48" fill="none" xmlns="http://www.w3.org/2000/svg">
<g clip-path="url(#clip0_18_6424)">
<path d="M36.11 24.7808C36.2656 24.6171 36.4337 24.4607 36.6102 24.3105L37.5027 27.234C36.2466 28.0268 35.4112 29.4265 35.4112 31.0217C35.4112 33.4943 37.4159 35.4986 39.8882 35.4986C42.3608 35.4986 44.3651 33.4943 44.3651 31.0217C44.3651 28.8387 42.7087 26.9286 40.6411 26.5327L44.539 25.2004C46.184 26.5646 47.3259 28.7175 47.3259 31.0217C47.3259 35.1295 43.9959 38.4594 39.8882 38.4594C36.5513 38.4594 33.5403 36.1684 32.5977 33.1417C32.8101 30.4511 34.2496 26.7338 36.11 24.7808Z" fill="#576574"/>
<path d="M37.6843 37.148C35.4094 35.6264 34.4324 32.7579 35.2461 30.145C35.6954 28.7018 36.3557 27.2421 37.143 26.0563L36.6102 24.3105C36.4337 24.4607 36.2656 24.6171 36.1096 24.7808C34.2496 26.7338 32.8101 30.4511 32.5977 33.1417C33.5399 36.1684 36.5513 38.4594 39.8882 38.4594C40.2353 38.4594 40.5763 38.4338 40.911 38.388C39.7435 38.225 38.6408 37.7878 37.6843 37.148Z" fill="#3E4B5A"/>
<path d="M39.587 22.6848C39.7218 22.6782 39.8573 22.6738 39.9939 22.6738C41.8916 22.6738 43.7007 23.3821 45.097 24.4565C45.3581 24.6572 45.2904 25.0688 44.9784 25.1754L40.0188 26.8706L38.7363 23.0554L39.587 22.6848Z" fill="#FECA57"/>
<path d="M41.6356 22.8503C41.1013 22.7368 40.552 22.6738 39.9943 22.6738C39.8577 22.6738 39.7222 22.6786 39.5874 22.6852L38.7363 23.0558L40.0192 26.871L42.6815 25.9609L41.6356 22.8503Z" fill="#F4B537"/>
<path d="M10.3458 17.5977L13.3366 20.0564C14.0083 20.6083 14.8923 20.8291 15.7445 20.6577L17.3547 23.0344L14.5312 23.2127C13.6567 23.2677 12.7939 22.9883 12.1179 22.4305L7.44727 18.5776L10.3458 17.5977Z" fill="#576574"/>
<path d="M15.1369 22.4305L11.0845 19.0878C10.8146 18.8651 10.894 18.433 11.2254 18.3209L10.3458 17.5977L7.44727 18.5776L12.1179 22.4305C12.7939 22.9883 13.6567 23.2677 14.5312 23.2127L16.4113 23.0937C15.9488 22.9656 15.5138 22.7414 15.1369 22.4305Z" fill="#3E4B5A"/>
<path d="M31.9163 16.8768C30.8924 17.2819 27.1014 19.385 25.0089 20.4518C24.0948 20.9176 23.3609 21.6716 22.9197 22.5978L22.4524 23.5785L17.0508 17.3177C20.9256 12.0396 23.5748 13.3477 27.0893 14.1442C29.5946 14.7118 32.4495 16.6721 32.4495 16.6721C32.273 16.6787 32.0947 16.8065 31.9163 16.8768Z" fill="#FECA57"/>
<path d="M22.2865 16.17C23.4126 14.8685 24.4405 14.1277 25.4289 13.7443C22.678 13.0961 20.2936 12.9009 17.0508 17.3177L22.4524 23.5788L22.9197 22.5978C23.258 21.8877 23.7689 21.2794 24.4006 20.8238L22.2872 18.3746C21.7412 17.7415 21.7394 16.8021 22.2865 16.17Z" fill="#F4B537"/>
<path d="M8.17014 23.584C10.7607 23.584 13.0411 24.9089 14.373 26.9176L11.6568 28.2143C10.8361 27.1966 9.57968 26.5448 8.1705 26.5448C5.69786 26.5448 3.69359 28.5491 3.69359 31.0217C3.69359 33.4943 5.69786 35.4986 8.1705 35.4986C10.4619 35.4986 12.3501 33.7767 12.6145 31.5567L15.598 31.4117C15.3951 35.3382 12.1472 38.4594 8.17014 38.4594C4.06236 38.4594 0.732422 35.1295 0.732422 31.0217C0.732422 26.9139 4.06236 23.584 8.17014 23.584Z" fill="#576574"/>
<path d="M3.31054 31.0217C3.31054 27.3526 5.96812 24.3061 9.46322 23.6968C9.04318 23.6232 8.61142 23.584 8.17014 23.584C4.06236 23.584 0.732422 26.9139 0.732422 31.0217C0.732422 35.1295 4.06236 38.4594 8.17014 38.4594C8.61032 38.4594 9.04062 38.4191 9.45956 38.3459C5.96665 37.7354 3.31054 34.6897 3.31054 31.0217Z" fill="#3E4B5A"/>
<path d="M2.24837 12.9082H3.78169C4.45222 12.9082 5.09785 13.162 5.58894 13.6186L7.44745 15.3468L10.4661 17.8286L7.61591 18.732C6.62568 18.9767 5.41389 18.5548 4.76423 17.7682L1.70419 14.064C1.32369 13.6033 1.65109 12.9082 2.24837 12.9082Z" fill="#FF6B6B"/>
<path d="M7.729 17.7682L4.66895 14.064C4.40894 13.7494 4.47999 13.3249 4.74146 13.088C4.43787 12.9701 4.11268 12.9082 3.78162 12.9082H2.24831C1.65138 12.9082 1.32363 13.6033 1.70412 14.064L4.7638 17.7682C5.41382 18.5544 6.62561 18.9767 7.61584 18.7317L8.55993 18.4325C8.23876 18.2611 7.95055 18.0366 7.729 17.7682Z" fill="#EE5253"/>
<path d="M20.2864 30.6389C20.0337 30.1181 19.9055 29.5586 19.9055 28.9763C19.9055 28.3794 20.0403 27.8066 20.3061 27.2745L20.3307 27.2255L18.7095 24.833L7.48221 30.1028L7.48148 30.1031C6.57768 30.5345 6.90324 31.9254 7.92899 31.877L16.9678 31.4475L16.9 31.3175C16.84 31.2021 16.8447 31.0655 16.9136 30.9524C16.9824 30.8388 17.0985 30.7737 17.2322 30.7737H20.3515L20.2864 30.6389Z" fill="#E4EAF8"/>
<path d="M12.2587 30.1035L12.2591 30.1031L19.8623 26.5344L18.7098 24.833L7.48221 30.1031L7.48148 30.1035C6.57768 30.5349 6.90324 31.9258 7.92899 31.8774L12.0752 31.6804C11.5944 31.2889 11.5812 30.4269 12.2587 30.1035Z" fill="#C7D2E5"/>
<path d="M19.2955 19.8027L22.4522 23.2975L21.2624 25.795C20.7442 26.1653 20.3202 26.6585 20.0334 27.2328L15.6074 20.6999L19.2955 19.8027Z" fill="#C7D2E5"/>
<path d="M19.4482 22.3122C19.0297 21.6948 19.3559 20.8492 20.081 20.6731L19.2955 19.8037L15.6074 20.7006L20.0334 27.2337C20.3202 26.6595 20.7442 26.1659 21.2624 25.7956L21.4876 25.3229L19.4482 22.3122Z" fill="#AABCD6"/>
<path d="M34.8885 17.9859C34.7881 18.0269 34.6878 18.0694 34.5871 18.1111L33.8129 15.7798L31.7651 14.4373C31.1791 14.0535 31.0209 13.2757 31.4117 12.7C31.8028 12.1247 32.5945 11.9694 33.1801 12.3532L35.596 13.9367C35.8344 14.0927 36.012 14.3231 36.1006 14.5904L36.8089 16.7232C36.3632 17.2011 35.7414 17.6347 34.8885 17.9859Z" fill="#576574"/>
<path d="M38.7262 22.8652L41.2446 30.5868C41.4651 31.2632 41.0956 31.9904 40.4192 32.2109C40.2866 32.2545 40.1518 32.275 40.0196 32.275C39.4769 32.275 38.9723 31.9293 38.795 31.3858L36.4766 24.2766C37.1262 23.7236 37.9004 23.2571 38.7262 22.8652Z" fill="#576574"/>
<path d="M35.7351 15.78L33.6869 14.4375C33.101 14.0537 32.9428 13.2759 33.3339 12.7002C33.3735 12.642 33.4178 12.5892 33.465 12.5398L33.1801 12.3534C32.5945 11.9692 31.8028 12.1249 31.4117 12.7002C31.0209 13.2759 31.1791 14.0537 31.7651 14.4375L33.8129 15.78L34.5871 18.1113C34.6878 18.0692 34.7881 18.0271 34.8885 17.9857C35.4176 17.7682 35.8575 17.5184 36.2218 17.2463L35.7351 15.78Z" fill="#3E4B5A"/>
<path d="M40.7169 31.3858L38.6306 24.9885C38.4871 24.5487 38.6434 24.0631 39.0225 23.7983L39.029 23.7939L38.7262 22.8652C37.9004 23.2574 37.1262 23.7236 36.4766 24.277L38.795 31.3858C38.9723 31.9297 39.4769 32.275 40.0196 32.275C40.1518 32.275 40.2866 32.2545 40.4192 32.2113C40.644 32.138 40.8334 32.008 40.9802 31.8436C40.8652 31.7143 40.774 31.5605 40.7169 31.3858Z" fill="#3E4B5A"/>
<path d="M24.8141 25.3465C24.4394 25.2271 24.0406 25.162 23.6265 25.162C22.7801 25.162 21.9034 25.3381 21.2637 25.7951L22.9208 22.3169C23.3621 21.3907 24.0959 20.6367 25.0096 20.1709C27.1025 19.1041 30.8935 17.1885 31.9174 16.7834C33.3541 16.2155 34.9174 18.0798 34.9174 18.0798C32.3349 19.162 29.5671 20.5928 27.602 21.6233C26.102 22.4103 25.1525 23.7268 24.8141 25.3465Z" fill="#E4EAF8"/>
<path d="M24.1106 23.2387C24.5519 22.3129 25.2858 21.5585 26.1998 21.0927C28.2923 20.0259 32.0833 18.1103 33.1073 17.7056C33.6708 17.483 34.2531 17.6346 34.7537 17.9008C34.3165 17.4489 33.0758 16.3254 31.9174 16.7835C30.8935 17.1882 27.1025 19.1038 25.0096 20.1706C24.0959 20.6364 23.3621 21.3904 22.9208 22.3166L21.2637 25.7952C21.7928 25.4169 22.4842 25.2316 23.1866 25.1785L24.1106 23.2387Z" fill="#C7D2E5"/>
<path d="M24.914 26.7405C24.7804 26.6819 24.6943 26.5486 24.6943 26.401C24.6943 26.022 24.7335 25.6422 24.8108 25.272L24.8283 25.1892L24.7474 25.1636C24.3545 25.0383 23.9454 24.9746 23.5316 24.9746C21.3245 24.9746 19.5293 26.7701 19.5293 28.9769C19.5293 29.5881 19.6637 30.1751 19.9288 30.7215L19.9545 30.7743H21.3644C21.4794 30.7743 21.5878 30.8281 21.661 30.9218C22.1818 31.5909 22.9786 31.9769 23.8205 31.9769C23.8813 31.9769 23.9421 31.9747 24.0033 31.9707C25.3348 31.8824 26.4254 30.8142 26.5396 29.4859C26.6404 28.3148 25.987 27.2114 24.914 26.7405Z" fill="#576574"/>
<path d="M24.6581 30.9219C24.5848 30.8281 24.4764 30.7743 24.3614 30.7743H23.7997C22.9211 30.7743 22.6659 30.0177 22.6051 29.7646C22.5538 29.5076 22.5264 29.2446 22.5264 28.9765C22.5264 27.3912 23.4529 26.0183 24.7928 25.3708C24.7991 25.3379 24.8038 25.3046 24.8108 25.2716L24.8283 25.1888L24.7478 25.1632C24.3545 25.038 23.9454 24.9746 23.5316 24.9746C21.3248 24.9746 19.5293 26.7698 19.5293 28.9765C19.5293 29.5878 19.6637 30.1748 19.9288 30.7212L19.9545 30.7739H21.3644C21.4797 30.7739 21.5878 30.8277 21.661 30.9219C22.1818 31.5906 22.9786 31.9765 23.8205 31.9765C23.8813 31.9765 23.9421 31.9747 24.0033 31.9707C24.4834 31.9388 24.9313 31.7791 25.3143 31.5265C25.0671 31.3642 24.8445 31.1617 24.6581 30.9219Z" fill="#3E4B5A"/>
<path d="M26.0984 27.916H26.098C26.3621 28.3683 26.4964 28.9055 26.447 29.4772C26.3368 30.7604 25.2832 31.7909 23.9978 31.8762C23.0786 31.9374 22.2524 31.5268 21.7357 30.8636C21.6464 30.749 21.5109 30.6798 21.3651 30.6798H17.0442C16.6667 30.6798 16.4451 31.1042 16.6608 31.414L19.685 35.7577C19.7725 35.8833 19.9157 35.958 20.0684 35.958H31.9662C32.2031 35.958 32.4019 35.7811 32.4298 35.546C32.5345 34.6612 32.8381 32.4775 33.494 30.2206L26.0984 27.916Z" fill="#FF6B6B"/>
<path d="M23.0115 35.9582C22.8585 35.9582 22.7153 35.8832 22.6281 35.7579L19.604 31.4139C19.3883 31.1045 19.6098 30.6801 19.987 30.6797H17.0442C16.667 30.6797 16.445 31.1041 16.6607 31.4139L19.6849 35.7579C19.7724 35.8832 19.9156 35.9582 20.0683 35.9582H31.9661H23.0115Z" fill="#EE5253"/>
<path d="M25.2832 31.4349C26.8557 32.5116 29.2119 31.5484 29.3902 29.4772C29.406 29.2944 29.4009 29.1146 29.38 28.9385L26.0984 27.916C26.3621 28.3683 26.4965 28.9055 26.4474 29.4772C26.3774 30.2898 25.9288 31.0006 25.2832 31.4349Z" fill="#EE5253"/>
<path d="M45.2391 19.081C45.3427 19.081 45.4445 19.085 45.5452 19.0909L44.9219 17.1701C44.7381 16.6036 44.4953 16.0594 44.2005 15.5456L42.1849 15.3482C41.5638 15.2875 41.0024 14.9535 40.6527 14.4371L37.872 10.3301L37.4641 10.5806C37.1187 10.7926 36.9777 11.2262 37.1374 11.5986C37.7376 12.9961 38.6872 16.3678 34.8244 17.9861C32.4221 18.9924 29.9418 20.2192 28.0254 21.2149C29.1991 21.2325 30.4867 21.4947 31.764 22.0268C33.5859 22.7856 35.0343 23.9446 35.9011 25.2004C35.9696 25.1202 36.0395 25.0425 36.1106 24.9678C38.1306 22.8468 42.0054 21.8796 44.3309 21.4727C43.3604 21.2962 42.6697 20.8458 42.6697 20.317C42.6697 19.6344 43.82 19.081 45.2391 19.081Z" fill="#FECA57"/>
<path d="M30.546 21.4357C30.683 21.364 30.8251 21.2896 30.969 21.2149C30.969 21.2149 30.969 21.2149 30.9686 21.2149C31.0041 21.1962 31.1008 21.1464 31.1528 21.1193H31.1532C33.0428 20.1412 35.4411 18.9605 37.7677 17.9857C39.8616 17.1086 40.541 15.7163 40.6289 14.4023L37.872 10.3301L37.4641 10.5806C37.1187 10.7926 36.9777 11.2262 37.1374 11.5986C37.7376 12.9961 38.6872 16.3678 34.8244 17.9861C32.4221 18.9924 29.9418 20.2192 28.0254 21.2149C28.7644 21.2263 29.5488 21.3343 30.3472 21.5456C30.4127 21.5079 30.4786 21.4709 30.546 21.4357Z" fill="#F4B537"/>
<path d="M42.0898 15.4417C41.4687 15.3809 40.9073 15.0469 40.5576 14.5305L37.7598 10.3979L38.5841 9.89176C38.9254 9.68229 39.3682 9.74967 39.6315 10.0518L43.2218 14.1709C43.6206 14.6279 43.9674 15.126 44.26 15.6541L42.0898 15.4417Z" fill="#8AC2FF"/>
<path d="M43.0779 14.5751C42.4571 14.5143 41.8954 14.1803 41.5456 13.6639L38.9144 9.77734C38.8002 9.79126 38.6874 9.82898 38.5841 9.89233L37.7598 10.3988L40.558 14.5311C40.9077 15.0478 41.4691 15.3818 42.0902 15.4422L44.2603 15.6546C44.0615 15.2961 43.8355 14.9526 43.5876 14.6249L43.0779 14.5751Z" fill="#54A0FF"/>
<path d="M28.6028 29.702C27.7429 29.3438 26.9709 28.8912 26.311 28.38C26.0701 27.6838 25.5471 27.1195 24.8773 26.8258C24.7089 26.7518 24.6016 26.5841 24.6016 26.4002C24.6016 24.3161 25.7562 22.4034 27.6019 21.4355C27.7971 21.333 28.0007 21.2272 28.2091 21.1191C29.3487 21.1195 30.6085 21.3674 31.8573 21.8874C33.7074 22.6583 35.1506 23.8657 35.9409 25.1537C34.7943 26.4614 33.9956 28.4529 33.4506 30.3722C32.0382 30.6171 30.31 30.4132 28.6028 29.702Z" fill="#EE5253"/>
<path d="M24.8777 26.8264C25.5475 27.1201 26.0704 27.6844 26.3114 28.3806C26.9713 28.8918 27.7433 29.3444 28.6031 29.7026C28.836 29.7996 29.0697 29.8864 29.3026 29.9648C29.3447 29.8099 29.3758 29.6484 29.3905 29.4781C29.4894 28.3304 28.8375 27.2724 27.8205 26.8264C27.6525 26.7524 27.5448 26.5847 27.5448 26.4009C27.5448 24.319 28.6972 22.4084 30.5393 21.4395C29.7358 21.2249 28.9474 21.1201 28.2095 21.1201C28.0011 21.2278 27.7971 21.3336 27.6023 21.4362C25.7566 22.404 24.6016 24.3168 24.6016 26.4009C24.6019 26.5847 24.7092 26.7524 24.8777 26.8264Z" fill="#D83941"/>
<path d="M7.4696 15.3203C8.1438 14.5322 9.30761 14.4033 10.1634 14.9888C12.8415 16.8217 17.0515 17.3179 17.0515 17.3179L19.4146 19.9341L15.6082 20.7002C14.77 20.8687 13.9002 20.6515 13.24 20.1088L7.44727 15.347C7.45459 15.3378 7.46228 15.329 7.4696 15.3203Z" fill="#3E4B5A"/>
<path d="M17.904 20.1081L13.5721 16.5467C12.4252 16.19 11.1833 15.6861 10.1634 14.9881C9.30761 14.4022 8.1438 14.5311 7.46997 15.3195C7.46228 15.3283 7.45496 15.3371 7.44727 15.3463L13.24 20.1081C13.9006 20.6508 14.77 20.868 15.6082 20.6995L18.0373 20.2106C17.9919 20.1777 17.9476 20.1436 17.904 20.1081Z" fill="#374451"/>
<path d="M42.6055 20.3101C42.6055 19.6183 43.7235 19.0576 45.1023 19.0576C45.2517 19.0576 45.3978 19.0646 45.5403 19.0774L45.912 20.2229C46.0757 20.7275 45.7453 21.2571 45.2202 21.3321C44.9412 21.3717 44.613 21.4233 44.2501 21.4878C43.2906 21.3131 42.6055 20.8517 42.6055 20.3101Z" fill="#576574"/>
<path d="M44.5116 20.3101C44.5116 19.8798 44.9448 19.5 45.604 19.2748L45.5403 19.0774C45.3978 19.0646 45.2517 19.0576 45.1023 19.0576C43.7235 19.0576 42.6055 19.6183 42.6055 20.3101C42.6055 20.8517 43.291 21.3131 44.2501 21.4878C44.613 21.4233 44.9412 21.3717 45.2202 21.3321C45.2916 21.3219 45.3594 21.3025 45.4231 21.2765C44.8672 21.0465 44.5116 20.6993 44.5116 20.3101Z" fill="#3E4B5A"/>
<path d="M45.4968 23.8325C44.6849 23.2074 43.7899 22.735 42.8414 22.4222C43.6621 22.2292 44.5098 22.0721 45.2895 21.9608C46.2449 21.8246 46.8495 20.86 46.5511 19.9389C45.5286 16.7892 45.2488 15.3936 43.7225 13.6423L40.1322 9.52358C39.6418 8.96071 38.8233 8.83584 38.1869 9.22622L37.0659 9.91469C36.4258 10.3076 36.1658 11.1221 36.4613 11.8095C36.7532 12.4891 37.1611 13.7419 36.8535 14.9186L36.6535 14.3055C36.518 13.8899 36.243 13.5277 35.8797 13.2853L33.5063 11.7018C32.6095 11.1034 31.3926 11.3462 30.7938 12.2434C30.194 13.1425 30.436 14.3561 31.3354 14.9559L32.7816 15.9205C32.7347 15.915 32.6879 15.9099 32.6406 15.9066C29.4641 13.8196 27.484 13.4644 26.2473 13.1597C23.2276 12.4159 20.3719 11.7135 16.7101 16.4958C15.6302 16.3245 12.5709 15.7378 10.5311 14.3418C9.56796 13.6826 8.33529 13.7035 7.42636 14.3282L6.03806 13.037C4.89805 11.9768 3.78514 12.1383 2.21886 12.1383C1.02649 12.1383 0.3739 13.527 1.13232 14.4451L4.19237 18.1493C4.9171 19.0267 6.06516 19.4896 7.22238 19.3376L11.5645 22.9195C12.3834 23.5952 13.4055 23.913 14.4298 23.8479L16.8057 23.6977L17.4191 24.603L14.5704 25.9631C13.0316 23.9808 10.6713 22.8137 8.1412 22.8137C3.65221 22.8133 0 26.4655 0 30.9545C0 35.4435 3.65221 39.0954 8.1412 39.0954C12.2611 39.0954 15.6884 36.0342 16.211 32.0173L16.2396 32.0158L19.0784 36.0932C19.297 36.4074 19.6563 36.5949 20.0386 36.5949H24.7869C25.1754 36.5949 25.49 36.2799 25.49 35.8918C25.49 35.5032 25.1754 35.1886 24.7869 35.1886H20.162L17.4664 31.3167H21.2218C23.0679 33.5312 26.6549 32.5036 27.0907 29.6915C28.69 30.5975 30.6213 31.1618 32.4821 31.1032C32.1602 32.4076 31.895 33.8553 31.7277 35.1886H28.0685C27.6803 35.1886 27.3654 35.5036 27.3654 35.8918C27.3654 36.2799 27.6799 36.5949 28.0685 36.5949H31.9368C32.5297 36.5949 33.0292 36.151 33.0987 35.5622C33.1013 35.5406 33.1046 35.5182 33.1072 35.4966C33.618 36.2543 34.2541 36.9296 34.9884 37.4785C40.3252 41.4688 48.0002 37.6521 48.0002 30.9545C48.0002 28.8426 47.1883 26.8409 45.7469 25.3332C46.0736 24.8381 45.9567 24.1862 45.4968 23.8325ZM22.6574 24.3752L23.526 22.5522C23.8985 21.7704 24.5283 21.1233 25.2996 20.73C25.8738 20.4374 31.8687 17.363 32.3905 17.3125C32.7834 17.2748 33.1881 17.478 33.5115 17.7047C32.6205 18.0932 27.3489 20.5062 26.2041 21.4312C25.2516 22.201 24.5598 23.2198 24.1874 24.3488C23.6773 24.2723 23.14 24.2862 22.6574 24.3752ZM16.7537 21.1137C17.7425 20.9149 17.4045 20.983 19.1319 20.6355L21.5866 23.3531C21.2793 23.9984 20.9765 24.6337 20.674 25.2691C20.4305 25.4585 20.1792 25.7034 20.0027 25.9093C19.0971 24.5726 17.7992 22.6566 16.7537 21.1137ZM35.0657 18.5679C37.9836 17.3454 38.9402 14.9277 38.0492 12.0563L39.9465 14.8582C40.4149 15.5503 41.1605 15.9938 41.9921 16.0751L43.7866 16.2508C44.1004 16.8851 44.2037 17.2627 44.5443 18.3119C42.9893 18.4569 41.8724 19.2388 41.8724 20.2429C41.8724 20.5674 41.9837 20.8666 42.1877 21.1299C40.0501 21.6594 37.6397 22.5453 36.0013 24.0024C34.8078 22.5196 32.8358 21.2298 30.5313 20.652C31.9683 19.9433 33.6177 19.171 35.0657 18.5679ZM39.072 10.4475C43.1809 15.161 42.6074 14.4982 42.8081 14.7421C42.1269 14.6754 41.5402 14.704 41.1107 14.0697L38.7248 10.5464L38.9229 10.4248C38.9709 10.3952 39.0339 10.4036 39.072 10.4475ZM45.091 20.5688C44.8244 20.6065 44.534 20.652 44.2268 20.7047C43.6123 20.5714 43.3332 20.3363 43.283 20.2425C43.3647 20.0821 43.9613 19.7126 44.9929 19.6943L45.2133 20.3729C45.2426 20.4626 45.1844 20.5553 45.091 20.5688ZM38.1418 26.9486C37.906 26.2257 38.058 26.6918 37.4006 24.6766C37.6885 24.4631 38.0074 24.2577 38.3564 24.0617C38.8215 25.4874 40.1512 29.5648 40.5489 30.7842C40.6427 31.0724 40.4859 31.3826 40.1966 31.4771C39.904 31.5723 39.5971 31.4116 39.5038 31.1248L38.1418 26.9486ZM40.4376 25.9078L39.6352 23.4472L39.7802 23.3842C41.2773 23.33 42.8282 23.7255 44.189 24.6253L40.4376 25.9078ZM34.4061 15.495C34.3574 15.3448 34.2593 15.2159 34.1278 15.1284L32.1158 13.7859C31.8628 13.6171 31.7954 13.2761 31.9635 13.0238C32.132 12.7715 32.474 12.7034 32.7259 12.8715L35.099 14.455C35.2012 14.5231 35.2784 14.6249 35.3165 14.7417L35.8761 16.457C35.5963 16.7002 35.2843 16.9009 34.9514 17.0712C34.9368 17.0569 34.9221 17.0433 34.9064 17.0287L34.4061 15.495ZM25.9108 14.5249C27.1237 14.8237 28.293 14.9834 30.8008 16.4285C29.1906 17.1777 26.2451 18.6697 24.6609 19.4772C23.615 20.0104 22.761 20.8874 22.2564 21.9472L22.241 21.9795L17.9336 17.211C20.9721 13.3084 23.0598 13.8229 25.9108 14.5249ZM9.73678 15.5023C12.1604 17.1609 15.676 17.7688 16.6732 17.9134C17.1547 18.4466 16.8266 18.0834 18.0351 19.4215L15.4401 19.9437C14.8059 20.0711 14.1566 19.9089 13.6571 19.4984L8.57187 15.3185C8.95053 15.202 9.38046 15.2581 9.73678 15.5023ZM5.27671 17.2535L2.21484 13.5512C2.21484 13.549 2.21667 13.5449 2.21447 13.5446H2.21923C3.77562 13.5446 4.39158 13.4259 5.08042 14.0664C7.49997 16.3168 6.40537 15.3577 8.84433 17.3627C7.81894 17.7091 8.10971 17.6109 7.22275 17.9109C6.50681 18.0775 5.74546 17.8212 5.27671 17.2535ZM12.4595 21.8344L8.83993 18.8487C9.32443 18.685 9.03109 18.7839 10.1239 18.4148L12.7642 20.5849C13.4468 21.146 14.3276 21.443 15.2394 21.3858C15.7001 22.0655 15.5591 21.8579 15.8902 22.3464C14.3679 22.4427 13.4523 22.6537 12.4595 21.8344ZM7.18943 29.4868C6.65622 29.7413 6.31125 30.2877 6.31125 30.8787C6.31125 31.7562 7.04697 32.4622 7.9288 32.4194L11.6905 32.237C11.1624 33.7026 9.75948 34.7283 8.1412 34.7283C6.0604 34.7283 4.36741 33.0353 4.36741 30.9545C4.36741 27.852 7.93942 26.0645 10.4172 27.9457L7.18943 29.4868ZM14.7813 32.0868C14.2423 35.2846 11.4627 37.6891 8.1412 37.6891C4.42747 37.6891 1.40624 34.6683 1.40624 30.9545C1.40624 27.2408 4.42747 24.2199 8.1412 24.2199C10.1301 24.2199 11.9926 25.0915 13.2656 26.586L11.7982 27.2866C8.5682 24.0588 2.9608 26.3333 2.9608 30.9545C2.9608 33.811 5.28477 36.1346 8.1412 36.1346C10.5597 36.1346 12.6284 34.4654 13.178 32.1648C13.8266 32.133 13.4791 32.1498 14.7813 32.0868ZM17.0148 29.9101C16.5336 29.9101 16.1165 30.202 15.9374 30.6227L7.86069 31.0149C7.78305 31.0197 7.71787 30.9567 7.71787 30.8787C7.71787 30.8267 7.74826 30.7784 7.79514 30.756C8.03793 30.6403 17.8941 25.9345 18.2167 25.7807C18.7294 26.5373 18.5976 26.3428 19.2044 27.2382C18.8675 28.0985 18.8096 29.0521 18.9997 29.9101H17.0148ZM20.4576 29.9101C19.7336 27.7161 21.5295 25.4383 23.8977 25.7309C23.8805 25.9082 23.8684 26.1451 23.8684 26.3333C23.8684 26.7922 24.1372 27.2111 24.5573 27.399C24.5598 27.4005 24.5624 27.4019 24.5653 27.403C25.3772 27.7593 25.8529 28.6415 25.694 29.5245C25.4182 31.0501 23.4389 31.7631 22.2304 30.3301C22.0055 30.0635 21.6829 29.9101 21.3357 29.9101H20.4576ZM26.8651 27.8732C26.5465 27.1221 25.9507 26.5117 25.2772 26.1839C25.3084 25.1669 25.657 24.1764 26.2675 23.3718C26.9845 22.4248 27.7627 22.0615 28.3472 21.7579C30.8436 21.8158 33.6243 23.1546 35.0364 25.049C34.0432 26.363 33.3522 28.0948 32.8746 29.6706C30.8228 29.8757 28.5025 29.0839 26.8651 27.8732ZM39.8586 37.6891C36.9502 37.6891 34.4083 35.861 33.4803 33.1221C33.9297 30.7787 34.7895 27.6052 36.2723 25.7518L36.6444 26.8929C32.8179 29.9127 34.954 36.1346 39.8586 36.1346C41.8779 36.1346 43.7265 34.9477 44.5688 33.1108C44.7307 32.7577 44.5754 32.3403 44.2227 32.1784C43.8697 32.0165 43.4522 32.1714 43.2904 32.5245C42.6766 33.8633 41.3297 34.7283 39.8586 34.7283C37.7778 34.7283 36.0852 33.0353 36.0852 30.9545C36.0852 29.9705 36.4616 29.0491 37.1219 28.3566L38.1667 31.561C38.5036 32.5933 39.6078 33.1481 40.6328 32.8141C41.6607 32.4787 42.221 31.3757 41.8859 30.3481L40.9016 27.3301C42.087 27.6704 43.0428 28.5749 43.4387 29.7589C43.5617 30.1273 43.9602 30.3261 44.3282 30.2031C44.6966 30.0797 44.8955 29.6816 44.7724 29.3132C44.3974 28.1907 43.6558 27.2503 42.6967 26.6215L44.4457 26.0239C48.8871 30.1544 45.9838 37.6891 39.8586 37.6891Z" fill="black"/>
</g>
<defs>
<clipPath id="clip0_18_6424">
<rect width="48" height="48" fill="white"/>
</clipPath>
</defs>
</svg>
