<svg width="52" height="52" viewBox="0 0 52 52" fill="none" xmlns="http://www.w3.org/2000/svg">
<g clip-path="url(#clip0_2001_927)">
<path d="M12.1875 27.625C11.143 27.625 10.1219 27.9347 9.2534 28.5151C8.3849 29.0954 7.70799 29.9202 7.30826 30.8852C6.90854 31.8502 6.80395 32.9121 7.00773 33.9366C7.21151 34.961 7.7145 35.9021 8.45309 36.6407C9.19169 37.3793 10.1327 37.8822 11.1572 38.086C12.1816 38.2898 13.2435 38.1852 14.2085 37.7855C15.1736 37.3858 15.9984 36.7089 16.5787 35.8404C17.159 34.9719 17.4688 33.9508 17.4688 32.9062C17.4672 31.5061 16.9102 30.1637 15.9202 29.1736C14.9301 28.1835 13.5877 27.6266 12.1875 27.625ZM12.1875 35.3437C11.7054 35.3437 11.2341 35.2008 10.8333 34.933C10.4325 34.6651 10.12 34.2844 9.93555 33.839C9.75106 33.3936 9.70279 32.9035 9.79684 32.4307C9.89089 31.9579 10.123 31.5236 10.4639 31.1827C10.8048 30.8418 11.2391 30.6096 11.712 30.5156C12.1848 30.4215 12.6749 30.4698 13.1203 30.6543C13.5657 30.8388 13.9464 31.1512 14.2142 31.552C14.482 31.9529 14.625 32.4242 14.625 32.9062C14.625 33.5527 14.3682 34.1727 13.9111 34.6298C13.454 35.0869 12.834 35.3437 12.1875 35.3437Z" fill="#B2C10F"/>
<path d="M41.4375 27.625C40.393 27.625 39.3719 27.9347 38.5034 28.5151C37.6349 29.0954 36.958 29.9202 36.5583 30.8852C36.1585 31.8502 36.054 32.9121 36.2577 33.9366C36.4615 34.961 36.9645 35.9021 37.7031 36.6407C38.4417 37.3793 39.3827 37.8822 40.4072 38.086C41.4316 38.2898 42.4935 38.1852 43.4585 37.7855C44.4236 37.3858 45.2484 36.7089 45.8287 35.8404C46.409 34.9719 46.7188 33.9508 46.7188 32.9062C46.7172 31.5061 46.1602 30.1637 45.1702 29.1736C44.1801 28.1835 42.8377 27.6266 41.4375 27.625ZM41.4375 35.3437C40.9554 35.3437 40.4841 35.2008 40.0833 34.933C39.6825 34.6651 39.37 34.2844 39.1855 33.839C39.0011 33.3936 38.9528 32.9035 39.0468 32.4307C39.1409 31.9579 39.373 31.5236 39.7139 31.1827C40.0548 30.8418 40.4891 30.6096 40.962 30.5156C41.4348 30.4215 41.9249 30.4698 42.3703 30.6543C42.8157 30.8388 43.1964 31.1512 43.4642 31.552C43.732 31.9529 43.875 32.4242 43.875 32.9062C43.875 33.5527 43.6182 34.1727 43.1611 34.6298C42.704 35.0869 42.084 35.3437 41.4375 35.3437Z" fill="#B2C10F"/>
<path d="M48.4859 23.2619L39 21.5313L30.9243 14.8307C30.1239 14.1732 29.1204 13.8134 28.0847 13.8125H16.187C15.5166 13.8109 14.8544 13.961 14.2501 14.2514C13.6458 14.5418 13.115 14.9652 12.6974 15.4897L7.53919 21.5313H4.0625C3.09313 21.5323 2.16378 21.9179 1.47833 22.6033C0.792881 23.2888 0.407325 24.2181 0.40625 25.1875V29.6563C0.407567 30.841 0.878804 31.9769 1.71657 32.8147C2.55434 33.6525 3.69022 34.1237 4.875 34.125H5.80379C5.62351 33.1848 5.65314 32.2164 5.89056 31.289C6.12798 30.3616 6.56733 29.498 7.1772 28.7601C7.78708 28.0222 8.55242 27.4281 9.41854 27.0203C10.2847 26.6125 11.2302 26.401 12.1875 26.401C13.1448 26.401 14.0903 26.6125 14.9565 27.0203C15.8226 27.4281 16.5879 28.0222 17.1978 28.7601C17.8077 29.498 18.247 30.3616 18.4844 31.289C18.7219 32.2164 18.7515 33.1848 18.5712 34.125H35.0538C34.8735 33.1848 34.9031 32.2164 35.1406 31.289C35.378 30.3616 35.8173 29.498 36.4272 28.7601C37.0371 28.0222 37.8024 27.4281 38.6685 27.0203C39.5347 26.6125 40.4802 26.401 41.4375 26.401C42.3948 26.401 43.3403 26.6125 44.2065 27.0203C45.0726 27.4281 45.8379 28.0222 46.4478 28.7601C47.0577 29.498 47.497 30.3616 47.7344 31.289C47.9719 32.2164 48.0015 33.1848 47.8212 34.125H47.9375C48.9069 34.1239 49.8362 33.7384 50.5217 33.0529C51.2071 32.3675 51.5927 31.4381 51.5937 30.4688V26.8767C51.5981 26.0008 51.2861 25.1529 50.7151 24.4887C50.1441 23.8246 49.3525 23.3889 48.4859 23.2619ZM18.2812 20.3125C18.2812 20.6357 18.1528 20.9457 17.9243 21.1743C17.6957 21.4029 17.3857 21.5313 17.0625 21.5313H11.7046C11.5881 21.5313 11.474 21.498 11.3758 21.4352C11.2777 21.3724 11.1996 21.2828 11.1508 21.177C11.102 21.0711 11.0846 20.9536 11.1006 20.8382C11.1166 20.7227 11.1654 20.6143 11.2411 20.5258L14.7873 16.3719C14.9018 16.238 15.0439 16.1306 15.2039 16.0569C15.3639 15.9833 15.538 15.9452 15.7142 15.9453H17.0625C17.3857 15.9453 17.6957 16.0737 17.9243 16.3023C18.1528 16.5308 18.2812 16.8408 18.2812 17.1641V20.3125ZM24.375 26H22.75C22.4268 26 22.1168 25.8716 21.8882 25.643C21.6597 25.4145 21.5312 25.1045 21.5312 24.7813C21.5312 24.458 21.6597 24.148 21.8882 23.9195C22.1168 23.6909 22.4268 23.5625 22.75 23.5625H24.375C24.6982 23.5625 25.0082 23.6909 25.2368 23.9195C25.4653 24.148 25.5937 24.458 25.5937 24.7813C25.5937 25.1045 25.4653 25.4145 25.2368 25.643C25.0082 25.8716 24.6982 26 24.375 26ZM33.9705 21.5611L22.3409 21.5341C22.0182 21.5334 21.7089 21.4046 21.481 21.1761C21.253 20.9477 21.125 20.6381 21.125 20.3154V17.1641C21.125 16.8408 21.2534 16.5308 21.482 16.3023C21.7105 16.0737 22.0205 15.9453 22.3437 15.9453H28.1885C28.4624 15.9453 28.7283 16.0377 28.9434 16.2074L34.3493 20.473C34.449 20.5514 34.5217 20.659 34.5573 20.7808C34.5928 20.9025 34.5896 21.0323 34.5479 21.1521C34.5062 21.2719 34.4281 21.3757 34.3246 21.449C34.2211 21.5223 34.0974 21.5615 33.9705 21.5611Z" fill="#B2C10F"/>
</g>
<defs>
<clipPath id="clip0_2001_927">
<rect width="52" height="52" fill="white"/>
</clipPath>
</defs>
</svg>
