<svg width="52" height="53" viewBox="0 0 52 53" fill="none" xmlns="http://www.w3.org/2000/svg">
<g clip-path="url(#clip0_60_1563)">
<path d="M12.1875 27.6475C11.143 27.6475 10.1219 27.9572 9.2534 28.5375C8.3849 29.1178 7.70799 29.9426 7.30826 30.9077C6.90854 31.8727 6.80395 32.9346 7.00773 33.959C7.21151 34.9835 7.7145 35.9245 8.45309 36.6631C9.19169 37.4017 10.1327 37.9047 11.1572 38.1085C12.1816 38.3123 13.2435 38.2077 14.2085 37.808C15.1736 37.4082 15.9984 36.7313 16.5787 35.8628C17.159 34.9943 17.4688 33.9732 17.4688 32.9287C17.4672 31.5285 16.9102 30.1861 15.9202 29.1961C14.9301 28.206 13.5877 27.649 12.1875 27.6475ZM12.1875 35.3662C11.7054 35.3662 11.2341 35.2233 10.8333 34.9554C10.4325 34.6876 10.12 34.3069 9.93555 33.8615C9.75106 33.4161 9.70279 32.926 9.79684 32.4532C9.89089 31.9804 10.123 31.546 10.4639 31.2051C10.8048 30.8642 11.2391 30.6321 11.712 30.538C12.1848 30.444 12.6749 30.4923 13.1203 30.6768C13.5657 30.8612 13.9464 31.1737 14.2142 31.5745C14.482 31.9754 14.625 32.4466 14.625 32.9287C14.625 33.5752 14.3682 34.1952 13.9111 34.6523C13.454 35.1094 12.834 35.3662 12.1875 35.3662Z" fill="#0FC2A0"/>
<path d="M41.4375 27.6475C40.393 27.6475 39.3719 27.9572 38.5034 28.5375C37.6349 29.1178 36.958 29.9426 36.5583 30.9077C36.1585 31.8727 36.054 32.9346 36.2577 33.959C36.4615 34.9835 36.9645 35.9245 37.7031 36.6631C38.4417 37.4017 39.3827 37.9047 40.4072 38.1085C41.4316 38.3123 42.4935 38.2077 43.4585 37.808C44.4236 37.4082 45.2484 36.7313 45.8287 35.8628C46.409 34.9943 46.7188 33.9732 46.7188 32.9287C46.7172 31.5285 46.1602 30.1861 45.1702 29.1961C44.1801 28.206 42.8377 27.649 41.4375 27.6475ZM41.4375 35.3662C40.9554 35.3662 40.4841 35.2233 40.0833 34.9554C39.6825 34.6876 39.37 34.3069 39.1855 33.8615C39.0011 33.4161 38.9528 32.926 39.0468 32.4532C39.1409 31.9804 39.373 31.546 39.7139 31.2051C40.0548 30.8642 40.4891 30.6321 40.962 30.538C41.4348 30.444 41.9249 30.4923 42.3703 30.6768C42.8157 30.8612 43.1964 31.1737 43.4642 31.5745C43.732 31.9754 43.875 32.4466 43.875 32.9287C43.875 33.5752 43.6182 34.1952 43.1611 34.6523C42.704 35.1094 42.084 35.3662 41.4375 35.3662Z" fill="#0FC2A0"/>
<path d="M48.4859 23.2843L39 21.5537L30.9243 14.8531C30.1239 14.1957 29.1204 13.8359 28.0847 13.835H16.187C15.5166 13.8334 14.8544 13.9834 14.2501 14.2739C13.6458 14.5643 13.115 14.9876 12.6974 15.5122L7.53919 21.5537H4.0625C3.09313 21.5548 2.16378 21.9404 1.47833 22.6258C0.792881 23.3112 0.407325 24.2406 0.40625 25.21V29.6787C0.407567 30.8635 0.878804 31.9994 1.71657 32.8372C2.55434 33.6749 3.69022 34.1462 4.875 34.1475H5.80379C5.62351 33.2073 5.65314 32.2389 5.89056 31.3114C6.12798 30.384 6.56733 29.5205 7.1772 28.7826C7.78708 28.0446 8.55242 27.4505 9.41854 27.0427C10.2847 26.6349 11.2302 26.4234 12.1875 26.4234C13.1448 26.4234 14.0903 26.6349 14.9565 27.0427C15.8226 27.4505 16.5879 28.0446 17.1978 28.7826C17.8077 29.5205 18.247 30.384 18.4844 31.3114C18.7219 32.2389 18.7515 33.2073 18.5712 34.1475H35.0538C34.8735 33.2073 34.9031 32.2389 35.1406 31.3114C35.378 30.384 35.8173 29.5205 36.4272 28.7826C37.0371 28.0446 37.8024 27.4505 38.6685 27.0427C39.5347 26.6349 40.4802 26.4234 41.4375 26.4234C42.3948 26.4234 43.3403 26.6349 44.2065 27.0427C45.0726 27.4505 45.8379 28.0446 46.4478 28.7826C47.0577 29.5205 47.497 30.384 47.7344 31.3114C47.9719 32.2389 48.0015 33.2073 47.8212 34.1475H47.9375C48.9069 34.1464 49.8362 33.7608 50.5217 33.0754C51.2071 32.3899 51.5927 31.4606 51.5937 30.4912V26.8992C51.5981 26.0233 51.2861 25.1753 50.7151 24.5112C50.1441 23.847 49.3525 23.4114 48.4859 23.2843ZM18.2812 20.335C18.2812 20.6582 18.1528 20.9682 17.9243 21.1968C17.6957 21.4253 17.3857 21.5537 17.0625 21.5537H11.7046C11.5881 21.5538 11.474 21.5204 11.3758 21.4577C11.2777 21.3949 11.1996 21.3052 11.1508 21.1994C11.102 21.0936 11.0846 20.976 11.1006 20.8606C11.1166 20.7452 11.1654 20.6368 11.2411 20.5483L14.7873 16.3943C14.9018 16.2605 15.0439 16.153 15.2039 16.0794C15.3639 16.0058 15.538 15.9677 15.7142 15.9678H17.0625C17.3857 15.9678 17.6957 16.0962 17.9243 16.3247C18.1528 16.5533 18.2812 16.8633 18.2812 17.1865V20.335ZM24.375 26.0225H22.75C22.4268 26.0225 22.1168 25.8941 21.8882 25.6655C21.6597 25.4369 21.5312 25.127 21.5312 24.8037C21.5312 24.4805 21.6597 24.1705 21.8882 23.9419C22.1168 23.7134 22.4268 23.585 22.75 23.585H24.375C24.6982 23.585 25.0082 23.7134 25.2368 23.9419C25.4653 24.1705 25.5937 24.4805 25.5937 24.8037C25.5937 25.127 25.4653 25.4369 25.2368 25.6655C25.0082 25.8941 24.6982 26.0225 24.375 26.0225ZM33.9705 21.5836L22.3409 21.5566C22.0182 21.5558 21.7089 21.4271 21.481 21.1986C21.253 20.9701 21.125 20.6606 21.125 20.3378V17.1865C21.125 16.8633 21.2534 16.5533 21.482 16.3247C21.7105 16.0962 22.0205 15.9678 22.3437 15.9678H28.1885C28.4624 15.9678 28.7283 16.0601 28.9434 16.2298L34.3493 20.4954C34.449 20.5739 34.5217 20.6815 34.5573 20.8032C34.5928 20.925 34.5896 21.0548 34.5479 21.1746C34.5062 21.2943 34.4281 21.3981 34.3246 21.4714C34.2211 21.5448 34.0974 21.584 33.9705 21.5836Z" fill="#0FC2A0"/>
</g>
<defs>
<clipPath id="clip0_60_1563">
<rect width="52" height="52" fill="white" transform="translate(0 0.0224609)"/>
</clipPath>
</defs>
</svg>
