<svg width="38" height="39" viewBox="0 0 38 39" fill="none" xmlns="http://www.w3.org/2000/svg">
<g clip-path="url(#clip0_268_22201)">
<path d="M30.7266 11.54C31.1364 11.54 31.4688 11.2078 31.4688 10.7979V2.72656C31.4688 1.49884 30.4699 0.5 29.2422 0.5H2.22656C0.998836 0.5 0 1.49884 0 2.72656V36.2734C0 37.5012 0.998836 38.5 2.22656 38.5H29.2422C30.4699 38.5 31.4688 37.5012 31.4688 36.2734V30.8056C31.4688 30.3957 31.1364 30.0634 30.7266 30.0634C30.3167 30.0634 29.9844 30.3957 29.9844 30.8056V36.2734C29.9844 36.6827 29.6514 37.0156 29.2422 37.0156H2.22656C1.81732 37.0156 1.48438 36.6827 1.48438 36.2734V2.72656C1.48438 2.31732 1.81732 1.98438 2.22656 1.98438H29.2422C29.6514 1.98438 29.9844 2.31732 29.9844 2.72656V10.7979C29.9844 11.2078 30.3167 11.54 30.7266 11.54Z" fill="white"/>
<path d="M15.7344 4.50781C11.9693 4.50781 8.90625 7.57089 8.90625 11.3359C8.90625 13.2892 9.73082 15.0532 11.0498 16.2989C11.0746 16.3253 11.1008 16.3503 11.1295 16.3731C12.3446 17.4848 13.9616 18.164 15.7343 18.164C17.507 18.164 19.124 17.4847 20.3391 16.3731C20.3678 16.3503 20.394 16.3252 20.4188 16.2989C21.7379 15.0532 22.5625 13.2892 22.5625 11.3359C22.5625 7.57089 19.4994 4.50781 15.7344 4.50781ZM15.7344 16.6797C14.5225 16.6797 13.404 16.2736 12.5065 15.591C13.1588 14.4343 14.3761 13.7109 15.7344 13.7109C17.0927 13.7109 18.3099 14.4343 18.9622 15.591C18.0647 16.2736 16.9463 16.6797 15.7344 16.6797ZM14.5469 11.0391V10.5566C14.5469 9.90188 15.0796 9.36914 15.7344 9.36914C16.3891 9.36914 16.9219 9.90188 16.9219 10.5566V11.0391C16.9219 11.6938 16.3891 12.2266 15.7344 12.2266C15.0796 12.2266 14.5469 11.6938 14.5469 11.0391ZM20.0346 14.5038C19.4872 13.692 18.7287 13.0606 17.8479 12.6708C18.1975 12.2191 18.4062 11.6531 18.4062 11.0391V10.5566C18.4062 9.08332 17.2077 7.88477 15.7344 7.88477C14.2611 7.88477 13.0625 9.08332 13.0625 10.5566V11.0391C13.0625 11.6531 13.2713 12.2191 13.6208 12.6708C12.7401 13.0606 11.9815 13.692 11.4341 14.5038C10.7789 13.6167 10.3906 12.521 10.3906 11.3359C10.3906 8.38938 12.7878 5.99219 15.7344 5.99219C18.6809 5.99219 21.0781 8.38938 21.0781 11.3359C21.0781 12.521 20.6899 13.6167 20.0346 14.5038Z" fill="white"/>
<path d="M19.7422 33.0078H15.7344C15.3245 33.0078 14.9922 33.3401 14.9922 33.75C14.9922 34.1599 15.3245 34.4922 15.7344 34.4922H19.7422C20.152 34.4922 20.4844 34.1599 20.4844 33.75C20.4844 33.3401 20.152 33.0078 19.7422 33.0078Z" fill="white"/>
<path d="M19.7422 28.8516H9.20312C8.79329 28.8516 8.46094 29.1838 8.46094 29.5938C8.46094 30.0037 8.79329 30.3359 9.20312 30.3359H19.7422C20.152 30.3359 20.4844 30.0037 20.4844 29.5938C20.4844 29.1838 20.152 28.8516 19.7422 28.8516Z" fill="white"/>
<path d="M19.7422 24.6953H9.20312C8.79329 24.6953 8.46094 25.0276 8.46094 25.4375C8.46094 25.8474 8.79329 26.1797 9.20312 26.1797H19.7422C20.152 26.1797 20.4844 25.8474 20.4844 25.4375C20.4844 25.0276 20.152 24.6953 19.7422 24.6953Z" fill="white"/>
<path d="M6.55664 20.7565C6.41867 20.6185 6.22719 20.5391 6.03125 20.5391C5.83598 20.5391 5.6445 20.6185 5.50652 20.7565C5.36848 20.8946 5.28906 21.0861 5.28906 21.2812C5.28906 21.4764 5.3684 21.6679 5.50652 21.806C5.64531 21.944 5.83598 22.0234 6.03125 22.0234C6.22719 22.0234 6.41793 21.944 6.55664 21.806C6.69469 21.6679 6.77418 21.4764 6.77418 21.2812C6.77418 21.0861 6.69477 20.8946 6.55664 20.7565Z" fill="white"/>
<path d="M6.55664 24.9128C6.41793 24.7747 6.22719 24.6953 6.03125 24.6953C5.83598 24.6953 5.64531 24.7747 5.50652 24.9128C5.36848 25.0508 5.28906 25.2423 5.28906 25.4375C5.28906 25.6327 5.3684 25.8242 5.50652 25.9622C5.64531 26.1003 5.83598 26.1797 6.03125 26.1797C6.22719 26.1797 6.41793 26.1003 6.55664 25.9622C6.69469 25.8242 6.77418 25.6327 6.77418 25.4375C6.77418 25.2423 6.69477 25.0508 6.55664 24.9128Z" fill="white"/>
<path d="M6.55664 29.069C6.41793 28.931 6.22719 28.8516 6.03125 28.8516C5.83598 28.8516 5.64531 28.931 5.50652 29.069C5.36848 29.2071 5.28906 29.3986 5.28906 29.5938C5.28906 29.7889 5.3684 29.9804 5.50652 30.1185C5.6445 30.2565 5.83598 30.3359 6.03125 30.3359C6.22719 30.3359 6.41867 30.2565 6.55664 30.1185C6.69469 29.9804 6.77418 29.7889 6.77418 29.5938C6.77418 29.3986 6.69477 29.2071 6.55664 29.069Z" fill="white"/>
<path d="M19.7422 20.5391H9.20312C8.79329 20.5391 8.46094 20.8713 8.46094 21.2812C8.46094 21.6912 8.79329 22.0234 9.20312 22.0234H19.7422C20.152 22.0234 20.4844 21.6912 20.4844 21.2812C20.4844 20.8713 20.152 20.5391 19.7422 20.5391Z" fill="white"/>
<path d="M36.4408 10.1729C35.7198 9.75657 34.8798 9.64598 34.0754 9.86144C33.2711 10.077 32.5989 10.5928 32.1826 11.3138L22.8428 27.4908C22.7917 27.5795 22.7593 27.6778 22.748 27.7795L22.0905 33.6684C22.0579 33.9614 22.2017 34.246 22.457 34.3935C22.5723 34.46 22.7003 34.4929 22.828 34.4929C22.9833 34.4929 23.138 34.4443 23.2682 34.3484L28.0393 30.8345C28.1218 30.7738 28.1908 30.6967 28.2419 30.608L37.5817 14.4311C38.4411 12.9426 37.9293 11.0323 36.4408 10.1729ZM23.7539 32.1471L24.0972 29.0721L26.2453 30.3123L23.7539 32.1471ZM27.3275 29.223L24.4994 27.5902L31.9944 14.6086L34.8225 16.2414L27.3275 29.223ZM36.2962 13.6888L35.5646 14.956L32.7365 13.3231L33.4681 12.056C33.6862 11.6783 34.0383 11.4082 34.4595 11.2953C34.8809 11.1823 35.3209 11.2403 35.6985 11.4584C36.0762 11.6765 36.3464 12.0285 36.4593 12.4498C36.5722 12.8711 36.5143 13.3111 36.2962 13.6888Z" fill="white"/>
</g>
<defs>
<clipPath id="clip0_268_22201">
<rect width="38" height="38" fill="white" transform="translate(0 0.5)"/>
</clipPath>
</defs>
</svg>
