<svg width="128" height="17" viewBox="0 0 128 17" fill="none" xmlns="http://www.w3.org/2000/svg">
<path d="M0.824 0.476862H5.456C7.664 0.476862 8.792 1.05286 9.536 1.67686C10.76 2.70886 11.12 4.07686 11.12 5.27686C11.12 6.83686 10.496 8.20486 9.248 9.04486C8.84 9.33286 8.264 9.59686 7.496 9.74086L12.488 16.4849H8.6L4.328 10.0529H3.944V16.4849H0.824V0.476862ZM3.944 3.02086V7.84486H4.832C5.432 7.84486 7.904 7.77286 7.904 5.42086C7.904 3.04486 5.456 3.02086 4.88 3.02086H3.944ZM23.4853 0.476862V3.16486H17.7253V6.74086H23.2453V9.42886H17.7253V13.7969H23.4853V16.4849H14.6053V0.476862H23.4853ZM37.4075 16.4849L35.9915 13.1249H29.5355L28.1195 16.4849H24.7355L31.6235 0.476862H34.0715L40.7675 16.4849H37.4075ZM30.5195 10.5809H35.0795L32.7995 4.82086L30.5195 10.5809ZM42.6365 0.476862H46.8125C49.0445 0.476862 50.9885 0.716863 52.7645 2.03686C54.7085 3.50086 55.8365 5.82886 55.8365 8.49286C55.8365 11.1569 54.7325 13.4609 52.6205 14.9489C50.7485 16.2689 48.9965 16.4849 46.7645 16.4849H42.6365V0.476862ZM45.7565 3.16486V13.7969H46.7165C47.5085 13.7969 49.2365 13.7489 50.6285 12.7409C51.9005 11.8289 52.6205 10.1969 52.6205 8.49286C52.6205 6.81286 51.9245 5.18086 50.6525 4.22086C49.3565 3.26086 47.7725 3.16486 46.7165 3.16486H45.7565ZM63.5002 16.4849L66.4762 0.476862H68.7322L72.9802 10.6529L77.4202 0.476862H79.6762L82.3642 16.4849H79.1962L77.7562 6.62086L73.4602 16.4849H72.4042L68.3002 6.62086L66.6682 16.4849H63.5002ZM92.975 0.116862C98.015 0.116862 101.519 3.62086 101.519 8.49286C101.519 13.3649 98.015 16.8449 92.975 16.8449C87.935 16.8449 84.431 13.3649 84.431 8.49286C84.431 3.62086 87.935 0.116862 92.975 0.116862ZM92.975 14.0129C96.095 14.0129 98.303 11.7329 98.303 8.49286C98.303 5.25286 96.095 2.94886 92.975 2.94886C89.855 2.94886 87.647 5.25286 87.647 8.49286C87.647 11.7329 89.855 14.0129 92.975 14.0129ZM104.394 0.476862H109.026C111.234 0.476862 112.362 1.05286 113.106 1.67686C114.33 2.70886 114.69 4.07686 114.69 5.27686C114.69 6.83686 114.066 8.20486 112.818 9.04486C112.41 9.33286 111.834 9.59686 111.066 9.74086L116.058 16.4849H112.17L107.898 10.0529H107.514V16.4849H104.394V0.476862ZM107.514 3.02086V7.84486H108.402C109.002 7.84486 111.474 7.77286 111.474 5.42086C111.474 3.04486 109.026 3.02086 108.45 3.02086H107.514ZM127.056 0.476862V3.16486H121.296V6.74086H126.816V9.42886H121.296V13.7969H127.056V16.4849H118.176V0.476862H127.056Z" fill="#333333"/>
</svg>
