<svg width="91" height="45" viewBox="0 0 91 45" fill="none" xmlns="http://www.w3.org/2000/svg">
<g clip-path="url(#clip0_627_5186)">
<path d="M73.2885 29.46C77.4008 29.46 80.7344 32.7936 80.7344 36.9059C80.7344 41.0182 77.4008 44.3518 73.2885 44.3518C69.1782 44.3472 65.8471 41.0162 65.8426 36.9059C65.8426 32.7936 69.1762 29.46 73.2885 29.46Z" fill="#333333"/>
<path d="M3.53735 19.9005L11.8365 16.1123C12.1193 15.9868 12.3587 15.7801 12.5245 15.5187L19.7162 4.05492C21.0555 1.91666 23.4088 0.627087 25.9318 0.648705H55.1568C57.4384 0.641763 59.5931 1.6975 60.9858 3.50474L70.2344 15.6211C70.4413 15.8979 70.7342 16.0983 71.0674 16.1903L86.5245 20.42C88.732 21.0346 90.2536 23.0521 90.2382 25.3435V30.996C90.2382 33.81 88.0388 36.1504 85.2244 36.1504H83.8779C83.4811 30.9211 79.3251 26.7651 74.0958 26.3683C68.2497 25.9246 63.1507 30.304 62.707 36.1504H29.2367C28.8398 30.9211 24.6839 26.7653 19.4546 26.3683C13.6084 25.9246 8.50942 30.304 8.06575 36.1504H5.60421C2.78983 36.1504 0.590485 33.81 0.590485 30.996V24.5434C0.574615 22.5509 1.72774 20.7341 3.53735 19.9005Z" fill="#333333"/>
<path d="M18.6478 29.46C22.7601 29.46 26.0938 32.7936 26.0938 36.9059C26.0938 41.0182 22.7601 44.3518 18.648 44.3518C14.5377 44.3472 11.2067 41.0162 11.2019 36.9059C11.2019 32.7936 14.5357 29.46 18.6478 29.46Z" fill="#333333"/>
</g>
<defs>
<clipPath id="clip0_627_5186">
<rect width="91" height="45" fill="white" transform="matrix(-1 0 0 1 91 0)"/>
</clipPath>
</defs>
</svg>
