<svg width="64" height="69" viewBox="0 0 64 69" fill="none" xmlns="http://www.w3.org/2000/svg">
<g clip-path="url(#clip0_627_5205)">
<path d="M55.2727 22.2943H46.5454V9.83984H5.81823C2.60359 9.83984 0 12.6265 0 16.0672V50.3172H5.81823C5.81823 55.4704 9.73092 59.6582 14.5455 59.6582C19.3601 59.6582 23.2728 55.4704 23.2728 50.3172H40.7273C40.7273 55.4704 44.64 59.6582 49.4546 59.6582C54.2692 59.6582 58.1819 55.4704 58.1819 50.3172H64.0001V34.749L55.2727 22.2943ZM14.5455 54.9876C12.1309 54.9876 10.1819 52.9015 10.1819 50.3171C10.1819 47.7327 12.1309 45.6466 14.5455 45.6466C16.9601 45.6466 18.9092 47.7327 18.9092 50.3171C18.9092 52.9015 16.96 54.9876 14.5455 54.9876ZM49.4546 54.9876C47.04 54.9876 45.091 52.9015 45.091 50.3171C45.091 47.7327 47.04 45.6466 49.4546 45.6466C51.8692 45.6466 53.8183 47.7327 53.8183 50.3171C53.8183 52.9015 51.8691 54.9876 49.4546 54.9876ZM46.5454 34.749V26.965H53.8181L59.5345 34.749H46.5454Z" fill="black"/>
</g>
<defs>
<clipPath id="clip0_627_5205">
<rect width="64" height="68.5" fill="white" transform="translate(0 0.5)"/>
</clipPath>
</defs>
</svg>
