<svg width="38" height="39" viewBox="0 0 38 39" fill="none" xmlns="http://www.w3.org/2000/svg">
<path d="M34.6602 6.14062H3.33984C1.49454 6.14062 0 7.64445 0 9.48047V29.5195C0 31.3665 1.50553 32.8594 3.33984 32.8594H34.6602C36.49 32.8594 38 31.3728 38 29.5195V9.48047C38 7.64771 36.5114 6.14062 34.6602 6.14062ZM34.1924 8.36719C33.5101 9.04592 21.7671 20.7271 21.3616 21.1304C20.7308 21.7612 19.8921 22.1086 19 22.1086C18.1079 22.1086 17.2692 21.7611 16.6363 21.1283C16.3636 20.857 4.75022 9.30487 3.80757 8.36719H34.1924ZM2.22656 29.0664V9.93506L11.8481 19.5059L2.22656 29.0664ZM3.80898 30.6328L13.4268 21.0762L15.064 22.7048C16.1153 23.7561 17.5132 24.3351 19 24.3351C20.4868 24.3351 21.8847 23.7561 22.934 22.7068L24.5732 21.0762L34.191 30.6328H3.80898ZM35.7734 29.0664L26.1519 19.5059L35.7734 9.93506V29.0664Z" fill="#F05778"/>
</svg>
