<svg width="14" height="13" viewBox="0 0 14 13" fill="none" xmlns="http://www.w3.org/2000/svg">
<path d="M11.61 12.7961L10.62 11.7341C9.558 12.3641 8.532 12.5981 7.2 12.5981C3.42 12.5981 0.792 10.0061 0.792 6.33412C0.792 2.68012 3.42 0.0521243 7.2 0.0521243C10.98 0.0521243 13.608 2.68012 13.608 6.33412C13.608 8.58412 12.672 9.88012 12.024 10.6001L13.968 12.5621L11.61 12.7961ZM9.018 7.50412L10.404 8.92612C10.782 8.42212 11.196 7.66612 11.196 6.33412C11.196 3.90412 9.54 2.17612 7.2 2.17612C4.86 2.17612 3.204 3.90412 3.204 6.33412C3.204 8.74612 4.842 10.4741 7.254 10.4741C8.064 10.4741 8.604 10.2941 9.036 10.0781L6.588 7.70213L9.018 7.50412Z" fill="#2297C8"/>
</svg>
