<svg width="94" height="112" viewBox="0 0 94 112" fill="none" xmlns="http://www.w3.org/2000/svg">
<g filter="url(#filter0_d_137_14826)">
<circle cx="47" cy="63" r="45" fill="#6FBADA"/>
<rect x="15" width="64" height="34" rx="17" fill="white"/>
<path d="M68.6514 61.5387L65.8323 61.0181C65.4727 60.9521 65.131 60.7979 64.8319 60.5667C64.5329 60.3354 64.2842 60.033 64.1039 59.6815L60.2105 52.1216C59.5649 50.8709 58.6335 49.8312 57.5101 49.1076C56.3868 48.384 55.1114 48.0019 53.8125 48H40.1273C38.8285 48.0018 37.5531 48.3837 36.4298 49.1072C35.3065 49.8307 34.375 50.8701 33.7293 52.1207L29.7582 59.8323C29.593 60.1512 29.3716 60.43 29.1073 60.652C28.843 60.874 28.5411 61.0346 28.2196 61.1244L25.5062 61.8767C24.8306 62.0644 24.2095 62.4408 23.702 62.9701C23.1945 63.4994 22.8175 64.164 22.6069 64.9007C22.5978 64.9243 22.597 64.9525 22.5897 64.977C22.4711 65.4005 22.4093 65.8411 22.4062 66.2846V72.5333C22.4076 73.7378 22.8393 74.8925 23.6068 75.7442C24.3743 76.5959 25.4148 77.075 26.5002 77.0765H29.5174C29.9805 78.1636 30.7124 79.0824 31.6278 79.7259C32.5432 80.3693 33.6045 80.7109 34.6881 80.7109C35.7717 80.7109 36.833 80.3693 37.7484 79.7259C38.6638 79.0824 39.3956 78.1636 39.8587 77.0765H57.3562C57.8193 78.1636 58.5512 79.0824 59.4666 79.7259C60.382 80.3693 61.4433 80.7109 62.5269 80.7109C63.6105 80.7109 64.6718 80.3693 65.5872 79.7259C66.5026 79.0824 67.2344 78.1636 67.6975 77.0765H70.7148C71.8002 77.075 72.8407 76.5959 73.6082 75.7442C74.3757 74.8925 74.8074 73.7378 74.8087 72.5333V69.6047C74.8131 67.6677 74.1959 65.7923 73.0676 64.3143C71.9394 62.8363 70.3739 61.8524 68.6514 61.5387ZM72.2656 66.1728C72.5894 66.733 72.8317 67.3462 72.9836 67.9901H72.3524C71.7028 67.9899 71.0795 67.7051 70.6182 67.1977C70.3588 66.9077 70.1603 66.5577 70.0368 66.1728H72.2656ZM24.052 66.1728H25.4513L25.0419 67.9901H24.0438V66.2846C24.0438 66.2464 24.0512 66.21 24.052 66.1728ZM34.6881 78.8937C33.8784 78.8937 33.0869 78.6273 32.4136 78.1281C31.7404 77.6289 31.2156 76.9193 30.9058 76.0892C30.5959 75.259 30.5148 74.3455 30.6728 73.4642C30.8308 72.5829 31.2207 71.7734 31.7932 71.138C32.3658 70.5026 33.0952 70.0699 33.8894 69.8946C34.6835 69.7193 35.5067 69.8093 36.2548 70.1532C37.0028 70.497 37.6422 71.0794 38.0921 71.8265C38.5419 72.5736 38.782 73.452 38.782 74.3505C38.7807 75.555 38.349 76.7098 37.5815 77.5615C36.814 78.4132 35.7735 78.8923 34.6881 78.8937ZM62.5269 78.8937C61.7172 78.8937 60.9257 78.6273 60.2524 78.1281C59.5792 77.6289 59.0544 76.9193 58.7446 76.0892C58.4347 75.259 58.3536 74.3455 58.5116 73.4642C58.6696 72.5829 59.0595 71.7734 59.632 71.138C60.2046 70.5026 60.934 70.0699 61.7282 69.8946C62.5223 69.7193 63.3455 69.8093 64.0936 70.1532C64.8416 70.497 65.481 71.0794 65.9309 71.8265C66.3807 72.5736 66.6208 73.452 66.6208 74.3505C66.6195 75.555 66.1878 76.7098 65.4203 77.5615C64.6528 78.4132 63.6123 78.8923 62.5269 78.8937ZM70.7148 75.2592H68.1929C68.3174 74.3533 68.264 73.4283 68.0365 72.5475C67.8089 71.6666 67.4125 70.8507 66.8744 70.1556C66.3364 69.4606 65.6693 68.9027 64.919 68.5203C64.1686 68.1378 63.3526 67.9398 62.5269 67.9398C61.7012 67.9398 60.8852 68.1378 60.1348 68.5203C59.3844 68.9027 58.7174 69.4606 58.1793 70.1556C57.6413 70.8507 57.2449 71.6666 57.0173 72.5475C56.7898 73.4283 56.7364 74.3533 56.8609 75.2592H40.3541C40.4786 74.3533 40.4252 73.4283 40.1976 72.5475C39.9701 71.6666 39.5737 70.8507 39.0356 70.1556C38.4976 69.4606 37.8305 68.9027 37.0802 68.5203C36.3298 68.1378 35.5138 67.9398 34.6881 67.9398C33.8624 67.9398 33.0464 68.1378 32.296 68.5203C31.5456 68.9027 30.8786 69.4606 30.3405 70.1556C29.8024 70.8507 29.4061 71.6666 29.1785 72.5475C28.9509 73.4283 28.8976 74.3533 29.0221 75.2592H26.5002C25.8487 75.2592 25.2239 74.972 24.7633 74.4608C24.3026 73.9496 24.0438 73.2562 24.0438 72.5333V69.8074H25.6814C25.8639 69.8073 26.0412 69.7397 26.1851 69.615C26.329 69.4904 26.4313 69.316 26.4756 69.1195L27.2944 65.485C27.3247 65.351 27.327 65.2111 27.3012 65.076C27.2754 64.9409 27.2222 64.814 27.1457 64.7051C27.0691 64.5963 26.9712 64.5082 26.8593 64.4476C26.7475 64.387 26.6247 64.3555 26.5002 64.3555H24.7717C25.0839 64.0078 25.4753 63.7606 25.9041 63.6404L28.6184 62.8872C29.1536 62.7372 29.6562 62.4692 30.0962 62.0993C30.5362 61.7293 30.9046 61.2649 31.1796 60.7337L35.1507 53.0221C35.6531 52.0495 36.3776 51.2411 37.2514 50.6784C38.1251 50.1157 39.1171 49.8187 40.1273 49.8173H53.8125C54.8227 49.8187 55.8147 50.1157 56.6884 50.6784C57.5622 51.2411 58.2868 52.0495 58.7891 53.0221L62.6816 60.5819C62.9819 61.1682 63.3964 61.6727 63.895 62.0583C64.3935 62.4439 64.9634 62.701 65.563 62.8108L68.382 63.3324C69.2064 63.4837 69.991 63.8329 70.6812 64.3555H69.0772C68.86 64.3555 68.6518 64.4512 68.4982 64.6216C68.3447 64.792 68.2584 65.0232 68.2584 65.2642C68.2579 65.8609 68.3634 66.452 68.5689 67.0035C68.7745 67.5549 69.076 68.056 69.4563 68.478C69.8366 68.9 70.2881 69.2346 70.785 69.4627C71.282 69.6908 71.8146 69.8079 72.3524 69.8074H73.1711V72.5333C73.1711 73.2562 72.9123 73.9496 72.4517 74.4608C71.991 74.972 71.3662 75.2592 70.7148 75.2592Z" fill="white"/>
<path d="M59.6261 56.6171C59.5143 56.4105 59.3331 56.2616 59.1223 56.2032C58.9116 56.1449 58.6886 56.1818 58.5023 56.3059C58.3161 56.43 58.182 56.6312 58.1294 56.865C58.0768 57.0989 58.1101 57.3464 58.2219 57.553L59.4427 59.811H49.4257V52.5419H54.1214C54.5455 52.5432 54.9621 52.6657 55.3311 52.8975C55.7001 53.1294 56.009 53.4629 56.2282 53.8658L56.7473 54.8271C56.8591 55.0338 57.0403 55.1826 57.2511 55.241C57.4618 55.2994 57.6848 55.2624 57.8711 55.1383C58.0573 55.0142 58.1914 54.8131 58.244 54.5792C58.2966 54.3453 58.2633 54.0979 58.1515 53.8912L57.6316 52.9299C57.2664 52.2587 56.7516 51.7032 56.1368 51.3169C55.522 50.9307 54.8279 50.7267 54.1214 50.7246H48.6069C48.3897 50.7246 48.1815 50.8203 48.0279 50.9907C47.8744 51.1611 47.7881 51.3923 47.7881 51.6332V60.7196C47.7881 60.9606 47.8744 61.1917 48.0279 61.3621C48.1815 61.5326 48.3897 61.6283 48.6069 61.6283H60.8887C61.0336 61.6283 61.1759 61.5855 61.3011 61.5045C61.4263 61.4235 61.5299 61.307 61.6012 61.167C61.6726 61.027 61.7092 60.8685 61.7073 60.7077C61.7054 60.5469 61.665 60.3896 61.5904 60.2517L59.6261 56.6171Z" fill="white"/>
<path d="M45.3309 50.7246H39.8164C39.1099 50.7267 38.4158 50.9307 37.801 51.3169C37.1862 51.7032 36.6714 52.2587 36.3062 52.9299L32.3474 60.2517C32.2728 60.3896 32.2324 60.5469 32.2305 60.7077C32.2286 60.8685 32.2652 61.027 32.3366 61.167C32.4079 61.307 32.5115 61.4235 32.6367 61.5045C32.7619 61.5855 32.9042 61.6283 33.0491 61.6283H45.3309C45.5481 61.6283 45.7563 61.5326 45.9099 61.3621C46.0635 61.1917 46.1497 60.9606 46.1497 60.7196V51.6332C46.1497 51.3923 46.0635 51.1611 45.9099 50.9907C45.7563 50.8203 45.5481 50.7246 45.3309 50.7246ZM44.5121 59.811H34.4951L37.7096 53.8658C37.9288 53.4629 38.2377 53.1294 38.6067 52.8975C38.9757 52.6657 39.3923 52.5432 39.8164 52.5419H44.5121V59.811Z" fill="white"/>
<path d="M50.2445 62.5391H48.6069C48.3897 62.5391 48.1815 62.6348 48.0279 62.8052C47.8744 62.9756 47.7881 63.2067 47.7881 63.4477C47.7881 63.6887 47.8744 63.9198 48.0279 64.0902C48.1815 64.2606 48.3897 64.3563 48.6069 64.3563H50.2445C50.4616 64.3563 50.6699 64.2606 50.8234 64.0902C50.977 63.9198 51.0632 63.6887 51.0632 63.4477C51.0632 63.2067 50.977 62.9756 50.8234 62.8052C50.6699 62.6348 50.4616 62.5391 50.2445 62.5391Z" fill="white"/>
<path d="M34.6868 62.5391H33.0493C32.8321 62.5391 32.6238 62.6348 32.4703 62.8052C32.3167 62.9756 32.2305 63.2067 32.2305 63.4477C32.2305 63.6887 32.3167 63.9198 32.4703 64.0902C32.6238 64.2606 32.8321 64.3563 33.0493 64.3563H34.6868C34.904 64.3563 35.1123 64.2606 35.2658 64.0902C35.4194 63.9198 35.5056 63.6887 35.5056 63.4477C35.5056 63.2067 35.4194 62.9756 35.2658 62.8052C35.1123 62.6348 34.904 62.5391 34.6868 62.5391Z" fill="white"/>
<path d="M62.5277 71.625C62.0418 71.625 61.5669 71.7849 61.163 72.0844C60.759 72.3839 60.4442 72.8097 60.2583 73.3078C60.0724 73.8059 60.0237 74.3539 60.1185 74.8827C60.2133 75.4115 60.4472 75.8972 60.7907 76.2784C61.1343 76.6597 61.572 76.9193 62.0484 77.0245C62.5249 77.1296 63.0188 77.0757 63.4677 76.8693C63.9165 76.663 64.3001 76.3136 64.57 75.8654C64.84 75.4171 64.984 74.8901 64.984 74.3509C64.984 73.628 64.7252 72.9346 64.2646 72.4234C63.8039 71.9122 63.1791 71.625 62.5277 71.625ZM62.5277 75.2596C62.3657 75.2596 62.2074 75.2063 62.0728 75.1064C61.9381 75.0066 61.8332 74.8647 61.7712 74.6986C61.7092 74.5326 61.693 74.3499 61.7246 74.1737C61.7562 73.9974 61.8342 73.8355 61.9487 73.7084C62.0632 73.5813 62.2091 73.4948 62.3679 73.4597C62.5267 73.4247 62.6914 73.4427 62.841 73.5114C62.9906 73.5802 63.1185 73.6967 63.2085 73.8461C63.2984 73.9955 63.3464 74.1712 63.3464 74.3509C63.3464 74.5919 63.2602 74.823 63.1066 74.9934C62.9531 75.1638 62.7448 75.2596 62.5277 75.2596Z" fill="white"/>
<path d="M34.6868 71.625C34.201 71.625 33.7261 71.7849 33.3222 72.0844C32.9182 72.3839 32.6034 72.8097 32.4174 73.3078C32.2315 73.8059 32.1829 74.3539 32.2777 74.8827C32.3724 75.4115 32.6064 75.8972 32.9499 76.2784C33.2935 76.6597 33.7311 76.9193 34.2076 77.0245C34.6841 77.1296 35.178 77.0757 35.6268 76.8693C36.0757 76.663 36.4593 76.3136 36.7292 75.8654C36.9991 75.4171 37.1432 74.8901 37.1432 74.3509C37.1432 73.628 36.8844 72.9346 36.4237 72.4234C35.9631 71.9122 35.3383 71.625 34.6868 71.625ZM34.6868 75.2596C34.5249 75.2596 34.3666 75.2063 34.2319 75.1064C34.0973 75.0066 33.9923 74.8647 33.9304 74.6986C33.8684 74.5326 33.8522 74.3499 33.8838 74.1737C33.9154 73.9974 33.9934 73.8355 34.1079 73.7084C34.2224 73.5813 34.3683 73.4948 34.5271 73.4597C34.6859 73.4247 34.8506 73.4427 35.0002 73.5114C35.1498 73.5802 35.2777 73.6967 35.3676 73.8461C35.4576 73.9955 35.5056 74.1712 35.5056 74.3509C35.5056 74.5919 35.4194 74.823 35.2658 74.9934C35.1123 75.1638 34.904 75.2596 34.6868 75.2596Z" fill="white"/>
</g>
<defs>
<filter id="filter0_d_137_14826" x="0" y="0" width="94" height="112" filterUnits="userSpaceOnUse" color-interpolation-filters="sRGB">
<feFlood flood-opacity="0" result="BackgroundImageFix"/>
<feColorMatrix in="SourceAlpha" type="matrix" values="0 0 0 0 0 0 0 0 0 0 0 0 0 0 0 0 0 0 127 0" result="hardAlpha"/>
<feOffset dy="2"/>
<feGaussianBlur stdDeviation="1"/>
<feComposite in2="hardAlpha" operator="out"/>
<feColorMatrix type="matrix" values="0 0 0 0 0.2 0 0 0 0 0.2 0 0 0 0 0.2 0 0 0 0.25 0"/>
<feBlend mode="normal" in2="BackgroundImageFix" result="effect1_dropShadow_137_14826"/>
<feBlend mode="normal" in="SourceGraphic" in2="effect1_dropShadow_137_14826" result="shape"/>
</filter>
</defs>
</svg>
