<svg width="131" height="113" viewBox="0 0 131 113" fill="none" xmlns="http://www.w3.org/2000/svg">
<g filter="url(#filter0_d_137_14839)">
<circle cx="65" cy="64" r="45" fill="#6FBADA"/>
</g>
<rect width="131" height="34" rx="17" fill="white"/>
<g clip-path="url(#clip0_137_14839)">
<path d="M79.915 69.0078H78.447C77.9854 69.0078 77.6113 69.3819 77.6113 69.8434C77.6114 70.305 77.9855 70.6791 78.447 70.6791H79.915C80.3766 70.6791 80.7507 70.305 80.7507 69.8434C80.7507 69.3819 80.3766 69.0078 79.915 69.0078Z" fill="white"/>
<path d="M93.8157 64.2522C93.8101 64.1114 93.7942 63.9709 93.7669 63.8335L91.8947 54.3586C91.8946 54.3582 91.8945 54.3579 91.8945 54.3576L91.5229 52.4769C91.2733 51.2138 90.1576 50.2969 88.8699 50.2969H39.5304C38.035 50.2968 36.8184 51.5135 36.8184 53.0089V75.3408C36.8184 76.8362 38.035 78.0528 39.5304 78.0528H42.1772C42.5808 80.6832 44.8591 82.7042 47.6006 82.7042C50.342 82.7042 52.6204 80.6833 53.0239 78.0528H55.1759C55.6373 78.0528 56.0115 77.6788 56.0115 77.2172C56.0115 76.7556 55.6375 76.3816 55.1759 76.3816H53.0238C52.6202 73.7513 50.3419 71.7303 47.6005 71.7303C44.859 71.7303 42.5807 73.7512 42.1771 76.3816H39.5304C38.9564 76.3816 38.4895 75.9145 38.4895 75.3406V53.0089C38.4895 52.4349 38.9564 51.9679 39.5304 51.9679H88.8698C89.3617 51.9679 89.7878 52.3181 89.8834 52.8008L90.058 53.6849H79.0867C78.2722 53.6849 77.6096 54.3475 77.6096 55.162V64.1746C77.6096 65.0224 78.0155 65.8268 78.6954 66.3261C80.332 67.5284 83.9912 69.0142 92.147 69.382V74.9895C92.147 75.7572 91.5224 76.3818 90.7547 76.3818H88.4593C88.0556 73.7515 85.7774 71.7305 83.0358 71.7305C80.2944 71.7305 78.0161 73.7514 77.6125 76.3818H59.064C58.6026 76.3818 58.2284 76.7558 58.2284 77.2174C58.2284 77.679 58.6024 78.053 59.064 78.053H77.6127C78.0163 80.6834 80.2946 82.7044 83.036 82.7044C85.7776 82.7044 88.0558 80.6835 88.4595 78.053H90.755C92.4441 78.053 93.8184 76.6788 93.8184 74.9896V64.3579V64.3578C93.8182 64.3224 93.817 64.2872 93.8157 64.2522ZM47.6006 73.4016C49.7046 73.4016 51.4162 75.1133 51.4162 77.2173C51.4162 79.3213 49.7046 81.0331 47.6006 81.0331C45.4966 81.0331 43.7849 79.3213 43.7849 77.2173C43.7849 75.1133 45.4966 73.4016 47.6006 73.4016ZM83.036 81.033C80.932 81.033 79.2204 79.3212 79.2204 77.2172C79.2204 75.1132 80.932 73.4015 83.036 73.4015C85.14 73.4015 86.8518 75.1132 86.8518 77.2172C86.8517 79.3212 85.14 81.033 83.036 81.033ZM79.2808 64.1746V55.3562H90.3882L92.1274 64.1579C92.1305 64.1736 92.1321 64.1896 92.1344 64.2055C92.1413 64.2519 92.1458 64.2988 92.1463 64.3457C92.1463 64.3498 92.1469 64.3538 92.1469 64.3578V67.7091C84.053 67.3359 80.8715 65.8511 79.6848 64.9792C79.4319 64.7934 79.2808 64.4926 79.2808 64.1746Z" fill="white"/>
<path d="M55.8375 53.6836H41.8503C41.1154 53.6836 40.5176 54.2814 40.5176 55.0163V64.4191C40.5176 65.1539 41.1154 65.7518 41.8503 65.7518H55.8375C56.5724 65.7518 57.1702 65.1539 57.1702 64.4191V55.0163C57.1702 54.2814 56.5724 53.6836 55.8375 53.6836ZM48.0083 64.0806H42.1887V55.3547H48.0083V64.0806ZM55.4991 64.0806H49.6795V55.3547H55.4991V64.0806Z" fill="white"/>
<path d="M74.1814 53.6836H60.194C59.4592 53.6836 58.8613 54.2814 58.8613 55.0163V64.4191C58.8613 65.1539 59.4592 65.7518 60.194 65.7518H74.1814C74.9163 65.7518 75.5141 65.1539 75.5141 64.4191V55.0163C75.5141 54.2814 74.9163 53.6836 74.1814 53.6836ZM73.843 64.0806H68.0233V60.9137C68.0233 60.4521 67.6492 60.078 67.1877 60.078C66.7261 60.078 66.352 60.4521 66.352 60.9137V64.0806H60.5325V55.3547H66.352V57.0255C66.352 57.4871 66.7261 57.8612 67.1877 57.8612C67.6492 57.8612 68.0233 57.4871 68.0233 57.0255V55.3547H73.843V64.0806Z" fill="white"/>
</g>
<defs>
<filter id="filter0_d_137_14839" x="18" y="19" width="94" height="94" filterUnits="userSpaceOnUse" color-interpolation-filters="sRGB">
<feFlood flood-opacity="0" result="BackgroundImageFix"/>
<feColorMatrix in="SourceAlpha" type="matrix" values="0 0 0 0 0 0 0 0 0 0 0 0 0 0 0 0 0 0 127 0" result="hardAlpha"/>
<feOffset dy="2"/>
<feGaussianBlur stdDeviation="1"/>
<feComposite in2="hardAlpha" operator="out"/>
<feColorMatrix type="matrix" values="0 0 0 0 0.2 0 0 0 0 0.2 0 0 0 0 0.2 0 0 0 0.25 0"/>
<feBlend mode="normal" in2="BackgroundImageFix" result="effect1_dropShadow_137_14839"/>
<feBlend mode="normal" in="SourceGraphic" in2="effect1_dropShadow_137_14839" result="shape"/>
</filter>
<clipPath id="clip0_137_14839">
<rect width="57" height="57" fill="white" transform="translate(36.8184 38)"/>
</clipPath>
</defs>
</svg>
