<svg width="94" height="107" viewBox="0 0 94 107" fill="none" xmlns="http://www.w3.org/2000/svg">
<g filter="url(#filter0_d_137_14857)">
<circle cx="47" cy="58" r="45" fill="#6FBADA"/>
</g>
<g clip-path="url(#clip0_137_14857)">
<path d="M73.4713 68.4886C72.5631 66.391 70.914 64.8078 68.7023 63.9104C66.9125 63.1842 64.8692 62.9658 62.8857 63.2771L62.0933 61.5835V59.2184C62.5187 59.3748 62.9709 59.4575 63.4322 59.4575H66.1245C67.0775 59.4575 67.8529 58.6827 67.8529 57.73V53.3887C67.8529 52.4362 67.0775 51.6613 66.1245 51.6613H63.4322C62.9709 51.6613 62.5187 51.7439 62.0933 51.9002V49.2693C62.0933 48.8474 61.9994 48.4607 61.8142 48.1193C61.4966 47.4221 60.8723 46.925 60.1421 46.76L58.9711 44.0937C59.3653 43.7885 59.6204 43.3128 59.6204 42.7776V41.469C59.6204 40.6473 59.0046 39.9825 58.0902 39.8149L54.2495 39.1C54.2488 39.0999 54.248 39.0998 54.2473 39.0996C53.8263 39.0224 53.4053 39.1374 53.0623 39.4234C52.6733 39.7476 52.4412 40.246 52.4412 40.7569V42.7777C52.4412 43.6968 53.1894 44.4445 54.109 44.4445H57.4484L58.4373 46.6962L54.5625 46.6829C54.5582 46.6828 54.5541 46.6828 54.5498 46.6828C53.1138 46.6828 52.3291 47.7407 52.2962 48.789C52.2621 49.877 53.0041 51.0239 54.4884 51.1108L57.5631 51.2906V53.7568C56.9532 53.3242 56.1729 52.9706 55.241 52.7154C51.4582 51.6793 46.1564 52.4034 44.1738 55.0368H38.1723C37.7484 55.0368 37.4047 55.3804 37.4047 55.8043C37.4047 56.2282 37.7484 56.5718 38.1723 56.5718H43.8106V60.5627H35.0011H31.3596H25.2625C24.2434 60.5627 23.6351 60.0662 23.6351 59.2346V56.0204C23.6351 55.6291 23.7323 55.3391 23.924 55.1586C24.1486 54.9471 24.5416 54.8426 25.0028 54.8696C25.0193 54.8706 25.0363 54.8714 25.0522 54.871L26.4305 54.8652C26.7268 54.8667 26.9916 55.1056 27.3993 55.4953C27.879 55.9541 28.4759 56.5249 29.3757 56.5708C29.3887 56.5715 29.4018 56.5718 29.4149 56.5718H34.8282C35.2521 56.5718 35.5958 56.2282 35.5958 55.8043C35.5958 55.3804 35.2521 55.0368 34.8282 55.0368H29.4383C29.137 55.0138 28.8663 54.7743 28.4601 54.386C27.9703 53.9176 27.3606 53.3345 26.4308 53.3302L25.069 53.3359C24.1851 53.288 23.4055 53.5383 22.8715 54.041C22.5194 54.3725 22.0998 54.985 22.0998 56.0204V59.2346C22.0998 60.9203 23.4003 62.0977 25.2623 62.0977H30.4129L30.1941 63.1333C26.7004 63.1948 22.9252 64.8869 22.0281 68.2075C21.6941 69.4474 21.7585 70.33 22.2249 70.9058C22.3431 71.0519 22.5154 71.209 22.7574 71.3258C22.6546 71.842 22.6019 72.3691 22.6019 72.9012C22.6019 77.3252 26.2043 80.9244 30.6323 80.9244C34.4071 80.9244 37.6639 78.2677 38.4699 74.6437L41.9414 74.6402C42.3653 74.6398 42.7086 74.2958 42.7082 73.8719C42.7078 73.4482 42.3642 73.1052 41.9406 73.1052C41.9404 73.1052 41.9401 73.1052 41.9398 73.1052L33.0491 73.1144C33.1357 72.9157 33.2056 72.6993 33.2508 72.4604L33.4662 71.5155H44.9824C44.9834 71.5155 44.9844 71.5157 44.9854 71.5157C44.9865 71.5157 44.9875 71.5155 44.9885 71.5155H46.5342C47.7131 71.5155 48.2762 71.2356 48.9434 70.318L53.179 64.5067C53.183 64.5011 53.1873 64.4957 53.1912 64.4899L54.9347 62.0978H57.4161L49.9758 71.8208C49.9666 71.8329 49.9577 71.8452 49.9492 71.8577C49.107 73.1052 48.267 73.1052 47.9509 73.1052H44.9557C44.5318 73.1052 44.1881 73.4487 44.1881 73.8727C44.1881 74.2966 44.5318 74.6402 44.9557 74.6402H47.9509C49.2526 74.6402 50.3485 73.9997 51.2083 72.7362L58.1482 63.6672L58.7299 64.8788C57.3632 65.8149 56.3705 67.0664 55.8395 68.5323C55.4238 69.6813 55.4352 70.5805 55.8734 71.205C56.0237 71.4192 56.2686 71.6575 56.6578 71.8144C56.6095 72.1714 56.5843 72.5347 56.5843 72.9012C56.5843 77.3252 60.1867 80.9244 64.6147 80.9244C69.0428 80.9244 72.6452 77.3252 72.6452 72.9012C72.6452 72.551 72.6212 72.1998 72.5752 71.8507C73.0534 71.6858 73.3393 71.4 73.506 71.1456C74.1141 70.2197 73.684 68.9784 73.4713 68.4886ZM62.0933 53.6154C62.4865 53.3434 62.9518 53.1964 63.4322 53.1964H66.1245C66.2293 53.1964 66.3177 53.2845 66.3177 53.3887V57.73C66.3177 57.8342 66.2293 57.9224 66.1245 57.9224H63.4322C62.9519 57.9224 62.4865 57.7752 62.0933 57.5032V53.6154ZM58.0853 42.7778C58.0853 42.8492 58.0232 42.9096 57.9497 42.9096H57.9458C57.9422 42.9096 57.9385 42.9095 57.9349 42.9096H54.1091C54.0372 42.9096 53.9764 42.8492 53.9764 42.7778V40.757C53.9764 40.7054 54.0039 40.6506 54.028 40.6204L57.8114 41.3246C57.9656 41.3529 58.0853 41.4255 58.0853 41.4691V42.7778ZM23.6947 69.9662C23.6822 69.9663 23.6697 69.9665 23.6572 69.9672C23.4758 69.9769 23.419 69.9409 23.419 69.9408C23.3743 69.8966 23.2591 69.5405 23.5105 68.6075C24.0988 66.4296 26.7511 64.832 29.8681 64.6785L28.7512 69.9661H23.7021C23.6996 69.9661 23.6971 69.9662 23.6947 69.9662ZM30.3255 74.5983C30.3937 74.6105 30.4626 74.6195 30.532 74.6258C30.5945 74.6422 30.66 74.6519 30.7277 74.6519H30.7285L32.9043 74.6496C32.372 75.3373 31.5397 75.7688 30.6324 75.7688C29.0493 75.7688 27.7614 74.4824 27.7614 72.9013C27.7614 72.405 27.889 71.9279 28.1295 71.5012H28.427L28.4156 71.555C28.4137 71.5645 28.4119 71.5738 28.4102 71.5831C28.1165 73.286 29.1513 74.389 30.3255 74.5983ZM34.6757 74.6478L36.8888 74.6456C36.1179 77.4034 33.5686 79.3894 30.6324 79.3894C27.0509 79.3894 24.1371 76.4789 24.1371 72.9013C24.1371 72.4272 24.1887 71.9584 24.2891 71.5012H26.4539C26.3037 71.9481 26.2262 72.419 26.2262 72.9013C26.2262 75.329 28.2029 77.3039 30.6324 77.3039C32.4012 77.3039 33.9879 76.2368 34.6757 74.6478ZM33.486 64.5233L32.1077 70.5693C32.1068 70.5737 32.1056 70.5781 32.1047 70.5825L31.751 72.1339C31.7487 72.1444 31.7465 72.1549 31.7445 72.1656C31.5861 73.0265 30.9471 73.1495 30.595 73.0871C30.3941 73.0512 29.7542 72.8569 29.9209 71.8573L30.1214 70.908C30.124 70.8964 30.1265 70.8848 30.1288 70.873L31.9821 62.0979H34.039L33.4943 64.4878C33.4912 64.4997 33.4883 64.5114 33.486 64.5233ZM37.1874 69.9661C37.1838 69.9661 37.1804 69.9661 37.1768 69.9661H33.8198L34.7694 65.8006C35.9357 66.4983 36.808 67.4884 37.3173 68.7038C37.3189 68.7076 37.3204 68.7114 37.322 68.7151C37.4832 69.083 37.6219 69.6316 37.6542 69.9725L37.1874 69.9661ZM35.1244 64.2428L35.6135 62.0979H42.8214L38.207 67.0812C37.4787 65.8882 36.4323 64.9247 35.1244 64.2428ZM38.9096 68.5819L44.9135 62.0978H53.0355L52.1626 63.2955H47.4867C47.0628 63.2955 46.7191 63.6391 46.7191 64.0631C46.7191 64.487 47.0628 64.8306 47.4867 64.8306H51.0438L49.0697 67.539C48.523 66.9699 47.757 66.6279 46.9242 66.6279C46.1098 66.6279 45.3484 66.9472 44.7818 67.5254C44.2741 68.0405 43.9697 68.7206 43.9247 69.44C43.9133 69.6218 43.9201 69.8022 43.9408 69.9804H39.1898C39.1723 69.4742 39.0314 68.9488 38.9096 68.5819ZM46.5346 69.9805H45.4961C45.4611 69.8368 45.4473 69.6873 45.4568 69.5361C45.4786 69.186 45.6272 68.8546 45.8767 68.6015C46.1537 68.3188 46.5256 68.163 46.9241 68.163C47.4346 68.163 47.8803 68.4123 48.1363 68.8196L47.7028 69.4145C47.3377 69.9165 47.2491 69.9805 46.5346 69.9805ZM57.5631 60.5628H45.3458V56.029C46.8141 53.9199 51.5727 53.3023 54.8355 54.1961C55.6556 54.4207 57.5631 55.0873 57.5631 56.4213L57.5631 60.5628ZM58.3754 49.8004L54.5781 49.5784C54.0103 49.5452 53.8206 49.1583 53.8307 48.8373C53.8366 48.6507 53.9184 48.218 54.5507 48.218H54.5568L59.6116 48.2353C59.9639 48.237 60.2826 48.4464 60.4234 48.7692C60.434 48.7935 60.4459 48.8175 60.459 48.8406C60.525 48.9571 60.5584 49.1014 60.5584 49.2695V53.2475V57.8713V61.7542C60.5584 61.8667 60.5831 61.9778 60.6307 62.0794L61.7303 64.4294C61.7398 64.4526 61.7504 64.4752 61.7619 64.4971L65.2909 72.0391C65.4945 72.4736 65.4192 72.7675 65.0609 72.9375C64.8119 73.0555 64.3749 73.0878 64.2282 72.7824L59.0983 62.0982V61.3303V56.4213V50.5667C59.0982 50.1602 58.7812 49.8241 58.3754 49.8004ZM66.8857 71.9882H67.3349C67.4328 72.2801 67.4835 72.5855 67.4835 72.9012C67.4835 74.4823 66.1968 75.7687 64.6152 75.7687C63.0322 75.7687 61.7442 74.4823 61.7442 72.9012C61.7442 72.5871 61.7956 72.2816 61.8949 71.9882H62.1438L62.8443 73.4471C63.2136 74.2155 63.9425 74.5579 64.679 74.5579C65.0373 74.5579 65.3974 74.4769 65.7187 74.3245C66.5032 73.9524 67.1223 73.0953 66.8857 71.9882ZM57.1306 70.3234C57.0556 70.2165 57.0034 69.8291 57.2835 69.0549C57.6781 67.9653 58.405 67.0196 59.4048 66.2835L61.4068 70.4532H57.6467C57.3845 70.4532 57.1868 70.4034 57.1306 70.3234ZM64.6152 79.3894C61.0337 79.3894 58.12 76.4789 58.12 72.9013C58.12 72.5926 58.1418 72.2873 58.1838 71.9883H60.306C60.2429 72.2863 60.2091 72.5908 60.2091 72.9013C60.2091 75.329 62.1857 77.3039 64.6152 77.3039C67.0433 77.3039 69.0186 75.3289 69.0186 72.9013C69.0186 72.5901 68.9853 72.2855 68.9227 71.9883H71.0433C71.0862 72.2918 71.1106 72.597 71.1106 72.9013C71.1106 76.4789 68.1967 79.3894 64.6152 79.3894ZM72.223 70.3038C72.1616 70.3973 71.9593 70.4532 71.6819 70.4532H66.2435L63.5672 64.7335C66.7659 64.3834 70.5244 65.5457 72.0628 69.0994C72.3087 69.6654 72.3288 70.1423 72.223 70.3038Z" fill="white"/>
</g>
<rect x="23" width="48" height="34" rx="17" fill="white"/>
<defs>
<filter id="filter0_d_137_14857" x="0" y="13" width="94" height="94" filterUnits="userSpaceOnUse" color-interpolation-filters="sRGB">
<feFlood flood-opacity="0" result="BackgroundImageFix"/>
<feColorMatrix in="SourceAlpha" type="matrix" values="0 0 0 0 0 0 0 0 0 0 0 0 0 0 0 0 0 0 127 0" result="hardAlpha"/>
<feOffset dy="2"/>
<feGaussianBlur stdDeviation="1"/>
<feComposite in2="hardAlpha" operator="out"/>
<feColorMatrix type="matrix" values="0 0 0 0 0.2 0 0 0 0 0.2 0 0 0 0 0.2 0 0 0 0.25 0"/>
<feBlend mode="normal" in2="BackgroundImageFix" result="effect1_dropShadow_137_14857"/>
<feBlend mode="normal" in="SourceGraphic" in2="effect1_dropShadow_137_14857" result="shape"/>
</filter>
<clipPath id="clip0_137_14857">
<rect width="52" height="52" fill="white" transform="translate(21.8184 34)"/>
</clipPath>
</defs>
</svg>
