<svg width="315" height="316" viewBox="0 0 315 316" fill="none" xmlns="http://www.w3.org/2000/svg">
<path d="M313.82 7.79274C313.82 4.57639 311.265 1.89551 308.072 1.89551H249.741C246.548 1.89551 243.993 4.5764 243.993 7.79274V45.2216C243.993 47.3922 242.275 49.1188 240.245 49.1188H232.784C229.591 49.1188 227.036 51.7997 227.036 55.0161V76.7038C227.036 79.9202 229.591 82.6011 232.784 82.6011H257.202C260.394 82.6011 262.95 79.9202 262.95 76.7038V70.7572C262.95 68.5866 264.668 66.8599 266.698 66.8599H308.072C311.265 66.8599 313.82 64.1791 313.82 60.9627V7.79274Z" fill="white" stroke="#333333" stroke-width="2"/>
<path d="M121.376 242.385H66.0957C62.8915 242.385 60.3184 245.016 60.3184 248.231V266.231C60.3184 269.446 62.8915 272.077 66.0957 272.077H121.376C124.58 272.077 127.153 269.446 127.153 266.231V248.231C127.153 245.016 124.58 242.385 121.376 242.385Z" fill="white" stroke="#333333" stroke-width="2"/>
<path d="M48.6936 242.385H6.97139C3.75369 242.385 1.18359 245.046 1.18359 248.282V308.448C1.18359 311.684 3.7537 314.345 6.97139 314.345H48.6936C51.9113 314.345 54.4814 311.684 54.4814 308.448V248.282C54.4814 245.046 51.9113 242.385 48.6936 242.385Z" fill="white" stroke="#333333" stroke-width="2"/>
<path d="M221.336 158.578C218.147 158.578 215.59 161.25 215.59 164.461V178.641C215.59 180.801 213.875 182.523 211.844 182.523H173.648C170.458 182.523 167.901 185.195 167.901 188.406V230.486C167.901 233.697 170.458 236.369 173.648 236.369H211.844C215.033 236.369 217.59 233.697 217.59 230.486V212.351C217.59 210.191 219.304 208.469 221.336 208.469H238.965C242.154 208.469 244.711 205.797 244.711 202.586V164.461C244.711 161.25 242.154 158.578 238.965 158.578H221.336Z" fill="white" stroke="#333333" stroke-width="2"/>
<path d="M104.56 182.627C101.359 182.627 98.7939 185.311 98.7939 188.535V230.836C98.7939 234.059 101.359 236.744 104.56 236.744H129.069C131.11 236.744 132.834 238.477 132.834 240.652V258.882C132.834 262.106 135.399 264.79 138.6 264.79H156.301C159.502 264.79 162.066 262.106 162.066 258.882V188.535C162.066 185.311 159.502 182.627 156.301 182.627H104.56Z" fill="white" stroke="#333333" stroke-width="2"/>
<path d="M87.1894 182.627H35.4482C32.2431 182.627 29.6826 185.277 29.6826 188.5V230.496C29.6826 233.718 32.2431 236.369 35.4482 236.369H87.1894C90.3945 236.369 92.955 233.718 92.955 230.496V188.5C92.955 185.277 90.3945 182.627 87.1894 182.627Z" fill="white" stroke="#333333" stroke-width="2"/>
<path d="M256.284 186.999C253.105 186.999 250.547 189.649 250.547 192.845V210.845C250.547 212.98 248.841 214.692 246.809 214.692H229.211C226.031 214.692 223.473 217.342 223.473 220.538V238.538C223.473 241.734 226.031 244.384 229.211 244.384H273.882C277.062 244.384 279.62 241.734 279.62 238.538V192.845C279.62 189.649 277.062 186.999 273.882 186.999H256.284Z" fill="white" stroke="#333333" stroke-width="2"/>
<path d="M232.757 87.8887C229.573 87.8887 227.036 90.58 227.036 93.7938V147.049C227.036 150.263 229.573 152.954 232.757 152.954H246.921C248.93 152.954 250.643 154.677 250.643 156.859V175.078C250.643 178.292 253.179 180.983 256.364 180.983H273.9C277.085 180.983 279.621 178.292 279.621 175.078V93.7938C279.621 90.58 277.085 87.8887 273.9 87.8887H232.757Z" fill="white" stroke="#333333" stroke-width="2"/>
</svg>
