<svg width="386" height="85" viewBox="0 0 386 85" fill="none" xmlns="http://www.w3.org/2000/svg">
<path d="M39.1552 57.0172C23.0165 58.4667 2.51358 61.2173 -1 61.9264V85H387V45.2349C375.288 45.1258 346.274 44.7658 320.242 45.2349C296.23 45.6677 282.652 45.9248 259.005 47.3623C246.153 48.1436 243.947 48.0169 226.379 49.8169C208.811 51.617 200.24 53.142 182.71 54.2353C153.244 56.0728 135.837 53.5731 105.913 54.2353C79.6936 54.8154 64.5063 54.7402 39.1552 57.0172Z" fill="#D6E816"/>
<path d="M355.154 46.2237H353.316V18.4315H355.154C355.459 18.4315 355.74 18.2332 355.887 17.9141C356.034 17.5949 356.023 17.2057 355.859 16.8986L349.619 5.19663C349.465 4.90886 349.2 4.73466 348.914 4.73466H332.321L328.353 0H326.682L322.714 4.7348H306.121C305.836 4.7348 305.57 4.90899 305.416 5.19676L299.176 16.8988C299.012 17.2058 299.001 17.595 299.148 17.9142C299.295 18.2332 299.576 18.4315 299.881 18.4315H301.719V46.2237V48.2184H355.154C355.616 48.2184 355.99 47.7719 355.99 47.2211C355.99 46.6703 355.616 46.2237 355.154 46.2237ZM348.455 6.72946L353.632 16.4368H342.128L333.993 6.72946H348.455ZM306.58 6.72946H321.042L312.907 16.4368H301.403L306.58 6.72946ZM303.391 18.4315H313.253C313.281 18.4315 313.308 18.4297 313.336 18.4264C313.348 18.4251 313.359 18.4224 313.371 18.4204C313.386 18.4178 313.402 18.4156 313.417 18.4121C313.431 18.4089 313.444 18.4043 313.457 18.4004C313.47 18.3965 313.483 18.3929 313.496 18.3884C313.509 18.3836 313.522 18.3776 313.535 18.3722C313.548 18.3667 313.561 18.3617 313.573 18.3554C313.586 18.3494 313.597 18.3424 313.609 18.3357C313.622 18.3284 313.635 18.3216 313.647 18.3135C313.659 18.3062 313.67 18.2978 313.681 18.29C313.693 18.2813 313.706 18.273 313.717 18.2634C313.73 18.2534 313.742 18.2424 313.754 18.2316C313.763 18.2228 313.774 18.2147 313.783 18.2053C313.804 18.1844 313.825 18.1623 313.844 18.1389L327.517 1.82339L341.191 18.139C341.21 18.1623 341.231 18.1844 341.252 18.2054C341.261 18.2147 341.271 18.2228 341.281 18.2316C341.293 18.2424 341.305 18.2535 341.318 18.2635C341.329 18.273 341.342 18.2812 341.354 18.2898C341.365 18.298 341.376 18.3063 341.388 18.3137C341.4 18.3216 341.413 18.3284 341.426 18.3356C341.438 18.3424 341.45 18.3494 341.462 18.3555C341.474 18.3617 341.487 18.3666 341.5 18.372C341.513 18.3776 341.526 18.3836 341.539 18.3885C341.552 18.3932 341.565 18.3965 341.577 18.4004C341.591 18.4045 341.604 18.409 341.618 18.4122C341.633 18.4156 341.648 18.4178 341.663 18.4203C341.675 18.4224 341.687 18.4251 341.699 18.4266C341.726 18.4297 341.754 18.4315 341.782 18.4315H351.644V46.2237H333.702V32.3276C333.702 30.6045 332.528 29.2026 331.084 29.2026H323.951C322.507 29.2026 321.333 30.6045 321.333 32.3276V46.2237H303.391V18.4315ZM332.031 33.4579H323.004V32.3276C323.004 31.7043 323.429 31.1973 323.951 31.1973H331.084C331.606 31.1973 332.031 31.7043 332.031 32.3276V33.4579ZM323.004 35.4526H326.682V46.2237H323.004V35.4526ZM328.353 35.4526H332.031V46.2237H328.353V35.4526Z" fill="#D6E816"/>
<path d="M327.518 25.8787C330.928 25.8787 333.703 22.5679 333.703 18.4984C333.703 14.4289 330.928 11.1182 327.518 11.1182C324.107 11.1182 321.333 14.4289 321.333 18.4984C321.333 22.5679 324.107 25.8787 327.518 25.8787ZM327.518 13.1128C330.006 13.1128 332.031 15.5288 332.031 18.4984C332.031 21.4681 330.006 23.884 327.518 23.884C325.029 23.884 323.005 21.4681 323.005 18.4984C323.005 15.5288 325.029 13.1128 327.518 13.1128Z" fill="#D6E816"/>
<path d="M327.517 19.4957C327.979 19.4957 328.353 19.0492 328.353 18.4984V15.3069C328.353 14.7561 327.979 14.3096 327.517 14.3096C327.056 14.3096 326.682 14.7561 326.682 15.3069V17.501H324.843C324.381 17.501 324.007 17.9476 324.007 18.4984C324.007 19.0492 324.381 19.4957 324.843 19.4957H327.517Z" fill="#D6E816"/>
<path d="M318.602 34.5215H314.145C313.683 34.5215 313.309 34.968 313.309 35.5188V41.9017C313.309 42.4525 313.683 42.8991 314.145 42.8991H318.602C319.064 42.8991 319.438 42.4525 319.438 41.9017V35.5188C319.438 34.968 319.064 34.5215 318.602 34.5215ZM317.767 36.5161V37.7129H314.981V36.5161H317.767ZM314.981 40.9044V39.7076H317.767V40.9044H314.981Z" fill="#D6E816"/>
<path d="M310.578 34.5215H306.121C305.659 34.5215 305.285 34.968 305.285 35.5188V41.9017C305.285 42.4525 305.659 42.8991 306.121 42.8991H310.578C311.04 42.8991 311.414 42.4525 311.414 41.9017V35.5188C311.414 34.968 311.04 34.5215 310.578 34.5215ZM309.743 36.5161V37.7129H306.957V36.5161H309.743ZM306.957 40.9044V39.7076H309.743V40.9044H306.957Z" fill="#D6E816"/>
<path d="M318.324 21.7559H314.423C313.809 21.7559 313.309 22.3524 313.309 23.0856V30.1999C313.309 30.7507 313.683 31.1973 314.145 31.1973H318.602C319.064 31.1973 319.438 30.7507 319.438 30.1999V23.0856C319.438 22.3524 318.938 21.7559 318.324 21.7559ZM317.767 23.7505V26.0111H314.981V23.7505H317.767ZM314.981 29.2026V28.0058H317.767V29.2026H314.981Z" fill="#D6E816"/>
<path d="M310.3 21.7559H306.4C305.785 21.7559 305.285 22.3524 305.285 23.0856V30.1999C305.285 30.7507 305.659 31.1973 306.121 31.1973H310.578C311.04 31.1973 311.414 30.7507 311.414 30.1999V23.0856C311.414 22.3524 310.914 21.7559 310.3 21.7559ZM309.743 23.7505V26.0111H306.957V23.7505H309.743ZM306.957 29.2026V28.0058H309.743V29.2026H306.957Z" fill="#D6E816"/>
<path d="M344.456 42.8991H348.914C349.376 42.8991 349.75 42.4525 349.75 41.9017V35.5188C349.75 34.968 349.376 34.5215 348.914 34.5215H344.456C343.995 34.5215 343.621 34.968 343.621 35.5188V41.9017C343.621 42.4525 343.995 42.8991 344.456 42.8991ZM345.292 40.9044V39.7076H348.078V40.9044H345.292ZM348.078 36.5161V37.7129H345.292V36.5161H348.078Z" fill="#D6E816"/>
<path d="M336.433 42.8991H340.89C341.352 42.8991 341.726 42.4525 341.726 41.9017V35.5188C341.726 34.968 341.352 34.5215 340.89 34.5215H336.433C335.971 34.5215 335.597 34.968 335.597 35.5188V41.9017C335.597 42.4525 335.971 42.8991 336.433 42.8991ZM337.269 40.9044V39.7076H340.055V40.9044H337.269ZM340.055 36.5161V37.7129H337.269V36.5161H340.055Z" fill="#D6E816"/>
<path d="M344.456 31.1973H348.914C349.376 31.1973 349.75 30.7507 349.75 30.1999V23.0856C349.75 22.3524 349.25 21.7559 348.635 21.7559H344.735C344.121 21.7559 343.621 22.3524 343.621 23.0856V30.1999C343.621 30.7507 343.995 31.1973 344.456 31.1973ZM345.292 29.2026V28.0058H348.078V29.2026H345.292ZM348.078 23.7505V26.0111H345.292V23.7505H348.078Z" fill="#D6E816"/>
<path d="M336.433 31.1973H340.89C341.352 31.1973 341.726 30.7507 341.726 30.1999V23.0856C341.726 22.3524 341.226 21.7559 340.612 21.7559H336.712C336.097 21.7559 335.597 22.3524 335.597 23.0856V30.1999C335.597 30.7507 335.971 31.1973 336.433 31.1973ZM337.269 29.2026V28.0058H340.055V29.2026H337.269ZM340.055 23.7505V26.0111H337.269V23.7505H340.055Z" fill="#D6E816"/>
<path d="M238.108 36.7329L240.41 35.4079L242.249 31.1983C242.781 29.9781 243.806 29.2549 244.959 29.2897L253.943 29.501C254.985 29.5255 256.011 30.1583 256.711 31.2225L259.721 35.8004L264.362 37.4812C265.539 37.9095 266.422 39.2632 266.517 40.7755L266.657 42.9745C266.774 44.834 265.701 46.342 264.232 46.3074L263.842 46.2983C263.517 48.5789 261.758 49.9089 259.91 49.2722C258.696 48.8507 257.69 47.656 257.29 46.1442L247.05 45.9034C246.725 48.184 244.965 49.514 243.118 48.8773C241.904 48.4558 240.897 47.2611 240.498 45.7493L239.766 45.7321C238.297 45.6976 237.03 44.1346 236.912 42.2751L236.754 39.7674C236.664 38.4478 237.198 37.2585 238.108 36.7329ZM260.673 47.8725C261.868 47.9006 262.759 46.6966 262.664 45.1842C262.568 43.6719 261.521 42.4223 260.327 42.3942C259.132 42.3661 258.241 43.5702 258.336 45.0825C258.425 46.5869 259.472 47.8366 260.673 47.8725ZM243.881 47.4776C245.076 47.5057 245.967 46.3017 245.872 44.7894C245.776 43.2771 244.729 42.0274 243.535 41.9993C242.34 41.9712 241.449 43.1753 241.544 44.6876C241.633 46.1921 242.68 47.4417 243.881 47.4776ZM239.669 44.1889L240.315 44.2041C240.367 41.8555 241.936 40.1974 243.811 40.5035C245.404 40.7567 246.747 42.3677 247.044 44.3624L257.107 44.599C257.159 42.2504 258.728 40.5923 260.604 40.8984C262.196 41.1515 263.539 42.7625 263.836 44.7572L264.141 44.7644C264.939 44.7832 265.508 43.9568 265.444 42.946L265.305 40.747C265.258 39.9215 264.78 39.1937 264.138 38.9552L259.286 37.2001C259.155 37.1508 259.034 37.0555 258.946 36.9147L255.807 32.1335C255.357 31.4603 254.705 31.0598 254.04 31.0442L245.056 30.8329C244.324 30.808 243.665 31.2624 243.331 32.0404L241.407 36.4483C241.354 36.5781 241.263 36.6761 241.163 36.7354L238.708 38.1492C238.216 38.4381 237.927 39.0785 237.979 39.7962L238.137 42.3039L238.131 42.3037C238.195 43.3145 238.87 44.1702 239.669 44.1889Z" fill="#D6E816"/>
</svg>
