<svg width="64" height="43" viewBox="0 0 64 43" fill="none" xmlns="http://www.w3.org/2000/svg">
<path d="M16.04 42.1549C8.06 42.1549 0.56 35.0149 0.56 21.2149C0.56 7.47488 8.06 0.33488 16.04 0.33488C24.02 0.33488 31.52 7.47488 31.52 21.2749C31.52 35.0149 24.02 42.1549 16.04 42.1549ZM16.04 7.05488C12.68 7.05488 8.36 10.8349 8.36 21.2149C8.36 31.6549 12.62 35.4349 16.04 35.4349C19.46 35.4349 23.72 31.6549 23.72 21.2149C23.72 10.8349 19.4 7.05488 16.04 7.05488ZM43.4816 11.6749H36.1616C36.8816 4.41488 42.3416 0.33488 49.1816 0.33488C56.8616 0.33488 61.7216 4.65488 61.7216 11.3749C61.7216 13.4749 61.3016 17.4349 57.1016 19.7749C58.7216 20.4349 63.2216 22.7149 63.2216 29.3149C63.2216 37.5349 56.8616 42.1549 48.9416 42.1549C41.2616 42.1549 35.2016 37.4149 34.5416 29.7349H42.3416C42.8216 33.0349 45.1616 35.4349 49.0016 35.4349C53.5016 35.4349 55.4216 32.1349 55.4216 29.0749C55.4216 26.1349 53.6216 22.8349 48.7616 22.8349H47.7416V17.1949H48.8216C52.6616 17.1949 54.2816 14.4949 54.2816 11.7349C54.2816 8.55488 52.1816 6.45488 49.0016 6.45488C46.2416 6.45488 43.6616 8.25488 43.4816 11.6749Z" fill="#8A8E2F"/>
</svg>
