<svg width="232" height="231" viewBox="0 0 232 231" fill="none" xmlns="http://www.w3.org/2000/svg">
<g clip-path="url(#clip0_7_18622)">
<path d="M227.305 164.814C217.547 180.9 200.814 190.353 183.084 190.353H35.9271C6.34932 190.353 -10.2366 152.777 8.94544 131.616C28.1275 110.455 11.1852 92.3846 40.7742 75.4186C69.4403 58.9785 79.2245 94.0193 105.632 71.0936C132.04 48.1679 170.486 50.3283 178.931 73.6902C187.38 97.0521 185.388 105.27 203.302 110.459C221.216 115.649 238.736 145.064 227.984 163.669C227.758 164.056 227.533 164.439 227.305 164.818V164.814Z" fill="#BDCAE0"/>
<path d="M220.766 171.336C205.264 172.767 194.812 204.339 156.058 185.363C156.058 185.363 160.312 171.581 179.378 162.988C198.44 154.394 220.766 171.336 220.766 171.336Z" fill="#CDDCF4"/>
<path d="M161.348 182.994C165.392 180.707 169.59 178.738 173.874 177.022C174.94 176.578 176.02 176.178 177.108 175.787C178.189 175.379 179.28 175.021 180.376 174.654C181.464 174.275 182.571 173.961 183.677 173.639C184.229 173.48 184.78 173.309 185.335 173.158L187.005 172.722L188.678 172.306L190.363 171.947L192.047 171.588C192.61 171.47 193.176 171.38 193.743 171.287C194.876 171.107 196.005 170.899 197.146 170.781C198.286 170.651 199.419 170.476 200.567 170.427C205.133 170.068 209.747 170.149 214.249 170.977C209.691 170.859 205.167 171.148 200.683 171.751L199.843 171.853L199.006 171.992L197.329 172.257C196.211 172.412 195.101 172.656 193.99 172.877C193.435 172.995 192.876 173.08 192.325 173.203L190.667 173.578L189.008 173.953L187.361 174.381L185.711 174.792C185.163 174.935 184.615 175.098 184.067 175.249L182.424 175.71C181.876 175.86 181.336 176.044 180.789 176.203C179.697 176.529 178.605 176.847 177.525 177.21C176.44 177.568 175.352 177.903 174.272 178.278C169.943 179.741 165.655 181.355 161.351 182.994H161.348Z" fill="#B0BDD1"/>
<path d="M222.66 117.601C203.745 132.293 212.493 181.528 149.372 189.281C149.372 189.281 145.159 168.043 163.617 141.196C182.075 114.348 222.66 117.601 222.66 117.601Z" fill="#DBE9FF"/>
<path d="M153.57 183.349C156.324 176.867 159.723 170.704 163.546 164.871C167.358 159.025 171.631 153.522 176.286 148.426C180.946 143.339 185.996 138.651 191.462 134.603C196.909 130.555 202.788 127.074 209.057 124.901C203.238 128.215 197.847 132.157 192.726 136.478C187.624 140.824 182.799 145.536 178.23 150.53C173.656 155.519 169.346 160.794 165.245 166.273C161.156 171.764 157.311 177.483 153.574 183.353L153.57 183.349Z" fill="#CDDCF4"/>
<path d="M18.6099 166.946C33.9802 169.559 42.3576 201.852 82.2485 185.889C82.2485 185.889 78.8983 171.813 60.4366 161.785C41.9787 151.757 18.6099 166.95 18.6099 166.95V166.946Z" fill="#CDDCF4"/>
<path d="M77.1237 183.125C72.9369 181.16 68.7613 179.224 64.5408 177.43C63.4903 176.974 62.4249 176.554 61.3669 176.114C60.3127 175.665 59.2435 175.266 58.1743 174.858C57.6378 174.662 57.1126 174.434 56.5761 174.243L54.9666 173.656C54.4302 173.464 53.8974 173.26 53.3572 173.077L51.7365 172.543L50.1196 171.988L48.4876 171.487L46.8556 170.985C46.3117 170.818 45.7602 170.692 45.2162 170.533C44.1207 170.231 43.0327 169.901 41.926 169.661L40.2716 169.265L39.4462 169.061L38.6133 168.894C34.1789 167.953 29.6883 167.313 25.1338 167.084C29.677 166.603 34.2877 166.876 38.8197 167.582C39.9602 167.716 41.0819 167.981 42.2074 168.197C43.3404 168.401 44.4509 168.695 45.5688 168.964C46.1278 169.102 46.6868 169.233 47.2421 169.396L48.9003 169.885L50.5585 170.374L52.2017 170.916L53.8374 171.479C54.3814 171.67 54.9179 171.882 55.4581 172.086C56.5386 172.494 57.6228 172.889 58.6845 173.354C59.75 173.802 60.8192 174.247 61.8696 174.736C62.9276 175.209 63.978 175.69 65.0135 176.216C69.1778 178.254 73.237 180.541 77.1237 183.129V183.125Z" fill="#B0BDD1"/>
<path d="M28.8291 115.343C45.8614 130.65 34.5316 176.705 93.9159 188.649C93.9159 188.649 99.2207 168.813 83.3701 142.011C67.5195 115.208 28.8291 115.343 28.8291 115.343Z" fill="#DBE9FF"/>
<path d="M90.2994 182.717C87.088 176.892 83.7866 171.202 80.2375 165.702C76.6773 160.22 72.9144 154.908 68.8852 149.845C64.8597 144.782 60.5828 139.96 56.0209 135.464C51.4401 130.988 46.5818 126.846 41.2808 123.255C47.1033 125.741 52.4756 129.463 57.4015 133.69C62.3461 137.922 66.8518 142.736 70.9598 147.901C75.0641 153.074 78.7744 158.609 82.0233 164.439C85.2835 170.256 88.1122 176.362 90.2994 182.721V182.717Z" fill="#CDDCF4"/>
<path d="M128.998 158.214C126.867 160.966 124.935 165.527 123.734 166.253C122.534 166.978 120.511 167.227 118.602 173.912C116.692 180.598 126.338 179.68 126.338 179.68C126.338 179.68 130.464 177.104 132.13 170.884L136.261 166.901L128.998 158.214Z" fill="#F6A397"/>
<path d="M121.535 178.947C121.535 178.947 124.657 177.842 127.305 174.801C129.965 171.748 130.307 166.322 130.307 166.322L131.578 168.906L134.126 165.947L135.353 165.817L136.257 166.901L132.126 170.884C130.46 177.104 126.334 179.68 126.334 179.68C126.334 179.68 123.674 179.929 121.423 179.204C121.479 179.045 121.528 178.947 121.528 178.947H121.535Z" fill="#D65863"/>
<path d="M143.464 134.273C140.508 136.621 138.744 138.325 137.274 141.517C135.803 144.709 126.597 156.184 126.008 157.207C125.419 158.23 131.185 169.09 135.796 171.748C135.796 171.748 142.759 163.02 146.776 159.718C150.794 156.416 149.421 144.709 147.561 140.771C145.7 136.833 143.464 134.273 143.464 134.273Z" fill="#5470D3"/>
<path d="M143.355 155.405V148.887C143.355 148.887 144.135 148.549 144.746 150.746C144.99 151.626 144.972 152.552 144.863 153.347L149.346 149.682C149.53 153.783 148.926 157.957 146.776 159.722C142.758 163.024 135.795 171.751 135.795 171.751C134.606 171.067 133.338 169.831 132.126 168.364C134.962 165.294 140.342 159.376 143.355 155.405Z" fill="#314EC6"/>
<path d="M114.707 177.108C113.942 177.369 113.375 177.765 113.375 178.816C113.375 179.868 113.541 181.531 113.908 182.183C114.276 182.836 116.167 183.227 116.167 183.227C116.167 183.227 116.039 178.89 115.641 178.095C115.24 177.3 114.711 177.112 114.711 177.112L114.707 177.108Z" fill="#F6A397"/>
<path d="M113.905 182.183C113.803 182 113.717 181.731 113.642 181.425C114.051 181.865 114.19 181.865 114.693 181.926L116.129 182.411C116.152 182.9 116.159 183.227 116.159 183.227C116.159 183.227 114.269 182.835 113.901 182.183H113.905Z" fill="#D65863"/>
<path d="M116.538 175.518C115.604 175.628 114.674 176.387 114.674 177.438C114.674 178.49 114.34 181.421 114.674 181.89C115.008 182.359 116.64 183.7 117.206 183.81C117.773 183.92 118.733 183.736 118.602 183.41C118.47 183.084 116.538 175.518 116.538 175.518Z" fill="#F6A397"/>
<path d="M114.531 181.104C115.24 181.972 117.049 181.894 117.049 181.894C117.049 181.894 117.844 182.816 117.941 183.113C118.002 183.293 118.328 183.529 118.369 183.708C118.069 183.831 117.559 183.88 117.206 183.81C116.651 183.704 115.075 182.416 114.7 181.923L114.535 181.108L114.531 181.104Z" fill="#D65863"/>
<path d="M120.035 173.79C117.172 173.965 116.639 174.255 116.538 175.523C116.437 176.79 116.504 180.484 116.872 181.425C117.24 182.367 117.439 183.198 117.904 183.708C118.369 184.213 119.067 184.217 119.067 184.217C119.067 184.217 120.635 181.719 120.702 179.619C120.77 177.52 120.035 173.798 120.035 173.798V173.79Z" fill="#F6A397"/>
<path d="M118.388 182.13C118.534 181.27 118.857 180.353 118.894 177.475C118.909 176.395 119.832 182.041 119.42 183.59C119.213 183.973 119.067 184.209 119.067 184.209C119.067 184.209 118.369 184.209 117.904 183.7C117.439 183.194 117.236 182.359 116.872 181.421C116.85 181.36 116.827 181.287 116.805 181.201C116.992 181.731 117.585 182.077 118.388 182.13Z" fill="#D65863"/>
<path d="M126.3 180.153C126.12 181.881 124.034 182.505 123.801 183.373C123.569 184.242 123.734 185.041 123.336 185.257C122.935 185.473 121.269 184.462 121.337 183.3C121.337 183.3 120.905 184.278 119.937 184.458C118.969 184.637 118.737 183.871 118.905 182.717C119.071 181.563 119.041 180.948 119.007 179.57C118.973 178.196 118.673 176.929 119.239 175.408C119.806 173.888 120.571 172.546 122.106 172.803C123.64 173.056 124.57 175.155 125.403 175.881C126.236 176.607 126.502 178.233 126.304 180.153H126.3Z" fill="#F6A397"/>
<path d="M121.337 183.304C121.431 181.103 121.536 179.305 121.536 178.951C121.536 178.596 121.431 176.26 122.192 176.118C122.308 176.097 123.989 177.255 124.019 178.034C124.053 178.812 124.019 180.214 123.498 180.614C122.976 181.013 121.333 183.304 121.333 183.304H121.337Z" fill="#D65863"/>
<path d="M190.768 138.965C187.729 134.779 186.686 134.351 183.55 132.365C180.413 130.38 168.528 125.338 166.078 124.702C163.629 124.062 153.751 129.068 150.509 130.661C147.268 132.259 143.145 133.829 142.44 135.386C140.087 140.596 144.747 147.978 144.769 163.448C144.781 171.552 146.48 189.773 146.48 189.773C146.48 189.773 183.805 189.851 184.33 188.999C184.852 188.147 186.157 159.049 186.814 153.09C187.466 147.13 190.764 138.969 190.764 138.969L190.768 138.965Z" fill="#5470D3"/>
<path d="M142.578 143.543C142.297 142.565 142.132 141.566 141.993 140.563C141.866 139.56 141.764 138.554 141.779 137.526C142.061 138.505 142.226 139.503 142.365 140.506C142.492 141.509 142.593 142.516 142.578 143.543Z" fill="#314EC6"/>
<path d="M156.538 137.449C155.097 136.862 151.679 137.881 151.053 138.117C150.43 138.354 151.421 135.451 151.788 135.093C152.156 134.734 152.745 133.898 153.87 134.273C154.996 134.652 155.945 136.055 156.106 136.515C156.271 136.976 156.538 137.445 156.538 137.445V137.449Z" fill="#314EC6"/>
<path d="M168.555 139.87C168.041 139.842 165.039 138.346 164.323 137.971C163.606 137.596 160.35 137.424 158.163 138.089C158.163 138.089 162.368 134.999 164.818 135.027C167.268 135.056 168.198 136.014 168.393 136.862C168.588 137.714 168.551 139.87 168.551 139.87H168.555Z" fill="#314EC6"/>
<path d="M152.509 183.247C152.91 182.823 177.288 183.671 177.776 180.903C178.264 178.136 178.601 173.101 178.601 173.101C175.667 174.805 171.406 174.096 171.406 174.096C174.246 173.089 178.361 168.022 178.556 166.534C179.16 161.944 176.902 149.287 176.902 149.287L178.556 145.671L180.492 144.501C180.492 144.501 184.161 146.486 187.297 150.139C187.087 151.15 186.915 152.144 186.814 153.086C186.198 158.707 185.001 184.886 184.428 188.579C176.875 188.881 163.19 189.427 154.032 189.77C149.594 189.782 146.48 189.774 146.48 189.774C146.48 189.774 146.424 187.377 146.289 183.94C148.843 183.777 152.254 183.512 152.501 183.251L152.509 183.247Z" fill="#314EC6"/>
<path d="M157.457 138.219C160.087 137.873 164.315 135.398 165.981 136.25C167.646 137.102 168.037 139.283 168.382 139.658C168.727 140.033 170.194 138.166 170.194 133.589C170.194 129.011 170.321 124.323 167.222 123.687C164.12 123.051 156.088 126.349 154.471 127.682C152.854 129.011 152.167 130.36 151.728 131.656C151.286 132.953 150.111 138.166 150.652 138.219C151.192 138.272 152.707 134.864 153.837 134.758C154.962 134.652 156.748 138.313 157.461 138.219H157.457Z" fill="#5470D3"/>
<path d="M155.96 134.123C155.289 132.395 154.554 130.878 154.58 129.68C154.606 128.481 154.85 127.658 156.073 127.283C157.296 126.908 157.814 127.629 157.885 129.439C157.96 131.249 155.96 134.123 155.96 134.123Z" fill="#314EC6"/>
<path d="M165.564 130.898C168.127 128.375 168.416 125.554 168.176 124.967C167.935 124.38 166.878 123.956 166.878 123.956C166.878 123.956 166.461 125.79 166.705 126.243C166.949 126.695 165.564 130.894 165.564 130.894V130.898Z" fill="#314EC6"/>
<path d="M161.49 136.996C162.113 136.691 162.766 136.454 163.43 136.259C164.097 136.083 164.784 135.941 165.493 135.994C165.846 136.022 166.221 136.104 166.536 136.377C166.814 136.662 167.024 136.919 167.26 137.208C167.725 137.783 168.048 138.484 168.344 139.141C168.412 139.291 168.513 139.471 168.558 139.487C168.562 139.487 168.558 139.499 168.614 139.463C168.659 139.43 168.708 139.373 168.757 139.308C168.948 139.043 169.102 138.713 169.256 138.386C169.564 137.751 169.729 137.045 169.86 136.324C169.987 135.602 170.063 134.868 170.108 134.135C170.168 133.397 170.186 132.659 170.194 131.917C170.329 133.397 170.329 134.893 170.141 136.381C170.051 137.123 169.879 137.873 169.571 138.562C169.417 138.9 169.263 139.234 169.038 139.56C168.978 139.642 168.915 139.723 168.821 139.797C168.776 139.834 168.712 139.87 168.637 139.887C168.558 139.907 168.464 139.895 168.397 139.858C168.258 139.781 168.198 139.679 168.142 139.593C168.085 139.503 168.044 139.418 168.003 139.332C167.707 138.66 167.414 138.015 166.982 137.465C166.776 137.192 166.536 136.89 166.322 136.662C166.101 136.462 165.782 136.36 165.459 136.316C164.807 136.23 164.127 136.332 163.463 136.466C162.796 136.593 162.139 136.793 161.486 137.009L161.49 136.996Z" fill="#314EC6"/>
<path d="M155.457 136.043C155.172 135.769 154.891 135.496 154.583 135.272C154.429 135.158 154.276 135.052 154.114 134.974C154.032 134.942 153.957 134.913 153.882 134.905C153.848 134.905 153.814 134.905 153.788 134.913C153.765 134.93 153.75 134.926 153.705 134.962C153.075 135.386 152.584 135.965 152.163 136.634C151.95 136.956 151.766 137.323 151.514 137.657C151.391 137.82 151.256 137.983 151.087 138.126C150.997 138.191 150.91 138.268 150.753 138.289C150.678 138.301 150.573 138.268 150.509 138.203C150.445 138.138 150.411 138.068 150.393 138.007C150.325 137.755 150.348 137.547 150.363 137.331C150.385 137.119 150.423 136.915 150.464 136.711C150.558 136.307 150.663 135.912 150.794 135.525C150.742 135.932 150.674 136.336 150.644 136.744C150.622 136.947 150.61 137.147 150.607 137.347C150.607 137.539 150.607 137.751 150.663 137.889C150.674 137.926 150.693 137.942 150.7 137.946C150.708 137.946 150.7 137.946 150.719 137.946C150.749 137.946 150.824 137.897 150.884 137.84C151.008 137.726 151.128 137.575 151.233 137.416C151.454 137.106 151.631 136.752 151.852 136.401C152.073 136.059 152.317 135.729 152.602 135.431C152.884 135.138 153.214 134.885 153.552 134.689C153.582 134.665 153.66 134.636 153.724 134.616C153.788 134.604 153.852 134.612 153.912 134.616C154.024 134.64 154.126 134.685 154.216 134.738C154.392 134.848 154.546 134.979 154.692 135.117C154.973 135.407 155.229 135.708 155.454 136.047L155.457 136.043Z" fill="#314EC6"/>
<path d="M155.6 123.723C155.608 124.848 155.649 125.969 155.754 127.086C156.017 129.83 155.758 133.45 155.96 134.118C156.182 134.864 157.506 137.526 157.506 137.526C157.506 137.526 159.858 136.356 160.837 135.076C161.817 133.8 163.092 133.735 164.807 131.852C166.521 129.968 167.688 126.976 167.305 124.486C167.256 124.168 166.956 120.98 166.889 117.678C166.821 114.376 163.632 111.869 160.594 111.869C157.555 111.869 155.739 116.765 155.645 120.067C155.608 121.42 155.6 122.692 155.604 123.719L155.6 123.723Z" fill="#F6A397"/>
<path d="M166.889 117.678C166.956 120.98 167.256 124.168 167.305 124.486C167.421 125.256 167.391 126.072 167.245 126.891C166.573 127.026 157.922 127.254 155.682 126.121C155.63 125.322 155.607 124.523 155.604 123.724C155.6 122.696 155.604 121.425 155.645 120.071C155.686 118.673 156.035 116.985 156.658 115.51L163.775 112.77C165.519 113.781 166.851 115.567 166.892 117.682L166.889 117.678Z" fill="#D65863"/>
<path d="M150.273 103.94C145.677 103.94 143.959 107.776 143.959 110.65C143.959 113.231 144.721 117.36 150.273 117.36C153.049 117.36 154.929 114.356 154.929 110.65C154.929 106.945 153.049 103.94 150.273 103.94Z" fill="#504984"/>
<path d="M150.07 105.584C146.6 105.584 145.302 108.482 145.302 110.651C145.302 112.599 145.876 115.718 150.07 115.718C152.167 115.718 153.585 113.447 153.585 110.651C153.585 107.855 152.167 105.584 150.07 105.584Z" fill="#372D5B"/>
<path d="M144.476 106.204C144.746 107.952 145.545 108.621 145.902 110.981C146.258 113.341 145.309 116.766 146.723 119.754C148.138 122.738 150.43 126.663 151.751 126.83C153.075 126.997 163.67 125.053 167.245 117.328C168.269 115.111 170.464 106.416 168.588 101.108C166.712 95.8007 163.658 90.9334 156.605 90.7867C149.548 90.6399 143.039 96.9339 144.48 106.208L144.476 106.204Z" fill="#F6A397"/>
<path d="M150.378 115.766C150.753 115.774 151.169 115.619 151.353 115.35C151.515 115.114 151.582 114.804 151.537 114.515C150.986 115.008 150.31 115.094 149.631 114.963C149.549 115.513 149.939 115.75 150.378 115.762V115.766Z" fill="#D65863"/>
<path d="M162.856 106.203C162.586 104.385 161.468 103.333 161.468 103.333C161.468 103.333 158.77 102.119 156.684 101.894C154.599 101.674 152.46 101.01 152.46 101.01C152.46 101.01 153.12 102.828 154.242 103.607C154.242 103.607 149.256 103.333 147.681 101.727C147.681 101.727 147.984 103.048 148.292 103.937C148.292 103.937 145.85 103.664 145.088 102.612C145.088 102.612 144.477 104.923 144.477 106.199C144.477 106.199 141.543 101.837 142.29 98.3724C143.036 94.9075 144.053 93.5827 144.053 93.5827C144.053 93.5827 141.948 93.8028 140.796 93.5827C140.796 93.5827 143.509 91.0023 145.546 89.3065C147.579 87.6107 153.687 87.5374 153.687 87.5374C153.687 87.5374 153.21 85.7682 153.754 82.9677C153.754 82.9677 156.366 87.1338 159.131 88.4056C161.895 89.6775 161.524 89.5674 164.454 90.3745C167.384 91.1776 170.172 93.2158 171.342 94.932C172.513 96.6481 173.784 98.4132 174.546 98.6904C174.546 98.6904 172.715 98.4132 171.8 97.5857C171.8 97.5857 173.327 101.356 171.308 106.207C169.29 111.058 164.233 109.623 163.254 108.551C162.274 107.479 162.86 106.207 162.86 106.207L162.856 106.203Z" fill="#BA6454"/>
<path d="M163.25 108.547C162.27 107.475 162.856 106.203 162.856 106.203C162.694 105.103 162.222 104.287 161.873 103.81C162.608 98.9757 162.308 93.9577 161.002 89.2657C161.764 89.6 162.218 89.7508 163.317 90.0606C164.672 92.2741 165.684 94.7607 166.379 97.284C167.268 100.496 167.695 103.961 166.866 107.194C166.652 108.021 166.345 108.828 165.955 109.587C164.702 109.472 163.64 108.983 163.246 108.551L163.25 108.547Z" fill="#874438"/>
<path d="M164.63 104.401C164.63 104.401 164.979 92.2782 159.126 88.4056C159.126 88.4056 163.655 87.8512 166.251 92.7715C168.847 97.6917 168.671 101.911 168.603 104.275C168.539 106.639 164.63 104.397 164.63 104.397V104.401Z" fill="#504984"/>
<path d="M166.416 103.94C171.012 103.94 172.73 107.776 172.73 110.65C172.73 113.231 171.968 117.36 166.416 117.36C163.64 117.36 161.76 114.356 161.76 110.65C161.76 106.945 163.64 103.94 166.416 103.94Z" fill="#504984"/>
<path d="M163.937 110.651C163.937 107.361 165.936 104.695 168.401 104.695C170.866 104.695 172.73 107.361 172.73 110.651C172.73 113.941 170.866 116.607 168.401 116.607C165.936 116.607 163.937 113.941 163.937 110.651Z" fill="#372D5B"/>
<path d="M168.989 114.707C170.668 114.707 172.028 112.891 172.028 110.651C172.028 108.41 170.668 106.595 168.989 106.595C167.311 106.595 165.951 108.41 165.951 110.651C165.951 112.891 167.311 114.707 168.989 114.707Z" fill="#504984"/>
<path d="M154.767 117.36C153.526 118.102 149.47 118.351 149.193 118.31C148.915 118.269 149.481 121.616 150.476 121.738C151.47 121.861 153.454 121.571 154.283 120.707C155.113 119.839 154.764 117.36 154.764 117.36H154.767Z" fill="#D65863"/>
<path d="M154.508 118.335C154.433 118.037 154.373 117.801 154.313 117.568C152.948 118.074 150.258 118.29 149.429 118.31C149.496 118.759 149.616 119.211 149.781 119.655C149.808 119.635 149.774 119.7 149.8 119.68C151.59 119.986 153.413 119.354 154.505 118.335H154.508Z" fill="white"/>
<path d="M154.22 109.359C154.22 108.747 154.497 108.254 154.839 108.254C155.18 108.254 155.458 108.747 155.458 109.359C155.458 109.97 155.18 110.463 154.839 110.463C154.497 110.463 154.22 109.97 154.22 109.359Z" fill="#3F1751"/>
<path d="M147.137 109.876C147.137 109.265 147.377 108.771 147.669 108.771C147.962 108.771 148.202 109.265 148.202 109.876C148.202 110.488 147.962 110.981 147.669 110.981C147.377 110.981 147.137 110.488 147.137 109.876Z" fill="#3F1751"/>
<path d="M157.686 105.05C157.262 104.797 156.808 104.622 156.339 104.475C155.87 104.336 155.382 104.259 154.887 104.239C154.396 104.21 153.878 104.198 153.402 104.398C152.925 104.577 152.494 104.903 152.175 105.331L152.212 105.396C152.723 105.335 153.146 105.201 153.593 105.135C154.028 105.066 154.452 104.891 154.906 104.85C155.806 104.769 156.752 104.846 157.66 105.119L157.69 105.05H157.686Z" fill="#3F1751"/>
<path d="M145.347 106.476C145.568 106.383 145.801 106.326 146.03 106.297C146.258 106.264 146.491 106.252 146.72 106.248C146.949 106.248 147.178 106.334 147.403 106.273C147.515 106.244 147.632 106.22 147.748 106.167C147.868 106.122 147.988 106.065 148.119 105.967L148.127 105.889C147.905 105.653 147.654 105.555 147.399 105.502C147.14 105.449 146.889 105.563 146.641 105.637C146.393 105.706 146.15 105.8 145.921 105.93C145.696 106.065 145.478 106.207 145.302 106.415L145.347 106.476Z" fill="#3F1751"/>
<path d="M152.509 185.873C152.509 186.044 152.291 186.293 151.751 186.293H134.76C132.801 186.293 132.344 185.449 132.933 184.385C133.522 183.321 136.001 180.977 142.143 179.347C148.281 177.716 151.511 181.532 152.509 183.252C153.24 184.511 152.509 185.873 152.509 185.873Z" fill="#504984"/>
<path d="M132.787 184.703C133.124 185.926 146.09 185.286 146.09 185.286C146.09 185.286 144.777 183.357 143.321 183.3C141.869 183.243 141.16 183.794 139.213 184.156C137.266 184.519 138.711 183.296 138.711 183.296C138.711 183.296 137.334 182.966 136.775 182.493C136.775 182.493 139.986 181.462 141.333 181.221C142.68 180.981 146.109 181.14 146.551 181.221C146.863 181.278 148.446 180.28 150.359 180.781C151.425 181.629 152.134 182.587 152.513 183.243C153.244 184.503 152.513 185.864 152.513 185.864C152.513 186.036 152.295 186.284 151.755 186.284H134.764C133.004 186.284 132.46 185.608 132.791 184.699L132.787 184.703Z" fill="#372D5B"/>
<path d="M188.235 174.328C188.235 174.328 176.151 176.358 169.605 177.63C163.4 178.836 158.046 179.358 156.527 179.04C155.007 178.722 149.815 176.643 148.149 175.901C146.484 175.159 143.152 174.731 141.438 175.314C139.723 175.901 138.32 176.537 137.633 176.537C136.947 176.537 137.078 177.744 137.994 177.992C138.909 178.241 139.723 178.204 139.723 178.204C139.723 178.204 136.621 180.051 136.065 180.226C135.51 180.402 136.167 181.502 136.921 181.433C136.921 181.433 136.264 181.857 136.493 182.285C136.722 182.709 138.354 182.709 138.354 182.709C138.354 182.709 136.362 183.773 138.027 184.201C139.693 184.625 141.685 182.603 142.503 182.428C143.321 182.248 145.212 182.358 146.127 183.1C147.043 183.842 150.959 187.287 156.317 185.228C156.317 185.228 192.67 186.83 196.294 186.83C199.918 186.83 202.109 183.349 200.946 176.643C199.783 169.937 197.532 164.932 197.532 164.932L184.99 165.89L188.239 174.324L188.235 174.328Z" fill="#F6A397"/>
<path d="M142.586 177.144C142.905 177.063 143.16 177.014 143.321 177.006C143.321 177.006 143.01 177.063 142.586 177.144Z" fill="#D65863"/>
<path d="M139.727 178.209C139.727 178.209 138.909 178.246 137.998 177.997C137.739 177.928 137.547 177.781 137.416 177.606C138.433 178.095 139.686 177.781 140.369 177.606C140.8 177.496 141.862 177.284 142.589 177.141C141.862 177.328 140.796 177.691 139.727 178.209Z" fill="#D65863"/>
<path d="M139.885 179.807C139.964 179.77 140.031 179.738 140.072 179.726C140.072 179.726 140.001 179.758 139.885 179.807Z" fill="#D65863"/>
<path d="M136.073 181.022C136.073 181.022 136.444 181.376 137.198 181.022C137.829 180.724 139.352 180.043 139.884 179.807C139.217 180.137 137.405 181.25 136.921 181.437C136.587 181.47 136.272 181.27 136.073 181.022Z" fill="#D65863"/>
<path d="M137.949 182.326C138.504 182.147 139.663 181.385 140.372 181.022C141.081 180.659 141.989 180.614 141.989 180.614C141.989 180.614 141.719 180.643 141.01 181.022C140.301 181.401 138.354 182.718 138.354 182.718C138.354 182.718 137.307 182.718 136.771 182.498C136.774 182.498 137.397 182.502 137.949 182.326Z" fill="#D65863"/>
<path d="M148.285 183.194C149.313 183.887 152.351 184.792 154.163 184.417C155.975 184.042 156.369 182.395 156.369 182.395L156.876 184.169C156.876 184.169 182.087 184.951 187.215 184.699C192.284 184.45 200.188 184.328 201.22 181.018C200.938 184.857 199.021 186.835 196.294 186.835C192.67 186.835 156.317 185.233 156.317 185.233C150.959 187.291 147.043 183.851 146.127 183.105C145.366 182.485 143.933 182.31 142.999 182.367C144.39 181.837 147.257 182.501 148.285 183.194Z" fill="#D65863"/>
<path d="M188.236 174.328C188.236 174.328 192.959 173.631 193.904 173.525L193.188 170.333L187.211 171.646L188.236 174.332V174.328Z" fill="#D65863"/>
<path d="M200.86 165.389C201.036 165.89 200.924 166.453 200.571 166.823C198.376 169.151 195.495 172.327 192.531 172.812C189.297 173.346 183.91 173.558 183.617 172.812C183.325 172.066 182.244 162.592 180.286 157.802C178.328 153.013 177.052 150.563 176.564 147.795C176.077 145.027 180.485 138.533 182.443 137.999C184.401 137.465 188.911 137.147 190.772 138.957C192.632 140.767 194.006 147.685 196.159 152.903C197.9 157.113 200.083 163.191 200.863 165.385L200.86 165.389Z" fill="#5470D3"/>
<path d="M188.734 137.913C188.134 137.84 187.534 137.783 186.934 137.771C186.333 137.746 185.733 137.746 185.137 137.783C184.54 137.824 183.947 137.889 183.362 138.003C183.07 138.052 182.781 138.129 182.492 138.199C182.222 138.305 181.944 138.382 181.696 138.549C181.434 138.676 181.205 138.879 180.961 139.055C180.74 139.267 180.507 139.458 180.305 139.695C179.873 140.135 179.513 140.653 179.142 141.158C178.781 141.676 178.459 142.226 178.147 142.785C177.829 143.339 177.547 143.914 177.27 144.501C177.675 143.262 178.234 142.083 178.905 140.979C179.247 140.432 179.618 139.898 180.049 139.422C180.252 139.169 180.503 138.965 180.732 138.741C180.987 138.549 181.231 138.333 181.516 138.186C181.786 138.011 182.098 137.921 182.398 137.807C182.698 137.738 182.998 137.661 183.298 137.62C183.902 137.526 184.514 137.465 185.122 137.469C186.337 137.469 187.553 137.595 188.727 137.909L188.734 137.913Z" fill="#314EC6"/>
<path d="M198.414 167.353C198.399 165.654 195.093 150.061 192.171 141.366C193.413 144.334 194.572 149.079 196.155 152.911C197.896 157.122 200.079 163.2 200.86 165.393C201.036 165.894 200.923 166.457 200.571 166.828C199.73 167.72 198.789 168.735 197.78 169.677C197.855 169.595 198.429 168.943 198.414 167.353Z" fill="#314EC6"/>
<path d="M40.827 149.784C40.767 150.31 40.8683 150.836 41.1009 151.3C41.9562 152.992 42.3877 154.933 42.3314 156.857C42.2939 158.128 42.0538 159.425 42.3727 160.648C42.9204 162.759 44.9725 164.06 45.6291 166.135C46.2143 167.973 45.6703 170.28 46.8859 171.707C47.186 172.062 47.6549 172.331 48.0676 172.151C48.274 172.062 48.4278 171.874 48.5778 171.691C49.9697 169.97 51.4628 167.883 51.0314 165.641C50.6262 163.534 48.6304 162.111 48.2515 160C47.9438 158.275 48.7542 156.282 47.8425 154.831C47.5912 154.431 47.231 154.121 46.9571 153.738C45.8767 152.23 46.2744 149.821 45.0288 148.471C44.6236 148.031 44.1134 147.783 43.5582 147.652C42.2526 147.35 40.9846 148.337 40.8233 149.78L40.827 149.784Z" fill="#BA5E5B"/>
<path d="M48.7465 176.55C48.829 175.425 48.8665 174.304 48.904 173.174C48.8553 172.049 48.8027 170.928 48.7127 169.803C48.6227 168.682 48.5064 167.557 48.3263 166.44C48.1387 165.331 47.8948 164.198 47.4672 163.155C46.7168 161.092 46.1091 158.94 45.4976 156.804L44.6084 153.583C44.2445 152.532 43.8881 151.476 43.543 150.416C43.693 151.533 43.9294 152.629 44.1357 153.734L45.0249 156.963C45.6401 159.107 46.2404 161.251 47.0095 163.363C47.4259 164.374 47.6547 165.442 47.8386 166.534C48.0186 167.627 48.1312 168.735 48.2212 169.848C48.3075 170.961 48.3675 172.078 48.4051 173.195L48.7427 176.546L48.7465 176.55Z" fill="#FFA6A4"/>
<path d="M43.2879 153.774C43.4568 154.056 43.6781 154.264 43.9145 154.451C44.0345 154.541 44.1771 154.598 44.3084 154.671C44.4434 154.741 44.5597 154.834 44.6685 154.94L44.7173 154.985L44.7586 154.916C44.8561 154.753 44.9762 154.598 45.0699 154.435C45.16 154.268 45.2575 154.101 45.3363 153.929C45.4939 153.579 45.6102 153.208 45.6702 152.808L45.6402 152.792C45.3813 153.085 45.1825 153.412 45.0212 153.758C44.9424 153.933 44.8786 154.117 44.8111 154.296C44.7473 154.48 44.706 154.675 44.646 154.859L44.7361 154.834C44.6085 154.753 44.4922 154.659 44.3909 154.541C44.2896 154.427 44.1958 154.296 44.0833 154.194C43.8507 154.003 43.5993 153.84 43.3029 153.746L43.2842 153.774H43.2879Z" fill="#FFA6A4"/>
<path d="M43.5394 157.615C43.7157 157.774 43.8995 157.945 44.0909 158.088C44.2822 158.235 44.4773 158.378 44.6874 158.492C44.9012 158.602 45.1263 158.691 45.3289 158.818C45.5353 158.94 45.7228 159.095 45.9067 159.258L45.9704 159.315L46.0342 159.221C46.3193 158.818 46.5594 158.39 46.7883 157.954C47.0021 157.509 47.1972 157.049 47.3323 156.555L47.3023 156.539C46.9834 156.922 46.7208 157.338 46.4807 157.766C46.2556 158.206 46.0417 158.651 45.8691 159.124L46.0005 159.087C45.7866 158.977 45.5728 158.863 45.3814 158.72C45.1864 158.577 45.0138 158.398 44.8262 158.239C44.6349 158.088 44.4285 157.962 44.2184 157.848C44.0046 157.738 43.7908 157.627 43.5431 157.574L43.5356 157.611L43.5394 157.615Z" fill="#FFA6A4"/>
<path d="M44.7959 162.686C44.991 162.897 45.2086 163.056 45.4299 163.199C45.6513 163.346 45.8951 163.444 46.154 163.513C46.4128 163.582 46.6454 163.705 46.8518 163.876C47.0581 164.047 47.2607 164.235 47.4708 164.385L47.6284 164.495L47.7447 164.304C47.9172 164.023 48.0711 163.733 48.1949 163.423C48.3149 163.114 48.4237 162.796 48.4837 162.449L48.4462 162.429C48.2099 162.669 48.0185 162.938 47.846 163.215C47.6696 163.493 47.5271 163.79 47.4033 164.1L47.6771 164.023C47.4408 163.88 47.1894 163.798 46.9381 163.705C46.6905 163.611 46.4616 163.476 46.2553 163.293C46.0527 163.105 45.8276 162.955 45.5837 162.857C45.3399 162.755 45.0885 162.669 44.8147 162.645L44.7959 162.686Z" fill="#FFA6A4"/>
<path d="M50.3936 176.77C51.2002 176.627 54.2315 175.572 54.0214 174.712C53.1135 171.022 52.2056 166.836 55.3495 165.03C56.8614 164.162 58.7634 163.722 59.6263 162.111C60.5154 160.456 59.8589 158.353 59.0636 156.645C58.2682 154.937 57.3078 153.107 57.6492 151.227C58.0056 149.258 59.7201 147.807 59.994 145.822C60.3691 143.115 57.9456 140.93 55.6233 139.875C54.8317 139.516 53.9614 139.206 53.1285 139.426C52.532 139.581 52.018 139.997 51.6091 140.494C49.9771 142.479 50.0409 145.471 50.4161 148.105C50.7913 150.738 51.3577 153.514 50.4461 155.989C49.7971 157.746 48.4127 159.396 48.7841 161.243C48.9342 161.981 49.3581 162.629 49.5195 163.367C49.9546 165.352 48.439 167.142 47.7412 169.041C46.8446 171.487 47.4598 174.479 49.163 176.338C49.4857 176.693 49.9471 176.86 50.3973 176.778L50.3936 176.77Z" fill="#E67471"/>
<path d="M50.1086 176.811C50.2962 175.351 50.4837 173.896 50.7239 172.449C50.7801 172.086 50.8514 171.727 50.9039 171.369C50.9527 171.006 50.9827 170.643 51.039 170.28C51.1403 169.559 51.2528 168.837 51.3766 168.12C51.6317 166.689 51.9394 165.262 52.3896 163.909C52.6147 163.236 52.8848 162.572 53.2374 162.005C53.4138 161.72 53.6201 161.471 53.8489 161.3C54.1528 161.084 54.4417 160.807 54.6668 160.472C55.132 159.8 55.2746 158.948 55.2558 158.181C55.2408 157.403 55.1057 156.661 54.9519 155.935C54.6405 154.484 54.2466 153.086 54.029 151.659C53.8077 150.241 53.7664 148.789 54.1078 147.428C54.2129 147.098 54.2954 146.759 54.3967 146.421C54.498 146.083 54.633 145.757 54.7831 145.439C55.0832 144.799 55.4771 144.199 55.9161 143.633C55.3796 144.089 54.8844 144.615 54.4717 145.223C54.2654 145.524 54.0703 145.846 53.9052 146.185C53.7326 146.519 53.5901 146.878 53.5151 147.253C53.1399 148.741 53.1924 150.302 53.4213 151.773C53.6464 153.253 54.0478 154.672 54.3517 156.086C54.498 156.791 54.6255 157.501 54.6405 158.194C54.6555 158.883 54.5317 159.559 54.1716 160.077C53.9953 160.338 53.7702 160.554 53.5075 160.741C53.1774 160.986 52.9298 161.3 52.7272 161.626C52.322 162.278 52.0444 162.975 51.8081 163.681C51.3391 165.095 51.0277 166.542 50.7689 167.993C50.6413 168.719 50.525 169.449 50.4237 170.182C50.3787 170.549 50.3149 170.912 50.2737 171.279C50.2399 171.646 50.2249 172.017 50.2024 172.384C50.1273 173.859 50.0786 175.335 50.1048 176.811H50.1086Z" fill="#FFA6A4"/>
<path d="M55.4734 148.007C55.2408 148.097 55.0457 148.244 54.8657 148.399C54.6856 148.557 54.5167 148.729 54.3892 148.941C54.2616 149.153 54.1491 149.377 53.984 149.552C53.8265 149.731 53.6351 149.882 53.455 150.041L53.6951 150.058C53.6126 149.87 53.5151 149.691 53.425 149.511C53.3312 149.332 53.2374 149.153 53.1249 148.986C53.0199 148.814 52.8998 148.655 52.7873 148.488C52.671 148.325 52.5434 148.17 52.4384 147.999L52.3971 148.007C52.3896 148.235 52.4534 148.451 52.5171 148.651C52.5884 148.851 52.6672 149.047 52.7647 149.23C52.8548 149.418 52.9673 149.589 53.0836 149.756C53.1999 149.923 53.3125 150.09 53.4513 150.245L53.6014 150.416L53.6914 150.261C53.8152 150.049 53.9315 149.829 54.0853 149.646C54.2316 149.454 54.4305 149.32 54.618 149.173C54.8094 149.026 54.9557 148.843 55.102 148.655C55.2483 148.464 55.3834 148.268 55.5034 148.04L55.4772 148.003L55.4734 148.007Z" fill="#FFA6A4"/>
<path d="M52.5358 153.596C52.6334 153.849 52.7572 154.077 52.896 154.293C53.0385 154.505 53.1886 154.713 53.3574 154.896C53.5338 155.076 53.7326 155.231 53.9202 155.398C54.104 155.569 54.2653 155.76 54.4116 155.968L54.4567 156.034L54.5242 155.976C54.768 155.765 54.9631 155.573 55.1545 155.345C55.3383 155.116 55.5334 154.904 55.7022 154.668C55.8748 154.432 56.0323 154.191 56.1861 153.938C56.34 153.69 56.4788 153.429 56.6363 153.184L56.6138 153.147C56.3475 153.286 56.1374 153.498 55.931 153.702C55.7285 153.91 55.5371 154.134 55.3608 154.366C55.1845 154.599 55.0344 154.851 54.8693 155.092C54.708 155.328 54.573 155.618 54.4191 155.826L54.5317 155.834C54.3441 155.667 54.179 155.483 54.0327 155.271C53.8939 155.059 53.7664 154.831 53.62 154.627C53.47 154.427 53.2974 154.248 53.1248 154.065C52.9485 153.885 52.7647 153.718 52.5621 153.563L52.5283 153.592L52.5358 153.596Z" fill="#FFA6A4"/>
<path d="M57.9381 157.908C57.683 158.234 57.4204 158.532 57.1465 158.821C56.8764 159.107 56.5838 159.36 56.2987 159.637C56.0098 159.902 55.6834 160.142 55.312 160.26C54.9443 160.387 54.5542 160.403 54.1753 160.399L54.3441 160.529C54.2765 160.183 54.179 159.861 54.074 159.531C53.9727 159.201 53.8414 158.883 53.6838 158.581C53.5262 158.275 53.3424 157.986 53.1248 157.721C52.9035 157.464 52.6446 157.224 52.337 157.105L52.3145 157.142C52.5471 157.37 52.7271 157.635 52.8809 157.917C53.0385 158.198 53.1736 158.491 53.3049 158.789L53.6838 159.694C53.8076 160 53.9164 160.313 54.0252 160.623L54.0777 160.77L54.194 160.75C54.5954 160.68 54.9743 160.534 55.3458 160.391C55.7134 160.236 56.0923 160.097 56.4525 159.898C56.8164 159.702 57.124 159.404 57.3829 159.066C57.6417 158.732 57.8518 158.349 57.9644 157.929L57.9269 157.908H57.9381Z" fill="#FFA6A4"/>
<path d="M50.6335 161.21C50.5097 161.532 50.4684 161.887 50.4759 162.233C50.491 162.58 50.5397 162.935 50.6523 163.261C50.7686 163.587 50.9449 163.884 51.1362 164.157L51.7027 164.973L51.744 165.03L51.8078 164.981C52.1154 164.744 52.4606 164.565 52.7945 164.378C53.1246 164.186 53.4697 164.019 53.8111 163.86C54.1525 163.701 54.4977 163.538 54.8503 163.391C55.1992 163.236 55.5594 163.11 55.9233 162.963L55.9158 162.918C55.1355 162.898 54.3514 163.081 53.6348 163.424C53.2747 163.595 52.937 163.811 52.6106 164.043C52.2842 164.28 51.9954 164.565 51.7102 164.859L51.8153 164.867C51.6052 164.626 51.4139 164.361 51.2938 164.056C51.1587 163.758 51.0912 163.436 50.9974 163.13C50.8173 162.519 50.701 161.891 50.6748 161.214L50.6335 161.206V161.21Z" fill="#FFA6A4"/>
<path d="M44.8973 186.293H53.5485C54.3513 186.293 55.0341 185.539 55.1542 184.519L56.5235 172.959C56.6736 171.695 55.912 170.554 54.9178 170.554H43.5279C42.5338 170.554 41.7722 171.695 41.9222 172.959L43.2916 184.519C43.4116 185.539 44.0944 186.293 44.8973 186.293Z" fill="#504984"/>
<path d="M43.5279 170.549H49.3504C48.3563 170.549 47.5947 171.69 47.7448 172.954L49.1141 184.515C49.2341 185.534 49.9169 186.288 50.7198 186.288H44.8973C44.0944 186.288 43.4116 185.534 43.2916 184.515L41.9222 172.954C41.7722 171.69 42.5338 170.549 43.5279 170.549Z" fill="#372D5B"/>
<path d="M122.383 183.117H86.2062C85.8423 183.117 85.5459 183.439 85.5459 183.835V185.575C85.5459 185.971 85.8423 186.293 86.2062 186.293H122.383V183.117Z" fill="#282142"/>
<path d="M131.691 185.306V186.015C131.691 186.17 131.579 186.292 131.436 186.292H122.324C122.038 186.292 121.81 186.044 121.81 185.734V183.671C121.81 183.337 122.076 183.08 122.38 183.117L131.462 185.033C131.59 185.049 131.688 185.167 131.688 185.31L131.691 185.306Z" fill="#504984"/>
<path d="M59.1572 116.305H126.773C128.142 116.305 129.361 117.238 129.826 118.636L144.615 163.257C145.234 165.56 143.685 167.284 141.194 167.574C140.811 167.618 138.995 166.73 136.144 165.274H75.698C74.3287 165.274 73.1094 164.341 72.6442 162.943L59.2847 122.635C57.0262 121.355 55.7394 120.621 55.7394 120.621C55.7394 120.621 54.9028 116.305 59.1609 116.305H59.1572Z" fill="#504984"/>
<path d="M124.657 118.604H57.0415C56.0811 118.604 55.4133 119.639 55.7359 120.621L70.5248 165.242C70.99 166.64 72.2093 167.574 73.5786 167.574H141.194C142.154 167.574 142.822 166.538 142.5 165.556L127.711 120.935C127.245 119.537 126.026 118.604 124.657 118.604Z" fill="#372D5B"/>
<path d="M109.392 167.573L106.391 155.479L95.0156 167.573H109.392Z" fill="#282142"/>
<path d="M92.9293 134.273C93.2257 136.267 94.415 137.074 95.8368 137.074C97.2587 137.074 98.3279 135.798 98.0803 134.273C97.8327 132.753 96.5947 131.473 95.1728 131.473C93.7509 131.473 92.7005 132.745 92.9293 134.273Z" fill="#504984"/>
<path d="M124.705 160.146L123.835 157.525H124.93L125.797 160.146H124.705Z" fill="#282142"/>
<path d="M122.406 160.146L121.536 157.525H122.627L123.498 160.146H122.406Z" fill="#282142"/>
<path d="M120.102 160.146L119.232 157.525H120.327L121.194 160.146H120.102Z" fill="#282142"/>
<path d="M117.802 160.146L116.932 157.525H118.024L118.894 160.146H117.802Z" fill="#282142"/>
<path d="M85.1111 160.146L84.2407 157.525H85.3362L86.2066 160.146H85.1111Z" fill="#282142"/>
<path d="M82.8113 160.146L81.9409 157.525H83.0326L83.903 160.146H82.8113Z" fill="#282142"/>
<path d="M80.5077 160.146L79.6411 157.525H80.7328L81.6032 160.146H80.5077Z" fill="#282142"/>
<path d="M78.2083 160.146L77.3379 157.525H78.4296L79.3 160.146H78.2083Z" fill="#282142"/>
<path d="M86.559 181.979C87.2268 179.896 95.319 151.528 95.319 151.528H105.703L106.39 155.478C106.39 155.478 99.427 179.896 98.7592 181.979C98.7067 182.138 98.6617 182.297 98.6129 182.456C98.0014 184.494 99.6108 184.486 101.427 184.486H119.742V186.292H89.2264C85.5573 186.292 85.8912 184.066 86.559 181.979Z" fill="#372D5B"/>
<path d="M105.704 151.524C105.704 151.524 97.6116 179.892 96.9438 181.975C96.276 184.058 95.9421 186.288 99.6112 186.288H87.4109C83.7419 186.288 84.0757 184.062 84.7435 181.975C85.4113 179.888 93.5036 151.524 93.5036 151.524H105.704Z" fill="#504984"/>
<path d="M103.16 151.525C102.357 151.484 101.551 151.464 100.748 151.435C99.945 151.407 99.1384 151.399 98.3355 151.378C97.5327 151.366 96.7261 151.338 95.9232 151.338L93.511 151.321H93.3759L93.3346 151.464C92.997 152.605 92.6668 153.751 92.3517 154.9L91.3875 158.345C90.7685 160.648 90.1495 162.951 89.583 165.271C90.3258 163.008 91.0161 160.73 91.7064 158.451L92.7081 155.023C93.0457 153.881 93.3684 152.736 93.6873 151.586L93.511 151.729L95.9232 151.713C96.7261 151.713 97.5327 151.688 98.3355 151.672C99.1384 151.651 99.945 151.647 100.748 151.615C101.551 151.586 102.357 151.566 103.16 151.525Z" fill="#7F74D1"/>
<path d="M32.4046 193.255H211.484C213.255 193.255 214.688 191.697 214.688 189.773C214.688 187.849 213.255 186.292 211.484 186.292H32.4046C30.6338 186.292 29.2007 187.849 29.2007 189.773C29.2007 191.697 30.6338 193.255 32.4046 193.255Z" fill="#8E5058"/>
<path d="M32.4046 193.255H211.484C213.255 193.255 214.688 191.698 214.688 189.774H29.2007C29.2007 191.698 30.6338 193.255 32.4046 193.255Z" fill="#64364A"/>
<path d="M69.5328 82.7439C72.9246 66.9934 63.9234 51.2375 49.4279 47.552C34.9324 43.8665 20.4319 53.647 17.04 69.3974C13.6481 85.1478 22.6493 100.904 37.1448 104.589C51.6403 108.275 66.1409 98.4943 69.5328 82.7439Z" fill="#5470D3"/>
<mask id="mask0_7_18622" style="mask-type:luminance" maskUnits="userSpaceOnUse" x="16" y="41" width="55" height="65">
<path d="M70.2437 76.0742C70.2437 92.2494 58.1748 105.363 43.2884 105.363C28.402 105.363 16.333 92.2494 16.333 76.0742C16.333 59.899 28.402 41.0986 43.2884 41.0986C58.1748 41.0986 70.2437 59.899 70.2437 76.0742Z" fill="white"/>
</mask>
<g mask="url(#mask0_7_18622)">
<path d="M81.1909 99.4485C81.7011 102.245 79.3226 104.727 78.576 105.192C77.8295 105.657 72.8286 107.83 69.8198 107.907C66.8147 107.985 62.8493 101.075 64.47 100.3C66.0944 99.526 77.1542 98.6699 78.366 98.6699C79.5777 98.6699 81.1872 99.4444 81.1872 99.4444L81.1909 99.4485Z" fill="#FFC5C7"/>
<path d="M73.3087 97.9724C71.9957 106.358 68.8818 112.876 67.9102 112.994C66.9385 113.112 57.597 109.619 55.0234 108.335C52.4498 107.055 55.815 87.3778 57.4169 87.7243C59.0188 88.0708 62.5341 91.8496 65.4341 93.6636C68.3341 95.4776 73.3125 97.9724 73.3125 97.9724H73.3087Z" fill="white"/>
<path d="M57.9269 101.458C58.8273 103.137 66.248 107.389 70.3372 108.938C69.3281 111.413 68.3752 112.937 67.91 112.994C67.0771 113.092 60.1103 110.548 56.5088 109.008C56.8089 105.893 57.9231 101.458 57.9231 101.458H57.9269Z" fill="#DCEDFF"/>
<path d="M81.2023 99.0608C81.2773 102.387 78.5199 102.864 75.2185 102.012C71.917 101.16 66.5297 93.0847 64.1287 89.4364C61.7314 85.788 57.252 79.2861 56.3291 78.7032C55.4024 78.1203 53.2827 77.8105 51.4632 74.533C49.6474 71.2515 52.0372 64.3828 52.8926 63.5675C53.7517 62.7522 61.1049 65.4752 61.9602 66.849C62.8156 68.2227 61.3562 75.6173 61.6151 76.5508C61.874 77.4803 68.1354 85.0909 70.8666 86.9538C73.5978 88.8167 81.146 96.6557 81.1985 99.0648L81.2023 99.0608Z" fill="#FFC5C7"/>
<path d="M56.6627 69.0543C55.7961 68.5896 55.5897 66.474 56.1337 66.8449C56.6777 67.2159 57.6306 67.2077 58.9174 67.1914C60.2042 67.171 60.7332 67.0528 60.7332 67.0528C60.7332 67.0528 60.8645 67.97 60.857 68.7201C60.857 68.7201 57.5256 69.5231 56.6627 69.0543Z" fill="#FE8A8B"/>
<path d="M50.938 69.5358C51.4632 68.4759 51.8684 67.6729 51.8684 67.6729L56.9293 72.964C58.3137 71.6596 60.0056 70.4693 60.0056 70.4693L60.4521 71.3335C59.6342 72.8377 58.9214 76.0213 58.9027 76.7958C58.9027 76.7958 58.1261 77.7293 57.6909 77.8068C57.6909 77.8068 63.1045 87.1214 66.5822 91.7033C70.0412 96.2566 72.4122 100.194 74.0404 101.458C70.7503 99.3954 66.2633 92.6775 64.1324 89.4327C61.7351 85.7843 57.2557 79.2825 56.3328 78.6995C55.4062 78.1166 53.2865 77.8068 51.467 74.5294C50.7467 73.229 50.6941 71.362 50.938 69.5358Z" fill="#FE8A8B"/>
<path d="M61.4686 70.0653C61.4085 70.6074 56.3814 75.3442 55.8524 75.8864C55.8149 75.9272 55.421 75.9883 55.3122 75.8864C53.9766 74.6105 48.1353 63.0906 48.034 62.6748C47.9365 62.2875 51.8119 58.3252 52.9974 57.2654C53.1587 57.1227 53.8228 57.2083 53.9316 57.3836C55.1246 59.3036 61.5511 69.3641 61.4723 70.0653H61.4686Z" fill="#0C0835"/>
<path d="M60.9248 70.0653C60.8648 70.6075 55.8376 75.3442 55.3086 75.8864C54.7834 76.4286 47.6028 63.1232 47.4865 62.6748C47.3889 62.2875 51.7033 58.3905 52.8888 57.3265C53.0501 57.1839 53.2752 57.2042 53.384 57.3795C54.577 59.2995 61.0036 69.3601 60.9248 70.0612V70.0653Z" fill="#252384"/>
<path d="M60.0806 69.2872C60.0244 69.7967 55.3198 74.2237 54.8284 74.7333C54.3369 75.2428 47.6178 62.7935 47.5127 62.3736C47.4227 62.0108 51.4594 58.3624 52.5661 57.3718C52.7162 57.2373 52.9263 57.2577 53.0276 57.4208C54.1456 59.2185 60.1557 68.6309 60.0806 69.2872Z" fill="#57AFF7"/>
<path d="M57.0646 62.7973C56.288 62.2878 55.3314 60.5594 55.2451 59.9765C55.1588 59.3935 55.2113 58.8717 55.6315 58.7535C56.0517 58.6353 57.3385 60.4615 57.98 61.0037C58.6216 61.5459 59.4056 62.671 59.0868 63.4292C58.7679 64.1874 57.3422 63.8939 57.1884 63.7797C57.0346 63.6615 57.0684 62.7973 57.0684 62.7973H57.0646Z" fill="#FFC5C7"/>
<path d="M55.3873 58.9082C55.1397 59.5686 56.7491 62.2264 58.1597 62.9927L57.6345 63.645C57.6345 63.645 57.3981 63.5879 57.0905 63.5104C57.0492 63.2169 57.0642 62.8011 57.0642 62.8011C56.2876 62.2916 55.331 60.5632 55.2447 59.9803C55.1809 59.54 55.1959 59.1324 55.391 58.9122L55.3873 58.9082Z" fill="#FE8A8B"/>
<path d="M58.8762 65.4789C57.5369 64.7003 56.4864 64.7899 55.7586 64.4679C55.0308 64.1459 54.8958 62.927 55.3947 62.7232C55.8899 62.5194 58.91 63.0452 59.6866 63.4203C60.4632 63.7994 60.8383 65.54 60.8383 65.54L58.88 65.4748L58.8762 65.4789Z" fill="#FFC5C7"/>
<path d="M58.2873 64.5699C59.0451 64.7248 59.3039 64.5699 59.3039 64.5699C59.2814 64.8919 59.5628 65.0509 59.8779 65.5074L58.8725 65.4748C57.5332 64.6962 56.4827 64.7859 55.7549 64.4639C55.421 64.3171 55.2222 63.9829 55.1396 63.6445C55.4623 64.3131 57.5332 64.4109 58.2873 64.5658V64.5699Z" fill="#FE8A8B"/>
<path d="M61.9639 66.8486C61.2473 67.9247 57.7433 67.456 57.038 67.3418C56.3327 67.2236 55.8863 66.7426 55.9613 66.2534C56.1076 65.2669 60.7371 65.4422 61.1198 65.5971C61.5025 65.752 61.9639 66.8526 61.9639 66.8526V66.8486Z" fill="#FFC5C7"/>
<path d="M55.9837 66.4862C56.4639 67.0039 57.6119 67.2974 58.8687 67.4075C59.9567 67.5012 60.5832 67.4564 60.7258 67.4442C59.4052 67.6724 57.5294 67.4197 57.0342 67.3382C56.4452 67.2403 56.0588 66.8857 55.98 66.4862H55.9837Z" fill="#FE8A8B"/>
<path d="M45.5616 81.9032C53.0011 86.0163 54.2241 85.8573 57.4167 87.7243C60.6131 89.5913 59.6602 109.227 59.4576 112.256C59.255 115.285 58.486 127.314 58.9099 130.575C59.3338 133.837 60.9883 145.944 61.7199 147.806C62.4514 149.669 63.8508 152.812 61.6898 154.675C59.5289 156.538 54.9557 157.818 45.0327 157.121C35.1059 156.424 24.4063 149.783 23.9336 148.854C23.4609 147.921 28.6794 130.808 28.897 127.547C29.1146 124.286 29.7073 121.84 30.0225 120.327C30.3376 118.815 27.1787 111.71 26.676 107.169C26.1733 102.628 21.6301 90.1008 22.493 87.8058C23.3521 85.5108 31.2605 82.9549 36.6478 80.0362C42.0314 77.1175 45.5654 81.9032 45.5654 81.9032H45.5616Z" fill="white"/>
<path d="M52.9373 86.9941C51.7105 91.3681 49.2194 95.31 45.8993 98.1227C41.87 97.0506 37.7733 95.1184 34.4756 92.3872C38.1634 95.3385 42.1852 97.8211 46.4883 99.5169C50.1236 96.2802 52.2808 92.053 52.9373 86.9941Z" fill="#DCEDFF"/>
<path d="M51.4183 84.9157C49.9889 84.2553 48.1544 83.3381 45.562 81.9073C45.562 81.9073 42.0318 77.1256 36.6444 80.0403C34.7761 81.0512 32.6039 82.0214 30.5293 82.9508C33.7369 88.882 38.9367 93.5209 44.9355 95.7263C48.0981 93.0196 50.3753 89.1388 51.4183 84.9157Z" fill="#FFC5C7"/>
<path d="M23.9297 148.855C23.457 147.921 28.6755 130.808 28.8931 127.547C29.1107 124.286 29.7034 121.84 30.0185 120.328C30.3337 118.816 27.1748 111.71 26.6721 107.169C26.5858 106.378 26.372 105.347 26.0906 104.169L29.4445 101.454C31.4104 107.418 32.6372 117.894 34.5017 120.458C36.3663 123.018 41.0108 124.066 41.0108 124.066C41.0108 124.066 36.4226 125.232 34.4229 124.763C34.4229 124.763 32.2883 133.963 32.262 138.5C32.2395 143.042 32.6259 149.91 32.6747 150.844C32.6934 151.19 32.6222 152.405 32.5284 153.787C27.7226 151.72 24.1923 149.376 23.9259 148.85L23.9297 148.855Z" fill="#DCEDFF"/>
<path d="M37.4883 71.7695C37.4133 76.6286 37.1169 79.9672 36.1265 80.8966C36.1265 80.8966 37.8297 88.9597 44.6351 88.2708C46.9386 88.0385 46.7173 83.8479 45.5618 81.9076L46.2483 75.9478L37.4921 71.7695H37.4883Z" fill="#FFC5C7"/>
<path d="M36.6445 80.0406C37.226 78.5486 37.4286 75.6462 37.4886 71.7695L46.2449 75.9478L45.806 79.7715C44.2528 80.5297 36.6445 80.0446 36.6445 80.0446V80.0406Z" fill="#FE8A8B"/>
<path d="M27.6666 107.67C29.715 103.292 30.5366 96.1869 28.6871 92.4448C26.8375 88.7026 23.3485 87.3574 22.4931 87.8058C21.6378 88.2542 19.3193 94.0917 17.1396 96.7821C14.9636 99.4766 9.01734 107.03 8.83726 107.666C8.65718 108.302 13.1329 113.434 21.5552 117.205C22.5569 117.653 27.6666 107.666 27.6666 107.666V107.67Z" fill="white"/>
<path d="M21.4204 111.066L20.0773 114.058C20.0773 114.058 26.6952 106.851 29.4414 101.47C29.1075 103.712 28.4884 105.913 27.6668 107.67C27.6668 107.67 22.5571 117.657 21.5555 117.209C20.1148 116.565 18.798 115.88 17.5938 115.183L21.4241 111.066H21.4204Z" fill="#DCEDFF"/>
<path d="M46.7513 72.2013C46.2973 70.1998 46.3048 68.1494 46.196 66.103C46.1135 64.5703 46.0422 63.168 44.7629 62.2549C43.8287 61.5864 42.6545 61.4559 41.5553 61.6068C38.599 62.0144 37.965 65.1451 38.1901 68.1086C38.3626 70.3792 39.1805 72.556 39.9871 74.6431C38.8991 74.5901 37.4135 73.9705 36.7645 72.9881C37.0571 74.2803 37.6086 75.4706 38.4714 76.3837C35.3201 76.3267 32.3976 74.0846 30.7281 71.0762C29.0586 68.0679 28.5297 64.395 28.7097 60.8526C28.9198 56.6498 30.1278 52.4389 32.5176 49.2022C37.3272 42.6963 46.5974 41.9381 52.2436 47.5268C54.1832 49.4509 55.5901 52.0272 56.2954 54.8195C57.222 58.4924 57.2033 62.4343 56.4792 66.1519C56.1791 67.6887 56.044 69.0217 55.9014 70.5626C55.8564 71.0396 55.3237 76.5875 55.6313 76.5672C53.6392 76.6976 51.3545 76.2614 50.0077 74.6105C50.6117 75.7437 51.1331 76.8403 51.7372 77.9735C49.2236 77.521 47.3778 74.9733 46.7475 72.2013H46.7513Z" fill="#372D5B"/>
<path d="M36.423 64.6437C35.5339 64.073 34.4647 63.7632 33.6393 64.6722C32.4238 66.0093 34.1495 72.2421 36.7681 70.7257C36.7681 70.7257 40.561 76.4897 43.3447 78.1203C46.1284 79.7509 48.113 78.9356 49.156 77.7697C50.1989 76.6039 53.7555 71.8304 54.3932 66.7675C54.6221 64.9616 54.3782 61.4111 54.427 60.6529C54.5846 58.3253 55.3949 56.4134 53.7029 54.5831C51.996 52.7365 49.6287 51.6196 47.2239 51.5258C44.1926 51.4117 41.1613 52.8914 39.1504 55.3617C36.9332 58.0929 36.5468 61.1787 36.4192 64.6396L36.423 64.6437Z" fill="#FFC5C7"/>
<path d="M34.0708 66.3761C34.2959 65.2347 35.1925 65.0105 35.8603 65.8054C36.5431 66.6207 36.6594 69.2011 36.4831 69.5843C36.3068 69.9634 35.1325 69.9389 34.9112 69.1481C34.6898 68.3613 35.3726 67.864 36.0329 68.1005C36.0329 68.1005 36.2167 66.9509 35.6765 66.209C35.1363 65.4671 34.5773 65.7524 34.4385 65.944C34.2997 66.1356 34.0708 66.3802 34.0708 66.3802V66.3761Z" fill="#FE8A8B"/>
<path d="M41.3223 61.3255C41.5774 61.0687 41.8437 60.8322 42.1289 60.604C42.414 60.3798 42.7141 60.18 43.0368 60.017C43.3556 59.8539 43.6895 59.6786 44.0422 59.6501C44.3911 59.6175 44.7437 59.6501 45.0664 59.7968V59.8498C44.8901 59.9232 44.7287 59.9721 44.5674 60.021L44.0947 60.1637C43.7871 60.2615 43.4682 60.2901 43.1568 60.4042C42.8492 60.5143 42.5415 60.661 42.2414 60.8241C41.9375 60.9831 41.6449 61.1747 41.3485 61.3662L41.3223 61.3255Z" fill="#3F1751"/>
<path d="M53.174 60.021C52.8851 59.8539 52.5813 59.7357 52.2661 59.6623C51.951 59.5849 51.6321 59.5482 51.3095 59.54C50.9868 59.5319 50.6642 59.6052 50.3415 59.6012C50.0189 59.6012 49.6925 59.6134 49.3399 59.5726L49.3286 59.5237C49.6325 59.2832 49.9776 59.1568 50.3265 59.0835C50.6792 59.006 51.0281 59.0712 51.3695 59.1242C51.7109 59.1772 52.0448 59.275 52.3562 59.4136C52.6638 59.5604 52.9602 59.7398 53.204 59.9762L53.174 60.021Z" fill="#3F1751"/>
<path d="M44.5035 63.3715C44.4923 62.8783 44.2634 62.5033 43.9933 62.5318C43.7232 62.5603 43.5131 62.9843 43.5281 63.4775C43.5394 63.9708 43.7682 64.3458 44.0383 64.3173C44.3084 64.2887 44.5185 63.8648 44.5035 63.3715Z" fill="#3F1751"/>
<path d="M51.6619 62.7522C51.6507 62.259 51.4631 61.8799 51.2418 61.9043C51.0204 61.9288 50.8516 62.3446 50.8628 62.8378C50.8741 63.3311 51.0617 63.7102 51.283 63.6857C51.5044 63.6612 51.6732 63.2455 51.6619 62.7522Z" fill="#3F1751"/>
<path d="M46.7435 68.1612C47.3625 68.63 48.2779 68.6177 48.9532 68.1367C48.8744 68.5158 48.7206 68.8868 48.3792 69.0213C48.0378 69.1558 47.6626 69.1151 47.3513 68.9602C47.0399 68.8052 46.9386 68.4628 46.7397 68.1612H46.7435Z" fill="#FE8A8B"/>
<path d="M44.2598 71.0474C45.7529 71.0718 49.347 70.7743 50.5212 70.5908C50.0598 72.2377 48.848 73.8601 47.156 73.8642C45.6329 73.8642 44.6274 72.5067 44.2598 71.0474Z" fill="#C31F2A"/>
<path d="M45.6333 73.3305C46.2261 73.1308 46.8338 73.2327 47.0739 73.3142C47.0739 73.3142 47.8655 72.715 49.0135 73.1063C48.492 73.5629 47.8693 73.8645 47.1565 73.8645C46.5675 73.8645 46.061 73.6607 45.6333 73.3264V73.3305Z" fill="#FB8384"/>
<path d="M49.5082 71.9726C47.9963 72.4862 46.3419 72.3354 44.92 71.781C44.9088 71.5364 44.8938 71.2918 44.875 71.0472C46.3531 71.0146 48.7429 70.819 50.0222 70.6641C49.9134 71.1206 49.7446 71.5649 49.5082 71.9726Z" fill="white"/>
<path d="M37.9198 59.2873C40.3584 59.1731 42.7782 58.5902 45.0291 57.5711C45.4568 56.4949 45.4718 55.537 45.5356 54.367C46.1471 55.59 46.511 56.9556 46.5748 58.3456C47.9929 58.2437 49.4223 58.1622 50.8404 58.0643C51.2381 56.8414 51.2868 55.5818 51.223 54.2896C51.7033 55.5044 51.9434 57.0371 52.1084 58.3497C52.9638 58.0195 54.0518 58.5005 54.9484 58.6758C56.0589 55.9895 55.9838 51.1263 53.6391 49.0881C51.3544 47.1029 47.3814 46.5648 44.5902 47.0051C38.6476 47.9386 33.9769 53.299 34.3445 59.9803C34.5546 63.7917 36.3141 67.3952 38.8352 70.049C37.3346 66.796 37.0382 62.8011 37.9198 59.2913V59.2873Z" fill="#372D5B"/>
</g>
<path d="M112.162 82.3069C114.34 73.2033 109.313 63.9052 100.935 61.5389C92.5565 59.1727 83.9992 64.6344 81.8215 73.738C79.6438 82.8416 84.6703 92.1398 93.0486 94.506C101.427 96.8722 109.984 91.4105 112.162 82.3069Z" fill="#E67471"/>
<path d="M89.2603 84.6875H104.724C105.435 84.6875 106.011 84.0615 106.011 83.2893V72.7518C106.011 71.9796 105.435 71.3536 104.724 71.3536H89.2603C88.5496 71.3536 87.9735 71.9796 87.9735 72.7518V83.2893C87.9735 84.0615 88.5496 84.6875 89.2603 84.6875Z" fill="#DBE9FF"/>
<path d="M89.2601 84.688H104.728C105.437 84.688 106.015 84.0643 106.015 83.2897L96.9959 77.1262L87.9771 83.2897C87.9771 84.0602 88.551 84.688 89.2639 84.688H89.2601Z" fill="#CDDCF4"/>
<path d="M89.2606 71.3545H104.729C105.438 71.3545 106.015 71.9782 106.015 72.7527L96.9964 78.9162L87.9775 72.7527C87.9775 71.9823 88.5515 71.3545 89.2643 71.3545H89.2606Z" fill="#5470D3"/>
<path d="M211.657 119.141C220.091 117.019 225.344 107.87 223.391 98.7063C221.437 89.5428 213.017 83.8347 204.584 85.957C196.151 88.0793 190.897 97.2283 192.851 106.392C194.804 115.555 203.224 121.263 211.657 119.141Z" fill="#E67471"/>
<path d="M200.402 100.439L202.218 96.9903C202.751 95.9752 203.741 95.3516 204.818 95.3516H211.072C212.145 95.3516 213.135 95.9793 213.668 96.9903L215.446 100.374C215.667 100.798 216.058 101.091 216.5 101.173L217.787 101.405C219.231 101.666 220.289 103.023 220.289 104.613V105.922C220.289 106.818 219.618 107.548 218.792 107.548H198.586C197.761 107.548 197.089 106.818 197.089 105.922V103.125C197.089 102.379 197.558 101.727 198.222 101.548L199.464 101.209C199.862 101.103 200.199 100.822 200.402 100.439Z" fill="#5470D3"/>
<path d="M219.918 106.325H202.286C200.038 106.325 198.215 104.344 198.215 101.902C198.215 101.78 198.23 101.657 198.26 101.535L198.23 101.543C197.562 101.723 197.097 102.375 197.097 103.121V105.917C197.097 106.814 197.769 107.544 198.594 107.544H218.8C219.498 107.544 220.102 107.018 220.256 106.28C220.147 106.309 220.035 106.325 219.922 106.325H219.918Z" fill="#5470D3"/>
<path d="M197.094 103.122V104.292H198.215L198.591 102.665H197.154C197.116 102.812 197.094 102.967 197.094 103.122Z" fill="#B1CEDE"/>
<path d="M198.436 103.333C198.369 103.117 198.316 102.893 198.279 102.669H197.157C197.146 102.705 197.138 102.746 197.131 102.787C197.127 102.815 197.12 102.844 197.116 102.873C197.105 102.958 197.097 103.04 197.097 103.125V104.295H198.219L198.44 103.333H198.436Z" fill="#92B9CB"/>
<path d="M211.211 96.5704H208.689V100.635H214.302L212.494 97.3572C212.223 96.868 211.736 96.5663 211.211 96.5663V96.5704Z" fill="#B1CEDE"/>
<path d="M212.085 98.6005C211.953 98.6005 211.83 98.5271 211.762 98.4048L211.529 97.9849C211.424 97.7933 211.481 97.5447 211.657 97.4264C211.833 97.3123 212.062 97.3735 212.171 97.565L212.404 97.9849C212.509 98.1765 212.452 98.4252 212.276 98.5434C212.22 98.5801 212.152 98.6005 212.085 98.6005Z" fill="white"/>
<path d="M209.815 97.7893V96.5704H208.693V100.635H214.305L213.63 99.4157H211.312C210.486 99.4157 209.815 98.6861 209.815 97.7893Z" fill="#92B9CB"/>
<path d="M201.58 100.635H207.192V96.5704H204.671C204.146 96.5704 203.658 96.8721 203.388 97.3612L201.58 100.639V100.635Z" fill="#B1CEDE"/>
<path d="M204.814 96.9536L205.024 96.5704H204.675C204.15 96.5704 203.662 96.8721 203.392 97.3612L201.584 100.639H207.196V99.4198H206.097C205.272 99.4198 204.6 98.6901 204.6 97.7933C204.6 97.4998 204.675 97.2104 204.814 96.9577V96.9536Z" fill="#92B9CB"/>
<path d="M218.046 102.669C218.046 103.566 218.714 104.295 219.539 104.295H220.271C220.218 103.704 220.019 103.142 219.686 102.669H218.039H218.046Z" fill="#B1CEDE"/>
<path d="M216.549 107.141C216.556 105.795 215.558 104.695 214.317 104.687C213.079 104.678 212.066 105.763 212.058 107.112C212.058 107.259 212.069 107.401 212.092 107.548H216.515C216.538 107.414 216.549 107.279 216.549 107.141Z" fill="#5470D3"/>
<path d="M215.052 109.17C216.291 109.17 217.296 108.079 217.296 106.733C217.296 105.386 216.291 104.295 215.052 104.295C213.813 104.295 212.809 105.386 212.809 106.733C212.809 108.079 213.813 109.17 215.052 109.17Z" fill="#7C8188"/>
<path d="M215.052 107.544C215.465 107.544 215.799 107.181 215.799 106.733C215.799 106.285 215.465 105.922 215.052 105.922C214.64 105.922 214.306 106.285 214.306 106.733C214.306 107.181 214.64 107.544 215.052 107.544Z" fill="#B1CEDE"/>
<path d="M202.33 109.17C203.569 109.17 204.574 108.079 204.574 106.733C204.574 105.386 203.569 104.295 202.33 104.295C201.091 104.295 200.087 105.386 200.087 106.733C200.087 108.079 201.091 109.17 202.33 109.17Z" fill="#7C8188"/>
<path d="M203.452 107.952C202.214 107.952 201.209 106.864 201.209 105.519C201.209 105.172 201.276 104.826 201.408 104.512C200.279 105.062 199.772 106.509 200.279 107.736C200.785 108.963 202.117 109.513 203.246 108.963C203.749 108.719 204.15 108.282 204.375 107.736C204.086 107.879 203.771 107.952 203.452 107.952Z" fill="#616971"/>
<path d="M216.125 107.952C214.887 107.952 213.882 106.864 213.878 105.519C213.878 105.172 213.945 104.826 214.077 104.512C212.947 105.062 212.441 106.509 212.947 107.736C213.454 108.963 214.786 109.513 215.915 108.963C216.418 108.719 216.819 108.282 217.044 107.736C216.755 107.879 216.44 107.952 216.121 107.952H216.125Z" fill="#616971"/>
<path d="M202.331 107.544C202.743 107.544 203.077 107.181 203.077 106.733C203.077 106.285 202.743 105.922 202.331 105.922C201.918 105.922 201.584 106.285 201.584 106.733C201.584 107.181 201.918 107.544 202.331 107.544Z" fill="#B1CEDE"/>
<path d="M209.44 101.445H208.693C208.487 101.445 208.318 101.629 208.318 101.853C208.318 102.077 208.487 102.261 208.693 102.261H209.44C209.646 102.261 209.815 102.077 209.815 101.853C209.815 101.629 209.646 101.445 209.44 101.445Z" fill="#7C8188"/>
<path d="M202.331 101.445H201.584C201.378 101.445 201.209 101.629 201.209 101.853C201.209 102.077 201.378 102.261 201.584 102.261H202.331C202.537 102.261 202.706 102.077 202.706 101.853C202.706 101.629 202.537 101.445 202.331 101.445Z" fill="#7C8188"/>
<path d="M143.255 70.0827C151.287 66.5728 155.179 56.6531 151.949 47.9264C148.718 39.1997 139.589 34.9706 131.558 38.4805C123.526 41.9904 119.634 51.9101 122.864 60.6368C126.095 69.3635 135.224 73.5925 143.255 70.0827Z" fill="#E67471"/>
<path d="M145.189 63.0422H129.631C128.948 63.0422 128.393 62.4389 128.393 61.697V47.6334C128.393 46.8915 128.948 46.2882 129.631 46.2882H145.189C145.872 46.2882 146.427 46.8915 146.427 47.6334V61.6929C146.427 62.4349 145.872 63.0382 145.189 63.0382V63.0422Z" fill="white"/>
<path d="M128.39 49.7898H146.427V47.6293C146.427 46.8874 145.872 46.2841 145.189 46.2841H129.631C128.949 46.2841 128.393 46.8874 128.393 47.6293V49.7898H128.39Z" fill="#5470D3"/>
<path d="M142.117 47.0301C142.319 47.0301 142.481 46.8507 142.481 46.6306V45.9295C142.481 45.7093 142.316 45.5341 142.117 45.5341C141.914 45.5341 141.753 45.7134 141.753 45.9295V46.6306C141.753 46.8507 141.918 47.0301 142.117 47.0301Z" fill="white"/>
<path d="M143.164 47.0301C143.366 47.0301 143.528 46.8507 143.528 46.6306V45.9295C143.528 45.7093 143.363 45.5341 143.164 45.5341C142.961 45.5341 142.8 45.7134 142.8 45.9295V46.6306C142.8 46.8507 142.965 47.0301 143.164 47.0301Z" fill="white"/>
<path d="M131.653 47.0301C131.856 47.0301 132.017 46.8507 132.017 46.6306V45.9295C132.017 45.7093 131.852 45.5341 131.653 45.5341C131.451 45.5341 131.29 45.7134 131.29 45.9295V46.6306C131.29 46.8507 131.455 47.0301 131.653 47.0301Z" fill="white"/>
<path d="M132.696 47.0301C132.899 47.0301 133.06 46.8507 133.06 46.6306V45.9295C133.06 45.7093 132.895 45.5341 132.696 45.5341C132.494 45.5341 132.333 45.7134 132.333 45.9295V46.6306C132.333 46.8507 132.498 47.0301 132.696 47.0301Z" fill="white"/>
<path d="M139.517 51.8729H138.545C138.382 51.8729 138.249 52.017 138.249 52.1949V53.2507C138.249 53.4285 138.382 53.5727 138.545 53.5727H139.517C139.681 53.5727 139.813 53.4285 139.813 53.2507V52.1949C139.813 52.017 139.681 51.8729 139.517 51.8729Z" fill="#DBE9FF"/>
<path d="M135.799 51.8729H134.828C134.664 51.8729 134.531 52.017 134.531 52.1949V53.2507C134.531 53.4285 134.664 53.5727 134.828 53.5727H135.799C135.963 53.5727 136.096 53.4285 136.096 53.2507V52.1949C136.096 52.017 135.963 51.8729 135.799 51.8729Z" fill="#DBE9FF"/>
<path d="M132.081 51.8729H131.109C130.946 51.8729 130.813 52.017 130.813 52.1949V53.2507C130.813 53.4285 130.946 53.5727 131.109 53.5727H132.081C132.245 53.5727 132.377 53.4285 132.377 53.2507V52.1949C132.377 52.017 132.245 51.8729 132.081 51.8729Z" fill="#DBE9FF"/>
<path d="M143.231 55.3545H142.263C142.099 55.3545 141.967 55.4987 141.967 55.6765V56.7323C141.967 56.9102 142.099 57.0544 142.263 57.0544H143.231C143.395 57.0544 143.527 56.9102 143.527 56.7323V55.6765C143.527 55.4987 143.395 55.3545 143.231 55.3545Z" fill="#DBE9FF"/>
<path d="M139.517 55.3545H138.545C138.382 55.3545 138.249 55.4987 138.249 55.6765V56.7323C138.249 56.9102 138.382 57.0544 138.545 57.0544H139.517C139.681 57.0544 139.813 56.9102 139.813 56.7323V55.6765C139.813 55.4987 139.681 55.3545 139.517 55.3545Z" fill="#DBE9FF"/>
<path d="M135.799 55.3545H134.828C134.664 55.3545 134.531 55.4987 134.531 55.6765V56.7323C134.531 56.9102 134.664 57.0544 134.828 57.0544H135.799C135.963 57.0544 136.096 56.9102 136.096 56.7323V55.6765C136.096 55.4987 135.963 55.3545 135.799 55.3545Z" fill="#DBE9FF"/>
<path d="M132.082 55.3545H131.11C130.946 55.3545 130.813 55.4987 130.813 55.6765V56.7323C130.813 56.9102 130.946 57.0544 131.11 57.0544H132.082C132.245 57.0544 132.378 56.9102 132.378 56.7323V55.6765C132.378 55.4987 132.245 55.3545 132.082 55.3545Z" fill="#DBE9FF"/>
<path d="M143.231 58.8311H142.263C142.099 58.8311 141.967 58.9752 141.967 59.1531V60.2089C141.967 60.3867 142.099 60.5309 142.263 60.5309H143.231C143.395 60.5309 143.527 60.3867 143.527 60.2089V59.1531C143.527 58.9752 143.395 58.8311 143.231 58.8311Z" fill="#DBE9FF"/>
<path d="M139.517 58.8311H138.545C138.382 58.8311 138.249 58.9752 138.249 59.1531V60.2089C138.249 60.3867 138.382 60.5309 138.545 60.5309H139.517C139.681 60.5309 139.813 60.3867 139.813 60.2089V59.1531C139.813 58.9752 139.681 58.8311 139.517 58.8311Z" fill="#DBE9FF"/>
<path d="M135.799 58.8311H134.828C134.664 58.8311 134.531 58.9752 134.531 59.1531V60.2089C134.531 60.3867 134.664 60.5309 134.828 60.5309H135.799C135.963 60.5309 136.096 60.3867 136.096 60.2089V59.1531C136.096 58.9752 135.963 58.8311 135.799 58.8311Z" fill="#DBE9FF"/>
<path d="M193.367 75.084C199.488 68.4329 199.488 57.6493 193.367 50.9982C187.246 44.3471 177.322 44.3471 171.201 50.9982C165.079 57.6493 165.079 68.4329 171.201 75.084C177.322 81.7351 187.246 81.7351 193.367 75.084Z" fill="#E67471"/>
<path d="M189.876 71.2907C194.069 66.7346 194.069 59.3476 189.876 54.7915C185.683 50.2354 178.885 50.2354 174.691 54.7915C170.498 59.3476 170.498 66.7346 174.691 71.2907C178.885 75.8468 185.683 75.8468 189.876 71.2907Z" fill="white"/>
<path d="M182.282 51.376C176.35 51.376 171.544 56.5979 171.544 63.0427C171.544 69.4874 176.35 74.7093 182.282 74.7093C188.213 74.7093 193.019 69.4874 193.019 63.0427C193.019 56.5979 188.213 51.376 182.282 51.376ZM183.182 72.9809V71.3871C183.182 71.0895 182.961 70.849 182.687 70.849H181.873C181.599 70.849 181.377 71.0895 181.377 71.3871V72.9809C177.022 72.5203 173.555 68.7537 173.131 64.021H174.598C174.872 64.021 175.093 63.7805 175.093 63.4829V62.5983C175.093 62.3007 174.872 62.0602 174.598 62.0602H173.131C173.555 57.3275 177.022 53.5609 181.377 53.1003V54.6942C181.377 54.9917 181.599 55.2323 181.873 55.2323H182.687C182.961 55.2323 183.182 54.9917 183.182 54.6942V53.1003C187.538 53.5609 191.004 57.3275 191.428 62.0602H189.961C189.687 62.0602 189.466 62.3007 189.466 62.5983V63.4829C189.466 63.7805 189.687 64.021 189.961 64.021H191.428C191.004 68.7537 187.538 72.5203 183.182 72.9809Z" fill="#5470D3"/>
<path d="M177.88 72.9307V72.1636L180.761 69.0102C181.099 68.6409 181.378 68.3199 181.596 68.0471C181.815 67.7716 181.977 67.5131 182.082 67.2716C182.19 67.0273 182.244 66.7716 182.244 66.5045C182.244 66.1977 182.17 65.9321 182.023 65.7077C181.878 65.4832 181.679 65.3099 181.426 65.1878C181.173 65.0656 180.889 65.0045 180.574 65.0045C180.238 65.0045 179.946 65.0741 179.696 65.2133C179.449 65.3497 179.257 65.5415 179.121 65.7886C178.987 66.0358 178.92 66.3256 178.92 66.6579H177.915C177.915 66.1466 178.032 65.6977 178.268 65.3113C178.504 64.925 178.825 64.6238 179.231 64.4079C179.64 64.192 180.099 64.0841 180.608 64.0841C181.119 64.0841 181.572 64.192 181.967 64.4079C182.362 64.6238 182.672 64.915 182.896 65.2815C183.121 65.648 183.233 66.0557 183.233 66.5045C183.233 66.8256 183.174 67.1395 183.058 67.4463C182.944 67.7503 182.746 68.0898 182.461 68.4648C182.18 68.8369 181.79 69.2915 181.29 69.8284L179.329 71.925V71.9932H183.386V72.9307H177.88ZM177.676 86.1409V85.2716L181.511 79.2034H182.142V80.55H181.716L178.818 85.1352V85.2034H183.983V86.1409H177.676ZM181.784 87.9307V85.8767V85.4719V79.2034H182.79V87.9307H181.784ZM180.983 93.7943L178.17 104.243H177.25L180.062 93.7943H180.983ZM178.153 117.931L182.057 110.209V110.141H177.557V109.203H183.148V110.192L179.261 117.931H178.153Z" fill="#D1C8D9"/>
</g>
<defs>
<clipPath id="clip0_7_18622">
<rect width="230.556" height="156" fill="white" transform="translate(0.722168 37.2549)"/>
</clipPath>
</defs>
</svg>
