<svg width="301" height="40" viewBox="0 0 301 40" fill="none" xmlns="http://www.w3.org/2000/svg">
<mask id="path-1-inside-1_0_270" fill="white">
<path d="M29.7376 4.04086L26.0976 13.5609C24.4736 12.4409 21.5056 10.7609 18.4816 10.7609C17.7536 10.7609 16.6336 10.8729 15.9056 11.4329C15.4016 11.8249 15.2336 12.2169 15.2336 12.7769C15.2336 13.5609 15.3456 14.2889 17.4176 14.7369L21.7296 15.6889C25.0336 16.4169 26.9936 17.7609 28.1136 18.8809C30.4656 21.1769 30.9696 24.0329 30.9696 26.2729C30.9696 29.4649 30.1296 32.4329 27.6096 35.0649C25.4816 37.2489 21.4496 39.8249 14.4496 39.8249C8.73759 39.8249 4.92959 38.2009 1.73759 36.9129L0.505594 36.4089L4.59359 25.8809L6.04959 27.0009C7.44959 28.0649 10.3056 29.7449 13.6096 29.7449C15.4576 29.7449 16.2416 29.2969 16.5216 29.0729C17.1376 28.5689 17.2496 27.9529 17.2496 27.3929C17.2496 27.0569 17.1936 26.4969 16.8016 26.1049C16.3536 25.6569 15.6256 25.4889 14.2256 25.2089L10.9216 24.5929C8.79359 24.2009 6.49759 23.5289 4.42559 21.4009C2.52159 19.4409 1.73759 17.2009 1.73759 14.5129C1.73759 11.0409 2.91359 8.07286 5.37759 5.60886C8.23359 2.69686 12.4336 0.792861 18.3696 0.792861C21.3376 0.792861 25.2016 1.29686 29.7376 4.04086ZM62.3388 38.9849H36.8028V1.63286H62.0028V11.8809H50.3548V15.3529H60.9388V25.1529H50.3548V28.7369H62.3388V38.9849ZM90.0347 34.3369H79.7307L78.7227 38.9849H64.3867L77.3227 1.63286H92.3307L105.659 38.9849H91.2667L90.0347 34.3369ZM85.9467 18.3209C85.6107 16.8649 85.3867 15.4649 85.2187 14.1209H84.7147C84.6587 15.6889 84.4347 16.9769 84.0987 18.3209L82.2507 25.4889H87.6827L85.9467 18.3209ZM136.98 4.04086L133.34 13.5609C131.716 12.4409 128.748 10.7609 125.724 10.7609C124.996 10.7609 123.876 10.8729 123.148 11.4329C122.644 11.8249 122.476 12.2169 122.476 12.7769C122.476 13.5609 122.588 14.2889 124.66 14.7369L128.972 15.6889C132.276 16.4169 134.236 17.7609 135.356 18.8809C137.708 21.1769 138.212 24.0329 138.212 26.2729C138.212 29.4649 137.372 32.4329 134.852 35.0649C132.724 37.2489 128.692 39.8249 121.692 39.8249C115.98 39.8249 112.172 38.2009 108.98 36.9129L107.748 36.4089L111.836 25.8809L113.292 27.0009C114.692 28.0649 117.548 29.7449 120.852 29.7449C122.7 29.7449 123.484 29.2969 123.764 29.0729C124.38 28.5689 124.492 27.9529 124.492 27.3929C124.492 27.0569 124.436 26.4969 124.044 26.1049C123.596 25.6569 122.868 25.4889 121.468 25.2089L118.164 24.5929C116.036 24.2009 113.74 23.5289 111.668 21.4009C109.764 19.4409 108.98 17.2009 108.98 14.5129C108.98 11.0409 110.156 8.07286 112.62 5.60886C115.476 2.69686 119.676 0.792861 125.612 0.792861C128.58 0.792861 132.444 1.29686 136.98 4.04086ZM183.805 20.2809C183.805 26.2729 181.509 30.8649 178.597 33.8329C175.405 37.0809 170.197 39.8249 163.085 39.8249C155.973 39.8249 150.765 37.0809 147.573 33.8329C144.661 30.8649 142.365 26.2729 142.365 20.2809C142.365 14.3449 144.661 9.75286 147.573 6.78486C150.765 3.53686 155.973 0.792861 163.085 0.792861C170.197 0.792861 175.405 3.53686 178.597 6.78486C181.509 9.75286 183.805 14.3449 183.805 20.2809ZM163.085 12.8329C160.677 12.8329 159.109 13.7849 158.213 14.7369C156.869 16.1369 156.085 18.3209 156.085 20.3369C156.085 22.4649 156.869 24.5369 158.213 25.8809C159.333 27.0009 161.013 27.7849 163.085 27.7849C165.157 27.7849 166.837 27.0009 167.957 25.8809C169.189 24.6489 170.085 22.6889 170.085 20.3369C170.085 17.9849 169.301 16.0249 167.957 14.7369C166.949 13.7289 165.325 12.8329 163.085 12.8329ZM202.59 38.9849H189.654V1.63286H202.59L211.27 15.7449C212.67 17.9849 213.566 19.4409 214.798 22.3529H215.19C214.63 20.0009 214.014 16.2489 214.014 13.5049V1.63286H227.006V38.9849H214.014L204.718 24.2569C203.878 22.9129 202.87 20.9529 202.142 19.3849H201.75C202.142 21.4009 202.59 24.5929 202.59 26.2729V38.9849ZM256.394 34.3369H246.09L245.082 38.9849H230.746L243.682 1.63286H258.69L272.018 38.9849H257.626L256.394 34.3369ZM252.306 18.3209C251.97 16.8649 251.746 15.4649 251.578 14.1209H251.074C251.018 15.6889 250.794 16.9769 250.458 18.3209L248.61 25.4889H254.042L252.306 18.3209ZM300.763 38.9849H275.787V1.63286H289.339V26.9449H300.763V38.9849Z"/>
</mask>
<path d="M29.7376 4.04086L26.0976 13.5609C24.4736 12.4409 21.5056 10.7609 18.4816 10.7609C17.7536 10.7609 16.6336 10.8729 15.9056 11.4329C15.4016 11.8249 15.2336 12.2169 15.2336 12.7769C15.2336 13.5609 15.3456 14.2889 17.4176 14.7369L21.7296 15.6889C25.0336 16.4169 26.9936 17.7609 28.1136 18.8809C30.4656 21.1769 30.9696 24.0329 30.9696 26.2729C30.9696 29.4649 30.1296 32.4329 27.6096 35.0649C25.4816 37.2489 21.4496 39.8249 14.4496 39.8249C8.73759 39.8249 4.92959 38.2009 1.73759 36.9129L0.505594 36.4089L4.59359 25.8809L6.04959 27.0009C7.44959 28.0649 10.3056 29.7449 13.6096 29.7449C15.4576 29.7449 16.2416 29.2969 16.5216 29.0729C17.1376 28.5689 17.2496 27.9529 17.2496 27.3929C17.2496 27.0569 17.1936 26.4969 16.8016 26.1049C16.3536 25.6569 15.6256 25.4889 14.2256 25.2089L10.9216 24.5929C8.79359 24.2009 6.49759 23.5289 4.42559 21.4009C2.52159 19.4409 1.73759 17.2009 1.73759 14.5129C1.73759 11.0409 2.91359 8.07286 5.37759 5.60886C8.23359 2.69686 12.4336 0.792861 18.3696 0.792861C21.3376 0.792861 25.2016 1.29686 29.7376 4.04086ZM62.3388 38.9849H36.8028V1.63286H62.0028V11.8809H50.3548V15.3529H60.9388V25.1529H50.3548V28.7369H62.3388V38.9849ZM90.0347 34.3369H79.7307L78.7227 38.9849H64.3867L77.3227 1.63286H92.3307L105.659 38.9849H91.2667L90.0347 34.3369ZM85.9467 18.3209C85.6107 16.8649 85.3867 15.4649 85.2187 14.1209H84.7147C84.6587 15.6889 84.4347 16.9769 84.0987 18.3209L82.2507 25.4889H87.6827L85.9467 18.3209ZM136.98 4.04086L133.34 13.5609C131.716 12.4409 128.748 10.7609 125.724 10.7609C124.996 10.7609 123.876 10.8729 123.148 11.4329C122.644 11.8249 122.476 12.2169 122.476 12.7769C122.476 13.5609 122.588 14.2889 124.66 14.7369L128.972 15.6889C132.276 16.4169 134.236 17.7609 135.356 18.8809C137.708 21.1769 138.212 24.0329 138.212 26.2729C138.212 29.4649 137.372 32.4329 134.852 35.0649C132.724 37.2489 128.692 39.8249 121.692 39.8249C115.98 39.8249 112.172 38.2009 108.98 36.9129L107.748 36.4089L111.836 25.8809L113.292 27.0009C114.692 28.0649 117.548 29.7449 120.852 29.7449C122.7 29.7449 123.484 29.2969 123.764 29.0729C124.38 28.5689 124.492 27.9529 124.492 27.3929C124.492 27.0569 124.436 26.4969 124.044 26.1049C123.596 25.6569 122.868 25.4889 121.468 25.2089L118.164 24.5929C116.036 24.2009 113.74 23.5289 111.668 21.4009C109.764 19.4409 108.98 17.2009 108.98 14.5129C108.98 11.0409 110.156 8.07286 112.62 5.60886C115.476 2.69686 119.676 0.792861 125.612 0.792861C128.58 0.792861 132.444 1.29686 136.98 4.04086ZM183.805 20.2809C183.805 26.2729 181.509 30.8649 178.597 33.8329C175.405 37.0809 170.197 39.8249 163.085 39.8249C155.973 39.8249 150.765 37.0809 147.573 33.8329C144.661 30.8649 142.365 26.2729 142.365 20.2809C142.365 14.3449 144.661 9.75286 147.573 6.78486C150.765 3.53686 155.973 0.792861 163.085 0.792861C170.197 0.792861 175.405 3.53686 178.597 6.78486C181.509 9.75286 183.805 14.3449 183.805 20.2809ZM163.085 12.8329C160.677 12.8329 159.109 13.7849 158.213 14.7369C156.869 16.1369 156.085 18.3209 156.085 20.3369C156.085 22.4649 156.869 24.5369 158.213 25.8809C159.333 27.0009 161.013 27.7849 163.085 27.7849C165.157 27.7849 166.837 27.0009 167.957 25.8809C169.189 24.6489 170.085 22.6889 170.085 20.3369C170.085 17.9849 169.301 16.0249 167.957 14.7369C166.949 13.7289 165.325 12.8329 163.085 12.8329ZM202.59 38.9849H189.654V1.63286H202.59L211.27 15.7449C212.67 17.9849 213.566 19.4409 214.798 22.3529H215.19C214.63 20.0009 214.014 16.2489 214.014 13.5049V1.63286H227.006V38.9849H214.014L204.718 24.2569C203.878 22.9129 202.87 20.9529 202.142 19.3849H201.75C202.142 21.4009 202.59 24.5929 202.59 26.2729V38.9849ZM256.394 34.3369H246.09L245.082 38.9849H230.746L243.682 1.63286H258.69L272.018 38.9849H257.626L256.394 34.3369ZM252.306 18.3209C251.97 16.8649 251.746 15.4649 251.578 14.1209H251.074C251.018 15.6889 250.794 16.9769 250.458 18.3209L248.61 25.4889H254.042L252.306 18.3209ZM300.763 38.9849H275.787V1.63286H289.339V26.9449H300.763V38.9849Z" fill="white"/>
<path d="M29.7376 4.04086L30.6716 4.398C30.8444 3.94623 30.669 3.43559 30.2552 3.18524L29.7376 4.04086ZM26.0976 13.5609L25.5299 14.3841C25.7824 14.5583 26.101 14.6069 26.394 14.5159C26.687 14.425 26.9221 14.2046 27.0316 13.918L26.0976 13.5609ZM15.9056 11.4329L15.2959 10.6402L15.2917 10.6435L15.9056 11.4329ZM17.4176 14.7369L17.6332 13.7604L17.6289 13.7594L17.4176 14.7369ZM21.7296 15.6889L21.514 16.6653L21.5144 16.6654L21.7296 15.6889ZM28.1136 18.8809L27.4064 19.588L27.4151 19.5964L28.1136 18.8809ZM27.6096 35.0649L28.3259 35.7628L28.3319 35.7564L27.6096 35.0649ZM1.73759 36.9129L1.35896 37.8384L1.3634 37.8402L1.73759 36.9129ZM0.505594 36.4089L-0.426597 36.0469C-0.623975 36.5552 -0.377732 37.1279 0.126961 37.3344L0.505594 36.4089ZM4.59359 25.8809L5.2033 25.0882C4.95361 24.8962 4.628 24.833 4.32459 24.9177C4.02117 25.0025 3.77543 25.2252 3.6614 25.5189L4.59359 25.8809ZM6.04959 27.0009L5.43987 27.7935L5.44451 27.797L6.04959 27.0009ZM16.5216 29.0729L17.1463 29.8538L17.1548 29.8468L16.5216 29.0729ZM16.8016 26.1049L16.0945 26.812L16.0945 26.812L16.8016 26.1049ZM14.2256 25.2089L14.4217 24.2282L14.4089 24.2258L14.2256 25.2089ZM10.9216 24.5929L11.1049 23.6098L11.1028 23.6094L10.9216 24.5929ZM4.42559 21.4009L3.70831 22.0976L3.70912 22.0985L4.42559 21.4009ZM5.37759 5.60886L6.08473 6.316L6.09153 6.30907L5.37759 5.60886ZM28.8035 3.68373L25.1635 13.2037L27.0316 13.918L30.6716 4.398L28.8035 3.68373ZM26.6653 12.7376C25.0054 11.5929 21.824 9.76086 18.4816 9.76086V11.7609C21.1872 11.7609 23.9418 13.2889 25.5299 14.3841L26.6653 12.7376ZM18.4816 9.76086C18.0721 9.76086 17.5365 9.79187 16.9861 9.90863C16.4439 10.0236 15.8223 10.2353 15.2959 10.6402L16.5153 12.2255C16.7169 12.0704 17.0193 11.9461 17.4011 11.8651C17.7747 11.7859 18.1631 11.7609 18.4816 11.7609V9.76086ZM15.2917 10.6435C14.9535 10.9065 14.6694 11.2157 14.4804 11.6063C14.2912 11.9973 14.2336 12.3951 14.2336 12.7769H16.2336C16.2336 12.5986 16.2599 12.5204 16.2808 12.4774C16.3018 12.434 16.3537 12.3512 16.5195 12.2222L15.2917 10.6435ZM14.2336 12.7769C14.2336 13.1973 14.2502 13.9025 14.7882 14.5323C15.2917 15.1218 16.1046 15.4761 17.2063 15.7143L17.6289 13.7594C16.6586 13.5497 16.3795 13.316 16.309 13.2334C16.273 13.1912 16.2336 13.1405 16.2336 12.7769H14.2336ZM17.202 15.7133L21.514 16.6653L21.9452 14.7124L17.6332 13.7604L17.202 15.7133ZM21.5144 16.6654C24.6365 17.3533 26.4245 18.606 27.4065 19.588L28.8207 18.1738C27.5627 16.9157 25.4307 15.4804 21.9448 14.7123L21.5144 16.6654ZM27.4151 19.5964C29.4978 21.6296 29.9696 24.1724 29.9696 26.2729H31.9696C31.9696 23.8933 31.4334 20.7241 28.8121 18.1653L27.4151 19.5964ZM29.9696 26.2729C29.9696 29.2656 29.1924 31.9657 26.8873 34.3733L28.3319 35.7564C31.0668 32.9 31.9696 29.6641 31.9696 26.2729H29.9696ZM26.8934 34.367C24.9494 36.3621 21.1739 38.8249 14.4496 38.8249V40.8249C21.7253 40.8249 26.0138 38.1356 28.3258 35.7627L26.8934 34.367ZM14.4496 38.8249C8.94893 38.8249 5.29959 37.2718 2.11179 35.9855L1.3634 37.8402C4.55959 39.1299 8.52626 40.8249 14.4496 40.8249V38.8249ZM2.11623 35.9873L0.884227 35.4833L0.126961 37.3344L1.35896 37.8384L2.11623 35.9873ZM1.43778 36.7708L5.52578 26.2428L3.6614 25.5189L-0.426597 36.0469L1.43778 36.7708ZM3.98388 26.6735L5.43988 27.7935L6.6593 26.2082L5.2033 25.0882L3.98388 26.6735ZM5.44451 27.797C6.92289 28.9206 9.99151 30.7449 13.6096 30.7449V28.7449C10.6197 28.7449 7.9763 27.2091 6.65468 26.2047L5.44451 27.797ZM13.6096 30.7449C15.62 30.7449 16.6443 30.2553 17.1463 29.8537L15.8969 28.292C15.8389 28.3384 15.2952 28.7449 13.6096 28.7449V30.7449ZM17.1548 29.8468C18.0975 29.0755 18.2496 28.1044 18.2496 27.3929H16.2496C16.2496 27.6107 16.2268 27.7753 16.1775 27.9103C16.1328 28.0322 16.055 28.1625 15.8884 28.2989L17.1548 29.8468ZM18.2496 27.3929C18.2496 27.0015 18.1973 26.0863 17.5087 25.3978L16.0945 26.812C16.1358 26.8533 16.1772 26.9207 16.2078 27.033C16.2391 27.1477 16.2496 27.2752 16.2496 27.3929H18.2496ZM17.5087 25.3978C17.1282 25.0172 16.6674 24.7999 16.1771 24.642C15.6998 24.4883 15.1094 24.3658 14.4217 24.2283L14.0295 26.1894C14.7418 26.3319 15.2154 26.4334 15.5641 26.5457C15.8998 26.6538 16.027 26.7445 16.0945 26.812L17.5087 25.3978ZM14.4089 24.2258L11.1049 23.6098L10.7383 25.5759L14.0423 26.1919L14.4089 24.2258ZM11.1028 23.6094C9.0609 23.2333 7.004 22.6155 5.14207 20.7032L3.70912 22.0985C5.99119 24.4422 8.52628 25.1684 10.7404 25.5763L11.1028 23.6094ZM5.14287 20.7041C3.44162 18.9528 2.73759 16.9732 2.73759 14.5129H0.737594C0.737594 17.4286 1.60157 19.9289 3.70831 22.0976L5.14287 20.7041ZM2.73759 14.5129C2.73759 11.2954 3.81564 8.58502 6.0847 6.31597L4.67049 4.90176C2.01154 7.5607 0.737594 10.7863 0.737594 14.5129H2.73759ZM6.09153 6.30907C8.73497 3.6138 12.6651 1.79286 18.3696 1.79286V-0.207139C12.2021 -0.207139 7.73222 1.77993 4.66366 4.90865L6.09153 6.30907ZM18.3696 1.79286C21.1996 1.79286 24.8743 2.26759 29.22 4.89649L30.2552 3.18524C25.5289 0.326131 21.4755 -0.207139 18.3696 -0.207139V1.79286ZM62.3388 38.9849V39.9849C62.8911 39.9849 63.3388 39.5371 63.3388 38.9849H62.3388ZM36.8028 38.9849H35.8028C35.8028 39.5371 36.2505 39.9849 36.8028 39.9849V38.9849ZM36.8028 1.63286V0.63286C36.2505 0.63286 35.8028 1.08058 35.8028 1.63286H36.8028ZM62.0028 1.63286H63.0028C63.0028 1.08058 62.5551 0.63286 62.0028 0.63286V1.63286ZM62.0028 11.8809V12.8809C62.5551 12.8809 63.0028 12.4331 63.0028 11.8809H62.0028ZM50.3548 11.8809V10.8809C49.8025 10.8809 49.3548 11.3286 49.3548 11.8809H50.3548ZM50.3548 15.3529H49.3548C49.3548 15.9051 49.8025 16.3529 50.3548 16.3529V15.3529ZM60.9388 15.3529H61.9388C61.9388 14.8006 61.4911 14.3529 60.9388 14.3529V15.3529ZM60.9388 25.1529V26.1529C61.4911 26.1529 61.9388 25.7051 61.9388 25.1529H60.9388ZM50.3548 25.1529V24.1529C49.8025 24.1529 49.3548 24.6006 49.3548 25.1529H50.3548ZM50.3548 28.7369H49.3548C49.3548 29.2891 49.8025 29.7369 50.3548 29.7369V28.7369ZM62.3388 28.7369H63.3388C63.3388 28.1846 62.8911 27.7369 62.3388 27.7369V28.7369ZM62.3388 37.9849H36.8028V39.9849H62.3388V37.9849ZM37.8028 38.9849V1.63286H35.8028V38.9849H37.8028ZM36.8028 2.63286H62.0028V0.63286H36.8028V2.63286ZM61.0028 1.63286V11.8809H63.0028V1.63286H61.0028ZM62.0028 10.8809H50.3548V12.8809H62.0028V10.8809ZM49.3548 11.8809V15.3529H51.3548V11.8809H49.3548ZM50.3548 16.3529H60.9388V14.3529H50.3548V16.3529ZM59.9388 15.3529V25.1529H61.9388V15.3529H59.9388ZM60.9388 24.1529H50.3548V26.1529H60.9388V24.1529ZM49.3548 25.1529V28.7369H51.3548V25.1529H49.3548ZM50.3548 29.7369H62.3388V27.7369H50.3548V29.7369ZM61.3388 28.7369V38.9849H63.3388V28.7369H61.3388ZM90.0347 34.3369L91.0013 34.0807C90.8851 33.6422 90.4883 33.3369 90.0347 33.3369V34.3369ZM79.7307 34.3369V33.3369C79.2601 33.3369 78.8532 33.665 78.7534 34.1249L79.7307 34.3369ZM78.7227 38.9849V39.9849C79.1933 39.9849 79.6003 39.6567 79.7 39.1968L78.7227 38.9849ZM64.3867 38.9849L63.4418 38.6576C63.3359 38.9633 63.3845 39.3013 63.5721 39.5648C63.7597 39.8284 64.0632 39.9849 64.3867 39.9849V38.9849ZM77.3227 1.63286V0.63286C76.8966 0.63286 76.5172 0.902922 76.3778 1.3056L77.3227 1.63286ZM92.3307 1.63286L93.2726 1.29679C93.1305 0.89866 92.7534 0.63286 92.3307 0.63286V1.63286ZM105.659 38.9849V39.9849C105.984 39.9849 106.289 39.8268 106.476 39.561C106.663 39.2953 106.71 38.955 106.601 38.6488L105.659 38.9849ZM91.2667 38.9849L90.3001 39.2411C90.4163 39.6795 90.8131 39.9849 91.2667 39.9849V38.9849ZM85.9467 18.3209L84.9723 18.5457L84.9748 18.5562L85.9467 18.3209ZM85.2187 14.1209L86.211 13.9968C86.1484 13.4964 85.723 13.1209 85.2187 13.1209V14.1209ZM84.7147 14.1209V13.1209C84.1763 13.1209 83.7346 13.5471 83.7154 14.0852L84.7147 14.1209ZM84.0987 18.3209L85.0671 18.5705L85.0689 18.5634L84.0987 18.3209ZM82.2507 25.4889L81.2824 25.2392C81.2052 25.5386 81.2709 25.8569 81.4603 26.1014C81.6497 26.3458 81.9415 26.4889 82.2507 26.4889V25.4889ZM87.6827 25.4889V26.4889C87.9894 26.4889 88.2791 26.3482 88.4687 26.1072C88.6583 25.8662 88.7268 25.5515 88.6546 25.2535L87.6827 25.4889ZM90.0347 33.3369H79.7307V35.3369H90.0347V33.3369ZM78.7534 34.1249L77.7454 38.7729L79.7 39.1968L80.708 34.5488L78.7534 34.1249ZM78.7227 37.9849H64.3867V39.9849H78.7227V37.9849ZM65.3317 39.3121L78.2677 1.96012L76.3778 1.3056L63.4418 38.6576L65.3317 39.3121ZM77.3227 2.63286H92.3307V0.63286H77.3227V2.63286ZM91.3889 1.96893L104.717 39.3209L106.601 38.6488L93.2726 1.29679L91.3889 1.96893ZM105.659 37.9849H91.2667V39.9849H105.659V37.9849ZM92.2333 38.7287L91.0013 34.0807L89.0681 34.5931L90.3001 39.2411L92.2333 38.7287ZM86.9211 18.096C86.5948 16.682 86.376 15.3171 86.211 13.9968L84.2264 14.2449C84.3974 15.6126 84.6266 17.0477 84.9723 18.5457L86.9211 18.096ZM85.2187 13.1209H84.7147V15.1209H85.2187V13.1209ZM83.7154 14.0852C83.6624 15.5688 83.4516 16.7862 83.1286 18.0783L85.0689 18.5634C85.4178 17.1675 85.6551 15.8089 85.7141 14.1566L83.7154 14.0852ZM83.1304 18.0712L81.2824 25.2392L83.2191 25.7385L85.0671 18.5705L83.1304 18.0712ZM82.2507 26.4889H87.6827V24.4889H82.2507V26.4889ZM88.6546 25.2535L86.9186 18.0855L84.9748 18.5562L86.7108 25.7242L88.6546 25.2535ZM136.98 4.04086L137.914 4.398C138.087 3.94623 137.911 3.43559 137.497 3.18524L136.98 4.04086ZM133.34 13.5609L132.772 14.3841C133.025 14.5583 133.343 14.6069 133.636 14.5159C133.929 14.425 134.164 14.2046 134.274 13.918L133.34 13.5609ZM123.148 11.4329L122.538 10.6402L122.534 10.6435L123.148 11.4329ZM124.66 14.7369L124.875 13.7604L124.871 13.7594L124.66 14.7369ZM128.972 15.6889L128.756 16.6653L128.757 16.6654L128.972 15.6889ZM135.356 18.8809L134.649 19.588L134.657 19.5964L135.356 18.8809ZM134.852 35.0649L135.568 35.7628L135.574 35.7564L134.852 35.0649ZM108.98 36.9129L108.601 37.8384L108.606 37.8402L108.98 36.9129ZM107.748 36.4089L106.816 36.0469C106.618 36.5552 106.864 37.1279 107.369 37.3344L107.748 36.4089ZM111.836 25.8809L112.445 25.0882C112.196 24.8962 111.87 24.833 111.567 24.9177C111.263 25.0025 111.018 25.2252 110.904 25.5189L111.836 25.8809ZM113.292 27.0009L112.682 27.7935L112.687 27.797L113.292 27.0009ZM123.764 29.0729L124.389 29.8538L124.397 29.8468L123.764 29.0729ZM124.044 26.1049L123.337 26.812L123.337 26.812L124.044 26.1049ZM121.468 25.2089L121.664 24.2282L121.651 24.2258L121.468 25.2089ZM118.164 24.5929L118.347 23.6098L118.345 23.6094L118.164 24.5929ZM111.668 21.4009L110.951 22.0976L110.951 22.0985L111.668 21.4009ZM112.62 5.60886L113.327 6.316L113.334 6.30907L112.62 5.60886ZM136.046 3.68373L132.406 13.2037L134.274 13.918L137.914 4.398L136.046 3.68373ZM133.908 12.7376C132.248 11.5929 129.066 9.76086 125.724 9.76086V11.7609C128.429 11.7609 131.184 13.2889 132.772 14.3841L133.908 12.7376ZM125.724 9.76086C125.314 9.76086 124.779 9.79187 124.228 9.90863C123.686 10.0236 123.064 10.2353 122.538 10.6402L123.757 12.2255C123.959 12.0704 124.261 11.9461 124.643 11.8651C125.017 11.7859 125.405 11.7609 125.724 11.7609V9.76086ZM122.534 10.6435C122.196 10.9065 121.912 11.2157 121.723 11.6063C121.533 11.9973 121.476 12.3951 121.476 12.7769H123.476C123.476 12.5986 123.502 12.5204 123.523 12.4774C123.544 12.434 123.596 12.3512 123.762 12.2222L122.534 10.6435ZM121.476 12.7769C121.476 13.1973 121.492 13.9025 122.03 14.5323C122.534 15.1218 123.347 15.4761 124.448 15.7143L124.871 13.7594C123.901 13.5497 123.622 13.316 123.551 13.2334C123.515 13.1912 123.476 13.1405 123.476 12.7769H121.476ZM124.444 15.7133L128.756 16.6653L129.187 14.7124L124.875 13.7604L124.444 15.7133ZM128.757 16.6654C131.879 17.3533 133.667 18.606 134.649 19.588L136.063 18.1738C134.805 16.9157 132.673 15.4804 129.187 14.7123L128.757 16.6654ZM134.657 19.5964C136.74 21.6296 137.212 24.1724 137.212 26.2729H139.212C139.212 23.8933 138.676 20.7241 136.054 18.1653L134.657 19.5964ZM137.212 26.2729C137.212 29.2656 136.435 31.9657 134.129 34.3733L135.574 35.7564C138.309 32.9 139.212 29.6641 139.212 26.2729H137.212ZM134.136 34.367C132.192 36.3621 128.416 38.8249 121.692 38.8249V40.8249C128.967 40.8249 133.256 38.1356 135.568 35.7627L134.136 34.367ZM121.692 38.8249C116.191 38.8249 112.542 37.2718 109.354 35.9855L108.606 37.8402C111.802 39.1299 115.768 40.8249 121.692 40.8249V38.8249ZM109.358 35.9873L108.126 35.4833L107.369 37.3344L108.601 37.8384L109.358 35.9873ZM108.68 36.7708L112.768 26.2428L110.904 25.5189L106.816 36.0469L108.68 36.7708ZM111.226 26.6735L112.682 27.7935L113.901 26.2082L112.445 25.0882L111.226 26.6735ZM112.687 27.797C114.165 28.9206 117.234 30.7449 120.852 30.7449V28.7449C117.862 28.7449 115.218 27.2091 113.897 26.2047L112.687 27.797ZM120.852 30.7449C122.862 30.7449 123.887 30.2553 124.388 29.8537L123.139 28.292C123.081 28.3384 122.537 28.7449 120.852 28.7449V30.7449ZM124.397 29.8468C125.34 29.0755 125.492 28.1044 125.492 27.3929H123.492C123.492 27.6107 123.469 27.7753 123.42 27.9103C123.375 28.0322 123.297 28.1625 123.131 28.2989L124.397 29.8468ZM125.492 27.3929C125.492 27.0015 125.439 26.0863 124.751 25.3978L123.337 26.812C123.378 26.8533 123.419 26.9207 123.45 27.033C123.481 27.1477 123.492 27.2752 123.492 27.3929H125.492ZM124.751 25.3978C124.37 25.0172 123.91 24.7999 123.419 24.642C122.942 24.4883 122.352 24.3658 121.664 24.2283L121.272 26.1894C121.984 26.3319 122.458 26.4334 122.806 26.5457C123.142 26.6538 123.269 26.7445 123.337 26.812L124.751 25.3978ZM121.651 24.2258L118.347 23.6098L117.98 25.5759L121.284 26.1919L121.651 24.2258ZM118.345 23.6094C116.303 23.2333 114.246 22.6155 112.384 20.7032L110.951 22.0985C113.233 24.4422 115.768 25.1684 117.983 25.5763L118.345 23.6094ZM112.385 20.7041C110.684 18.9528 109.98 16.9732 109.98 14.5129H107.98C107.98 17.4286 108.844 19.9289 110.951 22.0976L112.385 20.7041ZM109.98 14.5129C109.98 11.2954 111.058 8.58502 113.327 6.31597L111.913 4.90176C109.254 7.5607 107.98 10.7863 107.98 14.5129H109.98ZM113.334 6.30907C115.977 3.6138 119.907 1.79286 125.612 1.79286V-0.207139C119.444 -0.207139 114.974 1.77993 111.906 4.90865L113.334 6.30907ZM125.612 1.79286C128.442 1.79286 132.116 2.26759 136.462 4.89649L137.497 3.18524C132.771 0.326131 128.718 -0.207139 125.612 -0.207139V1.79286ZM178.597 33.8329L179.31 34.5338L179.311 34.5332L178.597 33.8329ZM147.573 33.8329L146.859 34.5332L146.86 34.5338L147.573 33.8329ZM147.573 6.78486L146.86 6.08393L146.859 6.08452L147.573 6.78486ZM178.597 6.78486L179.311 6.08452L179.31 6.08393L178.597 6.78486ZM158.213 14.7369L158.934 15.4294L158.941 15.4222L158.213 14.7369ZM158.213 25.8809L158.92 25.1738L158.92 25.1738L158.213 25.8809ZM167.957 25.8809L167.25 25.1738L167.25 25.1738L167.957 25.8809ZM167.957 14.7369L167.25 15.444C167.255 15.449 167.26 15.4539 167.265 15.4588L167.957 14.7369ZM182.805 20.2809C182.805 26.0049 180.616 30.3471 177.883 33.1325L179.311 34.5332C182.402 31.3826 184.805 26.5408 184.805 20.2809H182.805ZM177.884 33.1319C174.878 36.1906 169.926 38.8249 163.085 38.8249V40.8249C170.468 40.8249 175.932 37.9711 179.31 34.5338L177.884 33.1319ZM163.085 38.8249C156.244 38.8249 151.292 36.1906 148.286 33.1319L146.86 34.5338C150.238 37.9711 155.702 40.8249 163.085 40.8249V38.8249ZM148.287 33.1325C145.554 30.3471 143.365 26.0049 143.365 20.2809H141.365C141.365 26.5408 143.768 31.3826 146.859 34.5332L148.287 33.1325ZM143.365 20.2809C143.365 14.6144 145.553 10.2717 148.287 7.4852L146.859 6.08452C143.769 9.23398 141.365 14.0753 141.365 20.2809H143.365ZM148.286 7.48579C151.292 4.42708 156.244 1.79286 163.085 1.79286V-0.207139C155.702 -0.207139 150.238 2.64665 146.86 6.08393L148.286 7.48579ZM163.085 1.79286C169.926 1.79286 174.878 4.42708 177.884 7.48579L179.31 6.08393C175.932 2.64665 170.468 -0.207139 163.085 -0.207139V1.79286ZM177.883 7.4852C180.617 10.2717 182.805 14.6144 182.805 20.2809H184.805C184.805 14.0753 182.401 9.23398 179.311 6.08452L177.883 7.4852ZM163.085 11.8329C160.387 11.8329 158.56 12.9089 157.485 14.0515L158.941 15.4222C159.658 14.6608 160.966 13.8329 163.085 13.8329V11.8329ZM157.492 14.0443C155.945 15.6552 155.085 18.099 155.085 20.3369H157.085C157.085 18.5427 157.793 16.6185 158.934 15.4294L157.492 14.0443ZM155.085 20.3369C155.085 22.6891 155.947 25.0293 157.506 26.588L158.92 25.1738C157.791 24.0444 157.085 22.2406 157.085 20.3369H155.085ZM157.506 26.588C158.817 27.8989 160.753 28.7849 163.085 28.7849V26.7849C161.273 26.7849 159.849 26.1028 158.92 25.1738L157.506 26.588ZM163.085 28.7849C165.417 28.7849 167.353 27.8989 168.664 26.588L167.25 25.1738C166.321 26.1028 164.897 26.7849 163.085 26.7849V28.7849ZM168.664 26.588C170.093 25.1587 171.085 22.94 171.085 20.3369H169.085C169.085 22.4377 168.285 24.139 167.25 25.1738L168.664 26.588ZM171.085 20.3369C171.085 17.7661 170.225 15.5258 168.649 14.0149L167.265 15.4588C168.376 16.524 169.085 18.2036 169.085 20.3369H171.085ZM168.664 14.0298C167.483 12.849 165.61 11.8329 163.085 11.8329V13.8329C165.04 13.8329 166.415 14.6087 167.25 15.444L168.664 14.0298ZM202.59 38.9849V39.9849C203.143 39.9849 203.59 39.5371 203.59 38.9849H202.59ZM189.654 38.9849H188.654C188.654 39.5371 189.102 39.9849 189.654 39.9849V38.9849ZM189.654 1.63286V0.63286C189.102 0.63286 188.654 1.08058 188.654 1.63286H189.654ZM202.59 1.63286L203.442 1.10895C203.26 0.813096 202.938 0.63286 202.59 0.63286V1.63286ZM211.27 15.7449L210.419 16.2688L210.422 16.2749L211.27 15.7449ZM214.798 22.3529L213.877 22.7425C214.034 23.1125 214.397 23.3529 214.798 23.3529V22.3529ZM215.19 22.3529V23.3529C215.496 23.3529 215.785 23.2128 215.975 22.9727C216.165 22.7326 216.234 22.4189 216.163 22.1212L215.19 22.3529ZM214.014 1.63286V0.63286C213.462 0.63286 213.014 1.08058 213.014 1.63286H214.014ZM227.006 1.63286H228.006C228.006 1.08058 227.559 0.63286 227.006 0.63286V1.63286ZM227.006 38.9849V39.9849C227.559 39.9849 228.006 39.5371 228.006 38.9849H227.006ZM214.014 38.9849L213.169 39.5186C213.352 39.8089 213.671 39.9849 214.014 39.9849V38.9849ZM204.718 24.2569L203.87 24.7869L203.873 24.7906L204.718 24.2569ZM202.142 19.3849L203.049 18.9638C202.885 18.6107 202.532 18.3849 202.142 18.3849V19.3849ZM201.75 19.3849V18.3849C201.452 18.3849 201.169 18.5184 200.979 18.7488C200.789 18.9793 200.712 19.2826 200.769 19.5757L201.75 19.3849ZM202.59 37.9849H189.654V39.9849H202.59V37.9849ZM190.654 38.9849V1.63286H188.654V38.9849H190.654ZM189.654 2.63286H202.59V0.63286H189.654V2.63286ZM201.739 2.15677L210.419 16.2688L212.122 15.221L203.442 1.10895L201.739 2.15677ZM210.422 16.2749C211.812 18.499 212.676 19.9028 213.877 22.7425L215.719 21.9632C214.457 18.9789 213.528 17.4707 212.118 15.2149L210.422 16.2749ZM214.798 23.3529H215.19V21.3529H214.798V23.3529ZM216.163 22.1212C215.613 19.8099 215.014 16.1415 215.014 13.5049H213.014C213.014 16.3562 213.648 20.1918 214.218 22.5845L216.163 22.1212ZM215.014 13.5049V1.63286H213.014V13.5049H215.014ZM214.014 2.63286H227.006V0.63286H214.014V2.63286ZM226.006 1.63286V38.9849H228.006V1.63286H226.006ZM227.006 37.9849H214.014V39.9849H227.006V37.9849ZM214.86 38.4511L205.564 23.7231L203.873 24.7906L213.169 39.5186L214.86 38.4511ZM205.566 23.7269C204.757 22.4315 203.768 20.5124 203.049 18.9638L201.235 19.806C201.972 21.3933 203 23.3942 203.87 24.7869L205.566 23.7269ZM202.142 18.3849H201.75V20.3849H202.142V18.3849ZM200.769 19.5757C201.158 21.5763 201.59 24.6918 201.59 26.2729H203.59C203.59 24.4939 203.127 21.2255 202.732 19.194L200.769 19.5757ZM201.59 26.2729V38.9849H203.59V26.2729H201.59ZM256.394 34.3369L257.361 34.0807C257.244 33.6422 256.848 33.3369 256.394 33.3369V34.3369ZM246.09 34.3369V33.3369C245.619 33.3369 245.213 33.665 245.113 34.1249L246.09 34.3369ZM245.082 38.9849V39.9849C245.553 39.9849 245.96 39.6567 246.059 39.1968L245.082 38.9849ZM230.746 38.9849L229.801 38.6576C229.695 38.9633 229.744 39.3013 229.931 39.5648C230.119 39.8284 230.423 39.9849 230.746 39.9849V38.9849ZM243.682 1.63286V0.63286C243.256 0.63286 242.877 0.902922 242.737 1.3056L243.682 1.63286ZM258.69 1.63286L259.632 1.29679C259.49 0.89866 259.113 0.63286 258.69 0.63286V1.63286ZM272.018 38.9849V39.9849C272.343 39.9849 272.648 39.8268 272.835 39.561C273.023 39.2953 273.069 38.955 272.96 38.6488L272.018 38.9849ZM257.626 38.9849L256.659 39.2411C256.776 39.6795 257.172 39.9849 257.626 39.9849V38.9849ZM252.306 18.3209L251.332 18.5457L251.334 18.5562L252.306 18.3209ZM251.578 14.1209L252.57 13.9968C252.508 13.4964 252.082 13.1209 251.578 13.1209V14.1209ZM251.074 14.1209V13.1209C250.536 13.1209 250.094 13.5471 250.075 14.0852L251.074 14.1209ZM250.458 18.3209L251.426 18.5705L251.428 18.5634L250.458 18.3209ZM248.61 25.4889L247.642 25.2392C247.565 25.5386 247.63 25.8569 247.82 26.1014C248.009 26.3458 248.301 26.4889 248.61 26.4889V25.4889ZM254.042 25.4889V26.4889C254.349 26.4889 254.638 26.3482 254.828 26.1072C255.018 25.8662 255.086 25.5515 255.014 25.2535L254.042 25.4889ZM256.394 33.3369H246.09V35.3369H256.394V33.3369ZM245.113 34.1249L244.105 38.7729L246.059 39.1968L247.067 34.5488L245.113 34.1249ZM245.082 37.9849H230.746V39.9849H245.082V37.9849ZM231.691 39.3121L244.627 1.96012L242.737 1.3056L229.801 38.6576L231.691 39.3121ZM243.682 2.63286H258.69V0.63286H243.682V2.63286ZM257.748 1.96893L271.076 39.3209L272.96 38.6488L259.632 1.29679L257.748 1.96893ZM272.018 37.9849H257.626V39.9849H272.018V37.9849ZM258.593 38.7287L257.361 34.0807L255.427 34.5931L256.659 39.2411L258.593 38.7287ZM253.28 18.096C252.954 16.682 252.735 15.3171 252.57 13.9968L250.586 14.2449C250.757 15.6126 250.986 17.0477 251.332 18.5457L253.28 18.096ZM251.578 13.1209H251.074V15.1209H251.578V13.1209ZM250.075 14.0852C250.022 15.5688 249.811 16.7862 249.488 18.0783L251.428 18.5634C251.777 17.1675 252.014 15.8089 252.073 14.1566L250.075 14.0852ZM249.49 18.0712L247.642 25.2392L249.578 25.7385L251.426 18.5705L249.49 18.0712ZM248.61 26.4889H254.042V24.4889H248.61V26.4889ZM255.014 25.2535L253.278 18.0855L251.334 18.5562L253.07 25.7242L255.014 25.2535ZM300.763 38.9849V39.9849C301.315 39.9849 301.763 39.5371 301.763 38.9849H300.763ZM275.787 38.9849H274.787C274.787 39.5371 275.235 39.9849 275.787 39.9849V38.9849ZM275.787 1.63286V0.63286C275.235 0.63286 274.787 1.08058 274.787 1.63286H275.787ZM289.339 1.63286H290.339C290.339 1.08058 289.891 0.63286 289.339 0.63286V1.63286ZM289.339 26.9449H288.339C288.339 27.4971 288.787 27.9449 289.339 27.9449V26.9449ZM300.763 26.9449H301.763C301.763 26.3926 301.315 25.9449 300.763 25.9449V26.9449ZM300.763 37.9849H275.787V39.9849H300.763V37.9849ZM276.787 38.9849V1.63286H274.787V38.9849H276.787ZM275.787 2.63286H289.339V0.63286H275.787V2.63286ZM288.339 1.63286V26.9449H290.339V1.63286H288.339ZM289.339 27.9449H300.763V25.9449H289.339V27.9449ZM299.763 26.9449V38.9849H301.763V26.9449H299.763Z" fill="#333333" mask="url(#path-1-inside-1_0_270)"/>
</svg>
