<svg width="112" height="43" viewBox="0 0 112 43" fill="none" xmlns="http://www.w3.org/2000/svg">
<mask id="path-1-inside-1_0_6542" fill="white">
<path d="M13.8548 38.8281H0.302781V1.47612H25.2228V12.1161H13.8548V15.9241H23.8228V25.7801H13.8548V38.8281ZM50.4175 34.1801H40.1135L39.1055 38.8281H24.7695L37.7055 1.47612H52.7135L66.0415 38.8281H51.6495L50.4175 34.1801ZM46.3295 18.1641C45.9935 16.7081 45.7695 15.3081 45.6015 13.9641H45.0975C45.0415 15.5321 44.8175 16.8201 44.4815 18.1641L42.6335 25.3321H48.0655L46.3295 18.1641ZM100.835 42.0761L98.2026 37.5401C94.9546 39.2761 92.3226 39.6681 89.0746 39.6681C83.6986 39.6681 78.2666 38.7161 73.7866 34.2921C70.6506 31.2121 68.1306 26.3961 68.1306 20.1241C68.1306 14.0201 70.4826 9.59612 73.7306 6.40412C77.2026 2.98812 82.0746 0.636123 88.8506 0.636123C96.8586 0.636123 101.731 3.88412 104.363 6.62812C107.779 10.2121 109.515 15.0841 109.515 20.2361C109.515 26.8441 106.939 30.3161 105.987 31.5481L111.475 37.6521L100.835 42.0761ZM87.0026 23.8201L95.4586 22.1961C96.2426 19.4521 95.6266 16.5401 93.6666 14.5801C92.2666 13.1801 90.6986 12.6201 88.7946 12.6201C86.9466 12.6201 85.2666 13.1801 83.8666 14.6921C82.5226 16.1481 81.7946 18.2201 81.7946 20.0681C81.7946 22.0841 82.4666 24.3801 84.0346 25.8361C85.6026 27.3481 88.0666 28.0761 90.4186 27.4601L87.0026 23.8201Z"/>
</mask>
<path d="M13.8548 38.8281H0.302781V1.47612H25.2228V12.1161H13.8548V15.9241H23.8228V25.7801H13.8548V38.8281ZM50.4175 34.1801H40.1135L39.1055 38.8281H24.7695L37.7055 1.47612H52.7135L66.0415 38.8281H51.6495L50.4175 34.1801ZM46.3295 18.1641C45.9935 16.7081 45.7695 15.3081 45.6015 13.9641H45.0975C45.0415 15.5321 44.8175 16.8201 44.4815 18.1641L42.6335 25.3321H48.0655L46.3295 18.1641ZM100.835 42.0761L98.2026 37.5401C94.9546 39.2761 92.3226 39.6681 89.0746 39.6681C83.6986 39.6681 78.2666 38.7161 73.7866 34.2921C70.6506 31.2121 68.1306 26.3961 68.1306 20.1241C68.1306 14.0201 70.4826 9.59612 73.7306 6.40412C77.2026 2.98812 82.0746 0.636123 88.8506 0.636123C96.8586 0.636123 101.731 3.88412 104.363 6.62812C107.779 10.2121 109.515 15.0841 109.515 20.2361C109.515 26.8441 106.939 30.3161 105.987 31.5481L111.475 37.6521L100.835 42.0761ZM87.0026 23.8201L95.4586 22.1961C96.2426 19.4521 95.6266 16.5401 93.6666 14.5801C92.2666 13.1801 90.6986 12.6201 88.7946 12.6201C86.9466 12.6201 85.2666 13.1801 83.8666 14.6921C82.5226 16.1481 81.7946 18.2201 81.7946 20.0681C81.7946 22.0841 82.4666 24.3801 84.0346 25.8361C85.6026 27.3481 88.0666 28.0761 90.4186 27.4601L87.0026 23.8201Z" fill="white"/>
<path d="M13.8548 38.8281V39.8281C14.4071 39.8281 14.8548 39.3804 14.8548 38.8281H13.8548ZM0.302781 38.8281H-0.697219C-0.697219 39.3804 -0.249503 39.8281 0.302781 39.8281V38.8281ZM0.302781 1.47612V0.476122C-0.249503 0.476122 -0.697219 0.923837 -0.697219 1.47612H0.302781ZM25.2228 1.47612H26.2228C26.2228 0.923837 25.7751 0.476122 25.2228 0.476122V1.47612ZM25.2228 12.1161V13.1161C25.7751 13.1161 26.2228 12.6684 26.2228 12.1161H25.2228ZM13.8548 12.1161V11.1161C13.3025 11.1161 12.8548 11.5638 12.8548 12.1161H13.8548ZM13.8548 15.9241H12.8548C12.8548 16.4764 13.3025 16.9241 13.8548 16.9241V15.9241ZM23.8228 15.9241H24.8228C24.8228 15.3718 24.3751 14.9241 23.8228 14.9241V15.9241ZM23.8228 25.7801V26.7801C24.3751 26.7801 24.8228 26.3324 24.8228 25.7801H23.8228ZM13.8548 25.7801V24.7801C13.3025 24.7801 12.8548 25.2278 12.8548 25.7801H13.8548ZM13.8548 37.8281H0.302781V39.8281H13.8548V37.8281ZM1.30278 38.8281V1.47612H-0.697219V38.8281H1.30278ZM0.302781 2.47612H25.2228V0.476122H0.302781V2.47612ZM24.2228 1.47612V12.1161H26.2228V1.47612H24.2228ZM25.2228 11.1161H13.8548V13.1161H25.2228V11.1161ZM12.8548 12.1161V15.9241H14.8548V12.1161H12.8548ZM13.8548 16.9241H23.8228V14.9241H13.8548V16.9241ZM22.8228 15.9241V25.7801H24.8228V15.9241H22.8228ZM23.8228 24.7801H13.8548V26.7801H23.8228V24.7801ZM12.8548 25.7801V38.8281H14.8548V25.7801H12.8548ZM50.4175 34.1801L51.3842 33.9239C51.2679 33.4854 50.8711 33.1801 50.4175 33.1801V34.1801ZM40.1135 34.1801V33.1801C39.6429 33.1801 39.236 33.5083 39.1362 33.9682L40.1135 34.1801ZM39.1055 38.8281V39.8281C39.5761 39.8281 39.9831 39.5 40.0828 39.0401L39.1055 38.8281ZM24.7695 38.8281L23.8246 38.5009C23.7187 38.8066 23.7673 39.1446 23.9549 39.4081C24.1425 39.6716 24.446 39.8281 24.7695 39.8281V38.8281ZM37.7055 1.47612V0.476122C37.2794 0.476122 36.9001 0.746184 36.7606 1.14887L37.7055 1.47612ZM52.7135 1.47612L53.6554 1.14005C53.5133 0.741922 53.1363 0.476122 52.7135 0.476122V1.47612ZM66.0415 38.8281V39.8281C66.3667 39.8281 66.6715 39.67 66.8589 39.4043C67.0462 39.1385 67.0926 38.7983 66.9834 38.4921L66.0415 38.8281ZM51.6495 38.8281L50.6829 39.0843C50.7991 39.5228 51.1959 39.8281 51.6495 39.8281V38.8281ZM46.3295 18.1641L45.3551 18.389L45.3576 18.3995L46.3295 18.1641ZM45.6015 13.9641L46.5938 13.8401C46.5313 13.3397 46.1059 12.9641 45.6015 12.9641V13.9641ZM45.0975 13.9641V12.9641C44.5591 12.9641 44.1174 13.3904 44.0982 13.9284L45.0975 13.9641ZM44.4815 18.1641L45.4499 18.4138L45.4517 18.4067L44.4815 18.1641ZM42.6335 25.3321L41.6652 25.0825C41.588 25.3819 41.6537 25.7002 41.8431 25.9446C42.0325 26.1891 42.3243 26.3321 42.6335 26.3321V25.3321ZM48.0655 25.3321V26.3321C48.3722 26.3321 48.6619 26.1914 48.8515 25.9504C49.0411 25.7094 49.1096 25.3948 49.0374 25.0967L48.0655 25.3321ZM50.4175 33.1801H40.1135V35.1801H50.4175V33.1801ZM39.1362 33.9682L38.1282 38.6162L40.0828 39.0401L41.0908 34.3921L39.1362 33.9682ZM39.1055 37.8281H24.7695V39.8281H39.1055V37.8281ZM25.7145 39.1554L38.6505 1.80338L36.7606 1.14887L23.8246 38.5009L25.7145 39.1554ZM37.7055 2.47612H52.7135V0.476122H37.7055V2.47612ZM51.7717 1.81219L65.0997 39.1642L66.9834 38.4921L53.6554 1.14005L51.7717 1.81219ZM66.0415 37.8281H51.6495V39.8281H66.0415V37.8281ZM52.6162 38.5719L51.3842 33.9239L49.4509 34.4363L50.6829 39.0843L52.6162 38.5719ZM47.3039 17.9393C46.9776 16.5252 46.7588 15.1604 46.5938 13.8401L44.6093 14.0882C44.7802 15.4559 45.0095 16.891 45.3551 18.389L47.3039 17.9393ZM45.6015 12.9641H45.0975V14.9641H45.6015V12.9641ZM44.0982 13.9284C44.0452 15.412 43.8344 16.6295 43.5114 17.9216L45.4517 18.4067C45.8006 17.0108 46.0379 15.6522 46.0969 13.9998L44.0982 13.9284ZM43.5132 17.9145L41.6652 25.0825L43.6019 25.5818L45.4499 18.4138L43.5132 17.9145ZM42.6335 26.3321H48.0655V24.3321H42.6335V26.3321ZM49.0374 25.0967L47.3014 17.9287L45.3576 18.3995L47.0936 25.5675L49.0374 25.0967ZM100.835 42.0761L99.9697 42.578C100.221 43.0118 100.755 43.192 101.219 42.9995L100.835 42.0761ZM98.2026 37.5401L99.0675 37.0382C98.7972 36.5723 98.2063 36.4043 97.7312 36.6582L98.2026 37.5401ZM73.7866 34.2921L74.4892 33.5806L74.4873 33.5787L73.7866 34.2921ZM73.7306 6.40412L74.4315 7.11735L74.4319 7.11695L73.7306 6.40412ZM104.363 6.62812L105.086 5.93818L105.084 5.9359L104.363 6.62812ZM105.987 31.5481L105.195 30.9367C104.9 31.3189 104.92 31.8575 105.243 32.2167L105.987 31.5481ZM111.475 37.6521L111.859 38.5755C112.158 38.451 112.379 38.1889 112.45 37.8725C112.521 37.5561 112.435 37.2247 112.218 36.9835L111.475 37.6521ZM87.0026 23.8201L86.814 22.8381C86.4561 22.9068 86.1639 23.1649 86.0514 23.5115C85.9389 23.8582 86.024 24.2387 86.2734 24.5044L87.0026 23.8201ZM95.4586 22.1961L95.6472 23.1782C96.0176 23.107 96.3165 22.8335 96.4201 22.4708L95.4586 22.1961ZM93.6666 14.5801L94.3737 13.873L94.3737 13.873L93.6666 14.5801ZM83.8666 14.6921L83.1328 14.0127L83.1318 14.0138L83.8666 14.6921ZM84.0346 25.8361L84.7287 25.1163C84.7242 25.1119 84.7196 25.1076 84.715 25.1033L84.0346 25.8361ZM90.4186 27.4601L90.672 28.4275C91.0131 28.3382 91.2819 28.0758 91.3795 27.737C91.4771 27.3981 91.3891 27.0329 91.1478 26.7758L90.4186 27.4601ZM101.7 41.5742L99.0675 37.0382L97.3377 38.042L99.9697 42.578L101.7 41.5742ZM97.7312 36.6582C94.667 38.296 92.2086 38.6681 89.0746 38.6681V40.6681C92.4366 40.6681 95.2422 40.2563 98.674 38.4221L97.7312 36.6582ZM89.0746 38.6681C83.8124 38.6681 78.6975 37.7363 74.4892 33.5806L73.0839 35.0037C77.8357 39.696 83.5848 40.6681 89.0746 40.6681V38.6681ZM74.4873 33.5787C71.5329 30.677 69.1306 26.1143 69.1306 20.1241H67.1306C67.1306 26.678 69.7683 31.7472 73.0859 35.0056L74.4873 33.5787ZM69.1306 20.1241C69.1306 14.3111 71.358 10.1379 74.4315 7.11735L73.0297 5.69089C69.6072 9.05437 67.1306 13.7292 67.1306 20.1241H69.1306ZM74.4319 7.11695C77.714 3.88783 82.3329 1.63612 88.8506 1.63612V-0.363877C81.8163 -0.363877 76.6912 2.08841 73.0293 5.69129L74.4319 7.11695ZM88.8506 1.63612C96.5544 1.63612 101.174 4.74883 103.641 7.32035L105.084 5.9359C102.287 3.01941 97.1628 -0.363877 88.8506 -0.363877V1.63612ZM103.639 7.31806C106.854 10.692 108.515 15.3057 108.515 20.2361H110.515C110.515 14.8626 108.703 9.73228 105.086 5.93818L103.639 7.31806ZM108.515 20.2361C108.515 26.5428 106.071 29.8036 105.195 30.9367L106.778 32.1596C107.806 30.8286 110.515 27.1455 110.515 20.2361H108.515ZM105.243 32.2167L110.731 38.3207L112.218 36.9835L106.73 30.8795L105.243 32.2167ZM111.091 36.7288L100.451 41.1528L101.219 42.9995L111.859 38.5755L111.091 36.7288ZM87.1912 24.8022L95.6472 23.1782L95.27 21.2141L86.814 22.8381L87.1912 24.8022ZM96.4201 22.4708C97.2914 19.4214 96.6211 16.1204 94.3737 13.873L92.9595 15.2872C94.6321 16.9598 95.1938 19.4829 94.4971 21.9214L96.4201 22.4708ZM94.3737 13.873C92.7665 12.2658 90.9347 11.6201 88.7946 11.6201V13.6201C90.4625 13.6201 91.7667 14.0944 92.9595 15.2872L94.3737 13.873ZM88.7946 11.6201C86.7177 11.6201 84.7534 12.2625 83.1328 14.0127L84.6004 15.3715C85.7798 14.0977 87.1755 13.6201 88.7946 13.6201V11.6201ZM83.1318 14.0138C81.6048 15.6681 80.7946 17.9878 80.7946 20.0681H82.7946C82.7946 18.4524 83.4404 16.6281 84.6014 15.3704L83.1318 14.0138ZM80.7946 20.0681C80.7946 22.2612 81.5186 24.8645 83.3541 26.5689L84.715 25.1033C83.4146 23.8958 82.7946 21.907 82.7946 20.0681H80.7946ZM83.3405 26.556C85.1548 28.3055 87.9763 29.1335 90.672 28.4275L90.1652 26.4928C88.1569 27.0187 86.0504 26.3908 84.7287 25.1163L83.3405 26.556ZM91.1478 26.7758L87.7318 23.1358L86.2734 24.5044L89.6894 28.1444L91.1478 26.7758Z" fill="#333333" mask="url(#path-1-inside-1_0_6542)"/>
</svg>
