<svg width="220" height="221" viewBox="0 0 220 221" fill="none" xmlns="http://www.w3.org/2000/svg">
<mask id="mask0_7_17687" style="mask-type:alpha" maskUnits="userSpaceOnUse" x="0" y="0" width="220" height="221">
<rect y="0.344727" width="220" height="220" rx="110" fill="#D9D9D9"/>
</mask>
<g mask="url(#mask0_7_17687)">
<mask id="mask1_7_17687" style="mask-type:luminance" maskUnits="userSpaceOnUse" x="-35" y="0" width="304" height="221">
<path d="M268.438 7.93421C268.438 3.74265 265.04 0.344727 260.848 0.344727H-26.6224C-30.814 0.344727 -34.2119 3.74265 -34.2119 7.9342V212.755C-34.2119 216.947 -30.814 220.345 -26.6224 220.345H260.848C265.04 220.345 268.438 216.947 268.438 212.755V7.93421Z" fill="white"/>
</mask>
<g mask="url(#mask1_7_17687)">
<path d="M282.001 7.51087C282.001 3.31931 278.604 -0.0786133 274.412 -0.0786133H-53.4091C-57.6006 -0.0786133 -60.9985 3.31931 -60.9985 7.51086V241.663C-60.9985 245.855 -57.6006 249.253 -53.4091 249.253H274.412C278.604 249.253 282.001 245.855 282.001 241.663V7.51087Z" fill="#E7EE98"/>
<path d="M90.5284 94.899C92.8151 94.1046 94.2678 91.8753 93.9669 89.4733C93.6582 87.0094 93.0608 85.1128 93.9378 83.3186C95.2218 80.6919 96.508 76.8958 94.7439 75.987C92.3531 74.7566 91.2201 79.5225 91.5185 72.8168C91.77 67.1532 78.4662 73.7605 82.453 80.7542C83.7015 82.9446 84.471 86.4851 84.3144 92.2334C84.2043 96.2884 87.6993 95.8819 90.5284 94.899Z" fill="#FEDCD7"/>
<path d="M100.64 63.797C100.64 63.7966 100.64 63.796 100.64 63.7965C100.634 63.823 100.387 64.9793 100.603 66.8055C100.683 67.4836 100.827 68.2553 101.072 69.0943C101.254 69.7189 101.489 70.3809 101.797 71.0715C101.9 71.3046 102.012 71.5403 102.131 71.7796C102.187 71.8931 102.248 72.004 102.315 72.1112C104.054 74.9761 108.826 75.9871 113.837 75.2379C115.022 75.0608 116.22 74.7853 117.394 74.4126C123.85 72.3668 128.148 67.0785 129.125 64.6213C129.766 63.0057 129.936 60.0486 128.879 56.3311C128.798 56.0429 128.496 55.8804 128.208 55.9623L126.899 56.3348L126.215 56.5293L124.786 56.9357L105.546 62.4035L102.863 63.1652L101.92 63.4333L100.641 63.7972C100.641 63.7972 100.641 63.7972 100.64 63.797Z" fill="#0267A4"/>
<path d="M117.318 69.8017C124.198 67.0117 128.532 61.1058 126.999 56.6105C125.466 52.1151 118.645 50.7326 111.765 53.5226C104.885 56.3125 100.551 62.2184 102.084 66.7138C103.617 71.2091 110.437 72.5916 117.318 69.8017Z" fill="#0267A4"/>
<path opacity="0.15" d="M117.318 69.8017C124.198 67.0117 128.532 61.1058 126.999 56.6105C125.466 52.1151 118.645 50.7326 111.765 53.5226C104.885 56.3125 100.551 62.2184 102.084 66.7138C103.617 71.2091 110.437 72.5916 117.318 69.8017Z" fill="#0D0D1E"/>
<path opacity="0.72" d="M103.106 66.1257C103.052 66.2334 103.001 66.3401 102.952 66.4458C102.09 68.2956 102.782 70.4933 104.601 71.4178C108.008 73.1492 113.007 73.1986 118 71.1884C119.392 70.6275 120.689 69.9454 121.869 69.1722C122.736 68.6046 123.415 67.799 123.897 66.8821C125.323 64.1718 126.233 61.9819 126.697 60.7781C126.949 60.1229 126.981 59.3854 126.624 58.7804C123.236 53.0483 108.673 54.9307 103.106 66.1257Z" fill="white"/>
<path opacity="0.26" d="M101.795 71.0702C101.795 71.0701 101.795 71.0701 101.795 71.0702C101.697 71.3997 101.612 71.7848 101.54 72.2066C101.517 72.3423 101.659 72.4442 101.782 72.3812C101.88 72.3305 101.969 72.2849 102.047 72.2449C102.197 72.168 102.38 72.2212 102.476 72.3595C102.665 72.6308 102.882 72.8842 103.125 73.1197C104.314 74.27 104.627 72.4374 103.549 71.1824C103.33 70.9265 103.152 70.6636 103.021 70.3951C102.84 70.0224 102.657 69.8803 102.483 69.9177C102.425 69.9301 102.368 69.9613 102.313 70.0112C102.122 70.1806 101.945 70.5581 101.795 71.0702C101.795 71.0703 101.795 71.0703 101.795 71.0702Z" fill="#0D0D1E"/>
<path d="M111.408 51.7226C111.407 51.7227 111.408 51.7229 111.408 51.7229C119.148 48.6079 126.897 50.4393 128.717 55.8135C128.774 55.9843 128.826 56.1563 128.87 56.3296C129.882 60.269 127.514 64.9053 123.147 68.2613C121.648 69.4132 119.912 70.4143 117.997 71.186C112.159 73.5359 106.315 73.0709 103.015 70.3956C102.826 70.2435 102.648 70.0852 102.476 69.9181C102.337 69.781 102.202 69.6401 102.074 69.4943C101.463 68.7986 100.992 67.997 100.687 67.0957C100.655 66.9997 100.624 66.9012 100.596 66.804C99.0419 61.4747 103.807 54.7817 111.407 51.7223C111.408 51.7222 111.408 51.7224 111.408 51.7226ZM111.975 53.3993C111.974 53.3997 111.974 53.4 111.973 53.4003C111.352 53.6507 110.752 53.9299 110.179 54.2352C106.102 56.4056 103.326 59.8614 102.855 63.1625C102.71 64.1773 102.783 65.1783 103.102 66.1233C104.608 70.5714 111.023 72.0873 117.429 69.5092C122.91 67.3027 126.61 62.8147 126.621 58.778C126.622 58.0961 126.52 57.4279 126.302 56.7846C126.273 56.6973 126.241 56.6101 126.207 56.5253C124.935 53.2765 120.956 51.6895 116.345 52.2543C114.928 52.4275 113.452 52.8039 111.976 53.3984C111.975 53.3986 111.975 53.3989 111.975 53.3993Z" fill="#0267A4"/>
<path opacity="0.24" d="M111.408 51.7226C111.407 51.7227 111.408 51.7229 111.408 51.7229C119.148 48.6079 126.897 50.4393 128.717 55.8135C128.774 55.9843 128.826 56.1563 128.87 56.3296C129.882 60.269 127.514 64.9053 123.147 68.2613C121.648 69.4132 119.912 70.4143 117.997 71.186C112.159 73.5359 106.315 73.0709 103.015 70.3956C102.826 70.2435 102.648 70.0852 102.476 69.9181C102.337 69.781 102.202 69.6401 102.074 69.4943C101.463 68.7986 100.992 67.997 100.687 67.0957C100.655 66.9997 100.624 66.9012 100.596 66.804C99.0419 61.4747 103.807 54.7817 111.407 51.7223C111.408 51.7222 111.408 51.7224 111.408 51.7226ZM111.975 53.3993C111.974 53.3997 111.974 53.4 111.973 53.4003C111.352 53.6507 110.752 53.9299 110.179 54.2352C106.102 56.4056 103.326 59.8614 102.855 63.1625C102.71 64.1773 102.783 65.1783 103.102 66.1233C104.608 70.5714 111.023 72.0873 117.429 69.5092C122.91 67.3027 126.61 62.8147 126.621 58.778C126.622 58.0961 126.52 57.4279 126.302 56.7846C126.273 56.6973 126.241 56.6101 126.207 56.5253C124.935 53.2765 120.956 51.6895 116.345 52.2543C114.928 52.4275 113.452 52.8039 111.976 53.3984C111.975 53.3986 111.975 53.3989 111.975 53.3993Z" fill="white"/>
<path d="M71.9268 85.1758C71.9267 85.1755 71.9263 85.1756 71.9263 85.1759C71.9293 86.0116 72.4374 86.7571 73.9854 86.6014C74.0597 86.5939 74.1466 86.5777 74.2472 86.5552C74.2742 86.5479 74.3022 86.5418 74.3302 86.5345C74.3313 86.5342 74.3316 86.534 74.3327 86.534C74.3338 86.534 74.3358 86.5339 74.337 86.5336C74.3822 86.5212 74.4296 86.5077 74.4793 86.4941C78.5473 85.2874 96.8841 74.9065 101.488 72.5341C101.874 72.3359 102.155 72.1925 102.313 72.1115C102.342 72.0969 102.366 72.0847 102.387 72.0749C102.389 72.0744 102.39 72.0742 102.391 72.0739C102.393 72.0735 102.395 72.0711 102.397 72.07C102.4 72.0685 102.402 72.0669 102.405 72.0656C102.408 72.0643 102.411 72.0633 102.414 72.0618C102.415 72.0611 102.417 72.0604 102.418 72.0598C102.422 72.0583 102.425 72.0569 102.429 72.0554C102.429 72.055 102.43 72.0547 102.431 72.0544C102.434 72.0533 102.436 72.0518 102.439 72.0507C102.443 72.0492 102.446 72.047 102.45 72.0453C102.659 71.9452 102.723 71.6394 102.687 71.2625C102.65 70.8785 102.51 70.4173 102.314 70.0133C102.001 69.3663 101.542 68.8664 101.133 69.0671C101.118 69.0734 101.098 69.0833 101.071 69.097C99.3811 69.9036 74.0574 82.5385 72.8284 83.2416C72.3817 83.4982 71.9247 84.3771 71.9274 85.1757C71.9274 85.176 71.9269 85.1761 71.9268 85.1758Z" fill="#0267A4"/>
<path opacity="0.2" d="M71.9282 85.1762C71.9275 85.1755 71.9263 85.176 71.9263 85.177C71.9297 86.0124 72.438 86.7572 73.9854 86.6016C74.0597 86.5941 74.1466 86.5779 74.2472 86.5554C74.2742 86.5493 74.3022 86.542 74.3302 86.5347C74.3313 86.5344 74.3316 86.5342 74.3327 86.5342C74.3338 86.5342 74.3358 86.5341 74.337 86.5338C74.3822 86.5215 74.4296 86.5091 74.4793 86.4943C78.5473 85.2876 96.8841 74.9067 101.488 72.5343C101.874 72.3361 102.155 72.1927 102.313 72.1117C102.342 72.0971 102.366 72.0849 102.387 72.0751C102.389 72.0746 102.39 72.0744 102.391 72.0741C102.393 72.0737 102.395 72.0713 102.397 72.0703C102.401 72.0683 102.405 72.0663 102.41 72.0643C102.412 72.063 102.415 72.0617 102.417 72.0606C102.421 72.0586 102.425 72.0565 102.43 72.0549C102.43 72.0547 102.431 72.0546 102.431 72.0545C102.434 72.0535 102.436 72.052 102.439 72.0509C102.443 72.0494 102.446 72.0472 102.45 72.0455C102.48 72.0309 102.508 72.0119 102.532 71.989C102.801 71.7372 102.343 71.4374 102.015 71.6064C96.4601 74.4765 77.068 84.9185 71.929 85.1766C71.9287 85.1766 71.9284 85.1765 71.9282 85.1762Z" fill="#0D0D1E"/>
<path d="M95.5678 78.183C95.5676 78.183 95.5675 78.1829 95.5676 78.1828C96.0169 74.6973 95.7882 74.1525 95.4784 72.9371C95.1685 71.7228 93.601 71.663 93.1562 71.9273C92.7115 72.1916 91.8083 73.8858 92.0827 75.9415C92.3571 77.996 91.9535 79.6865 92.1215 79.7588C92.2891 79.8309 95.5512 78.1918 95.5686 78.183C95.5688 78.1829 95.568 78.183 95.5678 78.183Z" fill="#FEDCD7"/>
<path d="M91.0341 72.2607C91.034 72.2607 91.0339 72.2609 91.0339 72.261C93.1121 75.9809 87.2208 80.1159 85.5378 80.4874C83.8548 80.8602 82.7629 80.2406 82.3239 77.9854C81.8853 75.7324 91.0172 72.2675 91.0349 72.2608C91.0351 72.2607 91.0343 72.2607 91.0341 72.2607Z" fill="#FEDCD7"/>
<path d="M144.065 114.929C144.065 114.929 144.065 114.929 144.065 114.929L152.308 112.417C153.282 112.12 153.963 111.228 153.82 110.22C153.073 104.919 149.138 96.2247 148.499 92.2825C148.399 91.6623 148.221 91.0484 147.987 90.4494C146.326 86.1907 140.724 87.674 139.301 92.0182L139.151 92.4768C139.01 92.9071 138.993 93.3683 139.101 93.808C139.13 93.9269 139.15 94.0473 139.16 94.1694C139.225 94.988 139.472 98.4205 139.285 101.685C139.187 103.414 138.967 105.098 138.534 106.32C137.75 108.528 138.221 111.795 136.063 115.176C134.449 117.704 144.048 114.933 144.065 114.928C144.066 114.928 144.065 114.928 144.065 114.929Z" fill="#FEDCD7"/>
<path opacity="0.14" d="M139.098 93.8085C139.128 93.9274 139.148 94.0478 139.158 94.1699C139.179 94.4336 139.219 94.9685 139.257 95.6816C139.445 99.1963 142.399 102.736 144.707 100.079C146.244 98.3103 146.746 95.7691 145.938 94.7837C145.336 94.0505 143.744 92.7097 142.625 91.8002C141.91 91.2186 140.916 91.1382 140.106 91.5791L139.899 91.692C139.513 91.9018 139.223 92.2508 139.086 92.6676C138.986 92.9735 138.974 93.3013 139.051 93.6139L139.098 93.8085Z" fill="#1F1F3B"/>
<path d="M145.018 80.3979C141.576 78.0092 136.44 78.5128 133.33 81.3209C131.528 82.9491 130.288 84.3542 131.348 85.0958C133.498 86.5993 126.513 92.0397 128.748 93.7289C134.163 97.8229 142.753 98.4737 145.169 96.0564C146.163 95.0621 147.485 93.0498 148.698 91.0253C150.658 87.7547 149.602 83.5791 146.469 81.4053L145.018 80.3979Z" fill="#FEDCD7"/>
<path d="M142.536 83.4244C142.536 83.424 142.536 83.4237 142.536 83.4235C140.662 82.4203 140.346 82.8327 139.5 81.3257C138.654 79.8185 141.84 79.4619 139.8 77.4448C137.761 75.4277 135.348 73.5129 136.77 70.4922C138.828 66.1202 141.799 69.1184 143.587 71.052C144.738 72.2961 146.906 69.3665 149.485 71.3736C151.508 72.9481 150.489 74.1075 152.239 75.5998C153.295 76.5011 156.661 76.0224 157.552 78.7314C159.204 83.7566 154.536 85.2177 155.534 90.0435C156.698 95.6722 145.167 97.8139 144.833 96.3392C144.443 94.6175 147.956 92.1068 147.44 90.5746C146.661 88.2646 145.656 89.5362 143.637 89.9488C141.48 90.3889 138.943 88.7208 142.102 87.1613C145.262 85.6031 144.233 84.3341 142.537 83.4253C142.536 83.4252 142.536 83.4248 142.536 83.4244Z" fill="#1F1F3B"/>
<path d="M181.608 227.178C181.608 227.178 181.608 227.178 181.608 227.178C181.454 229.341 181.249 231.693 180.971 234.269C179.927 243.932 177.725 276.522 178.263 297.224C178.731 315.156 177.524 353.998 177.204 368.626C177.14 371.548 175.487 374.407 172.61 374.923C170.339 375.331 168.117 375.157 165.323 374.637C161.95 374.008 159.552 371.034 159.422 367.605C158.959 355.327 157.81 325.61 156.566 298.823C155.255 270.561 154.877 273.391 150.116 237.407C150.115 237.406 150.113 237.405 150.112 237.407C150.059 237.574 148.898 241.08 147.208 246.474C143.593 257.989 137.553 278.11 134.657 292.676C130.401 314.1 132.251 367.967 130.894 375.786C130.785 376.419 130.341 376.867 129.779 377.178C124.718 379.973 117.234 380.354 113.935 377.042C113.121 376.224 112.901 375.041 112.885 373.887C112.738 362.722 112.015 301.32 113.834 290.898C115.095 283.653 125.068 217.19 128.532 191.303C128.952 188.164 131.233 185.628 134.345 185.033C147.23 182.569 179.984 177.819 181.226 192.906C181.436 195.477 181.499 197.747 181.471 199.912C181.43 202.832 181.579 205.536 181.723 208.503C181.959 213.349 182.193 218.883 181.609 227.178C181.609 227.178 181.608 227.178 181.608 227.178Z" fill="#3B3B4D"/>
<path opacity="0.43" d="M181.936 214.613C182.025 218.587 178.347 220.668 174.647 219.217C171.808 218.104 168.572 216.571 165.791 214.578C161.543 211.534 164.834 206.798 170.035 207.304C172.17 207.512 174.362 207.729 176.336 207.929C179.445 208.245 181.866 211.49 181.936 214.613Z" fill="#1F1F3B"/>
<path d="M151.582 102.266C151.582 102.266 151.582 102.266 151.581 102.266C147.21 100.973 146.783 108.85 142.376 109.23C140.049 109.431 140.563 108.325 139.464 107.156C138.787 106.437 138.152 105.629 137.083 106.826C115.329 131.164 137.981 192.531 135.213 196.813C132.948 200.316 151.358 207.959 162.921 204.884C178.778 200.668 177.814 181.89 177.355 178.304C176.962 175.239 169.445 130.275 167.267 117.264C166.893 115.028 165.543 113.109 163.652 111.859C160.67 109.887 155.943 106.502 151.583 102.267C151.583 102.267 151.583 102.266 151.582 102.266Z" fill="white"/>
<path d="M96.0563 88.3076C96.3547 93.9936 95.4606 127.95 98.5888 127.788C104.82 127.465 115.194 117.039 128.686 110.296C132.922 108.179 137.292 111.181 136.923 115.902C136.796 117.525 136.616 119.39 136.363 121.519C134.699 135.557 141.946 145.544 140.477 162.531C138.577 184.502 143.538 206.939 138.577 211.892C135.686 214.778 131.679 215.333 126.839 209.855C119.227 201.235 124.23 172.949 124.925 166.234C125.195 163.618 125.79 160.095 126.3 156.442C126.93 151.901 126.03 144.665 124.201 142.667C120.362 138.472 98.4413 151.67 87.5636 146.308C79.279 142.224 82.5855 92.6235 82.6461 90.9069C82.7948 86.6832 95.9511 86.2893 96.0563 88.3076Z" fill="#0069A8"/>
<path d="M151.524 152.219C152.213 161.578 155.434 175.06 157.515 182.581C160.468 193.268 157.903 200.205 159.177 205.512C159.515 206.931 160.129 208.231 161.196 209.46C167.297 216.464 176.52 216.323 183.45 211.594C187.167 209.062 183.15 192.924 180.329 179.602C180.329 179.601 180.328 179.6 180.328 179.599C180.327 179.598 180.326 179.597 180.326 179.596C180.075 178.406 179.832 177.237 179.605 176.103C178.674 171.445 178.009 167.363 178.058 164.673C178.093 162.626 178.149 160.935 178.203 159.442V159.439C178.241 158.466 178.281 157.57 178.315 156.714C178.329 156.41 178.342 156.112 178.355 155.814C178.479 152.972 178.57 150.377 178.492 146.22C178.455 144.184 178.377 141.778 178.248 138.781C177.843 129.652 175.451 117.163 171.647 112.843C167.282 107.883 162.458 105.247 158.635 103.848C154.825 102.454 151.373 105.452 151.205 109.505C150.784 119.657 150.42 137.215 151.524 152.22V152.219Z" fill="#0069A8"/>
<path d="M158.705 126.047C158.705 126.047 158.706 126.047 158.706 126.047C173.257 153.424 187.779 171.218 195.609 172.772C202.052 174.049 236.165 156.98 240.456 155.695C243.101 154.903 240.348 140.527 238.854 139.007C236.413 136.524 207.873 152.373 199.524 150.456C192.761 148.904 174.634 116.718 171.557 112.829C168.48 108.94 155.194 107.267 155.336 114.226C155.478 121.179 158.698 126.037 158.704 126.047C158.705 126.047 158.705 126.047 158.705 126.047Z" fill="#0069A8"/>
<path opacity="0.25" d="M170.903 144.624C170.903 144.624 170.903 144.624 170.903 144.624C170.903 144.633 171.309 159.672 176.081 170.295C176.823 171.948 178.671 171.187 178.423 169.393C178.169 167.56 178.029 165.956 178.052 164.669C178.088 162.622 178.144 160.932 178.197 159.438V159.436C178.198 159.427 178.198 159.419 178.198 159.41C178.255 157.965 177.909 156.534 177.18 155.285L172.179 146.709L170.902 144.625C170.902 144.625 170.902 144.624 170.903 144.624Z" fill="#1F1F3B"/>
<path opacity="0.16" d="M142.23 111.716C142.23 111.716 142.23 111.716 142.23 111.716C142.588 111.483 145.887 118.919 150.556 121.466C151.846 122.172 153.241 122.672 154.705 122.799C157.466 123.038 165.973 122.407 171.67 121.928C174.176 121.718 175.862 119.425 174.357 117.411C173.582 116.374 171.87 115.577 170.611 115.881C165.751 117.056 157.23 118.464 155.308 118.189C153.651 117.951 152.095 117.411 150.659 116.699C147.957 115.363 145.68 113.418 143.963 111.735C143.087 110.876 142.99 109.601 141.912 109.527C140.482 109.428 141.774 112.021 142.23 111.717C142.23 111.717 142.23 111.716 142.23 111.716Z" fill="#1F1F39"/>
<path d="M140.146 109.68C140.212 108.932 140.74 107.734 142.219 107.836C143.332 107.912 143.41 108.399 144.315 109.287C147.035 111.954 151.115 115.252 156.045 115.96C160.975 116.669 172.462 110.036 179.731 111.931C187.002 113.826 189.027 120.893 199.541 122.974C210.055 125.055 221.553 120.596 224.654 121.251C227.755 121.907 229.622 122.686 229.505 124.003C229.389 125.318 227.774 127.457 225.557 128.332C223.34 129.207 204.01 130.088 198.938 129.219C190.658 127.801 183.741 119.598 178.399 118.946C173.057 118.294 161.69 121.267 155.421 120.725C148.429 120.121 142.981 111.259 142.51 111.576C142.039 111.893 141.602 112.202 140.711 111.936C140.098 111.754 140.079 110.427 140.146 109.68Z" fill="#F4AD00"/>
<path d="M166.776 69.0871C166.776 69.0875 166.776 69.0879 166.776 69.0882C165.583 70.6299 163.472 70.8255 162.058 69.5253C161.686 69.1837 161.399 68.7723 161.2 68.3235C161.051 67.987 160.951 67.6279 160.903 67.2626C160.769 66.2653 161.013 65.2119 161.657 64.3804C162.849 62.8383 164.961 62.6425 166.375 63.9415C167.292 64.7843 167.69 66.0496 167.531 67.2552C167.509 67.4197 167.477 67.5818 167.435 67.7426C167.309 68.2224 167.09 68.681 166.777 69.086C166.777 69.0863 166.776 69.0867 166.776 69.0871Z" fill="#0267A4"/>
<path opacity="0.28" d="M166.771 69.0876C166.771 69.088 166.771 69.0884 166.77 69.0888C165.578 70.6304 163.466 70.826 162.052 69.5258C161.712 69.2134 162.095 68.8198 162.523 68.9911C165.309 70.1043 166.601 68.6302 167.385 67.2159C167.425 67.1422 167.534 67.1718 167.525 67.2557C167.504 67.4202 167.472 67.5823 167.429 67.7431C167.304 68.2229 167.084 68.6815 166.771 69.0865C166.771 69.0868 166.771 69.0872 166.771 69.0876Z" fill="#1F1F39"/>
<path fill-rule="evenodd" clip-rule="evenodd" d="M164.195 63.9877C164.202 63.9178 164.26 63.8674 164.324 63.875C164.489 63.8947 164.659 63.9341 164.834 63.9982C164.896 64.0205 164.928 64.0926 164.908 64.1593C164.887 64.2259 164.821 64.2618 164.76 64.2394C164.601 64.1812 164.447 64.1457 164.298 64.128C164.234 64.1204 164.188 64.0575 164.195 63.9877Z" fill="white"/>
<path fill-rule="evenodd" clip-rule="evenodd" d="M163.968 63.9873C163.975 64.0571 163.929 64.12 163.865 64.1278C162.875 64.2488 162.164 65.2034 161.904 65.9716C161.881 66.0375 161.814 66.0711 161.754 66.0468C161.694 66.0225 161.663 65.9493 161.685 65.8834C161.962 65.0659 162.728 64.0109 163.839 63.8751C163.903 63.8672 163.961 63.9175 163.968 63.9873Z" fill="white"/>
<path d="M169.348 61.7027C169.348 61.7031 169.348 61.7037 169.348 61.7042C168.312 63.817 164.411 61.1546 165.162 59.5417C165.913 57.9272 167.919 51.8485 172.001 50.5645C175.616 49.172 180.477 49.4525 182.377 45.0667C184.315 41.3878 182.639 38.6215 179.308 36.759C176.083 34.9539 172.915 35.5248 171.243 38.9781C169.846 41.8628 165.251 39.8819 167.597 35.8165C174.554 23.7589 192.824 34.8155 186.837 47.5114C184.283 53.0827 180.208 53.1077 175.42 54.4466C172.141 55.2905 170.384 59.5868 169.348 61.7014C169.348 61.7018 169.348 61.7024 169.348 61.7027Z" fill="#0267A4"/>
<path fill-rule="evenodd" clip-rule="evenodd" d="M178.547 32.2693C178.567 32.1978 178.636 32.1573 178.702 32.1789C178.913 32.2484 179.126 32.3267 179.341 32.4151C179.406 32.4414 179.438 32.5195 179.414 32.5894C179.39 32.6594 179.318 32.6948 179.254 32.6684C179.044 32.5822 178.836 32.5058 178.63 32.438C178.565 32.4164 178.528 32.3409 178.547 32.2693Z" fill="white"/>
<path fill-rule="evenodd" clip-rule="evenodd" d="M177.692 32.1828C173.002 31.21 170.021 34.4242 169.075 36.5923C169.046 36.6597 168.972 36.6884 168.91 36.6563C168.848 36.6243 168.822 36.5436 168.851 36.4761C169.831 34.2285 172.909 30.9153 177.739 31.9171C177.806 31.931 177.85 32.0019 177.838 32.0752C177.825 32.1486 177.76 32.1968 177.692 32.1828Z" fill="white"/>
<path d="M200.286 51.3685C200.286 51.3693 200.285 51.3701 200.285 51.3708C199.639 52.2447 198.697 53.4972 197.459 55.1321C196.22 56.7665 194.864 58.5193 193.391 60.3868C191.919 62.2543 190.427 64.1068 188.916 65.9406C187.574 67.5712 186.367 68.9861 185.295 70.1856C185.036 70.4754 184.696 70.702 184.309 70.673C184.074 70.6555 183.846 70.6106 183.622 70.5383C183.396 70.4673 183.186 70.3763 182.991 70.2653C182.794 70.1556 182.63 70.0421 182.5 69.9275C181.957 69.4512 181.631 68.8815 181.518 68.2195C181.406 67.5576 181.667 66.6924 182.303 65.6228C182.854 64.6678 183.757 63.2691 185.011 61.4277C186.264 59.5864 187.634 57.5968 189.121 55.4588C190.607 53.322 192.095 51.2164 193.582 49.1407C194.548 47.794 195.424 46.5808 196.212 45.5004C196.976 44.4531 198.171 43.6619 199.425 43.9895C200.083 44.1616 200.647 44.4533 201.115 44.8634C201.881 45.5366 202.208 46.4205 202.097 47.5101C201.984 48.6006 201.381 49.8868 200.288 51.3661C200.287 51.3669 200.287 51.3676 200.286 51.3685Z" fill="#F4AD00"/>
<path d="M181.633 77.341C180.3 78.7385 178.18 78.6924 176.898 77.2388C176.561 76.8561 176.315 76.4148 176.161 75.946C176.044 75.5945 175.98 75.2267 175.967 74.8564C175.929 73.8491 176.273 72.8294 176.992 72.0764C178.325 70.6789 180.445 70.725 181.727 72.1786C182.558 73.1211 182.832 74.4251 182.559 75.6057C182.523 75.7665 182.475 75.9248 182.417 76.0794C182.246 76.5419 181.984 76.9733 181.633 77.341Z" fill="#F4AD00"/>
<path opacity="0.15" d="M181.628 77.342C180.295 78.7395 178.175 78.6934 176.894 77.2398C176.59 76.8947 177.008 76.545 177.414 76.762C180.076 78.1863 181.502 76.8695 182.417 75.5528C182.466 75.4823 182.571 75.5226 182.554 75.6067C182.518 75.7675 182.47 75.9258 182.413 76.0804C182.241 76.5429 181.979 76.9743 181.628 77.342Z" fill="#9B5612"/>
<path fill-rule="evenodd" clip-rule="evenodd" d="M179.551 71.9736C179.565 71.9049 179.627 71.8612 179.69 71.8759C179.853 71.914 180.019 71.9731 180.187 72.0567C180.245 72.086 180.271 72.1615 180.244 72.2254C180.217 72.2893 180.148 72.3174 180.09 72.2882C179.937 72.2122 179.787 72.1589 179.641 72.1247C179.578 72.11 179.538 72.0423 179.551 71.9736Z" fill="white"/>
<path fill-rule="evenodd" clip-rule="evenodd" d="M179.325 71.9482C179.325 72.0184 179.274 72.0758 179.209 72.0763C178.213 72.0846 177.415 72.9528 177.081 73.6873C177.052 73.7503 176.982 73.776 176.925 73.7449C176.867 73.7137 176.843 73.6374 176.872 73.5745C177.227 72.7931 178.089 71.8313 179.207 71.822C179.272 71.8215 179.324 71.878 179.325 71.9482Z" fill="white"/>
<path d="M206.415 70.718C206.414 70.7184 206.414 70.7188 206.413 70.7192C205.859 71.1517 205.055 71.7686 203.999 72.5724C202.943 73.3753 201.793 74.2317 200.551 75.138C199.308 76.0456 198.055 76.9382 196.794 77.8159C195.676 78.5943 194.679 79.2612 193.803 79.8184C193.585 79.9566 193.327 80.0361 193.086 79.9439C192.94 79.8878 192.801 79.8142 192.67 79.7257C192.538 79.6372 192.418 79.5387 192.312 79.4303C192.205 79.3231 192.119 79.2183 192.054 79.1199C191.785 78.711 191.67 78.2846 191.705 77.8408C191.742 77.397 192.048 76.8958 192.629 76.3361C193.135 75.8337 193.939 75.1156 195.038 74.1831C196.137 73.2506 197.334 72.2458 198.629 71.1699C199.924 70.0941 201.215 69.0381 202.501 68.0022C203.323 67.3408 204.067 66.745 204.737 66.2147C205.414 65.6783 206.326 65.3988 207.066 65.8455C207.458 66.0823 207.77 66.3778 208.001 66.7293C208.38 67.3065 208.446 67.9336 208.196 68.6068C207.947 69.2811 207.354 69.984 206.416 70.7169C206.415 70.7172 206.415 70.7176 206.415 70.718Z" fill="#0267A4"/>
<path d="M190.291 83.6837C190.291 83.6837 190.291 83.6839 190.291 83.684C189.213 84.3168 187.869 83.8792 187.288 82.7038C187.135 82.3946 187.05 82.0655 187.027 81.7364C187.01 81.4895 187.028 81.2427 187.08 81.0046C187.219 80.3551 187.605 79.7704 188.185 79.4288C189.264 78.7955 190.608 79.2343 191.189 80.4087C191.566 81.1704 191.53 82.0555 191.163 82.7561C191.112 82.8509 191.057 82.9431 190.996 83.0304C190.812 83.2921 190.574 83.5163 190.291 83.6834C190.291 83.6835 190.291 83.6837 190.291 83.6837Z" fill="#0267A4"/>
<path opacity="0.28" d="M190.302 83.6796C190.302 83.6799 190.302 83.6803 190.301 83.6805C189.223 84.3133 187.879 83.8757 187.298 82.7003C187.165 82.431 187.487 82.2817 187.702 82.4912C189.171 83.919 190.295 83.3554 191.093 82.692C191.138 82.6551 191.2 82.6996 191.174 82.7514C191.124 82.8462 191.069 82.9384 191.007 83.0257C190.823 83.2873 190.586 83.5116 190.302 83.6786C190.302 83.6788 190.302 83.6792 190.302 83.6796Z" fill="#1F1F39"/>
<path fill-rule="evenodd" clip-rule="evenodd" d="M189.841 79.8545C189.861 79.8133 189.907 79.7971 189.945 79.8186C190.044 79.8741 190.14 79.945 190.233 80.0295C190.265 80.0592 190.27 80.1123 190.243 80.148C190.215 80.1838 190.167 80.1886 190.134 80.1588C190.048 80.0812 189.961 80.0173 189.874 79.9681C189.836 79.9466 189.822 79.8958 189.841 79.8545Z" fill="white"/>
<path fill-rule="evenodd" clip-rule="evenodd" d="M189.611 79.8552C188.974 79.6671 188.322 80.0675 187.991 80.4712C187.962 80.5059 187.913 80.5088 187.882 80.4778C187.85 80.4468 187.847 80.3936 187.876 80.3589C188.228 79.9293 188.936 79.4815 189.651 79.6926C189.692 79.7048 189.717 79.751 189.706 79.7959C189.694 79.8408 189.652 79.8673 189.611 79.8552Z" fill="white"/>
<path opacity="0.15" d="M-44.8911 140.842C-45.0545 142.668 -8.64968 142.697 12.0286 142.697C32.707 142.697 80.0467 142.036 80.9225 140.748C82.4031 138.572 43.8133 138.315 23.135 138.315C2.45666 138.315 -44.6887 138.569 -44.8911 140.841V140.842Z" fill="#32323F"/>
<path d="M52.5126 130.046C52.3559 132.361 57.7056 135.535 51.822 138.024C47.2841 139.944 7.2606 135.227 -4.26534 139.711C-4.50611 139.805 -5.89608 139.633 -6.57825 139.54C-6.83006 139.505 -7.07435 139.441 -7.30594 139.336C-7.8764 139.079 -9.00005 138.505 -9.57613 137.763C-14.2638 131.718 -15.7593 73.8889 -19.0647 64.6848C-21.0964 59.0262 -27.4533 56.5853 -29.5353 56.4706C-35.1719 56.1589 -24.2337 49.3223 -16.4201 49.2998C-8.60658 49.2786 31.2969 44.4852 37.2594 60.713C40.6379 69.9083 41.6452 111.351 45.241 123.006C45.7566 124.68 46.3306 125.739 46.9777 125.995C50.5804 127.424 48.8105 130.318 51.6139 129.082C52.8236 128.547 52.5606 129.35 52.5126 130.048V130.046Z" fill="white"/>
<g opacity="0.81">
<path opacity="0.75" d="M23.2303 88.7047V89.9526C23.2303 90.4476 22.981 90.8502 22.6735 90.8502H12.34C12.0324 90.8502 11.7832 90.4488 11.7832 89.9526V88.7047C11.7832 88.2098 12.0324 87.8071 12.34 87.8071H22.6735C22.981 87.8071 23.2303 88.2086 23.2303 88.7047Z" fill="#3B3B4C"/>
<path opacity="0.75" d="M28.7663 88.8063V90.0542C28.7663 90.5491 28.5171 90.9518 28.2095 90.9518H26.5768C26.2693 90.9518 26.02 90.5504 26.02 90.0542V88.8063C26.02 88.3114 26.2693 87.9087 26.5768 87.9087H28.2095C28.5171 87.9087 28.7663 88.3101 28.7663 88.8063Z" fill="#3B3B4C"/>
<path opacity="0.75" d="M2.24821 98.321H14.9358C15.2433 98.321 15.4926 98.7536 15.4926 99.2872V100.63C15.4926 101.163 15.2433 101.596 14.9358 101.596H2.24821C1.94065 101.596 1.69141 101.163 1.69141 100.63V99.2872C1.69141 98.7536 1.94065 98.321 2.24821 98.321Z" fill="#3B3B4C"/>
<path opacity="0.75" d="M-1.6556 68.291H6.67015C6.97771 68.291 7.22696 68.6638 7.22696 69.1225V70.2782C7.22696 70.737 6.97771 71.1097 6.67015 71.1097H-1.6556C-1.96316 71.1097 -2.2124 70.737 -2.2124 70.2782V69.1225C-2.2124 68.6638 -1.96316 68.291 -1.6556 68.291Z" fill="#3B3B4C"/>
<path opacity="0.75" d="M19.5714 69.1225V70.2782C19.5714 70.737 19.3221 71.1097 19.0146 71.1097H11.4274C11.1199 71.1097 10.8706 70.737 10.8706 70.2782V69.1225C10.8706 68.6638 11.1199 68.291 11.4274 68.291H19.0146C19.3221 68.291 19.5714 68.6638 19.5714 69.1225Z" fill="#3B3B4C"/>
<path opacity="0.75" d="M28.2143 69.1225V70.2782C28.2143 70.737 27.965 71.1097 27.6575 71.1097H23.3688C23.0613 71.1097 22.812 70.737 22.812 70.2782V69.1225C22.812 68.6638 23.0613 68.291 23.3688 68.291H27.6575C27.965 68.291 28.2143 68.6638 28.2143 69.1225Z" fill="#3B3B4C"/>
<path opacity="0.75" d="M-0.321615 78.0505H14.1621C14.4697 78.0505 14.7189 78.4345 14.7189 78.9082V80.1013C14.7189 80.575 14.4697 80.959 14.1621 80.959H-0.321615C-0.629172 80.959 -0.878418 80.575 -0.878418 80.1013V78.9082C-0.878418 78.4345 -0.629172 78.0505 -0.321615 78.0505Z" fill="#3B3B4C"/>
<path opacity="0.75" d="M27.8329 78.9082V80.1013C27.8329 80.575 27.5837 80.959 27.2761 80.959H17.926C17.6184 80.959 17.3691 80.575 17.3691 80.1013V78.9082C17.3691 78.4345 17.6184 78.0505 17.926 78.0505H27.2761C27.5837 78.0505 27.8329 78.4345 27.8329 78.9082Z" fill="#3B3B4C"/>
<path opacity="0.75" d="M1.38493 87.8071H8.56735C8.87491 87.8071 9.12415 88.2086 9.12415 88.7047V89.9526C9.12415 90.4476 8.87491 90.8502 8.56735 90.8502H1.38493C1.07737 90.8502 0.828125 90.4488 0.828125 89.9526V88.7047C0.828125 88.2098 1.07737 87.8071 1.38493 87.8071Z" fill="#3B3B4C"/>
<path opacity="0.75" d="M17.6886 98.3206H24.6527C24.9602 98.3206 25.2095 98.7531 25.2095 99.2867V100.629C25.2095 101.163 24.9602 101.596 24.6527 101.596H17.6886C17.3811 101.596 17.1318 101.163 17.1318 100.629V99.2867C17.1318 98.7531 17.3811 98.3206 17.6886 98.3206Z" fill="#3B3B4C"/>
<path opacity="0.75" d="M34.0585 99.2867V100.629C34.0585 101.163 33.8092 101.596 33.5017 101.596H27.3219C27.0144 101.596 26.7651 101.163 26.7651 100.629V99.2867C26.7651 98.7531 27.0144 98.3206 27.3219 98.3206H33.5017C33.8092 98.3206 34.0585 98.7531 34.0585 99.2867Z" fill="#3B3B4C"/>
</g>
<path d="M40.414 89.5394C40.414 88.2285 39.3513 87.1658 38.0404 87.1658H37.4654C36.1545 87.1658 35.0918 88.2285 35.0918 89.5394C35.0918 90.8503 36.1545 91.913 37.4654 91.913H38.0404C39.3513 91.913 40.414 90.8503 40.414 89.5394Z" fill="white"/>
<path d="M69.0083 138.41C69.0083 138.41 69.0082 138.411 69.0081 138.411C67.8963 141.093 35.1118 140.993 34.4362 137.494C33.988 135.174 33.4015 111.394 33.4929 94.8649C33.5398 86.4686 33.7627 79.9436 34.267 79.0498C36.1832 75.6551 66.557 75.7461 68.5852 78.5411C69.1455 79.3128 69.5239 86.981 69.7171 96.5927C70.0578 113.501 69.8258 136.426 69.0085 138.409C69.0083 138.409 69.0083 138.41 69.0083 138.41Z" fill="#1785BC"/>
<path d="M69.5345 89.8862C69.6651 93.7158 66.8561 96.9746 63.0293 97.1726C56.0205 97.5352 46.6404 97.5007 39.7237 96.9759C36.0861 96.6999 33.4925 93.5813 33.5611 89.9339C33.6686 84.2229 33.8878 79.7145 34.2618 79.0515C36.1781 75.6568 66.5519 75.7478 68.5801 78.5428C69.0016 79.1234 69.3202 83.6076 69.5345 89.8862Z" fill="#056291"/>
<g opacity="0.95">
<path d="M37.2234 82.8673C37.2234 82.867 37.2231 82.8669 37.223 82.8671C36.1132 84.0802 36.2093 91.7566 37.1102 92.3662C38.0123 92.9745 64.2175 95.3993 64.9195 92.4273C65.5952 89.5649 65.4614 85.0508 64.9069 83.2768C64.5685 82.1948 38.8791 81.0629 37.2237 82.8675C37.2236 82.8677 37.2234 82.8675 37.2234 82.8673Z" fill="white"/>
</g>
<path d="M33.8278 137.541C33.8278 137.541 33.828 137.541 33.828 137.541C33.9615 137.864 34.0927 138.033 34.9162 138.246C35.107 138.295 35.2867 138.15 35.2556 137.956C34.1317 130.914 33.9275 81.2729 35.4056 79.2364C37.157 76.8247 61.0286 76.387 68.49 78.5069C68.5216 78.5159 68.5447 78.4836 68.5291 78.4547C66.6129 75.0601 36.2791 74.8781 34.2508 77.6718C32.7051 79.7998 32.5461 134.43 33.8276 137.541C33.8277 137.541 33.8278 137.541 33.8278 137.541Z" fill="#48485B"/>
<g opacity="0.88">
<path d="M42.4561 106.202L38.228 106.407C37.6575 106.407 37.1602 105.585 37.1602 104.824V102.79C37.1602 102.029 37.6747 101.158 38.2452 101.158L42.4561 101.088C43.0266 101.088 43.4885 101.705 43.4885 102.465V104.824C43.4885 105.585 43.0266 106.202 42.4561 106.202Z" fill="#3B3B4C"/>
</g>
<g opacity="0.88">
<path d="M50.5083 106.041L46.2803 106.246C45.7098 106.246 45.2124 105.423 45.2124 104.663V102.628C45.2124 101.868 45.7269 100.997 46.2974 100.997L50.5083 100.927C51.0788 100.927 51.5408 101.544 51.5408 102.304V104.663C51.5408 105.423 51.0788 106.041 50.5083 106.041Z" fill="#3B3B4C"/>
</g>
<g opacity="0.88">
<path d="M58.1397 106.04L53.9116 106.246C53.3411 106.246 52.8438 105.423 52.8438 104.663V102.628C52.8438 101.868 53.3582 100.996 53.9288 100.996L58.1397 100.927C58.7102 100.927 59.1721 101.544 59.1721 102.304V104.663C59.1721 105.423 58.7102 106.04 58.1397 106.04Z" fill="#3B3B4C"/>
</g>
<g opacity="0.88">
<path d="M66.106 106.169L61.8779 106.375C61.3074 106.375 60.8101 105.552 60.8101 104.792V102.757C60.8101 101.997 61.3246 101.125 61.8951 101.125L66.106 101.056C66.6765 101.056 67.1384 101.673 67.1384 102.433V104.792C67.1384 105.552 66.6765 106.169 66.106 106.169Z" fill="#3B3B4C"/>
</g>
<g opacity="0.95">
<path d="M42.1983 105.833C42.198 105.834 42.1975 105.834 42.197 105.834L38.0761 106.031C37.5204 106.031 37.0356 105.242 37.0356 104.511V102.559C37.0356 101.828 37.5376 100.993 38.0932 100.993L42.1989 100.927C42.7546 100.927 43.2051 101.519 43.2051 102.248V104.511C43.2051 105.241 42.7551 105.832 42.1998 105.833C42.1993 105.833 42.1987 105.833 42.1983 105.833Z" fill="white"/>
</g>
<g opacity="0.95">
<path d="M50.233 105.833C50.2327 105.834 50.2322 105.834 50.2316 105.834L46.1107 106.031C45.5551 106.031 45.0703 105.242 45.0703 104.511V102.559C45.0703 101.828 45.5722 100.993 46.1279 100.993L50.2336 100.927C50.7893 100.927 51.2397 101.519 51.2397 102.248V104.511C51.2397 105.241 50.7897 105.832 50.2345 105.833C50.2339 105.833 50.2334 105.833 50.233 105.833Z" fill="white"/>
</g>
<g opacity="0.95">
<path d="M57.9503 105.833C57.9499 105.833 57.9495 105.833 57.9489 105.833L53.828 106.03C53.2724 106.03 52.7876 105.241 52.7876 104.511V102.558C52.7876 101.828 53.2895 100.993 53.8452 100.993L57.9509 100.927C58.5066 100.927 58.957 101.519 58.957 102.248V104.511C58.957 105.241 58.507 105.831 57.9518 105.832C57.9512 105.832 57.9507 105.832 57.9503 105.833Z" fill="white"/>
</g>
<g opacity="0.95">
<path d="M65.8439 105.832C65.8435 105.832 65.843 105.833 65.8425 105.833L61.7216 106.03C61.1659 106.03 60.6812 105.24 60.6812 104.51V102.558C60.6812 101.827 61.1831 100.992 61.7387 100.992L65.8445 100.926C66.4001 100.926 66.8506 101.518 66.8506 102.247V104.51C66.8506 105.24 66.4006 105.831 65.8453 105.831C65.8448 105.831 65.8442 105.832 65.8439 105.832Z" fill="white"/>
</g>
<g opacity="0.88">
<path d="M42.4561 113.433L38.228 113.638C37.6575 113.638 37.1602 112.816 37.1602 112.055V110.021C37.1602 109.26 37.6747 108.389 38.2452 108.389L42.4561 108.319C43.0266 108.319 43.4885 108.936 43.4885 109.696V112.055C43.4885 112.816 43.0266 113.433 42.4561 113.433Z" fill="#3B3B4C"/>
</g>
<g opacity="0.88">
<path d="M50.5083 113.266L46.2803 113.472C45.7098 113.472 45.2124 112.649 45.2124 111.889V109.854C45.2124 109.094 45.7269 108.222 46.2974 108.222L50.5083 108.153C51.0788 108.153 51.5408 108.77 51.5408 109.53V111.889C51.5408 112.649 51.0788 113.266 50.5083 113.266Z" fill="#3B3B4C"/>
</g>
<g opacity="0.88">
<path d="M58.1397 113.266L53.9116 113.472C53.3411 113.472 52.8438 112.649 52.8438 111.889V109.854C52.8438 109.094 53.3582 108.222 53.9288 108.222L58.1397 108.152C58.7102 108.152 59.1721 108.769 59.1721 109.53V111.889C59.1721 112.649 58.7102 113.266 58.1397 113.266Z" fill="#3B3B4C"/>
</g>
<g opacity="0.88">
<path d="M66.106 113.401L61.8779 113.607C61.3074 113.607 60.8101 112.784 60.8101 112.024V109.989C60.8101 109.229 61.3246 108.357 61.8951 108.357L66.106 108.287C66.6765 108.287 67.1384 108.904 67.1384 109.665V112.024C67.1384 112.784 66.6765 113.401 66.106 113.401Z" fill="#3B3B4C"/>
</g>
<g opacity="0.95">
<path d="M42.1983 113.059C42.198 113.059 42.1975 113.059 42.197 113.059L38.0761 113.256C37.5204 113.256 37.0356 112.467 37.0356 111.737V109.784C37.0356 109.054 37.5376 108.219 38.0932 108.219L42.1989 108.153C42.7546 108.153 43.2051 108.745 43.2051 109.474V111.737C43.2051 112.467 42.7551 113.058 42.1998 113.058C42.1993 113.058 42.1987 113.058 42.1983 113.059Z" fill="white"/>
</g>
<g opacity="0.95">
<path d="M50.233 113.059C50.2327 113.059 50.2322 113.059 50.2316 113.059L46.1107 113.256C45.5551 113.256 45.0703 112.467 45.0703 111.736V109.784C45.0703 109.054 45.5722 108.218 46.1279 108.218L50.2336 108.152C50.7893 108.152 51.2397 108.745 51.2397 109.474V111.736C51.2397 112.467 50.7897 113.057 50.2345 113.058C50.2339 113.058 50.2334 113.058 50.233 113.059Z" fill="white"/>
</g>
<g opacity="0.95">
<path d="M57.9503 113.059C57.9499 113.059 57.9495 113.059 57.9489 113.059L53.828 113.256C53.2724 113.256 52.7876 112.467 52.7876 111.736V109.784C52.7876 109.054 53.2895 108.218 53.8452 108.218L57.9509 108.152C58.5066 108.152 58.957 108.745 58.957 109.474V111.736C58.957 112.467 58.507 113.057 57.9518 113.058C57.9512 113.058 57.9507 113.058 57.9503 113.059Z" fill="white"/>
</g>
<g opacity="0.95">
<path d="M65.8439 113.057C65.8435 113.057 65.843 113.057 65.8425 113.058L61.7216 113.254C61.1659 113.254 60.6812 112.465 60.6812 111.735V109.783C60.6812 109.052 61.1831 108.217 61.7387 108.217L65.8445 108.151C66.4001 108.151 66.8506 108.743 66.8506 109.472V111.735C66.8506 112.465 66.4006 113.056 65.8453 113.056C65.8448 113.056 65.8442 113.056 65.8439 113.057Z" fill="white"/>
</g>
<g opacity="0.88">
<path d="M42.4561 121.191L38.228 121.396C37.6575 121.396 37.1602 120.574 37.1602 119.813V117.779C37.1602 117.018 37.6747 116.147 38.2452 116.147L42.4561 116.077C43.0266 116.077 43.4885 116.694 43.4885 117.454V119.813C43.4885 120.574 43.0266 121.191 42.4561 121.191Z" fill="#3B3B4C"/>
</g>
<g opacity="0.88">
<path d="M50.5083 121.032L46.2803 121.238C45.7098 121.238 45.2124 120.415 45.2124 119.655V117.62C45.2124 116.86 45.7269 115.988 46.2974 115.988L50.5083 115.918C51.0788 115.918 51.5408 116.536 51.5408 117.296V119.655C51.5408 120.415 51.0788 121.032 50.5083 121.032Z" fill="#3B3B4C"/>
</g>
<g opacity="0.88">
<path d="M58.1397 121.032L53.9116 121.238C53.3411 121.238 52.8438 120.415 52.8438 119.655V117.62C52.8438 116.86 53.3582 115.988 53.9288 115.988L58.1397 115.918C58.7102 115.918 59.1721 116.536 59.1721 117.296V119.655C59.1721 120.415 58.7102 121.032 58.1397 121.032Z" fill="#3B3B4C"/>
</g>
<g opacity="0.88">
<path d="M66.106 121.169L61.8779 121.375C61.3074 121.375 60.8101 120.552 60.8101 119.792V117.757C60.8101 116.997 61.3246 116.125 61.8951 116.125L66.106 116.055C66.6765 116.055 67.1384 116.673 67.1384 117.433V119.792C67.1384 120.552 66.6765 121.169 66.106 121.169Z" fill="#3B3B4C"/>
</g>
<g opacity="0.95">
<path d="M42.1983 120.825C42.198 120.825 42.1975 120.826 42.197 120.826L38.0761 121.023C37.5204 121.023 37.0356 120.233 37.0356 119.503V117.551C37.0356 116.82 37.5376 115.985 38.0932 115.985L42.1989 115.919C42.7546 115.919 43.2051 116.511 43.2051 117.24V119.503C43.2051 120.233 42.7551 120.824 42.1998 120.824C42.1993 120.824 42.1987 120.825 42.1983 120.825Z" fill="white"/>
</g>
<g opacity="0.95">
<path d="M50.233 120.825C50.2327 120.825 50.2322 120.825 50.2316 120.825L46.1107 121.022C45.5551 121.022 45.0703 120.233 45.0703 119.503V117.55C45.0703 116.82 45.5722 115.985 46.1279 115.985L50.2336 115.918C50.7893 115.918 51.2397 116.511 51.2397 117.24V119.503C51.2397 120.233 50.7897 120.823 50.2345 120.824C50.2339 120.824 50.2334 120.824 50.233 120.825Z" fill="white"/>
</g>
<g opacity="0.95">
<path d="M57.9503 120.824C57.9499 120.824 57.9495 120.825 57.9489 120.825L53.828 121.022C53.2724 121.022 52.7876 120.232 52.7876 119.502V117.55C52.7876 116.819 53.2895 115.984 53.8452 115.984L57.9509 115.918C58.5066 115.918 58.957 116.51 58.957 117.239V119.502C58.957 120.232 58.507 120.823 57.9518 120.823C57.9512 120.823 57.9507 120.824 57.9503 120.824Z" fill="white"/>
</g>
<g opacity="0.95">
<path d="M65.8439 120.825C65.8435 120.825 65.843 120.825 65.8425 120.825L61.7216 121.022C61.1659 121.022 60.6812 120.233 60.6812 119.503V117.55C60.6812 116.82 61.1831 115.985 61.7387 115.985L65.8445 115.918C66.4001 115.918 66.8506 116.511 66.8506 117.24V119.503C66.8506 120.233 66.4006 120.823 65.8453 120.824C65.8448 120.824 65.8442 120.824 65.8439 120.825Z" fill="white"/>
</g>
<g opacity="0.88">
<path d="M42.4561 128.078L38.228 128.284C37.6575 128.284 37.1602 127.461 37.1602 126.701V124.666C37.1602 123.906 37.6747 123.034 38.2452 123.034L42.4561 122.964C43.0266 122.964 43.4885 123.581 43.4885 124.342V126.701C43.4885 127.461 43.0266 128.078 42.4561 128.078Z" fill="#3B3B4C"/>
</g>
<g opacity="0.88">
<path d="M50.5083 127.917L46.2803 128.122C45.7098 128.122 45.2124 127.299 45.2124 126.539V124.504C45.2124 123.744 45.7269 122.873 46.2974 122.873L50.5083 122.803C51.0788 122.803 51.5408 123.42 51.5408 124.18V126.539C51.5408 127.299 51.0788 127.917 50.5083 127.917Z" fill="#3B3B4C"/>
</g>
<g opacity="0.88">
<path d="M58.1397 127.917L53.9116 128.122C53.3411 128.122 52.8438 127.299 52.8438 126.539V124.504C52.8438 123.744 53.3582 122.873 53.9288 122.873L58.1397 122.803C58.7102 122.803 59.1721 123.42 59.1721 124.18V126.539C59.1721 127.299 58.7102 127.917 58.1397 127.917Z" fill="#3B3B4C"/>
</g>
<g opacity="0.95">
<path d="M42.1983 127.708C42.198 127.708 42.1975 127.709 42.197 127.709L38.0761 127.906C37.5204 127.906 37.0356 127.116 37.0356 126.386V124.434C37.0356 123.703 37.5376 122.868 38.0932 122.868L42.1989 122.802C42.7546 122.802 43.2051 123.394 43.2051 124.123V126.386C43.2051 127.116 42.7551 127.707 42.1998 127.707C42.1993 127.707 42.1987 127.708 42.1983 127.708Z" fill="white"/>
</g>
<g opacity="0.95">
<path d="M50.233 127.708C50.2327 127.708 50.2322 127.709 50.2316 127.709L46.1107 127.906C45.5551 127.906 45.0703 127.116 45.0703 126.386V124.434C45.0703 123.703 45.5722 122.868 46.1279 122.868L50.2336 122.802C50.7893 122.802 51.2397 123.394 51.2397 124.123V126.386C51.2397 127.116 50.7897 127.707 50.2345 127.707C50.2339 127.707 50.2334 127.708 50.233 127.708Z" fill="white"/>
</g>
<g opacity="0.95">
<path d="M57.9503 127.709C57.9499 127.709 57.9495 127.71 57.9489 127.71L53.828 127.907C53.2724 127.907 52.7876 127.117 52.7876 126.387V124.435C52.7876 123.704 53.2895 122.869 53.8452 122.869L57.9509 122.803C58.5066 122.803 58.957 123.395 58.957 124.124V126.387C58.957 127.117 58.507 127.708 57.9518 127.708C57.9512 127.708 57.9507 127.709 57.9503 127.709Z" fill="white"/>
</g>
<g opacity="0.88">
<path d="M42.4561 135.803L38.228 136.009C37.6575 136.009 37.1602 135.186 37.1602 134.426V132.391C37.1602 131.631 37.6747 130.759 38.2452 130.759L42.4561 130.689C43.0266 130.689 43.4885 131.307 43.4885 132.067V134.426C43.4885 135.186 43.0266 135.803 42.4561 135.803Z" fill="#3B3B4C"/>
</g>
<g opacity="0.88">
<path d="M50.5083 135.639L46.2803 135.845C45.7098 135.845 45.2124 135.022 45.2124 134.261V132.227C45.2124 131.466 45.7269 130.595 46.2974 130.595L50.5083 130.525C51.0788 130.525 51.5408 131.142 51.5408 131.903V134.261C51.5408 135.022 51.0788 135.639 50.5083 135.639Z" fill="#3B3B4C"/>
</g>
<g opacity="0.88">
<path d="M58.1397 135.639L53.9116 135.845C53.3411 135.845 52.8438 135.022 52.8438 134.262V132.227C52.8438 131.467 53.3582 130.595 53.9288 130.595L58.1397 130.525C58.7102 130.525 59.1721 131.142 59.1721 131.903V134.262C59.1721 135.022 58.7102 135.639 58.1397 135.639Z" fill="#3B3B4C"/>
</g>
<g opacity="0.95">
<path d="M42.1983 135.432C42.198 135.432 42.1975 135.432 42.197 135.432L38.0761 135.629C37.5204 135.629 37.0356 134.84 37.0356 134.11V132.157C37.0356 131.427 37.5376 130.591 38.0932 130.591L42.1989 130.525C42.7546 130.525 43.2051 131.118 43.2051 131.847V134.11C43.2051 134.84 42.7551 135.43 42.1998 135.431C42.1993 135.431 42.1987 135.431 42.1983 135.432Z" fill="white"/>
</g>
<g opacity="0.95">
<path d="M50.233 135.432C50.2327 135.432 50.2322 135.432 50.2316 135.432L46.1107 135.629C45.5551 135.629 45.0703 134.84 45.0703 134.11V132.157C45.0703 131.427 45.5722 130.591 46.1279 130.591L50.2336 130.525C50.7893 130.525 51.2397 131.118 51.2397 131.847V134.11C51.2397 134.84 50.7897 135.43 50.2345 135.431C50.2339 135.431 50.2334 135.431 50.233 135.432Z" fill="white"/>
</g>
<g opacity="0.95">
<path d="M57.9503 135.432C57.9499 135.432 57.9495 135.432 57.9489 135.432L53.828 135.629C53.2724 135.629 52.7876 134.84 52.7876 134.11V132.157C52.7876 131.427 53.2895 130.591 53.8452 130.591L57.9509 130.525C58.5066 130.525 58.957 131.118 58.957 131.847V134.11C58.957 134.84 58.507 135.43 57.9518 135.431C57.9512 135.431 57.9507 135.431 57.9503 135.432Z" fill="white"/>
</g>
<g opacity="0.88">
<path d="M65.5247 123.398H62.4102C61.8091 123.398 61.3218 123.93 61.3218 124.585V134.704C61.3218 135.36 61.8091 135.891 62.4102 135.891H65.5247C66.1258 135.891 66.6131 135.36 66.6131 134.704V124.585C66.6131 123.93 66.1258 123.398 65.5247 123.398Z" fill="#3B3B4C"/>
</g>
<g opacity="0.95">
<path d="M65.1983 123.398H61.7718C61.1624 123.398 60.6685 123.937 60.6685 124.601V134.272C60.6685 134.936 61.1624 135.475 61.7718 135.475H65.1983C65.8077 135.475 66.3017 134.936 66.3017 134.272V124.601C66.3017 123.937 65.8077 123.398 65.1983 123.398Z" fill="white"/>
</g>
<path d="M52.2908 125.372C52.2912 125.371 52.2919 125.371 52.2925 125.371C61.9808 129.307 55.3132 140.252 51.0407 140.196C46.1735 140.131 5.51086 142.555 -6.95605 139.487C-6.36838 139.631 -3.34655 139.451 0.365855 135.936C4.20517 132.301 1.84419 126.546 -1.54808 125.272C-3.05828 124.705 51.658 125.378 52.2902 125.372C52.2906 125.372 52.2905 125.372 52.2908 125.372Z" fill="#818187"/>
<path fill-rule="evenodd" clip-rule="evenodd" d="M0.772897 96.2844C0.928222 96.4761 0.911631 96.7688 0.735839 96.9381C-0.78537 98.4037 -1.6939 99.5374 -2.31925 100.32C-2.32943 100.333 -2.33956 100.346 -2.34963 100.358C-2.64419 100.727 -2.89469 101.041 -3.11804 101.264C-3.34778 101.494 -3.61219 101.695 -3.9405 101.725L-3.94137 101.725C-4.15132 101.744 -4.34962 101.72 -4.535 101.634C-4.71982 101.548 -4.8601 101.416 -4.97391 101.272C-5.08386 101.134 -5.17954 100.971 -5.26867 100.812C-5.29857 100.759 -5.32786 100.706 -5.35757 100.652C-5.42188 100.536 -5.48817 100.416 -5.56686 100.282C-5.69363 100.067 -5.6364 99.7804 -5.43902 99.6422C-5.24165 99.5039 -4.97887 99.5663 -4.8521 99.7815C-4.76667 99.9266 -4.6894 100.066 -4.62243 100.188C-4.5945 100.238 -4.56836 100.285 -4.54417 100.329C-4.45652 100.485 -4.39184 100.59 -4.33144 100.666C-4.27489 100.738 -4.23481 100.766 -4.20283 100.781C-4.17145 100.796 -4.11665 100.811 -4.01081 100.802C-3.9691 100.798 -3.8802 100.769 -3.6922 100.581C-3.50495 100.394 -3.28177 100.115 -2.95985 99.7119C-2.32582 98.9181 -1.389 97.7492 0.173357 96.244C0.349148 96.0746 0.617572 96.0927 0.772897 96.2844Z" fill="#0069A8"/>
<path opacity="0.92" d="M4.41833 106.961L9.77943 106.908C9.96693 106.905 10.1361 107.044 10.1567 107.214L10.2665 108.119C10.2871 108.292 10.1522 108.431 9.9635 108.434L4.60242 108.487C4.41491 108.49 4.24569 108.351 4.22511 108.181L4.11535 107.276C4.09477 107.103 4.22968 106.964 4.41833 106.961Z" fill="#C4C4C6"/>
<path opacity="0.92" d="M2.98238 107.253L3.099 108.222C3.11729 108.376 2.9961 108.502 2.82689 108.503L-0.0200126 108.532C-0.189226 108.533 -0.341293 108.41 -0.359586 108.257L-0.476201 107.288C-0.494495 107.133 -0.373301 107.007 -0.204087 107.006L2.64281 106.978C2.81202 106.976 2.96409 107.1 2.98238 107.253Z" fill="#C4C4C6"/>
<path opacity="0.92" d="M11.9313 106.999L16.0679 106.958C16.2086 106.957 16.3378 107.08 16.3561 107.235L16.4727 108.203C16.491 108.358 16.3926 108.484 16.252 108.485L12.1154 108.526C11.9748 108.528 11.8456 108.404 11.8273 108.25L11.7107 107.281C11.6924 107.126 11.7907 107 11.9313 106.999Z" fill="#C4C4C6"/>
<path opacity="0.92" d="M19.7449 107.199L19.8615 108.168C19.8798 108.322 19.7815 108.448 19.6397 108.45L17.265 108.473C17.1244 108.474 16.9952 108.351 16.9757 108.196L16.8591 107.228C16.8408 107.073 16.9392 106.947 17.0809 106.946L19.4556 106.922C19.5963 106.921 19.7255 107.045 19.7449 107.199Z" fill="#C4C4C6"/>
<path opacity="0.92" d="M26.3324 106.758L31.6935 106.705C31.881 106.702 32.0502 106.841 32.0708 107.011L32.1806 107.916C32.2011 108.088 32.0662 108.228 31.8776 108.231L26.5165 108.284C26.329 108.287 26.1598 108.148 26.1392 107.977L26.0294 107.072C26.0088 106.9 26.1438 106.761 26.3324 106.758Z" fill="#C4C4C6"/>
<path opacity="0.92" d="M24.9004 107.054L25.017 108.022C25.0353 108.177 24.9141 108.303 24.7449 108.304L21.898 108.333C21.7287 108.334 21.5767 108.21 21.5584 108.057L21.4418 107.089C21.4235 106.934 21.5447 106.808 21.7139 106.807L24.5608 106.778C24.73 106.777 24.8821 106.9 24.9004 107.054Z" fill="#C4C4C6"/>
<path opacity="0.92" d="M4.53699 109.774L9.89808 109.72C10.0856 109.718 10.2548 109.856 10.2754 110.027L10.3851 110.932C10.4057 111.104 10.2708 111.244 10.0822 111.246L4.72107 111.3C4.53356 111.302 4.36435 111.164 4.34377 110.993L4.23401 110.088C4.21343 109.916 4.34834 109.777 4.53699 109.774Z" fill="#C4C4C6"/>
<path opacity="0.92" d="M3.09713 110.068L3.21375 111.037C3.23204 111.192 3.11085 111.318 2.94164 111.319L0.0947407 111.348C-0.0744727 111.349 -0.22654 111.225 -0.244833 111.072L-0.361455 110.103C-0.379749 109.949 -0.258555 109.823 -0.0893413 109.822L2.75756 109.793C2.92678 109.792 3.07884 109.915 3.09713 110.068Z" fill="#C4C4C6"/>
<path opacity="0.92" d="M12.0461 109.814C12.0461 109.814 12.0464 109.814 12.0467 109.814L16.1827 109.772C16.3233 109.771 16.4525 109.895 16.4708 110.049L16.5874 111.019C16.6057 111.174 16.5074 111.3 16.3668 111.301L12.2302 111.342C12.0895 111.343 11.9603 111.22 11.9421 111.065L11.8254 110.097C11.8072 109.942 11.9052 109.816 12.0455 109.815C12.0458 109.815 12.0461 109.815 12.0461 109.814Z" fill="#C4C4C6"/>
<path opacity="0.92" d="M19.8675 110.012L19.9841 110.981C20.0024 111.135 19.904 111.261 19.7623 111.262L17.3876 111.286C17.2469 111.287 17.1177 111.164 17.0983 111.009L16.9817 110.041C16.9634 109.886 17.0617 109.76 17.2035 109.759L19.5782 109.735C19.7188 109.734 19.848 109.857 19.8675 110.012Z" fill="#C4C4C6"/>
<path opacity="0.92" d="M26.4555 109.571L31.8165 109.518C32.004 109.515 32.1733 109.654 32.1938 109.825L32.3036 110.73C32.3242 110.902 32.1893 111.041 32.0006 111.044L26.6395 111.097C26.452 111.1 26.2828 110.961 26.2622 110.791L26.1525 109.886C26.1319 109.714 26.2668 109.574 26.4555 109.571Z" fill="#C4C4C6"/>
<path opacity="0.92" d="M25.0642 114.729L32.2249 114.623C32.4765 114.619 32.7017 114.89 32.7291 115.227L32.8755 117.008C32.9029 117.346 32.7223 117.621 32.4707 117.625L25.31 117.731C25.0585 117.734 24.8333 117.464 24.8058 117.126L24.6595 115.346C24.6321 115.008 24.8127 114.733 25.0642 114.729Z" fill="#708199"/>
<path opacity="0.92" d="M25.0273 109.865L25.1439 110.834C25.1622 110.988 25.041 111.114 24.8718 111.115L22.0249 111.144C21.8557 111.145 21.7036 111.022 21.6853 110.868L21.5687 109.9C21.5504 109.745 21.6716 109.619 21.8408 109.618L24.6877 109.589C24.857 109.588 25.009 109.712 25.0273 109.865Z" fill="#C4C4C6"/>
<path opacity="0.92" d="M23.9369 115.337L24.0924 117.239C24.1175 117.542 23.954 117.79 23.7288 117.794L19.9272 117.85C19.702 117.854 19.4985 117.611 19.4745 117.308L19.319 115.406C19.2938 115.103 19.4573 114.855 19.6825 114.851L23.4841 114.795C23.7094 114.791 23.9129 115.034 23.9369 115.337Z" fill="#708199"/>
<path d="M10.9967 119.501C11.021 119.501 11.0433 119.515 11.0531 119.537L11.2823 120.055C11.2937 120.081 11.2825 120.111 11.2569 120.123C11.231 120.136 11.1999 120.125 11.1875 120.099L10.943 119.588C10.924 119.549 10.9525 119.502 10.9967 119.501ZM11.2831 120.123C11.2571 120.112 11.2449 120.082 11.2554 120.055L11.4664 119.529C11.4755 119.506 11.4973 119.491 11.5216 119.491C11.5658 119.49 11.5959 119.535 11.5782 119.575L11.3516 120.095C11.3401 120.122 11.3094 120.134 11.2831 120.123ZM11.2681 120.013C11.3015 120.012 11.329 120.039 11.3296 120.072L11.3374 120.523C11.3379 120.556 11.3114 120.584 11.278 120.585C11.2446 120.585 11.2171 120.559 11.2165 120.525L11.2087 120.074C11.2081 120.041 11.2347 120.013 11.2681 120.013ZM11.4996 120.038C11.526 120.037 11.5478 120.058 11.5482 120.085C11.5487 120.111 11.5277 120.133 11.5012 120.133L11.0393 120.143C11.0129 120.143 10.9911 120.122 10.9906 120.096C10.9902 120.07 11.0112 120.048 11.0376 120.047L11.4996 120.038ZM11.5032 120.248C11.5296 120.248 11.5514 120.269 11.5519 120.295C11.5523 120.321 11.5313 120.343 11.5049 120.344L11.0429 120.353C11.0165 120.354 10.9947 120.333 10.9942 120.306C10.9938 120.28 11.0148 120.258 11.0413 120.258L11.5032 120.248Z" fill="#1991BF"/>
</g>
</g>
</svg>
