<svg width="231" height="231" viewBox="0 0 231 231" fill="none" xmlns="http://www.w3.org/2000/svg">
<path d="M13.2897 156.126C18.8161 169.926 43.163 191.898 103.093 175.206C163.028 158.508 210.23 158.322 220.893 118.747C231.557 79.1716 186.307 37.1843 150.807 35.2103C115.307 33.2364 97.0058 51.6561 79.5124 79.0876C62.013 106.519 31.2078 109.489 21.9951 119.305C12.7825 129.121 10.3289 148.746 13.2897 156.132V156.126Z" fill="#6EB7F2"/>
<path d="M83.7471 64.8674H121.4C121.4 64.8674 121.606 58.8015 115.372 58.8015C115.372 58.8015 113.803 52.4536 108.247 52.4536C102.691 52.4536 101.123 56.3596 101.123 56.3596C101.123 56.3596 92.3522 51.9616 89.1496 61.9035C89.1496 61.9035 85.0859 60.9135 83.7471 64.8614V64.8674Z" fill="white"/>
<path d="M179.884 113.467H217.537C217.537 113.467 217.744 107.401 211.509 107.401C211.509 107.401 209.94 101.053 204.385 101.053C198.829 101.053 197.26 104.959 197.26 104.959C197.26 104.959 188.489 100.561 185.287 110.503C185.287 110.503 181.223 109.513 179.884 113.461V113.467Z" fill="white"/>
<path d="M178.003 71.4678H207.882C207.882 71.4678 208.295 64.4119 200.639 65.5819C200.639 65.5819 200.504 58.412 192.3 61.4C192.3 61.4 185.93 58.298 183.388 65.5819C183.388 65.5819 178.327 64.2319 177.997 71.4678H178.003Z" fill="white"/>
<path d="M73.8207 72.6319H192.205C195.856 72.6319 198.817 75.6439 198.817 79.3578V162.558H67.2031V79.3578C67.2031 75.6439 70.1639 72.6319 73.8148 72.6319H73.8207Z" fill="#2A8FF7"/>
<path d="M191.427 78.4156H73.7441V158.514H191.427V78.4156Z" fill="#C2D7EF"/>
<path d="M191.427 78.4156H73.7441V85.0635H191.427V78.4156Z" fill="#0F67D5"/>
<path d="M215.461 208.247H50.5591C50.04 208.247 49.6803 207.713 49.8749 207.221L67.2032 162.558H198.811L216.139 207.221C216.328 207.713 215.974 208.247 215.455 208.247H215.461Z" fill="#468EE2"/>
<path d="M214.446 210.383H51.5733C50.4114 210.383 49.4736 209.429 49.4736 208.247H112.741L112.93 208.019C113.331 207.545 113.909 207.269 114.529 207.269H151.308C151.916 207.269 152.494 207.539 152.895 208.007L153.096 208.247H216.54C216.54 209.429 215.602 210.383 214.441 210.383H214.446Z" fill="#0F67D5"/>
<path d="M202.521 189.503H64.3071C63.4991 189.503 62.9329 188.675 63.216 187.895L71.5793 164.958C71.7445 164.496 72.175 164.196 72.6587 164.196H193.196C193.68 164.196 194.122 164.502 194.305 164.958L203.547 187.895C203.86 188.675 203.329 189.503 202.521 189.503Z" fill="#6EB7F2"/>
<path d="M90.8598 175.8H74.5932C74.3572 175.8 74.1921 175.56 74.2806 175.332L75.4779 172.152C75.525 172.02 75.6548 171.93 75.7905 171.93H91.6384C91.8566 171.93 92.0158 172.14 91.9687 172.356L91.196 175.536C91.1606 175.692 91.025 175.794 90.8657 175.794L90.8598 175.8Z" fill="white"/>
<path d="M90.8598 175.206H74.5932C74.3572 175.206 74.1921 174.966 74.2806 174.738L75.4779 171.558C75.525 171.426 75.6548 171.336 75.7905 171.336H91.6384C91.8566 171.336 92.0158 171.546 91.9687 171.762L91.196 174.942C91.1606 175.098 91.025 175.2 90.8657 175.2L90.8598 175.206Z" fill="#0F67D5"/>
<path d="M103.723 175.8H95.018C94.782 175.8 94.6169 175.56 94.7054 175.332L95.5724 172.152C95.6196 172.02 95.7493 171.93 95.885 171.93H104.166C104.384 171.93 104.543 172.14 104.496 172.356L104.054 175.536C104.018 175.692 103.883 175.794 103.723 175.794V175.8Z" fill="white"/>
<path d="M103.723 175.206H95.018C94.782 175.206 94.6169 174.966 94.7054 174.738L95.5724 171.558C95.6196 171.426 95.7493 171.336 95.885 171.336H104.166C104.384 171.336 104.543 171.546 104.496 171.762L104.054 174.942C104.018 175.098 103.883 175.2 103.723 175.2V175.206Z" fill="#0F67D5"/>
<path d="M116.434 175.8H107.728C107.492 175.8 107.327 175.56 107.416 175.332L107.988 172.152C108.035 172.02 108.165 171.93 108.301 171.93H116.581C116.8 171.93 116.959 172.14 116.912 172.356L116.764 175.536C116.729 175.692 116.593 175.794 116.434 175.794V175.8Z" fill="white"/>
<path d="M116.434 175.206H107.728C107.492 175.206 107.327 174.966 107.416 174.738L107.988 171.558C108.035 171.426 108.165 171.336 108.301 171.336H116.581C116.8 171.336 116.959 171.546 116.912 171.762L116.764 174.942C116.729 175.098 116.593 175.2 116.434 175.2V175.206Z" fill="#0F67D5"/>
<path d="M131.037 175.8H122.332C122.096 175.8 121.931 175.56 122.019 175.332L122.361 172.152C122.409 172.02 122.538 171.93 122.674 171.93H130.955C131.173 171.93 131.332 172.14 131.285 172.356L131.368 175.536C131.332 175.692 131.197 175.794 131.037 175.794V175.8Z" fill="white"/>
<path d="M131.037 175.206H122.332C122.096 175.206 121.931 174.966 122.019 174.738L122.361 171.558C122.409 171.426 122.538 171.336 122.674 171.336H130.955C131.173 171.336 131.332 171.546 131.285 171.762L131.368 174.942C131.332 175.098 131.197 175.2 131.037 175.2V175.206Z" fill="#0F67D5"/>
<path d="M164.745 175.8H173.45C173.686 175.8 173.851 175.56 173.763 175.332L172.565 172.152C172.518 172.02 172.388 171.93 172.253 171.93H163.972C163.754 171.93 163.594 172.14 163.642 172.356L164.414 175.536C164.45 175.692 164.585 175.794 164.745 175.794V175.8Z" fill="white"/>
<path d="M164.745 175.206H173.45C173.686 175.206 173.851 174.966 173.763 174.738L172.565 171.558C172.518 171.426 172.388 171.336 172.253 171.336H163.972C163.754 171.336 163.594 171.546 163.642 171.762L164.414 174.942C164.45 175.098 164.585 175.2 164.745 175.2V175.206Z" fill="#0F67D5"/>
<path d="M151.592 175.8H160.297C160.533 175.8 160.698 175.56 160.61 175.332L159.743 172.152C159.695 172.02 159.566 171.93 159.43 171.93H151.149C150.931 171.93 150.772 172.14 150.819 172.356L151.261 175.536C151.297 175.692 151.432 175.794 151.592 175.794V175.8Z" fill="white"/>
<path d="M151.592 175.206H160.297C160.533 175.206 160.698 174.966 160.61 174.738L159.743 171.558C159.695 171.426 159.566 171.336 159.43 171.336H151.149C150.931 171.336 150.772 171.546 150.819 171.762L151.261 174.942C151.297 175.098 151.432 175.2 151.592 175.2V175.206Z" fill="#0F67D5"/>
<path d="M136.924 175.8H145.629C145.865 175.8 146.03 175.56 145.942 175.332L145.369 172.152C145.322 172.02 145.193 171.93 145.057 171.93H136.776C136.558 171.93 136.399 172.14 136.446 172.356L136.593 175.536C136.629 175.692 136.764 175.794 136.924 175.794V175.8Z" fill="white"/>
<path d="M136.924 175.206H145.629C145.865 175.206 146.03 174.966 145.942 174.738L145.369 171.558C145.322 171.426 145.193 171.336 145.057 171.336H136.776C136.558 171.336 136.399 171.546 136.446 171.762L136.593 174.942C136.629 175.098 136.764 175.2 136.924 175.2V175.206Z" fill="#0F67D5"/>
<path d="M178.009 175.758H192.778C193.013 175.758 193.179 175.518 193.09 175.29L191.869 172.194C191.822 172.062 191.692 171.972 191.557 171.972H176.753C176.534 171.972 176.375 172.182 176.422 172.398L177.673 175.494C177.708 175.65 177.844 175.752 178.003 175.752L178.009 175.758Z" fill="white"/>
<path d="M178.009 175.164H192.778C193.013 175.164 193.179 174.924 193.09 174.696L191.869 171.6C191.822 171.468 191.692 171.378 191.557 171.378H176.753C176.534 171.378 176.375 171.588 176.422 171.804L177.673 174.9C177.708 175.056 177.844 175.158 178.003 175.158L178.009 175.164Z" fill="#0F67D5"/>
<path d="M95.9795 181.835H72.6883C72.3698 181.835 72.1516 181.595 72.2636 181.367L73.5671 178.187C73.632 178.055 73.803 177.965 73.9918 177.965H96.7167C97.0116 177.965 97.224 178.175 97.1532 178.391L96.4159 181.571C96.3687 181.727 96.1859 181.829 95.9795 181.829V181.835Z" fill="white"/>
<path d="M95.9795 181.242H72.6883C72.3698 181.242 72.1516 181.002 72.2636 180.774L73.5671 177.594C73.632 177.462 73.803 177.372 73.9918 177.372H96.7167C97.0116 177.372 97.224 177.582 97.1532 177.798L96.4159 180.978C96.3687 181.134 96.1859 181.236 95.9795 181.236V181.242Z" fill="#0F67D5"/>
<path d="M110.4 181.835H100.846C100.61 181.835 100.445 181.595 100.533 181.367L101.182 178.187C101.229 178.055 101.359 177.965 101.494 177.965H110.63C110.849 177.965 111.008 178.175 110.961 178.391L110.737 181.571C110.701 181.727 110.566 181.829 110.406 181.829L110.4 181.835Z" fill="white"/>
<path d="M110.4 181.242H100.846C100.61 181.242 100.445 181.002 100.533 180.774L101.182 177.594C101.229 177.462 101.359 177.372 101.494 177.372H110.63C110.849 177.372 111.008 177.582 110.961 177.798L110.737 180.978C110.701 181.134 110.566 181.236 110.406 181.236L110.4 181.242Z" fill="#0F67D5"/>
<path d="M124.36 181.835H115.012C114.776 181.835 114.611 181.595 114.7 181.367L115.024 178.187C115.071 178.055 115.201 177.965 115.336 177.965H124.307C124.526 177.965 124.685 178.175 124.638 178.391L124.691 181.571C124.655 181.727 124.52 181.829 124.36 181.829V181.835Z" fill="white"/>
<path d="M124.36 181.242H115.012C114.776 181.242 114.611 181.002 114.7 180.774L115.024 177.594C115.071 177.462 115.201 177.372 115.336 177.372H124.307C124.526 177.372 124.685 177.582 124.638 177.798L124.691 180.978C124.655 181.134 124.52 181.236 124.36 181.236V181.242Z" fill="#0F67D5"/>
<path d="M138.527 181.835H129.203C128.967 181.835 128.801 181.595 128.89 181.367L128.866 178.187C128.914 178.055 129.043 177.965 129.179 177.965H138.445C138.663 177.965 138.822 178.175 138.775 178.391L138.858 181.571C138.822 181.727 138.687 181.829 138.527 181.829V181.835Z" fill="white"/>
<path d="M138.527 181.242H129.203C128.967 181.242 128.801 181.002 128.89 180.774L128.866 177.594C128.914 177.462 129.043 177.372 129.179 177.372H138.445C138.663 177.372 138.822 177.582 138.775 177.798L138.858 180.978C138.822 181.134 138.687 181.236 138.527 181.236V181.242Z" fill="#0F67D5"/>
<path d="M157.59 181.835H167.976C168.212 181.835 168.377 181.595 168.289 181.367L167.422 178.187C167.375 178.055 167.245 177.965 167.109 177.965H156.965C156.746 177.965 156.587 178.175 156.634 178.391L157.259 181.571C157.295 181.727 157.431 181.829 157.59 181.829V181.835Z" fill="white"/>
<path d="M157.59 181.242H167.976C168.212 181.242 168.377 181.002 168.289 180.774L167.422 177.594C167.375 177.462 167.245 177.372 167.109 177.372H156.965C156.746 177.372 156.587 177.582 156.634 177.798L157.259 180.978C157.295 181.134 157.431 181.236 157.59 181.236V181.242Z" fill="#0F67D5"/>
<path d="M143.393 181.835H152.765C153.001 181.835 153.166 181.595 153.078 181.367L152.506 178.187C152.459 178.055 152.329 177.965 152.193 177.965H143.246C143.028 177.965 142.868 178.175 142.916 178.391L143.063 181.571C143.098 181.727 143.234 181.829 143.393 181.829V181.835Z" fill="white"/>
<path d="M143.393 181.242H152.765C153.001 181.242 153.166 181.002 153.078 180.774L152.506 177.594C152.459 177.462 152.329 177.372 152.193 177.372H143.246C143.028 177.372 142.868 177.582 142.916 177.798L143.063 180.978C143.098 181.134 143.234 181.236 143.393 181.236V181.242Z" fill="#0F67D5"/>
<path d="M175.685 181.794H195.166C195.402 181.794 195.567 181.554 195.479 181.326L194.258 178.23C194.211 178.098 194.081 178.008 193.945 178.008H174.435C174.217 178.008 174.057 178.218 174.105 178.434L175.355 181.53C175.39 181.686 175.526 181.788 175.685 181.788V181.794Z" fill="white"/>
<path d="M175.685 181.2H195.166C195.402 181.2 195.567 180.96 195.479 180.732L194.258 177.636C194.211 177.504 194.081 177.414 193.945 177.414H174.435C174.217 177.414 174.057 177.624 174.105 177.84L175.355 180.936C175.39 181.092 175.526 181.194 175.685 181.194V181.2Z" fill="#0F67D5"/>
<path d="M85.1033 169.884H76.3978C76.1619 169.884 75.9968 169.644 76.0853 169.416L77.2825 166.236C77.3297 166.104 77.4595 166.014 77.5951 166.014H85.8759C86.0941 166.014 86.2534 166.224 86.2062 166.44L85.4336 169.62C85.3982 169.776 85.2625 169.878 85.1033 169.878V169.884Z" fill="white"/>
<path d="M85.1033 169.296H76.3978C76.1619 169.296 75.9968 169.056 76.0853 168.828L77.2825 165.648C77.3297 165.516 77.4595 165.426 77.5951 165.426H85.8759C86.0941 165.426 86.2534 165.636 86.2062 165.852L85.4336 169.032C85.3982 169.188 85.2625 169.29 85.1033 169.29V169.296Z" fill="#0F67D5"/>
<path d="M97.9729 169.884H89.2675C89.0316 169.884 88.8664 169.644 88.9549 169.416L89.8219 166.236C89.8691 166.104 89.9988 166.014 90.1345 166.014H98.4153C98.6335 166.014 98.7927 166.224 98.7456 166.44L98.3032 169.62C98.2678 169.776 98.1322 169.878 97.9729 169.878V169.884Z" fill="white"/>
<path d="M97.9729 169.296H89.2675C89.0316 169.296 88.8664 169.056 88.9549 168.828L89.8219 165.648C89.8691 165.516 89.9988 165.426 90.1345 165.426H98.4153C98.6335 165.426 98.7927 165.636 98.7456 165.852L98.3032 169.032C98.2678 169.188 98.1322 169.29 97.9729 169.29V169.296Z" fill="#0F67D5"/>
<path d="M110.819 169.884H102.114C101.878 169.884 101.713 169.644 101.801 169.416L102.373 166.236C102.42 166.104 102.55 166.014 102.686 166.014H110.967C111.185 166.014 111.344 166.224 111.297 166.44L111.149 169.62C111.114 169.776 110.978 169.878 110.819 169.878V169.884Z" fill="white"/>
<path d="M110.819 169.296H102.114C101.878 169.296 101.713 169.056 101.801 168.828L102.373 165.648C102.42 165.516 102.55 165.426 102.686 165.426H110.967C111.185 165.426 111.344 165.636 111.297 165.852L111.149 169.032C111.114 169.188 110.978 169.29 110.819 169.29V169.296Z" fill="#0F67D5"/>
<path d="M123.606 169.884H114.9C114.664 169.884 114.499 169.644 114.588 169.416L114.93 166.236C114.977 166.104 115.107 166.014 115.242 166.014H123.523C123.741 166.014 123.901 166.224 123.853 166.44L123.936 169.62C123.901 169.776 123.765 169.878 123.606 169.878V169.884Z" fill="white"/>
<path d="M123.606 169.296H114.9C114.664 169.296 114.499 169.056 114.588 168.828L114.93 165.648C114.977 165.516 115.107 165.426 115.242 165.426H123.523C123.741 165.426 123.901 165.636 123.853 165.852L123.936 169.032C123.901 169.188 123.765 169.29 123.606 169.29V169.296Z" fill="#0F67D5"/>
<path d="M153.385 169.884H162.09C162.326 169.884 162.491 169.644 162.403 169.416L161.205 166.236C161.158 166.104 161.028 166.014 160.893 166.014H152.612C152.394 166.014 152.235 166.224 152.282 166.44L153.054 169.62C153.09 169.776 153.225 169.878 153.385 169.878V169.884Z" fill="white"/>
<path d="M153.385 169.296H162.09C162.326 169.296 162.491 169.056 162.403 168.828L161.205 165.648C161.158 165.516 161.028 165.426 160.893 165.426H152.612C152.394 165.426 152.235 165.636 152.282 165.852L153.054 169.032C153.09 169.188 153.225 169.29 153.385 169.29V169.296Z" fill="#0F67D5"/>
<path d="M140.515 169.884H149.221C149.457 169.884 149.622 169.644 149.533 169.416L148.666 166.236C148.619 166.104 148.489 166.014 148.354 166.014H140.073C139.855 166.014 139.696 166.224 139.743 166.44L140.185 169.62C140.22 169.776 140.356 169.878 140.515 169.878V169.884Z" fill="white"/>
<path d="M140.515 169.296H149.221C149.457 169.296 149.622 169.056 149.533 168.828L148.666 165.648C148.619 165.516 148.489 165.426 148.354 165.426H140.073C139.855 165.426 139.696 165.636 139.743 165.852L140.185 169.032C140.22 169.188 140.356 169.29 140.515 169.29V169.296Z" fill="#0F67D5"/>
<path d="M127.67 169.884H136.375C136.611 169.884 136.776 169.644 136.688 169.416L136.116 166.236C136.068 166.104 135.939 166.014 135.803 166.014H127.522C127.304 166.014 127.145 166.224 127.192 166.44L127.339 169.62C127.375 169.776 127.51 169.878 127.67 169.878V169.884Z" fill="white"/>
<path d="M127.67 169.296H136.375C136.611 169.296 136.776 169.056 136.688 168.828L136.116 165.648C136.068 165.516 135.939 165.426 135.803 165.426H127.522C127.304 165.426 127.145 165.636 127.192 165.852L127.339 169.032C127.375 169.188 127.51 169.29 127.67 169.29V169.296Z" fill="#0F67D5"/>
<path d="M176.582 169.884H190.796C191.032 169.884 191.197 169.644 191.108 169.416L189.368 166.236C189.321 166.104 189.192 166.014 189.056 166.014H174.671C174.452 166.014 174.293 166.224 174.34 166.44L176.245 169.62C176.281 169.776 176.416 169.878 176.576 169.878L176.582 169.884Z" fill="white"/>
<path d="M176.582 169.296H190.796C191.032 169.296 191.197 169.056 191.108 168.828L189.368 165.648C189.321 165.516 189.192 165.426 189.056 165.426H174.671C174.452 165.426 174.293 165.636 174.34 165.852L176.245 169.032C176.281 169.188 176.416 169.29 176.576 169.29L176.582 169.296Z" fill="#0F67D5"/>
<path d="M165.057 169.884H173.762C173.998 169.884 174.163 169.644 174.075 169.416L172.258 166.236C172.211 166.104 172.081 166.014 171.946 166.014H163.665C163.447 166.014 163.287 166.224 163.334 166.44L164.726 169.62C164.762 169.776 164.897 169.878 165.057 169.878V169.884Z" fill="white"/>
<path d="M165.057 169.296H173.762C173.998 169.296 174.163 169.056 174.075 168.828L172.258 165.648C172.211 165.516 172.081 165.426 171.946 165.426H163.665C163.447 165.426 163.287 165.636 163.334 165.852L164.726 169.032C164.762 169.188 164.897 169.29 165.057 169.29V169.296Z" fill="#0F67D5"/>
<path d="M80.3142 187.782H70.4764C70.1579 187.782 69.9397 187.542 70.0517 187.314L71.3552 184.134C71.4201 184.002 71.5911 183.912 71.7798 183.912H81.0456C81.3405 183.912 81.5528 184.122 81.482 184.338L80.7448 187.518C80.6976 187.674 80.5148 187.776 80.3083 187.776L80.3142 187.782Z" fill="white"/>
<path d="M80.3142 187.188H70.4764C70.1579 187.188 69.9397 186.948 70.0517 186.72L71.3552 183.54C71.4201 183.408 71.5911 183.318 71.7798 183.318H81.0456C81.3405 183.318 81.5528 183.528 81.482 183.744L80.7448 186.924C80.6976 187.08 80.5148 187.182 80.3083 187.182L80.3142 187.188Z" fill="#0F67D5"/>
<path d="M94.7527 187.782H85.4456C85.1271 187.782 84.9089 187.542 85.021 187.314L85.7936 184.134C85.8585 184.002 86.0295 183.912 86.2183 183.912H95.484C95.7789 183.912 95.9912 184.122 95.9205 184.338L95.1832 187.518C95.136 187.674 94.9532 187.776 94.7468 187.776L94.7527 187.782Z" fill="white"/>
<path d="M94.7527 187.188H85.4456C85.1271 187.188 84.9089 186.948 85.021 186.72L85.7936 183.54C85.8585 183.408 86.0295 183.318 86.2183 183.318H95.484C95.7789 183.318 95.9912 183.528 95.9205 183.744L95.1832 186.924C95.136 187.08 94.9532 187.182 94.7468 187.182L94.7527 187.188Z" fill="#0F67D5"/>
<path d="M182.757 187.782H100.049C99.7306 187.782 99.5124 187.542 99.6245 187.314L100.085 184.134C100.149 184.002 100.32 183.912 100.509 183.912H181.695C181.99 183.912 182.202 184.122 182.132 184.338L183.193 187.518C183.146 187.674 182.963 187.776 182.757 187.776V187.782Z" fill="white"/>
<path d="M182.757 187.188H100.049C99.7306 187.188 99.5124 186.948 99.6245 186.72L100.085 183.54C100.149 183.408 100.32 183.318 100.509 183.318H181.695C181.99 183.318 182.202 183.528 182.132 183.744L183.193 186.924C183.146 187.08 182.963 187.182 182.757 187.182V187.188Z" fill="#0F67D5"/>
<path d="M187.746 187.782H197.171C197.407 187.782 197.572 187.542 197.484 187.314L196.287 184.134C196.24 184.002 196.11 183.912 195.974 183.912H186.691C186.472 183.912 186.313 184.122 186.36 184.338L187.41 187.518C187.446 187.674 187.581 187.776 187.741 187.776L187.746 187.782Z" fill="white"/>
<path d="M187.746 187.188H197.171C197.407 187.188 197.572 186.948 197.484 186.72L196.287 183.54C196.24 183.408 196.11 183.318 195.974 183.318H186.691C186.472 183.318 186.313 183.528 186.36 183.744L187.41 186.924C187.446 187.08 187.581 187.182 187.741 187.182L187.746 187.188Z" fill="#0F67D5"/>
<path d="M164.078 206.339H103.529C101.471 206.339 99.9017 204.461 100.238 202.391L101.317 195.755C101.583 194.117 102.975 192.917 104.608 192.917H162.998C164.632 192.917 166.018 194.117 166.29 195.755L167.369 202.391C167.705 204.455 166.136 206.339 164.078 206.339Z" fill="#2A8FF7"/>
<path d="M103.063 193.308H164.538C164.538 193.308 163.966 192.918 162.998 192.918H104.608C104.608 192.918 103.676 192.894 103.069 193.308H103.063Z" fill="#0F67D5"/>
<path d="M175.242 83.4192C176.086 83.4192 176.77 82.7235 176.77 81.8653C176.77 81.007 176.086 80.3113 175.242 80.3113C174.399 80.3113 173.715 81.007 173.715 81.8653C173.715 82.7235 174.399 83.4192 175.242 83.4192Z" fill="white"/>
<path d="M182.55 81.8653C182.55 82.7232 181.866 83.4192 181.023 83.4192C180.179 83.4192 179.495 82.7232 179.495 81.8653C179.495 81.0073 180.179 80.3113 181.023 80.3113C181.866 80.3113 182.55 81.0073 182.55 81.8653Z" fill="white"/>
<path d="M186.797 83.4192C187.64 83.4192 188.324 82.7235 188.324 81.8653C188.324 81.007 187.64 80.3113 186.797 80.3113C185.953 80.3113 185.269 81.007 185.269 81.8653C185.269 82.7235 185.953 83.4192 186.797 83.4192Z" fill="white"/>
<path d="M86.9263 101.239C86.9263 101.239 87.2271 100.711 88.3595 99.8354C89.486 98.9594 89.6099 96.6914 91.2908 96.6854C92.5235 96.6854 92.028 97.9214 92.6591 100.351C92.8361 101.035 93.7856 102.463 94.0923 104.479C94.0923 104.479 92.2286 101.131 86.9263 101.239Z" fill="#F4BABD"/>
<path d="M74.7231 99.9612C73.6792 99.2652 73.2369 95.2993 74.5521 94.7113C75.8674 94.1233 76.3274 96.2893 76.7992 97.2732C77.3714 98.4492 79.2823 101.839 81.3938 101.605C81.3938 101.605 77.8019 102.007 74.7231 99.9612Z" fill="#F4BABD"/>
<path d="M76.6635 97.2729C76.6635 97.2729 76.3804 95.7609 77.7664 95.6709C79.1524 95.5869 79.2527 98.5268 80.5502 99.8288C81.8478 101.131 82.8446 101.431 82.8446 101.431L81.0516 101.617C81.0516 101.617 79.3824 102.181 76.6694 97.2729H76.6635Z" fill="#F4BABD"/>
<path d="M83.5168 111.241C83.5168 111.241 82.9919 108.355 82.8267 107.707C82.6616 107.059 82.5613 106.783 80.9217 106.507C79.2879 106.225 75.1888 104.299 73.5256 102.889C71.8624 101.485 71.3433 99.6548 71.9154 98.7188C72.4875 97.7828 74.2628 99.8888 76.2269 100.669C78.1968 101.449 80.2906 101.671 82.0423 101.437C83.7999 101.203 88.7011 100.651 91.2196 101.833C93.738 103.015 94.8822 104.701 94.316 106.951C93.7498 109.201 93.3075 112.231 93.3075 112.231L83.5109 111.247L83.5168 111.241Z" fill="#F7CACC"/>
<path d="M113.726 110.323C111.078 111.697 110.123 113.203 107.032 118.933C103.93 124.681 98.8162 138.277 98.8162 138.277L94.1273 112.303L82.29 111.115C82.29 111.115 82.408 137.935 82.7324 144.505C83.0568 151.11 86.8551 157.89 93.1659 158.562C99.5004 159.234 110.801 147.061 110.801 147.061C110.801 147.061 113.172 140.107 114.204 134.089C115.23 128.089 113.732 110.323 113.732 110.323H113.726Z" fill="#8BBB90"/>
<path d="M121.559 106.483C121.559 106.483 114.529 109.561 113.732 110.323C112.936 111.091 109.409 123.229 108.619 127.927C107.828 132.643 109.557 137.412 112.134 138.462L108.548 158.616H154.204C154.204 158.616 154.275 118.603 154.322 116.671C154.37 114.739 154.252 112.897 151.061 110.887C147.882 108.877 143.27 107.347 139.719 104.113C139.719 104.113 131.344 113.713 127.475 113.725C123.612 113.737 121.559 106.489 121.559 106.489V106.483Z" fill="#8BBB90"/>
<g style="mix-blend-mode:multiply" opacity="0.5">
<path d="M110.547 119.851C110.547 119.851 108.412 127.195 108.424 128.947C108.43 130.699 108.2 136.411 112.128 138.463L110.483 147.721L108.424 149.443C108.424 149.443 109.887 141.001 109.02 139.825C108.153 138.649 104.95 134.905 106.271 130.003C107.593 125.101 110.547 119.845 110.547 119.845V119.851Z" fill="#8BBB90"/>
</g>
<path d="M138.746 87.4992C138.746 87.4992 137.324 98.221 138.569 103.153C138.569 103.153 133.284 111.247 127.652 110.713C122.037 110.179 124.431 103.933 124.431 103.933C124.431 103.933 125.31 100.075 125.045 97.519C125.045 97.519 128.931 96.601 132.635 94.741C136.345 92.8811 138.752 87.4992 138.752 87.4992H138.746Z" fill="#F7CACC"/>
<path d="M124.237 104.521C124.237 104.521 122.284 105.973 121.553 106.483C121.553 106.483 121.128 121.129 123.175 121.663C125.222 122.203 134.859 110.287 136.829 107.911C138.799 105.535 139.713 104.107 139.713 104.107L138.563 103.147C138.563 103.147 132.535 109.429 127.882 108.799C123.234 108.169 124.243 104.515 124.243 104.515L124.237 104.521Z" fill="#F7CACC"/>
<path d="M150.253 110.581C153.096 111.835 154.24 113.299 158.032 118.939C161.854 124.609 168.643 138.174 168.643 138.174L170.542 111.595L182.704 109.777C182.704 109.777 185.647 137.19 186.054 143.922C186.467 150.69 183.276 157.74 176.782 158.61C170.306 159.48 152.96 145.488 152.96 145.488C152.96 145.488 151.138 140.868 150.247 133.95C149.451 127.759 150.247 110.587 150.247 110.587L150.253 110.581Z" fill="#8BBB90"/>
<g style="mix-blend-mode:multiply">
<path d="M125.039 97.5131C125.039 97.5131 130.919 97.8311 134.635 94.5792C134.635 94.5792 130.618 100.681 124.862 101.491C124.862 101.491 125.056 100.027 125.074 99.3131C125.092 98.5991 125.039 97.5131 125.039 97.5131Z" fill="#F7CACC"/>
</g>
<path d="M159.047 55.9339C159.483 62.4557 154.611 67.9457 148.171 68.1677C141.748 68.3896 136.251 63.2837 135.874 56.7978C135.502 50.342 140.338 44.9301 146.696 44.6781C153.072 44.4261 158.61 49.448 159.047 55.9339Z" fill="#1F3186"/>
<path d="M130.335 60.8358C125.092 60.5718 118.48 64.3818 116.617 75.2716C114.741 86.2454 114.552 96.1872 122.314 97.3032C130.111 98.4192 137.289 95.2752 138.74 87.4994C140.185 79.7655 142.338 61.4418 130.329 60.8358H130.335Z" fill="#F7CACC"/>
<path d="M135.638 59.6658C128.66 59.7558 118.646 59.8338 115.608 63.0558C112.571 66.2777 112.476 69.9256 112.382 70.7116C112.288 71.4976 112.577 72.5536 114.853 72.7156C117.13 72.8776 121.064 70.5436 122.42 68.2757C122.42 68.2757 121.913 71.9476 124.396 72.9136C126.885 73.8796 131.456 73.7236 133.22 73.9276C134.989 74.1316 135.974 70.1596 136.139 68.3177C136.139 68.3177 135.75 77.9475 138.357 78.5115C138.357 78.5115 137.224 87.0073 138.746 87.4933C140.274 87.9793 144.137 86.5334 146.708 81.8054C149.274 77.0895 148.472 68.6777 147.463 65.5697C146.455 62.4678 142.361 59.5758 135.638 59.6658Z" fill="#1F3186"/>
<path d="M118.439 87.4512L127.374 87.9492C127.374 87.9492 125.788 91.2072 122.391 90.9072C118.999 90.6072 118.433 87.4452 118.433 87.4452L118.439 87.4512Z" fill="white"/>
<g style="mix-blend-mode:multiply">
<path d="M123.234 79.1896C122.45 80.6296 121.211 83.7196 121.789 84.4935C122.367 85.2675 123.535 84.9135 123.535 84.9135" stroke="#F7CACC" stroke-width="0.67" stroke-miterlimit="10" stroke-linecap="round"/>
</g>
<path d="M128.495 80.1256C128.454 80.9236 128.076 81.5476 127.652 81.5116C127.227 81.4816 126.909 80.8036 126.95 80.0056C126.991 79.2076 127.369 78.5896 127.793 78.6196C128.218 78.6496 128.536 79.3216 128.495 80.1196V80.1256Z" fill="#1F3186"/>
<path d="M126.755 77.1672C126.755 77.1672 128.212 76.4352 129.297 77.6112" stroke="#1F3186" stroke-miterlimit="10" stroke-linecap="round"/>
<path d="M146.832 81.6613C146.242 85.9872 143.034 89.0712 139.672 88.5372C136.322 88.0092 134.098 84.0793 134.712 79.7714C135.319 75.4814 138.51 72.4215 141.842 72.9315C145.186 73.4415 147.422 77.3474 146.832 81.6553V81.6613Z" fill="#0F67D5"/>
<path d="M146.832 81.6615C146.242 85.9874 143.405 89.1254 140.503 88.6694C137.607 88.2134 135.755 84.3375 136.363 80.0295C136.965 75.7336 139.79 72.6197 142.668 73.0637C145.552 73.5077 147.422 77.3476 146.832 81.6615Z" fill="#0074FF"/>
<path d="M140.315 73.2137C140.315 73.2137 140.315 60.344 129.28 59.81L125.21 60.08C125.21 60.08 128.206 58.49 132.712 59.096C137.23 59.708 140.403 62.7199 141.282 65.3899C142.161 68.0658 141.842 72.9437 141.842 72.9437C141.842 72.9437 141.211 73.4117 140.315 73.2137Z" fill="#0068F6"/>
<path d="M138.651 88.2616C138.651 88.2616 138.268 91.5435 137.979 93.0975C137.69 94.6575 135.59 95.2395 132.423 95.1435C129.262 95.0535 126.496 94.8135 126.496 94.8135C126.496 94.8135 125.906 93.1395 127.646 93.0855C127.646 93.0855 133.609 93.6075 135.142 93.5655C136.676 93.5235 136.9 90.3316 136.988 87.2056C136.988 87.2056 137.991 86.7076 138.646 88.2556L138.651 88.2616Z" fill="#0068F6"/>
<path d="M121.376 91.5495C123.735 91.7775 127.25 91.8615 127.646 93.0855C128.041 94.3095 127.475 95.4495 125.039 95.5755C122.609 95.7014 120.379 95.1315 119.512 95.0115C118.645 94.8915 117.542 91.1775 121.376 91.5495Z" fill="#0068F6"/>
<path d="M120.415 79.8499C120.373 80.6479 119.996 81.2718 119.571 81.2358C119.147 81.2058 118.828 80.5279 118.869 79.7299C118.911 78.9319 119.288 78.3139 119.713 78.3439C120.137 78.3739 120.456 79.0459 120.415 79.8439V79.8499Z" fill="#1F3186"/>
<path d="M118.675 76.8915C118.675 76.8915 120.132 76.1595 121.217 77.3355" stroke="#1F3186" stroke-miterlimit="10" stroke-linecap="round"/>
<g style="mix-blend-mode:multiply" opacity="0.5">
<path d="M154.222 146.473L152.966 145.483L150.813 158.646L154.198 158.616L154.222 146.473Z" fill="#8BBB90"/>
</g>
<path d="M189.338 97.8314C190.359 97.0574 190.365 92.9715 188.92 92.4495C187.475 91.9275 187.239 94.1714 186.85 95.2034C186.384 96.4454 184.773 100.015 182.538 99.9014C182.538 99.9014 186.342 100.111 189.338 97.8374V97.8314Z" fill="#F4BABD"/>
<path d="M186.85 95.2033C186.85 95.2033 186.974 93.6373 185.511 93.6313C184.054 93.6313 184.284 96.6373 183.075 98.0413C181.866 99.4452 180.863 99.8052 180.863 99.8052L182.757 99.8952C182.757 99.8952 184.567 100.375 186.85 95.1973V95.2033Z" fill="#F4BABD"/>
<path d="M176.705 99.805C176.705 99.805 176.328 99.283 175.06 98.4551C173.792 97.6271 173.402 95.3291 171.663 95.4191C170.389 95.4851 171.043 96.7211 170.666 99.223C170.56 99.931 169.746 101.431 169.657 103.495C169.657 103.495 171.202 99.991 176.711 99.805H176.705Z" fill="#F4BABD"/>
<path d="M181.441 109.963C181.441 109.963 181.66 106.987 181.76 106.321C181.854 105.655 181.931 105.367 183.612 104.989C185.293 104.611 189.368 102.415 190.955 100.879C192.541 99.3432 192.878 97.4413 192.17 96.5113C191.462 95.5873 189.834 97.8433 187.858 98.7552C185.883 99.6672 183.718 100.009 181.854 99.8712C179.996 99.7332 174.83 99.4512 172.359 100.789C169.887 102.133 168.896 103.903 169.734 106.159C170.571 108.415 171.374 111.469 171.374 111.469L181.436 109.963H181.441Z" fill="#F7CACC"/>
<path d="M119.743 24.1825C119.743 21.9385 117.956 20.1266 115.756 20.1266H72.1223C69.9164 20.1266 68.1353 21.9445 68.1353 24.1825V44.3302C68.1353 46.5741 69.9223 48.3861 72.1223 48.3861H112.689L119.743 54.524V24.1825Z" fill="#C2D7EF"/>
<path d="M68.1289 25.9465H119.736V24.1345C119.742 21.9205 117.979 20.1266 115.796 20.1266H72.0688C69.8924 20.1266 68.1289 21.9205 68.1289 24.1345V25.9465Z" fill="#0F67D5"/>
<path d="M108.89 23.0063C108.89 23.5702 108.436 24.0322 107.882 24.0322C107.327 24.0322 106.873 23.5702 106.873 23.0063C106.873 22.4423 107.327 21.9803 107.882 21.9803C108.436 21.9803 108.89 22.4423 108.89 23.0063Z" fill="white"/>
<path d="M111.792 24.0322C112.349 24.0322 112.8 23.5729 112.8 23.0063C112.8 22.4396 112.349 21.9803 111.792 21.9803C111.235 21.9803 110.783 22.4396 110.783 23.0063C110.783 23.5729 111.235 24.0322 111.792 24.0322Z" fill="white"/>
<path d="M115.702 24.0322C116.259 24.0322 116.711 23.5729 116.711 23.0063C116.711 22.4396 116.259 21.9803 115.702 21.9803C115.145 21.9803 114.694 22.4396 114.694 23.0063C114.694 23.5729 115.145 24.0322 115.702 24.0322Z" fill="white"/>
<path d="M85.2038 28.8745H71.2373V44.6662H85.2038V28.8745Z" fill="#1F3186"/>
<path d="M115.56 30.6808H89.3026C88.9428 30.6808 88.6479 30.3808 88.6479 30.0148C88.6479 29.6488 88.9428 29.3488 89.3026 29.3488H115.56C115.92 29.3488 116.215 29.6488 116.215 30.0148C116.215 30.3808 115.92 30.6808 115.56 30.6808Z" fill="#1F3186"/>
<path d="M115.56 34.562H89.3026C88.9428 34.562 88.6479 34.262 88.6479 33.896C88.6479 33.53 88.9428 33.23 89.3026 33.23H115.56C115.92 33.23 116.215 33.53 116.215 33.896C116.215 34.262 115.92 34.562 115.56 34.562Z" fill="#1F3186"/>
<path d="M98.993 38.444H89.3026C88.9428 38.444 88.6479 38.144 88.6479 37.778C88.6479 37.4121 88.9428 37.1121 89.3026 37.1121H98.993C99.3528 37.1121 99.6477 37.4121 99.6477 37.778C99.6477 38.144 99.3528 38.444 98.993 38.444Z" fill="#1F3186"/>
<path d="M115.561 42.3321H98.5448C98.185 42.3321 97.8901 42.0321 97.8901 41.6661C97.8901 41.3001 98.185 41.0001 98.5448 41.0001H115.561C115.92 41.0001 116.215 41.3001 116.215 41.6661C116.215 42.0321 115.92 42.3321 115.561 42.3321Z" fill="#1F3186"/>
<path d="M213.969 30.104H175.219C173.131 30.104 171.438 31.826 171.438 33.9499V61.4054L179.495 54.9376H213.969C216.057 54.9376 217.75 53.2156 217.75 51.0916V33.9499C217.75 31.826 216.057 30.104 213.969 30.104Z" fill="#C2D7EF"/>
<path d="M213.131 36.9919H176.121C175.762 36.9919 175.467 36.6919 175.467 36.3259C175.467 35.9599 175.762 35.6599 176.121 35.6599H213.131C213.491 35.6599 213.786 35.9599 213.786 36.3259C213.786 36.6919 213.491 36.9919 213.131 36.9919Z" fill="#1F3186"/>
<path d="M213.131 41.1206H176.121C175.762 41.1206 175.467 40.8206 175.467 40.4546C175.467 40.0886 175.762 39.7886 176.121 39.7886H213.131C213.491 39.7886 213.786 40.0886 213.786 40.4546C213.786 40.8206 213.491 41.1206 213.131 41.1206Z" fill="#1F3186"/>
<path d="M213.131 45.2483H176.121C175.762 45.2483 175.467 44.9483 175.467 44.5824C175.467 44.2164 175.762 43.9164 176.121 43.9164H213.131C213.491 43.9164 213.786 44.2164 213.786 44.5824C213.786 44.9483 213.491 45.2483 213.131 45.2483Z" fill="#1F3186"/>
<path d="M194.299 49.3701H176.121C175.762 49.3701 175.467 49.0701 175.467 48.7042C175.467 48.3382 175.762 48.0382 176.121 48.0382H194.299C194.659 48.0382 194.954 48.3382 194.954 48.7042C194.954 49.0701 194.659 49.3701 194.299 49.3701Z" fill="#1F3186"/>
<path d="M77.4595 70.8136C77.4595 70.6396 78.9458 64.1777 86.6427 64.1777C91.8211 64.1777 96.4451 67.6217 96.4451 72.5716C96.4451 76.0155 93.9267 78.1215 90.612 79.5615C89.4383 80.0894 89.4029 81.0734 89.4029 82.2314V84.1994H83.7055V80.3714C83.7055 78.8235 83.7762 77.5635 85.3274 76.5435C87.433 75.1755 89.4029 75.0675 89.4029 72.5776C89.4029 70.8916 88.1584 69.6976 86.6073 69.6976C84.1242 69.6976 82.9151 71.8036 82.5318 73.3156L77.4595 70.8196V70.8136ZM90.5117 90.1993C90.5117 92.4132 88.7482 94.2012 86.5424 94.2012C84.3365 94.2012 82.6084 92.4072 82.6084 90.1993C82.6084 87.9913 84.3719 86.1613 86.5424 86.1613C88.7128 86.1613 90.5117 87.9493 90.5117 90.1993Z" fill="#EF829F"/>
<path d="M61.2402 76.9395H11.6794C9.89231 76.9395 8.44141 78.4155 8.44141 80.2335V95.1912C8.44141 97.0092 9.89231 98.4852 11.6794 98.4852H59.6419L64.4782 104.383V80.2335C64.4782 78.4155 63.0273 76.9395 61.2402 76.9395Z" fill="#C2D7EF"/>
<path d="M11.5438 76.9395H61.3759C63.0863 76.9395 64.4782 78.3555 64.4782 80.0955V81.5114H8.44141V80.0955C8.44141 78.3555 9.83333 76.9395 11.5438 76.9395Z" fill="#0F67D5"/>
<path d="M59.8129 86.6053H12.8943C12.4579 86.6053 12.104 86.2453 12.104 85.8013C12.104 85.3573 12.4579 84.9973 12.8943 84.9973H59.8188C60.2552 84.9973 60.6091 85.3573 60.6091 85.8013C60.6091 86.2453 60.2552 86.6053 59.8188 86.6053H59.8129Z" fill="#1F3186"/>
<path d="M59.8129 90.2716H12.8943C12.4579 90.2716 12.104 89.9116 12.104 89.4676C12.104 89.0236 12.4579 88.6636 12.8943 88.6636H59.8188C60.2552 88.6636 60.6091 89.0236 60.6091 89.4676C60.6091 89.9116 60.2552 90.2716 59.8188 90.2716H59.8129Z" fill="#1F3186"/>
<path d="M59.8129 93.943H12.8943C12.4579 93.943 12.104 93.583 12.104 93.139C12.104 92.695 12.4579 92.335 12.8943 92.335H59.8188C60.2552 92.335 60.6091 92.695 60.6091 93.139C60.6091 93.583 60.2552 93.943 59.8188 93.943H59.8129Z" fill="#1F3186"/>
<path d="M73.5848 114.907H37.5776C35.8935 114.907 34.5283 116.296 34.5283 118.009V130.123C34.5283 131.836 35.8935 133.225 37.5776 133.225H73.5848C75.2689 133.225 76.6341 131.836 76.6341 130.123V118.009C76.6341 116.296 75.2689 114.907 73.5848 114.907Z" fill="#CC8C40"/>
<path d="M73.6438 114.907H39.2349C37.5834 114.907 36.2446 116.269 36.2446 117.949V130.183C36.2446 131.863 37.5834 133.225 39.2349 133.225H73.6438C75.2953 133.225 76.6341 131.863 76.6341 130.183V117.949C76.6341 116.269 75.2953 114.907 73.6438 114.907Z" fill="#F4B247"/>
<path d="M36.2446 117.949C36.2446 117.949 45.5812 133.23 69.8514 133.23H39.0934C37.5186 133.23 36.2446 131.934 36.2446 130.332V117.955V117.949Z" fill="#E5A345"/>
<path d="M66.5425 114.907L73.4136 116.323C73.4136 116.323 75.5015 116.827 75.5015 119.185V132.565C75.5015 132.565 76.6339 131.749 76.6339 130.183V117.943C76.6339 117.943 76.4865 114.901 73.6437 114.901H66.5425V114.907Z" fill="#F2CD70"/>
<path d="M42.5552 127.951V119.833H44.1653V123.031H47.3208V119.833H48.9309V127.951H47.3208V124.399H44.1653V127.951H42.5552Z" fill="white"/>
<path d="M50.606 127.951V119.833H56.5216V121.207H52.2161V123.007H56.2209V124.375H52.2161V126.583H56.675V127.951H50.606Z" fill="white"/>
<path d="M58.085 127.951V119.899H59.6952V126.583H63.6999V127.951H58.0791H58.085Z" fill="white"/>
<path d="M64.8496 127.951V119.833H67.4329C68.412 119.833 69.049 119.875 69.3498 119.953C69.8098 120.073 70.1873 120.337 70.4999 120.745C70.8066 121.153 70.9599 121.681 70.9599 122.329C70.9599 122.827 70.8715 123.247 70.6945 123.583C70.5176 123.925 70.2935 124.189 70.0163 124.381C69.7449 124.573 69.4618 124.705 69.1787 124.765C68.7954 124.843 68.2351 124.879 67.5096 124.879H66.4598V127.939H64.8496V127.951ZM66.4598 121.207V123.511H67.3445C67.9814 123.511 68.4061 123.469 68.6184 123.385C68.8308 123.301 69.0018 123.169 69.1198 122.983C69.2436 122.803 69.3026 122.593 69.3026 122.353C69.3026 122.059 69.22 121.813 69.049 121.621C68.8779 121.429 68.6597 121.309 68.4002 121.261C68.2056 121.225 67.8222 121.207 67.2383 121.207H66.4598Z" fill="white"/>
<path d="M37.0702 138.816H61.8889C63.3988 138.816 64.6256 140.064 64.6256 141.6V193.127C64.6256 194.663 63.3988 195.911 61.8889 195.911H37.0702C35.5603 195.911 34.3335 194.663 34.3335 193.127V141.6C34.3335 140.064 35.5603 138.816 37.0702 138.816Z" fill="#1F3186"/>
<path d="M61.4053 142.123H37.542V189.216H61.4053V142.123Z" fill="#C2D7EF"/>
<path d="M37.542 189.216C37.542 189.216 61.4053 170.73 61.4053 150.943V189.216H37.542Z" fill="#BACFE2"/>
<g style="mix-blend-mode:multiply" opacity="0.5">
<path d="M51.662 192.612C51.662 193.842 50.6829 194.838 49.4738 194.838C48.2647 194.838 47.2856 193.842 47.2856 192.612C47.2856 191.382 48.2647 190.386 49.4738 190.386C50.6829 190.386 51.662 191.382 51.662 192.612Z" fill="#1F3186"/>
</g>
<path d="M49.474 164.682C53.9496 164.682 57.5778 160.991 57.5778 156.438C57.5778 151.885 53.9496 148.194 49.474 148.194C44.9983 148.194 41.3701 151.885 41.3701 156.438C41.3701 160.991 44.9983 164.682 49.474 164.682Z" fill="#F4B247"/>
<path d="M45.7991 182.417C45.7991 184.001 44.537 185.285 42.9799 185.285C41.4228 185.285 40.1606 184.001 40.1606 182.417C40.1606 180.833 41.4228 179.549 42.9799 179.549C44.537 179.549 45.7991 180.833 45.7991 182.417Z" fill="#EF829F"/>
<path d="M59.2938 182.417C59.2938 184.001 58.0316 185.285 56.4745 185.285C54.9174 185.285 53.6553 184.001 53.6553 182.417C53.6553 180.833 54.9174 179.549 56.4745 179.549C58.0316 179.549 59.2938 180.833 59.2938 182.417Z" fill="#8BBB90"/>
<path d="M43.2222 150.918C43.2222 150.804 44.2012 146.544 49.2735 146.544C52.6885 146.544 55.7377 148.812 55.7377 152.076C55.7377 154.344 54.0745 155.736 51.8922 156.684C51.1196 157.032 51.096 157.68 51.096 158.442V159.738H47.339V157.212C47.339 156.192 47.3862 155.358 48.4065 154.692C49.7925 153.792 51.0901 153.72 51.0901 152.076C51.0901 150.966 50.2703 150.18 49.2499 150.18C47.6103 150.18 46.814 151.566 46.5663 152.562L43.2222 150.918ZM51.8214 163.692C51.8214 165.15 50.6595 166.332 49.2027 166.332C47.7459 166.332 46.6076 165.15 46.6076 163.692C46.6076 162.234 47.7695 161.028 49.2027 161.028C50.6359 161.028 51.8214 162.21 51.8214 163.692Z" fill="white"/>
<path d="M212.919 172.746C211.515 173.964 209.404 173.79 208.206 172.356L188.702 149.023L193.792 144.619L213.296 167.952C214.494 169.38 214.323 171.528 212.913 172.746H212.919Z" fill="#1F3186"/>
<g style="mix-blend-mode:multiply" opacity="0.5">
<path d="M212.919 172.746C211.515 173.964 209.404 173.79 208.207 172.356L201.943 164.862L207.033 160.459L213.297 167.952C214.494 169.38 214.323 171.528 212.913 172.746H212.919Z" fill="#1F3186"/>
</g>
<g style="mix-blend-mode:multiply" opacity="0.5">
<path d="M195.296 146.419C195.296 146.419 194.588 147.835 193.137 149.089C191.798 150.247 190.2 150.823 190.2 150.823L188.696 149.023L193.786 144.619L195.29 146.419H195.296Z" fill="#1F3186"/>
</g>
<path opacity="0.5" d="M191.838 142.963C196.728 136.585 195.609 127.382 189.339 122.407C183.069 117.433 174.022 118.571 169.133 124.949C164.243 131.328 165.362 140.531 171.632 145.505C177.901 150.479 186.948 149.341 191.838 142.963Z" fill="#C2D7EF"/>
<path d="M194.14 122.131C187.729 114.457 176.41 113.527 168.867 120.055C161.323 126.583 160.409 138.091 166.826 145.765C173.237 153.438 184.555 154.368 192.099 147.841C199.643 141.313 200.557 129.805 194.14 122.131ZM189.811 145.099C183.753 150.337 174.67 149.593 169.521 143.431C164.373 137.269 165.104 128.029 171.161 122.791C177.218 117.553 186.301 118.297 191.45 124.459C196.599 130.621 195.868 139.861 189.811 145.099Z" fill="#1F3186"/>
<path opacity="0.5" d="M173.396 123.625C171.232 125.041 169.592 127.981 170.117 129.301C170.642 130.621 172.789 130.129 175.974 127.405C179.159 124.681 181.235 125.767 182.804 124.441C184.373 123.121 179.206 119.821 173.396 123.625Z" fill="#C2D7EF"/>
<path opacity="0.5" d="M185.546 124.8C184.768 126.096 186.124 127.764 187.841 129.234C189.557 130.71 191.704 128.964 190.548 126.888C189.392 124.812 186.608 123.012 185.541 124.794L185.546 124.8Z" fill="#C2D7EF"/>
<path d="M183.93 88.7955H175.024C174.753 88.7955 174.529 89.0235 174.529 89.2995V91.9994C174.529 94.4414 176.239 96.4753 178.504 96.9313V97.6993C178.504 98.2753 178.964 98.7373 179.524 98.7373C180.085 98.7373 180.545 98.2693 180.545 97.6993V96.9073C182.762 96.4093 184.42 94.3994 184.42 91.9994V89.2995C184.42 89.0235 184.196 88.7955 183.924 88.7955H183.93Z" fill="#1F3186"/>
<path d="M190.99 74.69C190.99 68.2341 185.847 62.9962 179.495 62.9962C173.143 62.9962 168 68.2281 168 74.69C168 78.7399 170.259 81.9858 173.096 84.4038C174.01 85.1838 175.119 86.5397 175.119 88.7957H183.86C183.86 86.5397 184.969 85.1838 185.883 84.4038C188.72 81.9858 190.979 78.7399 190.979 74.69H190.99Z" fill="#F4B247"/>
<g style="mix-blend-mode:multiply" opacity="0.5">
<path d="M184.426 90.1757H174.529V91.5796H184.426V90.1757Z" fill="#1F3186"/>
</g>
<path d="M175.821 78.4995L177.661 88.7954" stroke="white" stroke-width="0.68" stroke-miterlimit="10"/>
<path d="M182.822 78.4995L180.981 88.7954" stroke="white" stroke-width="0.68" stroke-miterlimit="10"/>
<path d="M173.656 78.4757C173.656 78.4757 174.434 79.8737 175.868 79.9337C177.301 79.9937 178.38 78.7517 178.799 77.9417C179.218 77.1317 178.911 75.1037 177.596 75.1757C176.286 75.2477 175.868 77.3177 177 78.5357C178.138 79.7537 180.12 80.5457 182.06 78.1697C184.001 75.7937 182.013 74.0058 180.94 75.1157C179.872 76.2257 180.167 79.6937 184.42 79.4477" stroke="white" stroke-width="0.68" stroke-miterlimit="10"/>
</svg>
