<svg width="220" height="220" viewBox="0 0 220 220" fill="none" xmlns="http://www.w3.org/2000/svg">
<mask id="mask0_7_17892" style="mask-type:alpha" maskUnits="userSpaceOnUse" x="0" y="0" width="220" height="220">
<rect y="0.344238" width="220" height="219.656" rx="109.828" fill="#D9D9D9"/>
</mask>
<g mask="url(#mask0_7_17892)">
<mask id="mask1_7_17892" style="mask-type:luminance" maskUnits="userSpaceOnUse" x="-42" y="-3" width="305" height="225">
<path d="M262.434 5.93837C262.434 1.36576 258.727 -2.34106 254.155 -2.34106H-32.7674C-37.34 -2.34106 -41.0469 1.36578 -41.0469 5.93838V213.322C-41.0469 217.895 -37.34 221.602 -32.7674 221.602H254.155C258.727 221.602 262.434 217.895 262.434 213.322V5.93837Z" fill="white"/>
</mask>
<g mask="url(#mask1_7_17892)">
<path d="M234.304 5.50477C234.304 0.93217 230.597 -2.77466 226.025 -2.77466H1.55287C-3.01973 -2.77466 -6.72656 0.932182 -6.72656 5.50479V212.889C-6.72656 217.462 -3.01973 221.168 1.55287 221.168H226.025C230.597 221.168 234.304 217.461 234.304 212.889V5.50477Z" fill="#E7EE98"/>
<path d="M68.1406 126.703C70.3188 127.286 71.2865 124.661 69.3772 123.462C67.385 122.21 65.1105 121.568 64.6719 121.388C63.9711 121.101 66.1771 126.177 68.1406 126.703Z" fill="#419980"/>
<path opacity="0.28" d="M64.667 121.388C64.5646 121.347 64.5839 121.505 64.659 121.586C66.0562 123.082 67.0442 124.243 68.4312 125.109C69.9763 126.074 70.9988 124.443 69.455 123.476C67.4384 122.213 65.1119 121.568 64.667 121.388Z" fill="#1F1F39"/>
<path fill-rule="evenodd" clip-rule="evenodd" d="M79.3562 124.434C78.9892 124.89 78.7903 125.573 78.9002 126.448C78.9882 127.147 79.4467 127.733 80.2059 128.203C80.5609 128.423 81.0069 128.436 81.3786 128.245C81.7175 128.072 82.0195 127.871 82.2648 127.641C82.6707 127.261 82.915 126.809 82.9307 126.26C82.9443 125.782 82.7227 125.147 82.3378 124.623M82.786 129.134C82.2931 129.036 82.2346 128.374 82.6013 128.03C83.0847 127.578 83.4129 126.998 83.4336 126.276V126.276C83.4515 125.645 83.1716 124.895 82.7374 124.305C82.3039 123.715 81.672 123.226 80.9455 123.211L80.9455 123.211C80.1513 123.195 79.4444 123.509 78.9704 124.098C78.4968 124.687 78.2767 125.524 78.4013 126.516L78.4013 126.516C78.5167 127.432 79.1149 128.137 79.9487 128.653C80.0031 128.687 79.9926 128.77 79.9309 128.786C78.8594 129.076 77.7628 129.181 77.1129 129.185C76.0873 129.192 75.2565 128.874 74.6811 128.554C74.3936 128.394 74.1709 128.234 74.0213 128.115C73.9465 128.056 73.8902 128.007 73.8532 127.973C73.8348 127.956 73.8212 127.944 73.8125 127.935C73.8082 127.931 73.8052 127.928 73.8034 127.926L73.8019 127.925L73.8017 127.925L73.8017 127.925L73.8017 127.925C73.8017 127.925 73.8016 127.925 73.8016 127.925C73.8016 127.925 73.8016 127.925 73.8016 127.925C73.7019 127.824 73.5428 127.827 73.4461 127.93C73.4104 127.968 73.3882 128.015 73.3794 128.064C73.3544 128.202 73.5309 128.215 73.6266 128.113C73.4513 128.3 73.4513 128.301 73.4514 128.301L73.4516 128.301L73.4521 128.301L73.4534 128.303L73.4575 128.307C73.4609 128.31 73.4656 128.315 73.4716 128.32C73.4836 128.332 73.5007 128.348 73.5229 128.368C73.5673 128.408 73.6319 128.464 73.7158 128.531C73.8835 128.665 74.1289 128.841 74.4439 129.016C75.0738 129.366 75.9871 129.716 77.1161 129.709H77.1161C77.4585 129.707 77.9168 129.678 78.4304 129.612C79.9612 129.414 81.5503 129.461 83.0721 129.719C85.4537 130.121 88.2811 129.949 90.2806 129.274C90.4128 129.23 90.4852 129.082 90.4424 128.944C90.3995 128.807 90.2577 128.732 90.1255 128.776C88.2129 129.421 85.4676 129.593 83.1527 129.202C83.029 129.181 82.9067 129.158 82.786 129.134ZM79.3562 124.434C79.3695 124.418 79.3831 124.401 79.3969 124.385L79.3562 124.434Z" fill="#5E5E77"/>
<path opacity="0.1" d="M68.6614 169.73C68.6614 172.261 57.9515 173.935 44.579 173.935C31.2074 173.935 20.3672 171.883 20.3672 169.352C20.3672 166.82 31.2074 164.768 44.579 164.768C57.9507 164.768 68.6614 167.199 68.6614 169.73Z" fill="#32323F"/>
<path d="M56.1742 146.645C56.1745 146.645 56.175 146.645 56.175 146.646C56.1559 147.485 55.8487 148.561 55.3267 149.791C51.9728 157.691 38.8778 171.92 36.9071 171.48C36.9058 171.48 36.9044 171.48 36.903 171.48C36.9016 171.48 36.9006 171.48 36.8993 171.479C36.8707 171.473 36.8452 171.463 36.822 171.449C36.7288 171.398 36.6324 171.344 36.5327 171.29C34.0024 169.92 29.505 168.012 29.505 166.374C29.505 162.712 29.2475 151.217 29.2042 147.164C29.2017 146.913 29.2001 146.689 29.1993 146.499C29.1838 142.774 31.4877 138.495 35.8633 135.769C38.5252 134.109 41.952 133.025 46.0907 132.989C46.2092 132.987 46.3285 132.987 46.447 132.989C48.33 133 49.8583 133.216 51.0981 133.597C51.7952 133.811 52.4016 134.079 52.928 134.392C53.2835 134.604 53.603 134.836 53.8891 135.088C56.8882 137.719 56.2707 142.398 56.1734 146.645C56.1734 146.645 56.1739 146.646 56.1742 146.645Z" fill="white"/>
<path d="M58.5184 171.154C58.5188 171.154 58.5192 171.155 58.5189 171.155C56.9922 171.818 39.9135 172.68 36.7641 171.562C36.7534 171.557 36.7436 171.554 36.7338 171.551C36.7158 171.544 36.6978 171.537 36.6806 171.53C36.5578 171.481 36.4604 171.428 36.3908 171.371C36.3777 171.361 36.3663 171.35 36.3548 171.339C36.345 171.329 36.336 171.32 36.3278 171.31C36.2869 171.26 36.2656 171.209 36.2656 171.154V146.543C36.2656 145.73 36.3475 144.475 36.6126 143.051C36.629 142.963 36.6462 142.873 36.6642 142.783C36.7722 142.241 36.9073 141.679 37.0742 141.109C37.1152 140.967 37.1594 140.823 37.2052 140.681C37.2363 140.585 37.2674 140.49 37.2993 140.393C37.364 140.203 37.4327 140.012 37.5056 139.821C37.5784 139.631 37.6545 139.44 37.7356 139.25C37.756 139.203 37.7765 139.155 37.7969 139.109C38.0261 138.589 38.2864 138.077 38.5835 137.584C38.7455 137.314 38.9182 137.051 39.1032 136.795C39.1638 136.71 39.226 136.626 39.2906 136.543C39.4183 136.376 39.5517 136.213 39.6908 136.053C39.726 136.013 39.7604 135.974 39.7956 135.934C39.9012 135.816 40.0108 135.701 40.1238 135.588C41.5242 134.179 43.4156 133.175 45.961 133.012C46.2311 132.994 46.5077 132.985 46.7925 132.988C46.8629 132.988 46.9325 132.99 47.0029 132.991C47.142 132.994 47.2803 132.998 47.4162 133.005C47.5529 133.01 47.6879 133.018 47.8205 133.027C48.0865 133.045 48.3476 133.07 48.6021 133.102C48.6659 133.11 48.729 133.118 48.792 133.126C48.918 133.144 49.0424 133.162 49.1652 133.183C49.2258 133.193 49.2872 133.204 49.3485 133.214C49.7127 133.28 50.0639 133.359 50.4027 133.45C50.4592 133.465 50.5148 133.481 50.5705 133.497C50.6826 133.528 50.7923 133.563 50.9011 133.597C50.9257 133.605 50.9511 133.613 50.9764 133.621C51.1679 133.683 51.3546 133.75 51.5371 133.821C51.6402 133.862 51.7417 133.902 51.8423 133.945C51.8923 133.966 51.9422 133.987 51.9913 134.01C52.1403 134.076 52.2859 134.145 52.4284 134.215C52.5577 134.28 52.6845 134.348 52.8089 134.417C52.9137 134.474 53.0168 134.534 53.1183 134.595C53.2067 134.648 53.2935 134.703 53.3802 134.759C53.5406 134.864 53.6978 134.972 53.8492 135.084C53.8999 135.122 53.9515 135.16 54.0014 135.198C54.0808 135.259 54.1594 135.321 54.2371 135.385C54.3141 135.449 54.391 135.513 54.4655 135.579C54.5408 135.644 54.6136 135.711 54.6865 135.778C57.6149 138.496 58.5905 142.779 58.5168 146.688C58.5168 146.741 58.5152 146.795 58.5143 146.85C58.5103 147.133 58.5103 147.436 58.5127 147.757C58.5127 147.808 58.5127 147.859 58.5143 147.91C58.516 148.054 58.5184 148.201 58.5209 148.352C58.5209 148.404 58.5233 148.458 58.5242 148.512C58.5274 148.665 58.5307 148.821 58.5356 148.982V148.986C58.5381 149.093 58.5405 149.201 58.5446 149.311V149.314C58.5479 149.424 58.5512 149.535 58.5553 149.648C58.5569 149.705 58.5585 149.762 58.5602 149.818C58.5929 150.791 58.6412 151.851 58.696 152.963C58.7001 153.05 58.705 153.135 58.7091 153.222C58.7304 153.653 58.7525 154.091 58.7763 154.534C58.7853 154.712 58.7943 154.89 58.8041 155.069C58.8458 155.873 58.8892 156.691 58.9318 157.51C58.9367 157.601 58.9416 157.693 58.9457 157.784C58.9547 157.966 58.9637 158.147 58.9735 158.329C58.9874 158.603 59.0013 158.875 59.0136 159.148C59.0226 159.329 59.0308 159.51 59.0398 159.69C59.048 159.871 59.0562 160.051 59.0643 160.23V160.232C59.0725 160.41 59.0807 160.589 59.0881 160.767C59.1004 161.035 59.111 161.301 59.1216 161.563C59.147 162.178 59.1691 162.782 59.1863 163.368C59.1937 163.618 59.2002 163.866 59.2068 164.11C59.3 167.93 59.1832 170.86 58.5183 171.154C58.5179 171.154 58.5181 171.154 58.5184 171.154Z" fill="white"/>
<path d="M56.1742 146.863C56.1747 146.863 56.175 146.863 56.175 146.864C56.1567 147.685 55.8713 148.728 55.3845 149.919C55.3498 150.004 55.267 150.059 55.1755 150.059C55.1117 150.059 55.048 150.059 54.9834 150.061C54.945 150.061 54.9074 150.061 54.869 150.061C54.766 150.061 54.6606 150.061 54.556 150.063C54.3451 150.063 54.131 150.065 53.9136 150.067C53.8597 150.067 53.8049 150.067 53.7501 150.067C53.6177 150.067 53.4837 150.069 53.3489 150.069C53.2573 150.069 53.165 150.069 53.0726 150.071C52.8511 150.073 52.6272 150.074 52.4 150.075C52.3428 150.075 52.2856 150.075 52.2267 150.075C51.8516 150.078 51.47 150.08 51.0842 150.08C49.1767 150.091 47.167 150.097 45.2742 150.1C44.5828 150.1 43.9045 150.1 43.249 150.1C40.3886 150.096 38.0389 150.077 37.1129 150.027C36.8481 150.014 36.6152 150 36.4076 149.986C34.4718 149.857 34.6568 149.65 29.832 147.647C29.4538 147.491 29.201 147.122 29.1993 146.713C29.1838 142.929 31.4877 138.582 35.8633 135.813C38.5252 134.127 41.952 133.025 46.0907 132.989C46.2092 132.987 46.3285 132.987 46.447 132.989C48.33 133 49.8583 133.219 51.0981 133.606C51.7952 133.824 52.4016 134.096 52.928 134.415C53.2835 134.63 53.603 134.866 53.8891 135.121C56.8883 137.794 56.2707 142.547 56.1734 146.861C56.1734 146.862 56.1737 146.862 56.1742 146.863Z" fill="#0069A8"/>
<path d="M58.0542 150.035C58.0551 150.036 58.0546 150.037 58.0535 150.037C57.2243 150.043 56.0946 150.051 54.7815 150.059C54.7327 150.059 54.6831 150.059 54.6335 150.059C54.5711 150.059 54.5088 150.059 54.4456 150.061C54.408 150.061 54.3712 150.061 54.3336 150.061C54.2328 150.061 54.1296 150.061 54.0272 150.063C53.8209 150.063 53.6113 150.065 53.3986 150.067C53.3458 150.067 53.2922 150.067 53.2386 150.067C53.109 150.067 52.9778 150.069 52.8459 150.069C52.7563 150.069 52.6659 150.069 52.5755 150.071C52.3587 150.071 52.1396 150.074 51.9172 150.075C51.8612 150.075 51.8052 150.075 51.7477 150.075C51.3805 150.077 51.007 150.08 50.6295 150.08C48.7706 150.09 46.8085 150.096 44.9433 150.1C44.2666 150.1 43.6027 150.1 42.9612 150.1C41.7282 150.1 40.5766 150.097 39.5739 150.09C37.7185 150.076 36.2656 148.573 36.2656 146.718C36.2656 145.894 36.3456 144.623 36.6048 143.181C36.6208 143.092 36.6376 143.001 36.6552 142.909C36.7607 142.36 36.8927 141.791 37.0559 141.213C37.0959 141.07 37.1391 140.924 37.1839 140.78C37.2143 140.683 37.2447 140.587 37.2758 140.489C37.339 140.296 37.4062 140.102 37.4774 139.909C37.5486 139.716 37.623 139.523 37.7022 139.331C37.7222 139.283 37.7422 139.235 37.7622 139.187C37.9861 138.661 38.2405 138.142 38.5308 137.643C38.6892 137.37 38.858 137.103 39.0387 136.844C39.0979 136.758 39.1587 136.673 39.2219 136.589C39.3467 136.42 39.4771 136.255 39.613 136.093C39.6474 136.052 39.681 136.013 39.7154 135.972C39.8186 135.852 39.9258 135.736 40.0362 135.621C41.4047 134.194 43.2532 133.177 45.7407 133.012C46.0047 132.994 46.275 132.985 46.5534 132.988C46.6222 132.988 46.6902 132.99 46.7589 132.991C46.8949 132.994 47.0301 132.998 47.1629 133.005C47.2965 133.01 47.4284 133.018 47.558 133.028C47.818 133.046 48.0731 133.071 48.3219 133.104C48.3843 133.111 48.4458 133.12 48.5074 133.128C48.6306 133.146 48.7522 133.164 48.8722 133.185C48.9314 133.195 48.9914 133.206 49.0513 133.217C49.4073 133.284 49.7504 133.363 50.0816 133.456C50.1367 133.471 50.1911 133.487 50.2455 133.503C50.3551 133.535 50.4623 133.57 50.5687 133.605C50.5927 133.613 50.6175 133.621 50.6423 133.629C50.8294 133.692 51.0118 133.76 51.1902 133.831C51.2909 133.873 51.3901 133.914 51.4885 133.957C51.5373 133.979 51.5861 134 51.6341 134.023C51.7796 134.09 51.922 134.16 52.0612 134.231C52.1876 134.297 52.3116 134.365 52.4331 134.435C52.5355 134.494 52.6363 134.554 52.7355 134.616C52.8219 134.67 52.9067 134.725 52.9914 134.782C53.1482 134.888 53.3018 134.998 53.4498 135.111C53.4993 135.15 53.5497 135.188 53.5985 135.226C53.6761 135.288 53.7529 135.351 53.8289 135.416C53.9041 135.48 53.9793 135.545 54.052 135.612C54.1256 135.679 54.1968 135.746 54.268 135.814C57.1299 138.567 58.0833 142.905 58.0113 146.864C58.0113 146.918 58.0097 146.973 58.0089 147.029C58.0049 147.315 58.0049 147.622 58.0073 147.947C58.0073 147.999 58.0073 148.05 58.0089 148.102C58.0105 148.248 58.0129 148.397 58.0153 148.55C58.0153 148.603 58.0177 148.658 58.0185 148.712C58.0217 148.867 58.0249 149.025 58.0297 149.188V149.192C58.0321 149.3 58.0345 149.41 58.0385 149.521V149.524C58.0417 149.635 58.0449 149.748 58.0489 149.862C58.0505 149.92 58.0521 149.977 58.0537 150.034C58.0537 150.035 58.0539 150.035 58.0542 150.035Z" fill="#0069A8"/>
<path opacity="0.16" d="M45.6894 132.988C45.6892 132.988 45.6889 132.988 45.6886 132.988C43.2074 133.151 41.3637 134.159 39.9986 135.573C39.8893 135.686 39.7824 135.802 39.6787 135.92C39.6444 135.961 39.6109 136 39.5766 136.04C39.543 136.08 39.5095 136.12 39.476 136.161C39.3755 136.282 39.2789 136.405 39.1864 136.531C39.1234 136.616 39.0627 136.7 39.0037 136.785C38.959 136.849 38.9143 136.913 38.8704 136.979C38.7835 137.109 38.6989 137.24 38.6175 137.375C38.5768 137.442 38.5361 137.509 38.497 137.576C38.2074 138.07 37.9537 138.584 37.7303 139.107C37.7103 139.154 37.6904 139.202 37.6704 139.25C37.6114 139.392 37.5539 139.535 37.4997 139.679C37.4813 139.727 37.463 139.775 37.4454 139.822C37.4279 139.87 37.4103 139.918 37.3927 139.965C37.3584 140.061 37.3249 140.156 37.2922 140.253C37.2763 140.301 37.2603 140.349 37.2443 140.396C37.2132 140.492 37.1821 140.589 37.1526 140.685C37.1079 140.828 37.0648 140.972 37.0249 141.114C36.8622 141.687 36.7305 142.251 36.6252 142.794C36.6076 142.885 36.5909 142.975 36.5749 143.064C36.3164 144.494 36.2366 145.752 36.2366 146.569V171.272C36.2366 171.326 36.2574 171.378 36.2973 171.428C36.3052 171.438 36.314 171.448 36.3236 171.458C36.3268 171.461 36.3216 171.47 36.3175 171.467C33.84 170.092 29.4977 168.185 29.4977 166.549C29.4977 162.868 29.2464 151.312 29.2041 147.239C29.2017 146.986 29.2001 146.761 29.1993 146.57C29.1841 142.825 31.4334 138.524 35.7052 135.783C38.3037 134.115 41.6487 133.025 45.6886 132.989C45.6892 132.989 45.6896 132.989 45.6894 132.988Z" fill="#1F1F3B"/>
<path opacity="0.1" d="M131.68 169.118C131.68 171.65 120.84 173.324 107.304 173.324C93.7693 173.324 82.7969 171.272 82.7969 168.74C82.7969 166.209 93.7693 164.156 107.304 164.156C120.839 164.156 131.68 166.587 131.68 169.118Z" fill="#32323F"/>
<path d="M118.603 146.036C118.604 146.036 118.604 146.036 118.604 146.036C118.586 146.876 118.285 147.952 117.774 149.182C114.493 157.082 101.683 171.31 99.7552 170.871C99.7539 170.871 99.7525 170.87 99.7512 170.87C99.7498 170.87 99.7488 170.87 99.7475 170.87C99.7195 170.863 99.6946 170.854 99.6719 170.84C99.5808 170.788 99.4864 170.735 99.3889 170.681C96.9136 169.311 92.5139 167.402 92.5139 165.765C92.5139 162.103 92.2621 150.608 92.2197 146.555C92.2173 146.304 92.2157 146.08 92.2149 145.89C92.1997 142.165 94.4535 137.886 98.7341 135.159C101.338 133.499 104.69 132.415 108.739 132.379C108.855 132.378 108.972 132.378 109.088 132.379C110.93 132.39 112.425 132.606 113.638 132.987C114.32 133.202 114.913 133.47 115.428 133.783C115.776 133.995 116.088 134.227 116.368 134.478C119.302 137.11 118.698 141.789 118.603 146.036C118.603 146.036 118.603 146.036 118.603 146.036Z" fill="white"/>
<path d="M120.963 170.545C120.964 170.545 120.964 170.545 120.964 170.546C119.476 171.208 102.836 172.07 99.7669 170.952C99.7565 170.948 99.747 170.945 99.7374 170.941C99.7199 170.935 99.7023 170.927 99.6856 170.921C99.5659 170.871 99.471 170.819 99.4033 170.762C99.3905 170.752 99.3793 170.741 99.3682 170.73C99.3586 170.72 99.3498 170.711 99.3419 170.701C99.302 170.651 99.2812 170.599 99.2812 170.545V145.934C99.2812 145.12 99.361 143.866 99.6194 142.442C99.6353 142.354 99.6521 142.264 99.6696 142.173C99.7749 141.632 99.9065 141.07 100.069 140.499C100.109 140.358 100.152 140.214 100.197 140.071C100.227 139.976 100.257 139.881 100.288 139.784C100.351 139.593 100.418 139.403 100.489 139.212C100.56 139.021 100.635 138.831 100.713 138.641C100.733 138.593 100.753 138.546 100.773 138.499C100.997 137.98 101.25 137.467 101.54 136.974C101.698 136.705 101.866 136.441 102.046 136.186C102.105 136.101 102.166 136.017 102.229 135.934C102.353 135.767 102.483 135.604 102.619 135.444C102.653 135.404 102.686 135.365 102.721 135.325C102.824 135.207 102.93 135.092 103.04 134.978C104.405 133.569 106.248 132.565 108.728 132.403C108.991 132.384 109.261 132.376 109.538 132.379C109.607 132.379 109.675 132.38 109.743 132.382C109.879 132.384 110.014 132.389 110.146 132.395C110.279 132.4 110.411 132.409 110.54 132.418C110.799 132.436 111.053 132.461 111.301 132.493C111.364 132.5 111.425 132.509 111.486 132.517C111.609 132.534 111.73 132.553 111.85 132.573C111.909 132.583 111.969 132.594 112.029 132.605C112.384 132.671 112.726 132.749 113.056 132.841C113.111 132.856 113.165 132.872 113.219 132.887C113.329 132.919 113.435 132.953 113.541 132.987C113.565 132.996 113.59 133.003 113.615 133.011C113.801 133.074 113.983 133.141 114.161 133.211C114.262 133.252 114.36 133.293 114.459 133.335C114.507 133.357 114.556 133.378 114.604 133.4C114.749 133.466 114.891 133.535 115.03 133.606C115.156 133.671 115.279 133.738 115.4 133.808C115.502 133.865 115.603 133.925 115.702 133.986C115.788 134.039 115.872 134.094 115.957 134.15C116.113 134.255 116.266 134.363 116.414 134.475C116.463 134.513 116.514 134.55 116.562 134.589C116.64 134.649 116.716 134.712 116.792 134.776C116.867 134.839 116.942 134.903 117.014 134.969C117.088 135.035 117.159 135.102 117.23 135.168C120.083 137.887 121.034 142.17 120.962 146.079C120.962 146.132 120.96 146.186 120.959 146.241C120.956 146.523 120.956 146.826 120.958 147.148C120.958 147.199 120.958 147.249 120.959 147.3C120.961 147.444 120.963 147.592 120.966 147.742C120.966 147.795 120.968 147.849 120.969 147.902C120.972 148.056 120.975 148.212 120.98 148.373V148.377C120.983 148.484 120.985 148.592 120.989 148.702V148.704C120.992 148.814 120.995 148.926 120.999 149.038C121.001 149.096 121.003 149.152 121.004 149.209C121.036 150.181 121.083 151.242 121.137 152.354C121.141 152.441 121.145 152.526 121.149 152.612C121.17 153.044 121.192 153.482 121.215 153.925C121.223 154.103 121.232 154.28 121.242 154.459C121.282 155.264 121.325 156.081 121.366 156.901C121.371 156.992 121.376 157.083 121.38 157.175C121.389 157.356 121.397 157.538 121.407 157.719C121.42 157.993 121.434 158.266 121.446 158.539C121.455 158.719 121.463 158.9 121.471 159.081C121.479 159.262 121.487 159.441 121.495 159.62V159.622C121.503 159.8 121.511 159.979 121.519 160.158C121.53 160.426 121.541 160.691 121.551 160.954C121.576 161.569 121.597 162.173 121.614 162.758C121.621 163.009 121.628 163.256 121.634 163.5C121.725 167.32 121.611 170.25 120.963 170.544C120.963 170.545 120.963 170.545 120.963 170.545Z" fill="white"/>
<path d="M118.603 146.253C118.604 146.254 118.604 146.254 118.604 146.255C118.586 147.076 118.307 148.12 117.83 149.313C117.797 149.396 117.716 149.45 117.626 149.45C117.564 149.45 117.502 149.45 117.439 149.452C117.401 149.452 117.364 149.452 117.327 149.452C117.226 149.452 117.123 149.452 117.02 149.453C116.814 149.453 116.605 149.456 116.392 149.458C116.339 149.458 116.286 149.458 116.232 149.458C116.103 149.458 115.971 149.459 115.84 149.46C115.75 149.46 115.66 149.46 115.569 149.462C115.353 149.463 115.134 149.465 114.911 149.466C114.855 149.466 114.799 149.466 114.742 149.466C114.375 149.468 114.001 149.47 113.624 149.471C111.758 149.481 109.792 149.488 107.94 149.49C107.264 149.49 106.6 149.49 105.959 149.49C103.161 149.487 100.862 149.468 99.9565 149.418C99.6975 149.404 99.4696 149.391 99.2666 149.376C97.3744 149.248 97.5535 149.041 92.8455 147.043C92.4681 146.883 92.2166 146.513 92.2149 146.103C92.1997 142.319 94.4535 137.973 98.7341 135.203C101.338 133.517 104.69 132.416 108.739 132.379C108.855 132.378 108.972 132.378 109.088 132.379C110.93 132.39 112.425 132.61 113.638 132.997C114.32 133.215 114.913 133.487 115.428 133.805C115.776 134.021 116.088 134.256 116.368 134.511C119.302 137.184 118.698 141.938 118.603 146.252C118.603 146.253 118.603 146.253 118.603 146.253Z" fill="#0069A8"/>
<path d="M121.07 149.426C121.071 149.427 121.07 149.428 121.069 149.428C120.24 149.433 119.11 149.442 117.797 149.45C117.748 149.45 117.699 149.45 117.649 149.45C117.587 149.45 117.524 149.45 117.461 149.452C117.424 149.452 117.387 149.452 117.349 149.452C117.248 149.452 117.145 149.452 117.043 149.453C116.837 149.453 116.627 149.456 116.414 149.458C116.361 149.458 116.308 149.458 116.254 149.458C116.125 149.458 115.993 149.459 115.861 149.46C115.772 149.46 115.682 149.46 115.591 149.462C115.374 149.462 115.155 149.464 114.933 149.466C114.877 149.466 114.821 149.466 114.763 149.466C114.396 149.468 114.023 149.47 113.645 149.471C111.786 149.48 109.824 149.487 107.959 149.49C107.282 149.49 106.618 149.49 105.977 149.49C104.744 149.49 103.592 149.487 102.59 149.48C100.734 149.467 99.2812 147.964 99.2812 146.108C99.2812 145.284 99.3612 144.014 99.6204 142.572C99.6364 142.482 99.6532 142.391 99.6708 142.299C99.7764 141.751 99.9083 141.182 100.072 140.604C100.112 140.461 100.155 140.315 100.199 140.17C100.23 140.073 100.26 139.977 100.291 139.879C100.355 139.686 100.422 139.493 100.493 139.3C100.564 139.107 100.639 138.914 100.718 138.721C100.738 138.673 100.758 138.625 100.778 138.578C101.002 138.052 101.256 137.533 101.546 137.034C101.705 136.76 101.874 136.494 102.054 136.235C102.114 136.149 102.174 136.064 102.238 135.979C102.362 135.811 102.493 135.645 102.629 135.483C102.663 135.443 102.697 135.403 102.731 135.363C102.834 135.243 102.941 135.127 103.052 135.012C104.42 133.585 106.269 132.568 108.756 132.403C109.02 132.385 109.291 132.376 109.569 132.379C109.638 132.379 109.706 132.38 109.775 132.382C109.911 132.385 110.046 132.389 110.179 132.395C110.312 132.401 110.444 132.409 110.574 132.418C110.834 132.437 111.089 132.462 111.337 132.494C111.4 132.502 111.461 132.51 111.523 132.519C111.646 132.536 111.768 132.555 111.888 132.576C111.947 132.586 112.007 132.597 112.067 132.608C112.423 132.675 112.766 132.754 113.097 132.847C113.152 132.862 113.207 132.878 113.261 132.894C113.371 132.926 113.478 132.961 113.584 132.995C113.608 133.004 113.633 133.011 113.658 133.02C113.845 133.083 114.027 133.15 114.206 133.222C114.307 133.263 114.406 133.305 114.504 133.348C114.553 133.37 114.602 133.391 114.65 133.414C114.795 133.48 114.938 133.55 115.077 133.622C115.203 133.688 115.327 133.756 115.449 133.826C115.551 133.884 115.652 133.945 115.751 134.006C115.837 134.06 115.922 134.116 116.007 134.173C116.164 134.279 116.317 134.389 116.465 134.502C116.515 134.54 116.565 134.578 116.614 134.617C116.692 134.679 116.769 134.742 116.845 134.807C116.92 134.871 116.995 134.936 117.068 135.003C117.141 135.069 117.212 135.137 117.284 135.204C120.146 137.958 121.099 142.296 121.027 146.255C121.027 146.309 121.025 146.364 121.025 146.419C121.021 146.705 121.021 147.012 121.023 147.338C121.023 147.389 121.023 147.441 121.025 147.492C121.026 147.638 121.029 147.788 121.031 147.94C121.031 147.993 121.033 148.048 121.034 148.102C121.037 148.257 121.041 148.416 121.045 148.579V148.583C121.048 148.691 121.05 148.801 121.054 148.912V148.914C121.057 149.026 121.061 149.139 121.065 149.253C121.066 149.311 121.068 149.368 121.069 149.425C121.069 149.425 121.07 149.426 121.07 149.426Z" fill="#0069A8"/>
<path opacity="0.16" d="M108.705 132.379C108.705 132.378 108.705 132.378 108.704 132.378C106.223 132.541 104.379 133.549 103.014 134.963C102.905 135.077 102.798 135.192 102.694 135.311C102.66 135.351 102.626 135.391 102.592 135.431C102.559 135.471 102.525 135.511 102.492 135.552C102.391 135.673 102.295 135.796 102.202 135.922C102.139 136.007 102.078 136.091 102.019 136.175C101.975 136.24 101.93 136.304 101.886 136.369C101.799 136.5 101.715 136.631 101.633 136.765C101.592 136.832 101.552 136.899 101.513 136.967C101.223 137.461 100.969 137.975 100.746 138.497C100.726 138.545 100.706 138.593 100.686 138.64C100.627 138.782 100.57 138.926 100.515 139.07C100.497 139.117 100.479 139.165 100.461 139.213C100.443 139.26 100.426 139.309 100.408 139.356C100.374 139.452 100.341 139.547 100.308 139.644C100.292 139.692 100.276 139.739 100.26 139.787C100.229 139.883 100.198 139.979 100.168 140.075C100.124 140.218 100.08 140.363 100.041 140.505C99.8778 141.078 99.7461 141.642 99.6408 142.185C99.6233 142.275 99.6065 142.366 99.5906 142.455C99.332 143.884 99.2522 145.143 99.2522 145.96V170.663C99.2522 170.717 99.273 170.769 99.3129 170.819C99.3209 170.829 99.3296 170.838 99.3392 170.848C99.3424 170.852 99.3372 170.86 99.3331 170.858C96.8556 169.482 92.5133 167.576 92.5133 165.939C92.5133 162.258 92.262 150.703 92.2197 146.629C92.2173 146.377 92.2157 146.152 92.2149 145.96C92.1998 142.216 94.449 137.915 98.7209 135.174C101.319 133.506 104.664 132.416 108.704 132.38C108.705 132.38 108.705 132.379 108.705 132.379Z" fill="#1F1F3B"/>
<path d="M47.248 157.58C47.3307 156.41 45.7496 155.921 45.696 154.75C45.599 153.76 47.0666 153.52 47.7116 153.216C49.2819 152.722 49.2998 155.409 49.182 157.777C49.0936 159.554 47.2857 161.108 47.1968 159.331C47.1695 158.786 47.2061 158.173 47.248 157.58Z" fill="#3B3B4D"/>
<path d="M110.539 152.549C113.389 152.42 114.27 155.489 111.927 157.076C111.354 157.542 111.625 158.246 112.363 158.274C113.181 158.304 113.767 158.561 113.201 159.675C113.172 159.756 112.957 159.806 112.636 159.837C110.154 160.072 107.792 158.298 109.716 156.712C109.92 156.543 110.114 156.39 110.272 156.256C110.93 155.835 111.546 154.897 111.148 154.426C110.767 153.974 110.012 154.078 109.479 154.334C109.103 154.514 108.778 154.684 108.571 154.25C108.007 153.07 109.344 152.488 110.538 152.549H110.539Z" fill="#3B3B4D"/>
<path opacity="0.1" d="M197.052 169.73C197.052 172.261 186.342 173.935 172.97 173.935C159.597 173.935 148.758 171.883 148.758 169.352C148.758 166.82 159.598 164.768 172.97 164.768C186.341 164.768 197.052 167.199 197.052 169.73Z" fill="#32323F"/>
<path d="M183.982 146.645C183.983 146.645 183.983 146.645 183.983 146.646C183.964 147.485 183.664 148.561 183.153 149.791C179.872 157.691 167.062 171.92 165.134 171.48C165.133 171.48 165.131 171.48 165.13 171.48C165.129 171.48 165.128 171.48 165.126 171.479C165.098 171.473 165.073 171.463 165.051 171.449C164.96 171.398 164.865 171.344 164.768 171.29C162.293 169.92 157.893 168.012 157.893 166.374C157.893 162.713 157.641 151.217 157.599 147.164C157.596 146.913 157.595 146.689 157.594 146.499C157.579 142.774 159.832 138.495 164.113 135.769C166.717 134.109 170.069 133.025 174.118 132.989C174.234 132.987 174.351 132.987 174.467 132.989C176.309 133 177.804 133.216 179.017 133.597C179.699 133.811 180.292 134.079 180.807 134.392C181.154 134.604 181.467 134.836 181.747 135.088C184.681 137.719 184.077 142.398 183.982 146.645C183.982 146.645 183.982 146.646 183.982 146.645Z" fill="white"/>
<path d="M186.913 171.154C186.913 171.154 186.914 171.155 186.913 171.155C185.387 171.818 168.308 172.68 165.159 171.562C165.148 171.557 165.138 171.554 165.128 171.551C165.11 171.544 165.092 171.537 165.075 171.53C164.952 171.481 164.855 171.428 164.785 171.371C164.772 171.361 164.761 171.35 164.749 171.339C164.74 171.329 164.731 171.32 164.722 171.31C164.681 171.26 164.66 171.209 164.66 171.154V146.543C164.66 145.73 164.742 144.475 165.007 143.051C165.024 142.963 165.041 142.873 165.059 142.783C165.167 142.241 165.302 141.679 165.469 141.109C165.51 140.967 165.554 140.823 165.6 140.681C165.631 140.585 165.662 140.49 165.694 140.393C165.759 140.203 165.827 140.012 165.9 139.821C165.973 139.631 166.049 139.44 166.13 139.25C166.151 139.203 166.171 139.155 166.191 139.109C166.421 138.589 166.681 138.077 166.978 137.584C167.14 137.314 167.313 137.051 167.498 136.795C167.558 136.71 167.62 136.626 167.685 136.543C167.813 136.376 167.946 136.213 168.085 136.053C168.121 136.013 168.155 135.974 168.19 135.934C168.296 135.816 168.405 135.701 168.518 135.588C169.919 134.179 171.81 133.175 174.356 133.012C174.626 132.994 174.902 132.985 175.187 132.988C175.257 132.988 175.327 132.99 175.397 132.991C175.537 132.994 175.675 132.998 175.811 133.005C175.947 133.01 176.082 133.018 176.215 133.027C176.481 133.045 176.742 133.07 176.997 133.102C177.06 133.11 177.123 133.118 177.187 133.126C177.313 133.144 177.437 133.162 177.56 133.183C177.62 133.193 177.682 133.204 177.743 133.214C178.107 133.28 178.458 133.359 178.797 133.45C178.854 133.465 178.909 133.481 178.965 133.497C179.077 133.528 179.187 133.563 179.296 133.597C179.32 133.605 179.346 133.613 179.371 133.621C179.562 133.683 179.749 133.75 179.932 133.821C180.035 133.862 180.136 133.902 180.237 133.945C180.287 133.966 180.337 133.987 180.386 134.01C180.535 134.076 180.68 134.145 180.823 134.215C180.952 134.28 181.079 134.348 181.203 134.417C181.308 134.474 181.411 134.534 181.513 134.595C181.601 134.648 181.688 134.703 181.775 134.759C181.935 134.864 182.092 134.972 182.244 135.084C182.294 135.122 182.346 135.16 182.396 135.198C182.475 135.259 182.554 135.321 182.632 135.385C182.709 135.449 182.786 135.513 182.86 135.579C182.935 135.644 183.008 135.711 183.081 135.778C186.009 138.496 186.985 142.779 186.911 146.688C186.911 146.741 186.91 146.795 186.909 146.85C186.905 147.133 186.905 147.436 186.907 147.757C186.907 147.808 186.907 147.859 186.909 147.91C186.911 148.054 186.913 148.201 186.915 148.352C186.915 148.404 186.918 148.458 186.919 148.512C186.922 148.665 186.925 148.821 186.93 148.982V148.986C186.933 149.093 186.935 149.201 186.939 149.311V149.314C186.942 149.424 186.946 149.535 186.95 149.648C186.951 149.705 186.953 149.762 186.955 149.818C186.987 150.791 187.036 151.851 187.091 152.963C187.095 153.05 187.1 153.135 187.104 153.222C187.125 153.653 187.147 154.091 187.171 154.534C187.18 154.712 187.189 154.89 187.199 155.069C187.24 155.873 187.284 156.691 187.326 157.51C187.331 157.601 187.336 157.693 187.34 157.784C187.349 157.966 187.358 158.147 187.368 158.329C187.382 158.603 187.396 158.875 187.408 159.148C187.417 159.329 187.425 159.51 187.434 159.69C187.443 159.871 187.451 160.051 187.459 160.23V160.232C187.467 160.41 187.475 160.589 187.483 160.767C187.495 161.035 187.506 161.301 187.516 161.563C187.542 162.178 187.564 162.782 187.581 163.368C187.588 163.618 187.595 163.866 187.601 164.11C187.695 167.93 187.578 170.86 186.913 171.154C186.912 171.154 186.913 171.154 186.913 171.154Z" fill="white"/>
<path d="M183.982 146.367C183.983 146.367 183.983 146.368 183.983 146.368C183.965 147.16 183.686 148.165 183.21 149.313C183.176 149.396 183.095 149.45 183.005 149.45C182.943 149.45 182.881 149.45 182.817 149.451C182.78 149.451 182.743 149.451 182.705 149.451C182.605 149.451 182.502 149.451 182.399 149.453C182.193 149.453 181.984 149.455 181.771 149.457C181.718 149.457 181.665 149.457 181.611 149.457C181.481 149.457 181.35 149.459 181.218 149.459C181.129 149.459 181.039 149.459 180.948 149.461C180.732 149.463 180.512 149.464 180.29 149.465C180.234 149.465 180.178 149.465 180.121 149.465C179.754 149.468 179.38 149.469 179.003 149.47C177.137 149.48 175.171 149.486 173.319 149.489C172.643 149.489 171.979 149.489 171.338 149.489C168.54 149.485 166.241 149.467 165.335 149.419C165.076 149.406 164.849 149.393 164.645 149.379C162.751 149.254 162.933 149.055 158.205 147.121C157.84 146.971 157.596 146.617 157.594 146.223C157.579 142.574 159.832 138.382 164.113 135.712C166.717 134.086 170.069 133.024 174.118 132.989C174.234 132.987 174.351 132.987 174.467 132.989C176.309 132.999 177.804 133.211 179.017 133.584C179.699 133.794 180.292 134.057 180.807 134.364C181.154 134.571 181.467 134.799 181.747 135.045C184.681 137.622 184.077 142.206 183.982 146.366C183.982 146.366 183.982 146.367 183.982 146.367Z" fill="#0069A8"/>
<path d="M186.449 149.426C186.45 149.427 186.449 149.429 186.448 149.429C185.619 149.433 184.489 149.442 183.176 149.45C183.127 149.45 183.078 149.45 183.028 149.45C182.966 149.45 182.903 149.45 182.84 149.451C182.803 149.451 182.766 149.451 182.728 149.451C182.627 149.451 182.524 149.451 182.422 149.453C182.215 149.453 182.006 149.455 181.793 149.457C181.74 149.457 181.687 149.457 181.633 149.457C181.504 149.457 181.372 149.459 181.24 149.459C181.151 149.459 181.06 149.459 180.97 149.461C180.753 149.461 180.534 149.463 180.312 149.465C180.256 149.465 180.2 149.465 180.142 149.465C179.775 149.467 179.402 149.469 179.024 149.47C177.165 149.479 175.203 149.485 173.338 149.489C172.661 149.489 171.997 149.489 171.356 149.489C170.074 149.489 168.88 149.485 167.85 149.478C166.062 149.465 164.66 148.016 164.66 146.227C164.66 145.433 164.74 144.208 164.999 142.817C165.015 142.731 165.032 142.643 165.05 142.554C165.155 142.026 165.287 141.477 165.45 140.92C165.49 140.781 165.534 140.641 165.578 140.501C165.609 140.408 165.639 140.315 165.67 140.221C165.734 140.035 165.801 139.848 165.872 139.662C165.943 139.476 166.018 139.29 166.097 139.104C166.117 139.058 166.137 139.011 166.157 138.966C166.381 138.458 166.635 137.958 166.925 137.477C167.084 137.213 167.252 136.956 167.433 136.706C167.492 136.624 167.553 136.541 167.616 136.46C167.741 136.297 167.872 136.138 168.008 135.982C168.042 135.943 168.076 135.905 168.11 135.866C168.213 135.75 168.32 135.638 168.431 135.527C169.799 134.151 171.648 133.17 174.135 133.012C174.399 132.994 174.67 132.986 174.948 132.988C175.017 132.988 175.085 132.99 175.153 132.991C175.289 132.994 175.425 132.998 175.557 133.004C175.691 133.009 175.823 133.017 175.953 133.026C176.212 133.044 176.468 133.068 176.716 133.099C176.779 133.107 176.84 133.115 176.902 133.123C177.025 133.14 177.147 133.158 177.267 133.178C177.326 133.188 177.386 133.199 177.446 133.209C177.802 133.273 178.145 133.35 178.476 133.439C178.531 133.454 178.586 133.469 178.64 133.485C178.75 133.516 178.857 133.549 178.963 133.583C178.987 133.591 179.012 133.598 179.037 133.606C179.224 133.667 179.406 133.732 179.585 133.801C179.685 133.841 179.785 133.881 179.883 133.922C179.932 133.944 179.981 133.964 180.029 133.986C180.174 134.05 180.317 134.118 180.456 134.187C180.582 134.25 180.706 134.316 180.828 134.384C180.93 134.44 181.031 134.498 181.13 134.558C181.216 134.61 181.301 134.663 181.386 134.718C181.543 134.82 181.696 134.926 181.844 135.035C181.894 135.073 181.944 135.109 181.993 135.147C182.071 135.206 182.147 135.267 182.223 135.33C182.299 135.391 182.374 135.454 182.447 135.518C182.52 135.582 182.591 135.648 182.663 135.713C185.524 138.368 186.478 142.551 186.406 146.369C186.406 146.421 186.404 146.474 186.403 146.527C186.399 146.803 186.399 147.099 186.402 147.413C186.402 147.463 186.402 147.512 186.403 147.562C186.405 147.703 186.407 147.847 186.41 147.994C186.41 148.045 186.412 148.098 186.413 148.15C186.416 148.3 186.419 148.453 186.424 148.609V148.614C186.427 148.718 186.429 148.823 186.433 148.931V148.933C186.436 149.041 186.439 149.15 186.443 149.259C186.445 149.315 186.447 149.37 186.448 149.425C186.448 149.426 186.448 149.426 186.449 149.426Z" fill="#0069A8"/>
<path opacity="0.16" d="M174.084 132.988C174.084 132.988 174.083 132.988 174.083 132.988C171.602 133.151 169.758 134.159 168.393 135.573C168.284 135.686 168.177 135.802 168.073 135.92C168.039 135.961 168.005 136 167.971 136.04C167.938 136.08 167.904 136.12 167.871 136.161C167.77 136.282 167.673 136.405 167.581 136.531C167.518 136.616 167.457 136.7 167.398 136.785C167.354 136.849 167.309 136.913 167.265 136.979C167.178 137.109 167.093 137.24 167.012 137.375C166.971 137.442 166.931 137.509 166.892 137.576C166.602 138.07 166.348 138.584 166.125 139.107C166.105 139.154 166.085 139.202 166.065 139.25C166.006 139.392 165.948 139.535 165.894 139.679C165.876 139.727 165.857 139.775 165.84 139.822C165.822 139.87 165.805 139.918 165.787 139.965C165.753 140.061 165.719 140.156 165.687 140.253C165.671 140.301 165.655 140.349 165.639 140.396C165.608 140.492 165.577 140.589 165.547 140.685C165.502 140.828 165.459 140.972 165.419 141.114C165.257 141.687 165.125 142.251 165.02 142.794C165.002 142.885 164.985 142.975 164.969 143.064C164.711 144.494 164.631 145.752 164.631 146.569V171.272C164.631 171.326 164.652 171.378 164.692 171.428C164.7 171.438 164.709 171.448 164.718 171.458C164.721 171.461 164.716 171.47 164.712 171.467C162.234 170.092 157.892 168.185 157.892 166.549C157.892 162.868 157.641 151.312 157.599 147.239C157.596 146.986 157.595 146.761 157.594 146.57C157.579 142.825 159.828 138.524 164.1 135.783C166.698 134.115 170.043 133.025 174.083 132.989C174.084 132.989 174.084 132.989 174.084 132.988Z" fill="#1F1F3B"/>
<path fill-rule="evenodd" clip-rule="evenodd" d="M55.8134 116.652C60.8579 112.257 67.3495 108.543 75.1932 108.543C85.1994 108.543 93.4513 113.613 99.1445 118.582C101.999 121.075 104.238 123.564 105.764 125.432C106.138 125.891 106.47 126.313 106.759 126.688C106.946 126.933 107.321 126.921 107.489 126.662C107.763 126.239 108.071 125.765 108.417 125.241C109.406 123.745 110.643 121.947 112.106 120.129C115.01 116.522 118.906 112.711 123.666 111.104C124.28 110.896 124.941 111.245 125.14 111.883C125.34 112.521 125.004 113.206 124.39 113.414C120.261 114.808 116.714 118.194 113.902 121.687C112.507 123.42 111.317 125.147 110.347 126.615C110.05 127.064 109.768 127.499 109.504 127.905C108.929 128.789 108.441 129.541 108.08 130.017C107.849 130.321 107.492 130.493 107.119 130.479M106.191 129.947C106.191 129.947 106.192 129.946 106.192 129.946L106.186 129.938C106.181 129.931 106.173 129.919 106.162 129.902C106.14 129.869 106.106 129.818 106.06 129.751C105.967 129.616 105.827 129.415 105.64 129.156C105.267 128.64 104.709 127.897 103.979 127.003C102.517 125.213 100.37 122.826 97.6384 120.441C92.1574 115.657 84.4255 110.972 75.1932 110.972C68.0976 110.972 62.1223 114.327 57.3178 118.512C52.7663 122.477 49.3512 127.111 47.0938 130.174C46.9654 130.348 46.8408 130.517 46.72 130.681C46.5029 130.975 46.1685 131.15 45.8118 131.156C45.4551 131.162 45.1151 131 44.8883 130.714C44.4917 130.214 44.0615 129.653 43.596 129.046C38.6208 122.56 29.6174 110.822 14.5656 112.144C13.9217 112.2 13.3556 111.705 13.3011 111.036C13.2466 110.368 13.7244 109.78 14.3683 109.724C30.7536 108.285 40.5507 121.132 45.4432 127.548C45.6062 127.761 45.9277 127.76 46.088 127.544C48.3446 124.509 51.6097 120.314 55.8134 116.652" fill="white"/>
<path d="M113.389 105.184C113.389 105.184 113.388 105.185 113.388 105.185C113.357 105.222 113.308 105.242 113.257 105.236C111.386 105.006 109.789 105.477 108.372 106.675C108.309 106.728 108.214 106.72 108.16 106.656C108.107 106.593 108.115 106.497 108.179 106.443C109.662 105.189 111.335 104.696 113.293 104.935C113.376 104.945 113.434 105.02 113.424 105.103C113.42 105.134 113.408 105.162 113.389 105.183C113.389 105.184 113.389 105.184 113.389 105.184Z" fill="#603A3E"/>
<path d="M110.443 104.476C110.443 104.476 110.444 104.476 110.443 104.476C110.424 104.498 110.397 104.514 110.366 104.519C109.532 104.647 108.86 104.869 108.253 105.216C107.663 105.554 107.131 106.014 106.578 106.663C106.578 106.663 106.577 106.664 106.577 106.664C106.531 106.717 106.45 106.723 106.397 106.678C106.343 106.632 106.336 106.551 106.382 106.497C107.511 105.169 108.654 104.522 110.326 104.265C110.396 104.255 110.462 104.302 110.473 104.372C110.479 104.411 110.467 104.448 110.443 104.476C110.443 104.476 110.443 104.476 110.443 104.476Z" fill="#603A3E"/>
<path fill-rule="evenodd" clip-rule="evenodd" d="M155.8 103.084C155.813 103.107 155.806 103.136 155.784 103.15L142.958 110.962C142.935 110.976 142.905 110.968 142.891 110.945C142.878 110.922 142.885 110.893 142.908 110.879L155.734 103.067C155.757 103.053 155.786 103.061 155.8 103.084Z" fill="#6D4747"/>
<path d="M155.799 102.463C155.799 102.463 155.8 102.463 155.8 102.463C155.807 102.471 155.813 102.481 155.817 102.491C155.845 102.555 155.811 102.642 155.741 102.686L142.468 110.962C142.399 111.005 142.319 110.989 142.291 110.925C142.263 110.861 142.298 110.774 142.367 110.73L155.64 102.454C155.698 102.419 155.762 102.424 155.798 102.463C155.798 102.463 155.799 102.463 155.799 102.463Z" fill="#603A3E"/>
<path fill-rule="evenodd" clip-rule="evenodd" d="M155.617 102.547C155.617 102.547 155.617 102.548 155.617 102.548L142.44 110.726C142.44 110.726 142.44 110.726 142.44 110.726C142.386 110.76 142.369 110.822 142.384 110.855C142.396 110.882 142.437 110.903 142.491 110.869L155.668 102.69C155.668 102.69 155.668 102.69 155.668 102.69C155.723 102.656 155.739 102.595 155.725 102.561L155.724 102.561L155.724 102.56C155.722 102.556 155.719 102.552 155.716 102.549L155.715 102.547C155.699 102.53 155.662 102.52 155.617 102.547ZM155.77 102.462C155.769 102.462 155.768 102.462 155.768 102.462C155.712 102.418 155.632 102.422 155.568 102.461L142.391 110.64C142.307 110.692 142.255 110.803 142.295 110.897C142.339 110.997 142.456 111.008 142.541 110.955C142.541 110.955 142.541 110.955 142.541 110.955L155.718 102.776C155.801 102.724 155.854 102.614 155.813 102.521C155.807 102.505 155.797 102.489 155.785 102.477L155.772 102.463C155.771 102.463 155.77 102.462 155.77 102.462Z" fill="#6D4747"/>
<path fill-rule="evenodd" clip-rule="evenodd" d="M153.445 104.926C153.458 104.95 153.451 104.98 153.429 104.995L148.266 108.511C148.241 108.529 148.206 108.52 148.191 108.494C148.178 108.47 148.185 108.44 148.208 108.425L153.37 104.909C153.395 104.891 153.43 104.899 153.445 104.926Z" fill="#6D4747"/>
<path d="M153.443 104.908C153.443 104.907 153.443 104.907 153.443 104.907C153.45 104.915 153.456 104.925 153.46 104.936C153.486 105.001 153.449 105.092 153.378 105.14L148.351 108.515C148.28 108.563 148.202 108.548 148.176 108.484C148.15 108.419 148.187 108.327 148.258 108.28L153.286 104.905C153.344 104.865 153.408 104.868 153.443 104.908C153.443 104.908 153.443 104.908 153.443 104.908Z" fill="#603A3E"/>
<path fill-rule="evenodd" clip-rule="evenodd" d="M153.351 104.905C153.351 104.895 153.364 104.89 153.371 104.897L153.43 104.96C153.442 104.973 153.451 104.989 153.456 105.002L153.457 105.003C153.457 105.003 153.457 105.003 153.457 105.003C153.457 105.003 153.457 105.003 153.457 105.003C153.476 105.05 153.47 105.102 153.452 105.146C153.434 105.191 153.401 105.232 153.358 105.26L153.358 105.26L148.418 108.509C148.418 108.509 148.418 108.509 148.418 108.509C148.375 108.537 148.328 108.549 148.284 108.541C148.239 108.533 148.2 108.504 148.18 108.456C148.161 108.409 148.166 108.357 148.185 108.313C148.203 108.268 148.236 108.227 148.278 108.199L148.278 108.199L153.219 104.95L153.219 104.95C153.256 104.926 153.298 104.914 153.338 104.917C153.345 104.917 153.351 104.912 153.351 104.905ZM153.371 105.039C153.369 105.035 153.367 105.032 153.364 105.029C153.35 105.013 153.314 105.003 153.267 105.034C153.267 105.034 153.267 105.034 153.267 105.034L148.327 108.282C148.327 108.282 148.327 108.282 148.327 108.282C148.3 108.3 148.28 108.326 148.269 108.352C148.258 108.379 148.258 108.402 148.264 108.417C148.27 108.432 148.282 108.441 148.299 108.445C148.317 108.448 148.343 108.444 148.369 108.426L148.37 108.426L153.31 105.177C153.31 105.177 153.31 105.177 153.31 105.177C153.337 105.159 153.357 105.134 153.368 105.107C153.379 105.081 153.379 105.058 153.372 105.042C153.372 105.041 153.371 105.04 153.371 105.039Z" fill="#6D4747"/>
<path fill-rule="evenodd" clip-rule="evenodd" d="M155.801 101.258C155.814 101.282 155.807 101.312 155.784 101.327L150.622 104.844C150.597 104.861 150.562 104.853 150.547 104.826C150.534 104.802 150.541 104.772 150.563 104.757L155.725 101.241C155.751 101.224 155.786 101.232 155.801 101.258Z" fill="#6D4747"/>
<path d="M155.798 101.24C155.798 101.24 155.799 101.24 155.799 101.24C155.806 101.247 155.811 101.257 155.816 101.268C155.842 101.333 155.805 101.425 155.734 101.472L150.706 104.847C150.636 104.895 150.558 104.881 150.532 104.816C150.506 104.751 150.543 104.66 150.614 104.612L155.641 101.237C155.7 101.198 155.763 101.2 155.798 101.24C155.798 101.24 155.798 101.24 155.798 101.24Z" fill="#603A3E"/>
<path fill-rule="evenodd" clip-rule="evenodd" d="M155.707 101.237C155.707 101.227 155.719 101.222 155.726 101.229L155.785 101.292C155.798 101.306 155.806 101.321 155.812 101.334L155.812 101.335C155.812 101.335 155.812 101.335 155.812 101.335C155.812 101.335 155.812 101.335 155.812 101.335C155.831 101.382 155.826 101.434 155.807 101.479C155.789 101.523 155.756 101.564 155.714 101.593L155.714 101.593L150.773 104.841C150.773 104.841 150.773 104.841 150.773 104.841C150.731 104.869 150.683 104.881 150.639 104.873C150.595 104.865 150.555 104.837 150.535 104.789C150.516 104.742 150.522 104.69 150.54 104.645C150.558 104.601 150.591 104.56 150.634 104.531L150.634 104.531L155.574 101.283L155.574 101.283C155.611 101.259 155.654 101.246 155.694 101.249C155.701 101.249 155.707 101.244 155.707 101.237ZM155.726 101.371C155.724 101.367 155.722 101.364 155.719 101.361C155.706 101.346 155.67 101.335 155.622 101.366C155.622 101.366 155.622 101.366 155.622 101.366L150.682 104.614C150.682 104.614 150.682 104.614 150.682 104.614C150.655 104.632 150.635 104.658 150.624 104.684C150.613 104.711 150.613 104.734 150.62 104.75C150.626 104.764 150.637 104.774 150.654 104.777C150.673 104.78 150.698 104.776 150.725 104.758L150.725 104.758L155.665 101.51C155.665 101.51 155.665 101.51 155.665 101.51C155.692 101.492 155.712 101.466 155.723 101.439C155.734 101.413 155.734 101.39 155.728 101.375C155.727 101.373 155.727 101.372 155.726 101.371Z" fill="#6D4747"/>
<path d="M159.035 61.3926C159.035 61.3927 159.035 61.3929 159.035 61.3928C160.568 60.9691 160.003 60.0743 160.315 59.6395C160.648 59.1753 162.423 58.5386 163.175 59.684C163.923 60.8254 163.411 61.6799 160.513 62.8825C158.625 63.6663 157.954 63.2207 157.719 62.8592C157.612 62.6951 157.744 62.5129 157.908 62.4068C158.362 62.1144 158.661 61.4962 159.035 61.3923C159.035 61.3923 159.035 61.3925 159.035 61.3926Z" fill="#FEDCD7"/>
<path d="M166.567 107.053C166.567 107.053 166.566 107.053 166.566 107.053C166.262 106.629 165.676 105.946 165.159 105.362C164.631 104.765 163.707 104.765 163.166 105.35C162.681 105.876 162.685 106.688 163.175 107.21L164.507 108.627C164.813 108.953 165.269 109.095 165.706 109L166.413 108.847C166.741 108.775 166.943 108.444 166.855 108.119L166.567 107.053C166.567 107.053 166.567 107.052 166.567 107.053Z" fill="#FEDCD7"/>
<path d="M166.458 106.804C166.458 106.805 166.459 106.804 166.459 106.804C166.614 106.558 166.709 106.842 167.063 107.089C167.875 107.655 170.414 105.204 170.852 104.897C171.078 104.739 172.34 105.505 171.359 106.458C170.512 107.282 167.805 109.932 166.872 110.828C166.677 111.015 166.386 111.042 166.166 110.889C165.512 110.437 164.769 109.572 164.671 109.134C164.639 108.993 164.73 108.859 164.816 108.743C165.165 108.271 165.883 107.714 166.457 106.804C166.458 106.804 166.458 106.804 166.458 106.804Z" fill="#1F1F39"/>
<path d="M116.482 107.829C116.632 107.896 116.793 107.933 116.957 107.932C117.553 107.929 118.436 107.871 119.169 107.814C119.907 107.757 120.462 107.126 120.439 106.386C120.413 105.571 119.7 104.949 118.889 105.034L117.037 105.229C116.601 105.275 116.211 105.524 115.986 105.901L115.91 106.028C115.522 106.679 115.79 107.522 116.482 107.829Z" fill="#FEDCD7"/>
<path d="M117.532 108.129C117.613 108.429 117.317 108.31 116.856 108.434C115.801 108.717 115.872 112.521 115.791 113.097C115.749 113.394 114.201 113.912 114.168 112.438C114.139 111.164 114.033 107.083 114.012 105.689C114.007 105.397 114.202 105.138 114.487 105.06C115.037 104.911 115.754 104.85 116.305 104.887C116.931 104.929 117.238 105.505 117.273 106.131C117.304 106.69 117.329 107.381 117.532 108.129Z" fill="#1F1F39"/>
<path d="M118.93 108.418C118.93 108.418 118.93 108.419 118.931 108.419C118.97 108.422 136.411 109.591 137.255 104.663C137.998 100.33 144.156 94.043 148.511 94.644C150.5 94.9186 152.225 95.2453 153.114 95.6212C154.608 96.2523 159.201 103.548 161.651 106.565C162.337 107.41 162.587 108.024 163.513 107.45C164.86 106.614 165.225 103.939 164.32 102.637C161.701 98.8706 156.527 91.4093 155.088 90.4295C153.459 89.3188 150.032 88.7268 146.679 87.7292C142.961 86.6231 137.758 87.3122 134.458 85.2738C134.417 85.2487 134.377 85.2229 134.336 85.1965C132.719 84.1471 130.087 85.0165 130.003 85.6497C129.898 86.4482 129.791 87.0798 129.707 87.6288C129.468 89.167 129.4 90.0563 130.003 92.1452C130.1 92.4812 130.191 92.814 130.274 93.1442C131.328 97.2486 131.454 99.7363 131.557 102.239C131.609 103.525 124.005 103.45 119.842 103.879C118.371 104.031 117.439 105.092 117.958 106.477C118.184 107.08 118.506 107.751 118.929 108.417C118.929 108.417 118.929 108.417 118.93 108.418Z" fill="#3B3B4C"/>
<path d="M118 106.673C117.932 106.496 117.707 106.28 117.765 106.461C117.826 106.651 118.072 106.859 118 106.673Z" fill="#3B3B4C"/>
<path d="M134.648 70.1775C135.441 69.0937 137.061 68.5218 137.926 69.5498C138.041 69.6867 138.172 69.7867 138.334 69.8159C138.791 69.8977 138.522 68.9181 138.759 68.7086C138.905 68.5801 139.471 68.7245 139.698 69.0266C143.596 74.1925 137.852 84.8816 140.521 85.6201C141.07 85.7719 135.191 88.74 132.615 85.9889C130.451 83.6783 131.169 82.8205 131.346 82.1321C131.881 80.0557 133.467 74.0666 134.117 71.6121C134.306 70.9011 134.214 70.771 134.648 70.1775Z" fill="white"/>
<path d="M139.504 87.7476C139.504 87.7476 139.504 87.7478 139.504 87.7479C140.038 88.3693 141.356 88.5859 141.824 88.1358C143.195 86.819 141.025 81.7246 141.001 80.3902C140.976 79.0566 141.869 75.2122 142.523 74.2668C144.09 72.0012 149.649 70.9721 151.627 69.6076C152.371 69.0943 156.512 66.985 159.096 65.0641C160.422 64.0775 160.663 61.3605 159.077 60.8931C158.909 60.8437 158.761 60.8805 158.653 61.0596C158.591 61.1357 158.529 61.2135 158.467 61.2913C156.775 63.4298 152.862 65.7088 150.903 66.5371C149.64 67.0716 145.998 67.897 143.022 68.4041C141.22 68.7112 139.862 70.7778 139.925 72.6044C140.019 75.3963 138.832 77.2586 138.392 80.5968C137.726 85.6555 138.591 86.6824 139.505 87.7473C139.505 87.7474 139.505 87.7476 139.504 87.7476Z" fill="#0267A4"/>
<path opacity="0.62" d="M129.84 92.2691C129.84 92.2694 129.84 92.2696 129.84 92.2699C129.85 92.3023 129.86 92.3346 129.871 92.367C130.008 92.8003 130.527 92.9742 130.834 92.639C131.59 91.8139 132.172 90.665 132.615 89.4627C133.084 88.1888 131.838 87.0451 130.543 87.4523C129.91 87.6514 129.423 88.1856 129.357 88.846C129.258 89.8318 129.342 90.7178 129.839 92.2683C129.839 92.2685 129.84 92.2688 129.84 92.2691Z" fill="#1F1F39"/>
<path d="M135.858 69.4147C135.858 69.4145 135.858 69.4144 135.859 69.4145C135.866 69.4173 136.628 69.7089 137.303 69.9153C137.586 70.0021 137.896 69.9876 138.158 69.8468C138.161 69.8449 138.165 69.8431 138.168 69.8413C138.518 69.6503 138.457 69.1777 138.439 68.7797C138.432 68.6023 138.493 68.5342 138.518 68.3289C138.523 68.2862 138.527 68.2386 138.528 68.1819C138.536 67.9158 138.565 67.6958 138.601 67.5225C138.616 67.4486 138.632 67.3845 138.648 67.3279C138.695 67.1598 138.667 66.9695 138.548 66.8417L138.146 66.4098L138.04 66.2651C137.55 65.5926 136.746 65.4635 136.394 66.2177C135.982 67.0992 135.669 68.4303 135.857 69.414C135.857 69.4146 135.857 69.415 135.858 69.4147Z" fill="#FEDCD7"/>
<path opacity="0.14" d="M138.509 68.8186C138.501 68.6436 138.571 68.5764 138.599 68.3739C138.605 68.3317 138.61 68.2848 138.611 68.2289C138.62 67.9664 138.653 67.7493 138.693 67.5784C138.719 67.4688 138.667 67.3528 138.563 67.3118C138.218 67.177 137.499 66.919 137.227 67.0008C136.683 67.1652 137.008 68.537 138.509 68.8176C138.509 68.8177 138.509 68.8181 138.509 68.8186Z" fill="#1F1F39"/>
<path d="M139.394 63.9412C139.394 63.9412 139.395 63.9416 139.395 63.942C139.458 64.787 140.247 66.3993 139.757 66.3993C139.267 66.3993 139.892 68.1829 139.371 68.2049C138.109 68.2576 136.653 67.332 136.487 66.6224C136.144 65.1551 137.596 63.9339 139.102 63.94L139.394 63.9412Z" fill="#FEDCD7"/>
<path d="M138.26 65.0143C138.677 65.0669 138.69 65.1766 138.982 65.0187C139.274 64.8608 138.767 64.4143 139.312 64.3126C139.857 64.2108 140.456 64.1713 140.51 63.4783C140.589 62.4757 139.789 62.6345 139.296 62.752C138.978 62.8275 138.896 62.0608 138.261 62.0959C137.762 62.1231 137.822 62.4468 137.378 62.4933C137.111 62.5213 136.585 62.0319 136.167 62.3924C135.393 63.0608 136.044 63.8757 135.401 64.588C134.651 65.4187 136.402 67.1801 136.603 66.9661C136.838 66.7161 136.487 65.8591 136.725 65.6564C137.084 65.352 137.13 65.6924 137.433 66.0073C137.757 66.3433 138.352 66.3617 137.968 65.7117C137.583 65.0608 137.883 64.9661 138.261 65.0143H138.26Z" fill="#1F1F39"/>
<path d="M120.473 86.6254C120.473 86.6253 120.473 86.6253 120.473 86.6254C120.376 87.1392 120.527 87.0551 120.479 87.7521C120.429 88.4485 120.61 89.5265 120.303 89.5049C119.996 89.4833 119.901 89.0091 119.79 88.8732C119.679 88.7374 119.871 89.2431 119.612 89.4779C119.352 89.7128 118.603 89.585 118.363 89.2071C118.122 88.8291 118.055 88.247 118.236 87.609C118.417 86.9711 118.944 86.2278 119.083 85.9741C119.222 85.7206 120.471 86.6238 120.473 86.6255C120.473 86.6256 120.473 86.6254 120.473 86.6254Z" fill="#EEADA5"/>
<path d="M135.044 79.0715C134.967 79.5777 134.842 80.0644 134.697 80.5248C134.296 81.8088 133.747 82.893 133.67 83.6514C133.576 84.6002 133.581 85.8774 133.187 86.7915C133.013 87.1952 132.761 87.5278 132.388 87.7293C131.169 88.3894 128.679 88.1135 128.161 88.3133C127.531 88.557 124.818 88.056 125.888 87.2781C127.557 86.0627 128.888 83.8994 129.611 82.0542C129.871 81.3898 130.054 80.7669 130.145 80.2438C130.155 80.1888 130.164 80.1346 130.172 80.0821C130.182 80.0203 130.192 79.9619 130.2 79.9044C130.204 79.8798 130.207 79.857 130.21 79.8341C130.221 79.7571 130.23 79.6835 130.238 79.6132C130.243 79.5658 130.248 79.521 130.251 79.4778C130.254 79.438 130.257 79.4008 130.259 79.3644C130.26 79.3424 130.261 79.3221 130.262 79.3018C130.264 79.2408 130.265 79.185 130.263 79.1333C130.26 79.0216 130.255 78.9082 130.25 78.7956C130.244 78.6814 130.237 78.5671 130.228 78.452C130.211 78.2023 130.188 77.9526 130.164 77.7114C130.158 77.6411 130.151 77.5717 130.144 77.5032C130.128 77.3356 130.111 77.1748 130.096 77.0224C130.088 76.9403 130.08 76.8625 130.072 76.7871C130.068 76.7448 130.064 76.7042 130.061 76.6644C130.054 76.595 130.049 76.529 130.045 76.4664C130.038 76.3919 130.033 76.3216 130.03 76.2573C130.028 76.2378 130.028 76.2175 130.026 76.1989C130.026 76.1794 130.025 76.1617 130.025 76.1439C130.023 76.0897 130.022 76.0406 130.022 75.9958V75.9924C130.022 75.9788 130.022 75.9653 130.023 75.9517V75.9484C130.025 75.8925 130.03 75.8468 130.039 75.8104C130.04 75.8054 130.037 75.7997 130.033 75.802C129.581 76.0309 125.262 78.577 123.903 80.8109C122.191 84.1067 121.443 86.5443 121.15 87.2274C121.147 87.2333 121.142 87.2358 121.136 87.2333C121.009 87.1901 120.873 87.1436 120.73 87.0928C120.117 86.8769 119.407 86.6002 119.008 86.3581C118.874 86.2767 118.774 86.1993 118.725 86.1298C118.723 86.1257 118.719 86.1218 118.719 86.1169C118.708 84.6873 120.545 81.4626 121.515 79.2645C122.308 77.4651 126.429 73.7283 129.214 71.4904C129.62 71.1646 129.995 70.8717 130.329 70.6203C130.514 70.4815 130.721 70.3444 130.944 70.2115C132.736 69.1384 135.523 68.2899 135.779 68.213C135.79 68.2098 135.798 68.2183 135.798 68.2293C135.799 68.6821 135.545 69.7443 135.306 71.0858C135.23 71.5124 135.156 71.9678 135.091 72.4401C134.892 73.9001 134.791 75.5277 135.045 77.0089C135.168 77.7215 135.147 78.4139 135.045 79.0724" fill="#0267A4"/>
<path opacity="0.28" d="M130.107 75.599C130.004 75.6646 129.944 75.7773 129.932 75.899V75.9008C129.924 76.3808 130.08 77.4157 130.158 78.4541C130.176 78.6924 130.19 78.9297 130.197 79.1619C130.206 79.4327 130.156 79.8345 130.067 80.3163C130.007 80.6394 130.005 81.0032 129.955 81.3804C129.946 81.4523 129.953 81.4535 129.994 81.3934C130.246 81.0188 131.069 78.1892 131.463 76.3403C131.613 75.6379 130.986 75.124 130.351 75.459C130.265 75.5039 130.183 75.5507 130.107 75.599Z" fill="#1F1F39"/>
<path opacity="0.26" d="M138.111 70.605C138.111 70.6052 138.111 70.6055 138.111 70.6055C137.997 70.6206 137.914 70.7174 137.846 70.809C137.761 70.9234 137.701 71.03 137.637 70.9671C137.548 70.8841 136.481 72.24 135.127 72.8288C134.693 73.0184 134.229 73.1285 133.759 73.0883C133.578 73.0726 133.385 73.0437 133.181 73.0036C132.752 72.9214 132.279 72.7921 131.787 72.6419C131.421 72.5302 131.046 72.4074 130.673 72.2845C130.092 72.093 129.941 71.3286 130.422 70.9505C130.782 70.6674 131.277 70.6605 131.683 70.8736C132.168 71.1285 132.622 71.3594 133.022 71.5105C133.31 71.6206 133.568 71.6879 133.789 71.694C133.889 71.6966 133.988 71.694 134.087 71.6896C134.522 71.6669 134.942 71.5699 135.339 71.4302C136.092 71.1637 136.76 70.7382 137.28 70.3547C137.566 70.1433 137.606 70.0341 137.916 70.0411C137.921 70.0411 137.926 70.0442 137.928 70.049C138.027 70.2843 138.248 70.5864 138.111 70.6045C138.111 70.6045 138.111 70.6048 138.111 70.605Z" fill="#1F1F39"/>
<path d="M112.829 69.7675C112.829 69.7678 112.829 69.7681 112.829 69.7684C112.806 70.1172 113.161 70.7464 113.737 71.0726C113.866 71.1459 114.234 71.2573 114.742 71.3863C116.5 71.8313 119.943 72.4849 121.06 72.4841C122.221 72.4825 123.36 72.0359 124.397 71.5909C125.46 71.1347 126.416 70.681 127.178 70.7152C128.635 70.7797 131.509 71.9809 133.285 72.1808C133.343 72.1879 133.401 72.1935 133.457 72.1975C135.416 72.3495 137.301 70.2798 137.417 70.3841C137.498 70.4557 137.576 70.5265 137.702 70.552C137.756 70.5632 137.821 70.5663 137.899 70.5576C138.077 70.5377 138.138 70.1922 138.152 69.994C138.166 69.7958 138.071 69.4598 137.657 69.4208C137.345 69.3914 137.303 69.5155 137.015 69.7066C136.309 70.1747 135.335 70.7136 134.244 70.8776C133.997 70.915 133.744 70.9325 133.487 70.927C132.211 70.8959 129.679 69.0172 127.655 68.8325C127.468 68.815 127.285 68.8118 127.108 68.8262C125.017 68.9981 124.155 70.7518 121.159 70.8283C118.163 70.9039 115.173 69.2314 114.288 69.2648C113.402 69.2982 112.854 69.4191 112.828 69.7665C112.828 69.7669 112.829 69.7673 112.829 69.7675Z" fill="#F4AD00"/>
<path opacity="0.62" d="M137.828 93.5293C137.819 93.528 137.813 93.5214 137.812 93.5132L137.735 92.863C137.661 92.2361 138.303 91.7703 138.876 92.0347C139.691 92.4105 139.378 93.6357 138.482 93.5743L137.828 93.5293Z" fill="#1F1F39"/>
<path d="M70.3617 84.6047C74.999 84.9229 79.4317 84.5056 83.9827 83.4447C84.6805 83.2819 85.4214 83.0644 85.8938 82.4611C86.6099 81.5468 86.3949 80.0073 85.622 79.1542C84.8492 78.3012 83.6846 78.045 82.6104 78.1642C81.9222 78.2399 81.2173 78.4502 80.5531 78.2327C79.7235 77.9612 79.1744 77.1025 78.6181 76.3541C78.0618 75.6057 77.3089 74.8662 76.4513 74.9838C75.8087 75.0717 75.3027 75.6186 74.7305 75.9618C74.159 76.305 73.3286 76.3412 73.0009 75.7097C72.2991 74.3579 73.2838 70.6523 69.6711 70.6523C64.4559 70.6523 65.308 74.3821 64.6797 75.174C63.7278 76.3734 62.0342 76.1092 60.6554 75.704C59.2767 75.298 57.635 74.913 56.572 75.9852C55.6497 76.9156 55.5545 78.621 54.5739 79.4716C53.53 80.3771 52.0474 79.8937 50.7829 79.4869C49.5185 79.0801 47.8872 78.9311 47.1535 80.166C46.5381 81.2012 46.9968 82.7052 47.872 83.464C48.7472 84.2228 49.9014 84.4081 51.0019 84.4838C58.1458 84.9736 64.6318 84.2124 70.3617 84.6047Z" fill="white"/>
<path d="M175.651 118.395C173.252 118.395 168.32 123.17 175.368 123.935C182.414 124.701 192.969 124.349 197.24 124.364C204.211 124.39 205.94 124.07 205.885 120.875C205.852 119.025 204.962 117.828 201.287 117.343C197.464 116.838 199.418 112.068 194.75 112.212C190.775 112.335 190.37 118.579 186.733 117.049C183.096 115.518 183.857 119.689 181.198 120.454C178.275 121.295 178.05 118.395 175.651 118.395Z" fill="white"/>
<path d="M176.108 153.179C176.109 153.179 176.109 153.179 176.11 153.179C176.201 153.166 176.29 153.159 176.377 153.157C178.953 153.101 179.24 160.055 176.806 160.902C175.733 161.275 174.555 161.164 174.194 160.229C173.944 159.584 174.407 158.912 175.067 159.117C175.834 159.356 176.769 159.77 176.909 158.574C176.967 157.172 174.35 156.072 175.748 156.187C175.831 156.194 175.92 156.207 176.016 156.227C176.729 156.3 176.999 155.469 176.519 155.035C175.857 154.314 174.623 155.622 174.262 154.882C173.743 153.623 175.044 153.127 176.108 153.179Z" fill="#3B3B4D"/>
<path d="M138.893 53.9551C138.893 53.9553 138.893 53.9553 138.893 53.9551C142.128 51.1109 143.291 51.7697 145.164 49.7714C145.508 49.4054 146.487 49.0755 147.09 48.7198C147.539 48.4534 147.777 48.1734 147.382 47.8537C146.476 47.1226 140.804 42.167 140.538 41.9358C140.534 41.9318 140.526 41.9337 140.524 41.9395C140.452 42.1542 140.386 42.3606 140.323 42.5579C139.269 45.8751 139.442 46.7514 138.18 48.1613C137.287 49.158 136.731 49.2894 135.9 50.3402C134.826 51.6959 135.272 52.7707 132.385 54.0389C131.533 54.4134 135.551 56.8928 138.892 53.9551C138.892 53.9548 138.892 53.9548 138.893 53.9551Z" fill="#ED390F"/>
<path opacity="0.14" d="M139.99 42.3511C139.949 42.472 139.986 42.6058 140.083 42.6889L146.165 47.8862C146.702 48.3454 147.93 48.2196 147.367 47.7928C146.412 47.0692 140.429 42.1645 140.149 41.9357C140.144 41.9316 140.136 41.9337 140.134 41.9397C140.084 42.0805 140.036 42.2177 139.99 42.3511Z" fill="#1F1F3B"/>
<path d="M175.151 73.5882C175.151 73.5876 175.152 73.5871 175.152 73.5865C175.154 73.5852 175.156 73.5826 175.157 73.5814C175.299 73.4215 175.292 73.1702 175.139 73.0204C156.132 54.2658 140.763 41.5966 140.536 41.4045C140.374 41.2666 140.137 41.2936 140.006 41.4646C139.875 41.6355 139.9 41.8852 140.063 42.0231C140.288 42.2152 155.638 54.8658 174.623 73.6001C174.774 73.7481 175.008 73.7422 175.151 73.5882Z" fill="white"/>
<path d="M162.449 59.3605C162.449 59.3605 162.449 59.3606 162.449 59.3606C162.064 59.0959 160.569 58.7414 160.536 59.4798C160.502 60.2186 162.207 61.569 162.896 61.4794C163.175 61.4436 163.39 61.3182 163.474 60.7586C163.557 60.1993 162.787 59.5928 162.449 59.3604C162.449 59.3604 162.449 59.3605 162.449 59.3605Z" fill="#FEDCD7"/>
<path d="M159.949 60.8719C159.949 60.8717 159.949 60.8715 159.949 60.8714C160.022 59.9111 159.919 59.0724 160.01 59.0472C160.216 58.9899 160.324 59.2391 160.373 59.6429C160.421 60.0467 160.627 60.6797 160.494 60.6997C160.363 60.7193 159.965 60.867 159.95 60.8724C159.95 60.8725 159.95 60.8723 159.949 60.8719Z" fill="#FEDCD7"/>
</g>
</g>
</svg>
