<svg width="172" height="106" viewBox="0 0 172 106" fill="none" xmlns="http://www.w3.org/2000/svg">
<g clip-path="url(#clip0_0_1556)">
<path d="M150.986 11.9619H112.415L125.596 25.1428H155V15.9756C155 13.7574 153.202 11.9619 150.986 11.9619Z" fill="white" fill-opacity="0.3"/>
<path d="M60.5851 11.9619H22.0137C19.7981 11.9619 18 13.7574 18 15.9756V25.1428H47.4042L60.5851 11.9619Z" fill="white" fill-opacity="0.3"/>
<path d="M77.6164 67.2783H95.3836V105.97H77.6164V67.2783Z" fill="white" fill-opacity="0.3"/>
<path d="M86.5 32.8857C83.9722 32.8857 81.9156 34.9426 81.9156 37.4704C81.9156 39.9982 83.9722 42.0551 86.5 42.0551C89.0278 42.0551 91.0847 39.9982 91.0847 37.4704C91.0847 34.9426 89.0278 32.8857 86.5 32.8857Z" fill="white" fill-opacity="0.3"/>
<path d="M90.5137 1.41504H82.4863L50.7302 33.1712H18V101.956C18 104.173 19.7971 105.97 22.0137 105.97H69.5891V63.2646C69.5891 61.048 71.3861 59.251 73.6027 59.251H99.3973C101.614 59.251 103.411 61.048 103.411 63.2646V105.97H150.986C153.203 105.97 155 104.173 155 101.956V33.1712H122.27L90.5137 1.41504ZM43.2238 84.76C43.2238 86.9766 41.4267 88.7737 39.2101 88.7737C36.9935 88.7737 35.1964 86.9766 35.1964 84.76V76.1619C35.1964 73.9453 36.9935 72.1483 39.2101 72.1483C41.4267 72.1483 43.2238 73.9453 43.2238 76.1619V84.76ZM43.2238 58.9655C43.2238 61.1821 41.4267 62.9791 39.2101 62.9791C36.9935 62.9791 35.1964 61.1821 35.1964 58.9655V50.3674C35.1964 48.1508 36.9935 46.3537 39.2101 46.3537C41.4267 46.3537 43.2238 48.1508 43.2238 50.3674V58.9655ZM60.42 84.76C60.42 86.9766 58.6229 88.7737 56.4063 88.7737C54.1897 88.7737 52.3926 86.9766 52.3926 84.76V76.1619C52.3926 73.9453 54.1897 72.1483 56.4063 72.1483C58.6229 72.1483 60.42 73.9453 60.42 76.1619V84.76ZM60.42 58.9655C60.42 61.1821 58.6229 62.9791 56.4063 62.9791C54.1897 62.9791 52.3926 61.1821 52.3926 58.9655V50.3674C52.3926 48.1508 54.1897 46.3537 56.4063 46.3537C58.6229 46.3537 60.42 48.1508 60.42 50.3674V58.9655ZM86.5 50.0822C79.5459 50.0822 73.8882 44.4242 73.8882 37.4701C73.8882 30.516 79.5459 24.8581 86.5 24.8581C93.4541 24.8581 99.112 30.516 99.112 37.4701C99.112 44.4242 93.4541 50.0822 86.5 50.0822ZM120.607 84.76C120.607 86.9766 118.81 88.7737 116.594 88.7737C114.377 88.7737 112.58 86.9766 112.58 84.76V76.1619C112.58 73.9453 114.377 72.1483 116.594 72.1483C118.81 72.1483 120.607 73.9453 120.607 76.1619V84.76ZM120.607 58.9655C120.607 61.1821 118.81 62.9791 116.594 62.9791C114.377 62.9791 112.58 61.1821 112.58 58.9655V50.3674C112.58 48.1508 114.377 46.3537 116.594 46.3537C118.81 46.3537 120.607 48.1508 120.607 50.3674V58.9655ZM129.776 50.3674C129.776 48.1508 131.573 46.3537 133.79 46.3537C136.007 46.3537 137.804 48.1508 137.804 50.3674V58.9655C137.804 61.1821 136.007 62.9791 133.79 62.9791C131.573 62.9791 129.776 61.1821 129.776 58.9655V50.3674ZM129.776 76.1619C129.776 73.9453 131.573 72.1483 133.79 72.1483C136.007 72.1483 137.804 73.9453 137.804 76.1619V84.7603C137.804 86.9769 136.007 88.7739 133.79 88.7739C131.573 88.7739 129.776 86.9769 129.776 84.7603V76.1619Z" fill="white" fill-opacity="0.3"/>
</g>
<mask id="path-6-outside-1_0_1556" maskUnits="userSpaceOnUse" x="0" y="29.9702" width="172" height="32" fill="black">
<rect fill="white" y="29.9702" width="172" height="32"/>
<path d="M23.8784 33.7622L21.1484 40.9022C19.9304 40.0622 17.7044 38.8022 15.4364 38.8022C14.8904 38.8022 14.0504 38.8862 13.5044 39.3062C13.1264 39.6002 13.0004 39.8942 13.0004 40.3142C13.0004 40.9022 13.0844 41.4482 14.6384 41.7842L17.8724 42.4982C20.3504 43.0442 21.8204 44.0522 22.6604 44.8922C24.4244 46.6142 24.8024 48.7562 24.8024 50.4362C24.8024 52.8302 24.1724 55.0562 22.2824 57.0302C20.6864 58.6682 17.6624 60.6002 12.4124 60.6002C8.12839 60.6002 5.27239 59.3822 2.87839 58.4162L1.95439 58.0382L5.02039 50.1422L6.11239 50.9822C7.16239 51.7802 9.30439 53.0402 11.7824 53.0402C13.1684 53.0402 13.7564 52.7042 13.9664 52.5362C14.4284 52.1582 14.5124 51.6962 14.5124 51.2762C14.5124 51.0242 14.4704 50.6042 14.1764 50.3102C13.8404 49.9742 13.2944 49.8482 12.2444 49.6382L9.76639 49.1762C8.17039 48.8822 6.44839 48.3782 4.89439 46.7822C3.46639 45.3122 2.87839 43.6322 2.87839 41.6162C2.87839 39.0122 3.76039 36.7862 5.60839 34.9382C7.75039 32.7542 10.9004 31.3262 15.3524 31.3262C17.5784 31.3262 20.4764 31.7042 23.8784 33.7622ZM39.0893 59.9702H29.1773V31.9562H42.6173C47.0693 31.9562 49.6313 33.7622 50.8073 34.8962C53.1173 37.1642 53.6633 40.0202 53.6633 42.2462C53.6633 44.5562 53.1593 47.2022 50.8913 49.2602C48.6653 51.2762 46.1453 51.5282 44.0033 51.5282H39.0893V59.9702ZM39.0893 39.6422V44.4722H40.8113C41.3153 44.4722 42.3653 44.4302 43.0793 43.7162C43.4573 43.3802 43.7513 42.8342 43.7513 41.9942C43.7513 41.1122 43.3733 40.5662 42.9953 40.2722C42.5333 39.8942 41.6933 39.6422 40.9373 39.6422H39.0893ZM76.343 59.9702H57.191V31.9562H76.091V39.6422H67.355V42.2462H75.293V49.5962H67.355V52.2842H76.343V59.9702ZM101.189 49.0082L100.895 59.4662C98.2489 60.4742 95.1409 60.6002 93.8389 60.6002C90.1849 60.6002 86.2789 59.2982 83.5069 56.5262C80.8609 53.9222 79.4329 50.1422 79.4329 46.1942C79.4329 41.8682 81.0709 38.1722 83.6329 35.5682C85.6069 33.5942 88.9669 31.3262 94.2169 31.3262C96.3169 31.3262 98.6689 31.6622 100.895 32.4182L101.189 43.0862C100.013 41.9102 97.8289 40.3142 95.2669 40.3142C93.6709 40.3142 92.2009 40.9442 91.1929 42.0362C90.2269 43.0862 89.7229 44.5562 89.7229 46.0262C89.7229 47.5382 90.2689 49.0082 91.3609 50.0582C92.2009 50.8562 93.5029 51.6542 95.5189 51.6542C98.3749 51.6542 100.349 49.9322 101.189 49.0082ZM115.671 59.9702H105.507V31.9562H115.671V59.9702ZM137.72 56.4842H129.992L129.236 59.9702H118.484L128.186 31.9562H139.442L149.438 59.9702H138.644L137.72 56.4842ZM134.654 44.4722C134.402 43.3802 134.234 42.3302 134.108 41.3222H133.73C133.688 42.4982 133.52 43.4642 133.268 44.4722L131.882 49.8482H135.956L134.654 44.4722ZM170.997 59.9702H152.265V31.9562H162.429V50.9402H170.997V59.9702Z"/>
</mask>
<path d="M23.8784 33.7622L21.1484 40.9022C19.9304 40.0622 17.7044 38.8022 15.4364 38.8022C14.8904 38.8022 14.0504 38.8862 13.5044 39.3062C13.1264 39.6002 13.0004 39.8942 13.0004 40.3142C13.0004 40.9022 13.0844 41.4482 14.6384 41.7842L17.8724 42.4982C20.3504 43.0442 21.8204 44.0522 22.6604 44.8922C24.4244 46.6142 24.8024 48.7562 24.8024 50.4362C24.8024 52.8302 24.1724 55.0562 22.2824 57.0302C20.6864 58.6682 17.6624 60.6002 12.4124 60.6002C8.12839 60.6002 5.27239 59.3822 2.87839 58.4162L1.95439 58.0382L5.02039 50.1422L6.11239 50.9822C7.16239 51.7802 9.30439 53.0402 11.7824 53.0402C13.1684 53.0402 13.7564 52.7042 13.9664 52.5362C14.4284 52.1582 14.5124 51.6962 14.5124 51.2762C14.5124 51.0242 14.4704 50.6042 14.1764 50.3102C13.8404 49.9742 13.2944 49.8482 12.2444 49.6382L9.76639 49.1762C8.17039 48.8822 6.44839 48.3782 4.89439 46.7822C3.46639 45.3122 2.87839 43.6322 2.87839 41.6162C2.87839 39.0122 3.76039 36.7862 5.60839 34.9382C7.75039 32.7542 10.9004 31.3262 15.3524 31.3262C17.5784 31.3262 20.4764 31.7042 23.8784 33.7622ZM39.0893 59.9702H29.1773V31.9562H42.6173C47.0693 31.9562 49.6313 33.7622 50.8073 34.8962C53.1173 37.1642 53.6633 40.0202 53.6633 42.2462C53.6633 44.5562 53.1593 47.2022 50.8913 49.2602C48.6653 51.2762 46.1453 51.5282 44.0033 51.5282H39.0893V59.9702ZM39.0893 39.6422V44.4722H40.8113C41.3153 44.4722 42.3653 44.4302 43.0793 43.7162C43.4573 43.3802 43.7513 42.8342 43.7513 41.9942C43.7513 41.1122 43.3733 40.5662 42.9953 40.2722C42.5333 39.8942 41.6933 39.6422 40.9373 39.6422H39.0893ZM76.343 59.9702H57.191V31.9562H76.091V39.6422H67.355V42.2462H75.293V49.5962H67.355V52.2842H76.343V59.9702ZM101.189 49.0082L100.895 59.4662C98.2489 60.4742 95.1409 60.6002 93.8389 60.6002C90.1849 60.6002 86.2789 59.2982 83.5069 56.5262C80.8609 53.9222 79.4329 50.1422 79.4329 46.1942C79.4329 41.8682 81.0709 38.1722 83.6329 35.5682C85.6069 33.5942 88.9669 31.3262 94.2169 31.3262C96.3169 31.3262 98.6689 31.6622 100.895 32.4182L101.189 43.0862C100.013 41.9102 97.8289 40.3142 95.2669 40.3142C93.6709 40.3142 92.2009 40.9442 91.1929 42.0362C90.2269 43.0862 89.7229 44.5562 89.7229 46.0262C89.7229 47.5382 90.2689 49.0082 91.3609 50.0582C92.2009 50.8562 93.5029 51.6542 95.5189 51.6542C98.3749 51.6542 100.349 49.9322 101.189 49.0082ZM115.671 59.9702H105.507V31.9562H115.671V59.9702ZM137.72 56.4842H129.992L129.236 59.9702H118.484L128.186 31.9562H139.442L149.438 59.9702H138.644L137.72 56.4842ZM134.654 44.4722C134.402 43.3802 134.234 42.3302 134.108 41.3222H133.73C133.688 42.4982 133.52 43.4642 133.268 44.4722L131.882 49.8482H135.956L134.654 44.4722ZM170.997 59.9702H152.265V31.9562H162.429V50.9402H170.997V59.9702Z" fill="white"/>
<path d="M23.8784 33.7622L24.8124 34.1194L25.1108 33.339L24.396 32.9066L23.8784 33.7622ZM21.1484 40.9022L20.5807 41.7254L21.628 42.4478L22.0824 41.2594L21.1484 40.9022ZM13.5044 39.3062L12.8947 38.5136L12.8905 38.5169L13.5044 39.3062ZM14.6384 41.7842L14.854 40.8077L14.8497 40.8068L14.6384 41.7842ZM17.8724 42.4982L17.6568 43.4747L17.6572 43.4748L17.8724 42.4982ZM22.6604 44.8922L21.9532 45.5994L21.9619 45.6078L22.6604 44.8922ZM22.2824 57.0302L22.9986 57.7281L23.0047 57.7218L22.2824 57.0302ZM2.87839 58.4162L2.49975 59.3418L2.5042 59.3436L2.87839 58.4162ZM1.95439 58.0382L1.0222 57.6762L0.666669 58.5919L1.57576 58.9638L1.95439 58.0382ZM5.02039 50.1422L5.6301 49.3496L4.57159 48.5354L4.0882 49.7802L5.02039 50.1422ZM6.11239 50.9822L5.50267 51.7749L5.50731 51.7784L6.11239 50.9822ZM13.9664 52.5362L14.5911 53.3171L14.5996 53.3102L13.9664 52.5362ZM14.1764 50.3102L13.4693 51.0173H13.4693L14.1764 50.3102ZM12.2444 49.6382L12.4405 48.6576L12.4277 48.6552L12.2444 49.6382ZM9.76639 49.1762L9.94967 48.1932L9.94755 48.1928L9.76639 49.1762ZM4.89439 46.7822L4.17711 47.479L4.17792 47.4798L4.89439 46.7822ZM5.60839 34.9382L6.31553 35.6454L6.32233 35.6384L5.60839 34.9382ZM22.9443 33.4051L20.2143 40.5451L22.0824 41.2594L24.8124 34.1194L22.9443 33.4051ZM21.7161 40.079C20.4622 39.2142 18.0228 37.8022 15.4364 37.8022V39.8022C17.386 39.8022 19.3986 40.9102 20.5807 41.7254L21.7161 40.079ZM15.4364 37.8022C15.1179 37.8022 14.6978 37.8262 14.2629 37.9185C13.8362 38.009 13.3301 38.1787 12.8947 38.5136L14.1141 40.0988C14.2247 40.0138 14.4116 39.9314 14.6779 39.8749C14.936 39.8202 15.2089 39.8022 15.4364 39.8022V37.8022ZM12.8905 38.5169C12.6153 38.7309 12.3732 38.9911 12.2105 39.3274C12.0475 39.6642 12.0004 40.0025 12.0004 40.3142H14.0004C14.0004 40.2059 14.0162 40.1873 14.0108 40.1985C14.0056 40.2093 14.0155 40.1756 14.1183 40.0956L12.8905 38.5169ZM12.0004 40.3142C12.0004 40.6366 12.01 41.2473 12.4763 41.7932C12.908 42.2986 13.5844 42.5794 14.4271 42.7616L14.8497 40.8068C14.1384 40.653 13.9958 40.4928 13.997 40.4942C14.0328 40.5361 14.0004 40.5798 14.0004 40.3142H12.0004ZM14.4228 42.7607L17.6568 43.4747L18.088 41.5217L14.854 40.8077L14.4228 42.7607ZM17.6572 43.4748C19.9533 43.9807 21.2513 44.8974 21.9533 45.5993L23.3675 44.1851C22.3895 43.2071 20.7475 42.1077 18.0876 41.5216L17.6572 43.4748ZM21.9619 45.6078C23.4566 47.067 23.8024 48.8957 23.8024 50.4362H25.8024C25.8024 48.6167 25.3922 46.1615 23.3589 44.1766L21.9619 45.6078ZM23.8024 50.4362C23.8024 52.631 23.2352 54.5891 21.5601 56.3386L23.0047 57.7218C25.1096 55.5233 25.8024 53.0295 25.8024 50.4362H23.8024ZM21.5662 56.3323C20.1542 57.7815 17.3867 59.6002 12.4124 59.6002V61.6002C17.9381 61.6002 21.2186 59.555 22.9986 57.7281L21.5662 56.3323ZM12.4124 59.6002C8.33973 59.6002 5.64239 58.4532 3.25258 57.4889L2.5042 59.3436C4.90239 60.3113 7.91705 61.6002 12.4124 61.6002V59.6002ZM3.25702 57.4907L2.33302 57.1127L1.57576 58.9638L2.49976 59.3418L3.25702 57.4907ZM2.88658 58.4002L5.95258 50.5042L4.0882 49.7802L1.0222 57.6762L2.88658 58.4002ZM4.41068 50.9348L5.50268 51.7748L6.7221 50.1896L5.6301 49.3496L4.41068 50.9348ZM5.50731 51.7784C6.63569 52.6359 8.9903 54.0402 11.7824 54.0402V52.0402C9.61848 52.0402 7.68909 50.9245 6.71747 50.1861L5.50731 51.7784ZM11.7824 54.0402C13.3308 54.0402 14.1591 53.6627 14.5911 53.3171L13.3417 51.7553C13.3407 51.7562 13.3197 51.7729 13.2711 51.7981C13.2223 51.8234 13.1431 51.8585 13.0254 51.8942C12.7892 51.9658 12.3957 52.0402 11.7824 52.0402V54.0402ZM14.5996 53.3102C15.3883 52.6649 15.5124 51.8478 15.5124 51.2762H13.5124C13.5124 51.4241 13.4966 51.5152 13.4735 51.5784C13.4551 51.6286 13.4228 51.6889 13.3332 51.7623L14.5996 53.3102ZM15.5124 51.2762C15.5124 50.9688 15.4741 50.1937 14.8835 49.6031L13.4693 51.0173C13.4616 51.0097 13.475 51.0176 13.4899 51.0721C13.5054 51.129 13.5124 51.2006 13.5124 51.2762H15.5124ZM14.8835 49.6031C14.559 49.2786 14.1717 49.0997 13.7847 48.9751C13.4106 48.8546 12.9532 48.7602 12.4405 48.6576L12.0483 50.6188C12.5856 50.7263 12.9262 50.7998 13.1716 50.8788C13.4041 50.9537 13.4578 51.0059 13.4693 51.0173L14.8835 49.6031ZM12.4277 48.6552L9.94967 48.1932L9.58311 50.1593L12.0611 50.6213L12.4277 48.6552ZM9.94755 48.1928C8.4377 47.9146 6.9548 47.4649 5.61086 46.0846L4.17792 47.4798C5.94198 49.2916 7.90308 49.8498 9.58523 50.1597L9.94755 48.1928ZM5.61167 46.0854C4.38642 44.8241 3.87839 43.4045 3.87839 41.6162H1.87839C1.87839 43.8599 2.54637 45.8003 4.17711 47.479L5.61167 46.0854ZM3.87839 41.6162C3.87839 39.2668 4.66244 37.2984 6.3155 35.6453L4.90128 34.2311C2.85834 36.274 1.87839 38.7577 1.87839 41.6162H3.87839ZM6.32233 35.6384C8.25177 33.6712 11.1318 32.3262 15.3524 32.3262V30.3262C10.6689 30.3262 7.24901 31.8373 4.89445 34.238L6.32233 35.6384ZM15.3524 32.3262C17.4404 32.3262 20.1491 32.6749 23.3608 34.6178L24.396 32.9066C20.8037 30.7335 17.7163 30.3262 15.3524 30.3262V32.3262ZM39.0893 59.9702V60.9702H40.0893V59.9702H39.0893ZM29.1773 59.9702H28.1773V60.9702H29.1773V59.9702ZM29.1773 31.9562V30.9562H28.1773V31.9562H29.1773ZM50.8073 34.8962L51.5079 34.1826L51.5014 34.1764L50.8073 34.8962ZM50.8913 49.2602L51.5626 50.0014L51.5633 50.0008L50.8913 49.2602ZM39.0893 51.5282V50.5282H38.0893V51.5282H39.0893ZM39.0893 39.6422V38.6422H38.0893V39.6422H39.0893ZM39.0893 44.4722H38.0893V45.4722H39.0893V44.4722ZM43.0793 43.7162L42.4149 42.9688L42.393 42.9883L42.3722 43.0091L43.0793 43.7162ZM42.9953 40.2722L42.362 41.0462L42.3716 41.054L42.3813 41.0616L42.9953 40.2722ZM39.0893 58.9702H29.1773V60.9702H39.0893V58.9702ZM30.1773 59.9702V31.9562H28.1773V59.9702H30.1773ZM29.1773 32.9562H42.6173V30.9562H29.1773V32.9562ZM42.6173 32.9562C46.7661 32.9562 49.089 34.6285 50.1131 35.6161L51.5014 34.1764C50.1735 32.8959 47.3725 30.9562 42.6173 30.9562V32.9562ZM50.1067 35.6098C52.1543 37.6202 52.6633 40.1697 52.6633 42.2462H54.6633C54.6633 39.8708 54.0802 36.7082 51.5079 34.1827L50.1067 35.6098ZM52.6633 42.2462C52.6633 44.4185 52.1912 46.7303 50.2193 48.5197L51.5633 50.0008C54.1273 47.6741 54.6633 44.6939 54.6633 42.2462H52.6633ZM50.22 48.519C48.2747 50.2808 46.0696 50.5282 44.0033 50.5282V52.5282C46.2209 52.5282 49.0558 52.2717 51.5626 50.0014L50.22 48.519ZM44.0033 50.5282H39.0893V52.5282H44.0033V50.5282ZM38.0893 51.5282V59.9702H40.0893V51.5282H38.0893ZM38.0893 39.6422V44.4722H40.0893V39.6422H38.0893ZM39.0893 45.4722H40.8113V43.4722H39.0893V45.4722ZM40.8113 45.4722C41.3126 45.4722 42.7558 45.4539 43.7864 44.4233L42.3722 43.0091C41.9748 43.4065 41.3179 43.4722 40.8113 43.4722V45.4722ZM43.7436 44.4636C44.3559 43.9194 44.7513 43.0909 44.7513 41.9942H42.7513C42.7513 42.5776 42.5587 42.841 42.4149 42.9688L43.7436 44.4636ZM44.7513 41.9942C44.7513 40.7907 44.2204 39.9583 43.6092 39.4829L42.3813 41.0616C42.5261 41.1742 42.7513 41.4337 42.7513 41.9942H44.7513ZM43.6285 39.4983C42.9394 38.9344 41.8526 38.6422 40.9373 38.6422V40.6422C41.534 40.6422 42.1272 40.854 42.362 41.0462L43.6285 39.4983ZM40.9373 38.6422H39.0893V40.6422H40.9373V38.6422ZM76.343 59.9702V60.9702H77.343V59.9702H76.343ZM57.191 59.9702H56.191V60.9702H57.191V59.9702ZM57.191 31.9562V30.9562H56.191V31.9562H57.191ZM76.091 31.9562H77.091V30.9562H76.091V31.9562ZM76.091 39.6422V40.6422H77.091V39.6422H76.091ZM67.3549 39.6422V38.6422H66.3549V39.6422H67.3549ZM67.3549 42.2462H66.3549V43.2462H67.3549V42.2462ZM75.293 42.2462H76.293V41.2462H75.293V42.2462ZM75.293 49.5962V50.5962H76.293V49.5962H75.293ZM67.3549 49.5962V48.5962H66.3549V49.5962H67.3549ZM67.3549 52.2842H66.3549V53.2842H67.3549V52.2842ZM76.343 52.2842H77.343V51.2842H76.343V52.2842ZM76.343 58.9702H57.191V60.9702H76.343V58.9702ZM58.191 59.9702V31.9562H56.191V59.9702H58.191ZM57.191 32.9562H76.091V30.9562H57.191V32.9562ZM75.091 31.9562V39.6422H77.091V31.9562H75.091ZM76.091 38.6422H67.3549V40.6422H76.091V38.6422ZM66.3549 39.6422V42.2462H68.3549V39.6422H66.3549ZM67.3549 43.2462H75.293V41.2462H67.3549V43.2462ZM74.293 42.2462V49.5962H76.293V42.2462H74.293ZM75.293 48.5962H67.3549V50.5962H75.293V48.5962ZM66.3549 49.5962V52.2842H68.3549V49.5962H66.3549ZM67.3549 53.2842H76.343V51.2842H67.3549V53.2842ZM75.343 52.2842V59.9702H77.343V52.2842H75.343ZM101.189 49.0082L102.189 49.0363L102.264 46.3386L100.449 48.3355L101.189 49.0082ZM100.895 59.4662L101.251 60.4007L101.876 60.1627L101.895 59.4943L100.895 59.4662ZM83.5069 56.5262L84.214 55.8191L84.2083 55.8135L83.5069 56.5262ZM83.6329 35.5682L82.9258 34.8611L82.9201 34.8669L83.6329 35.5682ZM100.895 32.4182L101.895 32.3907L101.875 31.6951L101.216 31.4713L100.895 32.4182ZM101.189 43.0862L100.482 43.7933L102.258 45.5692L102.189 43.0587L101.189 43.0862ZM91.1929 42.0362L90.4581 41.3579L90.457 41.3592L91.1929 42.0362ZM91.3609 50.0582L90.6678 50.7791L90.6722 50.7832L91.3609 50.0582ZM100.189 48.9801L99.8953 59.4381L101.895 59.4943L102.189 49.0363L100.189 48.9801ZM100.539 58.5317C98.069 59.4726 95.1114 59.6002 93.8389 59.6002V61.6002C95.1704 61.6002 98.4288 61.4758 101.251 60.4007L100.539 58.5317ZM93.8389 59.6002C90.4027 59.6002 86.7674 58.3725 84.214 55.8191L82.7998 57.2333C85.7904 60.2239 89.9671 61.6002 93.8389 61.6002V59.6002ZM84.2083 55.8135C81.7783 53.422 80.4329 49.9114 80.4329 46.1942H78.4329C78.4329 50.3731 79.9435 54.4224 82.8055 57.239L84.2083 55.8135ZM80.4329 46.1942C80.4329 42.1283 81.9694 38.6849 84.3457 36.2695L82.9201 34.8669C80.1725 37.6595 78.4329 41.6081 78.4329 46.1942H80.4329ZM84.34 36.2753C86.1739 34.4415 89.2924 32.3262 94.2169 32.3262V30.3262C88.6415 30.3262 85.04 32.7469 82.9258 34.8611L84.34 36.2753ZM94.2169 32.3262C96.217 32.3262 98.4595 32.6472 100.573 33.3651L101.216 31.4713C98.8783 30.6772 96.4168 30.3262 94.2169 30.3262V32.3262ZM99.8953 32.4458L100.189 43.1138L102.189 43.0587L101.895 32.3907L99.8953 32.4458ZM101.896 42.3791C100.649 41.1317 98.2225 39.3142 95.2669 39.3142V41.3142C97.4353 41.3142 99.3772 42.6887 100.482 43.7933L101.896 42.3791ZM95.2669 39.3142C93.4087 39.3142 91.6666 40.0488 90.4581 41.3579L91.9277 42.7145C92.7352 41.8397 93.9331 41.3142 95.2669 41.3142V39.3142ZM90.457 41.3592C89.2978 42.6192 88.7229 44.3423 88.7229 46.0262H90.7229C90.7229 44.7702 91.1561 43.5532 91.9288 42.7133L90.457 41.3592ZM88.7229 46.0262C88.7229 47.7735 89.3547 49.5165 90.6678 50.779L92.054 49.3374C91.1831 48.4999 90.7229 47.3029 90.7229 46.0262H88.7229ZM90.6722 50.7832C91.6619 51.7234 93.2007 52.6542 95.5189 52.6542V50.6542C93.8051 50.6542 92.7399 49.989 92.0497 49.3332L90.6722 50.7832ZM95.5189 52.6542C98.7887 52.6542 101.011 50.69 101.929 49.6809L100.449 48.3355C99.6863 49.1745 97.9611 50.6542 95.5189 50.6542V52.6542ZM115.671 59.9702V60.9702H116.671V59.9702H115.671ZM105.507 59.9702H104.507V60.9702H105.507V59.9702ZM105.507 31.9562V30.9562H104.507V31.9562H105.507ZM115.671 31.9562H116.671V30.9562H115.671V31.9562ZM115.671 58.9702H105.507V60.9702H115.671V58.9702ZM106.507 59.9702V31.9562H104.507V59.9702H106.507ZM105.507 32.9562H115.671V30.9562H105.507V32.9562ZM114.671 31.9562V59.9702H116.671V31.9562H114.671ZM137.72 56.4842L138.687 56.228L138.49 55.4842H137.72V56.4842ZM129.992 56.4842V55.4842H129.186L129.015 56.2723L129.992 56.4842ZM129.236 59.9702V60.9702H130.043L130.214 60.1822L129.236 59.9702ZM118.484 59.9702L117.539 59.643L117.08 60.9702H118.484V59.9702ZM128.186 31.9562V30.9562H127.474L127.241 31.629L128.186 31.9562ZM139.442 31.9562L140.384 31.6201L140.147 30.9562H139.442V31.9562ZM149.438 59.9702V60.9702H150.857L150.38 59.6341L149.438 59.9702ZM138.644 59.9702L137.678 60.2264L137.875 60.9702H138.644V59.9702ZM134.654 44.4722L133.68 44.6971L133.682 44.7076L134.654 44.4722ZM134.108 41.3222L135.101 41.1982L134.991 40.3222H134.108V41.3222ZM133.73 41.3222V40.3222H132.765L132.731 41.2865L133.73 41.3222ZM133.268 44.4722L134.237 44.7219L134.239 44.7147L133.268 44.4722ZM131.882 49.8482L130.914 49.5986L130.592 50.8482H131.882V49.8482ZM135.956 49.8482V50.8482H137.227L136.928 49.6128L135.956 49.8482ZM137.72 55.4842H129.992V57.4842H137.72V55.4842ZM129.015 56.2723L128.259 59.7583L130.214 60.1822L130.97 56.6962L129.015 56.2723ZM129.236 58.9702H118.484V60.9702H129.236V58.9702ZM119.429 60.2975L129.131 32.2835L127.241 31.629L117.539 59.643L119.429 60.2975ZM128.186 32.9562H139.442V30.9562H128.186V32.9562ZM138.501 32.2923L148.497 60.3063L150.38 59.6341L140.384 31.6201L138.501 32.2923ZM149.438 58.9702H138.644V60.9702H149.438V58.9702ZM139.611 59.714L138.687 56.228L136.754 56.7404L137.678 60.2264L139.611 59.714ZM135.629 44.2474C135.386 43.1973 135.224 42.1825 135.101 41.1982L133.116 41.4462C133.245 42.478 133.418 43.5631 133.68 44.6971L135.629 44.2474ZM134.108 40.3222H133.73V42.3222H134.108V40.3222ZM132.731 41.2865C132.692 42.3781 132.537 43.2736 132.298 44.2297L134.239 44.7147C134.503 43.6549 134.685 42.6183 134.73 41.3579L132.731 41.2865ZM132.3 44.2226L130.914 49.5986L132.851 50.0979L134.237 44.7219L132.3 44.2226ZM131.882 50.8482H135.956V48.8482H131.882V50.8482ZM136.928 49.6128L135.626 44.2368L133.682 44.7076L134.984 50.0836L136.928 49.6128ZM170.997 59.9702V60.9702H171.997V59.9702H170.997ZM152.265 59.9702H151.265V60.9702H152.265V59.9702ZM152.265 31.9562V30.9562H151.265V31.9562H152.265ZM162.429 31.9562H163.429V30.9562H162.429V31.9562ZM162.429 50.9402H161.429V51.9402H162.429V50.9402ZM170.997 50.9402H171.997V49.9402H170.997V50.9402ZM170.997 58.9702H152.265V60.9702H170.997V58.9702ZM153.265 59.9702V31.9562H151.265V59.9702H153.265ZM152.265 32.9562H162.429V30.9562H152.265V32.9562ZM161.429 31.9562V50.9402H163.429V31.9562H161.429ZM162.429 51.9402H170.997V49.9402H162.429V51.9402ZM169.997 50.9402V59.9702H171.997V50.9402H169.997Z" fill="#333333" mask="url(#path-6-outside-1_0_1556)"/>
<defs>
<clipPath id="clip0_0_1556">
<rect width="137" height="105" fill="white" transform="translate(18 0.970215)"/>
</clipPath>
</defs>
</svg>
