<svg width="154" height="38" viewBox="0 0 154 38" fill="none" xmlns="http://www.w3.org/2000/svg">
<mask id="path-1-inside-1_0_4057" fill="white">
<path d="M25.7847 33.2475H15.4807L14.4727 37.8955H0.136719L13.0727 0.543505H28.0807L41.4087 37.8955H27.0167L25.7847 33.2475ZM21.6967 17.2315C21.3607 15.7755 21.1367 14.3755 20.9687 13.0315H20.4647C20.4087 14.5995 20.1847 15.8875 19.8487 17.2315L18.0007 24.3995H23.4327L21.6967 17.2315ZM58.3938 37.8955H45.1778V0.543505H62.0338C65.9538 0.543505 70.0418 0.991506 73.4578 4.40751C75.3618 6.31151 76.9858 9.16751 76.9858 13.5915C76.9858 16.8955 75.9778 18.9675 74.9138 20.2555C73.7938 21.6555 71.9458 22.7755 69.7618 23.2235V23.5595C70.4898 23.9515 71.2178 24.5115 71.7218 25.2955L80.1218 37.8955H64.4978L59.1218 26.9755C58.9538 26.5835 58.7858 26.4155 58.6178 25.7995L58.3938 25.9115V37.8955ZM58.3938 10.7915V17.1755H59.9618C60.7458 17.1755 61.9778 17.0635 62.8178 16.3355C63.2658 15.9435 63.7698 15.2155 63.7698 14.0395C63.7698 13.1995 63.5458 12.3595 63.0418 11.7995C62.5938 11.2955 61.8658 10.7915 60.7458 10.7915H58.3938ZM110.526 37.8955H84.9903V0.543505H110.19V10.7915H98.5423V14.2635H109.126V24.0635H98.5423V27.6475H110.526V37.8955ZM138.222 33.2475H127.918L126.91 37.8955H112.574L125.51 0.543505H140.518L153.846 37.8955H139.454L138.222 33.2475ZM134.134 17.2315C133.798 15.7755 133.574 14.3755 133.406 13.0315H132.902C132.846 14.5995 132.622 15.8875 132.286 17.2315L130.438 24.3995H135.87L134.134 17.2315Z"/>
</mask>
<path d="M25.7847 33.2475H15.4807L14.4727 37.8955H0.136719L13.0727 0.543505H28.0807L41.4087 37.8955H27.0167L25.7847 33.2475ZM21.6967 17.2315C21.3607 15.7755 21.1367 14.3755 20.9687 13.0315H20.4647C20.4087 14.5995 20.1847 15.8875 19.8487 17.2315L18.0007 24.3995H23.4327L21.6967 17.2315ZM58.3938 37.8955H45.1778V0.543505H62.0338C65.9538 0.543505 70.0418 0.991506 73.4578 4.40751C75.3618 6.31151 76.9858 9.16751 76.9858 13.5915C76.9858 16.8955 75.9778 18.9675 74.9138 20.2555C73.7938 21.6555 71.9458 22.7755 69.7618 23.2235V23.5595C70.4898 23.9515 71.2178 24.5115 71.7218 25.2955L80.1218 37.8955H64.4978L59.1218 26.9755C58.9538 26.5835 58.7858 26.4155 58.6178 25.7995L58.3938 25.9115V37.8955ZM58.3938 10.7915V17.1755H59.9618C60.7458 17.1755 61.9778 17.0635 62.8178 16.3355C63.2658 15.9435 63.7698 15.2155 63.7698 14.0395C63.7698 13.1995 63.5458 12.3595 63.0418 11.7995C62.5938 11.2955 61.8658 10.7915 60.7458 10.7915H58.3938ZM110.526 37.8955H84.9903V0.543505H110.19V10.7915H98.5423V14.2635H109.126V24.0635H98.5423V27.6475H110.526V37.8955ZM138.222 33.2475H127.918L126.91 37.8955H112.574L125.51 0.543505H140.518L153.846 37.8955H139.454L138.222 33.2475ZM134.134 17.2315C133.798 15.7755 133.574 14.3755 133.406 13.0315H132.902C132.846 14.5995 132.622 15.8875 132.286 17.2315L130.438 24.3995H135.87L134.134 17.2315Z" fill="white"/>
<path d="M25.7847 33.2475L26.7513 32.9913C26.6351 32.5528 26.2383 32.2475 25.7847 32.2475V33.2475ZM15.4807 33.2475V32.2475C15.0101 32.2475 14.6032 32.5756 14.5034 33.0356L15.4807 33.2475ZM14.4727 37.8955V38.8955C14.9433 38.8955 15.3503 38.5674 15.45 38.1074L14.4727 37.8955ZM0.136719 37.8955L-0.808217 37.5683C-0.914084 37.8739 -0.865536 38.212 -0.677915 38.4755C-0.490294 38.739 -0.18678 38.8955 0.136719 38.8955V37.8955ZM13.0727 0.543505V-0.456495C12.6466 -0.456495 12.2672 -0.186433 12.1278 0.216248L13.0727 0.543505ZM28.0807 0.543505L29.0226 0.207437C28.8805 -0.190695 28.5034 -0.456495 28.0807 -0.456495V0.543505ZM41.4087 37.8955V38.8955C41.7339 38.8955 42.0387 38.7374 42.2261 38.4717C42.4134 38.2059 42.4598 37.8657 42.3506 37.5594L41.4087 37.8955ZM27.0167 37.8955L26.0501 38.1517C26.1663 38.5902 26.5631 38.8955 27.0167 38.8955V37.8955ZM21.6967 17.2315L20.7223 17.4564L20.7248 17.4669L21.6967 17.2315ZM20.9687 13.0315L21.961 12.9075C21.8984 12.407 21.473 12.0315 20.9687 12.0315V13.0315ZM20.4647 13.0315V12.0315C19.9263 12.0315 19.4846 12.4578 19.4654 12.9958L20.4647 13.0315ZM19.8487 17.2315L20.8171 17.4812L20.8189 17.474L19.8487 17.2315ZM18.0007 24.3995L17.0324 24.1499C16.9552 24.4493 17.0209 24.7676 17.2103 25.012C17.3997 25.2565 17.6915 25.3995 18.0007 25.3995V24.3995ZM23.4327 24.3995V25.3995C23.7394 25.3995 24.0291 25.2588 24.2187 25.0178C24.4083 24.7768 24.4768 24.4622 24.4046 24.1641L23.4327 24.3995ZM25.7847 32.2475H15.4807V34.2475H25.7847V32.2475ZM14.5034 33.0356L13.4954 37.6836L15.45 38.1074L16.458 33.4594L14.5034 33.0356ZM14.4727 36.8955H0.136719V38.8955H14.4727V36.8955ZM1.08165 38.2228L14.0177 0.870761L12.1278 0.216248L-0.808217 37.5683L1.08165 38.2228ZM13.0727 1.5435H28.0807V-0.456495H13.0727V1.5435ZM27.1389 0.879573L40.4669 38.2316L42.3506 37.5594L29.0226 0.207437L27.1389 0.879573ZM41.4087 36.8955H27.0167V38.8955H41.4087V36.8955ZM27.9833 37.6393L26.7513 32.9913L24.8181 33.5037L26.0501 38.1517L27.9833 37.6393ZM22.6711 17.0066C22.3448 15.5926 22.126 14.2278 21.961 12.9075L19.9764 13.1555C20.1474 14.5232 20.3766 15.9584 20.7223 17.4564L22.6711 17.0066ZM20.9687 12.0315H20.4647V14.0315H20.9687V12.0315ZM19.4654 12.9958C19.4124 14.4794 19.2016 15.6969 18.8786 16.989L20.8189 17.474C21.1678 16.0781 21.4051 14.7196 21.4641 13.0672L19.4654 12.9958ZM18.8804 16.9819L17.0324 24.1499L18.9691 24.6492L20.8171 17.4812L18.8804 16.9819ZM18.0007 25.3995H23.4327V23.3995H18.0007V25.3995ZM24.4046 24.1641L22.6686 16.9961L20.7248 17.4669L22.4608 24.6349L24.4046 24.1641ZM58.3938 37.8955V38.8955C58.9461 38.8955 59.3938 38.4478 59.3938 37.8955H58.3938ZM45.1778 37.8955H44.1778C44.1778 38.4478 44.6255 38.8955 45.1778 38.8955V37.8955ZM45.1778 0.543505V-0.456495C44.6255 -0.456495 44.1778 -0.00878003 44.1778 0.543505H45.1778ZM73.4578 4.40751L74.1649 3.7004L74.1649 3.7004L73.4578 4.40751ZM74.9138 20.2555L74.1428 19.6186C74.1395 19.6227 74.1362 19.6267 74.1329 19.6308L74.9138 20.2555ZM69.7618 23.2235L69.5608 22.2439C69.0957 22.3393 68.7618 22.7487 68.7618 23.2235H69.7618ZM69.7618 23.5595H68.7618C68.7618 23.9274 68.9638 24.2656 69.2877 24.44L69.7618 23.5595ZM71.7218 25.2955L70.8806 25.8363C70.8836 25.8409 70.8867 25.8456 70.8897 25.8502L71.7218 25.2955ZM80.1218 37.8955V38.8955C80.4906 38.8955 80.8294 38.6925 81.0035 38.3674C81.1775 38.0422 81.1584 37.6477 80.9538 37.3408L80.1218 37.8955ZM64.4978 37.8955L63.6006 38.3372C63.7689 38.679 64.1168 38.8955 64.4978 38.8955V37.8955ZM59.1218 26.9755L58.2026 27.3694C58.2095 27.3855 58.2169 27.4015 58.2246 27.4172L59.1218 26.9755ZM58.6178 25.7995L59.5825 25.5364C59.5037 25.2474 59.2995 25.0089 59.026 24.8866C58.7525 24.7643 58.4385 24.7711 58.1706 24.9051L58.6178 25.7995ZM58.3938 25.9115L57.9466 25.0171C57.6078 25.1865 57.3938 25.5327 57.3938 25.9115H58.3938ZM58.3938 10.7915V9.79151C57.8415 9.79151 57.3938 10.2392 57.3938 10.7915H58.3938ZM58.3938 17.1755H57.3938C57.3938 17.7278 57.8415 18.1755 58.3938 18.1755V17.1755ZM62.8178 16.3355L63.4727 17.0912L63.4763 17.0881L62.8178 16.3355ZM63.0418 11.7995L62.2944 12.4639L62.2985 12.4685L63.0418 11.7995ZM58.3938 36.8955H45.1778V38.8955H58.3938V36.8955ZM46.1778 37.8955V0.543505H44.1778V37.8955H46.1778ZM45.1778 1.5435H62.0338V-0.456495H45.1778V1.5435ZM62.0338 1.5435C65.8893 1.5435 69.6278 1.99172 72.7507 5.11461L74.1649 3.7004C70.4558 -0.0087069 66.0183 -0.456495 62.0338 -0.456495V1.5435ZM72.7507 5.11461C74.4792 6.84311 75.9858 9.44927 75.9858 13.5915H77.9858C77.9858 8.88574 76.2444 5.7799 74.1649 3.7004L72.7507 5.11461ZM75.9858 13.5915C75.9858 16.672 75.0532 18.5166 74.1428 19.6186L75.6847 20.8924C76.9024 19.4184 77.9858 17.119 77.9858 13.5915H75.9858ZM74.1329 19.6308C73.1766 20.8262 71.5455 21.8368 69.5608 22.2439L69.9627 24.2031C72.3461 23.7142 74.411 22.4848 75.6947 20.8802L74.1329 19.6308ZM68.7618 23.2235V23.5595H70.7618V23.2235H68.7618ZM69.2877 24.44C69.9185 24.7796 70.4956 25.2373 70.8806 25.8363L72.563 24.7547C71.94 23.7857 71.0611 23.1234 70.2359 22.679L69.2877 24.44ZM70.8897 25.8502L79.2897 38.4502L80.9538 37.3408L72.5538 24.7408L70.8897 25.8502ZM80.1218 36.8955H64.4978V38.8955H80.1218V36.8955ZM65.395 37.4538L60.019 26.5338L58.2246 27.4172L63.6006 38.3372L65.395 37.4538ZM60.0409 26.5816C59.9442 26.3558 59.8071 26.1101 59.7642 26.0243C59.707 25.9098 59.6477 25.7753 59.5825 25.5364L57.653 26.0626C57.7559 26.4397 57.8646 26.6972 57.9754 26.9187C58.1004 27.1689 58.1314 27.2032 58.2026 27.3694L60.0409 26.5816ZM58.1706 24.9051L57.9466 25.0171L58.841 26.8059L59.065 26.6939L58.1706 24.9051ZM57.3938 25.9115V37.8955H59.3938V25.9115H57.3938ZM57.3938 10.7915V17.1755H59.3938V10.7915H57.3938ZM58.3938 18.1755H59.9618V16.1755H58.3938V18.1755ZM59.9618 18.1755C60.773 18.1755 62.337 18.0754 63.4727 17.0912L62.1629 15.5798C61.6185 16.0516 60.7185 16.1755 59.9618 16.1755V18.1755ZM63.4763 17.0881C64.1156 16.5287 64.7698 15.5363 64.7698 14.0395H62.7698C62.7698 14.8947 62.4159 15.3583 62.1593 15.5829L63.4763 17.0881ZM64.7698 14.0395C64.7698 13.0558 64.5124 11.9387 63.7851 11.1305L62.2985 12.4685C62.5791 12.7803 62.7698 13.3432 62.7698 14.0395H64.7698ZM63.7892 11.1351C63.1936 10.4652 62.2093 9.79151 60.7458 9.79151V11.7915C61.5222 11.7915 61.9939 12.1259 62.2944 12.4639L63.7892 11.1351ZM60.7458 9.79151H58.3938V11.7915H60.7458V9.79151ZM110.526 37.8955V38.8955C111.079 38.8955 111.526 38.4478 111.526 37.8955H110.526ZM84.9903 37.8955H83.9903C83.9903 38.4478 84.438 38.8955 84.9903 38.8955V37.8955ZM84.9903 0.543505V-0.456495C84.438 -0.456495 83.9903 -0.00878003 83.9903 0.543505H84.9903ZM110.19 0.543505H111.19C111.19 -0.00878003 110.743 -0.456495 110.19 -0.456495V0.543505ZM110.19 10.7915V11.7915C110.743 11.7915 111.19 11.3438 111.19 10.7915H110.19ZM98.5423 10.7915V9.79151C97.99 9.79151 97.5423 10.2392 97.5423 10.7915H98.5423ZM98.5423 14.2635H97.5423C97.5423 14.8158 97.99 15.2635 98.5423 15.2635V14.2635ZM109.126 14.2635H110.126C110.126 13.7112 109.679 13.2635 109.126 13.2635V14.2635ZM109.126 24.0635V25.0635C109.679 25.0635 110.126 24.6158 110.126 24.0635H109.126ZM98.5423 24.0635V23.0635C97.99 23.0635 97.5423 23.5112 97.5423 24.0635H98.5423ZM98.5423 27.6475H97.5423C97.5423 28.1998 97.99 28.6475 98.5423 28.6475V27.6475ZM110.526 27.6475H111.526C111.526 27.0952 111.079 26.6475 110.526 26.6475V27.6475ZM110.526 36.8955H84.9903V38.8955H110.526V36.8955ZM85.9903 37.8955V0.543505H83.9903V37.8955H85.9903ZM84.9903 1.5435H110.19V-0.456495H84.9903V1.5435ZM109.19 0.543505V10.7915H111.19V0.543505H109.19ZM110.19 9.79151H98.5423V11.7915H110.19V9.79151ZM97.5423 10.7915V14.2635H99.5423V10.7915H97.5423ZM98.5423 15.2635H109.126V13.2635H98.5423V15.2635ZM108.126 14.2635V24.0635H110.126V14.2635H108.126ZM109.126 23.0635H98.5423V25.0635H109.126V23.0635ZM97.5423 24.0635V27.6475H99.5423V24.0635H97.5423ZM98.5423 28.6475H110.526V26.6475H98.5423V28.6475ZM109.526 27.6475V37.8955H111.526V27.6475H109.526ZM138.222 33.2475L139.189 32.9913C139.073 32.5528 138.676 32.2475 138.222 32.2475V33.2475ZM127.918 33.2475V32.2475C127.448 32.2475 127.041 32.5756 126.941 33.0356L127.918 33.2475ZM126.91 37.8955V38.8955C127.381 38.8955 127.788 38.5674 127.888 38.1074L126.91 37.8955ZM112.574 37.8955L111.629 37.5683C111.523 37.8739 111.572 38.212 111.76 38.4755C111.947 38.739 112.251 38.8955 112.574 38.8955V37.8955ZM125.51 0.543505V-0.456495C125.084 -0.456495 124.705 -0.186433 124.565 0.216248L125.51 0.543505ZM140.518 0.543505L141.46 0.207437C141.318 -0.190695 140.941 -0.456495 140.518 -0.456495V0.543505ZM153.846 37.8955V38.8955C154.171 38.8955 154.476 38.7374 154.664 38.4717C154.851 38.2059 154.897 37.8657 154.788 37.5594L153.846 37.8955ZM139.454 37.8955L138.488 38.1517C138.604 38.5902 139.001 38.8955 139.454 38.8955V37.8955ZM134.134 17.2315L133.16 17.4564L133.162 17.4669L134.134 17.2315ZM133.406 13.0315L134.398 12.9075C134.336 12.407 133.911 12.0315 133.406 12.0315V13.0315ZM132.902 13.0315V12.0315C132.364 12.0315 131.922 12.4578 131.903 12.9958L132.902 13.0315ZM132.286 17.2315L133.255 17.4812L133.256 17.474L132.286 17.2315ZM130.438 24.3995L129.47 24.1499C129.393 24.4493 129.458 24.7676 129.648 25.012C129.837 25.2565 130.129 25.3995 130.438 25.3995V24.3995ZM135.87 24.3995V25.3995C136.177 25.3995 136.467 25.2588 136.656 25.0178C136.846 24.7768 136.914 24.4622 136.842 24.1641L135.87 24.3995ZM138.222 32.2475H127.918V34.2475H138.222V32.2475ZM126.941 33.0356L125.933 37.6836L127.888 38.1074L128.896 33.4594L126.941 33.0356ZM126.91 36.8955H112.574V38.8955H126.91V36.8955ZM113.519 38.2228L126.455 0.870761L124.565 0.216248L111.629 37.5683L113.519 38.2228ZM125.51 1.5435H140.518V-0.456495H125.51V1.5435ZM139.576 0.879573L152.904 38.2316L154.788 37.5594L141.46 0.207437L139.576 0.879573ZM153.846 36.8955H139.454V38.8955H153.846V36.8955ZM140.421 37.6393L139.189 32.9913L137.256 33.5037L138.488 38.1517L140.421 37.6393ZM135.109 17.0066C134.782 15.5926 134.564 14.2278 134.398 12.9075L132.414 13.1555C132.585 14.5232 132.814 15.9584 133.16 17.4564L135.109 17.0066ZM133.406 12.0315H132.902V14.0315H133.406V12.0315ZM131.903 12.9958C131.85 14.4794 131.639 15.6969 131.316 16.989L133.256 17.474C133.605 16.0781 133.843 14.7196 133.902 13.0672L131.903 12.9958ZM131.318 16.9819L129.47 24.1499L131.407 24.6492L133.255 17.4812L131.318 16.9819ZM130.438 25.3995H135.87V23.3995H130.438V25.3995ZM136.842 24.1641L135.106 16.9961L133.162 17.4669L134.898 24.6349L136.842 24.1641Z" fill="#333333" mask="url(#path-1-inside-1_0_4057)"/>
</svg>
