<svg width="95" height="112" viewBox="0 0 95 112" fill="none" xmlns="http://www.w3.org/2000/svg">
<g filter="url(#filter0_d_0_85)">
<circle cx="47.9751" cy="63" r="45" fill="#6FBADA"/>
<rect x="15.9751" width="64" height="34" rx="17" fill="white"/>
<path d="M69.6268 61.5387L66.8077 61.0181C66.4481 60.9521 66.1063 60.7979 65.8073 60.5667C65.5082 60.3354 65.2595 60.033 65.0792 59.6815L61.1859 52.1216C60.5402 50.8709 59.6088 49.8312 58.4855 49.1076C57.3622 48.384 56.0867 48.0019 54.7878 48H41.1026C39.8038 48.0018 38.5284 48.3837 37.4051 49.1072C36.2818 49.8307 35.3503 50.8701 34.7046 52.1207L30.7335 59.8323C30.5683 60.1512 30.347 60.43 30.0826 60.652C29.8183 60.874 29.5164 61.0346 29.195 61.1244L26.4815 61.8767C25.8059 62.0644 25.1848 62.4408 24.6773 62.9701C24.1698 63.4994 23.7928 64.164 23.5822 64.9007C23.5732 64.9243 23.5724 64.9525 23.565 64.977C23.4464 65.4005 23.3846 65.8411 23.3816 66.2846V72.5333C23.3829 73.7378 23.8146 74.8925 24.5821 75.7442C25.3496 76.5959 26.3901 77.075 27.4755 77.0765H30.4928C30.9558 78.1636 31.6877 79.0824 32.6031 79.7259C33.5185 80.3693 34.5798 80.7109 35.6634 80.7109C36.747 80.7109 37.8083 80.3693 38.7237 79.7259C39.6391 79.0824 40.371 78.1636 40.8341 77.0765H58.3316C58.7947 78.1636 59.5265 79.0824 60.4419 79.7259C61.3573 80.3693 62.4186 80.7109 63.5022 80.7109C64.5858 80.7109 65.6471 80.3693 66.5625 79.7259C67.4779 79.0824 68.2098 78.1636 68.6729 77.0765H71.6901C72.7755 77.075 73.816 76.5959 74.5835 75.7442C75.351 74.8925 75.7827 73.7378 75.784 72.5333V69.6047C75.7884 67.6677 75.1712 65.7923 74.043 64.3143C72.9147 62.8363 71.3492 61.8524 69.6268 61.5387ZM73.2409 66.1728C73.5647 66.733 73.8071 67.3462 73.959 67.9901H73.3277C72.6781 67.9899 72.0549 67.7051 71.5935 67.1977C71.3341 66.9077 71.1356 66.5577 71.0121 66.1728H73.2409ZM25.0273 66.1728H26.4267L26.0173 67.9901H25.0192V66.2846C25.0192 66.2464 25.0265 66.21 25.0273 66.1728ZM35.6634 78.8937C34.8537 78.8937 34.0622 78.6273 33.3889 78.1281C32.7157 77.6289 32.191 76.9193 31.8811 76.0892C31.5712 75.259 31.4902 74.3455 31.6481 73.4642C31.8061 72.5829 32.196 71.7734 32.7685 71.138C33.3411 70.5026 34.0706 70.0699 34.8647 69.8946C35.6589 69.7193 36.482 69.8093 37.2301 70.1532C37.9782 70.497 38.6175 71.0794 39.0674 71.8265C39.5172 72.5736 39.7573 73.452 39.7573 74.3505C39.756 75.555 39.3243 76.7098 38.5568 77.5615C37.7893 78.4132 36.7488 78.8923 35.6634 78.8937ZM63.5022 78.8937C62.6925 78.8937 61.901 78.6273 61.2277 78.1281C60.5545 77.6289 60.0298 76.9193 59.7199 76.0892C59.41 75.259 59.329 74.3455 59.4869 73.4642C59.6449 72.5829 60.0348 71.7734 60.6074 71.138C61.1799 70.5026 61.9094 70.0699 62.7035 69.8946C63.4977 69.7193 64.3208 69.8093 65.0689 70.1532C65.817 70.497 66.4564 71.0794 66.9062 71.8265C67.356 72.5736 67.5962 73.452 67.5962 74.3505C67.5949 75.555 67.1631 76.7098 66.3956 77.5615C65.6282 78.4132 64.5876 78.8923 63.5022 78.8937ZM71.6901 75.2592H69.1682C69.2927 74.3533 69.2393 73.4283 69.0118 72.5475C68.7842 71.6666 68.3878 70.8507 67.8498 70.1556C67.3117 69.4606 66.6447 68.9027 65.8943 68.5203C65.1439 68.1378 64.3279 67.9398 63.5022 67.9398C62.6765 67.9398 61.8605 68.1378 61.1101 68.5203C60.3598 68.9027 59.6927 69.4606 59.1547 70.1556C58.6166 70.8507 58.2202 71.6666 57.9926 72.5475C57.7651 73.4283 57.7117 74.3533 57.8362 75.2592H41.3294C41.4539 74.3533 41.4005 73.4283 41.173 72.5475C40.9454 71.6666 40.549 70.8507 40.011 70.1556C39.4729 69.4606 38.8058 68.9027 38.0555 68.5203C37.3051 68.1378 36.4891 67.9398 35.6634 67.9398C34.8377 67.9398 34.0217 68.1378 33.2713 68.5203C32.521 68.9027 31.8539 69.4606 31.3158 70.1556C30.7778 70.8507 30.3814 71.6666 30.1538 72.5475C29.9263 73.4283 29.8729 74.3533 29.9974 75.2592H27.4755C26.8241 75.2592 26.1993 74.972 25.7386 74.4608C25.2779 73.9496 25.0192 73.2562 25.0192 72.5333V69.8074H26.6567C26.8393 69.8073 27.0166 69.7397 27.1605 69.615C27.3044 69.4904 27.4066 69.316 27.451 69.1195L28.2697 65.485C28.3 65.351 28.3023 65.2111 28.2765 65.076C28.2508 64.9409 28.1976 64.814 28.121 64.7051C28.0444 64.5963 27.9465 64.5082 27.8347 64.4476C27.7228 64.387 27.6 64.3555 27.4755 64.3555H25.7471C26.0592 64.0078 26.4506 63.7606 26.8794 63.6404L29.5937 62.8872C30.129 62.7372 30.6315 62.4692 31.0715 62.0993C31.5115 61.7293 31.88 61.2649 32.1549 60.7337L36.126 53.0221C36.6284 52.0495 37.353 51.2411 38.2267 50.6784C39.1004 50.1157 40.0924 49.8187 41.1026 49.8173H54.7878C55.798 49.8187 56.79 50.1157 57.6638 50.6784C58.5375 51.2411 59.2621 52.0495 59.7644 53.0221L63.657 60.5819C63.9572 61.1682 64.3718 61.6727 64.8703 62.0583C65.3688 62.4439 65.9387 62.701 66.5383 62.8108L69.3574 63.3324C70.1817 63.4837 70.9663 63.8329 71.6565 64.3555H70.0525C69.8354 64.3555 69.6271 64.4512 69.4735 64.6216C69.32 64.792 69.2337 65.0232 69.2337 65.2642C69.2332 65.8609 69.3387 66.452 69.5443 67.0035C69.7498 67.5549 70.0514 68.056 70.4316 68.478C70.8119 68.9 71.2634 69.2346 71.7604 69.4627C72.2573 69.6908 72.7899 69.8079 73.3277 69.8074H74.1465V72.5333C74.1465 73.2562 73.8877 73.9496 73.427 74.4608C72.9664 74.972 72.3416 75.2592 71.6901 75.2592Z" fill="white"/>
<path d="M60.6017 56.6171C60.4898 56.4105 60.3086 56.2616 60.0978 56.2032C59.8871 56.1449 59.6641 56.1818 59.4779 56.3059C59.2917 56.43 59.1575 56.6312 59.1049 56.865C59.0523 57.0989 59.0856 57.3464 59.1974 57.553L60.4183 59.811H50.4012V52.5419H55.0969C55.521 52.5432 55.9376 52.6657 56.3066 52.8975C56.6756 53.1294 56.9846 53.4629 57.2037 53.8658L57.7228 54.8271C57.8346 55.0338 58.0159 55.1826 58.2266 55.241C58.4374 55.2994 58.6604 55.2624 58.8466 55.1383C59.0328 55.0142 59.167 54.8131 59.2195 54.5792C59.2721 54.3453 59.2389 54.0979 59.127 53.8912L58.6071 52.9299C58.242 52.2587 57.7272 51.7032 57.1124 51.3169C56.4976 50.9307 55.8034 50.7267 55.0969 50.7246H49.5824C49.3653 50.7246 49.157 50.8203 49.0034 50.9907C48.8499 51.1611 48.7636 51.3923 48.7636 51.6332V60.7196C48.7636 60.9606 48.8499 61.1917 49.0034 61.3621C49.157 61.5326 49.3653 61.6283 49.5824 61.6283H61.8642C62.0092 61.6283 62.1515 61.5855 62.2767 61.5045C62.4018 61.4235 62.5054 61.307 62.5767 61.167C62.6481 61.027 62.6847 60.8685 62.6828 60.7077C62.6809 60.5469 62.6406 60.3896 62.5659 60.2517L60.6017 56.6171Z" fill="white"/>
<path d="M46.3064 50.7246H40.7919C40.0854 50.7267 39.3912 50.9307 38.7764 51.3169C38.1616 51.7032 37.6468 52.2587 37.2817 52.9299L33.3229 60.2517C33.2482 60.3896 33.2079 60.5469 33.206 60.7077C33.2041 60.8685 33.2407 61.027 33.3121 61.167C33.3834 61.307 33.487 61.4235 33.6121 61.5045C33.7373 61.5855 33.8796 61.6283 34.0246 61.6283H46.3064C46.5235 61.6283 46.7318 61.5326 46.8854 61.3621C47.0389 61.1917 47.1252 60.9606 47.1252 60.7196V51.6332C47.1252 51.3923 47.0389 51.1611 46.8854 50.9907C46.7318 50.8203 46.5235 50.7246 46.3064 50.7246ZM45.4876 59.811H35.4705L38.6851 53.8658C38.9042 53.4629 39.2132 53.1294 39.5822 52.8975C39.9512 52.6657 40.3678 52.5432 40.7919 52.5419H45.4876V59.811Z" fill="white"/>
<path d="M51.22 62.5391H49.5824C49.3653 62.5391 49.157 62.6348 49.0034 62.8052C48.8499 62.9756 48.7636 63.2067 48.7636 63.4477C48.7636 63.6887 48.8499 63.9198 49.0034 64.0902C49.157 64.2606 49.3653 64.3563 49.5824 64.3563H51.22C51.4371 64.3563 51.6454 64.2606 51.799 64.0902C51.9525 63.9198 52.0388 63.6887 52.0388 63.4477C52.0388 63.2067 51.9525 62.9756 51.799 62.8052C51.6454 62.6348 51.4371 62.5391 51.22 62.5391Z" fill="white"/>
<path d="M35.6623 62.5391H34.0247C33.8076 62.5391 33.5993 62.6348 33.4458 62.8052C33.2922 62.9756 33.2059 63.2067 33.2059 63.4477C33.2059 63.6887 33.2922 63.9198 33.4458 64.0902C33.5993 64.2606 33.8076 64.3563 34.0247 64.3563H35.6623C35.8795 64.3563 36.0877 64.2606 36.2413 64.0902C36.3948 63.9198 36.4811 63.6887 36.4811 63.4477C36.4811 63.2067 36.3948 62.9756 36.2413 62.8052C36.0877 62.6348 35.8795 62.5391 35.6623 62.5391Z" fill="white"/>
<path d="M63.5028 71.625C63.017 71.625 62.5421 71.7849 62.1381 72.0844C61.7342 72.3839 61.4193 72.8097 61.2334 73.3078C61.0475 73.8059 60.9988 74.3539 61.0936 74.8827C61.1884 75.4115 61.4224 75.8972 61.7659 76.2784C62.1094 76.6597 62.5471 76.9193 63.0236 77.0245C63.5001 77.1296 63.994 77.0757 64.4428 76.8693C64.8916 76.663 65.2753 76.3136 65.5452 75.8654C65.8151 75.4171 65.9592 74.8901 65.9592 74.3509C65.9592 73.628 65.7004 72.9346 65.2397 72.4234C64.779 71.9122 64.1543 71.625 63.5028 71.625ZM63.5028 75.2596C63.3409 75.2596 63.1825 75.2063 63.0479 75.1064C62.9132 75.0066 62.8083 74.8647 62.7463 74.6986C62.6844 74.5326 62.6681 74.3499 62.6997 74.1737C62.7313 73.9974 62.8093 73.8355 62.9238 73.7084C63.0383 73.5813 63.1842 73.4948 63.3431 73.4597C63.5019 73.4247 63.6665 73.4427 63.8161 73.5114C63.9657 73.5802 64.0936 73.6967 64.1836 73.8461C64.2736 73.9955 64.3216 74.1712 64.3216 74.3509C64.3216 74.5919 64.2353 74.823 64.0818 74.9934C63.9282 75.1638 63.7199 75.2596 63.5028 75.2596Z" fill="white"/>
<path d="M35.6623 71.625C35.1765 71.625 34.7016 71.7849 34.2976 72.0844C33.8937 72.3839 33.5788 72.8097 33.3929 73.3078C33.207 73.8059 33.1584 74.3539 33.2531 74.8827C33.3479 75.4115 33.5819 75.8972 33.9254 76.2784C34.2689 76.6597 34.7066 76.9193 35.1831 77.0245C35.6596 77.1296 36.1535 77.0757 36.6023 76.8693C37.0512 76.663 37.4348 76.3136 37.7047 75.8654C37.9746 75.4171 38.1187 74.8901 38.1187 74.3509C38.1187 73.628 37.8599 72.9346 37.3992 72.4234C36.9386 71.9122 36.3138 71.625 35.6623 71.625ZM35.6623 75.2596C35.5004 75.2596 35.3421 75.2063 35.2074 75.1064C35.0728 75.0066 34.9678 74.8647 34.9058 74.6986C34.8439 74.5326 34.8277 74.3499 34.8592 74.1737C34.8908 73.9974 34.9688 73.8355 35.0833 73.7084C35.1978 73.5813 35.3437 73.4948 35.5026 73.4597C35.6614 73.4247 35.826 73.4427 35.9756 73.5114C36.1253 73.5802 36.2531 73.6967 36.3431 73.8461C36.4331 73.9955 36.4811 74.1712 36.4811 74.3509C36.4811 74.5919 36.3948 74.823 36.2413 74.9934C36.0877 75.1638 35.8795 75.2596 35.6623 75.2596Z" fill="white"/>
</g>
<defs>
<filter id="filter0_d_0_85" x="0.975082" y="0" width="94" height="112" filterUnits="userSpaceOnUse" color-interpolation-filters="sRGB">
<feFlood flood-opacity="0" result="BackgroundImageFix"/>
<feColorMatrix in="SourceAlpha" type="matrix" values="0 0 0 0 0 0 0 0 0 0 0 0 0 0 0 0 0 0 127 0" result="hardAlpha"/>
<feOffset dy="2"/>
<feGaussianBlur stdDeviation="1"/>
<feComposite in2="hardAlpha" operator="out"/>
<feColorMatrix type="matrix" values="0 0 0 0 0.2 0 0 0 0 0.2 0 0 0 0 0.2 0 0 0 0.25 0"/>
<feBlend mode="normal" in2="BackgroundImageFix" result="effect1_dropShadow_0_85"/>
<feBlend mode="normal" in="SourceGraphic" in2="effect1_dropShadow_0_85" result="shape"/>
</filter>
</defs>
</svg>
