<svg width="191" height="105" viewBox="0 0 191 105" fill="none" xmlns="http://www.w3.org/2000/svg">
<g clip-path="url(#clip0_5_42)">
<path d="M194.01 32.7539H165.293L175.106 42.5674H196.999V35.7422C196.999 34.0907 195.66 32.7539 194.01 32.7539Z" fill="#CFE01A"/>
<path d="M126.706 32.7539H97.9883C96.3388 32.7539 95 34.0907 95 35.7422V42.5674H116.892L126.706 32.7539Z" fill="#CFE01A"/>
<path d="M139.387 73.9395H152.615V102.746H139.387V73.9395Z" fill="#CFE01A"/>
<path d="M145.999 48.332C144.117 48.332 142.586 49.8634 142.586 51.7454C142.586 53.6275 144.117 55.1589 145.999 55.1589C147.881 55.1589 149.413 53.6275 149.413 51.7454C149.413 49.8634 147.881 48.332 145.999 48.332Z" fill="#CFE01A"/>
<path d="M148.988 24.9023H143.012L119.368 48.5456H95V99.758C95 101.408 96.338 102.746 97.9883 102.746H133.409V70.951C133.409 69.3006 134.747 67.9627 136.398 67.9627H155.602C157.253 67.9627 158.591 69.3006 158.591 70.951V102.746H194.012C195.662 102.746 197 101.408 197 99.758V48.5456H172.632L148.988 24.9023ZM113.78 86.9548C113.78 88.6051 112.442 89.9431 110.791 89.9431C109.141 89.9431 107.803 88.6051 107.803 86.9548V80.5533C107.803 78.903 109.141 77.565 110.791 77.565C112.442 77.565 113.78 78.903 113.78 80.5533V86.9548ZM113.78 67.7501C113.78 69.4004 112.442 70.7384 110.791 70.7384C109.141 70.7384 107.803 69.4004 107.803 67.7501V61.3486C107.803 59.6983 109.141 58.3603 110.791 58.3603C112.442 58.3603 113.78 59.6983 113.78 61.3486V67.7501ZM126.583 86.9548C126.583 88.6051 125.245 89.9431 123.594 89.9431C121.944 89.9431 120.606 88.6051 120.606 86.9548V80.5533C120.606 78.903 121.944 77.565 123.594 77.565C125.245 77.565 126.583 78.903 126.583 80.5533V86.9548ZM126.583 67.7501C126.583 69.4004 125.245 70.7384 123.594 70.7384C121.944 70.7384 120.606 69.4004 120.606 67.7501V61.3486C120.606 59.6983 121.944 58.3603 123.594 58.3603C125.245 58.3603 126.583 59.6983 126.583 61.3486V67.7501ZM146 61.1362C140.823 61.1362 136.61 56.9238 136.61 51.7463C136.61 46.5688 140.823 42.3563 146 42.3563C151.177 42.3563 155.39 46.5688 155.39 51.7463C155.39 56.9238 151.177 61.1362 146 61.1362ZM171.394 86.9548C171.394 88.6051 170.056 89.9431 168.406 89.9431C166.755 89.9431 165.417 88.6051 165.417 86.9548V80.5533C165.417 78.903 166.755 77.565 168.406 77.565C170.056 77.565 171.394 78.903 171.394 80.5533V86.9548ZM171.394 67.7501C171.394 69.4004 170.056 70.7384 168.406 70.7384C166.755 70.7384 165.417 69.4004 165.417 67.7501V61.3486C165.417 59.6983 166.755 58.3603 168.406 58.3603C170.056 58.3603 171.394 59.6983 171.394 61.3486V67.7501ZM178.22 61.3486C178.22 59.6983 179.558 58.3603 181.209 58.3603C182.859 58.3603 184.197 59.6983 184.197 61.3486V67.7501C184.197 69.4004 182.859 70.7384 181.209 70.7384C179.558 70.7384 178.22 69.4004 178.22 67.7501V61.3486ZM178.22 80.5533C178.22 78.903 179.558 77.565 181.209 77.565C182.859 77.565 184.197 78.903 184.197 80.5533V86.955C184.197 88.6053 182.859 89.9433 181.209 89.9433C179.558 89.9433 178.22 88.6053 178.22 86.955V80.5533Z" fill="#CFE01A"/>
</g>
<path d="M50.064 94.1738C52.8958 94.1738 55.1914 96.4694 55.1914 99.3013C55.1914 102.133 52.8958 104.429 50.064 104.429C47.2335 104.426 44.9397 102.132 44.9366 99.3013C44.9366 96.4694 47.2322 94.1738 50.064 94.1738Z" fill="#CFE01A"/>
<path d="M2.03022 87.5895L7.74519 84.9808C7.93996 84.8944 8.10481 84.752 8.21899 84.572L13.1713 76.6778C14.0936 75.2054 15.7141 74.3173 17.4515 74.3322H37.5765C39.1477 74.3274 40.6315 75.0544 41.5905 76.2989L47.9593 84.6425C48.1017 84.8332 48.3035 84.9711 48.5329 85.0345L59.177 87.9472C60.6971 88.3704 61.7449 89.7597 61.7343 91.3376V95.23C61.7343 97.1678 60.2198 98.7794 58.2817 98.7794H57.3545C57.0812 95.1784 54.2194 92.3166 50.6183 92.0433C46.5926 91.7377 43.0813 94.7535 42.7757 98.7794H19.7273C19.454 95.1784 16.5922 92.3167 12.9912 92.0433C8.96539 91.7377 5.4541 94.7535 5.14857 98.7794H3.4535C1.51546 98.7794 0.000938416 97.1678 0.000938416 95.23V90.7866C-0.00998688 89.4145 0.784077 88.1635 2.03022 87.5895Z" fill="#CFE01A"/>
<path d="M12.4351 94.1738C15.2669 94.1738 17.5625 96.4694 17.5625 99.3013C17.5625 102.133 15.2669 104.429 12.4352 104.429C9.60477 104.426 7.31094 102.132 7.30766 99.3013C7.30766 96.4694 9.60341 94.1738 12.4351 94.1738Z" fill="#CFE01A"/>
<defs>
<clipPath id="clip0_5_42">
<rect width="102" height="102" fill="white" transform="translate(95 0.746094)"/>
</clipPath>
</defs>
</svg>
