<svg width="136" height="137" viewBox="0 0 136 137" fill="none" xmlns="http://www.w3.org/2000/svg">
<g clip-path="url(#clip0_0_4047)">
<path d="M48.0781 65.1768H32.1406C29.9383 65.1768 28.1562 66.9588 28.1562 69.1611V81.1143H24.1719V136.896H56.0469V81.1143H52.0625V69.1611C52.0625 66.9588 50.2804 65.1768 48.0781 65.1768ZM36.125 73.1455H44.0938V81.1143H36.125V73.1455Z" fill="white" fill-opacity="0.5"/>
<path d="M107.844 0.895508H83.9375C81.7352 0.895508 79.9531 2.67759 79.9531 4.87988V41.2705H64.0156C61.8133 41.2705 60.0312 43.0526 60.0312 45.2549V73.1455H71.9844C78.5756 73.1455 83.9375 78.5074 83.9375 85.0986V105.021H131.75V45.2549C131.75 43.0526 129.968 41.2705 127.766 41.2705H111.828V4.87988C111.828 2.67759 110.046 0.895508 107.844 0.895508ZM87.9219 8.86426H103.859V41.2705H87.9219V8.86426ZM115.812 61.1924C115.812 63.3947 114.03 65.1768 111.828 65.1768H107.844V69.1611C107.844 71.3634 106.062 73.1455 103.859 73.1455C101.657 73.1455 99.875 71.3634 99.875 69.1611V65.1768H79.9531C77.7508 65.1768 75.9688 63.3947 75.9688 61.1924C75.9688 58.9901 77.7508 57.208 79.9531 57.208H111.828C114.03 57.208 115.812 58.9901 115.812 61.1924Z" fill="white" fill-opacity="0.5"/>
<path d="M119.797 136.896C121.999 136.896 123.781 135.113 123.781 132.911V128.927H127.766C129.968 128.927 131.75 127.145 131.75 124.942V112.989H83.9375V128.927H115.812V132.911C115.812 135.113 117.595 136.896 119.797 136.896Z" fill="white" fill-opacity="0.5"/>
<path d="M64.0156 81.1143V136.896H71.9844C74.1867 136.896 75.9688 135.113 75.9688 132.911V85.0986C75.9688 82.8963 74.1867 81.1143 71.9844 81.1143H64.0156Z" fill="white" fill-opacity="0.5"/>
</g>
<defs>
<clipPath id="clip0_0_4047">
<rect width="136" height="136" fill="white" transform="translate(0 0.895508)"/>
</clipPath>
</defs>
</svg>
