<svg width="73" height="73" viewBox="0 0 73 73" fill="none" xmlns="http://www.w3.org/2000/svg">
<rect x="0.5" y="0.439941" width="72" height="72" rx="36" fill="#ECF491"/>
<path d="M54.333 53.539L51.6649 55.1549H39.9543L38.3961 52.8936C38.3961 49.1919 38.0985 48.3488 38.386 46.4336C38.4808 45.8105 37.5054 43.9073 38.042 43.5823C38.5895 43.2513 39.1528 42.9572 39.7142 42.697C39.7162 42.697 39.7181 42.696 39.7201 42.695C40.2063 42.4687 40.6906 42.2693 41.162 42.0908C43.0437 41.378 44.7158 41.0261 45.4353 40.8955C45.6824 40.8506 45.9354 40.8506 46.1835 40.8955C46.902 41.0261 48.5742 41.378 50.4559 42.0908C51.4738 42.4747 52.554 42.9642 53.5758 43.5823C54.1125 43.9073 52.9821 45.8105 53.0769 46.4336C53.3645 48.3488 54.333 49.8374 54.333 53.539Z" fill="#5766CB"/>
<path d="M39.72 42.6958C39.305 43.0468 39.0223 43.6379 38.9492 44.3048C38.7249 46.3675 38.2504 51.1679 38.2504 55.1557H36.1543C36.1543 51.454 38.0983 48.3495 38.3859 46.4344C38.4808 45.8113 37.5054 43.9081 38.0419 43.5831C38.5895 43.2521 39.1527 42.958 39.7141 42.6978C39.7161 42.6979 39.7181 42.6968 39.72 42.6958Z" fill="#3D4FC3"/>
<path d="M42.7646 46.5815C42.7646 46.5815 43.2844 47.5311 44.124 48.5489C44.5962 49.1213 45.1696 48.4675 45.8087 48.9262C46.4477 48.4675 47.021 49.1214 47.4932 48.5491C48.333 47.5313 48.8527 46.5815 48.8527 46.5815V42.6958H42.7646V46.5815Z" fill="#ECF4FF"/>
<path d="M47.4928 48.5469C47.0208 49.1194 46.4473 49.7133 45.8084 50.1722C45.1694 49.7133 44.596 49.1194 44.124 48.5469L45.8084 46.4146L47.4928 48.5469Z" fill="#D57080"/>
<path d="M42.7646 43.9627L45.8089 46.915L48.8531 43.9627L45.5559 41.8403" fill="#D57080"/>
<path d="M40.6826 50.1194C40.4207 51.2051 39.9543 53.3864 39.9543 55.1571H36.1543C36.1543 51.4554 36.7591 47 37.0468 45.0849C37.1416 44.4618 37.5054 43.9095 38.0419 43.5845C38.3888 43.765 38.6932 43.9813 38.9601 44.2225C40.2438 45.3859 40.6629 47.1396 40.7973 48.287C40.8694 48.9001 40.8279 49.5202 40.6826 50.1194Z" fill="#ECF4FF"/>
<path d="M55.4639 55.1564H51.6649C51.6649 53.3866 51.1981 51.2047 50.9361 50.1191C50.7914 49.5198 50.7498 48.9001 50.8215 48.2875C50.9836 46.9016 51.5618 44.63 53.5759 43.5845C54.1127 43.9094 54.4765 44.4612 54.5711 45.0851C54.859 47 55.4639 51.4555 55.4639 55.1564Z" fill="#ECF4FF"/>
<path d="M38.9601 44.2225C38.9561 44.2504 38.9521 44.2783 38.9492 44.3063C38.7249 46.3689 38.2504 51.1693 38.2504 55.1571H36.1543C36.1543 51.4554 36.7591 47 37.0468 45.0849C37.1416 44.4618 37.5054 43.9095 38.0419 43.5845C38.3888 43.7649 38.6932 43.9813 38.9601 44.2225Z" fill="#DDEAFB"/>
<path d="M50.4558 42.0907L48.8532 46.5806L45.809 43.6283L42.7647 46.5806L41.1621 42.0907C43.0434 41.3781 44.7159 41.0266 45.4349 40.896C45.6828 40.8504 45.9351 40.8504 46.183 40.896C46.9021 41.0266 48.5746 41.3781 50.4558 42.0907Z" fill="#DDEAFB"/>
<path d="M57.1757 29.2869L52.0177 35.184L40.4893 29.5258L33.6818 29.6234C33.6818 29.6234 30.2629 24.5807 31.2991 19.6521C32.3353 14.7247 38.6271 17.7111 38.6271 17.7111C38.6271 17.7111 42.0496 12.4399 46.5641 12.4399C53.2725 12.4399 56.0963 18.9059 59.1314 16.5917C59.1314 16.5917 63.1116 24.1817 57.1757 29.2869Z" fill="#9D6B6B"/>
<path d="M40.4893 29.5263L33.6818 29.624C33.6818 29.624 30.2629 24.5812 31.2991 19.6526C32.3353 14.7252 38.6271 17.7116 38.6271 17.7116C38.6271 17.7116 36.4695 21.3501 40.3797 24.254C41.6411 25.1898 41.3984 27.2145 40.4893 29.5263Z" fill="#8B5E5E"/>
<path d="M48.1197 37.4048V41.2984C48.1197 42.5857 47.0849 43.6296 45.8087 43.6296C44.5319 43.6296 43.4971 42.5857 43.4971 41.2984V37.4048H48.1197Z" fill="#FFDDCE"/>
<path d="M46.5643 43.5026C46.3279 43.5847 46.0739 43.6296 45.8097 43.6296C44.5329 43.6296 43.498 42.5857 43.498 41.2984V37.4048H45.0071V41.2984C45.0071 42.3198 45.6581 43.1876 46.5643 43.5026Z" fill="#FFCBBE"/>
<path d="M36.1535 34.1636C34.4871 34.1636 33.1362 32.8009 33.1362 31.1198C33.1362 30.8884 33.1618 30.6632 33.2103 30.4466C33.6017 28.6979 36.1535 28.9847 36.1535 30.7775H55.4639C55.4639 28.9847 58.0157 28.6979 58.4071 30.4466C58.4556 30.6632 58.4812 30.8885 58.4812 31.1198C58.4812 32.8009 57.1303 34.1636 55.4639 34.1636" fill="#FFCBBE"/>
<path d="M55.4463 32.8484C55.3072 32.8484 55.1665 32.8068 55.0434 32.7202C54.7255 32.4962 54.6492 32.0524 54.8711 31.7316C54.8962 31.6954 55.1265 31.3703 55.5019 31.0995C56.0756 30.6857 56.7186 30.5911 57.3119 30.8326C57.6717 30.979 57.8455 31.3917 57.7004 31.7545C57.5553 32.1173 57.146 32.2929 56.7865 32.1464C56.4246 31.999 56.0234 32.5414 56.0195 32.5469C55.8835 32.7437 55.6668 32.8484 55.4463 32.8484Z" fill="#EAAC9D"/>
<path d="M43.4971 37.4048H48.1197V40.9918H43.4971V37.4048Z" fill="#FFCBBE"/>
<path d="M55.464 27.1993V32.6564C55.464 36.5774 52.3134 39.7556 48.4266 39.7556H43.1908C39.3039 39.7556 36.1533 36.5774 36.1533 32.6564V27.1993C38.6469 27.1993 40.6691 25.1605 40.6691 22.645C40.6691 22.645 40.7052 22.6791 40.7765 22.7415C41.5327 23.3996 46.2994 27.1993 55.464 27.1993Z" fill="#FFDDCE"/>
<path d="M47.814 39.7556H43.1908C39.3039 39.7556 36.1533 36.5774 36.1533 32.6564V27.1993C38.6469 27.1993 40.6691 25.1605 40.6691 22.645C40.6691 22.645 40.7052 22.6791 40.7765 22.7415V32.6564C40.7765 36.5774 43.9271 39.7556 47.814 39.7556Z" fill="#FFCBBE"/>
<path d="M52.1787 33.4452C53.0516 33.4452 53.7592 33.0112 53.7592 32.4758C53.7592 31.9404 53.0516 31.5063 52.1787 31.5063C51.3058 31.5063 50.5981 31.9404 50.5981 32.4758C50.5981 33.0112 51.3058 33.4452 52.1787 33.4452Z" fill="#EAAFA5"/>
<path d="M39.4399 33.4452C40.3128 33.4452 41.0204 33.0112 41.0204 32.4758C41.0204 31.9404 40.3128 31.5063 39.4399 31.5063C38.567 31.5063 37.8594 31.9404 37.8594 32.4758C37.8594 33.0112 38.567 33.4452 39.4399 33.4452Z" fill="#EAAFA5"/>
<path d="M45.8085 35.9179C45.1214 35.9179 44.4754 35.648 43.9895 35.1579C43.7001 34.8659 43.7001 34.3925 43.9896 34.1004C44.2789 33.8084 44.7483 33.8085 45.0379 34.1004C45.2437 34.3081 45.5173 34.4224 45.8085 34.4224C46.0996 34.4224 46.3733 34.308 46.5793 34.1003C46.8687 33.8083 47.338 33.8084 47.6275 34.1003C47.9169 34.3924 47.9169 34.8658 47.6274 35.1578C47.1416 35.648 46.4956 35.9179 45.8085 35.9179Z" fill="#D57080"/>
<path d="M24.9833 12.4399C31.8778 12.4399 37.4669 18.078 37.4669 25.0329V36.9856C37.4669 40.3635 35.3345 43.3665 32.1641 44.4535L24.9834 46.9154L17.8028 44.4535C14.6323 43.3665 12.5 40.3635 12.5 36.9856V25.0329C12.4999 18.078 18.0889 12.4399 24.9833 12.4399Z" fill="#E4936B"/>
<path d="M21.9415 44.4536L24.9835 46.9153L17.8034 44.4536C14.6329 43.3668 12.5 40.3633 12.5 36.9859V25.0329C12.5 18.078 18.089 12.4399 24.9834 12.4399C22.0628 12.4399 19.6949 18.078 19.6949 25.0329V36.9859C19.695 40.3633 20.5986 43.3668 21.9415 44.4536Z" fill="#E27D47"/>
<path d="M33.5078 53.539L30.8397 55.1549H19.1292L17.5709 52.8936C17.5709 49.1919 17.2733 48.3488 17.5608 46.4336C17.6556 45.8105 16.6802 43.9073 17.2168 43.5823C17.7643 43.2513 18.3276 42.9572 18.889 42.697C18.891 42.697 18.8929 42.696 18.8949 42.695C19.3811 42.4687 19.8654 42.2693 20.3368 42.0908C22.2185 41.378 23.8906 41.0261 24.6101 40.8955C24.8572 40.8506 25.1102 40.8506 25.3583 40.8955C26.0768 41.0261 27.749 41.378 29.6307 42.0908C30.6486 42.4747 31.7288 42.9642 32.7506 43.5823C33.2873 43.9073 32.1569 45.8105 32.2517 46.4336C32.5393 48.3488 33.5078 49.8374 33.5078 53.539Z" fill="#5766CB"/>
<path d="M18.8948 42.6958C18.4798 43.0468 18.1971 43.6379 18.124 44.3048C17.8997 46.3675 17.4252 51.1679 17.4252 55.1557H15.3291C15.3291 51.454 17.2731 48.3495 17.5607 46.4344C17.6556 45.8113 16.6802 43.9081 17.2167 43.5831C17.7643 43.2521 18.3275 42.958 18.8889 42.6978C18.8908 42.6978 18.8928 42.6967 18.8948 42.6958Z" fill="#3D4FC3"/>
<path d="M21.9399 46.5815C21.9399 46.5815 22.4597 47.5311 23.2993 48.5489C23.7715 49.1213 24.3449 48.4675 24.984 48.9262C25.623 48.4675 26.1963 49.1214 26.6684 48.5491C27.5083 47.5313 28.028 46.5815 28.028 46.5815V42.6958H21.9399V46.5815Z" fill="#ECF4FF"/>
<path d="M26.6676 48.5469C26.1956 49.1193 25.6221 49.7133 24.9832 50.1722C24.3442 49.7133 23.7708 49.1194 23.2988 48.5469L24.9832 46.4146L26.6676 48.5469Z" fill="#D57080"/>
<path d="M21.9399 43.9627L24.9841 46.915L28.0283 43.9627L24.7311 41.8403" fill="#D57080"/>
<path d="M19.8573 50.1194C19.5955 51.2051 19.129 53.3864 19.129 55.1571H15.3291C15.3291 51.4554 15.9339 47 16.2216 45.0849C16.3164 44.4618 16.6802 43.9095 17.2167 43.5845C17.5636 43.765 17.868 43.9813 18.1349 44.2225C19.4186 45.3859 19.8377 47.1396 19.9721 48.287C20.0442 48.9001 20.0026 49.5202 19.8573 50.1194Z" fill="#ECF4FF"/>
<path d="M34.6387 55.1564H30.8397C30.8397 53.3866 30.3729 51.2047 30.1109 50.1191C29.9662 49.5198 29.9246 48.9001 29.9963 48.2875C30.1584 46.9016 30.7366 44.63 32.7507 43.5845C33.2875 43.9094 33.6513 44.4612 33.7459 45.0851C34.0338 47 34.6387 51.4555 34.6387 55.1564Z" fill="#ECF4FF"/>
<path d="M18.1348 44.2225C18.1308 44.2504 18.1268 44.2783 18.1239 44.3063C17.8996 46.3689 17.4252 51.1693 17.4252 55.1571H15.3291C15.3291 51.4554 15.9339 47 16.2216 45.0849C16.3164 44.4618 16.6802 43.9095 17.2167 43.5845C17.5635 43.7649 17.868 43.9813 18.1348 44.2225Z" fill="#DDEAFB"/>
<path d="M29.6306 42.0907L28.028 46.5806L24.9838 43.6283L21.9395 46.5806L20.3369 42.0907C22.2182 41.3781 23.8907 41.0266 24.6097 40.896C24.8577 40.8504 25.1099 40.8504 25.3578 40.896C26.077 41.0266 27.7495 41.3781 29.6306 42.0907Z" fill="#DDEAFB"/>
<path d="M27.295 37.4048V41.2984C27.295 42.5857 26.2602 43.6296 24.984 43.6296C23.7072 43.6296 22.6724 42.5857 22.6724 41.2984V37.4048H27.295Z" fill="#FFDDCE"/>
<path d="M25.7391 43.5026C25.5027 43.5847 25.2487 43.6296 24.9845 43.6296C23.7077 43.6296 22.6729 42.5857 22.6729 41.2984V37.4048H24.1819V41.2984C24.182 42.3197 24.8329 43.1876 25.7391 43.5026Z" fill="#FFCBBE"/>
<path d="M22.6724 37.4048H27.295V40.9918H22.6724V37.4048Z" fill="#FFCBBE"/>
<path d="M34.6385 27.3075V32.6575C34.6385 36.5777 31.4881 39.7564 27.6013 39.7564H22.3653C18.4792 39.7564 15.3281 36.5784 15.3281 32.6575V27.3685C16.5264 27.3335 18.1753 27.1272 19.9515 26.7631C23.5915 26.0167 27.7697 24.6059 29.7134 22.645C29.7133 22.645 31.6362 26.6088 34.6385 27.3075Z" fill="#FFDDCE"/>
<path d="M26.9887 39.7575H22.3653C18.4792 39.7575 15.3281 36.5794 15.3281 32.6586V27.3696C16.5264 27.3345 18.1753 27.1283 19.9515 26.7642V32.6586C19.9515 36.5788 23.1018 39.7575 26.9887 39.7575Z" fill="#FFCBBE"/>
<path d="M30.6718 34.1308C31.5448 34.1308 32.2524 33.6967 32.2524 33.1613C32.2524 32.6259 31.5448 32.1919 30.6718 32.1919C29.7989 32.1919 29.0913 32.6259 29.0913 33.1613C29.0913 33.6967 29.7989 34.1308 30.6718 34.1308Z" fill="#EAAFA5"/>
<path d="M19.2968 34.1308C20.1698 34.1308 20.8774 33.6967 20.8774 33.1613C20.8774 32.6259 20.1698 32.1919 19.2968 32.1919C18.4239 32.1919 17.7163 32.6259 17.7163 33.1613C17.7163 33.6967 18.4239 34.1308 19.2968 34.1308Z" fill="#EAAFA5"/>
<path d="M41.2813 27.8813C40.777 27.8813 40.3667 28.5673 40.3667 29.4106C40.3667 30.2538 40.777 30.9398 41.2813 30.9398C41.7855 30.9398 42.1957 30.2538 42.1957 29.4106C42.1957 28.5673 41.7855 27.8813 41.2813 27.8813Z" fill="#2B4D66"/>
<path d="M50.3363 30.9398C50.8414 30.9398 51.2508 30.2552 51.2508 29.4106C51.2508 28.566 50.8414 27.8813 50.3363 27.8813C49.8313 27.8813 49.4219 28.566 49.4219 29.4106C49.4219 30.2552 49.8313 30.9398 50.3363 30.9398Z" fill="#2B4D66"/>
<path d="M20.6084 28.6567C20.5768 28.6567 19.5142 28.6649 19.4692 28.6651C19.168 28.6651 18.9229 28.9123 18.9229 29.2163C18.9229 29.5201 19.168 29.7674 19.4692 29.7674H19.7184C19.6941 29.9072 19.6817 30.0521 19.6817 30.1984C19.6817 31.0485 20.0975 31.7401 20.6085 31.7401C21.1196 31.7401 21.5354 31.0486 21.5354 30.1984C21.5354 29.3483 21.1195 28.6567 20.6084 28.6567Z" fill="#2B4D66"/>
<path d="M30.4975 28.6651C30.4475 28.6648 29.3203 28.6567 29.2886 28.6567C28.7775 28.6567 28.3618 29.3483 28.3618 30.1984C28.3618 31.0486 28.7776 31.7401 29.2886 31.7401C29.7997 31.7401 30.2155 31.0486 30.2155 30.1984C30.2155 30.0521 30.2031 29.9072 30.1788 29.7674H30.4975C30.7987 29.7674 31.0438 29.5202 31.0438 29.2163C31.0437 28.9124 30.7987 28.6652 30.4975 28.6651Z" fill="#2B4D66"/>
<path d="M24.9837 35.9302C24.3207 35.9302 23.6975 35.6698 23.2288 35.1969C22.9394 34.9049 22.9394 34.4315 23.2289 34.1394C23.5184 33.8474 23.9876 33.8475 24.2771 34.1394C24.4659 34.3298 24.7168 34.4348 24.9838 34.4348C25.2508 34.4348 25.5018 34.3299 25.6906 34.1394C25.98 33.8474 26.4494 33.8474 26.7389 34.1394C27.0284 34.4315 27.0284 34.9049 26.7389 35.1969C26.2699 35.6698 25.6467 35.9302 24.9837 35.9302Z" fill="#D57080"/>
<path d="M15.5098 55.1157H56.2479V60.4403H15.5098V55.1157Z" fill="#8B5E5E"/>
<path d="M57.3678 56.1788H14.3902C13.8017 56.1788 13.3247 55.6975 13.3247 55.1039V53.7374C13.3247 53.1438 13.8017 52.6626 14.3902 52.6626H57.3678C57.9562 52.6626 58.4333 53.1438 58.4333 53.7374V55.1039C58.4333 55.6975 57.9562 56.1788 57.3678 56.1788Z" fill="#9D6B6B"/>
<path d="M16.4487 56.1789H14.3901C13.802 56.1789 13.3247 55.6974 13.3247 55.1032V53.7373C13.3247 53.1432 13.802 52.6626 14.3901 52.6626H16.4487C15.8607 52.6626 15.3833 53.1432 15.3833 53.7373V55.1032C15.3833 55.6973 15.8606 56.1789 16.4487 56.1789Z" fill="#8B5E5E"/>
</svg>
