<svg width="263" height="40" viewBox="0 0 263 40" fill="none" xmlns="http://www.w3.org/2000/svg">
<mask id="path-1-inside-1_0_6425" fill="white">
<path d="M29.9329 3.99545L26.2929 13.5155C24.6689 12.3955 21.7009 10.7155 18.6769 10.7155C17.9489 10.7155 16.8289 10.8275 16.1009 11.3875C15.5969 11.7795 15.4289 12.1715 15.4289 12.7315C15.4289 13.5155 15.5409 14.2435 17.6129 14.6915L21.9249 15.6435C25.2289 16.3715 27.1889 17.7155 28.3089 18.8355C30.6609 21.1315 31.1649 23.9875 31.1649 26.2275C31.1649 29.4195 30.3249 32.3875 27.8049 35.0195C25.6769 37.2035 21.6449 39.7795 14.6449 39.7795C8.93291 39.7795 5.12491 38.1555 1.93291 36.8675L0.700906 36.3635L4.78891 25.8355L6.24491 26.9555C7.64491 28.0195 10.5009 29.6995 13.8049 29.6995C15.6529 29.6995 16.4369 29.2515 16.7169 29.0275C17.3329 28.5235 17.4449 27.9075 17.4449 27.3475C17.4449 27.0115 17.3889 26.4515 16.9969 26.0595C16.5489 25.6115 15.8209 25.4435 14.4209 25.1635L11.1169 24.5475C8.98891 24.1555 6.69291 23.4835 4.62091 21.3555C2.71691 19.3955 1.93291 17.1555 1.93291 14.4675C1.93291 10.9955 3.10891 8.02745 5.57291 5.56345C8.42891 2.65145 12.6289 0.747451 18.5649 0.747451C21.5329 0.747451 25.3969 1.25145 29.9329 3.99545ZM36.9981 25.4435V1.58745H50.4381V23.2595C50.4381 24.3795 50.5501 25.9475 51.6141 27.0675C52.3421 27.8515 53.2381 28.0755 54.3021 28.0755C55.7021 28.0755 56.5421 27.6835 57.0461 27.1795C58.0541 26.1715 58.0541 24.2115 58.0541 23.2595V1.58745H71.5501V24.4915C71.5501 27.4035 70.9901 31.6595 67.6301 35.1315C63.8221 39.0515 58.4461 39.7795 54.3021 39.7795C50.8861 39.7795 44.6701 39.4435 40.4141 34.8515C37.5021 31.7155 36.9981 28.1875 36.9981 25.4435ZM92.2688 38.9395H79.0528V1.58745H96.9728C102.909 1.58745 106.325 3.99545 107.893 5.50745C110.973 8.53145 111.701 12.3395 111.701 15.3075C111.701 18.3875 111.029 21.9155 108.005 24.6595C105.037 27.3475 101.677 27.6835 98.8208 27.6835H92.2688V38.9395ZM92.2688 11.8355V18.2755H94.5648C95.2368 18.2755 96.6368 18.2195 97.5888 17.2675C98.0928 16.8195 98.4848 16.0915 98.4848 14.9715C98.4848 13.7955 97.9808 13.0675 97.4768 12.6755C96.8608 12.1715 95.7408 11.8355 94.7328 11.8355H92.2688ZM129.62 38.9395H116.404V1.58745H134.324C140.26 1.58745 143.676 3.99545 145.244 5.50745C148.324 8.53145 149.052 12.3395 149.052 15.3075C149.052 18.3875 148.38 21.9155 145.356 24.6595C142.388 27.3475 139.028 27.6835 136.172 27.6835H129.62V38.9395ZM129.62 11.8355V18.2755H131.916C132.588 18.2755 133.988 18.2195 134.94 17.2675C135.444 16.8195 135.836 16.0915 135.836 14.9715C135.836 13.7955 135.332 13.0675 134.828 12.6755C134.212 12.1715 133.092 11.8355 132.084 11.8355H129.62ZM193.516 20.2355C193.516 26.2275 191.22 30.8195 188.308 33.7875C185.116 37.0355 179.908 39.7795 172.796 39.7795C165.684 39.7795 160.476 37.0355 157.284 33.7875C154.372 30.8195 152.076 26.2275 152.076 20.2355C152.076 14.2995 154.372 9.70745 157.284 6.73945C160.476 3.49145 165.684 0.747451 172.796 0.747451C179.908 0.747451 185.116 3.49145 188.308 6.73945C191.22 9.70745 193.516 14.2995 193.516 20.2355ZM172.796 12.7875C170.388 12.7875 168.82 13.7395 167.924 14.6915C166.58 16.0915 165.796 18.2755 165.796 20.2915C165.796 22.4195 166.58 24.4915 167.924 25.8355C169.044 26.9555 170.724 27.7395 172.796 27.7395C174.868 27.7395 176.548 26.9555 177.668 25.8355C178.9 24.6035 179.796 22.6435 179.796 20.2915C179.796 17.9395 179.012 15.9795 177.668 14.6915C176.66 13.6835 175.036 12.7875 172.796 12.7875ZM212.581 38.9395H199.365V1.58745H216.221C220.141 1.58745 224.229 2.03545 227.645 5.45145C229.549 7.35545 231.173 10.2115 231.173 14.6355C231.173 17.9395 230.165 20.0115 229.101 21.2995C227.981 22.6995 226.133 23.8195 223.949 24.2675V24.6035C224.677 24.9955 225.405 25.5555 225.909 26.3395L234.309 38.9395H218.685L213.309 28.0195C213.141 27.6275 212.973 27.4595 212.805 26.8435L212.581 26.9555V38.9395ZM212.581 11.8355V18.2195H214.149C214.933 18.2195 216.165 18.1075 217.005 17.3795C217.453 16.9875 217.957 16.2595 217.957 15.0835C217.957 14.2435 217.733 13.4035 217.229 12.8435C216.781 12.3395 216.053 11.8355 214.933 11.8355H212.581ZM255.34 38.9395H242.012V13.4035L234.396 13.7395V1.58745H262.956V13.7395L255.34 13.4035V38.9395Z"/>
</mask>
<path d="M29.9329 3.99545L26.2929 13.5155C24.6689 12.3955 21.7009 10.7155 18.6769 10.7155C17.9489 10.7155 16.8289 10.8275 16.1009 11.3875C15.5969 11.7795 15.4289 12.1715 15.4289 12.7315C15.4289 13.5155 15.5409 14.2435 17.6129 14.6915L21.9249 15.6435C25.2289 16.3715 27.1889 17.7155 28.3089 18.8355C30.6609 21.1315 31.1649 23.9875 31.1649 26.2275C31.1649 29.4195 30.3249 32.3875 27.8049 35.0195C25.6769 37.2035 21.6449 39.7795 14.6449 39.7795C8.93291 39.7795 5.12491 38.1555 1.93291 36.8675L0.700906 36.3635L4.78891 25.8355L6.24491 26.9555C7.64491 28.0195 10.5009 29.6995 13.8049 29.6995C15.6529 29.6995 16.4369 29.2515 16.7169 29.0275C17.3329 28.5235 17.4449 27.9075 17.4449 27.3475C17.4449 27.0115 17.3889 26.4515 16.9969 26.0595C16.5489 25.6115 15.8209 25.4435 14.4209 25.1635L11.1169 24.5475C8.98891 24.1555 6.69291 23.4835 4.62091 21.3555C2.71691 19.3955 1.93291 17.1555 1.93291 14.4675C1.93291 10.9955 3.10891 8.02745 5.57291 5.56345C8.42891 2.65145 12.6289 0.747451 18.5649 0.747451C21.5329 0.747451 25.3969 1.25145 29.9329 3.99545ZM36.9981 25.4435V1.58745H50.4381V23.2595C50.4381 24.3795 50.5501 25.9475 51.6141 27.0675C52.3421 27.8515 53.2381 28.0755 54.3021 28.0755C55.7021 28.0755 56.5421 27.6835 57.0461 27.1795C58.0541 26.1715 58.0541 24.2115 58.0541 23.2595V1.58745H71.5501V24.4915C71.5501 27.4035 70.9901 31.6595 67.6301 35.1315C63.8221 39.0515 58.4461 39.7795 54.3021 39.7795C50.8861 39.7795 44.6701 39.4435 40.4141 34.8515C37.5021 31.7155 36.9981 28.1875 36.9981 25.4435ZM92.2688 38.9395H79.0528V1.58745H96.9728C102.909 1.58745 106.325 3.99545 107.893 5.50745C110.973 8.53145 111.701 12.3395 111.701 15.3075C111.701 18.3875 111.029 21.9155 108.005 24.6595C105.037 27.3475 101.677 27.6835 98.8208 27.6835H92.2688V38.9395ZM92.2688 11.8355V18.2755H94.5648C95.2368 18.2755 96.6368 18.2195 97.5888 17.2675C98.0928 16.8195 98.4848 16.0915 98.4848 14.9715C98.4848 13.7955 97.9808 13.0675 97.4768 12.6755C96.8608 12.1715 95.7408 11.8355 94.7328 11.8355H92.2688ZM129.62 38.9395H116.404V1.58745H134.324C140.26 1.58745 143.676 3.99545 145.244 5.50745C148.324 8.53145 149.052 12.3395 149.052 15.3075C149.052 18.3875 148.38 21.9155 145.356 24.6595C142.388 27.3475 139.028 27.6835 136.172 27.6835H129.62V38.9395ZM129.62 11.8355V18.2755H131.916C132.588 18.2755 133.988 18.2195 134.94 17.2675C135.444 16.8195 135.836 16.0915 135.836 14.9715C135.836 13.7955 135.332 13.0675 134.828 12.6755C134.212 12.1715 133.092 11.8355 132.084 11.8355H129.62ZM193.516 20.2355C193.516 26.2275 191.22 30.8195 188.308 33.7875C185.116 37.0355 179.908 39.7795 172.796 39.7795C165.684 39.7795 160.476 37.0355 157.284 33.7875C154.372 30.8195 152.076 26.2275 152.076 20.2355C152.076 14.2995 154.372 9.70745 157.284 6.73945C160.476 3.49145 165.684 0.747451 172.796 0.747451C179.908 0.747451 185.116 3.49145 188.308 6.73945C191.22 9.70745 193.516 14.2995 193.516 20.2355ZM172.796 12.7875C170.388 12.7875 168.82 13.7395 167.924 14.6915C166.58 16.0915 165.796 18.2755 165.796 20.2915C165.796 22.4195 166.58 24.4915 167.924 25.8355C169.044 26.9555 170.724 27.7395 172.796 27.7395C174.868 27.7395 176.548 26.9555 177.668 25.8355C178.9 24.6035 179.796 22.6435 179.796 20.2915C179.796 17.9395 179.012 15.9795 177.668 14.6915C176.66 13.6835 175.036 12.7875 172.796 12.7875ZM212.581 38.9395H199.365V1.58745H216.221C220.141 1.58745 224.229 2.03545 227.645 5.45145C229.549 7.35545 231.173 10.2115 231.173 14.6355C231.173 17.9395 230.165 20.0115 229.101 21.2995C227.981 22.6995 226.133 23.8195 223.949 24.2675V24.6035C224.677 24.9955 225.405 25.5555 225.909 26.3395L234.309 38.9395H218.685L213.309 28.0195C213.141 27.6275 212.973 27.4595 212.805 26.8435L212.581 26.9555V38.9395ZM212.581 11.8355V18.2195H214.149C214.933 18.2195 216.165 18.1075 217.005 17.3795C217.453 16.9875 217.957 16.2595 217.957 15.0835C217.957 14.2435 217.733 13.4035 217.229 12.8435C216.781 12.3395 216.053 11.8355 214.933 11.8355H212.581ZM255.34 38.9395H242.012V13.4035L234.396 13.7395V1.58745H262.956V13.7395L255.34 13.4035V38.9395Z" fill="white"/>
<path d="M29.9329 3.99545L30.867 4.35259C31.0397 3.90082 30.8643 3.39018 30.4505 3.13983L29.9329 3.99545ZM26.2929 13.5155L25.7252 14.3387C25.9777 14.5128 26.2963 14.5615 26.5893 14.4705C26.8823 14.3796 27.1174 14.1592 27.227 13.8726L26.2929 13.5155ZM16.1009 11.3875L15.4912 10.5948L15.487 10.5981L16.1009 11.3875ZM17.6129 14.6915L17.8285 13.715L17.8242 13.714L17.6129 14.6915ZM21.9249 15.6435L21.7093 16.6199L21.7097 16.62L21.9249 15.6435ZM28.3089 18.8355L27.6017 19.5426L27.6104 19.551L28.3089 18.8355ZM27.8049 35.0195L28.5212 35.7173L28.5272 35.711L27.8049 35.0195ZM1.93291 36.8675L1.55427 37.793L1.55871 37.7948L1.93291 36.8675ZM0.700906 36.3635L-0.231284 36.0015C-0.428662 36.5098 -0.182419 37.0825 0.322273 37.289L0.700906 36.3635ZM4.78891 25.8355L5.39862 25.0428C5.14892 24.8508 4.82331 24.7876 4.5199 24.8723C4.21649 24.9571 3.97074 25.1798 3.85672 25.4735L4.78891 25.8355ZM6.24491 26.9555L5.63519 27.7481L5.63982 27.7516L6.24491 26.9555ZM16.7169 29.0275L17.3416 29.8084L17.3501 29.8014L16.7169 29.0275ZM16.9969 26.0595L16.2898 26.7666L16.2898 26.7666L16.9969 26.0595ZM14.4209 25.1635L14.617 24.1828L14.6042 24.1804L14.4209 25.1635ZM11.1169 24.5475L11.3002 23.5644L11.2981 23.564L11.1169 24.5475ZM4.62091 21.3555L3.90363 22.0522L3.90444 22.0531L4.62091 21.3555ZM5.57291 5.56345L6.28005 6.27059L6.28684 6.26366L5.57291 5.56345ZM28.9989 3.63831L25.3589 13.1583L27.227 13.8726L30.867 4.35259L28.9989 3.63831ZM26.8606 12.6922C25.2007 11.5475 22.0193 9.71545 18.6769 9.71545V11.7155C21.3825 11.7155 24.1371 13.2434 25.7252 14.3387L26.8606 12.6922ZM18.6769 9.71545C18.2674 9.71545 17.7318 9.74646 17.1814 9.86322C16.6392 9.97822 16.0176 10.1899 15.4912 10.5948L16.7106 12.1801C16.9122 12.025 17.2146 11.9007 17.5964 11.8197C17.97 11.7404 18.3584 11.7155 18.6769 11.7155V9.71545ZM15.487 10.5981C15.1488 10.8611 14.8647 11.1703 14.6757 11.5609C14.4866 11.9519 14.4289 12.3497 14.4289 12.7315H16.4289C16.4289 12.5532 16.4553 12.475 16.4761 12.432C16.4971 12.3886 16.549 12.3058 16.7148 12.1768L15.487 10.5981ZM14.4289 12.7315C14.4289 13.1519 14.4455 13.8571 14.9835 14.4869C15.487 15.0763 16.2999 15.4307 17.4016 15.6689L17.8242 13.714C16.8539 13.5042 16.5748 13.2706 16.5043 13.188C16.4683 13.1458 16.4289 13.0951 16.4289 12.7315H14.4289ZM17.3973 15.6679L21.7093 16.6199L22.1405 14.667L17.8285 13.715L17.3973 15.6679ZM21.7097 16.62C24.8318 17.3079 26.6198 18.5606 27.6018 19.5426L29.016 18.1283C27.758 16.8703 25.626 15.435 22.1401 14.6669L21.7097 16.62ZM27.6104 19.551C29.6931 21.5842 30.1649 24.127 30.1649 26.2275H32.1649C32.1649 23.8479 31.6287 20.6787 29.0074 18.1199L27.6104 19.551ZM30.1649 26.2275C30.1649 29.2202 29.3877 31.9203 27.0826 34.3279L28.5272 35.711C31.2621 32.8546 32.1649 29.6187 32.1649 26.2275H30.1649ZM27.0887 34.3216C25.1447 36.3167 21.3692 38.7795 14.6449 38.7795V40.7795C21.9206 40.7795 26.2091 38.0902 28.5211 35.7173L27.0887 34.3216ZM14.6449 38.7795C9.14425 38.7795 5.49491 37.2264 2.3071 35.9401L1.55871 37.7948C4.75491 39.0845 8.72157 40.7795 14.6449 40.7795V38.7795ZM2.31154 35.9419L1.07954 35.4379L0.322273 37.289L1.55427 37.793L2.31154 35.9419ZM1.6331 36.7254L5.7211 26.1974L3.85672 25.4735L-0.231284 36.0015L1.6331 36.7254ZM4.1792 26.6281L5.6352 27.7481L6.85462 26.1628L5.39862 25.0428L4.1792 26.6281ZM5.63982 27.7516C7.11821 28.8752 10.1868 30.6995 13.8049 30.6995V28.6995C10.815 28.6995 8.17161 27.1637 6.84999 26.1593L5.63982 27.7516ZM13.8049 30.6995C15.8153 30.6995 16.8396 30.2099 17.3416 29.8083L16.0922 28.2466C16.0342 28.293 15.4905 28.6995 13.8049 28.6995V30.6995ZM17.3501 29.8014C18.2928 29.0301 18.4449 28.059 18.4449 27.3475H16.4449C16.4449 27.5653 16.4222 27.7299 16.3728 27.8649C16.3282 27.9868 16.2503 28.1171 16.0837 28.2535L17.3501 29.8014ZM18.4449 27.3475C18.4449 26.9561 18.3926 26.0409 17.704 25.3523L16.2898 26.7666C16.3311 26.8079 16.3725 26.8753 16.4031 26.9876C16.4344 27.1023 16.4449 27.2298 16.4449 27.3475H18.4449ZM17.704 25.3523C17.3235 24.9718 16.8627 24.7545 16.3724 24.5966C15.8951 24.4429 15.3047 24.3204 14.617 24.1829L14.2248 26.144C14.9371 26.2865 15.4107 26.388 15.7594 26.5003C16.0951 26.6084 16.2223 26.6991 16.2898 26.7666L17.704 25.3523ZM14.6042 24.1804L11.3002 23.5644L10.9336 25.5305L14.2376 26.1465L14.6042 24.1804ZM11.2981 23.564C9.25622 23.1879 7.19931 22.5701 5.33738 20.6578L3.90444 22.0531C6.1865 24.3968 8.7216 25.123 10.9357 25.5309L11.2981 23.564ZM5.33819 20.6587C3.63693 18.9074 2.93291 16.9277 2.93291 14.4675H0.932906C0.932906 17.3832 1.79688 19.8835 3.90363 22.0522L5.33819 20.6587ZM2.93291 14.4675C2.93291 11.25 4.01096 8.53961 6.28001 6.27056L4.8658 4.85635C2.20686 7.51529 0.932906 10.7409 0.932906 14.4675H2.93291ZM6.28684 6.26366C8.93029 3.56839 12.8604 1.74745 18.5649 1.74745V-0.252549C12.3974 -0.252549 7.92753 1.73452 4.85897 4.86324L6.28684 6.26366ZM18.5649 1.74745C21.395 1.74745 25.0696 2.22218 29.4153 4.85108L30.4505 3.13983C25.7242 0.280721 21.6709 -0.252549 18.5649 -0.252549V1.74745ZM36.9981 1.58745V0.58745C36.4458 0.58745 35.9981 1.03517 35.9981 1.58745H36.9981ZM50.4381 1.58745H51.4381C51.4381 1.03517 50.9904 0.58745 50.4381 0.58745V1.58745ZM51.6141 27.0675L52.3469 26.387L52.3391 26.3787L51.6141 27.0675ZM58.0541 1.58745V0.58745C57.5018 0.58745 57.0541 1.03517 57.0541 1.58745H58.0541ZM71.5501 1.58745H72.5501C72.5501 1.03517 72.1024 0.58745 71.5501 0.58745V1.58745ZM67.6301 35.1315L68.3474 35.8282L68.3487 35.8269L67.6301 35.1315ZM40.4141 34.8515L41.1475 34.1717L41.1469 34.171L40.4141 34.8515ZM37.9981 25.4435V1.58745H35.9981V25.4435H37.9981ZM36.9981 2.58745H50.4381V0.58745H36.9981V2.58745ZM49.4381 1.58745V23.2595H51.4381V1.58745H49.4381ZM49.4381 23.2595C49.4381 24.3911 49.5318 26.3275 50.8891 27.7562L52.3391 26.3787C51.5684 25.5674 51.4381 24.3678 51.4381 23.2595H49.4381ZM50.8813 27.7479C51.8704 28.8131 53.0871 29.0755 54.3021 29.0755V27.0755C53.3891 27.0755 52.8137 26.8898 52.3469 26.387L50.8813 27.7479ZM54.3021 29.0755C55.8945 29.0755 57.0158 28.6239 57.7532 27.8866L56.339 26.4723C56.0684 26.743 55.5097 27.0755 54.3021 27.0755V29.0755ZM57.7532 27.8866C58.4748 27.165 58.7749 26.1771 58.9137 25.3674C59.0559 24.5379 59.0541 23.7305 59.0541 23.2595H57.0541C57.0541 23.7404 57.0523 24.389 56.9425 25.0295C56.8293 25.6898 56.6254 26.1859 56.339 26.4723L57.7532 27.8866ZM59.0541 23.2595V1.58745H57.0541V23.2595H59.0541ZM58.0541 2.58745H71.5501V0.58745H58.0541V2.58745ZM70.5501 1.58745V24.4915H72.5501V1.58745H70.5501ZM70.5501 24.4915C70.5501 27.2917 70.0093 31.235 66.9115 34.436L68.3487 35.8269C71.9709 32.0839 72.5501 27.5152 72.5501 24.4915H70.5501ZM66.9128 34.4347C63.3967 38.0541 58.3739 38.7795 54.3021 38.7795V40.7795C58.5183 40.7795 64.2474 40.0488 68.3474 35.8282L66.9128 34.4347ZM54.3021 38.7795C50.8988 38.7795 45.0884 38.4237 41.1475 34.1717L39.6807 35.5312C44.2518 40.4632 50.8734 40.7795 54.3021 40.7795V38.7795ZM41.1469 34.171C38.4766 31.2953 37.9981 28.0611 37.9981 25.4435H35.9981C35.9981 28.3138 36.5276 32.1356 39.6813 35.5319L41.1469 34.171ZM92.2688 38.9395V39.9395C92.8211 39.9395 93.2688 39.4917 93.2688 38.9395H92.2688ZM79.0528 38.9395H78.0528C78.0528 39.4917 78.5005 39.9395 79.0528 39.9395V38.9395ZM79.0528 1.58745V0.58745C78.5005 0.58745 78.0528 1.03517 78.0528 1.58745H79.0528ZM107.893 5.50745L108.593 4.79386L108.587 4.78761L107.893 5.50745ZM108.005 24.6595L108.676 25.4007L108.677 25.4L108.005 24.6595ZM92.2688 27.6835V26.6835C91.7165 26.6835 91.2688 27.1312 91.2688 27.6835H92.2688ZM92.2688 11.8355V10.8355C91.7165 10.8355 91.2688 11.2832 91.2688 11.8355H92.2688ZM92.2688 18.2755H91.2688C91.2688 18.8277 91.7165 19.2755 92.2688 19.2755V18.2755ZM97.5888 17.2675L96.9244 16.52C96.9098 16.5331 96.8955 16.5465 96.8817 16.5603L97.5888 17.2675ZM97.4768 12.6755L96.8435 13.4494C96.8499 13.4546 96.8563 13.4598 96.8628 13.4648L97.4768 12.6755ZM92.2688 37.9395H79.0528V39.9395H92.2688V37.9395ZM80.0528 38.9395V1.58745H78.0528V38.9395H80.0528ZM79.0528 2.58745H96.9728V0.58745H79.0528V2.58745ZM96.9728 2.58745C102.606 2.58745 105.783 4.86174 107.199 6.2273L108.587 4.78761C106.867 3.12916 103.212 0.58745 96.9728 0.58745V2.58745ZM107.192 6.22102C110.01 8.98742 110.701 12.4889 110.701 15.3075H112.701C112.701 12.19 111.936 8.07548 108.593 4.79389L107.192 6.22102ZM110.701 15.3075C110.701 18.2498 110.061 21.4436 107.333 23.9189L108.677 25.4C111.997 22.3874 112.701 18.5251 112.701 15.3075H110.701ZM107.334 23.9182C104.646 26.352 101.601 26.6835 98.8208 26.6835V28.6835C101.752 28.6835 105.427 28.3429 108.676 25.4007L107.334 23.9182ZM98.8208 26.6835H92.2688V28.6835H98.8208V26.6835ZM91.2688 27.6835V38.9395H93.2688V27.6835H91.2688ZM91.2688 11.8355V18.2755H93.2688V11.8355H91.2688ZM92.2688 19.2755H94.5648V17.2755H92.2688V19.2755ZM94.5648 19.2755C95.2341 19.2755 97.0273 19.2432 98.2959 17.9746L96.8817 16.5603C96.2463 17.1958 95.2394 17.2755 94.5648 17.2755V19.2755ZM98.2531 18.0149C98.9914 17.3586 99.4848 16.3481 99.4848 14.9715H97.4848C97.4848 15.8348 97.1942 16.2803 96.9244 16.52L98.2531 18.0149ZM99.4848 14.9715C99.4848 13.474 98.8279 12.4595 98.0907 11.8861L96.8628 13.4648C97.1336 13.6754 97.4848 14.1169 97.4848 14.9715H99.4848ZM98.11 11.9015C97.2669 11.2116 95.9001 10.8355 94.7328 10.8355V12.8355C95.5815 12.8355 96.4547 13.1313 96.8435 13.4494L98.11 11.9015ZM94.7328 10.8355H92.2688V12.8355H94.7328V10.8355ZM129.62 38.9395V39.9395C130.173 39.9395 130.62 39.4917 130.62 38.9395H129.62ZM116.404 38.9395H115.404C115.404 39.4917 115.852 39.9395 116.404 39.9395V38.9395ZM116.404 1.58745V0.58745C115.852 0.58745 115.404 1.03517 115.404 1.58745H116.404ZM145.244 5.50745L145.945 4.79386L145.938 4.78761L145.244 5.50745ZM145.356 24.6595L146.028 25.4007L146.028 25.4L145.356 24.6595ZM129.62 27.6835V26.6835C129.068 26.6835 128.62 27.1312 128.62 27.6835H129.62ZM129.62 11.8355V10.8355C129.068 10.8355 128.62 11.2832 128.62 11.8355H129.62ZM129.62 18.2755H128.62C128.62 18.8277 129.068 19.2755 129.62 19.2755V18.2755ZM134.94 17.2675L134.276 16.52C134.261 16.5331 134.247 16.5465 134.233 16.5603L134.94 17.2675ZM134.828 12.6755L134.195 13.4494C134.201 13.4546 134.208 13.4598 134.214 13.4648L134.828 12.6755ZM129.62 37.9395H116.404V39.9395H129.62V37.9395ZM117.404 38.9395V1.58745H115.404V38.9395H117.404ZM116.404 2.58745H134.324V0.58745H116.404V2.58745ZM134.324 2.58745C139.957 2.58745 143.134 4.86174 144.55 6.2273L145.938 4.78761C144.219 3.12916 140.564 0.58745 134.324 0.58745V2.58745ZM144.544 6.22102C147.361 8.98742 148.052 12.4889 148.052 15.3075H150.052C150.052 12.19 149.287 8.07548 145.945 4.79389L144.544 6.22102ZM148.052 15.3075C148.052 18.2498 147.412 21.4436 144.684 23.9189L146.028 25.4C149.348 22.3874 150.052 18.5251 150.052 15.3075H148.052ZM144.685 23.9182C141.998 26.352 138.953 26.6835 136.172 26.6835V28.6835C139.104 28.6835 142.779 28.3429 146.028 25.4007L144.685 23.9182ZM136.172 26.6835H129.62V28.6835H136.172V26.6835ZM128.62 27.6835V38.9395H130.62V27.6835H128.62ZM128.62 11.8355V18.2755H130.62V11.8355H128.62ZM129.62 19.2755H131.916V17.2755H129.62V19.2755ZM131.916 19.2755C132.586 19.2755 134.379 19.2432 135.647 17.9746L134.233 16.5603C133.598 17.1958 132.591 17.2755 131.916 17.2755V19.2755ZM135.605 18.0149C136.343 17.3586 136.836 16.3481 136.836 14.9715H134.836C134.836 15.8348 134.546 16.2803 134.276 16.52L135.605 18.0149ZM136.836 14.9715C136.836 13.474 136.18 12.4595 135.442 11.8861L134.214 13.4648C134.485 13.6754 134.836 14.1169 134.836 14.9715H136.836ZM135.462 11.9015C134.618 11.2116 133.252 10.8355 132.084 10.8355V12.8355C132.933 12.8355 133.806 13.1313 134.195 13.4494L135.462 11.9015ZM132.084 10.8355H129.62V12.8355H132.084V10.8355ZM188.308 33.7875L189.021 34.4884L189.022 34.4878L188.308 33.7875ZM157.284 33.7875L156.57 34.4878L156.571 34.4884L157.284 33.7875ZM157.284 6.73945L156.571 6.03852L156.57 6.03911L157.284 6.73945ZM188.308 6.73945L189.022 6.03911L189.021 6.03852L188.308 6.73945ZM167.924 14.6915L168.645 15.384L168.652 15.3768L167.924 14.6915ZM167.924 25.8355L168.631 25.1283L168.631 25.1283L167.924 25.8355ZM177.668 25.8355L176.961 25.1283L176.961 25.1283L177.668 25.8355ZM177.668 14.6915L176.961 15.3986C176.966 15.4036 176.971 15.4085 176.976 15.4134L177.668 14.6915ZM192.516 20.2355C192.516 25.9595 190.327 30.3017 187.594 33.0871L189.022 34.4878C192.113 31.3372 194.516 26.4954 194.516 20.2355H192.516ZM187.595 33.0865C184.589 36.1452 179.637 38.7795 172.796 38.7795V40.7795C180.179 40.7795 185.643 37.9257 189.021 34.4884L187.595 33.0865ZM172.796 38.7795C165.955 38.7795 161.003 36.1452 157.997 33.0865L156.571 34.4884C159.949 37.9257 165.413 40.7795 172.796 40.7795V38.7795ZM157.998 33.0871C155.265 30.3017 153.076 25.9595 153.076 20.2355H151.076C151.076 26.4954 153.479 31.3372 156.57 34.4878L157.998 33.0871ZM153.076 20.2355C153.076 14.569 155.264 10.2263 157.998 7.43979L156.57 6.03911C153.48 9.18857 151.076 14.0299 151.076 20.2355H153.076ZM157.997 7.44038C161.003 4.38167 165.955 1.74745 172.796 1.74745V-0.252549C165.413 -0.252549 159.949 2.60124 156.571 6.03852L157.997 7.44038ZM172.796 1.74745C179.637 1.74745 184.589 4.38167 187.595 7.44038L189.021 6.03852C185.643 2.60124 180.179 -0.252549 172.796 -0.252549V1.74745ZM187.594 7.43979C190.328 10.2263 192.516 14.569 192.516 20.2355H194.516C194.516 14.0299 192.112 9.18857 189.022 6.03911L187.594 7.43979ZM172.796 11.7875C170.098 11.7875 168.271 12.8635 167.196 14.0061L168.652 15.3768C169.369 14.6154 170.677 13.7875 172.796 13.7875V11.7875ZM167.203 13.9989C165.656 15.6098 164.796 18.0536 164.796 20.2915H166.796C166.796 18.4973 167.504 16.5731 168.645 15.384L167.203 13.9989ZM164.796 20.2915C164.796 22.6437 165.658 24.9839 167.217 26.5426L168.631 25.1283C167.502 23.999 166.796 22.1952 166.796 20.2915H164.796ZM167.217 26.5426C168.528 27.8535 170.464 28.7395 172.796 28.7395V26.7395C170.984 26.7395 169.56 26.0574 168.631 25.1283L167.217 26.5426ZM172.796 28.7395C175.128 28.7395 177.064 27.8535 178.375 26.5426L176.961 25.1283C176.032 26.0574 174.608 26.7395 172.796 26.7395V28.7395ZM178.375 26.5426C179.804 25.1133 180.796 22.8946 180.796 20.2915H178.796C178.796 22.3923 177.996 24.0936 176.961 25.1283L178.375 26.5426ZM180.796 20.2915C180.796 17.7207 179.936 15.4803 178.36 13.9695L176.976 15.4134C178.087 16.4786 178.796 18.1582 178.796 20.2915H180.796ZM178.375 13.9843C177.194 12.8036 175.321 11.7875 172.796 11.7875V13.7875C174.75 13.7875 176.126 14.5633 176.961 15.3986L178.375 13.9843ZM212.581 38.9395V39.9395C213.134 39.9395 213.581 39.4917 213.581 38.9395H212.581ZM199.365 38.9395H198.365C198.365 39.4917 198.813 39.9395 199.365 39.9395V38.9395ZM199.365 1.58745V0.58745C198.813 0.58745 198.365 1.03517 198.365 1.58745H199.365ZM227.645 5.45145L228.352 4.74434L228.352 4.74434L227.645 5.45145ZM229.101 21.2995L228.33 20.6626C228.327 20.6666 228.324 20.6707 228.32 20.6748L229.101 21.2995ZM223.949 24.2675L223.748 23.2878C223.283 23.3833 222.949 23.7926 222.949 24.2675H223.949ZM223.949 24.6035H222.949C222.949 24.9713 223.151 25.3095 223.475 25.4839L223.949 24.6035ZM225.909 26.3395L225.068 26.8802C225.071 26.8849 225.074 26.8895 225.077 26.8942L225.909 26.3395ZM234.309 38.9395V39.9395C234.678 39.9395 235.017 39.7365 235.191 39.4113C235.365 39.0862 235.346 38.6916 235.141 38.3848L234.309 38.9395ZM218.685 38.9395L217.788 39.3811C217.956 39.723 218.304 39.9395 218.685 39.9395V38.9395ZM213.309 28.0195L212.39 28.4134C212.397 28.4295 212.404 28.4454 212.412 28.4611L213.309 28.0195ZM212.805 26.8435L213.77 26.5803C213.691 26.2913 213.487 26.0528 213.213 25.9305C212.94 25.8083 212.626 25.815 212.358 25.949L212.805 26.8435ZM212.581 26.9555L212.134 26.061C211.795 26.2304 211.581 26.5767 211.581 26.9555H212.581ZM212.581 11.8355V10.8355C212.029 10.8355 211.581 11.2832 211.581 11.8355H212.581ZM212.581 18.2195H211.581C211.581 18.7717 212.029 19.2195 212.581 19.2195V18.2195ZM217.005 17.3795L217.66 18.1351L217.664 18.132L217.005 17.3795ZM217.229 12.8435L216.482 13.5078L216.486 13.5124L217.229 12.8435ZM212.581 37.9395H199.365V39.9395H212.581V37.9395ZM200.365 38.9395V1.58745H198.365V38.9395H200.365ZM199.365 2.58745H216.221V0.58745H199.365V2.58745ZM216.221 2.58745C220.077 2.58745 223.815 3.03566 226.938 6.15856L228.352 4.74434C224.643 1.03524 220.206 0.58745 216.221 0.58745V2.58745ZM226.938 6.15856C228.667 7.88706 230.173 10.4932 230.173 14.6355H232.173C232.173 9.92969 230.432 6.82385 228.352 4.74434L226.938 6.15856ZM230.173 14.6355C230.173 17.7159 229.241 19.5606 228.33 20.6626L229.872 21.9363C231.09 20.4623 232.173 18.163 232.173 14.6355H230.173ZM228.32 20.6748C227.364 21.8702 225.733 22.8807 223.748 23.2878L224.15 25.2471C226.534 24.7582 228.598 23.5287 229.882 21.9241L228.32 20.6748ZM222.949 24.2675V24.6035H224.949V24.2675H222.949ZM223.475 25.4839C224.106 25.8236 224.683 26.2812 225.068 26.8802L226.75 25.7987C226.128 24.8297 225.249 24.1673 224.423 23.723L223.475 25.4839ZM225.077 26.8942L233.477 39.4942L235.141 38.3848L226.741 25.7848L225.077 26.8942ZM234.309 37.9395H218.685V39.9395H234.309V37.9395ZM219.582 38.4978L214.206 27.5778L212.412 28.4611L217.788 39.3811L219.582 38.4978ZM214.228 27.6255C214.132 27.3997 213.995 27.1541 213.952 27.0682C213.894 26.9538 213.835 26.8193 213.77 26.5803L211.841 27.1066C211.943 27.4836 212.052 27.7411 212.163 27.9627C212.288 28.2129 212.319 28.2472 212.39 28.4134L214.228 27.6255ZM212.358 25.949L212.134 26.061L213.028 27.8499L213.252 27.7379L212.358 25.949ZM211.581 26.9555V38.9395H213.581V26.9555H211.581ZM211.581 11.8355V18.2195H213.581V11.8355H211.581ZM212.581 19.2195H214.149V17.2195H212.581V19.2195ZM214.149 19.2195C214.961 19.2195 216.525 19.1194 217.66 18.1351L216.35 16.6238C215.806 17.0955 214.906 17.2195 214.149 17.2195V19.2195ZM217.664 18.132C218.303 17.5726 218.957 16.5803 218.957 15.0835H216.957C216.957 15.9386 216.603 16.4023 216.347 16.6269L217.664 18.132ZM218.957 15.0835C218.957 14.0998 218.7 12.9827 217.973 12.1745L216.486 13.5124C216.767 13.8243 216.957 14.3871 216.957 15.0835H218.957ZM217.977 12.1791C217.381 11.5091 216.397 10.8355 214.933 10.8355V12.8355C215.71 12.8355 216.181 13.1698 216.482 13.5078L217.977 12.1791ZM214.933 10.8355H212.581V12.8355H214.933V10.8355ZM255.34 38.9395V39.9395C255.892 39.9395 256.34 39.4917 256.34 38.9395H255.34ZM242.012 38.9395H241.012C241.012 39.4917 241.46 39.9395 242.012 39.9395V38.9395ZM242.012 13.4035H243.012C243.012 13.1306 242.9 12.8696 242.703 12.6809C242.506 12.4923 242.24 12.3924 241.968 12.4044L242.012 13.4035ZM234.396 13.7395H233.396C233.396 14.0123 233.507 14.2733 233.705 14.462C233.902 14.6506 234.167 14.7505 234.44 14.7385L234.396 13.7395ZM234.396 1.58745V0.58745C233.844 0.58745 233.396 1.03517 233.396 1.58745H234.396ZM262.956 1.58745H263.956C263.956 1.03517 263.508 0.58745 262.956 0.58745V1.58745ZM262.956 13.7395L262.912 14.7385C263.184 14.7505 263.45 14.6506 263.647 14.462C263.844 14.2733 263.956 14.0123 263.956 13.7395H262.956ZM255.34 13.4035L255.384 12.4044C255.111 12.3924 254.846 12.4923 254.649 12.6809C254.451 12.8696 254.34 13.1306 254.34 13.4035H255.34ZM255.34 37.9395H242.012V39.9395H255.34V37.9395ZM243.012 38.9395V13.4035H241.012V38.9395H243.012ZM241.968 12.4044L234.352 12.7404L234.44 14.7385L242.056 14.4025L241.968 12.4044ZM235.396 13.7395V1.58745H233.396V13.7395H235.396ZM234.396 2.58745H262.956V0.58745H234.396V2.58745ZM261.956 1.58745V13.7395H263.956V1.58745H261.956ZM263 12.7404L255.384 12.4044L255.296 14.4025L262.912 14.7385L263 12.7404ZM254.34 13.4035V38.9395H256.34V13.4035H254.34Z" fill="#333333" mask="url(#path-1-inside-1_0_6425)"/>
</svg>
