<svg width="161" height="164" viewBox="0 0 161 164" fill="none" xmlns="http://www.w3.org/2000/svg">
<g clip-path="url(#clip0_0_2195)">
<path d="M156.225 52.1362H110.333L126.015 67.8186H161V56.9116C161 54.2724 158.861 52.1362 156.225 52.1362Z" fill="#D6E816" fill-opacity="0.5"/>
<path d="M48.6669 52.1362H2.77539C0.139375 52.1362 -2 54.2724 -2 56.9116V67.8186H32.9845L48.6669 52.1362Z" fill="#D6E816" fill-opacity="0.5"/>
<path d="M68.9305 117.951H90.0695V163.985H68.9305V117.951Z" fill="#D6E816" fill-opacity="0.5"/>
<path d="M79.5 77.0305C76.4925 77.0305 74.0455 79.4777 74.0455 82.4853C74.0455 85.4928 76.4925 87.9401 79.5 87.9401C82.5075 87.9401 84.9548 85.4928 84.9548 82.4853C84.9548 79.4777 82.5075 77.0305 79.5 77.0305Z" fill="#D6E816" fill-opacity="0.5"/>
<path d="M84.2754 39.5876H74.7246L36.9417 77.3705H-2V159.21C-2 161.847 0.138101 163.985 2.77539 163.985H59.3797V113.175C59.3797 110.538 61.5178 108.4 64.1551 108.4H94.8449C97.4822 108.4 99.6203 110.538 99.6203 113.175V163.985H156.225C158.862 163.985 161 161.847 161 159.21V77.3705H122.058L84.2754 39.5876ZM28.0108 138.75C28.0108 141.387 25.8727 143.525 23.2354 143.525C20.5981 143.525 18.46 141.387 18.46 138.75V128.52C18.46 125.883 20.5981 123.745 23.2354 123.745C25.8727 123.745 28.0108 125.883 28.0108 128.52V138.75ZM28.0108 108.06C28.0108 110.697 25.8727 112.835 23.2354 112.835C20.5981 112.835 18.46 110.697 18.46 108.06V97.8302C18.46 95.1929 20.5981 93.0548 23.2354 93.0548C25.8727 93.0548 28.0108 95.1929 28.0108 97.8302V108.06ZM48.4705 138.75C48.4705 141.387 46.3324 143.525 43.6951 143.525C41.0578 143.525 38.9197 141.387 38.9197 138.75V128.52C38.9197 125.883 41.0578 123.745 43.6951 123.745C46.3324 123.745 48.4705 125.883 48.4705 128.52V138.75ZM48.4705 108.06C48.4705 110.697 46.3324 112.835 43.6951 112.835C41.0578 112.835 38.9197 110.697 38.9197 108.06V97.8302C38.9197 95.1929 41.0578 93.0548 43.6951 93.0548C46.3324 93.0548 48.4705 95.1929 48.4705 97.8302V108.06ZM79.5 97.4909C71.2262 97.4909 64.4948 90.7592 64.4948 82.4853C64.4948 74.2115 71.2262 67.4798 79.5 67.4798C87.7738 67.4798 94.5055 74.2115 94.5055 82.4853C94.5055 90.7592 87.7738 97.4909 79.5 97.4909ZM120.08 138.75C120.08 141.387 117.942 143.525 115.305 143.525C112.668 143.525 110.53 141.387 110.53 138.75V128.52C110.53 125.883 112.668 123.745 115.305 123.745C117.942 123.745 120.08 125.883 120.08 128.52V138.75ZM120.08 108.06C120.08 110.697 117.942 112.835 115.305 112.835C112.668 112.835 110.53 110.697 110.53 108.06V97.8302C110.53 95.1929 112.668 93.0548 115.305 93.0548C117.942 93.0548 120.08 95.1929 120.08 97.8302V108.06ZM130.989 97.8302C130.989 95.1929 133.127 93.0548 135.765 93.0548C138.402 93.0548 140.54 95.1929 140.54 97.8302V108.06C140.54 110.697 138.402 112.835 135.765 112.835C133.127 112.835 130.989 110.697 130.989 108.06V97.8302ZM130.989 128.52C130.989 125.883 133.127 123.745 135.765 123.745C138.402 123.745 140.54 125.883 140.54 128.52V138.75C140.54 141.388 138.402 143.526 135.765 143.526C133.127 143.526 130.989 141.388 130.989 138.75V128.52Z" fill="#D6E816" fill-opacity="0.5"/>
</g>
<defs>
<clipPath id="clip0_0_2195">
<rect width="163" height="163" fill="white" transform="translate(-2 0.985352)"/>
</clipPath>
</defs>
</svg>
