<svg width="97" height="61" viewBox="0 0 97 61" fill="none" xmlns="http://www.w3.org/2000/svg">
<g clip-path="url(#clip0_7_19143)">
<path d="M90.7942 1.41773C93.4 1.41773 95.5201 3.53767 95.5201 6.14363V54.6515C95.5201 57.2572 93.4002 59.3774 90.7942 59.3774H5.82893C3.22316 59.3774 1.10304 57.2574 1.10304 54.6515V6.14363C1.10304 3.53786 3.22297 1.41773 5.82893 1.41773H90.7942ZM90.7942 0.477295H5.82893C2.69953 0.477295 0.162598 3.01422 0.162598 6.14363V54.6515C0.162598 57.7811 2.69953 60.3178 5.82893 60.3178H90.7942C93.9238 60.3178 96.4605 57.7811 96.4605 54.6515V6.14363C96.4605 3.01422 93.9236 0.477295 90.7942 0.477295Z" fill="#005098"/>
<path d="M35.9028 42.403L39.9748 18.5H46.4918L42.4128 42.403H35.9028Z" fill="#005098"/>
<path d="M66.0461 19.0892C64.7558 18.6045 62.7326 18.085 60.2062 18.085C53.7687 18.085 49.2339 21.3265 49.1938 25.9734C49.1575 29.4071 52.4308 31.3246 54.9025 32.4675C57.4396 33.6394 58.2924 34.3867 58.2817 35.433C58.2634 37.0352 56.255 37.7659 54.3813 37.7659C51.775 37.7659 50.3897 37.4051 48.2498 36.5119L47.4113 36.1327L46.4965 41.4842C48.0166 42.1512 50.8306 42.729 53.7542 42.7579C60.6038 42.7579 65.0474 39.5539 65.0984 34.5906C65.1239 31.8733 63.3888 29.8045 59.6305 28.0974C57.3521 26.9911 55.9562 26.2538 55.9706 25.1337C55.9706 24.1404 57.1516 23.0779 59.7034 23.0779C61.8322 23.0443 63.3779 23.509 64.5772 23.9937L65.1642 24.2699L66.0461 19.0892ZM82.7526 18.5234H77.7183C76.1581 18.5234 74.9918 18.9488 74.3064 20.5055L64.6315 42.412H71.4738C71.4738 42.412 72.5893 39.4666 72.8444 38.8196C73.5918 38.8196 80.2372 38.8307 81.1885 38.8307C81.3817 39.6671 81.9796 42.412 81.9796 42.412H88.027L82.7526 18.5234ZM74.7183 33.9312C75.2577 32.5532 77.3139 27.2484 77.3139 27.2484C77.2774 27.3122 77.8498 25.8641 78.1778 24.9665L78.619 27.0278C78.619 27.0278 79.8657 32.7336 80.1279 33.9312H74.7183ZM30.4387 18.5178L24.0593 34.8188L23.3777 31.5071C22.1929 27.6867 18.4928 23.5493 14.3555 21.4788L20.1879 42.3846L27.0811 42.3756L37.339 18.5178H30.4387Z" fill="#005098"/>
<path d="M18.1428 18.5032H7.63335L7.55322 18.9999C15.726 20.9792 21.1356 25.7609 23.3776 31.507L21.0955 20.5208C20.7019 19.0071 19.5572 18.556 18.1428 18.5032Z" fill="#F6A500"/>
</g>
<defs>
<clipPath id="clip0_7_19143">
<rect width="97" height="60" fill="white" transform="translate(0 0.439941)"/>
</clipPath>
</defs>
</svg>
