<svg width="217" height="40" viewBox="0 0 217 40" fill="none" xmlns="http://www.w3.org/2000/svg">
<mask id="path-1-inside-1_0_2017" fill="white">
<path d="M29.2884 4.04135L25.6484 13.5614C24.0244 12.4413 21.0564 10.7614 18.0324 10.7614C17.3044 10.7614 16.1844 10.8733 15.4564 11.4334C14.9524 11.8254 14.7844 12.2174 14.7844 12.7774C14.7844 13.5614 14.8964 14.2894 16.9684 14.7373L21.2804 15.6894C24.5844 16.4174 26.5444 17.7614 27.6644 18.8814C30.0164 21.1774 30.5204 24.0334 30.5204 26.2734C30.5204 29.4654 29.6804 32.4334 27.1604 35.0654C25.0324 37.2494 21.0004 39.8254 14.0004 39.8254C8.28838 39.8254 4.48038 38.2014 1.28838 36.9134L0.056375 36.4094L4.14438 25.8814L5.60038 27.0014C7.00038 28.0654 9.85638 29.7454 13.1604 29.7454C15.0084 29.7454 15.7924 29.2974 16.0724 29.0734C16.6884 28.5694 16.8004 27.9534 16.8004 27.3934C16.8004 27.0574 16.7444 26.4974 16.3524 26.1054C15.9044 25.6574 15.1764 25.4894 13.7764 25.2094L10.4724 24.5934C8.34438 24.2014 6.04838 23.5294 3.97638 21.4014C2.07238 19.4414 1.28838 17.2013 1.28838 14.5134C1.28838 11.0414 2.46438 8.07335 4.92838 5.60935C7.78438 2.69735 11.9844 0.793349 17.9204 0.793349C20.8884 0.793349 24.7524 1.29735 29.2884 4.04135ZM61.8896 38.9854H36.3536V1.63335H61.5536V11.8814H49.9056V15.3534H60.4896V25.1534H49.9056V28.7374H61.8896V38.9854ZM89.5855 34.3374H79.2815L78.2735 38.9854H63.9375L76.8735 1.63335H91.8815L105.21 38.9854H90.8175L89.5855 34.3374ZM85.4975 18.3214C85.1615 16.8654 84.9375 15.4654 84.7695 14.1213H84.2655C84.2095 15.6894 83.9855 16.9774 83.6495 18.3214L81.8015 25.4894H87.2335L85.4975 18.3214ZM122.195 38.9854H108.979V1.63335H125.835C129.755 1.63335 133.843 2.08135 137.259 5.49735C139.163 7.40135 140.787 10.2574 140.787 14.6814C140.787 17.9853 139.779 20.0573 138.715 21.3454C137.595 22.7454 135.747 23.8654 133.563 24.3134V24.6494C134.291 25.0414 135.019 25.6014 135.523 26.3854L143.923 38.9854H128.299L122.923 28.0654C122.755 27.6734 122.587 27.5054 122.419 26.8894L122.195 27.0014V38.9854ZM122.195 11.8814V18.2654H123.763C124.547 18.2654 125.779 18.1534 126.619 17.4254C127.067 17.0334 127.571 16.3053 127.571 15.1293C127.571 14.2894 127.347 13.4493 126.843 12.8894C126.395 12.3854 125.667 11.8814 124.547 11.8814H122.195ZM176.119 24.3694L175.727 38.3134C172.199 39.6574 168.055 39.8254 166.319 39.8254C161.447 39.8254 156.239 38.0894 152.543 34.3934C149.015 30.9214 147.111 25.8814 147.111 20.6174C147.111 14.8494 149.295 9.92135 152.711 6.44935C155.343 3.81735 159.823 0.793349 166.823 0.793349C169.623 0.793349 172.759 1.24135 175.727 2.24935L176.119 16.4734C174.551 14.9054 171.639 12.7774 168.223 12.7774C166.095 12.7774 164.135 13.6174 162.791 15.0734C161.503 16.4734 160.831 18.4334 160.831 20.3934C160.831 22.4094 161.559 24.3694 163.015 25.7694C164.135 26.8334 165.871 27.8974 168.559 27.8974C172.367 27.8974 174.999 25.6014 176.119 24.3694ZM194.925 38.9854H181.877V1.63335H194.925V14.2894H203.213V1.63335H216.261V38.9854H203.213V25.9934H194.925V38.9854Z"/>
</mask>
<path d="M29.2884 4.04135L25.6484 13.5614C24.0244 12.4413 21.0564 10.7614 18.0324 10.7614C17.3044 10.7614 16.1844 10.8733 15.4564 11.4334C14.9524 11.8254 14.7844 12.2174 14.7844 12.7774C14.7844 13.5614 14.8964 14.2894 16.9684 14.7373L21.2804 15.6894C24.5844 16.4174 26.5444 17.7614 27.6644 18.8814C30.0164 21.1774 30.5204 24.0334 30.5204 26.2734C30.5204 29.4654 29.6804 32.4334 27.1604 35.0654C25.0324 37.2494 21.0004 39.8254 14.0004 39.8254C8.28838 39.8254 4.48038 38.2014 1.28838 36.9134L0.056375 36.4094L4.14438 25.8814L5.60038 27.0014C7.00038 28.0654 9.85638 29.7454 13.1604 29.7454C15.0084 29.7454 15.7924 29.2974 16.0724 29.0734C16.6884 28.5694 16.8004 27.9534 16.8004 27.3934C16.8004 27.0574 16.7444 26.4974 16.3524 26.1054C15.9044 25.6574 15.1764 25.4894 13.7764 25.2094L10.4724 24.5934C8.34438 24.2014 6.04838 23.5294 3.97638 21.4014C2.07238 19.4414 1.28838 17.2013 1.28838 14.5134C1.28838 11.0414 2.46438 8.07335 4.92838 5.60935C7.78438 2.69735 11.9844 0.793349 17.9204 0.793349C20.8884 0.793349 24.7524 1.29735 29.2884 4.04135ZM61.8896 38.9854H36.3536V1.63335H61.5536V11.8814H49.9056V15.3534H60.4896V25.1534H49.9056V28.7374H61.8896V38.9854ZM89.5855 34.3374H79.2815L78.2735 38.9854H63.9375L76.8735 1.63335H91.8815L105.21 38.9854H90.8175L89.5855 34.3374ZM85.4975 18.3214C85.1615 16.8654 84.9375 15.4654 84.7695 14.1213H84.2655C84.2095 15.6894 83.9855 16.9774 83.6495 18.3214L81.8015 25.4894H87.2335L85.4975 18.3214ZM122.195 38.9854H108.979V1.63335H125.835C129.755 1.63335 133.843 2.08135 137.259 5.49735C139.163 7.40135 140.787 10.2574 140.787 14.6814C140.787 17.9853 139.779 20.0573 138.715 21.3454C137.595 22.7454 135.747 23.8654 133.563 24.3134V24.6494C134.291 25.0414 135.019 25.6014 135.523 26.3854L143.923 38.9854H128.299L122.923 28.0654C122.755 27.6734 122.587 27.5054 122.419 26.8894L122.195 27.0014V38.9854ZM122.195 11.8814V18.2654H123.763C124.547 18.2654 125.779 18.1534 126.619 17.4254C127.067 17.0334 127.571 16.3053 127.571 15.1293C127.571 14.2894 127.347 13.4493 126.843 12.8894C126.395 12.3854 125.667 11.8814 124.547 11.8814H122.195ZM176.119 24.3694L175.727 38.3134C172.199 39.6574 168.055 39.8254 166.319 39.8254C161.447 39.8254 156.239 38.0894 152.543 34.3934C149.015 30.9214 147.111 25.8814 147.111 20.6174C147.111 14.8494 149.295 9.92135 152.711 6.44935C155.343 3.81735 159.823 0.793349 166.823 0.793349C169.623 0.793349 172.759 1.24135 175.727 2.24935L176.119 16.4734C174.551 14.9054 171.639 12.7774 168.223 12.7774C166.095 12.7774 164.135 13.6174 162.791 15.0734C161.503 16.4734 160.831 18.4334 160.831 20.3934C160.831 22.4094 161.559 24.3694 163.015 25.7694C164.135 26.8334 165.871 27.8974 168.559 27.8974C172.367 27.8974 174.999 25.6014 176.119 24.3694ZM194.925 38.9854H181.877V1.63335H194.925V14.2894H203.213V1.63335H216.261V38.9854H203.213V25.9934H194.925V38.9854Z" fill="white"/>
<path d="M29.2884 4.04135L30.2224 4.39849C30.3952 3.94672 30.2198 3.43607 29.806 3.18573L29.2884 4.04135ZM25.6484 13.5614L25.0806 14.3846C25.3332 14.5587 25.6518 14.6074 25.9448 14.5164C26.2378 14.4255 26.4729 14.2051 26.5824 13.9185L25.6484 13.5614ZM15.4564 11.4334L14.8467 10.6407L14.8424 10.644L15.4564 11.4334ZM16.9684 14.7373L17.184 13.7609L17.1797 13.7599L16.9684 14.7373ZM21.2804 15.6894L21.0648 16.6658L21.0652 16.6659L21.2804 15.6894ZM27.6644 18.8814L26.9572 19.5885L26.9658 19.5969L27.6644 18.8814ZM27.1604 35.0654L27.8766 35.7632L27.8827 35.7569L27.1604 35.0654ZM1.28838 36.9134L0.909738 37.8389L0.914181 37.8407L1.28838 36.9134ZM0.056375 36.4094L-0.875816 36.0474C-1.07319 36.5557 -0.826951 37.1284 -0.322258 37.3349L0.056375 36.4094ZM4.14438 25.8814L4.75409 25.0887C4.50439 24.8967 4.17878 24.8335 3.87537 24.9182C3.57196 25.003 3.32621 25.2257 3.21218 25.5194L4.14438 25.8814ZM5.60038 27.0014L4.99065 27.794L4.99529 27.7975L5.60038 27.0014ZM16.0724 29.0734L16.6971 29.8543L16.7056 29.8473L16.0724 29.0734ZM16.3524 26.1054L15.6453 26.8125L15.6453 26.8125L16.3524 26.1054ZM13.7764 25.2094L13.9725 24.2287L13.9597 24.2263L13.7764 25.2094ZM10.4724 24.5934L10.6557 23.6103L10.6535 23.6099L10.4724 24.5934ZM3.97638 21.4014L3.2591 22.0981L3.2599 22.099L3.97638 21.4014ZM4.92838 5.60935L5.63552 6.31649L5.64231 6.30956L4.92838 5.60935ZM28.3543 3.68421L24.7143 13.2042L26.5824 13.9185L30.2224 4.39849L28.3543 3.68421ZM26.2161 12.7381C24.5562 11.5934 21.3748 9.76135 18.0324 9.76135V11.7614C20.738 11.7614 23.4926 13.2893 25.0806 14.3846L26.2161 12.7381ZM18.0324 9.76135C17.6229 9.76135 17.0873 9.79236 16.5369 9.90912C15.9947 10.0241 15.3731 10.2358 14.8467 10.6407L16.0661 12.226C16.2677 12.0709 16.57 11.9466 16.9519 11.8656C17.3255 11.7863 17.7139 11.7614 18.0324 11.7614V9.76135ZM14.8424 10.644C14.5043 10.907 14.2202 11.2162 14.0312 11.6068C13.842 11.9978 13.7844 12.3956 13.7844 12.7774H15.7844C15.7844 12.5991 15.8107 12.5209 15.8315 12.4779C15.8526 12.4345 15.9045 12.3517 16.0703 12.2227L14.8424 10.644ZM13.7844 12.7774C13.7844 13.1977 13.801 13.903 14.339 14.5328C14.8425 15.1222 15.6553 15.4766 16.757 15.7148L17.1797 13.7599C16.2094 13.5501 15.9303 13.3165 15.8597 13.2339C15.8238 13.1917 15.7844 13.141 15.7844 12.7774H13.7844ZM16.7528 15.7138L21.0648 16.6658L21.496 14.7129L17.184 13.7609L16.7528 15.7138ZM21.0652 16.6659C24.1872 17.3538 25.9753 18.6065 26.9573 19.5885L28.3715 18.1742C27.1134 16.9162 24.9815 15.4809 21.4956 14.7128L21.0652 16.6659ZM26.9658 19.5969C29.0486 21.6301 29.5204 24.1729 29.5204 26.2734H31.5204C31.5204 23.8938 30.9841 20.7246 28.3629 18.1658L26.9658 19.5969ZM29.5204 26.2734C29.5204 29.2661 28.7432 31.9662 26.4381 34.3738L27.8827 35.7569C30.6176 32.9005 31.5204 29.6646 31.5204 26.2734H29.5204ZM26.4441 34.3675C24.5002 36.3626 20.7247 38.8254 14.0004 38.8254V40.8254C21.276 40.8254 25.5646 38.1361 27.8766 35.7632L26.4441 34.3675ZM14.0004 38.8254C8.49972 38.8254 4.85038 37.2723 1.66257 35.986L0.914181 37.8407C4.11037 39.1304 8.07704 40.8254 14.0004 40.8254V38.8254ZM1.66701 35.9878L0.435008 35.4838L-0.322258 37.3349L0.909742 37.8389L1.66701 35.9878ZM0.988566 36.7713L5.07657 26.2433L3.21218 25.5194L-0.875816 36.0474L0.988566 36.7713ZM3.53466 26.674L4.99066 27.794L6.21009 26.2087L4.75409 25.0887L3.53466 26.674ZM4.99529 27.7975C6.47367 28.9211 9.54229 30.7454 13.1604 30.7454V28.7454C10.1705 28.7454 7.52708 27.2096 6.20546 26.2052L4.99529 27.7975ZM13.1604 30.7454C15.1708 30.7454 16.1951 30.2558 16.6971 29.8542L15.4477 28.2925C15.3896 28.3389 14.846 28.7454 13.1604 28.7454V30.7454ZM16.7056 29.8473C17.6483 29.076 17.8004 28.1049 17.8004 27.3934H15.8004C15.8004 27.6112 15.7776 27.7758 15.7283 27.9108C15.6836 28.0327 15.6058 28.163 15.4391 28.2994L16.7056 29.8473ZM17.8004 27.3934C17.8004 27.002 17.748 26.0868 17.0595 25.3982L15.6453 26.8125C15.6866 26.8538 15.728 26.9212 15.7586 27.0335C15.7899 27.1482 15.8004 27.2757 15.8004 27.3934H17.8004ZM17.0595 25.3982C16.6789 25.0177 16.2182 24.8004 15.7279 24.6425C15.2505 24.4888 14.6602 24.3663 13.9725 24.2288L13.5803 26.1899C14.2926 26.3324 14.7662 26.4339 15.1148 26.5462C15.4506 26.6543 15.5778 26.745 15.6453 26.8125L17.0595 25.3982ZM13.9597 24.2263L10.6557 23.6103L10.2891 25.5764L13.5931 26.1924L13.9597 24.2263ZM10.6535 23.6099C8.61168 23.2338 6.55478 22.616 4.69285 20.7037L3.2599 22.099C5.54197 24.4427 8.07707 25.1689 10.2912 25.5768L10.6535 23.6099ZM4.69365 20.7046C2.9924 18.9533 2.28838 16.9736 2.28838 14.5134H0.288375C0.288375 17.4291 1.15235 19.9294 3.2591 22.0981L4.69365 20.7046ZM2.28838 14.5134C2.28838 11.2959 3.36643 8.58551 5.63548 6.31646L4.22127 4.90224C1.56233 7.56119 0.288375 10.7868 0.288375 14.5134H2.28838ZM5.64231 6.30956C8.28575 3.61429 12.2158 1.79335 17.9204 1.79335V-0.206651C11.7529 -0.206651 7.283 1.78042 4.21444 4.90914L5.64231 6.30956ZM17.9204 1.79335C20.7504 1.79335 24.4251 2.26808 28.7708 4.89697L29.806 3.18573C25.0797 0.32662 21.0263 -0.206651 17.9204 -0.206651V1.79335ZM61.8896 38.9854V39.9854C62.4418 39.9854 62.8896 39.5376 62.8896 38.9854H61.8896ZM36.3536 38.9854H35.3536C35.3536 39.5376 35.8013 39.9854 36.3536 39.9854V38.9854ZM36.3536 1.63335V0.633348C35.8013 0.633348 35.3536 1.08106 35.3536 1.63335H36.3536ZM61.5536 1.63335H62.5536C62.5536 1.08106 62.1058 0.633348 61.5536 0.633348V1.63335ZM61.5536 11.8814V12.8814C62.1058 12.8814 62.5536 12.4336 62.5536 11.8814H61.5536ZM49.9056 11.8814V10.8814C49.3533 10.8814 48.9056 11.3291 48.9056 11.8814H49.9056ZM49.9056 15.3534H48.9056C48.9056 15.9056 49.3533 16.3534 49.9056 16.3534V15.3534ZM60.4896 15.3534H61.4896C61.4896 14.8011 61.0418 14.3534 60.4896 14.3534V15.3534ZM60.4896 25.1534V26.1534C61.0418 26.1534 61.4896 25.7056 61.4896 25.1534H60.4896ZM49.9056 25.1534V24.1534C49.3533 24.1534 48.9056 24.6011 48.9056 25.1534H49.9056ZM49.9056 28.7374H48.9056C48.9056 29.2896 49.3533 29.7374 49.9056 29.7374V28.7374ZM61.8896 28.7374H62.8896C62.8896 28.1851 62.4418 27.7374 61.8896 27.7374V28.7374ZM61.8896 37.9854H36.3536V39.9854H61.8896V37.9854ZM37.3536 38.9854V1.63335H35.3536V38.9854H37.3536ZM36.3536 2.63335H61.5536V0.633348H36.3536V2.63335ZM60.5536 1.63335V11.8814H62.5536V1.63335H60.5536ZM61.5536 10.8814H49.9056V12.8814H61.5536V10.8814ZM48.9056 11.8814V15.3534H50.9056V11.8814H48.9056ZM49.9056 16.3534H60.4896V14.3534H49.9056V16.3534ZM59.4896 15.3534V25.1534H61.4896V15.3534H59.4896ZM60.4896 24.1534H49.9056V26.1534H60.4896V24.1534ZM48.9056 25.1534V28.7374H50.9056V25.1534H48.9056ZM49.9056 29.7374H61.8896V27.7374H49.9056V29.7374ZM60.8896 28.7374V38.9854H62.8896V28.7374H60.8896ZM89.5855 34.3374L90.5521 34.0811C90.4359 33.6427 90.0391 33.3374 89.5855 33.3374V34.3374ZM79.2815 34.3374V33.3374C78.8109 33.3374 78.404 33.6655 78.3042 34.1254L79.2815 34.3374ZM78.2735 38.9854V39.9854C78.7441 39.9854 79.151 39.6572 79.2508 39.1973L78.2735 38.9854ZM63.9375 38.9854L62.9926 38.6581C62.8867 38.9638 62.9352 39.3018 63.1229 39.5653C63.3105 39.8289 63.614 39.9854 63.9375 39.9854V38.9854ZM76.8735 1.63335V0.633348C76.4474 0.633348 76.068 0.90341 75.9286 1.30609L76.8735 1.63335ZM91.8815 1.63335L92.8233 1.29728C92.6813 0.899149 92.3042 0.633348 91.8815 0.633348V1.63335ZM105.21 38.9854V39.9854C105.535 39.9854 105.839 39.8273 106.027 39.5615C106.214 39.2958 106.261 38.9555 106.151 38.6493L105.21 38.9854ZM90.8175 38.9854L89.8509 39.2416C89.9671 39.68 90.3639 39.9854 90.8175 39.9854V38.9854ZM85.4975 18.3214L84.5231 18.5462L84.5256 18.5567L85.4975 18.3214ZM84.7695 14.1213L85.7618 13.9973C85.6992 13.4969 85.2738 13.1213 84.7695 13.1213V14.1213ZM84.2655 14.1213V13.1213C83.7271 13.1213 83.2854 13.5476 83.2661 14.0857L84.2655 14.1213ZM83.6495 18.3214L84.6179 18.571L84.6196 18.5639L83.6495 18.3214ZM81.8015 25.4894L80.8332 25.2397C80.756 25.5391 80.8216 25.8574 81.011 26.1019C81.2004 26.3463 81.4923 26.4894 81.8015 26.4894V25.4894ZM87.2335 25.4894V26.4894C87.5401 26.4894 87.8298 26.3487 88.0194 26.1077C88.209 25.8667 88.2776 25.552 88.2054 25.254L87.2335 25.4894ZM89.5855 33.3374H79.2815V35.3374H89.5855V33.3374ZM78.3042 34.1254L77.2962 38.7734L79.2508 39.1973L80.2588 34.5493L78.3042 34.1254ZM78.2735 37.9854H63.9375V39.9854H78.2735V37.9854ZM64.8824 39.3126L77.8184 1.9606L75.9286 1.30609L62.9926 38.6581L64.8824 39.3126ZM76.8735 2.63335H91.8815V0.633348H76.8735V2.63335ZM90.9397 1.96942L104.268 39.3214L106.151 38.6493L92.8233 1.29728L90.9397 1.96942ZM105.21 37.9854H90.8175V39.9854H105.21V37.9854ZM91.7841 38.7291L90.5521 34.0811L88.6189 34.5936L89.8509 39.2416L91.7841 38.7291ZM86.4719 18.0965C86.1456 16.6825 85.9268 15.3176 85.7618 13.9973L83.7772 14.2454C83.9482 15.6131 84.1774 17.0482 84.5231 18.5462L86.4719 18.0965ZM84.7695 13.1213H84.2655V15.1213H84.7695V13.1213ZM83.2661 14.0857C83.2132 15.5693 83.0024 16.7867 82.6794 18.0788L84.6196 18.5639C84.9686 17.168 85.2058 15.8094 85.2649 14.157L83.2661 14.0857ZM82.6812 18.0717L80.8332 25.2397L82.7698 25.739L84.6178 18.571L82.6812 18.0717ZM81.8015 26.4894H87.2335V24.4894H81.8015V26.4894ZM88.2054 25.254L86.4694 18.086L84.5256 18.5567L86.2616 25.7247L88.2054 25.254ZM122.195 38.9854V39.9854C122.747 39.9854 123.195 39.5376 123.195 38.9854H122.195ZM108.979 38.9854H107.979C107.979 39.5376 108.426 39.9854 108.979 39.9854V38.9854ZM108.979 1.63335V0.633348C108.426 0.633348 107.979 1.08106 107.979 1.63335H108.979ZM137.259 5.49735L137.966 4.79024L137.966 4.79024L137.259 5.49735ZM138.715 21.3454L137.944 20.7085C137.94 20.7125 137.937 20.7166 137.934 20.7207L138.715 21.3454ZM133.563 24.3134L133.362 23.3337C132.896 23.4292 132.563 23.8385 132.563 24.3134H133.563ZM133.563 24.6494H132.563C132.563 25.0172 132.765 25.3554 133.088 25.5298L133.563 24.6494ZM135.523 26.3854L134.681 26.9261C134.684 26.9308 134.687 26.9354 134.691 26.9401L135.523 26.3854ZM143.923 38.9854V39.9854C144.291 39.9854 144.63 39.7824 144.804 39.4572C144.978 39.1321 144.959 38.7375 144.755 38.4307L143.923 38.9854ZM128.299 38.9854L127.401 39.427C127.57 39.7689 127.918 39.9854 128.299 39.9854V38.9854ZM122.923 28.0654L122.003 28.4593C122.01 28.4754 122.018 28.4913 122.025 28.507L122.923 28.0654ZM122.419 26.8894L123.383 26.6262C123.304 26.3372 123.1 26.0987 122.827 25.9764C122.553 25.8542 122.239 25.8609 121.971 25.9949L122.419 26.8894ZM122.195 27.0014L121.747 26.1069C121.409 26.2763 121.195 26.6226 121.195 27.0014H122.195ZM122.195 11.8814V10.8814C121.642 10.8814 121.195 11.3291 121.195 11.8814H122.195ZM122.195 18.2654H121.195C121.195 18.8176 121.642 19.2654 122.195 19.2654V18.2654ZM126.619 17.4254L127.274 18.181L127.277 18.1779L126.619 17.4254ZM126.843 12.8894L126.095 13.5537L126.099 13.5583L126.843 12.8894ZM122.195 37.9854H108.979V39.9854H122.195V37.9854ZM109.979 38.9854V1.63335H107.979V38.9854H109.979ZM108.979 2.63335H125.835V0.633348H108.979V2.63335ZM125.835 2.63335C129.69 2.63335 133.429 3.08156 136.551 6.20446L137.966 4.79024C134.257 1.08114 129.819 0.633348 125.835 0.633348V2.63335ZM136.551 6.20445C138.28 7.93296 139.787 10.5391 139.787 14.6814H141.787C141.787 9.97558 140.045 6.86974 137.966 4.79024L136.551 6.20445ZM139.787 14.6814C139.787 17.7618 138.854 19.6065 137.944 20.7085L139.486 21.9822C140.703 20.5082 141.787 18.2089 141.787 14.6814H139.787ZM137.934 20.7207C136.977 21.9161 135.346 22.9266 133.362 23.3337L133.764 25.293C136.147 24.8041 138.212 23.5746 139.495 21.97L137.934 20.7207ZM132.563 24.3134V24.6494H134.563V24.3134H132.563ZM133.088 25.5298C133.719 25.8695 134.296 26.3271 134.681 26.9261L136.364 25.8446C135.741 24.8756 134.862 24.2132 134.037 23.7689L133.088 25.5298ZM134.691 26.9401L143.091 39.5401L144.755 38.4307L136.355 25.8307L134.691 26.9401ZM143.923 37.9854H128.299V39.9854H143.923V37.9854ZM129.196 38.5437L123.82 27.6237L122.025 28.507L127.401 39.427L129.196 38.5437ZM123.842 27.6714C123.745 27.4456 123.608 27.2 123.565 27.1141C123.508 26.9997 123.448 26.8652 123.383 26.6262L121.454 27.1525C121.557 27.5295 121.665 27.787 121.776 28.0086C121.901 28.2588 121.932 28.2931 122.003 28.4593L123.842 27.6714ZM121.971 25.9949L121.747 26.1069L122.642 27.8958L122.866 27.7838L121.971 25.9949ZM121.195 27.0014V38.9854H123.195V27.0014H121.195ZM121.195 11.8814V18.2654H123.195V11.8814H121.195ZM122.195 19.2654H123.763V17.2654H122.195V19.2654ZM123.763 19.2654C124.574 19.2654 126.138 19.1653 127.273 18.181L125.964 16.6697C125.419 17.1414 124.519 17.2654 123.763 17.2654V19.2654ZM127.277 18.1779C127.916 17.6185 128.571 16.6262 128.571 15.1293H126.571C126.571 15.9845 126.217 16.4482 125.96 16.6728L127.277 18.1779ZM128.571 15.1293C128.571 14.1457 128.313 13.0285 127.586 12.2204L126.099 13.5583C126.38 13.8702 126.571 14.433 126.571 15.1293H128.571ZM127.59 12.225C126.994 11.555 126.01 10.8814 124.547 10.8814V12.8814C125.323 12.8814 125.795 13.2157 126.095 13.5537L127.59 12.225ZM124.547 10.8814H122.195V12.8814H124.547V10.8814ZM176.119 24.3694L177.119 24.3975C177.13 23.9793 176.881 23.5981 176.493 23.4418C176.105 23.2855 175.66 23.3872 175.379 23.6967L176.119 24.3694ZM175.727 38.3134L176.083 39.2478C176.461 39.1038 176.715 38.746 176.727 38.3415L175.727 38.3134ZM152.543 34.3934L153.25 33.6862L153.244 33.6806L152.543 34.3934ZM152.711 6.44935L152.004 5.74222L151.998 5.74801L152.711 6.44935ZM175.727 2.24935L176.727 2.2218C176.715 1.80372 176.445 1.43697 176.049 1.30247L175.727 2.24935ZM176.119 16.4734L175.412 17.1805C175.702 17.47 176.138 17.5538 176.514 17.3919C176.891 17.23 177.13 16.8551 177.119 16.4458L176.119 16.4734ZM162.791 15.0734L162.056 14.3951L162.055 14.3963L162.791 15.0734ZM163.015 25.7694L162.322 26.4902L162.326 26.4944L163.015 25.7694ZM175.119 24.3412L174.727 38.2853L176.727 38.3415L177.119 24.3975L175.119 24.3412ZM175.371 37.3789C172.019 38.6558 168.026 38.8254 166.319 38.8254V40.8254C168.085 40.8254 172.379 40.6589 176.083 39.2478L175.371 37.3789ZM166.319 38.8254C161.665 38.8254 156.728 37.1636 153.25 33.6862L151.836 35.1005C155.751 39.0151 161.229 40.8254 166.319 40.8254V38.8254ZM153.244 33.6806C149.932 30.4211 148.111 25.6505 148.111 20.6174H146.111C146.111 26.1122 148.098 31.4216 151.842 35.1061L153.244 33.6806ZM148.111 20.6174C148.111 15.1095 150.194 10.434 153.424 7.15068L151.998 5.74801C148.397 9.40867 146.111 14.5892 146.111 20.6174H148.111ZM153.418 7.15646C155.91 4.66462 160.149 1.79335 166.823 1.79335V-0.206651C159.498 -0.206651 154.776 2.97008 152.004 5.74224L153.418 7.15646ZM166.823 1.79335C169.523 1.79335 172.55 2.22632 175.405 3.19623L176.049 1.30247C172.968 0.256376 169.723 -0.206651 166.823 -0.206651V1.79335ZM174.727 2.2769L175.119 16.5009L177.119 16.4458L176.727 2.2218L174.727 2.2769ZM176.826 15.7662C175.187 14.1269 172.033 11.7774 168.223 11.7774V13.7774C171.245 13.7774 173.915 15.6838 175.412 17.1805L176.826 15.7662ZM168.223 11.7774C165.833 11.7774 163.601 12.7219 162.056 14.3951L163.526 15.7516C164.669 14.5128 166.357 13.7774 168.223 13.7774V11.7774ZM162.055 14.3963C160.574 16.0063 159.831 18.2194 159.831 20.3934H161.831C161.831 18.6473 162.432 16.9404 163.527 15.7504L162.055 14.3963ZM159.831 20.3934C159.831 22.6446 160.645 24.8776 162.322 26.4902L163.708 25.0485C162.473 23.8611 161.831 22.1741 161.831 20.3934H159.831ZM162.326 26.4944C163.596 27.7006 165.569 28.8974 168.559 28.8974V26.8974C166.173 26.8974 164.674 25.9661 163.704 25.0444L162.326 26.4944ZM168.559 28.8974C172.781 28.8974 175.662 26.3591 176.859 25.042L175.379 23.6967C174.336 24.8436 171.953 26.8974 168.559 26.8974V28.8974ZM194.925 38.9854V39.9854C195.477 39.9854 195.925 39.5376 195.925 38.9854H194.925ZM181.877 38.9854H180.877C180.877 39.5376 181.325 39.9854 181.877 39.9854V38.9854ZM181.877 1.63335V0.633348C181.325 0.633348 180.877 1.08106 180.877 1.63335H181.877ZM194.925 1.63335H195.925C195.925 1.08106 195.477 0.633348 194.925 0.633348V1.63335ZM194.925 14.2894H193.925C193.925 14.8416 194.373 15.2894 194.925 15.2894V14.2894ZM203.213 14.2894V15.2894C203.765 15.2894 204.213 14.8416 204.213 14.2894H203.213ZM203.213 1.63335V0.633348C202.661 0.633348 202.213 1.08106 202.213 1.63335H203.213ZM216.261 1.63335H217.261C217.261 1.08106 216.813 0.633348 216.261 0.633348V1.63335ZM216.261 38.9854V39.9854C216.813 39.9854 217.261 39.5376 217.261 38.9854H216.261ZM203.213 38.9854H202.213C202.213 39.5376 202.661 39.9854 203.213 39.9854V38.9854ZM203.213 25.9934H204.213C204.213 25.4411 203.765 24.9934 203.213 24.9934V25.9934ZM194.925 25.9934V24.9934C194.373 24.9934 193.925 25.4411 193.925 25.9934H194.925ZM194.925 37.9854H181.877V39.9854H194.925V37.9854ZM182.877 38.9854V1.63335H180.877V38.9854H182.877ZM181.877 2.63335H194.925V0.633348H181.877V2.63335ZM193.925 1.63335V14.2894H195.925V1.63335H193.925ZM194.925 15.2894H203.213V13.2894H194.925V15.2894ZM204.213 14.2894V1.63335H202.213V14.2894H204.213ZM203.213 2.63335H216.261V0.633348H203.213V2.63335ZM215.261 1.63335V38.9854H217.261V1.63335H215.261ZM216.261 37.9854H203.213V39.9854H216.261V37.9854ZM204.213 38.9854V25.9934H202.213V38.9854H204.213ZM203.213 24.9934H194.925V26.9934H203.213V24.9934ZM193.925 25.9934V38.9854H195.925V25.9934H193.925Z" fill="#333333" mask="url(#path-1-inside-1_0_2017)"/>
</svg>
