<svg width="24" height="25" viewBox="0 0 24 25" fill="none" xmlns="http://www.w3.org/2000/svg">
<g clip-path="url(#clip0_137_14820)">
<path d="M4.25391 8.53125C3.99518 8.53125 3.78516 8.74109 3.78516 8.99982C3.78516 9.25854 3.99518 9.46857 4.25391 9.46857C4.51263 9.46857 4.72266 9.25854 4.72266 8.99982C4.72266 8.74109 4.51263 8.53125 4.25391 8.53125Z" fill="white"/>
<path d="M17.3869 14.1313C17.2992 14.0434 17.1798 13.9939 17.0555 13.9939C17.0507 13.9949 16.8705 13.9848 16.724 14.1313L16.3928 14.4625L15.3158 13.3857C17.6925 10.0541 17.331 5.4583 14.4041 2.53154C11.1071 -0.765449 5.77031 -0.765998 2.47295 2.53154C-0.824042 5.82836 -0.824592 11.1653 2.47295 14.4627C5.39257 17.3825 9.98649 17.7571 13.3269 15.3744L14.4039 16.4514L14.0727 16.7826C13.8897 16.9656 13.8896 17.2625 14.0727 17.4457L19.9987 23.3711C20.9144 24.2874 22.3966 24.2879 23.3125 23.3713C24.2288 22.4558 24.2292 20.9734 23.3125 20.0575L17.3869 14.1313ZM15.0668 15.7886L14.0632 14.785C14.1798 14.6804 14.2939 14.5731 14.4041 14.4627C14.5145 14.3525 14.6218 14.2384 14.7264 14.1219L15.73 15.1255L15.0668 15.7886ZM3.13579 13.7998C0.205009 10.8692 0.204643 6.12535 3.13579 3.19439C6.06639 0.263603 10.8103 0.263237 13.7413 3.19439C16.6654 6.11839 16.6803 10.8612 13.7413 13.7998C10.7691 16.7724 6.02648 16.6907 3.13579 13.7998ZM17.0555 15.1255L18.381 16.4512L16.3926 18.4395L15.0669 17.114L17.0555 15.1255ZM22.6497 22.7085C22.1004 23.2583 21.2114 23.2585 20.6617 22.7085L17.0555 19.1024L19.0438 17.114L22.6499 20.7205C23.1996 21.2696 23.2001 22.1586 22.6497 22.7085Z" fill="white"/>
<path d="M13.0787 3.85666C10.5154 1.29337 6.36276 1.2919 3.79837 3.85629C1.24039 6.41482 1.24039 10.5779 3.79837 13.1366C6.36312 15.7012 10.5134 15.7014 13.0783 13.1366C15.6369 10.5779 15.637 6.415 13.0787 3.85666ZM12.4155 12.4736C10.2173 14.6718 6.65994 14.6723 4.46121 12.4738C2.26871 10.2805 2.26871 6.71218 4.46121 4.51895C6.65829 2.32205 10.218 2.3215 12.4159 4.5195C14.6087 6.71237 14.6085 10.2805 12.4155 12.4736Z" fill="white"/>
<path d="M8.43824 3.81055C7.18544 3.81055 6.00844 4.29797 5.12404 5.18292C4.61134 5.69562 4.23396 6.30133 4.00252 6.98358C3.91939 7.22857 4.05049 7.49481 4.29567 7.57794C4.54121 7.66125 4.80708 7.52942 4.89021 7.28479C5.07497 6.74005 5.37672 6.25592 5.78688 5.84558C6.4944 5.13788 7.43593 4.74805 8.43824 4.74805C8.69715 4.74805 8.90699 4.53821 8.90699 4.2793C8.90699 4.02039 8.69715 3.81055 8.43824 3.81055Z" fill="white"/>
</g>
<defs>
<clipPath id="clip0_137_14820">
<rect width="24" height="24" fill="white" transform="translate(0 0.0585938)"/>
</clipPath>
</defs>
</svg>
