<svg width="159" height="160" viewBox="0 0 159 160" fill="none" xmlns="http://www.w3.org/2000/svg">
<g clip-path="url(#clip0_0_4081)">
<path d="M17.3906 0.400391H2.48438C1.82548 0.400391 1.19357 0.662137 0.727657 1.12805C0.261746 1.59396 0 2.22587 0 2.88477L0 159.4H19.875V2.88477C19.875 2.22587 19.6133 1.59396 19.1473 1.12805C18.6814 0.662137 18.0495 0.400391 17.3906 0.400391Z" fill="white" fill-opacity="0.6"/>
<path d="M156.516 15.3066H24.8438V35.1816H156.516C157.175 35.1816 157.806 34.9199 158.272 34.454C158.738 33.9881 159 33.3562 159 32.6973V17.791C159 17.1321 158.738 16.5002 158.272 16.0343C157.806 15.5684 157.175 15.3066 156.516 15.3066Z" fill="white" fill-opacity="0.6"/>
<path d="M119.25 47.6035C119.672 47.6035 120.07 47.6035 120.492 47.6284V40.1504H58.3828V47.6284C58.8052 47.6035 59.2027 47.6035 59.625 47.6035H119.25Z" fill="white" fill-opacity="0.6"/>
<path d="M89.4375 82.3848C93.5537 82.3848 96.8906 79.0479 96.8906 74.9316C96.8906 70.8154 93.5537 67.4785 89.4375 67.4785C85.3213 67.4785 81.9844 70.8154 81.9844 74.9316C81.9844 79.0479 85.3213 82.3848 89.4375 82.3848Z" fill="white" fill-opacity="0.6"/>
<path d="M119.25 82.3848C123.366 82.3848 126.703 79.0479 126.703 74.9316C126.703 70.8154 123.366 67.4785 119.25 67.4785C115.134 67.4785 111.797 70.8154 111.797 74.9316C111.797 79.0479 115.134 82.3848 119.25 82.3848Z" fill="white" fill-opacity="0.6"/>
<path d="M119.25 52.5723H59.625C53.6949 52.5723 48.0077 54.928 43.8145 59.1212C39.6213 63.3144 37.2656 69.0016 37.2656 74.9316C37.2656 80.8617 39.6213 86.5489 43.8145 90.7421C48.0077 94.9353 53.6949 97.291 59.625 97.291H119.25C125.18 97.291 130.867 94.9353 135.06 90.7421C139.254 86.5489 141.609 80.8617 141.609 74.9316C141.609 69.0016 139.254 63.3144 135.06 59.1212C130.867 54.928 125.18 52.5723 119.25 52.5723ZM59.625 87.3535C57.1682 87.3535 54.7665 86.625 52.7238 85.2601C50.681 83.8951 49.0889 81.9551 48.1487 79.6853C47.2085 77.4155 46.9625 74.9179 47.4418 72.5083C47.9211 70.0986 49.1042 67.8853 50.8414 66.148C52.5786 64.4108 54.792 63.2277 57.2016 62.7484C59.6112 62.2691 62.1088 62.5151 64.3786 63.4553C66.6484 64.3955 68.5885 65.9876 69.9534 68.0304C71.3183 70.0732 72.0469 72.4748 72.0469 74.9316C72.0429 78.2249 70.7329 81.3822 68.4042 83.7109C66.0755 86.0396 62.9183 87.3496 59.625 87.3535ZM89.4375 87.3535C86.9807 87.3535 84.579 86.625 82.5363 85.2601C80.4935 83.8951 78.9014 81.9551 77.9612 79.6853C77.021 77.4155 76.775 74.9179 77.2543 72.5083C77.7336 70.0986 78.9167 67.8853 80.6539 66.148C82.3911 64.4108 84.6045 63.2277 87.0141 62.7484C89.4237 62.2691 91.9213 62.5151 94.1911 63.4553C96.4609 64.3955 98.401 65.9876 99.7659 68.0304C101.131 70.0732 101.859 72.4748 101.859 74.9316C101.855 78.2249 100.545 81.3822 98.2167 83.7109C95.888 86.0396 92.7308 87.3496 89.4375 87.3535ZM119.25 87.3535C116.793 87.3535 114.392 86.625 112.349 85.2601C110.306 83.8951 108.714 81.9551 107.774 79.6853C106.834 77.4155 106.588 74.9179 107.067 72.5083C107.546 70.0986 108.729 67.8853 110.466 66.148C112.204 64.4108 114.417 63.2277 116.827 62.7484C119.236 62.2691 121.734 62.5151 124.004 63.4553C126.273 64.3955 128.213 65.9876 129.578 68.0304C130.943 70.0732 131.672 72.4748 131.672 74.9316C131.668 78.2249 130.358 81.3822 128.029 83.7109C125.701 86.0396 122.543 87.3496 119.25 87.3535Z" fill="white" fill-opacity="0.6"/>
<path d="M59.625 82.3848C63.7412 82.3848 67.0781 79.0479 67.0781 74.9316C67.0781 70.8154 63.7412 67.4785 59.625 67.4785C55.5088 67.4785 52.1719 70.8154 52.1719 74.9316C52.1719 79.0479 55.5088 82.3848 59.625 82.3848Z" fill="white" fill-opacity="0.6"/>
</g>
<defs>
<clipPath id="clip0_0_4081">
<rect width="159" height="159" fill="white" transform="translate(0 0.400391)"/>
</clipPath>
</defs>
</svg>
