<svg width="230" height="231" viewBox="0 0 230 231" fill="none" xmlns="http://www.w3.org/2000/svg">
<g clip-path="url(#clip0_7_18986)">
<path d="M228.407 111.721C228.084 129.941 226.475 147.836 219.503 163.003C217.469 168.005 214.923 171.485 212.005 173.891C198.502 185.025 185.87 176.89 165.83 180.67C146.262 184.361 150.036 194.864 116.144 209.927C96.6027 218.613 84.7162 219.847 79.0906 220.17C77.014 220.29 74.8586 220.406 72.6189 220.446C68.2598 220.522 63.5845 220.303 58.567 219.229C58.5664 219.229 58.5658 219.229 58.5645 219.229C55.0609 218.479 51.3917 217.314 47.5465 215.54C47.4715 215.506 47.3965 215.472 47.3214 215.437C44.729 214.228 39.1933 211.408 33.1146 206.162C33.1047 206.154 33.0948 206.146 33.0849 206.137C28.6365 202.293 23.8998 197.153 19.8141 190.393C19.8129 190.393 19.8122 190.391 19.8122 190.391C18.8849 188.855 18.1466 187.48 17.3568 185.868C16.5943 184.308 15.7848 182.527 14.7117 180.166C9.84489 169.461 4.51067 157.728 2.47058 143.279C-0.247049 124.034 4.02715 108.106 6.06909 101.666C8.53009 93.9055 14.2741 76.4922 28.5503 65.2201C43.8599 53.1325 61.2258 55.6252 77.4125 46.3556C83.9357 42.619 89.2706 36.664 92.8437 29.3792C97.0695 20.7638 101.151 16.4086 108.27 11.6974C113.382 8.31393 117.456 7.51264 118.774 7.28958C124.94 6.24818 129.97 7.90121 132.599 9.01365C132.891 9.10955 133.184 9.20474 133.476 9.30135C132.647 9.31697 131.89 9.65014 131.138 9.99822C129.497 10.7576 128.143 11.9844 127.009 13.5046C125.987 14.8728 125.236 16.4441 124.694 18.144C124.292 19.4021 124.002 20.6949 123.847 22.0155C123.717 23.123 123.62 24.2461 123.699 25.3699C123.871 27.8114 124.311 30.1819 125.311 32.3677C125.893 33.6364 126.622 34.8 127.489 35.8457C128.41 36.9567 129.387 38.0009 130.514 38.8278C131.654 39.6653 132.848 40.4006 134.112 40.9816C135.586 41.6593 137.113 42.1353 138.668 42.4485C139.997 42.7164 141.349 42.8506 142.708 42.7796C142.946 42.7675 143.294 42.6269 143.408 42.8805C143.538 43.1696 143.173 43.3187 143.031 43.5333C141.935 45.1948 140.711 46.7285 139.376 48.1343C138.29 49.278 137.19 50.4054 136.031 51.4581C133.992 53.3094 131.874 55.037 129.734 56.7248C128.432 57.752 127.064 58.6698 125.725 59.6352C125.465 59.822 125.202 60.0039 124.85 60.2518C125.618 60.3456 126.208 60.2703 126.812 59.8185C128.415 58.6165 130.028 57.4316 131.616 56.2041C133.169 55.0043 134.676 53.7313 136.138 52.3958C137.16 51.4631 138.171 50.5063 139.133 49.4791C139.85 48.7133 140.566 47.9461 141.248 47.1434C142.324 45.8803 143.313 44.5278 144.228 43.1085C144.386 42.8648 144.548 42.7902 144.795 42.7647C147.373 42.504 149.883 41.9165 152.309 40.841C153.713 40.2194 155.088 39.5403 156.421 38.7468C158.196 37.6884 159.889 36.4729 161.522 35.1453C162.826 34.0833 164.095 32.9687 165.331 31.8008C166.551 30.6479 167.75 29.4637 168.899 28.2277C170.283 26.7402 171.712 25.3024 173.003 23.7034C173.617 22.3274 174.717 23.7538 175.487 24.0976C204.645 41.204 225.279 74.4379 228.407 111.722V111.721Z" fill="#E8F4FF"/>
<path d="M74.1664 90.7767C72.5559 91.2576 70.9367 91.7038 69.3362 92.2259C64.6256 93.7624 59.9577 95.4509 55.4207 97.5792C54.1474 98.1766 52.9144 98.8756 51.7137 99.6542C50.8291 100.227 50.2761 101.075 49.8701 102.098C49.1182 103.992 48.5274 105.955 47.9621 107.929C46.7086 112.306 45.6021 116.731 44.5638 121.18C44.0152 123.53 43.4734 125.882 42.926 128.232C42.9111 128.298 42.8616 128.352 42.8287 128.412C41.7984 127.366 40.6863 126.438 39.6951 125.331C36.1828 121.411 34.0931 116.665 33.3963 111.134C32.4913 103.944 33.8265 97.3341 37.5775 91.4381C39.3511 88.6499 41.6744 86.5436 44.2768 84.8423C48.4685 82.1003 53.0601 80.8394 57.7887 80.0821C60.1059 79.7106 62.4336 79.5145 64.7669 79.3533C67.3488 79.175 69.9288 78.9839 72.5156 78.9335C72.8516 78.9271 73.1752 78.7985 73.5106 78.802C73.8186 78.8056 74.6115 78.6848 74.883 78.9406C74.8873 80.1816 74.865 81.5171 74.883 82.7581C74.8873 83.0657 75.2308 83.4613 75.0529 83.6787C75.2159 83.8641 75.2363 84.5219 75.237 84.7613C75.2407 86.7575 75.4694 88.1945 75.4639 90.1907C75.4632 90.4301 74.3437 90.6041 74.167 90.7781L74.1664 90.7767Z" fill="#E8F4FF"/>
<path d="M32.0248 29.5394C50.0719 9.21362 116.319 -4.06743 75.1859 35.6088C67.5456 48.9019 12.1546 50.7886 32.0255 29.5387L32.0248 29.5394Z" fill="#E8F4FF"/>
<path d="M184.489 187.41C200.404 207.548 154.155 229.281 139.095 222.172C102.12 212.714 170.71 180.9 184.489 187.41Z" fill="#E8F4FF"/>
<path d="M140.834 11.2455C144.907 13.7048 147.022 18.2136 147.778 20.8092C148.33 22.7052 148.474 24.641 148.474 24.641C148.571 25.3911 148.495 26.1697 148.504 26.9355C148.531 29.0978 148.173 31.1906 147.665 33.2606C147.246 34.9676 146.661 36.5965 145.953 38.1692C145.475 39.2305 144.913 40.235 144.36 41.2458C144.158 41.6138 143.908 41.8099 143.495 41.8184C141.364 41.8617 139.251 41.6429 137.192 41.0398C134.655 40.2968 132.27 39.1524 130.162 37.2919C128.192 35.5536 126.585 33.5071 125.563 30.8986C125.049 29.5887 124.754 28.2049 124.542 26.7898C124.328 25.3606 124.361 23.9171 124.459 22.5013C124.578 20.7993 124.97 19.1392 125.54 17.5351C126.298 15.4055 127.46 13.6189 128.965 12.1449C129.342 11.7762 129.741 11.4473 130.159 11.1603C131.24 10.418 132.243 10.121 132.849 9.94344C132.965 9.90935 133.217 9.83476 133.503 9.77082C135.462 9.33253 137.212 9.78716 137.888 9.97044C138.408 10.1118 139.53 10.457 140.834 11.2448V11.2455Z" fill="#E8F4FF"/>
<path d="M143.731 10.1353C153.338 12.8667 166.335 16.0342 172.824 22.6328C172.453 22.9106 172.182 23.3112 171.868 23.66C170.269 25.4373 168.633 27.1671 166.969 28.8656C165.882 29.9759 164.75 31.0215 163.626 32.0786C163.065 32.6064 162.472 33.0916 161.876 33.5682C160.135 34.9627 158.362 36.2939 156.465 37.4056C154.924 38.3092 153.347 39.0928 151.721 39.7768C149.913 40.5376 148.035 40.8971 146.159 41.2921C145.939 41.3382 145.702 41.3432 145.44 41.2551C145.63 40.6129 145.994 40.0873 146.28 39.5204C147.497 37.1087 148.454 34.5791 148.992 31.8562C149.248 30.5591 149.462 29.257 149.526 27.9165C149.557 27.2545 149.646 26.5889 149.622 25.9239C149.521 23.216 149.142 20.5635 148.126 18.0964C147.587 16.7865 146.911 15.5583 146.076 14.4366C145.258 13.3384 144.368 12.3445 143.351 11.5141C142.459 10.7853 141.571 10.0174 140.473 9.70482C140.435 9.65225 140.389 9.60963 140.347 9.56132C140.306 9.56132 140.264 9.56132 140.222 9.56132C140.213 9.30133 140.328 9.32548 140.473 9.41783C140.557 9.41783 140.641 9.41783 140.724 9.41783C140.866 9.57979 141.081 9.40717 141.225 9.56132C142.068 9.71263 142.926 9.84334 143.733 10.1353H143.731Z" fill="#E8F4FF"/>
<path d="M186.387 112.555C186.076 113.235 185.605 113.508 184.918 113.503C183.238 113.492 181.557 113.549 179.876 113.597C179.422 113.61 179.014 113.503 178.65 113.19C178.564 112.654 178.846 112.276 179.096 111.898C179.826 110.795 180.573 109.707 181.312 108.611C181.95 107.663 181.929 106.976 181.195 106.149C179.916 104.707 178.626 103.277 177.333 101.852C176.783 101.246 176.143 101.182 175.523 101.717C174.692 102.436 173.893 103.203 173.08 103.95C172.853 104.16 172.616 104.357 172.403 104.584C171.911 105.107 171.345 105.142 170.775 104.858C169.953 104.448 169.129 104.046 168.277 103.725C167.629 103.481 167.313 102.945 167.23 102.189C167.069 100.724 166.889 99.2616 166.741 97.7954C166.703 97.4211 166.533 97.1241 166.429 96.7896C166.396 96.7349 166.363 96.6809 166.327 96.6276C166.267 96.548 166.225 96.4564 166.18 96.3662C165.705 95.4363 165.37 94.4333 165.054 93.4267C164.799 92.614 164.305 92.2873 163.591 92.2439C162.784 92.1949 161.986 92.0258 161.18 91.9463C160.985 91.9271 160.812 91.8646 160.712 91.6508C160.709 88.6082 160.706 85.565 160.705 82.5225C160.705 82.4046 160.727 82.2874 160.739 82.1695C161.794 82.0196 162.852 81.8803 163.906 81.7141C164.42 81.6331 164.804 81.2907 164.978 80.7331C165.323 79.6285 165.698 78.5416 166.121 77.4725C166.365 76.8524 166.246 76.2578 165.872 75.7293C165.24 74.8371 164.612 73.942 163.982 73.0483C163.772 72.7507 163.554 72.4595 163.35 72.1561C162.867 71.4394 162.878 70.8128 163.42 70.1678C164.68 68.6675 165.949 67.1757 167.225 65.6932C167.811 65.0127 168.381 64.98 169.066 65.576C170.064 66.4441 171.06 67.3171 172.039 68.2143C172.642 68.7684 173.256 68.8891 173.949 68.4636C174.686 68.0104 175.458 67.6446 176.25 67.3377C176.961 67.0628 177.335 66.5222 177.4 65.6513C177.504 64.2462 177.649 62.8453 177.779 61.4431C177.792 61.301 177.819 61.1596 177.847 61.0204C178 60.2454 178.374 59.881 179.078 59.8639C180.873 59.8206 182.669 59.7843 184.466 59.7581C185.362 59.7453 185.806 60.2226 185.915 61.2385C186.076 62.7324 186.243 64.2263 186.421 65.7181C186.501 66.3886 186.827 66.8781 187.387 67.0997C188.316 67.467 189.225 67.8818 190.117 68.3542C190.744 68.6867 191.291 68.4501 191.795 67.9763C192.732 67.0962 193.678 66.2281 194.617 65.3515C195.463 64.563 195.939 64.5886 196.732 65.4765C197.958 66.8475 199.185 68.2186 200.411 69.5889C201.013 70.2623 201.072 70.913 200.561 71.688C199.806 72.8338 199.045 73.9754 198.261 75.0956C197.744 75.8344 197.653 76.5739 198.055 77.4157C198.446 78.2355 198.746 79.1049 199.007 79.9894C199.25 80.8105 199.743 81.2154 200.491 81.2922C201.758 81.4229 203.024 81.5806 204.29 81.7347C205.133 81.837 205.547 82.3819 205.56 83.441C205.581 85.1168 205.582 86.7926 205.593 88.4683C205.596 88.9471 205.602 89.4259 205.608 89.904C205.363 90.7102 204.845 90.9986 204.125 91.0768C202.882 91.211 201.645 91.4334 200.406 91.6252C199.817 91.7161 199.394 92.0841 199.204 92.7255C198.895 93.7677 198.55 94.7899 198.135 95.7823C197.852 96.4585 197.965 97.0822 198.366 97.6527C199.178 98.8063 199.995 99.9543 200.801 101.114C201.397 101.972 201.372 102.537 200.714 103.314C199.509 104.739 198.301 106.161 197.091 107.579C196.428 108.356 195.873 108.395 195.111 107.728C194.116 106.858 193.115 105.998 192.135 105.107C191.538 104.564 190.932 104.523 190.272 104.906C189.527 105.337 188.766 105.73 187.971 106.022C187.247 106.289 186.885 106.87 186.809 107.709C186.664 109.323 186.527 110.939 186.387 112.554V112.555Z" fill="#E8F4FF"/>
<path d="M169.523 129.449C168.137 131.483 166.317 132.721 164.105 133.085C162.162 133.404 160.273 133.073 158.558 131.887C156.295 130.323 154.87 128.075 154.402 125.067C154.384 124.95 154.342 124.839 154.311 124.726C154.32 124.694 154.332 124.666 154.346 124.642C154.544 124.851 154.565 125.15 154.62 125.432C155.4 129.378 158.088 132.33 161.592 132.891C167.108 133.774 171.174 128.839 171.194 123.534C171.216 117.967 167.367 113.665 162.509 113.794C162.066 113.806 161.64 113.929 161.204 113.983C161.036 114.005 160.862 114.039 160.73 113.949C160.73 113.931 160.731 113.913 160.731 113.895C161.467 113.741 162.201 113.57 162.958 113.604C164.982 113.694 166.781 114.429 168.342 115.94C169.815 117.368 170.774 119.157 171.172 121.292C171.73 124.282 171.177 127.022 169.522 129.449L169.523 129.449Z" fill="#E8F4FF"/>
<path d="M160.731 96.3815C160.685 94.9366 160.691 93.4917 160.728 92.0468C161.423 91.6831 162.106 92.1577 162.803 92.1023C163.047 92.0831 163.325 92.196 163.595 92.2081C164.326 92.2401 164.851 92.5945 165.094 93.4349C165.349 94.3143 165.661 95.1696 166.022 95.9993C166.071 96.0967 166.099 96.2039 166.131 96.3091C166.144 96.3865 166.126 96.4518 166.074 96.5051C165.814 96.4241 165.557 96.3503 165.281 96.3538C163.764 96.3709 162.247 96.3737 160.73 96.3815H160.731Z" fill="#E8F4FF"/>
<path d="M95.055 168.801C94.763 168.801 94.4705 168.804 94.1785 168.8C93.7632 168.794 93.6268 168.71 93.548 168.277C93.3863 167.389 93.2412 166.496 93.1203 165.6C93.0534 165.105 93.1463 164.958 93.5617 164.797C94.075 164.598 94.5957 164.423 95.1164 164.251C95.4982 164.124 95.7158 163.866 95.7698 163.401C95.8138 163.023 95.903 162.652 95.983 162.281C96.0933 161.769 96.0103 161.35 95.6241 161.009C95.2447 160.673 94.8932 160.295 94.5343 159.93C94.158 159.548 94.1214 159.347 94.388 158.886C94.8027 158.168 95.2286 157.458 95.6638 156.756C95.9254 156.334 96.1039 156.284 96.518 156.516C96.9866 156.778 97.4484 157.058 97.901 157.355C98.2698 157.597 98.599 157.593 98.9455 157.296C99.2288 157.053 99.535 156.844 99.84 156.636C100.159 156.42 100.314 156.121 100.286 155.689C100.247 155.069 100.228 154.447 100.192 153.827C100.162 153.313 100.273 153.083 100.681 152.989C101.416 152.82 102.155 152.663 102.897 152.535C103.469 152.436 103.577 152.537 103.752 153.178C103.902 153.726 104.049 154.274 104.19 154.824C104.303 155.263 104.545 155.498 104.946 155.559C105.275 155.61 105.603 155.695 105.924 155.796C106.355 155.932 106.693 155.819 106.978 155.414C107.279 154.985 107.603 154.578 107.927 154.172C108.341 153.652 108.465 153.639 108.987 154.044C109.522 154.461 110.055 154.881 110.586 155.305C111.137 155.746 111.167 155.876 110.871 156.541C110.653 157.031 110.435 157.521 110.2 158.001C109.993 158.424 109.999 158.804 110.262 159.199C110.464 159.501 110.642 159.829 110.804 160.163C111.01 160.59 111.304 160.776 111.729 160.73C112.227 160.676 112.727 160.632 113.227 160.603C113.791 160.57 113.94 160.711 114.041 161.324C114.157 162.028 114.271 162.733 114.388 163.436C114.536 164.326 114.458 164.477 113.72 164.733C113.3 164.879 112.884 165.034 112.463 165.172C112.063 165.304 111.82 165.56 111.772 166.067C111.734 166.469 111.626 166.861 111.549 167.257C111.464 167.69 111.544 168.05 111.858 168.346C112.26 168.726 112.651 169.125 113.034 169.531C113.399 169.919 113.421 170.112 113.147 170.584C112.73 171.301 112.306 172.012 111.87 172.713C111.619 173.116 111.464 173.157 111.073 172.936C110.624 172.682 110.18 172.415 109.746 172.129C109.321 171.849 108.935 171.825 108.532 172.193C108.272 172.431 107.977 172.618 107.689 172.812C107.389 173.014 107.241 173.298 107.263 173.699C107.295 174.295 107.283 174.893 107.358 175.488C107.438 176.125 107.321 176.321 106.782 176.453C106.048 176.631 105.309 176.787 104.569 176.931C104.165 177.01 104.006 176.898 103.862 176.429C103.688 175.867 103.536 175.294 103.397 174.719C103.278 174.229 103.045 173.932 102.58 173.873C102.25 173.831 101.921 173.743 101.603 173.633C101.188 173.489 100.873 173.617 100.603 173.986C100.281 174.425 99.9491 174.856 99.6162 175.285C99.2523 175.754 99.098 175.788 98.656 175.449C98.0311 174.97 97.4131 174.48 96.8013 173.98C96.4529 173.695 96.412 173.501 96.601 173.068C96.844 172.512 97.0982 171.963 97.3604 171.418C97.5656 170.994 97.5458 170.609 97.2904 170.217C97.0908 169.912 96.9011 169.593 96.7442 169.257C96.5502 168.841 96.2644 168.692 95.8702 168.72C95.5999 168.74 95.3278 168.724 95.0563 168.724C95.0563 168.75 95.0563 168.777 95.0563 168.802L95.055 168.801Z" fill="#E8F4FF"/>
<path d="M111.679 47.2446C111.75 48.3712 110.83 49.6677 109.581 49.6755C108.39 49.6826 107.386 48.5154 107.415 47.153C107.442 45.9084 108.346 44.7526 109.565 44.7846C110.787 44.8166 111.684 45.8366 111.679 47.2446Z" fill="#E8F4FF"/>
<path d="M218.966 165.536C197.846 168.303 175.957 173.463 154.584 177.021C153.494 177.177 152.399 177.318 151.316 177.503C149.835 177.757 148.343 177.962 146.862 177.999C144.221 178.067 141.57 178.208 138.932 177.768C137.802 177.58 136.673 177.402 135.565 177.093C133.882 176.622 132.252 175.972 130.678 175.142C130.547 175.072 130.411 174.995 130.419 174.778C131.548 174.55 132.632 174.18 133.701 173.682C135.736 172.737 137.336 171.148 138.724 169.293C140.231 167.277 141.208 164.906 141.814 162.333C142.268 160.412 142.331 158.456 142.198 156.509C142.093 154.973 141.752 153.457 141.206 152.027C140.541 150.291 139.712 148.663 138.602 147.252C137.518 145.871 136.232 144.778 134.746 144.019C132.874 143.062 130.92 142.72 128.901 143.177C126.714 143.671 124.865 144.922 123.273 146.683C122.493 147.546 121.808 148.504 121.251 149.577C120.568 150.892 119.957 152.24 119.596 153.729C119.385 154.603 119.233 155.482 119.116 156.379C118.958 157.597 118.981 158.82 119.069 160.024C119.153 161.177 119.447 162.306 119.796 163.409C120.606 165.962 121.829 168.212 123.493 170.14C124.151 170.904 124.786 171.695 125.53 172.363C126.166 172.932 126.805 173.495 127.474 174.013C127.463 174.069 127.452 174.123 127.441 174.179C126.61 174.008 125.76 173.909 124.949 173.653C121.656 172.613 119.251 170.285 117.674 166.839C116.412 164.082 115.984 161.089 115.9 158.014C115.88 157.325 115.936 156.638 115.998 155.947C116.075 155.098 116.161 154.249 116.253 153.401C116.482 151.307 117.023 149.304 117.599 147.319C118.313 144.852 119.178 142.446 120.053 140.046C120.76 138.111 121.445 136.164 122.065 134.189C122.791 131.876 123.392 129.524 123.76 127.1C123.863 126.421 123.957 125.741 124.042 125.059C124.077 124.782 123.989 124.599 123.702 124.602C123.46 124.603 123.306 124.66 123.293 124.989C123.224 126.735 122.829 128.418 122.457 130.096C121.996 132.178 121.363 134.201 120.671 136.195C119.825 138.633 118.915 141.042 118.077 143.482C117.208 146.012 116.438 148.583 115.908 151.238C115.501 153.284 115.221 155.35 115.267 157.46C115.28 158.082 115.247 158.706 115.275 159.326C115.304 159.991 115.342 160.66 115.447 161.311C115.644 162.527 115.896 163.728 116.227 164.911C116.831 167.063 117.812 168.946 119.132 170.607C119.809 171.46 120.608 172.148 121.463 172.752C123.305 174.053 125.297 174.788 127.47 174.887C128.274 174.924 129.082 174.991 129.808 175.508C130.284 175.847 130.815 176.078 131.336 176.327C133.087 177.163 134.885 177.819 136.756 178.188C137.737 178.382 138.719 178.541 139.714 178.644C141.103 178.787 142.488 178.929 143.883 178.902C144.468 178.891 145.053 178.901 145.639 178.899C145.785 178.899 145.935 178.914 146.076 178.878C146.955 178.653 147.855 178.728 148.743 178.636C172.038 174.634 196.236 170.747 218.967 165.536H218.966ZM127.776 173.272C126.888 172.647 126.113 171.847 125.308 171.094C123.938 169.81 122.848 168.247 121.901 166.565C121.169 165.265 120.599 163.854 120.21 162.358C119.827 160.886 119.604 159.383 119.665 157.852C119.744 155.912 120.131 154.05 120.801 152.25C121.389 150.671 122.213 149.277 123.161 147.978C123.913 146.949 124.836 146.128 125.83 145.408C126.942 144.604 128.162 144.149 129.438 143.887C129.842 143.803 130.271 143.873 130.688 143.873C132.999 143.813 134.989 144.744 136.761 146.409C139.29 148.787 140.733 151.869 141.354 155.501C141.547 156.626 141.684 157.768 141.588 158.909C141.436 160.735 141.149 162.532 140.537 164.249C139.958 165.876 139.226 167.399 138.23 168.73C136.673 170.812 134.831 172.473 132.537 173.37C131.833 173.646 131.098 173.846 130.363 173.993C129.139 174.24 129.127 174.225 127.775 173.272L127.776 173.272Z" fill="white"/>
<path d="M74.4983 78.9131C73.2492 78.9329 72.0026 79.0466 70.7547 79.1034C69.9042 79.1425 69.0482 79.1361 68.2001 79.2199C66.7291 79.3663 65.2488 79.3563 63.7828 79.5226C62.5454 79.6632 61.3025 79.7385 60.0658 79.8983C58.7052 80.0745 57.3532 80.3096 55.9993 80.5284C54.457 80.7778 52.9438 81.2189 51.4406 81.6799C49.4241 82.298 47.472 83.1326 45.6073 84.2096C44.0049 85.1352 42.4911 86.2405 41.1063 87.5455C38.8759 89.6467 37.1271 92.1948 35.8105 95.1528C34.854 97.3002 34.249 99.5734 33.7933 101.903C33.6179 102.799 33.5925 103.741 33.4834 104.656C33.3575 105.708 33.3675 106.754 33.3885 107.8C33.4319 109.946 33.6948 112.065 34.2068 114.132C34.6283 115.833 35.1608 117.49 35.9078 119.045C36.6108 120.509 37.3887 121.907 38.3341 123.194C39.0631 124.186 39.877 125.076 40.6816 125.975C41.1838 126.536 41.7448 127.037 42.3206 127.51C42.5705 127.715 42.9443 127.857 42.9145 128.345C42.9145 128.5 42.9238 128.657 42.8097 128.776C42.5556 128.78 42.3857 128.57 42.2097 128.42C41.5755 127.882 40.9253 127.357 40.3481 126.744C38.4773 124.755 36.7918 122.597 35.5569 119.999C34.6438 118.079 33.9378 116.074 33.4573 113.969C33.1852 112.778 33.0073 111.558 32.8517 110.332C32.7221 109.313 32.7606 108.29 32.6664 107.272C32.5715 106.249 32.7587 105.19 32.8362 104.148C32.9069 103.201 33.0829 102.271 33.2168 101.334C33.3792 100.196 33.67 99.1081 33.996 98.0291C34.3165 96.9699 34.6568 95.915 35.1174 94.9226C36.0082 93.0018 37.0379 91.2003 38.2994 89.5515C39.4642 88.0285 40.8168 86.7697 42.2239 85.5998C43.827 84.2664 45.5968 83.2292 47.4422 82.3789C49.2034 81.5677 51.0141 80.9426 52.8639 80.4673C54.4217 80.0667 55.9882 79.7321 57.5708 79.4671C58.823 79.2569 60.0807 79.1077 61.3354 78.9585C62.0737 78.8704 62.8355 78.8548 63.5701 78.7461C64.5638 78.5991 65.5712 78.776 66.5518 78.5053C66.612 78.489 66.6771 78.4883 66.739 78.4918C68.2001 78.5884 69.6544 78.3703 71.1106 78.3092C72.2276 78.2624 73.3453 78.2496 74.458 78.1807C74.5485 78.4378 74.4995 78.6765 74.5008 78.9116L74.4983 78.9131Z" fill="white"/>
<path d="M106.719 26.0557C110.138 26.1516 113.368 26.8413 116.45 28.375C119.336 29.8114 121.873 31.8125 124.104 34.3506C125.337 35.7529 126.448 37.2653 127.479 38.8615C127.566 38.9957 127.644 39.1371 127.724 39.2777C127.831 39.4653 127.825 39.65 127.662 39.7821C127.498 39.9142 127.343 39.8468 127.22 39.6841C127.152 39.5939 127.095 39.493 127.035 39.3964C125.785 37.3839 124.373 35.5291 122.767 33.8839C120.04 31.0915 116.946 29.0357 113.405 27.8984C111.775 27.3748 110.123 27.0722 108.438 26.8911C106.595 26.6929 104.783 26.8555 102.968 27.1802C102.716 27.2256 102.406 27.3606 102.257 26.9642C102.169 26.7277 102.347 26.5892 102.82 26.484C104.133 26.1921 105.462 26.1175 106.719 26.0564L106.719 26.0557Z" fill="#FECA8F"/>
<path d="M106.483 32.5563C111.044 32.6209 114.911 34.075 118.322 37.082C119.991 38.5539 121.387 40.3149 122.629 42.2464C122.749 42.4318 122.915 42.6044 122.918 42.8687C122.92 43.0242 122.874 43.1507 122.75 43.2239C122.641 43.2885 122.54 43.2409 122.466 43.1521C122.324 42.9788 122.18 42.8026 122.06 42.6087C120.418 39.9633 118.414 37.764 115.961 36.1244C114.144 34.9104 112.202 34.0942 110.129 33.6438C109.098 33.4201 108.059 33.3362 107.025 33.2894C105.993 33.2418 104.946 33.3625 103.918 33.5792C103.857 33.592 103.799 33.6268 103.738 33.6367C103.546 33.6687 103.408 33.5842 103.363 33.3611C103.317 33.1359 103.411 33.0152 103.599 32.9335C103.996 32.7594 104.421 32.7729 104.829 32.6997C105.464 32.5861 106.115 32.584 106.482 32.5555L106.483 32.5563Z" fill="#FECA90"/>
<path d="M112.391 47.2016C112.435 49.1502 110.89 50.3535 109.648 50.3358C108.105 50.313 106.871 48.9058 106.869 47.1363C106.867 45.4633 108.101 43.9701 109.669 43.9815C111.084 43.9922 112.503 45.4285 112.391 47.2016Z" fill="#FECA90"/>
<path d="M107.767 38.6733C110.768 38.789 113.176 39.7828 115.235 41.8642C115.896 42.5334 116.457 43.2928 117.004 44.0728C117.108 44.2212 117.191 44.3889 117.29 44.5423C117.419 44.7455 117.347 44.8989 117.204 45.0346C117.029 45.1994 116.893 45.0971 116.775 44.9401C116.708 44.8506 116.659 44.7419 116.596 44.6474C115.429 42.8943 114.056 41.4202 112.279 40.5067C110.534 39.6102 108.719 39.2053 106.805 39.5385C106.601 39.574 106.389 39.5704 106.181 39.5676C106.046 39.5662 105.94 39.4802 105.91 39.3225C105.878 39.1591 105.969 39.0455 106.078 38.9716C106.165 38.9126 106.27 38.8636 106.369 38.8579C106.93 38.8224 107.479 38.62 107.768 38.6725L107.767 38.6733Z" fill="#FECA90"/>
<path d="M185.118 127.886C183.963 128.059 182.805 128.21 181.646 128.346C180.791 128.446 180.205 128.863 179.987 129.883C179.814 130.697 179.497 131.457 179.171 132.207C178.83 132.99 178.87 133.685 179.394 134.385C180.222 135.49 180.996 136.648 181.782 137.793C182.298 138.541 182.248 139.276 181.686 139.981C180.474 141.5 179.193 142.941 177.928 144.401C177.239 145.195 176.652 145.241 175.887 144.57C174.96 143.758 174.039 142.935 173.113 142.122C172.932 141.962 172.739 141.817 172.546 141.676C172.144 141.38 171.74 141.356 171.305 141.619C170.492 142.11 169.644 142.509 168.774 142.853C168.204 143.08 167.856 143.499 167.783 144.258C167.658 145.561 167.539 146.864 167.426 148.168C167.396 148.499 167.359 148.833 167.294 149.157C167.153 149.853 166.674 150.29 166.028 150.317C165.631 150.335 165.234 150.34 164.838 150.324C163.5 150.27 162.169 150.428 160.834 150.443C160.563 150.447 160.297 150.424 160.028 150.354C159.474 150.207 159.145 149.807 159.038 149.202C158.919 148.526 158.864 147.836 158.781 147.151C158.66 146.16 158.54 145.17 158.417 144.179C158.352 143.654 158.08 143.307 157.66 143.128C156.682 142.713 155.711 142.282 154.762 141.784C154.256 141.518 153.776 141.741 153.365 142.12C152.438 142.971 151.519 143.834 150.597 144.693C150.532 144.753 150.474 144.823 150.409 144.882C149.627 145.588 149.015 145.594 148.297 144.802C146.974 143.341 145.673 141.853 144.378 140.359C143.835 139.733 143.837 138.997 144.344 138.222C144.782 137.553 145.236 136.898 145.683 136.238C146.016 135.748 146.35 135.259 146.684 134.77C147.122 134.129 147.244 133.482 146.859 132.721C146.418 131.853 146.139 130.895 145.829 129.956C145.605 129.278 145.176 128.937 144.543 128.905C144.337 128.894 144.134 128.821 143.927 128.797C142.933 128.687 141.939 128.55 140.942 128.485C139.884 128.417 139.283 127.73 139.342 126.582C139.367 126.105 139.345 125.626 139.341 125.147C139.34 124.934 139.373 124.711 139.227 124.534C139.39 124.19 139.688 124.248 139.947 124.244C140.719 124.23 141.492 124.211 142.263 124.266C142.641 124.305 143.012 124.412 143.39 124.454C144.664 124.582 145.936 124.586 147.208 124.438C147.438 124.402 147.668 124.403 147.896 124.453C149.326 124.583 150.756 124.573 152.185 124.451C152.784 124.46 153.38 124.668 153.982 124.483C154.123 124.456 154.26 124.461 154.39 124.536C154.406 124.55 154.42 124.564 154.434 124.578C154.631 124.789 154.652 125.088 154.707 125.369C155.488 129.315 158.175 132.267 161.679 132.829C167.195 133.712 171.261 128.776 171.281 123.471C171.303 117.905 167.454 113.603 162.596 113.732C162.153 113.743 161.727 113.866 161.292 113.921C161.123 113.942 160.95 113.977 160.817 113.886C160.753 113.841 160.699 113.767 160.659 113.647C160.6 113.387 160.614 113.123 160.614 112.86C160.612 107.674 160.612 102.488 160.615 97.3017C160.615 96.9714 160.57 96.629 160.73 96.3214C160.884 96.1296 161.093 96.0977 161.299 96.0948C162.706 96.0749 164.112 96.0657 165.518 96.0998C165.704 96.104 165.888 96.1467 166.056 96.2447C166.26 96.342 166.421 96.5097 166.59 96.6645C167.155 97.5248 167.07 98.5726 167.195 99.5515C167.307 100.424 167.427 101.298 167.498 102.178C167.547 102.804 167.875 103.257 168.377 103.465C169.241 103.823 170.088 104.224 170.939 104.617C171.477 104.866 171.986 104.759 172.458 104.317C173.331 103.503 174.197 102.677 175.079 101.875C176.208 100.848 176.849 100.876 177.852 102.018C178.962 103.281 180.074 104.538 181.223 105.757C182.234 106.831 182.249 107.55 181.424 108.809C180.76 109.821 180.083 110.824 179.402 111.82C179.157 112.179 178.909 112.538 178.889 113.022C178.867 113.227 178.92 113.439 178.842 113.638C179.236 114.588 179.643 115.531 179.914 116.54C180.151 117.426 180.737 117.771 181.475 117.831C182.701 117.931 183.917 118.119 185.139 118.271C185.983 118.376 186.468 118.924 186.487 119.9C186.509 121.024 186.499 122.15 186.502 123.274C186.505 124.208 186.473 125.143 186.519 126.073C186.574 127.188 186.02 127.752 185.121 127.887L185.118 127.886Z" fill="#FFCA8F"/>
<path d="M49.6702 71.8891C49.6355 71.5822 49.5779 71.2781 49.5233 70.9748C49.2815 69.6265 49.2165 69.5612 47.9822 69.797C47.6122 69.8681 47.3785 69.7665 47.1981 69.4134C47.1138 69.2493 47.0282 69.0803 46.9191 68.9375C46.6885 68.6363 46.7201 68.3351 46.8751 68.014C47.0375 67.6801 47.1981 67.3448 47.3499 67.0046C47.4696 66.7368 47.4398 66.4945 47.2123 66.3127C46.7846 65.971 46.3637 65.6172 45.9254 65.294C45.5702 65.0326 45.3743 65.0681 45.1183 65.451C44.9137 65.7564 44.6838 66.0306 44.4563 66.3112C44.3038 66.4995 44.1414 66.6018 43.9021 66.5038C43.7279 66.432 43.537 66.4121 43.3522 66.3766C43.0107 66.3105 42.7906 66.1201 42.7187 65.7017C42.6579 65.3522 42.5476 65.0141 42.4509 64.6738C42.3697 64.3897 42.1967 64.2299 41.9289 64.281C41.3952 64.3819 40.8621 64.487 40.3333 64.6149C40.0289 64.688 39.8932 64.9189 39.8988 65.2933C39.9037 65.6556 39.9719 66.0037 40.0116 66.3567C40.0544 66.7098 39.931 66.957 39.6626 67.1282C39.4803 67.2432 39.3037 67.3711 39.1313 67.5061C38.9243 67.668 38.7241 67.7163 38.4941 67.5558C38.2275 67.369 37.9548 67.1914 37.6752 67.0301C37.2642 66.7936 37.17 66.8007 36.8786 67.229C36.5594 67.6993 36.2786 68.2051 35.9841 68.6981C35.8298 68.9566 35.8682 69.1996 36.0628 69.4049C36.185 69.5335 36.3282 69.6365 36.4552 69.7608C37.2283 70.5159 37.2456 70.6225 36.9276 71.7186C36.8545 71.9722 36.7484 72.1249 36.5197 72.1981C36.1788 72.3067 35.8496 72.4644 35.5087 72.5746C35.208 72.6712 35.1014 72.8885 35.1491 73.2174C35.2309 73.7815 35.3134 74.3462 35.4163 74.9053C35.4956 75.3343 35.6401 75.4672 36.0213 75.4707C36.3337 75.4729 36.6511 75.4729 36.9574 75.4125C37.2747 75.35 37.47 75.4771 37.638 75.7655C38.1792 76.6933 38.1829 76.6911 37.7446 77.6764C37.6783 77.8256 37.6045 77.9698 37.5432 78.1218C37.3646 78.5644 37.3783 78.6773 37.7229 78.9657C38.1091 79.2904 38.5096 79.5951 38.9131 79.8921C39.2863 80.167 39.3979 80.1492 39.7178 79.7635C39.9471 79.4864 40.1517 79.1831 40.3711 78.8954C40.5193 78.7001 40.6873 78.5999 40.9247 78.7057C41.0586 78.7647 41.2092 78.7732 41.3531 78.8002C41.7516 78.8741 42.0504 79.0581 42.1316 79.5731C42.1788 79.8764 42.2854 80.1684 42.3784 80.4604C42.5222 80.91 42.6207 80.9903 43.0274 80.92C43.4998 80.8376 43.9709 80.7338 44.4377 80.6131C44.8121 80.5165 44.9082 80.3595 44.9156 79.907C44.9199 79.62 44.9547 79.3174 44.8896 79.0496C44.7644 78.5367 44.9199 78.2227 45.308 77.9961C45.4369 77.9208 45.556 77.8199 45.6725 77.7198C45.8957 77.5301 46.1157 77.4896 46.3643 77.67C46.5931 77.8355 46.8367 77.9748 47.0735 78.1268C47.5539 78.4351 47.6934 78.4081 48.0126 77.9094C48.2221 77.5819 48.4143 77.2395 48.6226 76.9106C49.0714 76.2017 49.0547 76.0355 48.4627 75.4999C47.5861 74.7064 47.5551 74.5721 47.9277 73.3922C47.9922 73.1876 48.1013 73.0818 48.2742 73.0256C48.5947 72.9219 48.9164 72.8189 49.232 72.6967C49.6368 72.5405 49.7254 72.3799 49.6708 71.8912L49.6702 71.8891ZM42.4094 75.6135C40.8168 75.5141 39.7909 74.2461 39.8114 72.5767C39.8318 70.8604 40.8609 69.6812 42.4001 69.6052C43.8246 69.5356 45.0383 70.9642 45.0396 72.6001C45.0408 74.2375 43.8382 75.6156 42.41 75.6135H42.4094Z" fill="#FFCA8F"/>
<path d="M114.749 163.478C114.632 162.701 114.505 161.927 114.373 161.153C114.252 160.434 114.02 160.211 113.388 160.24C112.867 160.263 112.347 160.315 111.827 160.369C111.496 160.403 111.274 160.262 111.112 159.926C110.951 159.593 110.77 159.266 110.563 158.967C110.349 158.656 110.362 158.371 110.522 158.044C110.778 157.523 111.028 156.996 111.259 156.461C111.523 155.847 111.448 155.505 110.959 155.107C110.346 154.609 109.725 154.123 109.1 153.645C108.577 153.245 108.321 153.277 107.898 153.796C107.528 154.251 107.172 154.72 106.821 155.195C106.621 155.467 106.389 155.538 106.096 155.453C105.773 155.357 105.448 155.256 105.119 155.205C104.784 155.154 104.592 154.964 104.5 154.601C104.36 154.051 104.217 153.501 104.063 152.956C103.855 152.217 103.678 152.063 103.008 152.168C102.224 152.293 101.444 152.461 100.667 152.639C100.203 152.746 99.9716 153.137 99.9995 153.692C100.018 154.05 100.028 154.411 100.086 154.761C100.238 155.67 100.035 156.353 99.2302 156.702C99.136 156.743 99.0499 156.825 98.9742 156.906C98.6643 157.24 98.3605 157.203 98.0115 156.962C97.5832 156.666 97.1331 156.409 96.6837 156.156C96.2442 155.909 95.884 155.968 95.6231 156.379C95.1185 157.171 94.6325 157.979 94.1657 158.8C93.9369 159.203 94.0132 159.624 94.3194 159.966C94.4688 160.132 94.6418 160.27 94.7936 160.434C96.1202 161.866 95.9473 161.141 95.6138 163.188C95.5388 163.652 95.3379 163.838 94.9877 163.952C94.5054 164.108 94.0262 164.274 93.552 164.457C93.017 164.664 92.862 164.898 92.9439 165.525C93.0666 166.469 93.2222 167.408 93.4001 168.341C93.5067 168.898 93.7541 169.067 94.2673 169.044C94.5382 169.032 94.8085 169.005 95.0794 168.986C95.08 168.981 95.08 168.977 95.08 168.972C95.2468 168.972 95.4179 168.998 95.5803 168.967C96.1407 168.861 96.5597 169.016 96.7742 169.683C96.8449 169.901 96.9875 170.095 97.122 170.277C97.3768 170.622 97.3594 170.947 97.1604 171.326C96.9025 171.817 96.6787 172.333 96.4587 172.848C96.1977 173.455 96.2777 173.798 96.7674 174.196C97.347 174.666 97.9322 175.126 98.5198 175.582C99.1416 176.065 99.4336 176.021 99.9227 175.39C100.256 174.961 100.587 174.529 100.911 174.093C101.091 173.851 101.287 173.749 101.572 173.84C101.932 173.957 102.302 174.043 102.671 174.115C102.981 174.175 103.14 174.374 103.223 174.708C103.36 175.26 103.51 175.807 103.666 176.352C103.876 177.09 104.137 177.277 104.784 177.148C105.482 177.009 106.179 176.862 106.874 176.703C107.57 176.543 107.797 176.201 107.705 175.39C107.644 174.843 107.642 174.293 107.606 173.745C107.58 173.362 107.704 173.114 108.004 172.938C108.262 172.786 108.514 172.605 108.738 172.394C109.064 172.087 109.367 172.104 109.715 172.337C110.147 172.627 110.592 172.891 111.04 173.149C111.511 173.42 111.835 173.347 112.133 172.873C112.596 172.135 113.047 171.386 113.483 170.627C113.787 170.1 113.742 169.716 113.348 169.29C113.06 168.979 112.768 168.665 112.45 168.398C111.955 167.985 111.712 167.517 111.985 166.808C112.075 166.574 112.097 166.298 112.12 166.038C112.153 165.675 112.326 165.489 112.619 165.392C113.08 165.241 113.537 165.077 113.994 164.909C114.737 164.636 114.884 164.365 114.75 163.478H114.749ZM107.89 164.77C107.825 167.272 106.056 169.281 103.838 169.275C101.592 169.269 99.8173 167.176 99.8278 164.571C99.8371 162.161 101.622 159.961 103.915 160.051C105.926 159.974 107.96 162.045 107.89 164.77L107.89 164.77Z" fill="#997088"/>
<path d="M186.472 112.491C186.522 112.554 186.571 112.618 186.62 112.68C186.433 113.351 186.006 113.679 185.418 113.719C183.489 113.849 181.557 113.808 179.626 113.835C179.348 113.838 179.102 113.698 178.839 113.637C178.745 113.482 178.703 113.314 178.735 113.126C179.863 113.4 181.009 113.359 182.149 113.324C183.19 113.292 184.227 113.133 185.271 113.18C185.791 113.204 186.042 112.652 186.472 112.491Z" fill="#A17C91"/>
<path d="M160.804 81.7916C161.867 81.7198 162.919 81.5266 163.97 81.3483C164.417 81.2723 164.73 80.9335 164.867 80.4454C165.163 79.3962 165.527 78.3804 165.935 77.3837C166.178 76.792 166.048 76.2742 165.703 75.7875C164.911 74.6744 164.128 73.5542 163.339 72.4389C162.621 71.423 162.645 70.6679 163.443 69.7274C164.637 68.3202 165.86 66.9442 167.022 65.5028C167.683 64.6824 168.622 64.6099 169.362 65.3011C170.317 66.1926 171.32 67.0166 172.279 67.9025C172.815 68.3976 173.342 68.4885 173.951 68.1078C174.648 67.6716 175.379 67.3136 176.134 67.0344C176.837 66.7744 177.183 66.2786 177.237 65.4183C177.324 64.0366 177.49 62.6614 177.605 61.2818C177.717 59.9357 178.454 59.4782 179.331 59.4839C181.085 59.496 182.839 59.4207 184.593 59.3986C185.583 59.3859 186.14 59.9762 186.255 61.1049C186.282 61.3657 186.328 61.6242 186.357 61.8849C186.49 63.094 186.622 64.303 186.752 65.5128C186.82 66.1422 187.099 66.584 187.63 66.7829C188.524 67.1182 189.398 67.5047 190.24 67.9877C190.781 68.2974 191.249 68.107 191.686 67.6993C192.609 66.8376 193.535 65.9809 194.46 65.1221C194.557 65.0319 194.651 64.9367 194.752 64.8521C195.489 64.2355 196.174 64.2782 196.838 65.0113C197.74 66.0079 198.627 67.0223 199.524 68.0268C199.882 68.4281 200.242 68.8288 200.608 69.2202C201.393 70.0598 201.467 70.9009 200.814 71.8819C200.067 73.0043 199.325 74.1331 198.547 75.2271C198.093 75.8657 198.026 76.4873 198.365 77.2083C198.752 78.0302 199.069 78.8912 199.327 79.777C199.544 80.5243 199.981 80.878 200.671 80.9413C201.939 81.0585 203.205 81.2183 204.469 81.3852C205.392 81.5074 205.883 82.1688 205.904 83.2961C205.924 84.3489 205.921 85.4024 205.927 86.4551C205.932 87.4127 205.94 88.3696 205.94 89.3272C205.94 89.6085 205.992 89.9054 205.817 90.1555C205.688 90.0787 205.624 89.9452 205.578 89.796C205.441 88.197 205.55 86.593 205.516 84.9918C205.504 84.4178 205.552 83.841 205.489 83.2699C205.385 82.33 205.004 81.9329 204.179 81.8449C202.933 81.712 201.688 81.5557 200.444 81.3909C199.759 81.3 199.269 80.8802 199.01 80.1663C198.642 79.1497 198.303 78.1211 197.895 77.1223C197.58 76.3509 197.753 75.6213 198.191 74.9699C198.88 73.9463 199.567 72.9219 200.255 71.8976C201.04 70.729 200.988 70.349 200.065 69.3559C198.968 68.176 197.933 66.925 196.862 65.7145C195.98 64.7172 195.615 64.6866 194.67 65.5646C193.81 66.3631 192.935 67.1424 192.091 67.9628C191.368 68.6661 190.62 68.7968 189.778 68.2981C189.126 67.9124 188.437 67.6318 187.743 67.364C186.892 67.0365 186.402 66.4036 186.3 65.3352C186.169 63.9571 186.014 62.5804 185.83 61.2087C185.71 60.3065 185.341 59.9144 184.541 59.8682C182.723 59.7631 180.913 60.0536 179.096 60.028C178.46 60.0188 178.144 60.4265 178.054 61.2967C177.948 62.341 177.837 63.3859 177.758 64.4344C177.754 64.482 177.754 64.5303 177.754 64.5779C177.762 66.1926 177.233 67.3349 175.754 67.7462C175.149 67.9145 174.588 68.2683 174.031 68.5986C173.34 69.0085 172.697 68.8863 172.099 68.3571C171.157 67.5231 170.208 66.6984 169.272 65.8559C168.463 65.1278 167.978 65.1526 167.249 65.9759C166.03 67.3541 164.817 68.7386 163.679 70.2076C163.175 70.859 163.146 71.3286 163.636 72.0567C164.363 73.1372 165.114 74.1963 165.884 75.237C166.507 76.0795 166.632 76.9419 166.173 77.9485C165.806 78.7533 165.547 79.6193 165.295 80.4817C165.061 81.2837 164.597 81.7419 163.849 81.8662C163.064 81.9969 162.276 82.102 161.491 82.2363C161.244 82.2789 160.99 82.3052 160.77 82.1098C160.719 81.9947 160.721 81.8875 160.805 81.7923L160.804 81.7916Z" fill="#9A7289"/>
<path d="M205.693 89.84C205.796 89.9132 205.807 90.034 205.817 90.1554C205.634 90.9198 205.115 91.1748 204.505 91.2693C203.225 91.4668 201.945 91.6635 200.662 91.8369C200.052 91.9193 199.674 92.2759 199.485 92.9358C199.211 93.8898 198.901 94.8282 198.499 95.7219C198.213 96.3555 198.311 96.9096 198.691 97.4445C199.508 98.5932 200.317 99.749 201.126 100.905C201.74 101.781 201.721 102.591 201.042 103.4C199.812 104.864 198.575 106.321 197.331 107.767C196.607 108.607 195.876 108.649 195.049 107.925C194.089 107.083 193.121 106.25 192.179 105.379C191.587 104.832 191.007 104.749 190.336 105.176C189.662 105.606 188.948 105.953 188.211 106.213C187.517 106.458 187.208 106.998 187.141 107.79C187.021 109.215 186.884 110.64 186.758 112.064C186.739 112.278 186.736 112.494 186.621 112.68C186.498 112.714 186.441 112.627 186.394 112.52C186.22 111.749 186.468 111.002 186.505 110.243C186.544 109.435 186.668 108.631 186.72 107.82C186.783 106.826 187.185 106.112 188.049 105.776C188.801 105.485 189.526 105.11 190.243 104.722C191.015 104.303 191.714 104.366 192.407 104.979C193.349 105.812 194.281 106.662 195.245 107.462C195.992 108.083 196.522 108.089 197.124 107.33C198.29 105.859 199.533 104.476 200.738 103.051C201.242 102.455 201.255 101.938 200.811 101.254C200.127 100.197 199.388 99.1878 198.644 98.1876C197.93 97.2279 197.704 96.2788 198.28 95.1145C198.628 94.412 198.846 93.6249 199.056 92.8463C199.29 91.9853 199.796 91.4995 200.583 91.3616C201.47 91.2068 202.362 91.0967 203.253 90.9638C204.157 90.8289 205.083 90.7948 205.694 89.84H205.693Z" fill="#9A7188"/>
<path d="M166.159 96.4408C166.147 96.3811 166.135 96.3207 166.123 96.261L166.094 96.2142C165.687 95.3006 165.326 94.3644 165.046 93.389C164.865 92.7533 164.481 92.3895 163.914 92.3185C162.882 92.1892 161.846 92.0926 160.811 91.9818C160.806 91.8497 160.801 91.7175 160.796 91.5861C161.299 91.7658 161.826 91.741 162.34 91.8298C162.854 91.9186 163.378 91.9406 163.895 92.0081C164.467 92.0827 164.969 92.3356 165.178 92.9891C165.56 94.179 166.031 95.3227 166.474 96.4813C166.483 96.509 166.493 96.5374 166.502 96.5651C166.506 96.6184 166.509 96.6716 166.513 96.7249C166.347 96.7079 166.247 96.5843 166.158 96.4401L166.159 96.4408Z" fill="#9C758C"/>
<path d="M182.233 76.6591C177.422 76.6378 173.53 80.9903 173.504 86.5787C173.478 92.2695 177.491 96.5558 182.162 96.5779C186.96 96.6006 190.877 92.1345 190.888 86.6547C190.919 81.3334 187.221 76.6812 182.233 76.6591ZM182.174 96.2802C177.282 96.2554 173.672 91.5378 173.792 86.6206C173.682 81.8448 177.052 76.9532 182.224 76.9603C187.118 76.9674 190.636 81.5557 190.631 86.6114C190.626 91.9583 186.844 96.303 182.175 96.2795L182.174 96.2802Z" fill="#9A7189"/>
<path d="M79.1843 165.158C78.8508 165.708 78.389 166.567 78.3165 166.618C76.789 167.702 77.9445 167.243 76.789 167.702C74.9616 168.426 73.7949 168.667 71.8869 168.59C68.9095 168.47 66.9128 168.335 64.0092 167.625C62.912 167.337 62.7632 167.449 61.6982 167.116C61.8086 166.552 61.914 165.986 61.9245 165.402C61.9233 165.402 61.9226 165.402 61.9214 165.401H61.9208C62.3597 162.936 62.7973 160.469 63.2356 158.003C63.5641 155.973 63.8016 154.552 63.9751 153.542C67.6381 155.216 71.2062 157.121 74.55 159.559C75.8381 160.499 77.0482 161.559 78.0629 162.884C78.2142 163.081 78.3568 163.288 78.4919 163.5C78.8285 164.029 79.0777 164.577 79.1843 165.159V165.158Z" fill="#F29353"/>
<path d="M102.093 118.685C101.799 118.43 101.455 118.5 101.127 118.5C97.8339 118.494 94.5397 118.496 91.2462 118.496C89.4534 118.496 87.6607 118.503 85.868 118.492C85.2822 118.488 85.2307 118.386 85.4743 117.787C85.7911 117.007 86.1525 116.253 86.5449 115.518C87.1431 114.194 87.8913 113 88.7554 111.883C89.6803 110.685 90.6926 109.577 91.5487 108.31C92.2796 107.386 92.9243 106.385 93.5485 105.369C93.7493 105.041 93.9917 104.652 94.2756 104.203C94.4157 103.88 94.3128 104.137 94.4418 103.819C94.5949 103.512 94.7864 103.231 94.9302 102.916C95.0741 102.537 95.2675 102.191 95.4516 101.838C95.8892 100.751 96.2388 99.6289 96.4149 98.4433C96.6709 96.7128 96.3696 95.1316 95.4857 93.686C94.7232 92.44 93.5882 91.7566 92.5009 90.9958C92.4754 90.9773 92.4494 90.961 92.4234 90.9454C91.8965 90.6385 91.333 90.441 90.7658 90.284C89.1807 89.8457 87.6421 89.9601 86.2039 90.9354C84.0411 92.4918 82.6023 94.8069 81.2386 97.1881C79.5239 100.181 77.9698 103.292 76.1926 106.238C75.8163 106.861 75.4512 107.497 75.0142 108.117C74.9026 108.276 74.6906 108.273 74.5815 108.112L74.5796 108.109C74.375 107.845 74.4513 107.52 74.4513 107.219C74.4463 102.117 75.3098 97.5816 75.308 92.4791C75.308 92.1466 75.3148 91.6721 75.2373 91.3432C75.2138 91.2601 75.316 90.598 75.2658 90.5312C74.8586 90.3877 73.5004 90.7244 73.121 90.8338C68.6608 92.121 64.2626 93.6505 59.9215 95.3887C57.3762 96.4081 54.8582 97.507 52.4635 98.947C51.3663 99.6069 50.398 100.386 49.8841 101.748C49.3702 103.11 48.8681 104.476 48.4503 105.883C46.2689 113.231 44.5232 120.723 42.8266 128.23C42.7832 128.412 42.7627 128.593 42.8092 128.777C42.7751 128.988 42.7509 129.202 42.7051 129.408C41.8874 133.129 41.0679 136.85 40.2472 140.57C40.0438 141.491 39.8343 142.409 39.6329 143.33C39.5188 143.85 39.4382 144.234 39.4221 144.313C39.3427 144.687 39.207 145.308 38.995 146.268C38.6187 147.968 38.0007 150.734 37.0225 155.077C37.4025 155.346 37.7862 155.611 38.1699 155.874C38.4241 156.048 38.6788 156.221 38.933 156.394C39.1642 156.546 39.3973 156.696 39.6298 156.843C39.8951 157.037 40.166 157.223 40.4313 157.415C41.5793 158.244 42.7894 158.948 44.0143 159.617C44.9609 160.134 45.9267 160.59 46.908 161C50.0726 162.614 53.3103 164.039 56.6013 165.319C56.6236 165.327 56.6453 165.337 56.6677 165.345C56.8648 165.422 57.0625 165.498 57.2597 165.573C57.6905 165.607 58.1226 165.642 58.5534 165.68C59.4894 165.762 60.4087 165.705 61.3268 165.574C61.5208 165.547 61.7136 165.516 61.9076 165.482C61.9126 165.455 61.917 165.428 61.9219 165.401H61.9225C62.3608 162.936 62.7984 160.469 63.2367 158.003C63.5653 155.972 63.8027 154.552 63.9762 153.542C64.05 153.111 64.1126 152.755 64.1653 152.458C64.2069 152.226 64.4015 151.141 64.6581 149.691C64.73 149.283 64.802 148.876 64.8745 148.469C64.6774 148.316 64.5205 148.486 64.3525 148.556C64.2918 148.582 64.231 148.608 64.1709 148.634C64.5205 148.453 64.8323 148.161 65.2377 148.14C65.6184 147.591 66.1769 147.378 66.7162 147.149C67.9634 146.619 69.2225 146.127 70.4703 145.601C71.544 145.148 72.5959 144.641 73.5134 143.832C73.6659 143.747 73.8128 143.655 73.9572 143.557C73.9579 143.556 73.9585 143.555 73.9597 143.555C75.008 142.846 75.8467 141.855 76.6383 140.803C78.6306 138.156 79.995 135.13 80.8158 131.765C80.8815 131.494 80.9503 131.224 81.0222 130.954C81.0222 130.952 81.0228 130.95 81.0234 130.948C81.2838 129.966 81.5776 128.993 81.8857 128.031C82.2663 126.846 82.6941 125.68 83.0034 124.467C83.4807 123.037 84.0083 121.628 84.4924 120.201C84.7745 119.37 85.191 119.048 85.9913 119.053C90.9654 119.092 95.9394 119.073 100.914 119.072C101.165 119.072 101.419 119.097 101.665 119.047C101.85 119.009 102.114 119.053 102.096 118.684L102.093 118.685ZM54.3945 150.596C54.7212 150.606 55.0466 150.602 55.3721 150.588C55.0466 150.604 54.7212 150.608 54.3945 150.596ZM57.9756 150.335C57.5944 150.379 57.2138 150.425 56.8332 150.466C57.2268 150.421 57.6192 150.372 58.0135 150.326C58.5373 150.266 59.058 150.189 59.5737 150.093C59.045 150.194 58.5131 150.274 57.9763 150.335H57.9756ZM60.1515 149.978C60.5352 149.895 60.9177 149.802 61.2983 149.698C60.9189 149.803 60.5364 149.896 60.1515 149.978ZM64.0984 148.671C63.8963 148.766 63.6936 148.855 63.4903 148.94C63.1778 149.08 62.8629 149.215 62.5393 149.323C62.1321 149.458 61.7229 149.582 61.3119 149.694C62.0477 149.49 62.7736 149.241 63.4903 148.94C63.7165 148.839 63.9415 148.735 64.1684 148.636C64.1455 148.648 64.1219 148.66 64.0984 148.671V148.671Z" fill="#FEA595"/>
<path d="M55.9731 150.55C55.4486 150.592 54.9223 150.615 54.3936 150.596C54.9223 150.613 55.4474 150.591 55.9731 150.55Z" fill="#FEA595"/>
<path d="M59.7666 150.057C60.2805 149.956 60.7913 149.836 61.2984 149.698C60.7919 149.838 60.2811 149.957 59.7666 150.057Z" fill="#FEA595"/>
<path d="M64.1689 148.635C64.146 148.647 64.1224 148.66 64.0988 148.67C63.8968 148.765 63.694 148.854 63.4907 148.939C63.717 148.838 63.942 148.733 64.1689 148.635V148.635Z" fill="#FEA595"/>
<path d="M82.9208 148.573C82.3326 148.961 81.7449 149.35 81.1566 149.738C80.7307 149.685 80.7252 149.22 80.572 148.921C79.9534 147.704 79.9608 147.694 78.9095 148.462C77.4397 149.535 76.0858 150.763 75.0041 152.347C74.3551 153.299 73.8424 154.332 73.5635 155.506C73.5021 155.765 73.4841 156.103 73.124 156.073C71.9555 154.719 71.2358 153.11 71.1496 151.197C71.0963 150.021 71.3523 148.887 71.7261 147.786C72.1526 146.531 72.7768 145.408 73.4339 144.304C73.5158 144.167 73.6267 144.051 73.628 143.869C74.3359 143.168 75.1448 142.612 75.792 141.82C77.7961 139.365 79.3949 136.633 80.3098 133.409C80.6508 132.209 80.9948 131.009 81.3674 129.82C81.4281 129.626 81.4622 129.356 81.6916 129.345C81.9581 129.332 81.9315 129.65 81.9767 129.825C82.4925 131.818 83.276 133.646 84.4712 135.225C84.4985 135.261 84.5189 135.304 84.5406 135.345C84.7688 135.763 85.3385 135.964 85.2982 136.506C85.2616 136.996 84.8264 137.329 84.5958 137.754C83.568 139.65 83.0392 141.729 82.7758 143.928C82.5979 145.414 82.6208 146.865 82.9791 148.307C83.0039 148.406 82.9729 148.494 82.9215 148.574L82.9208 148.573Z" fill="#FEA595"/>
<path d="M83.1637 124.489C84.822 124.478 86.4796 124.463 88.1378 124.459C88.904 124.458 89.6708 124.48 90.437 124.491C90.7259 124.595 90.9267 124.836 91.1201 125.08C91.8485 125.998 92.7127 126.715 93.6369 127.347C93.6834 127.392 93.7132 127.448 93.7274 127.515C94.8997 129.896 95.8221 132.388 96.1673 135.11C96.3198 136.31 96.1599 137.463 95.5536 138.529C94.6114 140.185 93.7262 141.882 92.8168 143.562C92.7734 143.608 92.7344 143.658 92.6959 143.71V143.712C92.1876 143.692 91.9421 143.172 91.559 142.914C91.2987 142.739 91.0811 142.618 90.8523 142.949C89.403 145.043 87.8452 147.052 86.9705 149.588C86.5292 150.868 86.1932 152.163 86.3711 153.564C86.3866 153.684 86.3804 153.803 86.2899 153.891H86.2353L86.1808 153.886C86.1324 153.849 86.0835 153.814 86.0333 153.781C85.2764 153.478 84.7308 152.871 84.2796 152.146C83.731 151.267 83.377 150.283 83.1681 149.23C83.1265 149.023 83.0788 148.817 83.0342 148.609C82.3238 146.221 82.6189 143.849 83.1594 141.495C83.5444 139.82 84.1426 138.243 85.1102 136.893C85.4487 136.42 85.2051 136.184 84.9497 135.88C83.4117 134.049 82.4131 131.878 81.857 129.427C81.7262 128.851 81.7479 128.321 81.9636 127.759C82.2897 126.911 82.5172 126.015 82.8129 125.15C82.8953 124.909 82.9548 124.645 83.1637 124.49V124.489Z" fill="#FEA595"/>
<path d="M86.2906 153.89C86.0669 152.917 86.1406 151.951 86.3787 151.001C86.8312 149.195 87.5695 147.56 88.5533 146.046C89.286 144.918 90.0565 143.828 90.7998 142.712C90.9951 142.419 91.1513 142.349 91.4104 142.584C91.8332 142.968 92.2671 143.336 92.6967 143.712C92.5733 144.23 92.2578 144.631 92.0166 145.068C90.4458 147.912 88.8484 150.738 87.2546 153.565C86.926 154.148 86.8858 154.15 86.2906 153.89Z" fill="#FECAC1"/>
<path d="M73.1245 156.073C73.2931 155.985 73.3452 155.823 73.388 155.623C73.7419 153.96 74.5348 152.584 75.5471 151.354C76.7546 149.887 78.1525 148.709 79.6948 147.746C80.0358 147.533 80.0457 147.535 80.2558 147.953C80.5552 148.549 80.8565 149.143 81.1571 149.738C80.4542 150.328 79.7425 150.905 79.0507 151.512C77.4297 152.933 75.9035 154.478 74.4802 156.156C73.7928 156.967 73.7841 156.957 73.1251 156.072L73.1245 156.073Z" fill="#FECAC1"/>
<path d="M90.8145 124.484C92.9891 124.44 95.1631 124.433 97.3377 124.488C97.4939 124.56 97.6296 124.659 97.7139 124.835C98.0536 125.54 98.5161 126.144 98.9395 126.781C99.0678 126.974 99.2779 127.149 99.1974 127.457C98.3345 127.881 97.4542 128.197 96.4971 128.201C95.6931 128.205 94.9356 128.008 94.1954 127.675C94.0441 127.607 93.9084 127.473 93.728 127.515C93.7144 127.497 93.7001 127.479 93.6858 127.462C92.8013 126.733 91.8671 126.076 91.1455 125.117C91.0048 124.93 90.7618 124.807 90.8145 124.484Z" fill="#FEA595"/>
<path d="M82.9205 148.573C82.5504 147.137 82.4649 145.692 82.6261 144.194C82.8164 142.426 83.1927 140.735 83.8064 139.104C84.1225 138.264 84.554 137.506 85.0555 136.801C85.2297 136.556 85.2489 136.398 85.0331 136.148C83.5212 134.402 82.4773 132.338 81.9002 129.966C81.8562 129.784 81.7911 129.61 81.7297 129.412C81.4805 129.575 81.491 129.868 81.4198 130.1C80.9493 131.631 80.5736 133.199 80.0337 134.701C79.3481 136.61 78.4387 138.372 77.3241 139.997C76.5629 141.106 75.7694 142.178 74.7825 143.038C74.4199 143.354 74.0709 143.699 73.627 143.868C73.5892 143.854 73.5508 143.842 73.5117 143.833C73.7901 143.326 74.2891 143.127 74.6728 142.768C75.7173 141.794 76.5845 140.645 77.3879 139.42C78.6891 137.437 79.6946 135.285 80.3176 132.897C80.6213 131.732 81.0701 130.613 81.3336 129.438C81.6349 128.094 82.199 126.87 82.5393 125.548C82.6335 125.183 82.7718 124.834 82.8902 124.476C82.9819 124.481 83.073 124.484 83.1641 124.489C82.7897 125.651 82.4184 126.814 82.0384 127.974C81.894 128.415 81.8983 128.836 81.9994 129.3C82.5504 131.835 83.5999 134.046 85.1943 135.916C85.2377 135.967 85.2786 136.023 85.3257 136.07C85.578 136.319 85.596 136.539 85.3549 136.848C84.6246 137.784 84.1318 138.888 83.7469 140.056C83.3197 141.353 83.0166 142.68 82.892 144.065C82.843 144.61 82.7959 145.152 82.7879 145.701C82.7755 146.518 82.874 147.315 83.0786 148.095C83.127 148.279 83.2175 148.456 83.0352 148.609C82.9974 148.596 82.9596 148.584 82.9218 148.573H82.9205Z" fill="#C86958"/>
<path d="M99.1976 127.457C98.5609 126.481 97.871 125.549 97.3379 124.488C98.458 124.429 99.5782 124.438 100.698 124.483C100.806 124.892 100.899 125.309 101.029 125.709C101.109 125.957 101.061 126.095 100.882 126.251C100.351 126.71 99.8274 127.179 99.1982 127.457H99.1976Z" fill="#FECAC1"/>
<path d="M64.8736 148.469C61.3377 150.284 57.5985 150.731 53.7632 150.758C53.7991 150.422 53.9492 150.458 54.0589 150.463C55.1226 150.517 56.1833 150.42 57.2359 150.298C59.8481 149.996 62.425 149.501 64.8091 148.13C64.917 148.069 65.1079 147.718 65.2356 148.142C65.1148 148.251 64.9939 148.361 64.873 148.47L64.8736 148.469Z" fill="#CA6958"/>
<path d="M61.9248 165.402C61.9142 165.986 61.8088 166.552 61.6985 167.116C61.688 167.114 61.6762 167.11 61.6656 167.106C60.1853 166.64 58.7168 166.127 57.2594 165.574C57.0617 165.498 56.8639 165.422 56.6674 165.345C56.6451 165.337 56.6234 165.328 56.6011 165.319C57.7528 165.426 58.9052 165.51 60.0601 165.529C60.68 165.539 61.2943 165.33 61.9217 165.402H61.9223C61.9223 165.402 61.9241 165.402 61.9254 165.402H61.9248Z" fill="#F58D7A"/>
<path d="M89.1688 92.1338C91.4208 91.898 93.8099 94.0604 94.4831 96.3101C94.6958 97.0212 94.8526 97.7152 94.8377 98.4682C94.8303 98.8482 94.7385 99.158 94.5272 99.4499C93.5855 100.751 92.6724 102.08 91.7116 103.362C91.1425 104.121 90.5815 104.893 89.9387 105.578C89.7533 105.776 89.5965 105.862 89.3367 105.798C88.3121 105.541 87.3407 105.136 86.4251 104.55C85.1004 103.702 83.9883 102.56 82.9462 101.312C82.7255 101.048 82.6766 100.846 82.8266 100.508C83.8649 98.1634 84.8896 95.81 85.9075 93.453C86.0662 93.085 86.3023 92.8577 86.6235 92.7078C87.6841 92.2127 88.0232 92.0976 89.1688 92.1353V92.1338Z" fill="#FECAC1"/>
<path d="M55.9471 105.934C56.7796 107.13 57.6481 108.289 58.6238 109.337C60.2585 111.092 62.0574 112.588 64.007 113.854C65.2456 114.658 66.5474 115.288 67.8746 115.862C67.9886 115.911 68.1126 115.949 68.213 116.126C67.8609 116.513 67.4506 116.819 67.0321 117.115C66.8697 117.23 66.7222 117.19 66.5592 117.109C64.7329 116.2 63.0369 115.045 61.4754 113.628C60.5914 112.826 59.739 111.983 58.9772 111.029C57.7659 109.513 56.6482 107.914 55.8126 106.08C55.7735 105.931 55.83 105.896 55.9465 105.934H55.9471Z" fill="#C46554"/>
<path d="M65.9203 103.784C66.4615 106.038 67.1644 108.2 68.1166 110.253C68.7148 111.543 69.3942 112.772 70.1648 113.933C70.3185 114.164 70.3061 114.301 70.1263 114.461C69.897 114.665 69.667 114.866 69.4407 115.067C67.8476 113.267 65.7374 106.544 65.9203 103.784Z" fill="#C46554"/>
<path d="M55.9472 105.934C55.9026 105.983 55.858 106.031 55.8133 106.08C55.6342 105.806 55.416 105.555 55.354 105.104C55.677 105.33 55.7811 105.663 55.9466 105.934H55.9472Z" fill="#DC7E6D"/>
<path d="M90.8145 124.484C91.5342 125.458 92.3556 126.297 93.3096 126.961C93.482 127.081 93.7157 127.142 93.6859 127.461C92.9507 127.218 92.3996 126.63 91.8318 126.099C91.3228 125.622 90.8585 125.077 90.437 124.491C90.5629 124.489 90.6887 124.487 90.8139 124.485L90.8145 124.484Z" fill="#CB6C5B"/>
<path d="M78.7501 166.01C78.4166 166.56 77.9536 166.825 77.881 166.876C76.3536 167.96 76.4193 167.773 75.2465 168.173C73.1636 168.882 73.7953 168.668 71.8872 168.59C68.9099 168.47 66.9132 168.335 64.0096 167.626C62.9124 167.337 62.7636 167.45 61.6986 167.117C61.6881 167.114 61.6763 167.111 61.6657 167.107C60.1854 166.641 58.7169 166.127 57.2595 165.574C57.0618 165.499 56.864 165.423 56.6675 165.346C56.6452 165.338 56.6235 165.328 56.6012 165.32C53.3101 164.04 50.0724 162.615 46.9078 161.001C45.9265 160.591 44.9607 160.135 44.0141 159.618C42.7892 158.949 41.5792 158.246 40.4311 157.416C40.1658 157.224 39.8949 157.038 39.6296 156.844C39.3971 156.696 39.1641 156.546 38.9328 156.395C38.6787 156.221 38.4239 156.048 38.1697 155.875C37.786 155.612 37.4023 155.347 37.0223 155.078C36.974 155.044 36.9256 155.009 36.8773 154.975C35.749 154.173 34.6462 153.327 33.6209 152.348C33.6141 152.341 33.6073 152.334 33.6005 152.328C33.5856 152.314 33.5707 152.299 33.5558 152.285C33.5478 152.277 33.5397 152.269 33.5317 152.261C33.0134 151.752 31.5424 150.202 30.1712 147.791C30.1235 147.707 30.0788 147.627 30.0385 147.554C29.9685 147.428 29.9096 147.319 29.865 147.235C29.865 147.235 29.8648 147.236 29.8644 147.237C29.8135 147.41 29.7267 147.695 29.6127 148.049C29.6009 148.085 29.5885 148.122 29.5761 148.16C29.4093 148.675 29.2761 149.05 29.2488 149.127C28.6345 150.874 27.8292 153.832 27.8292 153.832C27.386 155.461 24.7347 163.668 17.3579 185.871C18.147 187.483 18.8853 188.859 19.8133 190.394C19.8133 190.394 19.8139 190.396 19.8152 190.396C23.6833 196.527 28.1367 201.796 33.086 206.14C33.0959 206.149 33.1058 206.157 33.1157 206.165C37.4848 209.995 42.24 213.101 47.3225 215.44C47.3976 215.475 47.4726 215.509 47.5476 215.544C51.0711 217.145 54.7508 218.381 58.5656 219.232C58.5669 219.232 58.5675 219.232 58.5681 219.232C63.0692 220.236 67.7593 220.706 72.6063 220.619C72.6107 220.562 72.615 220.506 72.62 220.449C73.2616 212.078 74.0036 204.645 74.722 198.312C75.81 188.724 76.8849 181.32 77.3851 177.952C78.2071 172.434 78.6361 168.327 79.1859 165.159C79.1401 165.161 78.9101 165.75 78.7514 166.011L78.7501 166.01ZM29.5389 148.917V148.911C29.5389 148.911 29.5395 148.915 29.5401 148.916L29.5389 148.917Z" fill="#FFCA8F"/>
<path d="M38.9941 146.267C38.6178 147.967 37.9998 150.734 37.0216 155.077C36.9733 155.043 36.9249 155.008 36.8765 154.974C35.7483 154.172 34.6455 153.325 33.6202 152.346C33.6134 152.34 33.6066 152.333 33.5998 152.326C33.5849 152.312 33.57 152.298 33.5551 152.283C33.5471 152.275 33.539 152.267 33.531 152.259C33.0127 151.751 31.5417 150.201 30.1705 147.789C30.1395 147.7 30.0967 147.617 30.0378 147.553C29.9678 147.426 29.9089 147.317 29.8643 147.234C30.1228 146.741 30.5573 146.369 31.1772 146.093C32.6048 145.455 33.9711 145.436 34.4218 145.445C35.3764 145.463 37.2702 145.789 38.9947 146.268L38.9941 146.267Z" fill="#F29353"/>
<path d="M94.9986 103.132C95.006 103.245 95.0097 103.361 95.0215 103.474C95.0674 103.896 94.8864 104.002 94.5615 103.911C94.6812 103.632 94.8082 103.358 94.9986 103.132Z" fill="#226C9F"/>
<path d="M142.487 124.494C141.71 124.614 140.929 124.516 140.151 124.546C139.884 124.557 139.617 124.563 139.35 124.57C138.623 124.43 137.893 124.554 137.164 124.546C125.301 124.421 113.436 124.517 101.572 124.489C101.323 124.489 101.073 124.511 100.823 124.522C100.599 124.747 100.322 124.716 100.057 124.72C99.1898 124.731 98.3226 124.722 97.4554 124.717C95.3049 124.723 93.1551 124.749 91.0053 124.705C90.8448 124.707 90.6836 124.698 90.523 124.722C88.1742 124.719 85.8261 124.737 83.4785 124.717C83.3136 124.685 83.1215 124.73 83.0161 124.516C82.9305 124.288 83.057 124.104 83.1202 123.912C83.6068 122.436 84.1517 120.988 84.6848 119.533C84.828 119.142 85.001 118.946 85.2967 118.875C85.4789 118.877 85.6785 118.845 85.8285 118.845H85.8323C86.1168 118.845 86.4007 118.846 86.6865 118.848C89.7829 118.86 92.8805 118.863 95.9769 118.86C96.4108 118.86 96.8454 118.86 97.2793 118.859C98.7925 118.88 100.27 118.955 101.767 118.87C101.902 118.879 102.037 118.876 102.163 118.793C102.181 118.784 102.198 118.774 102.215 118.762C102.475 118.674 102.598 118.463 102.607 118.168C102.608 118.158 102.609 118.148 102.609 118.138C102.612 117.396 102.624 116.655 102.602 115.915C102.591 115.503 102.41 115.318 102.056 115.274C101.891 115.254 101.722 115.266 101.555 115.266C97.4231 115.265 93.2915 115.267 89.1593 115.265C88.3249 115.265 87.4899 115.254 86.6555 115.247C87.0975 114.185 87.6858 113.225 88.3534 112.345C89.4041 110.959 90.5063 109.624 91.5862 108.268C91.8558 108.04 92.1695 108.032 92.485 108.032C103.013 108.032 113.542 108.03 124.071 108.034C124.258 108.034 124.447 108.035 124.631 108.071C124.87 108.103 125.056 108.251 125.221 108.441C126.578 109.996 127.993 111.478 129.415 112.954C130.296 113.867 131.203 114.746 132.118 115.615C132.377 115.885 132.679 116.097 132.922 116.389C135.855 119.034 138.877 121.535 142.028 123.829C142.151 123.918 142.283 123.991 142.387 124.112C142.469 124.223 142.54 124.337 142.487 124.494L142.487 124.494Z" fill="#03528E"/>
<path d="M105.727 71.7466C105.246 72.1679 104.685 71.9732 104.158 71.9981C103.358 72.0358 103.305 72.0656 103.304 72.9763C103.298 76.0749 103.304 79.1735 103.298 82.2715C103.297 82.6657 103.352 83.0813 103.117 83.4301C103.112 83.4244 103.107 83.418 103.101 83.4109C100.996 83.4109 98.8899 83.4109 96.7841 83.4116V83.4045L95.99 83.4052H80.8037C80.8105 83.2411 81.4639 83.0855 81.4707 82.9214C81.4565 83.0997 81.4174 83.2731 81.3182 83.4336C81.3139 83.4265 81.3089 83.4194 81.3033 83.4123C79.1337 83.4095 76.9641 83.4066 74.7938 83.4045C74.7926 83.4315 74.7913 83.4585 74.7901 83.4855C74.7628 83.4613 74.7386 83.4329 74.7163 83.4009C74.7256 81.6577 74.7405 79.9145 74.7423 78.1712C74.7467 75.1848 74.7423 72.1984 74.7423 69.212C74.7423 66.7464 75.4056 64.5598 76.8903 62.7505C77.8387 61.5948 78.97 60.775 80.3803 60.5633C80.601 60.4511 80.8335 60.5072 81.0597 60.5072C88.5741 60.5036 96.0879 60.5051 103.601 60.5036C103.91 60.5775 103.878 60.8816 103.905 61.1273C104.264 64.3574 104.916 67.515 105.671 70.6477C105.756 71.0022 105.949 71.3645 105.728 71.7466H105.727Z" fill="#03528E"/>
<path d="M102.609 118.138C102.609 118.148 102.608 118.158 102.607 118.168C102.593 118.404 102.419 118.632 102.215 118.763C102.198 118.774 102.18 118.785 102.164 118.793C102.118 118.82 102.071 118.84 102.024 118.854C101.939 118.86 101.852 118.865 101.768 118.871C100.27 118.954 98.7926 118.88 97.2801 118.859C96.8498 118.854 96.4153 118.852 95.9777 118.86C92.8813 118.862 89.7836 118.861 86.6872 118.849C86.4015 118.847 86.1175 118.845 85.833 118.845H85.8293C85.6793 118.846 85.4797 118.877 85.2974 118.876C85.2044 118.874 85.1152 118.864 85.0396 118.836C85.1189 118.231 86.1262 116.026 86.6556 115.247C87.49 115.253 88.325 115.265 89.1594 115.265C93.2916 115.267 97.4233 115.266 101.555 115.266C101.722 115.266 101.891 115.255 102.056 115.274C102.411 115.318 102.591 115.504 102.603 115.915C102.624 116.655 102.612 117.397 102.609 118.138Z" fill="white"/>
<path d="M124.923 108.29C113.812 108.291 102.699 108.292 91.587 108.293C92.3079 107.2 93.0915 106.161 93.7572 105.022C93.8279 104.902 93.8967 104.781 93.9643 104.658C93.9946 104.603 94.0275 104.559 94.061 104.524C94.2755 104.301 94.5563 104.426 94.7956 104.341H94.7962C95.263 104.448 94.9958 104.997 95.2227 105.275C95.3367 104.931 95.2685 104.537 95.514 104.263C95.6051 104.161 95.5605 104.051 95.4991 103.942C95.1353 103.296 95.2797 102.619 95.413 101.944C95.6132 101.343 95.8258 100.747 96.0093 100.139C96.2815 99.2322 96.4569 98.3009 96.4575 97.3348C96.4581 95.4431 95.7812 93.9208 94.5358 92.7089C94.1056 92.2905 93.632 91.9424 93.141 91.6241C92.9452 91.497 92.7152 91.4252 92.5751 91.1993C92.5887 91.1844 92.6017 91.1709 92.616 91.1581C92.0606 90.9322 91.5151 90.6623 90.9441 90.5089C89.3665 90.0841 87.8428 90.2794 86.4164 91.21C86.3687 91.21 86.3209 91.2093 86.2738 91.2086L86.2751 91.21C84.181 92.8616 82.7323 95.1667 81.3686 97.5607C79.8845 100.166 78.5294 102.865 77.007 105.442C76.4329 106.413 75.8323 107.362 75.2384 108.316C75.1838 108.404 75.1237 108.49 75.0617 108.573C74.9576 108.713 74.7567 108.636 74.7499 108.452C74.7499 108.449 74.7493 108.446 74.7481 108.444C74.5999 108.144 74.5732 107.821 74.5732 107.481C74.5763 102.185 74.7282 98.3897 74.7257 93.0932C74.7257 92.7543 74.74 91.3641 74.7443 90.6254C74.7487 88.5106 74.7096 88.7734 74.7171 86.6587C74.7183 86.4015 74.7047 84.2249 74.7171 83.9685C74.7183 83.9415 74.7158 83.4528 74.7171 83.4258C76.8873 83.4279 79.1344 83.4343 81.3041 83.4371C81.3091 83.4442 81.314 83.4514 81.319 83.4585C81.3586 83.5153 81.3878 83.5757 81.4095 83.6375L81.4461 83.4371L95.7911 83.43C95.7998 83.4435 95.8097 83.4563 95.819 83.4698C95.8283 83.4592 95.8382 83.4478 95.8488 83.4371H96.7848C98.8906 83.4364 100.996 83.4364 103.102 83.4364C103.129 83.4705 103.157 83.5053 103.185 83.538C103.343 83.8975 103.301 84.2853 103.301 84.6647C103.306 87.7214 103.301 90.7788 103.305 93.8369C103.307 94.803 103.344 94.8435 104.191 94.8442C107.506 94.8478 110.821 94.8449 114.136 94.8464C114.47 94.8464 114.804 94.8336 115.135 94.8712C115.507 94.9018 115.717 95.1859 115.915 95.5099C117.306 97.7766 118.737 100.01 120.278 102.148C121.154 103.362 122.088 104.518 122.972 105.724C123.234 106.076 123.545 106.376 123.796 106.739C124.091 107.058 124.406 107.355 124.675 107.703C124.804 107.869 124.999 108.007 124.924 108.291L124.923 108.29Z" fill="#0167A0"/>
<path d="M122.908 105.756C120.747 103.029 118.698 100.198 116.843 97.1851C116.38 96.4328 115.967 95.6301 115.396 94.9673C114.638 94.0886 114.171 92.9804 113.603 91.9547C112.068 89.1856 110.774 86.2639 109.504 83.3287C108.061 79.8003 106.828 76.1788 105.812 72.4607C105.732 72.1659 105.633 71.8697 105.734 71.5529C105.047 68.8876 104.476 66.1889 104.039 63.4561C103.883 62.4801 103.69 61.5005 103.73 60.4932C120.303 60.4932 136.875 60.4946 153.448 60.4953C153.846 60.4953 154.242 60.4974 154.64 60.4988C155.506 60.6097 155.662 60.6537 155.884 60.761C157.676 61.2717 158.445 62.4751 159.397 64.2318C159.935 65.2235 160.319 66.3061 160.495 67.4676C160.533 67.7233 160.527 67.9876 160.542 68.2475C160.637 68.3981 160.597 68.5715 160.597 68.7341C160.599 73.7366 160.6 78.7383 160.594 83.7407C160.594 83.9396 160.699 84.2159 160.495 84.326C160.301 84.4304 160.151 84.2109 160.014 84.0717C157.543 81.5535 154.682 79.8997 151.337 78.95C154.745 81.2466 156.986 84.5853 158.944 88.2231C159.314 88.9107 159.31 88.9143 159.953 88.53C160.537 88.1812 160.594 88.2259 160.601 89.0045C160.603 89.3661 160.619 89.722 160.354 90.0012C160.198 90.1652 160.173 90.3954 160.277 90.5957C160.701 91.4112 160.594 92.3084 160.597 93.1879C160.599 93.7285 160.625 94.2719 160.573 94.8658C160.206 94.7017 160.168 94.3742 160.09 94.0978C159.776 92.9769 159.337 91.9199 158.883 90.8671C158.676 90.3855 158.443 90.308 158.047 90.5751C156.184 91.8303 154.214 92.8107 152.132 93.4848C151.775 93.6006 151.683 93.8471 151.744 94.2406C152.1 96.506 152.203 98.8026 152.272 101.093C152.329 103.024 152.177 104.96 151.997 106.885C151.87 108.243 151.679 109.588 151.417 110.92C151.331 111.359 151.383 111.654 151.824 111.777C153.787 112.324 155.612 113.275 157.385 114.362C157.832 114.637 158.07 114.567 158.324 114.049C159.012 112.645 159.561 111.176 160.036 109.665C160.14 109.337 160.171 108.955 160.472 108.745C160.678 108.87 160.592 109.086 160.595 109.259C160.606 109.833 160.555 110.414 160.608 110.981C160.726 112.239 160.389 113.331 159.82 114.375C159.467 115.022 159.483 115.12 160.057 115.503C160.582 115.854 160.71 116.32 160.538 116.947C160.102 117.059 159.855 116.662 159.555 116.441C159.2 116.179 158.985 116.187 158.761 116.644C157.623 118.964 156.178 121.027 154.638 123.008C154.195 123.578 153.629 123.994 153.128 124.52C153.068 124.548 153.202 124.602 153.144 124.533C152.975 124.329 153.767 124.366 154.173 124.581C153.576 124.712 152.979 124.659 152.382 124.583C152.35 124.198 152.645 124.063 152.832 123.879C154.41 122.319 155.632 120.417 156.82 118.482C157.181 117.896 157.5 117.279 157.835 116.673C158.063 116.258 158.008 115.99 157.629 115.747C155.767 114.554 153.849 113.519 151.786 112.852C151.311 112.699 151.22 112.935 151.141 113.388C150.514 116.956 149.643 120.443 148.403 123.801C148.299 124.083 148.24 124.399 147.993 124.585C147.784 124.632 147.576 124.632 147.368 124.581C147.18 124.258 147.366 123.977 147.464 123.704C148.635 120.439 149.527 117.078 150.142 113.619C150.332 112.554 150.318 112.506 149.387 112.285C146.645 111.635 143.913 111.695 141.182 112.396C140.69 112.522 140.52 112.75 140.618 113.329C141.095 116.156 141.775 118.917 142.641 121.619C142.878 122.361 143.127 123.097 143.382 123.831C143.465 124.068 143.597 124.308 143.48 124.583C143.126 124.698 142.809 124.531 142.487 124.414C142.443 124.319 142.398 124.224 142.354 124.129C141.906 123.366 141.666 122.494 141.402 121.642C140.625 119.142 139.951 116.605 139.525 113.99C139.495 113.802 139.434 113.62 139.414 113.432C139.355 112.889 139.122 112.776 138.678 112.943C137.108 113.534 135.601 114.282 134.151 115.192C133.647 115.509 133.215 115.91 132.82 116.377C132.574 116.13 132.261 115.974 132.067 115.657C131.506 114.215 130.759 112.874 130.285 111.388C129.668 109.455 129.061 107.515 128.942 105.433C129.099 104.824 129.379 104.27 129.405 103.602C129.447 102.531 129.353 101.524 128.75 100.652C129.001 97.4764 129.759 94.463 130.981 91.6002C131.387 90.6469 131.397 90.6135 130.651 90.0466C129.935 89.5039 129.272 88.8873 128.611 88.2664C128.25 87.9269 128.008 87.9865 127.734 88.3943C125.558 91.6272 124.225 95.2586 123.713 99.2992C123.637 99.8945 123.929 100.195 124.195 100.561C124.1 100.71 123.953 100.732 123.811 100.753C123.215 100.84 122.906 101.277 122.772 101.898C122.638 102.52 122.759 103.068 123.215 103.482C123.329 103.585 123.449 103.677 123.511 103.836C123.593 104.17 123.671 104.506 123.723 104.849C123.627 105.307 123.078 105.245 122.977 105.7C122.954 105.719 122.931 105.739 122.908 105.757L122.908 105.756Z" fill="#087EBA"/>
<path d="M143.48 124.663C142.648 122.371 141.888 120.053 141.327 117.648C141.054 116.474 140.807 115.295 140.559 114.115C140.476 113.72 140.49 113.312 140.366 112.923C140.29 112.684 140.364 112.485 140.651 112.416C141.626 112.181 142.593 111.933 143.592 111.838C144.382 111.764 145.168 111.692 145.959 111.712C147.313 111.746 148.651 111.94 149.965 112.309C150.434 112.441 150.542 112.435 150.421 113.123C149.963 115.744 149.389 118.325 148.616 120.846C148.263 121.993 147.858 123.118 147.479 124.254C147.435 124.386 147.404 124.525 147.367 124.66C146.878 124.797 146.38 124.725 145.887 124.719C145.085 124.71 144.28 124.801 143.48 124.662V124.663Z" fill="#066CA8"/>
<path d="M123.526 99.6492C123.522 99.6919 123.518 99.7359 123.514 99.7821C123.517 99.7402 123.52 99.6961 123.526 99.6492Z" fill="#066CA8"/>
<path d="M123.683 105.596C123.739 106.398 123.785 106.94 123.785 106.94C123.746 106.903 123.708 106.864 123.67 106.827C123.69 106.439 123.395 106.076 123.599 105.672C123.627 105.647 123.656 105.621 123.684 105.596H123.683Z" fill="#066CA8"/>
<path d="M129.283 106.981C129.185 106.613 129.114 106.139 129.066 105.607C129.129 106.068 129.201 106.526 129.283 106.981Z" fill="#066CA8"/>
<path d="M132.821 116.457C132.921 115.936 132.918 115.93 133.369 115.609C134.735 114.637 136.171 113.835 137.69 113.227C138.237 113.008 138.778 112.773 139.397 112.617C139.545 113.356 139.706 114.082 139.835 114.814C140.327 117.598 141.091 120.285 141.977 122.934C142.116 123.351 142.359 123.734 142.354 124.208C141.184 123.521 140.139 122.608 139.051 121.775C137.221 120.374 135.449 118.881 133.737 117.293C133.433 117.012 133.027 116.878 132.821 116.456V116.457Z" fill="#066CA8"/>
<path d="M111.013 118.833C109.404 118.833 107.796 118.833 106.187 118.833C106.041 118.833 105.894 118.843 105.749 118.826C105.331 118.777 105.139 118.572 105.126 118.098C105.107 117.405 105.108 116.71 105.125 116.017C105.138 115.49 105.32 115.299 105.782 115.269C105.969 115.257 106.158 115.266 106.346 115.266C109.521 115.266 112.696 115.266 115.871 115.266C116.038 115.266 116.206 115.255 116.372 115.274C116.733 115.316 116.908 115.49 116.922 115.912C116.945 116.653 116.945 117.396 116.925 118.136C116.912 118.589 116.737 118.769 116.339 118.823C116.175 118.845 116.006 118.833 115.839 118.833C114.23 118.833 112.622 118.833 111.013 118.833H111.013Z" fill="white"/>
<path d="M105.733 71.6337C106.103 72.9187 106.457 74.2102 106.847 75.4867C107.539 77.7514 108.302 79.9848 109.196 82.1571C109.364 82.5627 109.484 82.9939 109.625 83.4137C109.41 83.6609 109.13 83.6389 108.863 83.6403C107.199 83.6495 105.533 83.6481 103.869 83.6417C103.599 83.6403 103.324 83.6417 103.103 83.4144L103.101 83.4123C103.101 79.8555 103.102 76.2994 103.102 72.7426C103.102 72.5756 103.11 72.408 103.102 72.2417C103.084 71.9072 103.214 71.7686 103.507 71.7757C104.028 71.7878 104.549 71.775 105.07 71.78C105.301 71.7821 105.529 71.7821 105.734 71.6351L105.733 71.6337Z" fill="#0167A0"/>
<path d="M160.537 117.026C160.612 116.413 160.444 116.007 159.915 115.713C159.185 115.309 159.185 115.194 159.62 114.433C159.942 113.87 160.159 113.246 160.435 112.657C160.517 112.483 160.538 112.298 160.538 112.103C160.536 111.074 160.537 110.045 160.537 108.95C160.362 109.098 160.342 109.283 160.299 109.44C159.913 110.833 159.408 112.168 158.827 113.466C158.638 113.891 158.413 114.295 158.225 114.72C158.114 114.972 157.991 115.006 157.78 114.877C157.356 114.619 156.919 114.389 156.492 114.136C154.933 113.209 153.312 112.466 151.6 111.993C151.141 111.866 151.112 111.782 151.205 111.245C151.513 109.474 151.78 107.699 151.911 105.892C151.971 105.057 152.006 104.228 152.006 103.394C152.006 102.937 152.184 102.512 152.139 102.047C151.996 100.58 152.037 99.1008 151.908 97.6289C151.803 96.4454 151.696 95.2669 151.52 94.0948C151.454 93.6622 151.515 93.5642 151.89 93.4484C153.73 92.878 155.473 92.0326 157.159 91.0225C157.565 90.7788 157.978 90.543 158.356 90.2482C158.609 90.05 158.702 90.1203 158.823 90.3952C159.357 91.6121 159.905 92.8218 160.256 94.131C160.315 94.3505 160.353 94.58 160.537 94.8386C160.537 93.8227 160.541 92.8957 160.535 91.9687C160.533 91.5403 160.297 91.2086 160.142 90.8484C159.875 90.2311 159.854 90.1977 160.311 89.866C160.497 89.731 160.543 89.5456 160.538 89.3176C160.535 89.0796 160.538 88.8424 160.538 88.549C160.026 88.6434 159.705 89.1016 159.248 89.2565C157.124 85.1598 154.7 81.3764 150.942 78.9888C151.053 78.7452 151.217 78.8034 151.335 78.8354C152.492 79.1487 153.631 79.5337 154.716 80.092C155.626 80.5595 156.531 81.0397 157.371 81.6676C158.365 82.4107 159.366 83.1388 160.209 84.1113C160.279 84.1923 160.339 84.2988 160.541 84.2967C160.541 78.9746 160.541 73.6518 160.541 68.329C160.758 68.594 160.659 68.9222 160.659 69.2198C160.664 79.3355 160.662 89.4511 160.662 99.5668C160.662 105.115 160.664 110.663 160.658 116.211C160.658 116.484 160.753 116.79 160.537 117.027V117.026Z" fill="#066CA8"/>
<path d="M103.104 83.4141C105.278 83.4141 107.452 83.4141 109.626 83.4141C109.803 83.5654 109.859 83.8055 109.947 84.0165C111.496 87.7082 113.267 91.2558 115.252 94.6627C115.322 94.7842 115.39 94.8993 115.396 95.0485C111.539 95.0485 107.682 95.0499 103.826 95.0499C103.722 95.0499 103.617 95.0421 103.513 95.0499C103.224 95.0726 103.086 94.9298 103.104 94.591C103.113 94.4248 103.104 94.2571 103.104 94.0895C103.104 90.5312 103.104 86.973 103.104 83.4148L103.104 83.4141Z" fill="#006CA4"/>
<path d="M123.665 105.705C123.678 105.958 123.647 106.216 123.753 106.459C123.811 106.593 123.793 106.733 123.67 106.827C123.416 106.497 123.162 106.167 122.908 105.837L122.94 105.792C123.167 105.602 123.395 105.428 123.665 105.705Z" fill="#097CB7"/>
<path d="M150.887 105.713C150.893 106.163 150.848 106.796 150.773 107.485C150.819 107.006 150.855 106.392 150.883 105.707C150.884 105.709 150.885 105.711 150.887 105.713Z" fill="#066CA8"/>
<path d="M150.713 107.996C150.525 109.511 150.229 111.14 150.058 111.642C149.256 111.5 148.443 111.37 147.636 111.206C147.428 111.163 147.225 111.138 147.017 111.138C146.306 111.135 145.597 111.149 144.888 111.133C143.612 111.103 142.362 111.303 141.124 111.628C140.696 111.741 140.672 111.749 140.58 111.263C140.404 110.336 140.23 109.407 140.104 108.469C139.853 106.612 139.678 104.747 139.701 102.858C139.709 102.249 139.502 101.617 139.611 101.014C139.833 99.7873 139.671 98.5463 139.813 97.3124C139.951 96.114 140.078 94.9121 140.217 93.713C140.25 93.4288 140.31 93.3457 140.569 93.4317C141.426 93.7173 142.315 93.8274 143.192 94.0035C143.274 94.0206 143.356 94.0369 143.439 94.039C143.979 94.0497 144.516 94.0525 145.055 94.1648C145.413 94.2387 145.801 94.2436 146.17 94.0994C146.304 94.0469 146.458 94.0419 146.602 94.0461C147.733 94.0824 148.832 93.8288 149.93 93.5681C150.423 93.4509 150.432 93.4338 150.548 93.9929C150.73 94.8716 150.747 95.7816 150.89 96.666C150.98 97.2194 150.981 97.7784 150.99 98.3375L146.756 98.9548V104.99L148.57 109.021C148.57 109.021 150.405 110.058 150.714 107.995L150.713 107.996Z" fill="#066CA8"/>
<path d="M129.932 101.786C129.988 99.5664 130.254 97.3849 130.817 95.2538C131.241 93.6526 131.785 92.1082 132.442 90.6151C132.669 90.1 132.68 90.1 133.125 90.4041C134.702 91.4824 136.349 92.3896 138.08 93.0957C138.412 93.2313 138.753 93.3393 139.092 93.4494C139.267 93.5063 139.3 93.595 139.27 93.811C139.118 94.9121 138.941 96.0131 138.874 97.1227C138.829 97.8587 138.714 98.5875 138.716 99.327C138.72 100.547 138.716 101.766 138.716 102.987C138.716 104.631 138.882 106.257 139.066 107.886C139.197 109.043 139.409 110.178 139.59 111.322C139.676 111.873 139.657 111.858 139.198 112.03C137.476 112.676 135.775 113.368 134.196 114.425C133.172 115.111 133.288 115.059 132.792 113.94C132.13 112.45 131.463 110.961 131.039 109.355C130.545 107.486 130.118 105.607 130.041 103.635C130.017 103.022 129.944 102.405 129.932 101.785L129.932 101.786Z" fill="#066CA8"/>
<path d="M145.709 93.4538C144.148 93.5718 142.631 93.3033 141.13 92.8976C140.583 92.7499 140.596 92.7257 140.689 92.075C141.098 89.2456 141.8 86.5057 142.638 83.812C143.084 82.3764 143.561 80.9485 144.153 79.5782C144.19 79.4923 144.229 79.4077 144.263 79.3204C144.681 78.2434 144.68 78.2371 145.726 78.2449C146.749 78.2527 146.568 78.0879 147.023 79.1861C148.212 82.0567 149.18 85.0232 149.872 88.1026C150.183 89.4829 150.503 90.8603 150.682 92.2746C150.744 92.762 150.756 92.7762 150.329 92.8998C148.81 93.3409 147.268 93.5618 145.709 93.4531V93.4538Z" fill="#066CA8"/>
<path d="M148.196 78.2423C149.011 78.314 149.908 78.4596 150.737 79.0777C152.196 80.1652 153.562 81.3707 154.715 82.8632C156.095 84.6512 157.31 86.5834 158.363 88.6456C158.586 89.0818 158.573 89.1791 158.249 89.3922C156.436 90.5828 154.566 91.6277 152.559 92.3239C152.34 92.3999 152.119 92.4681 151.896 92.5292C151.459 92.6492 151.35 92.5668 151.262 92.0483C151.172 91.5119 151.112 90.9678 151.001 90.4379C150.576 88.3984 150.124 86.366 149.51 84.3869C148.952 82.5876 148.366 80.801 147.616 79.0919C147.579 79.0066 147.537 78.9228 147.504 78.8354C147.31 78.3375 147.35 78.2636 147.823 78.243C147.907 78.2394 147.99 78.243 148.196 78.243V78.2423Z" fill="#066CA8"/>
<path d="M128.866 63.7031C132.04 63.7031 135.214 63.7031 138.387 63.7031C138.554 63.7031 138.722 63.6932 138.888 63.7088C139.286 63.7465 139.472 63.9198 139.488 64.3695C139.514 65.1097 139.511 65.852 139.49 66.5929C139.478 67 139.299 67.2046 138.957 67.2706C138.774 67.3061 138.583 67.2933 138.395 67.2933C132.068 67.2941 125.742 67.2941 119.415 67.2933C119.248 67.2933 119.079 67.3061 118.915 67.2813C118.515 67.2195 118.31 66.9929 118.295 66.5283C118.274 65.8357 118.272 65.1409 118.295 64.4483C118.311 63.9361 118.514 63.728 118.969 63.7088C119.407 63.6904 119.846 63.7039 120.285 63.7039C123.145 63.7039 126.006 63.7039 128.866 63.7039L128.866 63.7031Z" fill="white"/>
<path d="M143.749 78.2638C143.37 79.2683 143.036 80.1605 142.696 81.0499C141.96 82.9757 141.389 84.969 140.859 86.9772C140.554 88.1372 140.319 89.3228 140.07 90.502C139.964 91.0085 139.916 91.5306 139.821 92.0407C139.722 92.5742 139.664 92.614 139.199 92.479C137.613 92.0201 136.14 91.2415 134.705 90.3614C134.266 90.0914 133.853 89.7611 133.409 89.5033C133.129 89.3413 133.116 89.18 133.248 88.8867C133.727 87.8239 134.295 86.8181 134.916 85.8676C135.863 84.4213 136.826 82.9849 137.979 81.7297C138.843 80.787 139.822 80.0298 140.803 79.2704C140.975 79.1368 141.163 79.0289 141.329 78.8861C142.02 78.288 142.81 78.2105 143.749 78.2624L143.749 78.2638Z" fill="#066CA8"/>
<path d="M147.871 63.7034C149.563 63.7034 151.256 63.7006 152.948 63.7049C153.683 63.707 153.823 63.8697 153.835 64.7115C153.841 65.1661 153.837 65.6207 153.836 66.0754C153.831 67.1374 153.701 67.2922 152.794 67.2929C151.227 67.2951 149.66 67.2929 148.093 67.2929C146.442 67.2929 144.791 67.2929 143.141 67.2929C142.994 67.2929 142.848 67.3029 142.702 67.288C142.229 67.2397 142.02 67.0123 142.003 66.4717C141.983 65.8502 141.99 65.2272 142 64.6049C142.012 63.9144 142.189 63.7084 142.793 63.7056C144.485 63.6978 146.178 63.7027 147.871 63.7027V63.7034Z" fill="white"/>
<path d="M128.741 86.4058C130.393 83.0706 137.812 78.3182 140.943 78.618C140.243 79.1444 139.588 79.631 138.938 80.129C138.176 80.7136 137.432 81.3494 136.815 82.1102C135.871 83.2759 134.953 84.4793 134.157 85.7941C133.551 86.7936 132.948 87.791 132.445 88.8651C132.237 89.3076 132.154 89.3204 131.763 89.0178C130.867 88.3252 129.985 87.6099 129.176 86.7823C129.053 86.6565 128.913 86.5528 128.742 86.4051L128.741 86.4058Z" fill="#066CA8"/>
<path d="M123.422 103.938C123.807 103.951 124.182 103.907 124.568 103.488C124.461 104.254 124.234 104.732 123.722 104.991C123.444 104.707 123.411 104.33 123.422 103.937V103.938Z" fill="#0F72AC"/>
<path d="M123.119 102.335C123.119 101.69 123.37 101.239 123.762 101.183C124.205 101.12 124.474 101.464 124.588 102.207C124.636 102.526 124.648 102.821 124.443 103.08C124.228 103.349 123.864 103.463 123.589 103.34C123.288 103.205 123.12 102.845 123.119 102.335Z" fill="#096FAA"/>
<path d="M127.547 103.299C127.534 102.712 127.564 102.19 127.756 101.7C127.873 101.403 128.039 101.158 128.363 101.185C128.653 101.208 128.811 101.442 128.887 101.724C129.152 102.707 129.154 103.698 128.878 104.677C128.793 104.98 128.616 105.239 128.294 105.228C127.974 105.217 127.827 104.937 127.724 104.645C127.567 104.197 127.527 103.722 127.547 103.299Z" fill="#086DA9"/>
<path d="M155.504 101.775C155.504 102.318 155.499 102.861 155.507 103.404C155.511 103.664 155.438 103.809 155.188 103.799C154.923 103.788 154.657 103.797 154.373 103.797C154.388 103.675 154.378 103.595 154.407 103.542C154.732 102.939 155.064 102.338 155.393 101.737C155.431 101.75 155.468 101.763 155.505 101.776L155.504 101.775Z" fill="#1978AF"/>
<path d="M94.9283 72.7217H82.5911C81.841 72.7217 81.2329 73.4185 81.2329 74.2781V88.4158C81.2329 89.2754 81.841 89.9723 82.5911 89.9723H94.9283C95.6784 89.9723 96.2865 89.2754 96.2865 88.4158V74.2781C96.2865 73.4185 95.6784 72.7217 94.9283 72.7217Z" fill="#FCD87D"/>
<path d="M90.0887 83.9067H87.4238C86.9266 83.9067 86.5225 83.4436 86.5225 82.8739V79.82C86.5225 79.2503 86.9266 78.7871 87.4238 78.7871H90.0887C90.5865 78.7871 90.9907 79.2503 90.9907 79.82V82.8739C90.9907 83.4436 90.5859 83.9067 90.0887 83.9067ZM87.4238 79.1515C87.1027 79.1515 86.8411 79.4513 86.8411 79.8193V82.8731C86.8411 83.2411 87.1027 83.5409 87.4238 83.5409H90.0887C90.4105 83.5409 90.6721 83.2411 90.6721 82.8731V79.8193C90.6721 79.4513 90.4105 79.1515 90.0887 79.1515H87.4238Z" fill="#FEBB1B"/>
<path d="M85.9619 79.16H83.2647C82.7763 79.16 82.3789 78.7047 82.3789 78.1449V75.0541C82.3789 74.4944 82.7763 74.039 83.2647 74.039H85.9619C86.4504 74.039 86.8478 74.4944 86.8478 75.0541V78.1449C86.8478 78.7047 86.4504 79.16 85.9619 79.16ZM83.2647 74.4041C82.9523 74.4041 82.6975 74.6954 82.6975 75.0541V78.1449C82.6975 78.503 82.9517 78.7949 83.2647 78.7949H85.9619C86.2743 78.7949 86.5291 78.5037 86.5291 78.1449V75.0541C86.5291 74.6961 86.275 74.4041 85.9619 74.4041H83.2647Z" fill="#FEBB1B"/>
<path d="M94.2544 79.16H91.5572C91.0687 79.16 90.6714 78.7047 90.6714 78.1449V75.0541C90.6714 74.4944 91.0687 74.039 91.5572 74.039H94.2544C94.7429 74.039 95.1402 74.4944 95.1402 75.0541V78.1449C95.1402 78.7047 94.7429 79.16 94.2544 79.16ZM91.5572 74.4041C91.2448 74.4041 90.99 74.6954 90.99 75.0541V78.1449C90.99 78.503 91.2442 78.7949 91.5572 78.7949H94.2544C94.5668 78.7949 94.8216 78.5037 94.8216 78.1449V75.0541C94.8216 74.6961 94.5674 74.4041 94.2544 74.4041H91.5572Z" fill="#FEBB1B"/>
<path d="M84.9385 78.0835H82.3789V75.1404C82.3789 74.5337 82.8097 74.04 83.3397 74.04H85.8398V77.0499C85.8398 77.6203 85.4356 78.0835 84.9385 78.0835ZM82.6982 77.7183H84.9385C85.2596 77.7183 85.5212 77.4186 85.5212 77.0499V74.4052H83.3397C82.9858 74.4052 82.6975 74.7348 82.6975 75.1404V77.7183H82.6982Z" fill="#FEBB1B"/>
<path d="M95.1331 78.1325H92.7291C92.2313 78.1325 91.8271 77.6693 91.8271 77.0996V74.04H94.1728C94.7029 74.04 95.1337 74.5337 95.1337 75.1404V78.1332L95.1331 78.1325ZM92.1452 74.4052V77.0996C92.1452 77.4676 92.4068 77.7673 92.7285 77.7673H94.8138V75.1404C94.8138 74.7348 94.5256 74.4052 94.1716 74.4052H92.1445H92.1452Z" fill="#FEBB1B"/>
<path d="M88.9153 74.3867H88.5967V78.9693H88.9153V74.3867Z" fill="#FEBB1B"/>
<path d="M94.1718 88.6534H83.3397C82.8097 88.6534 82.3789 88.1597 82.3789 87.5531V75.1394C82.3789 74.5327 82.8097 74.039 83.3397 74.039H94.1718C94.7019 74.039 95.1327 74.5327 95.1327 75.1394V87.5531C95.1327 88.1597 94.7019 88.6534 94.1718 88.6534ZM83.3397 74.4041C82.9858 74.4041 82.6975 74.7337 82.6975 75.1394V87.5531C82.6975 87.9587 82.9858 88.2883 83.3397 88.2883H94.1718C94.5258 88.2883 94.8141 87.9587 94.8141 87.5531V75.1394C94.8141 74.7337 94.5258 74.4041 94.1718 74.4041H83.3397Z" fill="#FEBB1B"/>
<path d="M85.9619 88.6541H83.2647C82.7763 88.6541 82.3789 88.1988 82.3789 87.639V84.5482C82.3789 83.9884 82.7763 83.5331 83.2647 83.5331H85.9619C86.4504 83.5331 86.8478 83.9884 86.8478 84.5482V87.639C86.8478 88.1988 86.4504 88.6541 85.9619 88.6541ZM83.2647 83.8982C82.9523 83.8982 82.6975 84.1895 82.6975 84.5482V87.639C82.6975 87.997 82.9517 88.289 83.2647 88.289H85.9619C86.2743 88.289 86.5291 87.9977 86.5291 87.639V84.5482C86.5291 84.1902 86.275 83.8982 85.9619 83.8982H83.2647Z" fill="#FEBB1B"/>
<path d="M94.2544 88.6541H91.5572C91.0687 88.6541 90.6714 88.1988 90.6714 87.639V84.5482C90.6714 83.9884 91.0687 83.5331 91.5572 83.5331H94.2544C94.7429 83.5331 95.1402 83.9884 95.1402 84.5482V87.639C95.1402 88.1988 94.7429 88.6541 94.2544 88.6541ZM91.5572 83.8982C91.2448 83.8982 90.99 84.1895 90.99 84.5482V87.639C90.99 87.997 91.2442 88.289 91.5572 88.289H94.2544C94.5668 88.289 94.8216 87.9977 94.8216 87.639V84.5482C94.8216 84.1902 94.5674 83.8982 94.2544 83.8982H91.5572Z" fill="#FEBB1B"/>
<path d="M85.9858 88.6537H83.3407C82.8107 88.6537 82.3799 88.16 82.3799 87.5533V84.6152H85.0839C85.5817 84.6152 85.9865 85.0791 85.9865 85.6488V88.6537H85.9858ZM82.6985 84.9804V87.5533C82.6985 87.9589 82.9868 88.2885 83.3407 88.2885H85.6672V85.6495C85.6672 85.2808 85.4056 84.9811 85.0839 84.9811H82.6985V84.9804Z" fill="#FEBB1B"/>
<path d="M94.172 88.6537H91.3335V85.6488C91.3335 85.0784 91.7383 84.6152 92.2354 84.6152H94.9004C94.9308 84.6152 94.9611 84.6174 94.9903 84.6209L95.1322 84.6387V87.5533C95.1322 88.16 94.7014 88.6537 94.1714 88.6537H94.172ZM91.6527 88.2885H94.172C94.526 88.2885 94.8142 87.9589 94.8142 87.5533V84.9804H92.2361C91.9143 84.9804 91.6527 85.2801 91.6527 85.6488V88.2878V88.2885Z" fill="#FEBB1B"/>
<path d="M88.9153 83.7246H88.5967V88.4713H88.9153V83.7246Z" fill="#FEBB1B"/>
<path d="M90.8311 81.3488L90.8276 81.7139L94.9776 81.7653L94.9811 81.4002L90.8311 81.3488Z" fill="#FEBB1B"/>
<path d="M82.5376 81.2443L82.5342 81.6094L86.6767 81.6607L86.6802 81.2956L82.5376 81.2443Z" fill="#FEBB1B"/>
<path d="M159.893 120.324C159.523 121.249 158.987 122.031 158.307 122.673C157.199 123.718 155.978 124.502 154.521 124.699C154.404 124.686 154.288 124.673 154.172 124.661C153.783 124.661 153.393 124.661 152.918 124.661C153.077 124.321 153.301 124.221 153.462 124.066C155.131 122.463 156.398 120.467 157.647 118.456C158.043 117.819 158.37 117.126 158.717 116.45C158.843 116.204 158.918 116.076 159.014 116.049C159.176 116.003 159.335 116.154 159.427 116.236C159.654 116.442 160.001 116.715 160.536 117.025C160.597 117.649 160.605 118.64 160.2 119.679C160.106 119.92 160.001 120.134 159.893 120.324V120.324Z" fill="#066CA8"/>
<path d="M147.993 124.664C148.315 123.684 148.632 122.701 148.96 121.725C149.74 119.407 150.304 117.019 150.757 114.595C150.853 114.084 150.995 113.588 151.03 113.058C151.057 112.639 151.216 112.569 151.585 112.682C153.837 113.368 155.923 114.492 157.931 115.824C158.314 116.078 158.331 116.096 158.111 116.542C157.507 117.769 156.805 118.919 156.084 120.06C155.4 121.143 154.628 122.139 153.861 123.138C153.425 123.704 152.878 124.157 152.381 124.661C152.016 124.791 151.641 124.728 151.272 124.722C150.179 124.701 149.084 124.803 147.993 124.664Z" fill="#066CA8"/>
<path d="M132.067 115.737C131.435 115.277 130.924 114.649 130.343 114.117C129.08 112.961 127.963 111.621 126.751 110.401C126.099 109.745 125.47 109.046 124.923 108.265C124.601 107.758 124.193 107.348 123.784 106.94C123.784 106.94 123.765 106.71 123.737 106.327C123.721 106.122 123.704 105.874 123.684 105.595C123.571 103.97 123.416 101.278 123.508 99.8793C123.508 99.8758 123.508 99.8722 123.508 99.8687C123.51 99.8424 123.512 99.8175 123.513 99.7927C123.514 99.7891 123.514 99.7856 123.514 99.782C123.518 99.7358 123.521 99.6911 123.526 99.6492C123.527 99.6428 123.528 99.6357 123.528 99.63C123.536 99.5639 123.545 99.4929 123.555 99.4148C123.586 99.1768 123.619 98.9388 123.654 98.7022C123.875 97.2282 124.188 95.7762 124.655 94.3683C125.362 92.2322 126.343 90.2759 127.548 88.4616C127.636 88.3294 127.719 88.1909 127.819 88.0716C128.153 87.6738 128.154 87.6788 128.514 88.029C129.386 88.8779 130.306 89.6564 131.252 90.3909C131.567 90.6367 131.545 90.8307 131.395 91.1446C130.684 92.6393 130.173 94.2298 129.725 95.8466C129.439 96.8773 129.251 97.9322 129.115 99.002C129.115 99.002 129.115 99.0063 129.114 99.0155C129.109 99.0915 129.081 99.4943 129.052 100.089C128.985 101.46 128.907 103.854 129.066 105.608C129.114 106.139 129.184 106.612 129.283 106.981C129.283 106.983 129.284 106.986 129.285 106.989C129.339 107.295 129.399 107.6 129.463 107.903C129.859 109.775 130.426 111.586 131.205 113.319C131.5 113.974 131.736 114.665 132.105 115.275C132.214 115.456 132.123 115.588 132.067 115.737H132.067Z" fill="#066CA8"/>
<path d="M95.4732 101.74C94.6041 103.251 94.3437 104.133 93.9637 104.634C93.7189 105.094 94.4863 105.305 94.4863 105.305C94.4863 105.305 95.6034 105.622 95.6245 105.605C95.6455 105.589 96.3473 104.331 96.3473 104.25C96.3473 104.169 96.1061 102.472 96.064 102.431C96.0212 102.391 95.4738 101.74 95.4738 101.74H95.4732Z" fill="#0167A0"/>
<path d="M123.528 99.6303C123.535 99.5521 123.544 99.4804 123.554 99.415C123.544 99.4932 123.535 99.5649 123.528 99.6303Z" fill="#066CA8"/>
<path d="M129.285 106.988V106.99C129.285 106.99 129.284 106.983 129.283 106.98C129.284 106.983 129.285 106.985 129.285 106.988Z" fill="#066CA8"/>
<path d="M150.99 98.3396L150.985 100.659C150.984 100.842 150.983 101.033 150.981 101.229C150.977 101.693 150.972 102.188 150.963 102.693C150.96 102.887 150.957 103.081 150.954 103.277C150.941 103.935 150.925 104.596 150.902 105.217C150.897 105.384 150.89 105.548 150.884 105.708C150.855 106.393 150.819 107.007 150.773 107.486C150.773 107.487 150.773 107.489 150.773 107.491C150.755 107.655 150.735 107.822 150.714 107.99C150.714 107.992 150.713 107.994 150.713 107.996C150.404 110.059 148.569 109.022 148.569 109.022L146.756 104.991V98.9562L150.99 98.3389V98.3396Z" fill="#066CA8"/>
<path d="M150.714 107.991C150.735 107.822 150.754 107.655 150.772 107.491C150.754 107.681 150.735 107.849 150.714 107.991Z" fill="#066CA8"/>
<path d="M150.985 100.658L150.99 98.3389C150.99 98.3389 150.994 99.3135 150.985 100.658Z" fill="#066CA8"/>
<path d="M154.025 101.002C154.025 101.002 157.722 102.172 157.708 102.236C157.694 102.301 157.41 105.093 156.943 105.223C156.476 105.353 153.302 104.85 153.302 104.85L154.025 101.002V101.002Z" fill="#066CA8"/>
<path d="M123.684 105.596C123.703 105.875 123.721 106.123 123.736 106.327L123.52 106.268L122.424 104.993L120.724 97.95L123.654 98.7023C123.618 98.9388 123.586 99.1761 123.555 99.4148C123.545 99.4929 123.535 99.5647 123.528 99.63C123.527 99.6357 123.527 99.6421 123.526 99.6492C123.522 99.6918 123.518 99.7359 123.514 99.7821C123.514 99.7856 123.514 99.7892 123.513 99.7927C123.511 99.8176 123.51 99.8424 123.508 99.8687C123.508 99.8723 123.507 99.8758 123.507 99.8794C123.416 101.278 123.571 103.969 123.684 105.595V105.596Z" fill="#087EBA"/>
<path d="M129.932 108.031L129.463 107.902C129.399 107.599 129.339 107.294 129.285 106.988C129.284 106.985 129.283 106.982 129.283 106.98C129.185 106.612 129.114 106.138 129.066 105.607C128.907 103.853 128.985 101.459 129.052 100.088L129.489 100.2L129.932 108.03V108.031Z" fill="#087EBA"/>
<path d="M94.5825 105.354L94.1759 105.689L93.7568 105.021C93.8275 104.901 93.8963 104.781 93.9639 104.658C93.9943 104.602 94.0271 104.558 94.0606 104.523L94.5819 105.354H94.5825Z" fill="white"/>
<path d="M96.1278 101.667L95.7207 102.003L98.0422 105.701L98.4493 105.365L96.1278 101.667Z" fill="white"/>
<path d="M95.7115 105.357L96.1187 105.692L98.4402 101.994L98.0331 101.659L95.7115 105.357Z" fill="white"/>
<path d="M104.151 101.668L103.744 102.004L106.066 105.702L106.473 105.366L104.151 101.668Z" fill="white"/>
<path d="M103.734 105.358L104.142 105.693L106.463 101.995L106.056 101.66L103.734 105.358Z" fill="white"/>
<path d="M108.02 101.642L107.613 101.978L109.935 105.675L110.342 105.34L108.02 101.642Z" fill="white"/>
<path d="M107.623 105.35L108.03 105.686L110.352 101.988L109.945 101.652L107.623 105.35Z" fill="white"/>
<path d="M111.888 101.668L111.481 102.004L113.802 105.702L114.21 105.366L111.888 101.668Z" fill="white"/>
<path d="M111.47 105.358L111.877 105.693L114.198 101.995L113.791 101.66L111.47 105.358Z" fill="white"/>
<path d="M115.756 101.668L115.349 102.004L117.67 105.702L118.077 105.366L115.756 101.668Z" fill="white"/>
<path d="M115.338 105.358L115.745 105.693L118.067 101.995L117.66 101.66L115.338 105.358Z" fill="white"/>
<path d="M123.779 101.669L123.372 102.005L125.694 105.703L126.101 105.367L123.779 101.669Z" fill="white"/>
<path d="M123.36 105.359L123.767 105.694L126.089 101.996L125.681 101.661L123.36 105.359Z" fill="white"/>
<path d="M127.646 101.641L127.239 101.976L129.561 105.674L129.968 105.338L127.646 101.641Z" fill="white"/>
<path d="M127.251 105.349L127.658 105.684L129.98 101.987L129.573 101.651L127.251 105.349Z" fill="white"/>
<path d="M131.515 101.67L131.108 102.006L133.429 105.704L133.837 105.368L131.515 101.67Z" fill="white"/>
<path d="M131.096 105.36L131.503 105.695L133.825 101.997L133.418 101.661L131.096 105.36Z" fill="white"/>
<path d="M135.384 101.67L134.977 102.006L137.298 105.704L137.705 105.368L135.384 101.67Z" fill="white"/>
<path d="M134.964 105.361L135.371 105.696L137.693 101.998L137.285 101.663L134.964 105.361Z" fill="white"/>
<path d="M143.407 101.671L143 102.007L145.322 105.705L145.729 105.369L143.407 101.671Z" fill="white"/>
<path d="M142.986 105.361L143.394 105.696L145.715 101.998L145.308 101.662L142.986 105.361Z" fill="white"/>
<path d="M147.272 101.639L146.865 101.975L149.187 105.672L149.594 105.337L147.272 101.639Z" fill="white"/>
<path d="M146.88 105.347L147.287 105.683L149.609 101.985L149.202 101.649L146.88 105.347Z" fill="white"/>
<path d="M151.143 101.672L150.736 102.008L153.058 105.706L153.465 105.37L151.143 101.672Z" fill="white"/>
<path d="M150.722 105.362L151.129 105.697L153.45 101.999L153.043 101.664L150.722 105.362Z" fill="white"/>
<path d="M155.012 101.672L154.604 102.008L156.926 105.706L157.333 105.37L155.012 101.672Z" fill="white"/>
<path d="M154.59 105.362L154.997 105.697L157.319 101.999L156.911 101.664L154.59 105.362Z" fill="white"/>
</g>
<defs>
<clipPath id="clip0_7_18986">
<rect width="226.815" height="216.59" fill="white" transform="translate(1.59277 6.95996)"/>
</clipPath>
</defs>
</svg>
