<svg width="169" height="150" viewBox="0 0 169 150" fill="none" xmlns="http://www.w3.org/2000/svg">
<g clip-path="url(#clip0_0_6210)">
<path d="M147.537 149.89C133.013 149.712 121.382 137.795 121.559 123.273C121.737 108.75 133.655 97.1208 148.18 97.2983C162.704 97.4758 174.335 109.393 174.158 123.915C173.98 138.438 162.062 150.067 147.537 149.89Z" fill="white" fill-opacity="0.5"/>
<path d="M27.5186 149.895C12.994 149.717 1.36327 137.801 1.5407 123.278C1.71814 108.755 13.6365 97.1262 28.1611 97.3037C42.6858 97.4811 54.3165 109.398 54.139 123.921C53.9616 138.443 42.0432 150.072 27.5186 149.895Z" fill="white" fill-opacity="0.5"/>
<path d="M80.8845 21.8649C79.3264 23.4112 77.225 24.2865 75.0299 24.3034L60.765 75.6651C58.1914 84.9251 60.4948 94.9457 67.103 101.927C67.103 101.927 75.5916 111.073 88.2996 111.088C92.3088 111.059 96.1442 109.446 98.9685 106.601C101.793 103.755 103.377 99.9077 103.375 95.8984C103.376 90.3487 102.756 84.8164 101.527 79.4046C99.9412 73.1946 98.9068 71.1684 97.005 67.2725C90.7985 66.4229 88.4026 57.2909 92.9917 49.8545C97.8048 42.0342 108.355 41.1384 121.074 45.5889C133.792 50.0394 145.676 47.6399 162.098 44.8317C178.61 42.0093 181.194 67.3436 169.268 67.3436H162.059C170.582 72.4185 177.506 79.7884 182.04 88.6113C182.559 89.6106 182.876 90.7024 182.973 91.8244C183.07 92.9463 182.945 94.0764 182.605 95.15C182.265 96.2235 181.717 97.2196 180.992 98.0811C180.267 98.9427 179.379 99.6529 178.379 100.171C177.425 100.651 176.345 100.821 175.289 100.659C174.233 100.496 173.255 100.009 172.489 99.2647C168.522 95.2318 163.621 92.2414 158.22 90.5592C154.854 89.5522 151.364 89.0186 147.851 88.9738C138.673 88.9842 129.874 92.635 123.385 99.1252C116.895 105.615 113.245 114.415 113.236 123.593C113.236 124.304 113.257 125.021 113.3 125.744C113.315 125.986 113.281 126.23 113.198 126.459C113.116 126.688 112.988 126.897 112.821 127.075C112.654 127.252 112.453 127.393 112.23 127.489C112.006 127.586 111.766 127.635 111.522 127.635H71.3544C69.0723 127.57 66.8896 126.687 65.2052 125.146C63.5207 123.605 62.4468 121.509 62.1797 119.242C61.3454 112.668 58.6426 106.472 54.3921 101.389C50.1416 96.3051 44.5218 92.5479 38.1998 90.5628C34.8338 89.5557 31.3439 89.0221 27.8308 88.9774C19.8358 88.9704 12.0872 91.7438 5.91257 96.8226C3.39584 98.8879 -0.17662 95.9837 1.36967 93.1186L1.41232 93.044C6.54788 83.9357 14.3477 76.6171 23.7642 72.0713C25.1114 71.4172 26.4764 70.8307 27.8485 70.294C28.3107 46.5202 55.9057 24.3141 55.9057 24.3141C48.4942 24.7478 48.2347 17.3682 48.2347 17.3682C47.7797 8.42107 53.8369 1.25127 62.1939 0.760722C64.2989 0.651543 66.3858 1.19935 68.1658 2.32834L73.0002 5.36404C74.6186 6.40655 76.3269 7.30234 78.1047 8.04072C79.3283 8.53565 80.4187 9.31056 81.2885 10.3032C82.1584 11.2959 82.7833 12.4787 83.1133 13.7567C83.1133 13.7567 85.3421 14.4178 86.1596 15.1785C86.7379 15.6726 87.1608 16.3235 87.3775 17.0526C87.5942 17.7817 87.5953 18.5579 87.3807 19.2876C87.1662 20.0173 86.7451 20.6693 86.1683 21.1651C85.5915 21.6609 84.8836 21.9792 84.1299 22.0817C84.1299 22.0817 82.9924 22.2737 80.8845 21.8649Z" fill="white" fill-opacity="0.5"/>
</g>
<defs>
<clipPath id="clip0_0_6210">
<rect width="184" height="150" fill="white" transform="matrix(-1 0 0 1 184 0.254883)"/>
</clipPath>
</defs>
</svg>
