<svg width="137" height="106" viewBox="0 0 137 106" fill="none" xmlns="http://www.w3.org/2000/svg">
<g clip-path="url(#clip0_56_16298)">
<path d="M132.986 11.9609H94.415L107.596 25.1418H137V15.9746C137 13.7564 135.202 11.9609 132.986 11.9609Z" fill="white" fill-opacity="0.3"/>
<path d="M42.5851 11.9609H4.01367C1.79812 11.9609 0 13.7564 0 15.9746V25.1418H29.4042L42.5851 11.9609Z" fill="white" fill-opacity="0.3"/>
<path d="M59.6162 67.2773H77.3834V105.969H59.6162V67.2773Z" fill="white" fill-opacity="0.3"/>
<path d="M68.4999 32.8838C65.9721 32.8838 63.9155 34.9407 63.9155 37.4685C63.9155 39.9963 65.9721 42.0532 68.4999 42.0532C71.0278 42.0532 73.0846 39.9963 73.0846 37.4685C73.0846 34.9407 71.0278 32.8838 68.4999 32.8838Z" fill="white" fill-opacity="0.3"/>
<path d="M72.5137 1.41406H64.4863L32.7302 33.1702H0V101.955C0 104.172 1.79705 105.969 4.01367 105.969H51.5891V63.2637C51.5891 61.0471 53.3861 59.25 55.6027 59.25H81.3973C83.6139 59.25 85.4109 61.0471 85.4109 63.2637V105.969H132.986C135.203 105.969 137 104.172 137 101.955V33.1702H104.27L72.5137 1.41406ZM25.2238 84.759C25.2238 86.9756 23.4267 88.7727 21.2101 88.7727C18.9935 88.7727 17.1964 86.9756 17.1964 84.759V76.1609C17.1964 73.9443 18.9935 72.1473 21.2101 72.1473C23.4267 72.1473 25.2238 73.9443 25.2238 76.1609V84.759ZM25.2238 58.9645C25.2238 61.1811 23.4267 62.9782 21.2101 62.9782C18.9935 62.9782 17.1964 61.1811 17.1964 58.9645V50.3664C17.1964 48.1498 18.9935 46.3527 21.2101 46.3527C23.4267 46.3527 25.2238 48.1498 25.2238 50.3664V58.9645ZM42.42 84.759C42.42 86.9756 40.6229 88.7727 38.4063 88.7727C36.1897 88.7727 34.3926 86.9756 34.3926 84.759V76.1609C34.3926 73.9443 36.1897 72.1473 38.4063 72.1473C40.6229 72.1473 42.42 73.9443 42.42 76.1609V84.759ZM42.42 58.9645C42.42 61.1811 40.6229 62.9782 38.4063 62.9782C36.1897 62.9782 34.3926 61.1811 34.3926 58.9645V50.3664C34.3926 48.1498 36.1897 46.3527 38.4063 46.3527C40.6229 46.3527 42.42 48.1498 42.42 50.3664V58.9645ZM68.5 50.0812C61.5459 50.0812 55.8882 44.4232 55.8882 37.4691C55.8882 30.5151 61.5459 24.8571 68.5 24.8571C75.4541 24.8571 81.112 30.5151 81.112 37.4691C81.112 44.4232 75.4541 50.0812 68.5 50.0812ZM102.607 84.759C102.607 86.9756 100.81 88.7727 98.5937 88.7727C96.3771 88.7727 94.58 86.9756 94.58 84.759V76.1609C94.58 73.9443 96.3771 72.1473 98.5937 72.1473C100.81 72.1473 102.607 73.9443 102.607 76.1609V84.759ZM102.607 58.9645C102.607 61.1811 100.81 62.9782 98.5937 62.9782C96.3771 62.9782 94.58 61.1811 94.58 58.9645V50.3664C94.58 48.1498 96.3771 46.3527 98.5937 46.3527C100.81 46.3527 102.607 48.1498 102.607 50.3664V58.9645ZM111.776 50.3664C111.776 48.1498 113.573 46.3527 115.79 46.3527C118.007 46.3527 119.804 48.1498 119.804 50.3664V58.9645C119.804 61.1811 118.007 62.9782 115.79 62.9782C113.573 62.9782 111.776 61.1811 111.776 58.9645V50.3664ZM111.776 76.1609C111.776 73.9443 113.573 72.1473 115.79 72.1473C118.007 72.1473 119.804 73.9443 119.804 76.1609V84.7593C119.804 86.9759 118.007 88.773 115.79 88.773C113.573 88.773 111.776 86.9759 111.776 84.7593V76.1609Z" fill="white" fill-opacity="0.3"/>
</g>
<defs>
<clipPath id="clip0_56_16298">
<rect width="137" height="105" fill="white" transform="translate(0 0.96875)"/>
</clipPath>
</defs>
</svg>
