<svg width="194" height="76" viewBox="0 0 194 76" fill="none" xmlns="http://www.w3.org/2000/svg">
<g clip-path="url(#clip0_56_21366)">
<path d="M50.064 65.8516C52.8958 65.8516 55.1914 68.1472 55.1914 70.979C55.1914 73.8108 52.8958 76.1064 50.064 76.1064C47.2335 76.1033 44.9397 73.8094 44.9366 70.979C44.9366 68.1472 47.2322 65.8516 50.064 65.8516Z" fill="#CFE01A"/>
<path d="M2.03022 59.2672L7.74519 56.6585C7.93996 56.5721 8.10481 56.4298 8.21899 56.2498L13.1713 48.3555C14.0936 46.8831 15.7141 45.9951 17.4515 46.0099H37.5765C39.1477 46.0052 40.6315 46.7322 41.5905 47.9767L47.9593 56.3202C48.1017 56.5109 48.3035 56.6488 48.5329 56.7122L59.177 59.6249C60.6971 60.0481 61.7449 61.4374 61.7343 63.0153V66.9078C61.7343 68.8456 60.2198 70.4572 58.2817 70.4572H57.3545C57.0812 66.8562 54.2194 63.9943 50.6183 63.721C46.5926 63.4155 43.0813 66.4313 42.7757 70.4572H19.7273C19.454 66.8562 16.5922 63.9944 12.9912 63.721C8.96539 63.4155 5.4541 66.4313 5.14857 70.4572H3.4535C1.51546 70.4572 0.000938416 68.8456 0.000938416 66.9078V62.4643C-0.00998688 61.0923 0.784077 59.8412 2.03022 59.2672Z" fill="#CFE01A"/>
<path d="M12.4351 65.8516C15.2669 65.8516 17.5625 68.1472 17.5625 70.979C17.5625 73.8108 15.2669 76.1064 12.4352 76.1064C9.60477 76.1033 7.31094 73.8094 7.30766 70.979C7.30766 68.1472 9.60341 65.8516 12.4351 65.8516Z" fill="#CFE01A"/>
<g clip-path="url(#clip1_56_21366)">
<rect width="99" height="76" transform="translate(95 0.00976562)" fill="white"/>
<mask id="mask0_56_21366" style="mask-type:alpha" maskUnits="userSpaceOnUse" x="92" y="-26" width="102" height="103">
<g clip-path="url(#clip2_56_21366)">
<path d="M191.01 6.01758H162.293L172.106 15.8311H193.999V9.00586C193.999 7.35434 192.66 6.01758 191.01 6.01758Z" fill="#CFE01A"/>
<path d="M123.706 6.01758H94.9883C93.3388 6.01758 92 7.35434 92 9.00586V15.8311H113.892L123.706 6.01758Z" fill="#CFE01A"/>
<path d="M136.387 47.2031H149.615V76.0102H136.387V47.2031Z" fill="#CFE01A"/>
<path d="M142.999 21.5957C141.117 21.5957 139.586 23.1271 139.586 25.0091C139.586 26.8911 141.117 28.4225 142.999 28.4225C144.881 28.4225 146.413 26.8911 146.413 25.0091C146.413 23.1271 144.881 21.5957 142.999 21.5957Z" fill="#CFE01A"/>
<path d="M145.988 -1.83423H140.012L116.368 21.8091H92V73.0214C92 74.6717 93.338 76.0097 94.9883 76.0097H130.409V44.2144C130.409 42.5641 131.747 41.2261 133.398 41.2261H152.602C154.253 41.2261 155.591 42.5641 155.591 44.2144V76.0097H191.012C192.662 76.0097 194 74.6717 194 73.0214V21.8091H169.632L145.988 -1.83423ZM110.78 60.2182C110.78 61.8685 109.442 63.2065 107.791 63.2065C106.141 63.2065 104.803 61.8685 104.803 60.2182V53.8167C104.803 52.1664 106.141 50.8285 107.791 50.8285C109.442 50.8285 110.78 52.1664 110.78 53.8167V60.2182ZM110.78 41.0135C110.78 42.6639 109.442 44.0018 107.791 44.0018C106.141 44.0018 104.803 42.6639 104.803 41.0135V34.612C104.803 32.9617 106.141 31.6238 107.791 31.6238C109.442 31.6238 110.78 32.9617 110.78 34.612V41.0135ZM123.583 60.2182C123.583 61.8685 122.245 63.2065 120.594 63.2065C118.944 63.2065 117.606 61.8685 117.606 60.2182V53.8167C117.606 52.1664 118.944 50.8285 120.594 50.8285C122.245 50.8285 123.583 52.1664 123.583 53.8167V60.2182ZM123.583 41.0135C123.583 42.6639 122.245 44.0018 120.594 44.0018C118.944 44.0018 117.606 42.6639 117.606 41.0135V34.612C117.606 32.9617 118.944 31.6238 120.594 31.6238C122.245 31.6238 123.583 32.9617 123.583 34.612V41.0135ZM143 34.3997C137.823 34.3997 133.61 30.1872 133.61 25.0097C133.61 19.8322 137.823 15.6197 143 15.6197C148.177 15.6197 152.39 19.8322 152.39 25.0097C152.39 30.1872 148.177 34.3997 143 34.3997ZM168.394 60.2182C168.394 61.8685 167.056 63.2065 165.406 63.2065C163.755 63.2065 162.417 61.8685 162.417 60.2182V53.8167C162.417 52.1664 163.755 50.8285 165.406 50.8285C167.056 50.8285 168.394 52.1664 168.394 53.8167V60.2182ZM168.394 41.0135C168.394 42.6639 167.056 44.0018 165.406 44.0018C163.755 44.0018 162.417 42.6639 162.417 41.0135V34.612C162.417 32.9617 163.755 31.6238 165.406 31.6238C167.056 31.6238 168.394 32.9617 168.394 34.612V41.0135ZM175.22 34.612C175.22 32.9617 176.558 31.6238 178.209 31.6238C179.859 31.6238 181.197 32.9617 181.197 34.612V41.0135C181.197 42.6639 179.859 44.0018 178.209 44.0018C176.558 44.0018 175.22 42.6639 175.22 41.0135V34.612ZM175.22 53.8167C175.22 52.1664 176.558 50.8285 178.209 50.8285C179.859 50.8285 181.197 52.1664 181.197 53.8167V60.2184C181.197 61.8688 179.859 63.2067 178.209 63.2067C176.558 63.2067 175.22 61.8688 175.22 60.2184V53.8167Z" fill="#CFE01A"/>
</g>
</mask>
<g mask="url(#mask0_56_21366)">
<rect x="95" y="0.00976562" width="99" height="78" fill="#CFE01A"/>
</g>
</g>
</g>
<defs>
<clipPath id="clip0_56_21366">
<rect width="194" height="76" fill="white" transform="translate(0 0.00976562)"/>
</clipPath>
<clipPath id="clip1_56_21366">
<rect width="99" height="76" fill="white" transform="translate(95 0.00976562)"/>
</clipPath>
<clipPath id="clip2_56_21366">
<rect width="102" height="102" fill="white" transform="translate(92 -25.9902)"/>
</clipPath>
</defs>
</svg>
