<svg width="224" height="120" viewBox="0 0 224 120" fill="none" xmlns="http://www.w3.org/2000/svg">
<path d="M225.658 87.5383C234.26 87.5383 241.262 94.5392 241.262 103.142C241.262 111.748 234.259 118.75 225.658 118.75C217.048 118.75 210.049 111.748 210.049 103.142C210.049 94.5392 217.048 87.5383 225.658 87.5383ZM225.658 113.974C231.629 113.974 236.491 109.119 236.491 103.142C236.491 97.1674 231.632 92.3084 225.658 92.3084C219.681 92.3084 214.819 97.1674 214.819 103.142C214.819 109.119 219.681 113.974 225.658 113.974ZM0 61.9413V52.1604L9.76231 9.18847C9.76231 6.21131 14.0836 6.21131 15.729 6.21131H67.3015C68.945 6.21131 70.2824 6.52359 70.2824 9.18847V87.4485C70.2824 95.245 68.945 96.5829 67.3015 96.5829H56.7809C53.4809 89.3188 46.1596 84.2555 37.6721 84.2555C29.1905 84.2555 21.8782 89.3217 18.572 96.5829H2.98479C1.33792 96.5829 0 95.245 0 93.5995V78.5538H2.80431V61.9413H0ZM47.3056 52.1017H58.5825V49.8116H47.3056V52.1017ZM60.8424 46.1535V14.1635H17.776L12.8531 46.1535H60.8424ZM10.8023 89.6273H18.7964C21.0545 85.3213 25.9774 82.2433 25.9774 82.2433H10.8023V89.6273ZM240.568 79.3851H77.4352V98.0722H163.891C166.823 90.0174 174.555 84.2555 183.605 84.2555C192.658 84.2555 200.384 90.0169 203.317 98.0722H205.249C208.181 90.0174 215.906 84.2555 224.959 84.2555C233.877 84.2555 241.507 89.8522 244.536 97.7141C248.268 96.6402 251 93.2047 251 89.1231V88.329C251 86.3068 250.304 84.4699 249.179 82.972V75.675L249.263 1.04675H80.0361L80.2066 75.6797H240.568V79.3851ZM38.3722 87.5383C46.977 87.5383 53.9799 94.5392 53.9799 103.142C53.9799 111.748 46.9775 118.75 38.3722 118.75C29.7668 118.75 22.7654 111.748 22.7654 103.142C22.7654 94.5392 29.7663 87.5383 38.3722 87.5383ZM38.3722 113.974C44.3465 113.974 49.2055 109.119 49.2055 103.142C49.2055 97.1674 44.3518 92.3084 38.3722 92.3084C32.3949 92.3084 27.5345 97.1674 27.5345 103.142C27.5341 109.119 32.3992 113.974 38.3722 113.974ZM184.304 87.5383C192.909 87.5383 199.912 94.5392 199.912 103.142C199.912 111.748 192.909 118.75 184.304 118.75C175.697 118.75 168.698 111.748 168.698 103.142C168.698 94.5392 175.697 87.5383 184.304 87.5383ZM184.304 113.974C190.276 113.974 195.14 109.119 195.14 103.142C195.14 97.1674 190.279 92.3084 184.304 92.3084C178.331 92.3084 173.468 97.1674 173.468 103.142C173.468 109.119 178.331 113.974 184.304 113.974Z" fill="white" fill-opacity="0.6"/>
</svg>
