<svg width="178" height="183" viewBox="0 0 178 183" fill="none" xmlns="http://www.w3.org/2000/svg">
<g clip-path="url(#clip0_0_6436)">
<path d="M24.9546 58.237H49.9091V24.9644H166.363C175.555 24.9644 183 32.409 183 41.6009V133.101H166.363C166.363 146.868 155.176 158.056 141.409 158.056C127.642 158.056 116.454 146.868 116.454 133.101H66.5453C66.5453 146.868 55.3574 158.056 41.5907 158.056C27.824 158.056 16.6361 146.868 16.6361 133.101H-0.00038147V91.51L24.9546 58.237ZM141.409 145.578C148.313 145.578 153.886 140.005 153.886 133.101C153.886 126.196 148.313 120.623 141.409 120.623C134.505 120.623 128.932 126.196 128.932 133.101C128.932 140.005 134.505 145.578 141.409 145.578ZM41.5907 145.578C48.4949 145.578 54.068 140.005 54.068 133.101C54.068 126.196 48.4949 120.623 41.5907 120.623C34.6865 120.623 29.1134 126.196 29.1134 133.101C29.1134 140.005 34.6869 145.578 41.5907 145.578ZM49.9091 91.51V70.7146H29.1138L12.7686 91.51H49.9091Z" fill="#6FBAD9" fill-opacity="0.5"/>
</g>
<defs>
<clipPath id="clip0_0_6436">
<rect width="183" height="183" fill="white" transform="matrix(-1 0 0 1 183 0.00976562)"/>
</clipPath>
</defs>
</svg>
