<svg width="178" height="102" viewBox="0 0 178 102" fill="none" xmlns="http://www.w3.org/2000/svg">
<g clip-path="url(#clip0_137_21177)">
<path d="M24.9546 33.237H49.9091V-0.0356445H166.363C175.555 -0.0356445 183 7.409 183 16.6009V108.101H166.363C166.363 121.868 155.176 133.056 141.409 133.056C127.642 133.056 116.454 121.868 116.454 108.101H66.5453C66.5453 121.868 55.3574 133.056 41.5907 133.056C27.824 133.056 16.6361 121.868 16.6361 108.101H-0.00038147V66.51L24.9546 33.237ZM141.409 120.578C148.313 120.578 153.886 115.005 153.886 108.101C153.886 101.196 148.313 95.6234 141.409 95.6234C134.505 95.6234 128.932 101.196 128.932 108.101C128.932 115.005 134.505 120.578 141.409 120.578ZM41.5907 120.578C48.4949 120.578 54.068 115.005 54.068 108.101C54.068 101.196 48.4949 95.6234 41.5907 95.6234C34.6865 95.6234 29.1134 101.196 29.1134 108.101C29.1134 115.005 34.6869 120.578 41.5907 120.578ZM49.9091 66.51V45.7146H29.1138L12.7686 66.51H49.9091Z" fill="#6FBAD9" fill-opacity="0.5"/>
</g>
<defs>
<clipPath id="clip0_137_21177">
<rect width="183" height="183" fill="white" transform="matrix(-1 0 0 1 183 -24.9902)"/>
</clipPath>
</defs>
</svg>
