<svg width="128" height="134" viewBox="0 0 128 134" fill="none" xmlns="http://www.w3.org/2000/svg">
<path fill-rule="evenodd" clip-rule="evenodd" d="M105.202 45.1245L123.403 63.3253C127.867 67.7892 128.871 74.9717 124.696 78.2648L101.198 96.7994C97.0233 100.093 90.7218 99.9699 86.2585 95.5066L73.021 82.2694C68.5577 77.8057 68.4345 71.5048 71.7282 67.3295L90.2627 43.8317C93.5561 39.6564 100.738 40.6606 105.202 45.1245ZM100.173 54.5297L113.998 68.3542C115.656 70.0121 115.656 72.7252 113.998 74.3831C112.34 76.041 109.627 76.041 107.969 74.3831L94.1445 60.5585C92.4866 58.9006 92.4866 56.1876 94.1445 54.5297C95.8024 52.8718 98.5154 52.8718 100.173 54.5297Z" fill="#D6E816" fill-opacity="0.6"/>
<path fill-rule="evenodd" clip-rule="evenodd" d="M93.4911 0C110.772 0 124.782 14.0091 124.782 31.2905C124.782 39.4074 121.691 46.8021 116.622 52.3627L112.96 48.7008C117.095 44.0802 119.61 37.9798 119.61 31.2905C119.61 16.8637 107.918 5.17178 93.4911 5.17178C86.7934 5.17178 80.6863 7.69288 76.0639 11.8366C74.8795 10.5763 73.6245 9.37443 72.3203 8.25114C77.8919 3.12849 85.3259 0 93.4911 0ZM76.4462 51.0791C77.3057 51.8198 78.2134 52.5061 79.1647 53.1316L75.9512 57.2059C75.0075 56.5656 74.1007 55.875 73.2348 55.1386C74.3056 53.8486 75.3886 52.4886 76.4462 51.0791Z" fill="#D6E816" fill-opacity="0.6"/>
<path fill-rule="evenodd" clip-rule="evenodd" d="M17.8372 81.2272C25.0897 85.7863 31.6421 87.9681 39.592 82.5111C51.1108 74.6039 86.3871 43.2292 82.4098 27.9826C79.7487 17.7858 67.9487 5.98578 57.7519 3.32465C42.5053 -0.652602 11.1303 34.6231 3.22374 46.1428C-2.23393 54.0924 -0.0518419 60.6448 4.50732 67.8967C7.9303 73.3409 12.3891 77.8033 17.8372 81.2272ZM22.8588 70.5075C27.0108 73.1179 30.7624 74.3671 35.3138 71.2426C41.9089 66.7154 62.1053 48.7526 59.8281 40.0237C58.3047 34.1858 51.549 27.4298 45.7108 25.9061C36.9819 23.6292 19.0188 43.8256 14.4919 50.4207C11.3674 54.9721 12.6166 58.7234 15.2267 62.8754C17.1868 65.9922 19.7395 68.5474 22.8588 70.5075ZM68.2822 17.452C70.7185 19.8884 70.7185 23.8377 68.2822 26.274C65.8461 28.71 61.8965 28.71 59.4605 26.274C57.0245 23.8377 57.0245 19.8884 59.4605 17.452C61.8965 15.016 65.8461 15.016 68.2822 17.452Z" fill="#D6E816" fill-opacity="0.6"/>
<path fill-rule="evenodd" clip-rule="evenodd" d="M32.5735 27.9609L57.7725 53.1602L52.5485 58.3845L27.3492 33.1852L32.5735 27.9609ZM20.3298 39.9778L45.756 65.404L40.532 70.6283L15.1055 45.2017L20.3298 39.9778Z" fill="#D6E816" fill-opacity="0.6"/>
<path fill-rule="evenodd" clip-rule="evenodd" d="M85.669 98.9127L80.5469 104.035L76.6685 103.566L68.7807 111.453L61.9034 112.365L60.9923 119.242L54.115 120.153L54.0561 126.178L46.3266 127.941L45.4152 133.114L35.6134 132.915L35.4141 123.113L40.5871 122.202L42.3503 114.472L48.3754 114.413L49.2865 107.536L56.1638 106.625L57.0749 99.7473L64.9628 91.8598L64.4936 87.9814L69.6156 82.8594C70.0182 83.3811 70.4579 83.8819 70.9336 84.3576L84.1707 97.5947C84.6464 98.0704 85.1472 98.5101 85.669 98.9127Z" fill="#D6E816" fill-opacity="0.6"/>
</svg>
