<svg width="88" height="89" viewBox="0 0 88 89" fill="none" xmlns="http://www.w3.org/2000/svg">
<g clip-path="url(#clip0_7_17312)">
<path d="M28.7559 73.4111V76.9319C28.7559 80.9455 23.3574 83.9733 16.3159 83.9733C9.27444 83.9733 3.87598 80.9455 3.87598 76.9319V73.4111H28.7559Z" fill="#FEA832"/>
<path d="M28.7554 73.4111V76.9319C28.7554 80.9455 23.3569 83.9733 16.3154 83.9733V73.4111H28.7554Z" fill="#FE9923"/>
<path d="M28.7559 69.8904V73.4111C28.7559 77.4248 23.3574 80.4526 16.3159 80.4526C9.27444 80.4526 3.87598 77.4248 3.87598 73.4111V69.8904H28.7559Z" fill="#FEA832"/>
<path d="M28.7554 69.8904V73.4111C28.7554 77.4248 23.3569 80.4526 16.3154 80.4526V69.8904H28.7554Z" fill="#FE9923"/>
<path d="M28.7559 69.8904V73.4111C28.7559 77.4248 23.3574 80.4526 16.3159 80.4526C9.27444 80.4526 3.87598 77.4248 3.87598 73.4111V69.8904H28.7559Z" fill="#FEDB41"/>
<path d="M28.7554 69.8904V73.4111C28.7554 77.4248 23.3569 80.4526 16.3154 80.4526V69.8904H28.7554Z" fill="#FFCC33"/>
<path d="M28.7559 66.3696V69.8904C28.7559 73.904 23.3574 76.9318 16.3159 76.9318C9.27444 76.9318 3.87598 73.904 3.87598 69.8904V66.3696H28.7559Z" fill="#FEA832"/>
<path d="M28.7554 66.3696V69.8904C28.7554 73.904 23.3569 76.9318 16.3154 76.9318V66.3696H28.7554Z" fill="#FE9923"/>
<path d="M28.7559 62.8489V66.3696C28.7559 70.3833 23.3574 73.4111 16.3159 73.4111C9.27444 73.4111 3.87598 70.3833 3.87598 66.3696V62.8489H28.7559Z" fill="#FEDB41"/>
<path d="M28.7554 62.8489V66.3696C28.7554 70.3833 23.3569 73.4111 16.3154 73.4111V62.8489H28.7554Z" fill="#FFCC33"/>
<path d="M28.7559 59.3284V62.8491C28.7559 66.8627 23.3574 69.8906 16.3159 69.8906C9.27444 69.8906 3.87598 66.8627 3.87598 62.8491V59.3284H28.7559Z" fill="#FEA832"/>
<path d="M28.7554 59.3284V62.8491C28.7554 66.8627 23.3569 69.8906 16.3154 69.8906V59.3284H28.7554Z" fill="#FE9923"/>
<path d="M28.7559 55.8074V59.3281C28.7559 63.3418 23.3574 66.3696 16.3159 66.3696C9.27444 66.3696 3.87598 63.3418 3.87598 59.3281V55.8074H28.7559Z" fill="#FEDB41"/>
<path d="M28.7554 55.8074V59.3281C28.7554 63.3418 23.3569 66.3696 16.3154 66.3696V55.8074H28.7554Z" fill="#FFCC33"/>
<path d="M28.7559 52.2866V55.8074C28.7559 59.821 23.3574 62.8488 16.3159 62.8488C9.27444 62.8488 3.87598 59.821 3.87598 55.8074V52.2866H28.7559Z" fill="#FEA832"/>
<path d="M28.7554 52.2866V55.8074C28.7554 59.821 23.3569 62.8488 16.3154 62.8488V52.2866H28.7554Z" fill="#FE9923"/>
<path d="M28.7559 48.7659V52.2866C28.7559 56.3002 23.3574 59.3281 16.3159 59.3281C9.27444 59.3281 3.87598 56.3002 3.87598 52.2866V48.7659H28.7559Z" fill="#FEDB41"/>
<path d="M28.7554 48.7659V52.2866C28.7554 56.3002 23.3569 59.3281 16.3154 59.3281V48.7659H28.7554Z" fill="#FFCC33"/>
<path d="M28.7559 45.2451V48.7659C28.7559 52.7795 23.3574 55.8073 16.3159 55.8073C9.27444 55.8073 3.87598 52.7795 3.87598 48.7659V45.2451H28.7559Z" fill="#FEA832"/>
<path d="M28.7554 45.2451V48.7659C28.7554 52.7795 23.3569 55.8073 16.3154 55.8073V45.2451H28.7554Z" fill="#FE9923"/>
<path d="M28.7559 41.7244V45.2451C28.7559 49.2587 23.3574 52.2866 16.3159 52.2866C9.27444 52.2866 3.87598 49.2587 3.87598 45.2451V41.7244H28.7559Z" fill="#FEDB41"/>
<path d="M28.7554 41.7244V45.2451C28.7554 49.2587 23.3569 52.2866 16.3154 52.2866V41.7244H28.7554Z" fill="#FFCC33"/>
<path d="M28.7554 38.2039V41.7246C28.7554 45.7382 23.3569 48.7661 16.3154 48.7661V38.2039H28.7554Z" fill="#FE9923"/>
<path d="M28.7559 38.2041V41.7248C28.7559 45.7385 23.3574 48.7663 16.3159 48.7663C9.27444 48.7663 3.87598 45.7385 3.87598 41.7248V38.2041H28.7559Z" fill="#FEA832"/>
<path d="M16.3159 31.1624C9.27444 31.1624 3.87598 34.1902 3.87598 38.2038C3.87598 42.2175 9.27444 45.2453 16.3159 45.2453C23.3574 45.2453 28.7559 42.2175 28.7559 38.2038C28.7559 34.1902 23.3574 31.1624 16.3159 31.1624Z" fill="#FEDB41"/>
<path d="M28.7554 38.2041C28.7554 42.2177 23.3569 45.2456 16.3154 45.2456V31.1626C23.3569 31.1626 28.7554 34.1904 28.7554 38.2041Z" fill="#FFCC33"/>
<path d="M28.7559 31.2229V34.7436C28.7559 38.7573 23.3574 41.7851 16.3159 41.7851C9.27444 41.7851 3.87598 38.7573 3.87598 34.7436V31.2229H28.7559Z" fill="#FEA832"/>
<path d="M16.3159 24.1814C9.27444 24.1814 3.87598 27.2092 3.87598 31.2229C3.87598 35.2365 9.27444 38.2644 16.3159 38.2644C23.3574 38.2644 28.7559 35.2365 28.7559 31.2229C28.7559 27.2092 23.3574 24.1814 16.3159 24.1814Z" fill="#FEDB41"/>
<path d="M28.7554 31.2231C28.7554 35.2368 23.3569 38.2646 16.3154 38.2646V24.1816C23.3569 24.1816 28.7554 27.2095 28.7554 31.2231Z" fill="#FFCC33"/>
<path d="M28.7559 24.7705V28.2912C28.7559 32.3049 23.3574 35.3327 16.3159 35.3327C9.27444 35.3327 3.87598 32.3049 3.87598 28.2912V24.7705H28.7559Z" fill="#FEA832"/>
<path d="M16.3159 17.729C9.27444 17.729 3.87598 20.7568 3.87598 24.7705C3.87598 28.7841 9.27444 31.812 16.3159 31.812C23.3574 31.812 28.7559 28.7841 28.7559 24.7705C28.7559 20.7568 23.3574 17.729 16.3159 17.729Z" fill="#FEDB41"/>
<path d="M28.7554 24.7705C28.7554 28.7841 23.3569 31.812 16.3154 31.812V17.729C23.3569 17.729 28.7554 20.7568 28.7554 24.7705Z" fill="#FFCC33"/>
<path d="M28.7559 18.3181V21.8389C28.7559 25.8525 23.3574 28.8803 16.3159 28.8803C9.27444 28.8803 3.87598 25.8525 3.87598 21.8389V18.3181H28.7559Z" fill="#FEA832"/>
<path d="M16.3159 11.2766C9.27444 11.2766 3.87598 14.3044 3.87598 18.3181C3.87598 22.3317 9.27444 25.3596 16.3159 25.3596C23.3574 25.3596 28.7559 22.3317 28.7559 18.3181C28.7559 14.3044 23.3574 11.2766 16.3159 11.2766Z" fill="#FEDB41"/>
<path d="M28.7554 18.3181C28.7554 22.3317 23.3569 25.3596 16.3154 25.3596V11.2766C23.3569 11.2766 28.7554 14.3044 28.7554 18.3181Z" fill="#FFCC33"/>
<path d="M28.7559 17.9148V21.4355C28.7559 25.4492 23.3574 28.477 16.3159 28.477C9.27444 28.477 3.87598 25.4492 3.87598 21.4355V17.9148H28.7559Z" fill="#FEA832"/>
<path d="M16.3159 10.8733C9.27444 10.8733 3.87598 13.9011 3.87598 17.9148C3.87598 21.9284 9.27444 24.9562 16.3159 24.9562C23.3574 24.9562 28.7559 21.9284 28.7559 17.9148C28.7559 13.9011 23.3574 10.8733 16.3159 10.8733Z" fill="#FEDB41"/>
<path d="M28.7554 17.9148C28.7554 21.9284 23.3569 24.9562 16.3154 24.9562V10.8733C23.3569 10.8733 28.7554 13.9011 28.7554 17.9148Z" fill="#FFCC33"/>
<path d="M28.7559 11.4624V14.9831C28.7559 18.9968 23.3574 22.0246 16.3159 22.0246C9.27444 22.0246 3.87598 18.9968 3.87598 14.9831V11.4624H28.7559Z" fill="#FEA832"/>
<path d="M16.3159 4.4209C9.27444 4.4209 3.87598 7.44873 3.87598 11.4624C3.87598 15.476 9.27444 18.5039 16.3159 18.5039C23.3574 18.5039 28.7559 15.476 28.7559 11.4624C28.7559 7.44873 23.3574 4.4209 16.3159 4.4209Z" fill="#FEDB41"/>
<path d="M28.7554 11.4624C28.7554 15.476 23.3569 18.5039 16.3154 18.5039V4.4209C23.3569 4.4209 28.7554 7.44873 28.7554 11.4624Z" fill="#FFCC33"/>
</g>
<g clip-path="url(#clip1_7_17312)">
<path d="M60.4562 25.7546C60.4562 25.7546 59.8967 25.165 59.4469 25.8823C59.4469 25.8823 59.1004 25.6876 58.8572 26.0341C58.8572 26.0341 58.2307 25.8456 58.0789 26.782C58.0789 26.782 57.7565 26.7212 57.7141 27.1043C57.6716 27.4874 57.8659 27.7424 57.8659 27.7424C57.8659 27.7424 57.685 27.8782 57.7672 28.2303C57.8372 28.5297 58.085 28.5752 58.085 28.5752C58.085 28.5752 58.152 29.0799 58.3707 29.2317C58.5895 29.3835 58.8874 29.3109 58.8874 29.3109C58.8874 29.3109 58.9666 29.5843 59.2216 29.5602C59.4771 29.5357 59.7934 29.2925 60.0791 29.4023C60.3648 29.5116 61.1067 29.3962 61.1067 29.3962C61.1067 29.3962 61.9396 29.0253 61.6903 28.1741C61.6903 28.1741 62.1282 27.7792 61.745 27.3046C61.745 27.3046 62.0245 26.5629 61.4715 26.1254C60.9181 25.6876 60.4562 25.7546 60.4562 25.7546Z" fill="#07345A"/>
<path d="M54.2394 46.5817C54.2394 46.5817 53.2748 46.4716 53.115 46.3932C52.9551 46.3149 52.1455 47.088 52.3061 47.4757C52.3968 47.6944 52.6828 47.6665 52.6828 47.6665L52.9142 47.4409L54.138 47.6959L54.2394 46.5825V46.5817Z" fill="#F7A491"/>
<path d="M59.744 50.645C59.744 50.645 59.2361 51.4721 59.0973 51.5837C58.9585 51.6954 59.3168 52.7556 59.736 52.7744C59.9723 52.7847 60.0679 52.514 60.0679 52.514L59.9612 52.2089L60.71 51.2082L59.7436 50.645H59.744Z" fill="#F7A491"/>
<path d="M59.1268 51.5512C59.1268 51.5512 59.4186 51.9232 59.5777 52.0712C59.783 52.2624 60.0461 52.4489 60.0461 52.4489C60.0461 52.4489 60.3441 52.99 60.4255 53.1785C60.6068 53.5987 60.8106 54.0667 60.7812 54.3019C60.7716 54.3776 60.6022 54.4575 60.4607 54.4139C59.8721 54.233 58.3669 52.8562 58.1768 52.4868C57.9576 52.0605 59.1264 51.5508 59.1264 51.5508L59.1268 51.5512Z" fill="#07345A"/>
<path d="M63.4232 38.9536C63.3685 38.8007 63.3161 38.6592 63.2652 38.5261C62.6392 38.6626 61.9321 38.8129 61.2043 38.9681L61.1155 41.634C61.1159 41.4279 61.6624 45.8862 61.6624 45.8862C61.6624 45.8862 60.1763 48.8372 59.2095 50.6611C59.6064 51.1563 59.9112 51.3727 60.4857 51.7103C61.9864 49.9117 63.9043 46.7411 63.9861 46.1936C64.0332 45.8785 64.0752 40.7897 63.4228 38.954L63.4232 38.9536Z" fill="#B75742"/>
<path d="M57.835 39.7247C58.0052 41.5727 58.2866 44.3704 58.3379 45.3114C57.1428 45.4834 54.3192 46.3327 53.793 46.3319C53.5937 46.7781 53.4836 47.3199 53.6216 47.765C53.6488 47.8529 59.1915 48.0292 60.6222 47.1165C60.9954 46.8783 61.1102 44.326 61.1159 41.6338L61.2046 38.968C59.9927 39.2265 58.8779 39.4796 57.835 39.7247Z" fill="#F47458"/>
<path d="M61.8152 30.2556L60.4552 30.4606C60.4552 30.4606 59.4303 30.4766 59.1565 30.4793C59.1328 30.4793 58.0658 35.6832 57.8065 37.6413C57.5472 39.5997 57.748 39.9462 57.748 39.9462C57.748 39.9462 59.5569 40.353 60.8954 40.2345C62.2871 40.1113 63.8528 39.36 63.8528 39.36C63.8528 39.36 62.2401 35.6828 62.0041 34.5078C61.7682 33.3329 61.8156 30.2556 61.8156 30.2556H61.8152Z" fill="white"/>
<path d="M63.4673 20.1476C63.4673 20.1476 63.5124 20.3537 63.5223 20.4233C63.5342 20.5047 63.551 20.7517 63.551 20.7517C63.551 20.7517 63.5587 21.6151 63.4975 21.6101C63.4359 21.6051 63.2948 21.5252 63.2757 21.4721C63.2566 21.4189 63.2707 21.3031 63.2516 21.2499C63.2325 21.1968 63.1632 21.144 63.0986 21.1624C63.034 21.1811 63.0313 21.4732 63.0313 21.4732C63.0313 21.4732 63.0313 21.711 63.1105 21.8544C63.3858 22.3523 63.455 22.2865 63.4887 22.3511C63.5285 22.4276 63.434 23.58 63.434 23.58C63.434 23.58 63.0458 26.9662 63.0256 27.149L63.0244 27.1509C63.1407 27.2419 63.2956 27.2388 63.4279 27.2667C63.8574 27.4197 63.9484 27.3172 64.3771 27.4392C64.3985 26.8985 64.4161 23.0837 64.4138 22.6937C64.4138 22.6937 64.5855 22.207 64.6834 21.8973C64.7813 21.5879 64.7404 21.2476 64.7549 21.1562C64.7572 21.1429 64.7882 20.8343 64.7286 20.4431C64.6773 20.1059 64.5767 20.4485 64.5767 20.4485C64.5767 20.4485 64.5633 21.0897 64.5148 21.0794C64.4773 21.0714 64.5045 20.7219 64.4513 20.3483C64.4375 20.2523 64.4238 20.1575 64.4104 20.0703C64.3752 19.8421 64.2299 19.7973 64.2299 20.042C64.2299 20.1285 64.2333 20.2718 64.2494 20.3739C64.267 20.4841 64.249 20.5911 64.2501 20.6859C64.2524 20.8744 64.2566 21.0117 64.249 21.0075C64.239 21.0022 64.2142 21.0396 64.1966 20.9379C64.1756 20.8159 64.1863 20.5468 64.1415 20.3697C64.1163 20.2692 64.0757 20.0562 64.0757 20.0562C64.0757 20.0562 63.9564 19.7449 63.9365 19.7461C63.8287 19.7507 63.8524 19.9862 63.904 20.1185C63.8952 20.2195 63.9438 20.4428 63.9438 20.4428C63.9438 20.4428 63.9442 20.9157 63.8795 20.9157C63.852 20.9157 63.818 20.6255 63.7415 20.346C63.6704 20.0864 63.5575 19.8352 63.5059 19.8413C63.4179 19.8516 63.4673 20.1483 63.4673 20.1483V20.1476Z" fill="#F8A492"/>
<path d="M54.3105 20.3158C54.3105 20.3158 54.3212 20.5265 54.33 20.5964C54.3403 20.6783 54.3892 20.9207 54.3892 20.9207C54.3892 20.9207 54.6095 21.7554 54.6677 21.7343C54.7254 21.7133 54.8405 21.599 54.8451 21.5428C54.8497 21.4866 54.8053 21.3784 54.8099 21.3222C54.8145 21.266 54.8669 21.1967 54.9342 21.1975C55.0015 21.1983 55.0811 21.4797 55.0811 21.4797C55.0811 21.4797 55.1438 21.7087 55.1052 21.8686C54.9709 22.4214 54.8868 22.3759 54.8715 22.4474C54.8531 22.5319 55.2486 23.6182 55.2486 23.6182C55.2486 23.6182 56.5168 26.7819 56.5844 26.9532L56.586 26.9547C56.498 27.0732 56.3477 27.1111 56.2272 27.173C55.8536 27.4338 55.7385 27.3592 55.3572 27.5898C55.1939 27.074 54.1701 23.3991 54.0695 23.0221C54.0695 23.0221 53.7754 22.5977 53.5995 22.3251C53.4232 22.0525 53.3731 21.7137 53.3349 21.6292C53.3291 21.6166 53.2178 21.3275 53.1719 20.9344C53.1326 20.5957 53.3199 20.8993 53.3199 20.8993C53.3199 20.8993 53.502 21.5145 53.5464 21.4915C53.5804 21.474 53.4618 21.144 53.4148 20.7696C53.4026 20.6733 53.3911 20.5785 53.3808 20.4909C53.3544 20.2615 53.4829 20.1801 53.5475 20.416C53.5704 20.4993 53.6049 20.6385 53.616 20.7414C53.6282 20.8522 53.6737 20.9505 53.6974 21.0427C53.7448 21.225 53.7773 21.3585 53.7835 21.3524C53.7915 21.3443 53.8255 21.3742 53.8156 21.2713C53.8037 21.1478 53.7223 20.8912 53.7184 20.7085C53.7162 20.6049 53.6989 20.3884 53.6989 20.3884C53.6989 20.3884 53.7318 20.0569 53.7513 20.0527C53.8565 20.029 53.8959 20.2623 53.881 20.4033C53.9162 20.4986 53.928 20.7264 53.928 20.7264C53.928 20.7264 54.0523 21.1826 54.115 21.1658C54.1418 21.1585 54.0978 20.8698 54.0978 20.5796C54.0978 20.3104 54.1403 20.0386 54.1919 20.0309C54.2795 20.0179 54.3101 20.3169 54.3101 20.3169L54.3105 20.3158Z" fill="#F8A492"/>
<path d="M64.6121 22.9942C64.6121 22.9942 64.4928 27.815 64.3464 28.1117C64.1337 28.5434 62.612 31.621 62.612 31.621C62.612 31.621 63.7566 36.4093 64.2377 38.063C64.2863 38.2298 64.5009 39.3053 64.5009 39.4101C64.5009 39.6426 63.4885 39.9378 63.3681 39.9202C63.2606 39.9045 62.3772 35.3498 61.8131 33.1206C61.6219 32.3655 61.2941 31.6516 60.8455 31.0146L60.4531 30.4575L62.7776 27.6449C62.7776 27.6449 63.2809 23.1942 63.2809 22.9158C63.2809 22.8428 64.4657 22.7204 64.6118 22.9942H64.6121Z" fill="#3C8F7C"/>
<path d="M59.1573 30.479L56.8282 26.9674C56.8282 26.9674 55.3168 23.2784 55.2793 23.1419C55.243 23.0081 54.2204 23.1614 53.9121 23.2761C54.0525 23.7185 54.8923 26.6623 55.2522 27.5436C55.552 28.2785 56.79 31.4024 56.79 31.4024C56.79 31.4024 57.5755 33.1945 57.4531 34.579C57.2497 36.8789 56.8462 40.1929 56.9445 40.2923C57.5545 40.6765 59.4739 40.6628 59.6219 40.4238C61.258 37.7893 59.1573 30.4786 59.1573 30.4786V30.479Z" fill="#3C8F7C"/>
<path d="M60.3609 29.7579L60.4623 30.5088C60.4623 30.5088 60.6891 31.5909 60.3973 31.7997C60.1055 32.0081 59.1562 30.4779 59.1562 30.4779L59.2564 28.5745L60.3609 29.7575V29.7579Z" fill="#F7A491"/>
<path d="M59.225 29.1916C59.4659 29.8408 60.0404 30.2396 60.4476 30.3945L60.3616 29.7575L59.2571 28.5745L59.2246 29.1912L59.225 29.1916Z" fill="#F47458"/>
<path d="M57.7031 27.2813C57.7031 27.5712 57.868 27.8063 58.0714 27.8063C58.2749 27.8063 58.4397 27.5712 58.4397 27.2813C58.4397 26.9915 58.2749 26.7563 58.0714 26.7563C57.868 26.7563 57.7031 26.9915 57.7031 27.2813Z" fill="#07345A"/>
<path d="M58.8091 26.1532C58.8091 26.32 59.0099 26.4549 59.2573 26.4549C59.5047 26.4549 59.7055 26.32 59.7055 26.1532C59.7055 25.9865 59.5047 25.8516 59.2573 25.8516C59.0099 25.8516 58.8091 25.9865 58.8091 26.1532Z" fill="#07345A"/>
<path d="M59.9319 26.5755C60.5243 26.3717 61.1553 26.7651 61.2459 27.3754C61.2853 27.6407 61.3209 27.9741 61.3274 28.3389C61.3435 29.216 60.8891 30.0699 60.4906 30.0699C60.0921 30.0699 58.9911 29.502 58.9513 28.2563C58.9268 27.4874 59.3108 26.7888 59.9323 26.5751L59.9319 26.5755Z" fill="#F7A491"/>
<path d="M59.2448 28.3554C59.2448 28.5488 59.1163 28.7056 58.9583 28.7056C58.8004 28.7056 58.6719 28.5488 58.6719 28.3554C58.6719 28.1619 58.8004 28.0051 58.9583 28.0051C59.1163 28.0051 59.2448 28.1619 59.2448 28.3554Z" fill="#F7A491"/>
<path d="M61.6577 26.1388C62.0692 26.465 62.2134 26.9601 61.9797 27.245C61.746 27.5299 61.2229 27.497 60.8113 27.1708C60.3998 26.8447 60.2557 26.3495 60.4893 26.0646C60.723 25.7798 61.2462 25.8127 61.6577 26.1388Z" fill="#07345A"/>
<path d="M60.5815 26.406C60.5815 26.5475 60.4105 26.6625 60.1994 26.6625C59.9883 26.6625 59.8174 26.5478 59.8174 26.406C59.8174 26.2641 59.9883 26.1494 60.1994 26.1494C60.4105 26.1494 60.5815 26.2641 60.5815 26.406Z" fill="#07345A"/>
<path d="M61.3926 27.8262C61.5728 27.8262 61.7188 27.6785 61.7188 27.4962C61.7188 27.314 61.5728 27.1663 61.3926 27.1663C61.2125 27.1663 61.0664 27.314 61.0664 27.4962C61.0664 27.6785 61.2125 27.8262 61.3926 27.8262Z" fill="#07345A"/>
<path d="M53.1568 46.4071C53.1568 46.4071 52.943 46.8288 52.8764 47.0357C52.79 47.3026 52.7322 47.6199 52.7322 47.6199C52.7322 47.6199 52.3682 48.1189 52.2316 48.2726C51.9276 48.6148 51.5555 49.0194 51.3298 49.092C51.2576 49.1153 51.0518 49.0538 51.0537 48.8943C51.0614 48.2787 51.6526 46.2713 51.9069 45.9429C52.2003 45.564 53.1571 46.4071 53.1571 46.4071H53.1568Z" fill="#07345A"/>
</g>
<g clip-path="url(#clip2_7_17312)">
<path d="M72.1784 50.0652C72.1784 50.0652 73.5268 51.0402 73.7393 51.3314C74.0452 51.7505 71.4551 52.534 71.7378 52.0433C71.8027 51.9307 71.9892 51.551 71.9972 51.5136C72.0405 51.3137 71.4912 50.7759 71.4912 50.7759L72.1784 50.0656V50.0652Z" fill="#F7A491"/>
<path d="M71.0366 52.8631L71.9523 51.5651C71.9523 51.5651 72.5241 51.432 73.1107 50.7695C73.1107 50.7695 73.6379 50.9714 73.9623 51.4091C73.9623 51.4091 73.3492 52.0719 72.405 52.8176C72.405 52.8176 71.8453 53.3152 71.0715 53.5774C70.2976 53.8397 71.0366 52.8631 71.0366 52.8631Z" fill="#466EB6"/>
<path d="M83.4468 32.2918C83.4468 32.2918 83.2812 32.439 83.2222 32.4837C83.1533 32.5364 82.936 32.6779 82.936 32.6779C82.936 32.6779 82.1489 33.1268 82.1225 33.0677C82.0956 33.0086 82.0968 32.838 82.1357 32.7934C82.1746 32.7487 82.288 32.7025 82.3269 32.6574C82.3658 32.6128 82.3791 32.5223 82.3289 32.472C82.2788 32.4221 82.0098 32.5693 82.0098 32.5693C82.0098 32.5693 81.7921 32.6908 81.7011 32.8372C81.3855 33.3452 81.4813 33.375 81.4388 33.4389C81.3891 33.5146 80.2853 34.0173 80.2853 34.0173C80.2853 34.0173 76.9851 35.3937 76.8075 35.4686H76.8051C76.7811 35.6218 76.8629 35.763 76.905 35.8985C76.9839 36.3715 77.1243 36.4029 77.2313 36.859C77.7373 36.602 81.2412 34.6657 81.5976 34.4642C81.5976 34.4642 82.1313 34.3729 82.4645 34.3045C82.798 34.2361 83.0887 34.0246 83.1801 33.9908C83.1938 33.986 83.4921 33.8568 83.8201 33.6018C84.1027 33.3818 83.7379 33.4647 83.7379 33.4647C83.7379 33.4647 83.1437 33.7808 83.1284 33.7306C83.1164 33.6919 83.4508 33.5379 83.7659 33.2982C83.8469 33.2362 83.9267 33.1751 83.9997 33.1184C84.1909 32.9691 84.1577 32.8127 83.9335 32.9378C83.8545 32.982 83.7246 33.0584 83.6396 33.1256C83.5474 33.1984 83.4404 33.2362 83.3542 33.2861C83.1826 33.3846 83.0591 33.4587 83.0591 33.4494C83.0591 33.4377 83.0122 33.4337 83.0959 33.3653C83.197 33.2833 83.4488 33.1554 83.5887 33.0238C83.6677 32.9494 83.8425 32.803 83.8425 32.803C83.8425 32.803 84.0666 32.5343 84.0558 32.5162C83.9965 32.4197 83.7928 32.5621 83.6982 32.6767C83.6011 32.7202 83.4215 32.879 83.4215 32.879C83.4215 32.879 82.9885 33.1216 82.9552 33.0621C82.9412 33.0367 83.1898 32.8569 83.4071 32.6433C83.6088 32.4451 83.7812 32.213 83.7491 32.1687C83.695 32.0935 83.448 32.2906 83.448 32.2906L83.4468 32.2918Z" fill="#F8A492"/>
<path d="M74.2404 40.0423L74.0271 41.1006L68.6656 45.9928L72.5035 49.8891L71.467 50.9518C71.467 50.9518 65.7989 46.7763 65.5948 46.2293C65.2801 45.3871 69.658 39.8066 69.658 39.8066L74.2408 40.0427L74.2404 40.0423Z" fill="#B75742"/>
<path d="M77.9978 52.8804C77.9978 52.8804 79.3461 53.8554 79.5586 54.1466C79.8646 54.5657 77.2745 55.3492 77.5571 54.8585C77.6221 54.7455 77.8085 54.3658 77.8165 54.3288C77.8598 54.1289 77.3105 53.5911 77.3105 53.5911L77.9978 52.8808V52.8804Z" fill="#F7A491"/>
<path d="M76.8555 55.6836L77.7713 54.3856C77.7713 54.3856 78.3795 54.2758 78.9665 53.6138C78.9665 53.6138 79.4572 53.792 79.7816 54.2296C79.7816 54.2296 79.1686 54.8924 78.2243 55.6382C78.2243 55.6382 77.6646 56.1357 76.8908 56.398C76.117 56.6602 76.8559 55.6836 76.8559 55.6836H76.8555Z" fill="#466EB6"/>
<path d="M74.0577 40.5326L73.8167 47.2082L78.3498 52.7838L77.2869 53.7669C77.2869 53.7669 72.0245 49.2358 71.4463 47.9737C71.0879 47.1909 69.8818 40.1143 69.8818 40.1143L74.0573 40.5326H74.0577Z" fill="#F47458"/>
<path d="M69.7333 39.9849C70.1696 38.9974 70.119 31.9195 71.8162 30.262C72.4132 30.3633 72.8391 30.42 72.9389 30.4462C73.0275 31.1754 73.1249 33.851 73.1847 36.3029C73.2244 37.9364 73.1835 39.6498 73.3839 40.5528C73.5082 41.1127 69.3352 40.887 69.7333 39.9849Z" fill="#FAE0B2"/>
<path d="M74.3267 30.8114C74.803 30.9204 75.1538 30.9968 75.7785 31.9223C76.3763 32.808 77.7038 34.9104 77.7038 34.9104L81.2001 33.3526L81.3637 35.1293C81.3637 35.1293 77.4084 37.1918 76.8502 37.006C76.2921 36.8202 74.7232 34.5195 74.6073 34.3642C74.5801 34.3276 74.7389 36.8214 74.7389 37.22C74.7389 37.6186 75.497 41.0874 75.497 41.0874C75.497 41.0874 73.5729 41.5624 73.1976 40.6996C72.0461 38.0538 72.9302 30.4446 72.9302 30.4446C72.9302 30.4446 73.9843 30.7338 74.3271 30.8122L74.3267 30.8114Z" fill="#466EB6"/>
<path d="M67.0503 23.2303C67.1798 23.0887 67.2047 22.7866 67.2035 22.5948L67.2351 22.3361C67.173 22.3196 65.995 22.3084 65.6454 22.3462C65.6261 22.4612 65.6217 22.557 65.6402 22.6153C65.73 22.894 66.339 24.7012 66.339 24.7012L67.337 24.5886C67.337 24.5886 66.9749 23.5171 67.0499 23.2299L67.0503 23.2303Z" fill="#F7A491"/>
<path d="M71.4216 30.6762C71.4216 30.6762 70.7328 32.6426 70.1659 32.3595C69.5989 32.0763 66.4138 28.8187 66.3822 28.6615C66.3505 28.5042 66.1304 24.5057 66.1304 24.5057L67.3901 24.2539L68.1146 27.528C68.1146 27.528 70.4453 29.7631 70.9177 29.9836C71.39 30.204 71.4216 30.6762 71.4216 30.6762Z" fill="#466EB6"/>
<path d="M69.5619 40.4577C69.1806 40.4577 69.0398 40.405 68.7856 40.3282C68.7856 40.3282 69.5118 36.2215 69.934 32.1494C70.1007 30.5409 70.2555 29.8813 70.9171 29.9979C71.1083 30.0313 71.6263 30.2296 71.8148 30.2614C70.1525 34.9799 70.1465 38.6119 69.9111 39.6653C69.7932 40.1938 69.6902 40.4613 69.5615 40.4577H69.5619Z" fill="#466EB6"/>
<path d="M71.9902 29.5487L71.8158 30.2619C71.8158 30.2619 71.7761 30.8825 72.0632 30.9384C72.4096 31.0056 72.924 30.4859 72.924 30.4859L73.2219 28.4756L71.9898 29.5495L71.9902 29.5487Z" fill="#F7A491"/>
<path d="M71.9902 29.5487L71.8158 30.2619C71.8158 30.2619 71.7761 30.8825 72.0632 30.9384C72.4096 31.0056 72.924 30.4859 72.924 30.4859L73.2219 28.4756L71.9898 29.5495L71.9902 29.5487Z" fill="#F7A491"/>
<path d="M73.22 28.4846L71.9907 29.5493L71.8604 30.0818C72.3303 29.9684 73.0002 29.4495 73.22 28.4846Z" fill="#F47458"/>
<path d="M71.987 26.6348C71.6899 26.634 71.4221 26.8407 71.3174 27.1384C71.2308 27.3849 71.1197 27.7509 71.0492 28.1705C70.9193 28.9435 71.3579 29.6514 71.74 29.7077C72.1217 29.7641 73.0314 29.5103 73.2327 28.4154C73.3189 27.946 73.4324 27.3302 73.0475 27.0068C72.748 26.755 72.3286 26.636 71.987 26.6348Z" fill="#F7A491"/>
<path d="M73.1086 29.2501C73.1086 29.2501 74.455 28.0467 74.5135 27.1063C74.5721 26.1659 73.7068 25.6623 72.9667 25.6361C72.6323 25.6245 72.4062 25.6394 72.061 25.6828C71.3192 25.7765 70.8389 26.1063 71.0081 26.7157C71.235 27.5338 72.7743 26.8436 73.089 27.0978C73.3488 27.3074 72.9278 27.8114 73.18 28.004C73.417 28.1846 73.2963 28.1235 73.2177 28.4674C73.1391 28.8113 73.109 29.2501 73.109 29.2501H73.1086Z" fill="#184655"/>
<path d="M73.628 28.1595C73.5947 28.3847 73.4572 28.5512 73.3213 28.5311C73.1854 28.511 73.102 28.3119 73.1352 28.0867C73.1685 27.8614 73.306 27.6949 73.442 27.715C73.5779 27.7351 73.6613 27.9342 73.628 28.1595Z" fill="#F7A491"/>
<path d="M66.9337 22.4465C66.9337 22.4465 66.7468 22.5756 66.5696 22.8902C66.5696 22.8902 65.959 22.6034 65.9634 22.4859C65.9694 22.3303 66.5821 22.5362 66.5821 22.5362L66.9337 22.4469V22.4465Z" fill="#F47458"/>
<path d="M75.7774 17.8773L65.8596 23C65.326 23.2755 64.6704 23.0651 64.3958 22.5298L62.0651 17.9891C61.7904 17.4537 62.0001 16.7961 62.5338 16.5206L72.4516 11.3975C72.9852 11.122 73.6408 11.3323 73.9154 11.8677L76.2461 16.4088C76.5207 16.9441 76.311 17.6018 75.7774 17.8773Z" fill="#F7CC7F"/>
<path d="M75.487 14.9304L63.6362 21.0508L64.3431 22.4283L76.1939 16.3079L75.487 14.9304Z" fill="#355389"/>
<path d="M67.0927 21.9832L67.2358 22.3356L66.9079 22.5057C66.9079 22.5057 66.9913 22.3388 66.9612 22.293C66.7976 22.0424 66.9363 21.7962 67.0927 21.9832Z" fill="#F7A491"/>
</g>
<g clip-path="url(#clip3_7_17312)">
<path d="M77.1906 73.4429V76.9636C77.1906 80.9773 71.9095 84.0051 64.868 84.0051C57.8265 84.0051 52.5454 80.9773 52.5454 76.9636V73.4429H77.1906Z" fill="#FEA832"/>
<path d="M77.1907 73.4429V76.9636C77.1907 80.9773 71.9096 84.0051 64.8682 84.0051V73.4429H77.1907Z" fill="#FE9923"/>
<path d="M77.1906 69.9219V73.4426C77.1906 77.4563 71.9095 80.4841 64.868 80.4841C57.8265 80.4841 52.5454 77.4563 52.5454 73.4426V69.9219H77.1906Z" fill="#FEDB41"/>
<path d="M77.1907 69.9219V73.4426C77.1907 77.4563 71.9096 80.4841 64.8682 80.4841V69.9219H77.1907Z" fill="#FFCC33"/>
<path d="M77.1906 66.4014V69.9221C77.1906 73.9357 71.9095 76.9636 64.868 76.9636C57.8265 76.9636 52.5454 73.9357 52.5454 69.9221V66.4014H77.1906Z" fill="#FEA832"/>
<path d="M77.1907 66.4014V69.9221C77.1907 73.9357 71.9096 76.9636 64.8682 76.9636V66.4014H77.1907Z" fill="#FE9923"/>
<path d="M77.1906 62.8804V66.4011C77.1906 70.4148 71.9095 73.4426 64.868 73.4426C57.8265 73.4426 52.5454 70.4148 52.5454 66.4011V62.8804H77.1906Z" fill="#FEDB41"/>
<path d="M77.1907 62.8804V66.4011C77.1907 70.4148 71.9096 73.4426 64.8682 73.4426V62.8804H77.1907Z" fill="#FFCC33"/>
<path d="M77.1906 59.3599V62.8806C77.1906 66.8942 71.9095 69.9221 64.868 69.9221C57.8265 69.9221 52.5454 66.8942 52.5454 62.8806V59.3599H77.1906Z" fill="#FEA832"/>
<path d="M77.1907 59.3599V62.8806C77.1907 66.8942 71.9096 69.9221 64.8682 69.9221V59.3599H77.1907Z" fill="#FE9923"/>
<path d="M64.868 52.3184C57.8265 52.3184 52.5454 55.3462 52.5454 59.3598C52.5454 63.3735 57.8265 66.4013 64.868 66.4013C71.9095 66.4013 77.1906 63.3735 77.1906 59.3598C77.1906 55.3462 71.9095 52.3184 64.868 52.3184Z" fill="#FEDB41"/>
<path d="M77.1907 59.3598C77.1907 63.3735 71.9096 66.4013 64.8682 66.4013V52.3184C71.9096 52.3184 77.1907 55.3462 77.1907 59.3598Z" fill="#FFCC33"/>
</g>
<path d="M48.6385 52.0069L49.3321 44.4222L42.4168 47.6139L48.6385 52.0069ZM31.1023 15.5857L45.552 46.8934L46.7497 46.3405L32.3001 15.0329L31.1023 15.5857Z" fill="#333333"/>
<defs>
<clipPath id="clip0_7_17312">
<rect width="25.0028" height="79.8475" fill="white" transform="translate(3.87598 4.4209)"/>
</clipPath>
<clipPath id="clip1_7_17312">
<rect width="13.7112" height="34.6812" fill="white" transform="translate(51.0557 19.7454)"/>
</clipPath>
<clipPath id="clip2_7_17312">
<rect width="22.1799" height="45.1663" fill="white" transform="translate(61.9443 11.2766)"/>
</clipPath>
<clipPath id="clip3_7_17312">
<rect width="25.0028" height="32.2616" fill="white" transform="translate(52.2651 52.0068)"/>
</clipPath>
</defs>
</svg>
