<svg width="144" height="155" viewBox="0 0 144 155" fill="none" xmlns="http://www.w3.org/2000/svg">
<g clip-path="url(#clip0_0_265)">
<path d="M64.2031 113.28C63.231 113.104 62.3123 112.706 61.5182 112.118C60.724 111.53 60.0756 110.768 59.623 109.889C59.0636 108.811 58.8135 107.6 58.9003 106.388C58.9872 105.177 59.4077 104.013 60.1152 103.026L72.0371 86.6609L57.5859 66.7956C57.5085 66.6903 57.4619 66.5654 57.4514 66.4351C57.4409 66.3047 57.467 66.174 57.5266 66.0576C57.5862 65.9412 57.677 65.8438 57.789 65.7761C57.9009 65.7084 58.0294 65.6733 58.1602 65.6746H62.8633C63.4292 65.6554 63.9793 65.4829 64.4548 65.1755C64.9304 64.8681 65.3135 64.4374 65.5634 63.9293C65.8132 63.4212 65.9204 62.8547 65.8735 62.2904C65.8265 61.7262 65.6272 61.1852 65.2969 60.7253L45.1856 31.2078C45.1138 31.1009 45.0723 30.9766 45.0657 30.8481C45.059 30.7195 45.0874 30.5916 45.1477 30.4779C45.2081 30.3642 45.2982 30.2691 45.4084 30.2026C45.5186 30.1361 45.6447 30.1007 45.7734 30.1003H49.8477C50.2859 30.0923 50.7127 29.959 51.0776 29.7163C51.4425 29.4735 51.7304 29.1315 51.9072 28.7304C52.084 28.3293 52.1424 27.8861 52.0754 27.4529C52.0085 27.0198 51.819 26.6148 51.5293 26.2859L33.25 1.48511C32.9769 1.11905 32.6221 0.821808 32.2138 0.617049C31.8056 0.412289 31.3552 0.305664 30.8984 0.305664C30.4417 0.305664 29.9913 0.412289 29.5831 0.617049C29.1748 0.821808 28.82 1.11905 28.5469 1.48511L10.2676 26.2859C9.97908 26.6152 9.79058 27.02 9.72424 27.4528C9.6579 27.8856 9.71649 28.3283 9.8931 28.7289C10.0697 29.1295 10.357 29.4714 10.7213 29.7143C11.0855 29.9573 11.5115 30.0912 11.9492 30.1003H16.0234C16.1521 30.1007 16.2783 30.1361 16.3885 30.2026C16.4987 30.2691 16.5888 30.3642 16.6492 30.4779C16.7095 30.5916 16.7379 30.7195 16.7312 30.8481C16.7245 30.9766 16.6831 31.1009 16.6113 31.2078L-3.5 60.7253C-3.83043 61.1863 -4.02933 61.7284 -4.07543 62.2936C-4.12152 62.8589 -4.01308 63.426 -3.7617 63.9344C-3.51032 64.4428 -3.12546 64.8733 -2.64829 65.1798C-2.17113 65.4863 -1.61961 65.6573 -1.05273 65.6746H3.65039C3.78015 65.6757 3.90711 65.7124 4.01751 65.7806C4.12791 65.8488 4.21755 65.9459 4.27671 66.0614C4.33586 66.1769 4.36228 66.3063 4.3531 66.4358C4.34391 66.5652 4.29948 66.6897 4.22461 66.7956L-17.2402 96.2996C-17.5706 96.7594 -17.7699 97.3004 -17.8168 97.8647C-17.8637 98.4289 -17.7565 98.9954 -17.5067 99.5035C-17.2568 100.012 -16.8737 100.442 -16.3982 100.75C-15.9226 101.057 -15.3725 101.23 -14.8066 101.249H-8.49023C-8.36746 101.25 -8.24714 101.283 -8.141 101.345C-8.03485 101.407 -7.9465 101.495 -7.88455 101.601C-7.8226 101.707 -7.78916 101.827 -7.78749 101.95C-7.78581 102.073 -7.81596 102.194 -7.875 102.301L-24.4043 131.874C-24.7347 132.334 -24.9339 132.875 -24.9809 133.439C-25.0278 134.003 -24.9206 134.57 -24.6708 135.078C-24.4209 135.586 -24.0378 136.017 -23.5622 136.324C-23.0867 136.631 -22.5366 136.804 -21.9707 136.823H21.2324V151.232C21.2322 151.687 21.3218 152.138 21.4959 152.559C21.6699 152.979 21.9252 153.361 22.2471 153.683C22.5689 154.005 22.951 154.261 23.3716 154.435C23.7922 154.609 24.243 154.699 24.6982 154.699H37.1055C37.5607 154.699 38.0115 154.609 38.4321 154.435C38.8527 154.261 39.2348 154.005 39.5567 153.683C39.8785 153.361 40.1338 152.979 40.3079 152.559C40.482 152.138 40.5715 151.687 40.5713 151.232V136.823H53.7988C53.4146 135.85 53.2675 134.799 53.3698 133.758C53.472 132.717 53.8206 131.715 54.3867 130.835L64.2031 113.28Z" fill="white" fill-opacity="0.6"/>
<path d="M143.541 132.986L130.739 110.094C130.69 110.01 130.665 109.916 130.665 109.819C130.666 109.723 130.691 109.628 130.74 109.544C130.789 109.461 130.859 109.392 130.943 109.345C131.027 109.297 131.122 109.273 131.219 109.274H136.099C136.537 109.258 136.962 109.124 137.329 108.886C137.697 108.649 137.993 108.316 138.187 107.924C138.381 107.532 138.465 107.094 138.431 106.658C138.396 106.222 138.245 105.803 137.992 105.446L121.373 82.6136C121.313 82.532 121.276 82.4351 121.268 82.3339C121.26 82.2327 121.279 82.1312 121.325 82.0406C121.371 81.95 121.442 81.8741 121.528 81.8212C121.615 81.7684 121.715 81.7407 121.816 81.7413H125.46C125.898 81.7261 126.324 81.5923 126.693 81.3542C127.061 81.1161 127.358 80.7826 127.552 80.3892C127.746 79.9958 127.83 79.5572 127.794 79.12C127.759 78.6828 127.606 78.2634 127.351 77.9064L111.777 55.047C111.72 54.9647 111.687 54.8683 111.681 54.7685C111.676 54.6687 111.697 54.5691 111.744 54.4807C111.791 54.3924 111.861 54.3185 111.947 54.2672C112.033 54.2159 112.131 54.1891 112.231 54.1898H115.384C115.724 54.1854 116.056 54.0834 116.34 53.8959C116.624 53.7084 116.848 53.4434 116.986 53.1323C117.124 52.8211 117.169 52.477 117.117 52.1407C117.065 51.8045 116.918 51.4902 116.692 51.2353L102.536 32.0345C102.326 31.7493 102.051 31.5175 101.735 31.3577C101.418 31.198 101.068 31.1147 100.714 31.1147C100.359 31.1147 100.01 31.198 99.6932 31.3577C99.3766 31.5175 99.102 31.7493 98.8914 32.0345L84.7355 51.2353C84.5101 51.4902 84.3627 51.8045 84.3106 52.1407C84.2586 52.477 84.3041 52.8211 84.4419 53.1323C84.5797 53.4434 84.8039 53.7084 85.0879 53.8959C85.3719 54.0834 85.7037 54.1854 86.0439 54.1898H89.1967C89.2967 54.1891 89.395 54.2159 89.4808 54.2672C89.5667 54.3185 89.6368 54.3924 89.6836 54.4807C89.7304 54.5691 89.7521 54.6687 89.7462 54.7685C89.7404 54.8683 89.7073 54.9647 89.6506 55.047L74.0769 77.8982C73.8207 78.2552 73.6662 78.6752 73.63 79.1132C73.5937 79.5512 73.6771 79.9908 73.8713 80.3851C74.0654 80.7794 74.363 81.1136 74.7322 81.352C75.1015 81.5904 75.5285 81.724 75.9678 81.7386H79.6113C79.7129 81.738 79.8126 81.7656 79.8993 81.8185C79.9861 81.8713 80.0564 81.9473 80.1024 82.0379C80.1483 82.1284 80.1682 82.23 80.1597 82.3312C80.1512 82.4324 80.1147 82.5293 80.0543 82.6109L63.4361 105.443C63.1831 105.8 63.0314 106.219 62.997 106.655C62.9626 107.091 63.0468 107.529 63.2407 107.921C63.4346 108.314 63.7311 108.646 64.0985 108.884C64.466 109.121 64.891 109.255 65.3283 109.271H70.2092C70.3057 109.27 70.4008 109.294 70.4848 109.342C70.5688 109.389 70.6388 109.458 70.6875 109.542C70.7363 109.625 70.7621 109.72 70.7623 109.816C70.7626 109.913 70.7373 110.008 70.689 110.091L57.8867 132.986C57.6337 133.343 57.482 133.762 57.4476 134.199C57.4132 134.635 57.4974 135.072 57.6913 135.465C57.8852 135.857 58.1816 136.189 58.5491 136.427C58.9166 136.665 59.3416 136.799 59.7789 136.814H93.2244V151.766C93.2244 152.542 93.5327 153.286 94.0813 153.835C94.63 154.383 95.3742 154.692 96.1502 154.692H105.278C106.053 154.692 106.798 154.383 107.346 153.835C107.895 153.286 108.203 152.542 108.203 151.766V136.821H141.649C142.087 136.806 142.513 136.673 142.882 136.435C143.251 136.197 143.548 135.863 143.742 135.47C143.936 135.076 144.02 134.638 143.984 134.2C143.949 133.763 143.796 133.343 143.541 132.986Z" fill="white" fill-opacity="0.6"/>
</g>
<defs>
<clipPath id="clip0_0_265">
<rect width="169" height="155" fill="white" transform="translate(-25 0.000488281)"/>
</clipPath>
</defs>
</svg>
