<svg width="171" height="171" viewBox="0 0 171 171" fill="none" xmlns="http://www.w3.org/2000/svg">
<g clip-path="url(#clip0_0_6415)">
<path d="M81.5871 81.5814C79.4296 83.739 79.4296 87.2498 81.5874 89.4074C83.745 91.5649 87.2555 91.5649 89.4134 89.4074C91.5709 87.2495 91.5709 83.739 89.4134 81.5811C87.2558 79.4246 83.745 79.4236 81.5871 81.5814Z" fill="white" fill-opacity="0.5"/>
<path d="M135.16 93.2395C137.185 80.1424 134.04 66.3953 125.725 55.3237H45.2751C36.9597 66.395 33.815 80.1421 35.8401 93.2395C56.1221 94.8677 71.8836 112.515 70.4676 133.479C79.9495 136.427 90.5461 136.583 100.532 133.479C99.1169 112.522 114.871 94.868 135.16 93.2395ZM60.3577 80.4659H50.3009V70.409H60.3577V80.4659ZM96.5242 96.5187C93.4851 99.5579 89.4921 101.078 85.4999 101.078C81.5073 101.078 77.5151 99.5582 74.4756 96.5187C68.3969 90.44 68.3969 80.549 74.4752 74.4703C80.5543 68.3916 90.4455 68.392 96.5239 74.47C102.603 80.549 102.603 90.44 96.5242 96.5187ZM110.642 70.409H120.699V80.4659H110.642V70.409Z" fill="white" fill-opacity="0.5"/>
<path d="M124.461 39.4221L142.284 21.5989C109.969 -7.19522 61.0594 -7.2197 28.7165 21.5989L46.5392 39.4221C68.9506 20.4421 102.049 20.4421 124.461 39.4221Z" fill="white" fill-opacity="0.5"/>
<path d="M149.395 28.7104L131.572 46.5336C133.907 49.2895 135.979 52.2425 137.757 55.3239C150.259 76.9908 148.198 104.824 131.572 124.456L149.395 142.279C178.189 109.963 178.214 61.054 149.395 28.7104Z" fill="white" fill-opacity="0.5"/>
<path d="M46.5389 131.567L28.7161 149.39C61.0315 178.184 109.94 178.209 142.284 149.39L124.461 131.567C102.041 150.553 68.9523 150.549 46.5389 131.567Z" fill="white" fill-opacity="0.5"/>
<path d="M33.2431 55.3236C33.3855 55.1201 35.5317 51.1339 39.428 46.5332L21.6049 28.7104C-7.18892 61.0259 -7.2144 109.935 21.6049 142.278L39.4277 124.456C22.8017 104.823 20.7404 76.9908 33.2431 55.3236Z" fill="white" fill-opacity="0.5"/>
</g>
<defs>
<clipPath id="clip0_0_6415">
<rect width="171" height="171" fill="white" transform="translate(0 -0.00585938)"/>
</clipPath>
</defs>
</svg>
