<svg width="89" height="89" viewBox="0 0 89 89" fill="none" xmlns="http://www.w3.org/2000/svg">
<g clip-path="url(#clip0_7_17424)">
<path d="M39.7822 21.0393C39.5739 21.1145 38.4879 19.8402 38.1435 19.428C38.0742 19.345 38.0224 19.2497 37.9904 19.1466L36.9672 15.8657C36.8827 15.6449 37.0324 15.4044 37.2682 15.3819C37.7053 15.34 38.1355 15.5141 38.4194 15.8484L39.0967 17.5619L40.9259 17.9897L42.3223 19.7534L39.7825 21.0397L39.7822 21.0393Z" fill="#F6A36B"/>
<path d="M38.5709 18.2855C38.5289 18.1924 38.3136 13.1392 38.2677 12.049C38.2636 11.9535 38.3611 11.8868 38.4492 11.9246L38.767 12.0605C39.0871 12.1975 39.3195 12.4821 39.3892 12.8226L40.6489 18.9839L38.5709 18.2857V18.2855Z" fill="#F6A36B"/>
<path d="M38.9529 14.8705L38.6954 11.7752C38.6854 11.6544 38.8041 11.5637 38.9185 11.6052L39.2722 11.7335C39.5514 11.8349 39.7611 12.0691 39.8304 12.3573L41.5031 19.3015L40.4947 19.2822L38.9529 14.8708V14.8705Z" fill="#F6A36B"/>
<path d="M39.8303 12.3572L40.2925 12.6796C40.463 12.7986 40.5862 12.9737 40.6404 13.174L40.8879 14.0888L41.1732 14.3084C41.3413 14.4378 41.4597 14.621 41.5087 14.8274L42.249 17.4411L42.3218 19.7531L40.5199 20.0759L39.8301 12.3574L39.8303 12.3572Z" fill="#F6A36B"/>
<path d="M39.6515 15.817C39.6205 15.817 39.593 15.7946 39.5881 15.7628L39.0775 12.5566L38.716 12.1001C38.694 12.0722 38.6987 12.0318 38.7267 12.01C38.7544 11.9879 38.7951 11.9927 38.817 12.0205L39.1889 12.4903C39.1958 12.4989 39.2001 12.5091 39.2019 12.5201L39.715 15.7429C39.7206 15.7779 39.6966 15.8108 39.6615 15.8164C39.658 15.8168 39.6548 15.8173 39.6513 15.8173L39.6515 15.817Z" fill="#323232"/>
<path d="M40.4345 15.5188C40.4044 15.5188 40.3776 15.4977 40.3715 15.4672L39.7776 12.4855C39.7707 12.4507 39.7934 12.417 39.8283 12.4101C39.8632 12.4034 39.897 12.4259 39.9039 12.4607L40.4978 15.4423C40.5047 15.4771 40.482 15.5108 40.4471 15.5178C40.4428 15.5186 40.4387 15.5191 40.4345 15.5191V15.5188Z" fill="#323232"/>
<path d="M40.5918 18.619C40.5806 18.619 40.5691 18.616 40.5589 18.61L39.1296 17.7558C39.1175 17.7487 39.1082 17.7376 39.103 17.7247L38.3596 15.8725C38.3464 15.8396 38.3624 15.8022 38.3954 15.789C38.4283 15.7759 38.4657 15.7919 38.479 15.8247L39.2143 17.6568L40.625 18.5C40.6555 18.5181 40.6655 18.5577 40.6471 18.5879C40.6349 18.608 40.6137 18.619 40.5918 18.619Z" fill="#323232"/>
<path d="M41.373 15.8855C41.3539 15.8855 41.3351 15.8771 41.3225 15.8611L41.0678 15.5396C41.0611 15.531 41.0565 15.521 41.0548 15.5102L40.8246 14.0992C40.8189 14.0642 40.8425 14.0312 40.8776 14.0255C40.9125 14.0197 40.9459 14.0435 40.9515 14.0785L41.1791 15.4731L41.4234 15.7816C41.4455 15.8095 41.4408 15.8499 41.4128 15.8717C41.4011 15.881 41.3871 15.8855 41.373 15.8855Z" fill="#323232"/>
<path d="M39.3314 19.0991L38.2114 21.9749L41.3969 23.2305L42.322 19.753L39.3314 19.0991Z" fill="#F6A36B"/>
<path d="M9.19828 55.4462L7.70356 56.3697L6.27923 57.0097C6.14906 57.0683 5.99658 57.0434 5.89174 56.9466C5.7345 56.8014 5.74099 56.5514 5.90539 56.4144L6.59849 55.8368L6.45684 55.0222L9.19828 55.4462Z" fill="#F6A36B"/>
<path d="M10.1383 53.304C10.1727 53.8898 9.98754 54.4674 9.61889 54.9246L9.19827 55.4462L6.29568 55.6247L5.09791 57.4771C4.98615 57.65 4.75699 57.7029 4.58047 57.5968C4.41239 57.4959 4.3485 57.2842 4.43275 57.1074L4.90558 56.1158L4.06281 56.9732C3.91682 57.1217 3.69178 57.1597 3.50486 57.0677C3.32205 56.9776 3.21592 56.7824 3.23975 56.5804L3.25556 56.4469C2.98222 56.284 2.91616 55.9175 3.11586 55.6701L4.51527 53.9345C4.58675 53.8457 4.67837 53.7753 4.78255 53.7286L8.04014 52.3137L10.1381 53.3044L10.1383 53.304Z" fill="#F6A36B"/>
<path d="M4.90565 56.18C4.89612 56.18 4.88638 56.1779 4.87706 56.1733C4.84522 56.1576 4.83223 56.1191 4.84804 56.0873L5.38433 55.0076C5.40014 54.9758 5.43869 54.9629 5.47053 54.9786C5.50237 54.9944 5.51537 55.0329 5.49956 55.0646L4.96327 56.1444C4.95201 56.1669 4.92926 56.18 4.90565 56.18Z" fill="#323232"/>
<path d="M3.25561 56.5109C3.24305 56.5109 3.23027 56.5072 3.21922 56.4995C3.18998 56.4794 3.18262 56.4394 3.20276 56.4102L4.49908 54.5334C4.51922 54.5042 4.55929 54.4968 4.58854 54.5169C4.61778 54.537 4.62514 54.577 4.605 54.6062L3.30868 56.483C3.29611 56.5012 3.27619 56.5109 3.25561 56.5109Z" fill="#323232"/>
<path d="M6.64849 55.8349C6.6186 55.8349 6.59174 55.8139 6.58546 55.7837L6.43493 55.0537C6.42778 55.0189 6.45009 54.985 6.48496 54.9779C6.51961 54.9708 6.55384 54.993 6.56098 55.0278L6.71152 55.7577C6.71867 55.7925 6.69636 55.8264 6.66148 55.8336C6.65715 55.8344 6.65282 55.8349 6.64849 55.8349Z" fill="#323232"/>
<path d="M10.1642 53.5019L12.8129 48.4588L10.0827 46.9121L7.71924 52.7274L10.1642 53.5019Z" fill="#F6A36B"/>
<path d="M16.9502 48.7283L28.9368 50.3772L29.0867 51.9029C29.2214 53.2746 29.2305 54.6557 29.114 56.0291L28.9641 80.179H22.0536L21.8838 57.8984L21.1686 57.8608L18.7722 80.2959C18.7722 80.2959 10.2659 80.2959 10.2661 80.2959L13.8547 57.6668C14.2252 55.923 14.7457 54.2145 15.4105 52.5602L16.95 48.7283H16.9502Z" fill="#D7C4E3"/>
<path d="M17.3422 50.2861L17.332 50.4141L28.3377 51.282L28.3479 51.1541L17.3422 50.2861Z" fill="black"/>
<path d="M24.1801 55.9611L19.6729 56.0317L19.6749 56.1601L24.1821 56.0894L24.1801 55.9611Z" fill="black"/>
<path d="M22.3016 56.0926C22.2663 56.0926 22.2304 56.085 22.1959 56.0693C22.0954 56.0234 22.0385 55.923 22.051 55.8134L22.471 52.1509L22.5988 52.1654L22.1788 55.8279C22.1715 55.8927 22.2105 55.9346 22.2494 55.9524C22.2882 55.9703 22.3456 55.972 22.3898 55.924L22.518 55.7851C22.815 55.4627 23.0266 54.975 23.0983 54.4474L23.4002 52.2254L23.5278 52.2427L23.2258 54.4646C23.1507 55.0176 22.9272 55.5306 22.6129 55.872L22.4847 56.0109C22.4355 56.0643 22.3696 56.0924 22.3016 56.0924V56.0926Z" fill="black"/>
<path d="M15.8756 53.3364L15.8115 53.2251C16.9131 52.5935 17.8508 51.6911 18.5231 50.6157L18.6322 50.6836C17.9489 51.7769 16.9956 52.6942 15.8756 53.3364Z" fill="black"/>
<path d="M12.9138 68.8143C12.9107 68.8141 12.9077 68.8137 12.9045 68.8133C12.8436 68.8033 12.8022 68.7461 12.812 68.6853L12.9554 67.8044C12.9653 67.7434 13.0231 67.7028 13.0836 67.7121C13.1444 67.7221 13.1858 67.7793 13.1761 67.84L13.0327 68.721C13.0234 68.7787 12.9709 68.8189 12.9136 68.8143H12.9138ZM13.2005 67.0524C13.1975 67.0522 13.1945 67.0518 13.1912 67.0513C13.1304 67.0414 13.089 66.9841 13.0987 66.9234L13.2421 66.0425C13.2521 65.9818 13.3093 65.9411 13.3704 65.9502C13.4312 65.9602 13.4726 66.0174 13.4628 66.0781L13.3195 66.9591C13.3101 67.0168 13.2577 67.057 13.2003 67.0524H13.2005ZM13.4873 65.2905C13.4843 65.2903 13.4812 65.2899 13.478 65.2894C13.4171 65.2795 13.3758 65.2222 13.3855 65.1615L13.5289 64.2806C13.5389 64.2199 13.5954 64.179 13.6571 64.1883C13.718 64.1982 13.7594 64.2555 13.7496 64.3162L13.6062 65.1972C13.5969 65.2549 13.5445 65.2951 13.4871 65.2905H13.4873ZM13.7741 63.5286C13.7711 63.5284 13.768 63.528 13.7648 63.5275C13.7039 63.5176 13.6625 63.4603 13.6723 63.3996L13.8157 62.5187C13.8256 62.4579 13.883 62.4171 13.9439 62.4264C14.0048 62.4363 14.0461 62.4936 14.0364 62.5543L13.893 63.4353C13.8837 63.493 13.8313 63.5332 13.7739 63.5286H13.7741ZM14.0609 61.7667C14.0578 61.7665 14.0548 61.7661 14.0515 61.7656C13.9907 61.7557 13.9493 61.6984 13.9591 61.6377L14.1024 60.7568C14.1124 60.6958 14.1698 60.6556 14.2307 60.6645C14.2915 60.6744 14.3329 60.7317 14.3232 60.7924L14.1798 61.6734C14.1705 61.7311 14.118 61.7712 14.0606 61.7667H14.0609ZM14.3476 60.0048C14.3446 60.0046 14.3416 60.0042 14.3383 60.0037C14.2774 59.9938 14.2361 59.9365 14.2458 59.8758L14.3892 58.9948C14.3992 58.9339 14.457 58.8935 14.5174 58.9026C14.5783 58.9125 14.6197 58.9698 14.6099 59.0305L14.4665 59.9115C14.4572 59.9691 14.4048 60.0093 14.3474 60.0048H14.3476ZM14.6344 58.2429C14.6314 58.2427 14.6283 58.2422 14.6251 58.2418C14.5642 58.2319 14.5229 58.1746 14.5326 58.1139L14.676 57.2329C14.6859 57.172 14.7442 57.1316 14.8042 57.1407C14.8651 57.1506 14.9064 57.2079 14.8967 57.2686L14.7533 58.1496C14.744 58.2072 14.6916 58.2474 14.6342 58.2429H14.6344Z" fill="#D0B9DE"/>
<path d="M22.5048 70.7259C22.4433 70.7263 22.393 70.677 22.3924 70.6157L22.3815 69.7232C22.3809 69.6617 22.4303 69.6111 22.492 69.6102C22.4922 69.6102 22.4924 69.6102 22.4926 69.6102C22.5542 69.6098 22.6044 69.6591 22.6051 69.7204L22.6159 70.6128C22.6165 70.6744 22.5672 70.725 22.5054 70.7259C22.5052 70.7259 22.505 70.7259 22.5048 70.7259ZM22.4831 68.941C22.4216 68.9415 22.3714 68.8922 22.3707 68.8308L22.3599 67.9384C22.3592 67.8769 22.4086 67.8263 22.4703 67.8254C22.4706 67.8254 22.4708 67.8254 22.471 67.8254C22.5325 67.825 22.5828 67.8743 22.5834 67.9356L22.5942 68.828C22.5949 68.8896 22.5455 68.9402 22.4838 68.941C22.4836 68.941 22.4833 68.941 22.4831 68.941ZM22.4612 67.1562C22.3997 67.1567 22.3495 67.1074 22.3488 67.046L22.338 66.1536C22.3373 66.092 22.3867 66.0415 22.4485 66.0406C22.4487 66.0406 22.4489 66.0406 22.4491 66.0406C22.5106 66.0402 22.5609 66.0894 22.5615 66.1508L22.5724 67.0432C22.573 67.1048 22.5236 67.1554 22.4619 67.1562C22.4617 67.1562 22.4615 67.1562 22.4612 67.1562ZM22.4394 65.3714C22.3779 65.3719 22.3276 65.3226 22.327 65.2612L22.3161 64.3688C22.3155 64.3072 22.3649 64.2567 22.4266 64.2558C22.4268 64.2558 22.427 64.2558 22.4272 64.2558C22.4887 64.2554 22.539 64.3046 22.5396 64.366L22.5505 65.2584C22.5511 65.32 22.5017 65.3706 22.44 65.3714C22.4398 65.3714 22.4396 65.3714 22.4394 65.3714ZM22.4175 63.5866C22.356 63.587 22.3057 63.5378 22.3051 63.4764L22.2942 62.584C22.2936 62.5224 22.343 62.4719 22.4047 62.471C22.4049 62.471 22.4051 62.471 22.4054 62.471C22.4669 62.4706 22.5171 62.5198 22.5178 62.5812L22.5286 63.4736C22.5293 63.5352 22.4799 63.5857 22.4181 63.5866C22.4179 63.5866 22.4177 63.5866 22.4175 63.5866ZM22.3956 61.8018C22.3341 61.8022 22.2839 61.753 22.2832 61.6916L22.2724 60.7992C22.2717 60.7376 22.3211 60.687 22.3828 60.6862C22.3831 60.6862 22.3833 60.6862 22.3835 60.6862C22.445 60.6858 22.4952 60.735 22.4959 60.7964L22.5067 61.6888C22.5074 61.7504 22.458 61.8009 22.3963 61.8018C22.396 61.8018 22.3958 61.8018 22.3956 61.8018ZM22.3737 60.017C22.3122 60.0174 22.262 59.9682 22.2613 59.9068L22.2505 59.0144C22.2498 58.9528 22.2992 58.9022 22.361 58.9014C22.3612 58.9014 22.3614 58.9014 22.3616 58.9014C22.4231 58.9009 22.4734 58.9502 22.474 59.0116L22.4849 59.904C22.4855 59.9656 22.4361 60.0161 22.3744 60.017C22.3742 60.017 22.374 60.017 22.3737 60.017Z" fill="#D0B9DE"/>
<path d="M22.6224 79.9389C22.5609 79.9394 22.5106 79.8901 22.51 79.8287L22.4991 78.9363C22.4985 78.8748 22.5479 78.8242 22.6096 78.8233C22.6098 78.8233 22.61 78.8233 22.6102 78.8233C22.6718 78.8229 22.722 78.8722 22.7227 78.9335L22.7335 79.8259C22.7341 79.8875 22.6848 79.9381 22.623 79.9389C22.6228 79.9389 22.6226 79.9389 22.6224 79.9389ZM22.6005 78.1541C22.539 78.1546 22.4887 78.1053 22.4881 78.0439L22.4773 77.1515C22.4766 77.0899 22.526 77.0394 22.5877 77.0385C22.5879 77.0385 22.5882 77.0385 22.5884 77.0385C22.6499 77.0381 22.7001 77.0874 22.7008 77.1487L22.7116 78.0411C22.7123 78.1027 22.6629 78.1533 22.6011 78.1541C22.6009 78.1541 22.6007 78.1541 22.6005 78.1541ZM22.5786 76.3693C22.5171 76.3698 22.4669 76.3205 22.4662 76.2591L22.4554 75.3667C22.4547 75.3051 22.5041 75.2546 22.5658 75.2537C22.5658 75.2537 22.5663 75.2537 22.5665 75.2537C22.628 75.2533 22.6783 75.3025 22.6789 75.3639L22.6897 76.2563C22.6904 76.3179 22.641 76.3685 22.5793 76.3693C22.5791 76.3693 22.5788 76.3693 22.5786 76.3693ZM22.5567 74.5845C22.4952 74.5849 22.445 74.5357 22.4443 74.4743L22.4335 73.5819C22.4329 73.5203 22.4822 73.4698 22.544 73.4689C22.5442 73.4689 22.5444 73.4689 22.5446 73.4689C22.6061 73.4685 22.6564 73.5177 22.657 73.5791L22.6679 74.4715C22.6685 74.5331 22.6191 74.5836 22.5574 74.5845C22.5572 74.5845 22.557 74.5845 22.5567 74.5845ZM22.5349 72.7997C22.4734 72.8001 22.4231 72.7509 22.4225 72.6895L22.4116 71.7971C22.411 71.7355 22.4604 71.6849 22.5221 71.6841C22.5223 71.6841 22.5225 71.6841 22.5227 71.6841C22.5843 71.6837 22.6345 71.7329 22.6352 71.7943L22.646 72.6867C22.6466 72.7483 22.5972 72.7988 22.5355 72.7997C22.5353 72.7997 22.5351 72.7997 22.5349 72.7997Z" fill="#D0B9DE"/>
<path d="M11.6521 77.8392C11.5912 77.8305 11.5488 77.7744 11.5572 77.7136L11.6785 76.8294C11.687 76.7685 11.7433 76.7257 11.8044 76.7339C11.8044 76.7339 11.8048 76.7339 11.805 76.7339C11.8659 76.7426 11.9083 76.7988 11.8999 76.8595L11.7786 77.7437C11.7701 77.8046 11.7138 77.8474 11.6527 77.8392C11.6525 77.8392 11.6523 77.8392 11.6521 77.8392ZM11.8947 76.0706C11.8338 76.0619 11.7914 76.0057 11.7998 75.945L11.9211 75.0608C11.9295 74.9997 11.9859 74.9571 12.0472 74.9653C12.0474 74.9653 12.0476 74.9653 12.0478 74.9653C12.1087 74.974 12.1511 75.0301 12.1427 75.0909L12.0214 75.9751C12.0129 76.0362 11.9566 76.0788 11.8955 76.0706C11.8953 76.0706 11.8951 76.0706 11.8949 76.0706H11.8947ZM12.1373 74.3022C12.0764 74.2935 12.0339 74.2374 12.0424 74.1766L12.1637 73.2924C12.1721 73.2315 12.2285 73.1887 12.2895 73.1969C12.2897 73.1969 12.29 73.1969 12.2902 73.1969C12.351 73.2056 12.3935 73.2618 12.385 73.3225L12.2638 74.2067C12.2553 74.2676 12.199 74.3104 12.1379 74.3022C12.1379 74.3022 12.1375 74.3022 12.1373 74.3022ZM12.3798 72.5336C12.319 72.5249 12.2765 72.4688 12.285 72.408L12.4063 71.5238C12.4147 71.4627 12.471 71.4201 12.5321 71.4283C12.5323 71.4283 12.5325 71.4283 12.5328 71.4283C12.5936 71.437 12.6361 71.4932 12.6276 71.5539L12.5063 72.4381C12.4979 72.4992 12.4416 72.5418 12.3803 72.5336C12.3801 72.5336 12.3798 72.5336 12.3796 72.5336H12.3798ZM12.6224 70.7652C12.5616 70.7565 12.5191 70.7004 12.5276 70.6396L12.6489 69.7555C12.6573 69.6945 12.7136 69.6517 12.7747 69.6599C12.7747 69.6599 12.7751 69.6599 12.7754 69.6599C12.8362 69.6686 12.8787 69.7248 12.8702 69.7855L12.7489 70.6697C12.7405 70.7306 12.6842 70.7734 12.6231 70.7652C12.6229 70.7652 12.6227 70.7652 12.6224 70.7652Z" fill="#D0B9DE"/>
<path d="M26.5143 30.4922C25.6646 29.861 24.9466 29.0538 24.3503 28.1477C24.3378 28.1469 24.3256 28.1449 24.3131 28.1443L23.722 31.1136L22.6455 31.1197L24.1803 35.5863L29.924 31.3055L27.8007 31.3891L27.7961 31.0689C27.3285 30.9512 26.8888 30.7584 26.5143 30.4922Z" fill="#F6A36B"/>
<path d="M24.3501 28.1475C24.9462 29.0537 25.6644 29.8607 26.5141 30.4919C26.8886 30.7581 27.3283 30.9509 27.7959 31.0686L27.7714 29.361C26.4818 30.2389 25.8606 28.2557 24.3501 28.1475Z" fill="#F37D3D"/>
<path d="M28.5484 31.3594L26.2375 33.4039L22.6451 31.1195C21.4857 30.9596 19.9957 30.8937 19.3778 30.9095L17.9296 36.0448L15.9229 49.4367L29.2982 50.8782L30.9651 37.4135L30.6125 31.2617L28.5479 31.3596L28.5484 31.3594Z" fill="#8DCC9F"/>
<path d="M29.6001 22.9285C29.6001 22.9285 28.7495 21.414 26.2721 21.6204C23.7947 21.8265 22.3645 23.8968 22.6171 25.4394C22.8698 26.982 24.2173 28.7086 24.2173 28.7086L24.4265 25.6831L29.6001 22.9288V22.9285Z" fill="#433931"/>
<path d="M29.8586 27.1412C29.8365 28.9789 28.3827 30.5524 26.3125 30.2512C24.953 30.0533 24.1258 28.9558 23.8899 27.7123C23.7392 26.9176 23.6172 25.8743 23.7686 25.0761C24.1715 22.9514 26.3723 22.7978 26.3723 22.7978C27.5428 22.6716 28.3494 22.9573 28.9036 23.4622C29.8859 24.3508 29.8729 25.9688 29.8588 27.1412H29.8586Z" fill="#F6A36B"/>
<path d="M24.695 26.7631C24.6894 27.2387 24.3883 27.6389 23.9673 27.7923C23.8414 27.8388 23.7063 27.8636 23.5666 27.8619C22.9525 27.8545 22.46 27.3513 22.4674 26.7363C22.4747 26.1237 22.9792 25.6324 23.5932 25.6397C23.6413 25.6404 23.6896 25.6432 23.7351 25.651C24.2833 25.7272 24.7015 26.1983 24.6946 26.7629L24.695 26.7631Z" fill="#F6A36B"/>
<path d="M23.6885 27.1883C23.7344 27.1861 23.771 27.1483 23.771 27.1019C23.7705 26.3843 23.2728 26.0746 23.2518 26.0619C23.2109 26.037 23.1576 26.0502 23.1327 26.0911C23.108 26.1319 23.1208 26.1848 23.1617 26.2097C23.1799 26.2209 23.5975 26.4854 23.5977 27.1021C23.5977 27.1498 23.6367 27.1885 23.6843 27.1885C23.6856 27.1885 23.6872 27.1885 23.6885 27.1885V27.1883Z" fill="#F37D3D"/>
<path d="M23.6414 26.8379C23.6596 26.837 23.6778 26.8305 23.6928 26.8178C23.7296 26.7871 23.7343 26.7327 23.7038 26.6959C23.4809 26.4297 23.0729 26.5263 23.0558 26.5304C23.0092 26.5419 22.9808 26.5888 22.9923 26.635C23.0038 26.6814 23.0503 26.71 23.0971 26.6983C23.101 26.6974 23.4179 26.624 23.5708 26.8068C23.5888 26.8284 23.6152 26.839 23.6416 26.8377L23.6414 26.8379Z" fill="#F37D3D"/>
<path d="M27.7998 27.8337C27.766 27.8391 27.7302 27.83 27.703 27.8054C27.6549 27.7624 27.6508 27.6887 27.6941 27.6407L27.9967 27.3039L27.8015 26.5394C27.7855 26.4769 27.8234 26.4134 27.886 26.3976C27.9492 26.3819 28.012 26.4195 28.0281 26.4819L28.2386 27.3067C28.2481 27.3443 28.2386 27.3843 28.2124 27.4132L27.8682 27.7963C27.8496 27.8168 27.8253 27.8294 27.8 27.8335L27.7998 27.8337Z" fill="#323232"/>
<path d="M28.8507 26.002C28.9911 26.0065 29.1299 26.0424 29.2495 26.1033C29.3134 26.1357 29.2861 26.2146 29.2111 26.2122L28.4775 26.1889C28.4026 26.1865 28.3805 26.1061 28.4461 26.0778C28.5694 26.0247 28.7101 25.9977 28.8505 26.0022L28.8507 26.002Z" fill="#323232"/>
<path d="M26.903 25.939C27.0433 25.9435 27.1822 25.9794 27.3017 26.0403C27.3656 26.0727 27.3383 26.1516 27.2634 26.1492L26.5298 26.1259C26.4548 26.1235 26.4327 26.0431 26.4984 26.0148C26.6216 25.9617 26.7624 25.9347 26.9027 25.9392L26.903 25.939Z" fill="#323232"/>
<path d="M26.6402 27.9509C26.5635 28.5233 26.9662 29.0493 27.54 29.126C28.1137 29.2025 28.6409 28.8008 28.7178 28.2284L26.6404 27.9509H26.6402Z" fill="#F15F62"/>
<path d="M27.1236 26.8979C26.9742 26.7618 26.6828 26.5697 26.3926 26.7929C26.3575 26.8199 26.3707 26.8759 26.4147 26.8824L27.0818 26.9831C27.1303 26.9904 27.1598 26.9306 27.1236 26.8977V26.8979Z" fill="#323232"/>
<path d="M28.6516 26.9181C28.7893 26.788 29.0092 26.6528 29.2583 26.7742C29.3185 26.8036 29.3087 26.8926 29.2438 26.9086L28.7192 27.0391C28.6477 27.0568 28.5979 26.9685 28.6514 26.9179L28.6516 26.9181Z" fill="#323232"/>
<path d="M25.3574 23.1878C25.4148 23.1852 26.1599 23.4799 26.6897 23.693C26.9812 23.8101 27.2975 23.847 27.6096 23.8101C28.0698 23.7558 28.8821 23.8403 29.7471 24.7746C29.7471 24.7746 30.5078 23.7524 30.0341 23.2366C29.5602 22.7208 27.3144 21.4812 26.3746 21.8842C25.4347 22.2871 25.3574 23.1875 25.3574 23.1875V23.1878Z" fill="#433931"/>
<path d="M25.6479 22.9949L25.8284 23.1868C26.2334 23.6176 26.2096 24.295 25.7753 24.6965L24.5533 25.8264L24.3975 26.9696L23.396 25.4325C23.396 25.4325 23.4341 23.069 25.6479 22.9949Z" fill="#433931"/>
<path d="M28.5483 31.3594L34.4466 29.5161L38.2108 21.0393L42.4938 21.6236L39.936 30.3882C39.7205 31.6935 38.9813 32.8549 37.889 33.6049L30.6924 38.7187L28.5483 31.3592V31.3594Z" fill="#8DCC9F"/>
<path d="M19.378 30.9096L18.2885 31.2268C17.1414 31.5609 16.1841 32.3537 15.6437 33.4168L7.4917 51.9054L12.0725 53.1454L19.5322 37.6489L19.3782 30.9094L19.378 30.9096Z" fill="#8DCC9F"/>
<path d="M16.8564 43.2708C16.8471 43.2708 16.8376 43.2689 16.8285 43.2646C16.7964 43.2492 16.783 43.211 16.7984 43.179L19.1103 38.3762C19.1257 38.3442 19.1642 38.3309 19.1961 38.3462C19.2281 38.3615 19.2415 38.3998 19.2262 38.4318L16.9142 43.2343C16.9032 43.2572 16.8802 43.2708 16.8562 43.2708H16.8564Z" fill="#323232"/>
<path d="M30.6923 38.7828C30.6891 38.7828 30.6858 38.7826 30.6826 38.7822C30.6475 38.7768 30.6234 38.7442 30.6286 38.7089L31.1723 35.1618C31.1777 35.1268 31.2104 35.1024 31.2457 35.108C31.2808 35.1134 31.3048 35.146 31.2996 35.1812L30.756 38.7284C30.7512 38.7601 30.7237 38.7828 30.6925 38.7828H30.6923Z" fill="#323232"/>
<path d="M44.0503 21.7255L42.7915 19.9705C42.4033 19.4292 42.2983 18.7351 42.5092 18.1038L43.402 15.4317L43.8305 12.5495C43.8701 12.2826 44.1133 12.0942 44.3823 12.1218L44.5749 12.1417L44.4566 16.1202L46.1118 20.4752L44.0501 21.7255H44.0503Z" fill="#C16D55"/>
<path d="M44.0229 14.7477L44.5209 12.0742C44.6121 11.5843 45.0879 11.2639 45.5774 11.3626L45.6264 11.3725L45.0723 18.7369L44.0229 14.7479V14.7477Z" fill="#C16D55"/>
<path d="M44.2468 18.6414C44.3365 18.521 45.5815 11.9734 45.5815 11.9734L46.1151 12.2452L45.9447 14.5493L46.095 14.9981L45.7339 19.8981L44.2466 18.6414H44.2468Z" fill="#C16D55"/>
<path d="M44.7878 16.982C44.7592 16.982 44.7333 16.963 44.7257 16.934L44.4079 15.7261C44.4064 15.7203 44.4058 15.714 44.4058 15.708L44.5106 12.1397C44.5117 12.1042 44.5416 12.0763 44.5769 12.0774C44.6124 12.0785 44.6403 12.1081 44.6392 12.1435L44.5349 15.7026L44.8502 16.9016C44.8593 16.936 44.8387 16.971 44.8043 16.98C44.7989 16.9815 44.7932 16.9822 44.7878 16.9822V16.982Z" fill="#323232"/>
<path d="M45.4829 16.4242C45.4543 16.4242 45.4283 16.4052 45.4207 16.3762L45.2511 15.7312C45.2494 15.7246 45.2487 15.7174 45.2492 15.7103L45.5175 11.9682C45.5201 11.9328 45.5509 11.9067 45.5864 11.9088C45.6219 11.9114 45.6486 11.9421 45.646 11.9775L45.3785 15.709L45.5455 16.3436C45.5546 16.378 45.534 16.413 45.4995 16.4221C45.4941 16.4236 45.4885 16.4242 45.4831 16.4242H45.4829Z" fill="#323232"/>
<path d="M76.5239 52.0566L77.8564 53.7408L79.2268 55.0696C79.352 55.1911 79.5378 55.2259 79.6988 55.1582C79.9403 55.0567 80.0373 54.7665 79.9056 54.5405L79.3503 53.5878L79.8536 52.7101L76.5239 52.0566Z" fill="#C16D55"/>
<path d="M76.644 49.1533C76.3594 49.8125 76.0256 50.6025 76.2584 51.2816L76.524 52.0565L79.787 53.4699L80.3896 56.0985C80.4459 56.3437 80.6872 56.5 80.9345 56.4515C81.1699 56.4053 81.332 56.1886 81.309 55.9502L81.1799 54.6131L81.7905 55.9498C81.8962 56.1812 82.139 56.3187 82.3924 56.2906C82.6402 56.2629 82.844 56.0829 82.9012 55.8407L82.9389 55.6806C83.3214 55.6071 83.5503 55.213 83.4245 54.8454L82.541 52.2672C82.4957 52.1354 82.4199 52.0161 82.3196 51.9191L79.312 49.6909L77.9288 47.8953L76.6438 49.1535L76.644 49.1533Z" fill="#C16D55"/>
<path d="M81.1802 54.6773C81.148 54.6773 81.12 54.6531 81.1163 54.6202L80.9511 53.1554C80.9472 53.1202 80.9725 53.0884 81.0078 53.0843C81.0429 53.0807 81.075 53.1057 81.0789 53.141L81.2441 54.6058C81.248 54.641 81.2227 54.6727 81.1874 54.6768C81.185 54.6771 81.1826 54.6773 81.18 54.6773H81.1802Z" fill="#323232"/>
<path d="M82.9388 55.7447C82.9102 55.7447 82.8843 55.7257 82.8767 55.6967L82.171 52.999C82.1621 52.9646 82.1827 52.9296 82.2171 52.9205C82.2514 52.9117 82.2867 52.9322 82.2956 52.9663L83.0012 55.6641C83.0101 55.6984 82.9895 55.7334 82.9551 55.7425C82.9497 55.7438 82.9443 55.7447 82.9388 55.7447Z" fill="#323232"/>
<path d="M79.3206 53.5553C79.3091 53.5553 79.2974 53.5522 79.287 53.5458C79.2567 53.5272 79.2474 53.4876 79.2658 53.4576L79.744 52.681C79.7626 52.6508 79.8023 52.6413 79.8326 52.6601C79.8629 52.6786 79.8725 52.7182 79.8538 52.7482L79.3756 53.5248C79.3635 53.5445 79.3422 53.5555 79.3208 53.5555L79.3206 53.5553Z" fill="#323232"/>
<path d="M56.7206 48.2197L55.7773 52.4304L55.4722 80.2957H61.727L62.1918 58.2047H62.8026L63.719 80.2957H69.6446L68.7457 54.3952C68.6758 53.9659 68.59 53.5398 68.4884 53.118L66.8492 47.9639L56.7202 48.2197H56.7206Z" fill="#FFCE90"/>
<path d="M63.2178 56.6134L60.0629 56.6096C60.0273 56.6096 59.9985 56.5808 59.9985 56.5454C59.9985 56.5099 60.0273 56.4812 60.0629 56.4812L63.2178 56.4851C63.2533 56.4851 63.2821 56.5138 63.2821 56.5493C63.2821 56.5847 63.2533 56.6134 63.2178 56.6134Z" fill="#323232"/>
<path d="M67.4678 54.6758C67.4635 54.6758 67.4592 54.6753 67.4548 54.6745C66.1078 54.3979 65.2311 50.5783 65.1944 50.4158C65.1867 50.3812 65.2085 50.3468 65.2432 50.3391C65.2781 50.3311 65.3123 50.3529 65.3201 50.3877C65.329 50.4266 66.2146 54.2888 67.4808 54.5487C67.5157 54.5558 67.538 54.5898 67.5309 54.6245C67.5246 54.655 67.4977 54.6758 67.4678 54.6758Z" fill="#323232"/>
<path d="M56.7406 50.5864C56.7057 50.5864 56.6772 50.5586 56.6763 50.5238C56.6754 50.4883 56.7036 50.4589 56.7391 50.4581L66.5461 50.2251C66.5803 50.2238 66.6111 50.2524 66.6119 50.2878C66.6128 50.3232 66.5846 50.3526 66.5491 50.3535L56.7421 50.5864H56.7406Z" fill="#323232"/>
<path d="M62.0794 56.5485C62.0493 56.5485 62.0222 56.5273 62.0164 56.4966L60.9094 50.8272C60.9027 50.7924 60.9254 50.7587 60.9603 50.752C60.9954 50.745 61.0289 50.768 61.0356 50.8027L62.1427 56.4722C62.1494 56.507 62.1266 56.5407 62.0918 56.5474C62.0876 56.5483 62.0835 56.5487 62.0794 56.5487V56.5485Z" fill="#323232"/>
<path d="M61.9312 55.7109C61.9266 55.7109 61.9221 55.7105 61.9175 55.7094L61.5955 55.64C61.1469 55.5435 60.7523 55.0342 60.6134 54.3727L59.9931 51.417C59.9857 51.3822 60.008 51.3483 60.0429 51.3409C60.078 51.3338 60.1118 51.3558 60.1192 51.3906L60.7395 54.3464C60.8679 54.9587 61.2229 55.4283 61.6225 55.5145L61.9446 55.5839C61.9793 55.5914 62.0014 55.6256 61.994 55.6601C61.9875 55.6902 61.9609 55.7107 61.9312 55.7107V55.7109Z" fill="#323232"/>
<path d="M60.5403 62.2861C60.5357 62.2861 60.531 62.2861 60.5262 62.2855C60.4653 62.2781 60.4209 62.215 60.4268 62.1446L60.5121 61.1242C60.518 61.0538 60.5708 61.0026 60.633 61.0099C60.6938 61.0173 60.7382 61.0804 60.7324 61.1508L60.6471 62.1711C60.6416 62.2362 60.5951 62.2846 60.5403 62.2861ZM60.7107 60.2455C60.7062 60.2455 60.7014 60.2455 60.6967 60.2448C60.6358 60.2375 60.5914 60.1744 60.5972 60.1039L60.6826 59.0836C60.6884 59.0132 60.7415 58.9619 60.8034 58.9693C60.8643 58.9766 60.9087 59.0397 60.9029 59.1102L60.8175 60.1305C60.8121 60.1955 60.7655 60.2439 60.7107 60.2455ZM60.8812 58.2048C60.8767 58.2048 60.8719 58.2048 60.8671 58.2042C60.8063 58.1968 60.7619 58.1337 60.7677 58.0633L60.853 57.0429C60.8589 56.9725 60.912 56.9215 60.9739 56.9286C61.0348 56.936 61.0794 56.9991 61.0733 57.0695L60.988 58.0899C60.9826 58.1549 60.936 58.2033 60.8812 58.2048Z" fill="#FFBB65"/>
<path d="M59.8675 68.3803C59.8629 68.3803 59.8582 68.3803 59.8534 68.3797C59.7925 68.3723 59.7479 68.3093 59.754 68.2388L59.8393 67.2185C59.8452 67.148 59.898 67.0968 59.9602 67.1042C60.021 67.1115 60.0656 67.1746 60.0596 67.2451L59.9742 68.2654C59.9688 68.3304 59.9223 68.3788 59.8675 68.3803ZM60.0379 66.3397C60.0334 66.3397 60.0286 66.3397 60.0238 66.339C59.963 66.3317 59.9186 66.2686 59.9244 66.1982L60.0098 65.1778C60.0156 65.1074 60.0687 65.0562 60.1306 65.0635C60.1915 65.0709 60.2359 65.134 60.23 65.2044L60.1447 66.2247C60.1393 66.2898 60.0927 66.3382 60.0379 66.3397ZM60.2084 64.299C60.2038 64.299 60.1991 64.299 60.1943 64.2984C60.1334 64.291 60.0888 64.228 60.0949 64.1575L60.1802 63.1372C60.1861 63.0667 60.2391 63.0158 60.3011 63.0229C60.362 63.0302 60.4063 63.0933 60.4005 63.1638L60.3152 64.1841C60.3097 64.2491 60.2632 64.2975 60.2084 64.299Z" fill="#FFBB65"/>
<path d="M68.3702 62.8688C68.3134 62.8704 68.2638 62.8211 68.2571 62.7545L68.1757 61.9477C68.1685 61.8773 68.2121 61.8142 68.2727 61.8064C68.3318 61.7982 68.3884 61.8494 68.3955 61.92L68.477 62.7269C68.4841 62.7973 68.4406 62.8604 68.3799 62.8682C68.3767 62.8686 68.3734 62.8688 68.3702 62.8688ZM68.1859 61.0421C68.1291 61.0436 68.0795 60.9944 68.0728 60.9278L67.9699 59.9081C67.9628 59.8377 68.0063 59.7744 68.0669 59.7666C68.1267 59.7593 68.1826 59.8096 68.1898 59.88L68.2926 60.8999C68.2998 60.9704 68.2563 61.0335 68.1956 61.0413C68.1924 61.0417 68.1891 61.0419 68.1859 61.0419V61.0421ZM67.9801 59.0026C67.9233 59.0041 67.8737 58.9548 67.867 58.8882L67.7642 57.8684C67.757 57.7979 67.8005 57.7348 67.8612 57.727C67.9214 57.719 67.9768 57.77 67.984 57.8407L68.0869 58.8606C68.094 58.931 68.0505 58.9941 67.9898 59.0019C67.9866 59.0023 67.9833 59.0026 67.9801 59.0026ZM67.7743 56.963C67.7176 56.9645 67.668 56.9152 67.6613 56.8487L67.5584 55.8288C67.5512 55.7583 67.5948 55.6952 67.6554 55.6875C67.715 55.6788 67.7711 55.7305 67.7782 55.8011L67.8811 56.821C67.8883 56.8915 67.8447 56.9546 67.7841 56.9623C67.7808 56.9628 67.7776 56.963 67.7743 56.963Z" fill="#FFBB65"/>
<path d="M68.8514 69.0162C68.7946 69.0178 68.745 68.9685 68.7383 68.9019L68.6354 67.8823C68.6283 67.8118 68.6718 67.7485 68.7325 67.7407C68.7923 67.7334 68.8481 67.7837 68.8553 67.8542L68.9582 68.8741C68.9653 68.9445 68.9218 69.0076 68.8611 69.0154C68.8579 69.0158 68.8546 69.016 68.8514 69.016V69.0162ZM68.6456 66.9767C68.5889 66.9782 68.5393 66.9289 68.5326 66.8624L68.4297 65.8425C68.4225 65.772 68.4661 65.7089 68.5267 65.7012C68.5869 65.6932 68.6424 65.7442 68.6495 65.8148L68.7524 66.8347C68.7595 66.9052 68.716 66.9682 68.6554 66.976C68.6521 66.9765 68.6489 66.9767 68.6456 66.9767ZM68.4399 64.9371C68.3831 64.9386 68.3335 64.8893 68.3268 64.8228L68.2239 63.8029C68.2168 63.7325 68.2603 63.6694 68.3209 63.6616C68.3805 63.6529 68.4366 63.7046 68.4438 63.7752L68.5466 64.7951C68.5538 64.8656 68.5102 64.9287 68.4496 64.9365C68.4464 64.9369 68.4431 64.9371 68.4399 64.9371Z" fill="#FFBB65"/>
<path d="M59.7696 50.3467C59.7381 50.3467 59.7106 50.3236 59.7059 50.2916L59.5592 49.27C59.5543 49.235 59.5785 49.2023 59.6138 49.1974C59.6489 49.1926 59.6816 49.2168 59.6866 49.2518L59.8332 50.2734C59.8382 50.3084 59.814 50.3411 59.7786 50.346C59.7756 50.3465 59.7726 50.3467 59.7693 50.3467H59.7696Z" fill="#323232"/>
<path d="M60.3745 50.0985C60.2677 50.0985 60.167 50.0523 60.0899 49.9674C60.013 49.8829 59.9692 49.7697 59.966 49.6484C59.963 49.5272 60.0011 49.4121 60.0734 49.3237C60.1481 49.2325 60.2499 49.1808 60.3602 49.178C60.4717 49.1761 60.5748 49.2217 60.6541 49.309C60.7308 49.3935 60.7748 49.5067 60.778 49.6279C60.7845 49.8816 60.6075 50.0925 60.3838 50.0983C60.3808 50.0983 60.3775 50.0983 60.3745 50.0983V50.0985ZM60.3697 49.3066C60.3678 49.3066 60.3658 49.3066 60.3639 49.3066C60.2917 49.3083 60.2239 49.3433 60.1735 49.4051C60.1206 49.4697 60.0927 49.5549 60.0951 49.6454C60.0975 49.7357 60.1295 49.8196 60.1856 49.8814C60.2393 49.9406 60.3093 49.973 60.3808 49.9702C60.5337 49.9663 60.6543 49.8144 60.6498 49.6314C60.6474 49.5411 60.6153 49.4572 60.5592 49.3954C60.507 49.3379 60.4401 49.3066 60.3699 49.3066H60.3697Z" fill="#323232"/>
<mask id="mask0_7_17424" style="mask-type:luminance" maskUnits="userSpaceOnUse" x="41" y="19" width="39" height="33">
<path d="M79.0884 48.7694L69.2041 34.5925C68.5211 33.6633 67.4977 33.0412 66.3567 32.8621L62.6129 32.2742L56.2582 31.5192L49.8091 28.7203L45.8547 19.3743L41.6582 21.572L44.7691 29.7002C45.0208 31.0488 45.7789 32.2504 46.8887 33.06L53.5295 37.9052L54.9272 48.7876L67.5222 48.5382L67.5159 42.3488L75.0328 51.7494L79.0884 48.7694Z" fill="white"/>
</mask>
<g mask="url(#mask0_7_17424)">
<path d="M79.0884 48.7694L69.2041 34.5925C68.5211 33.6633 67.4977 33.0412 66.3567 32.8621L62.6129 32.2742L56.2582 31.5192L49.8091 28.7203L45.8547 19.3743L41.6582 21.572L44.7691 29.7002C45.0208 31.0488 45.7789 32.2504 46.8887 33.06L53.5295 37.9052L54.9272 48.7876L67.5222 48.5382L67.5159 42.3488L75.0328 51.7494L79.0884 48.7694Z" fill="#F77066"/>
<path d="M46.0774 37.4318C45.0756 37.4318 44.0713 37.0716 43.2783 36.3425L44.1505 35.3985C45.3041 36.4592 47.1079 36.386 48.1712 35.2349C48.6863 34.6774 48.9529 33.9531 48.9219 33.1956C48.8909 32.438 48.566 31.7377 48.0072 31.2238L48.8795 30.2798C49.691 31.0261 50.1628 32.043 50.2078 33.1433C50.2529 34.2435 49.8656 35.2954 49.1175 36.1051C48.3042 36.9856 47.1922 37.4318 46.0774 37.4318Z" fill="white"/>
<path d="M72.4821 51.318C70.2514 51.318 68.4093 49.5371 68.3525 47.2998L69.6391 47.2674C69.6787 48.832 70.987 50.0725 72.5556 50.0332C73.3154 50.014 74.0221 49.7009 74.5458 49.1514C75.0696 48.6019 75.3472 47.8817 75.328 47.1237L76.6145 47.0913C76.6425 48.1922 76.2392 49.2378 75.4785 50.036C74.718 50.8342 73.6916 51.2891 72.588 51.3169C72.5527 51.3178 72.5172 51.3182 72.4819 51.3182L72.4821 51.318Z" fill="white"/>
<path d="M70.1715 42.1555C68.7595 40.3714 69.0658 37.7739 70.8542 36.3653C72.6426 34.9569 75.2463 35.2624 76.6583 37.0466L75.6483 37.8422C74.676 36.6138 72.8833 36.4031 71.6519 37.3731C70.4204 38.3428 70.2096 40.1315 71.1817 41.3599L70.1717 42.1555H70.1715Z" fill="white"/>
<path d="M64.5246 43.0269C62.2939 43.0269 60.4518 41.246 60.395 39.0087L61.6816 38.9761C61.7212 40.5407 63.0284 41.779 64.5983 41.7421L64.6307 43.0256C64.5954 43.0265 64.5599 43.0269 64.5246 43.0269Z" fill="white"/>
<path d="M48.7806 25.8819C47.7167 25.8819 46.7102 25.4813 45.9363 24.7473C45.1362 23.9886 44.6803 22.9644 44.6523 21.8637L45.9389 21.8313C45.9582 22.5893 46.272 23.2944 46.8231 23.8168C47.3739 24.3393 48.0951 24.6155 48.8556 24.5971L48.8881 25.8806C48.8523 25.8815 48.8164 25.8819 48.7809 25.8819H48.7806Z" fill="white"/>
<path d="M56.5417 43.7284C55.8337 42.3314 54.1187 41.7701 52.7184 42.476L52.1377 41.3303C54.1711 40.3046 56.6619 41.1205 57.6901 43.1491L56.5417 43.7284Z" fill="white"/>
<path d="M64.1618 51.1161L63.6299 49.9472C64.3219 49.6336 64.8502 49.0701 65.1175 48.3603C65.3847 47.6505 65.3587 46.8793 65.0445 46.1889L66.2162 45.6582C66.6726 46.6608 66.7101 47.7807 66.3222 48.8117C65.934 49.8426 65.1668 50.6611 64.1618 51.1161Z" fill="white"/>
<path d="M66.0959 35.8515C66.3171 35.1818 65.9522 34.4599 65.2809 34.2392C64.6096 34.0185 63.886 34.3825 63.6648 35.0522C63.4435 35.722 63.8084 36.4438 64.4797 36.6645C65.151 36.8852 65.8746 36.5212 66.0959 35.8515Z" fill="white"/>
<path d="M57.8327 37.7858C58.0223 37.1065 57.624 36.4024 56.943 36.2133C56.2621 36.0241 55.5564 36.4215 55.3668 37.1008C55.1771 37.7801 55.5754 38.4842 56.2564 38.6733C56.9373 38.8625 57.643 38.4651 57.8327 37.7858Z" fill="white"/>
<path d="M55.7252 31.9081C55.9148 31.2288 55.5165 30.5248 54.8356 30.3356C54.1547 30.1464 53.4489 30.5438 53.2593 31.2231C53.0697 31.9024 53.468 32.6065 54.149 32.7956C54.8299 32.9848 55.5356 32.5874 55.7252 31.9081Z" fill="white"/>
<path d="M75.9154 43.2538C76.1271 42.581 75.7521 41.8643 75.0777 41.6531C74.4033 41.4419 73.6849 41.8161 73.4732 42.4888C73.2615 43.1616 73.6365 43.8783 74.3109 44.0895C74.9853 44.3007 75.7037 43.9265 75.9154 43.2538Z" fill="white"/>
<path d="M58.6219 47.3001C58.8337 46.6274 58.4586 45.9107 57.7842 45.6995C57.1098 45.4883 56.3915 45.8624 56.1798 46.5352C55.968 47.208 56.3431 47.9246 57.0175 48.1359C57.6919 48.3471 58.4102 47.9729 58.6219 47.3001Z" fill="white"/>
</g>
<path d="M56.2578 31.519L62.6127 32.274L57.9057 35.5057L56.2578 31.519Z" fill="#C16D55"/>
<path d="M60.6302 28.3803C60.6282 28.3803 60.6261 28.3803 60.6239 28.3801L58.4276 28.1703C58.4101 28.1686 58.3938 28.1597 58.383 28.1459C58.3763 28.1373 57.6968 27.2812 56.9236 27.4713C56.8889 27.4797 56.8543 27.4588 56.8456 27.4244C56.8372 27.3901 56.8582 27.3553 56.8926 27.3466C57.6836 27.1524 58.3484 27.9022 58.4666 28.0452L60.6358 28.2524C60.6711 28.2559 60.6971 28.2872 60.6936 28.3224C60.6904 28.3557 60.6624 28.3806 60.6297 28.3806L60.6302 28.3803Z" fill="#323232"/>
<path d="M60.3685 27.6895C60.3429 27.6895 60.3187 27.6742 60.3087 27.6489C60.2957 27.6159 60.3117 27.5787 60.3449 27.5657L62.7965 26.5986C62.8294 26.5854 62.8669 26.6018 62.8799 26.6346C62.8929 26.6677 62.8769 26.7049 62.8437 26.7178L60.3921 27.685C60.3843 27.688 60.3763 27.6895 60.3685 27.6895Z" fill="#323232"/>
<path d="M60.077 26.943C60.0519 26.943 60.0278 26.9281 60.0176 26.9034C60.004 26.8708 60.0196 26.8332 60.0523 26.8196L62.9497 25.6163C62.9826 25.6026 63.0201 25.6182 63.0337 25.6508C63.0474 25.6835 63.0318 25.7211 62.9991 25.7347L60.1017 26.938C60.0937 26.9415 60.0852 26.943 60.077 26.943Z" fill="#323232"/>
<path d="M59.2818 28.0611C59.2617 28.0611 59.2418 28.0516 59.2292 28.0338L57.9755 26.2575C57.9552 26.2285 57.9621 26.1883 57.9911 26.168C58.0202 26.1475 58.0605 26.1546 58.0808 26.1836L59.3345 27.9599C59.3548 27.9889 59.3479 28.0289 59.3189 28.0494C59.3076 28.0574 59.2946 28.0611 59.2818 28.0611Z" fill="#323232"/>
<path d="M61.3122 29.804L60.9611 33.3113L57.451 33.2744L57.2153 32.0335L61.3122 29.804Z" fill="#C16D55"/>
<path d="M60.7506 30.295L57.7707 29.9253L57.2153 32.0334C58.6124 31.884 59.6921 31.5349 60.7506 30.295Z" fill="#B8564E"/>
<path d="M55.834 28.4497C55.8138 28.6042 55.8069 28.7615 55.8134 28.9235C55.8312 29.33 55.9247 29.6835 56.0824 29.9775C56.3469 30.4715 56.7876 30.8038 57.338 30.9579C57.6625 31.0491 58.0253 31.0783 58.4121 31.0422C59.0277 30.9858 59.7041 30.8879 60.3584 30.6997C60.5139 30.6554 60.6675 30.6061 60.82 30.5512C60.8401 30.5443 60.8603 30.5365 60.8804 30.5288C60.9616 30.4994 61.0413 30.4674 61.1204 30.4337C61.1696 30.4132 61.2192 30.392 61.2672 30.3691C61.4115 30.3032 61.5523 30.231 61.6887 30.1526C61.7516 30.1161 61.8124 30.0789 61.8726 30.0402C62.0786 29.9082 62.2725 29.7589 62.4505 29.5908C62.4505 29.5901 62.4516 29.5895 62.4516 29.5895C63.1698 28.9095 63.6283 27.9164 63.561 26.4622C63.561 26.4622 63.5456 26.0011 63.2021 25.4202C63.2004 25.4176 63.2001 25.4153 63.1984 25.4125C63.002 25.0851 62.7015 24.7197 62.2398 24.3781C62.1388 24.3033 62.0312 24.2307 61.9149 24.1594C60.6536 23.3852 58.92 23.4595 58.0192 24.14C57.9014 24.2288 57.7987 24.3262 57.7127 24.4345C57.6196 24.5503 57.5464 24.6776 57.497 24.8146C57.208 25.6054 56.6731 26.3325 56.2832 27.1031C56.1751 27.3161 56.0776 27.5331 56.0007 27.7554C55.9217 27.9803 55.8634 28.2107 55.8335 28.4499L55.834 28.4497Z" fill="#C16D55"/>
<path d="M61.7966 30.1776C61.6094 30.2846 61.4136 30.3781 61.2122 30.4609L61.2676 30.3693L61.3978 30.1543L61.4812 30.0168L61.9991 29.1614L62.0647 29.0529L62.2213 28.794C62.1604 28.7612 62.1028 28.7238 62.0493 28.6821C62.0132 28.6551 61.9794 28.6257 61.9471 28.595C61.7786 28.4323 61.6623 28.2258 61.6105 28.0028C61.5726 27.8362 61.57 27.6607 61.6086 27.4866C61.6577 26.2095 59.5533 24.4906 59.5533 24.4906L59.7766 24.0589L58.9726 24.3387C58.8953 24.3299 58.4246 24.4163 57.7129 24.4342C57.7987 24.3258 57.9018 24.2283 58.0192 24.1397C58.92 23.4595 60.7363 23.2672 61.9976 24.0416C62.7485 24.4999 63.3732 25.178 63.6324 26.0306C64.1202 27.6344 63.2144 29.3755 61.7966 30.1778V30.1776Z" fill="#323232"/>
<path d="M62.6268 29.2021C62.8012 28.6151 62.5948 28.0364 62.1657 27.9096C61.7367 27.7827 61.2475 28.1557 61.0731 28.7426C60.8987 29.3296 61.1051 29.9083 61.5342 30.0351C61.9633 30.162 62.4524 29.789 62.6268 29.2021Z" fill="#C16D55"/>
<path d="M61.5215 29.2184L61.6473 29.2387C61.7049 28.8856 62.0307 28.5976 62.3892 28.5829L62.3837 28.4558C61.9672 28.4729 61.5884 28.8078 61.5215 29.2184Z" fill="#323232"/>
<path d="M62.1934 29.2524C62.254 29.2703 62.3171 29.28 62.3807 29.2807L62.3818 29.1536C62.1496 29.1515 61.9285 28.9996 61.8438 28.7837L61.7251 28.8301C61.805 29.0337 61.9848 29.1908 62.1932 29.2524H62.1934Z" fill="#323232"/>
<path d="M57.2043 28.5333C57.167 28.5318 57.1321 28.5091 57.117 28.4724L56.8893 27.9229C56.8746 27.8875 56.882 27.8468 56.908 27.8185L57.5564 27.1137C57.5935 27.0737 57.6559 27.0709 57.6961 27.1076C57.7364 27.1446 57.739 27.2068 57.7022 27.247L57.0964 27.9054L57.3 28.3967C57.3208 28.4471 57.2967 28.5048 57.2465 28.5255C57.2329 28.5311 57.2186 28.5335 57.2045 28.5329L57.2043 28.5333Z" fill="#323232"/>
<path d="M58.5631 26.9871C58.5464 27.0353 58.7249 27.032 58.9231 27.0999C59.1213 27.1677 59.264 27.2809 59.2807 27.2328C59.2973 27.1846 59.1815 26.9929 58.9833 26.9251C58.7851 26.8572 58.5798 26.9387 58.5633 26.9871H58.5631Z" fill="#323232"/>
<path d="M56.6982 26.3329C56.6761 26.3789 56.8537 26.396 57.0428 26.4861C57.2318 26.5762 57.3605 26.7049 57.3826 26.6589C57.4047 26.6129 57.3116 26.4094 57.1225 26.3192C56.9334 26.2291 56.72 26.2866 56.6982 26.3326V26.3329Z" fill="#323232"/>
<path d="M56.6123 28.8188L58.5428 29.0913C58.5428 29.0913 58.485 30.1296 57.4455 30.0001C56.6186 29.8971 56.6123 28.8188 56.6123 28.8188Z" fill="#BB435B"/>
<path d="M57.0244 27.4304C56.9973 27.4304 56.972 27.4132 56.9631 27.3859C56.9326 27.2917 56.8581 27.21 56.7584 27.1619C56.659 27.1137 56.5485 27.1057 56.4554 27.14C56.4218 27.1523 56.385 27.1353 56.3727 27.102C56.3603 27.0687 56.3774 27.0318 56.4108 27.0195C56.5366 26.973 56.6837 26.9827 56.8147 27.0463C56.9456 27.1096 57.0443 27.2191 57.0857 27.3464C57.0965 27.3801 57.0781 27.4164 57.0443 27.4272C57.0378 27.4294 57.0311 27.4302 57.0246 27.4302L57.0244 27.4304Z" fill="#323232"/>
<path d="M59.145 28.108C59.1288 28.108 59.1125 28.1019 59.1 28.0896C58.9715 27.9645 58.4983 27.6661 58.1911 27.8645C58.1613 27.8837 58.1214 27.8753 58.1021 27.8455C58.0829 27.8156 58.0913 27.7759 58.1212 27.7567C58.4981 27.5133 59.0365 27.8483 59.1899 27.9978C59.2152 28.0226 59.2159 28.0633 59.191 28.0886C59.1784 28.1015 59.1617 28.1078 59.1448 28.1078L59.145 28.108Z" fill="#323232"/>
<path d="M61.4947 27.9941C61.4085 27.9941 61.3294 27.9794 61.2571 27.9502C60.8865 27.8007 60.7641 27.3186 60.7041 26.9688L60.6939 26.9085C60.6328 26.5476 60.5696 26.1745 60.3309 25.9731C60.2564 25.9102 60.1687 25.8685 60.0757 25.824C59.9982 25.787 59.9181 25.7488 59.8442 25.6967C59.4857 25.4446 59.3549 24.8735 59.5527 24.4236L59.6705 24.475C59.499 24.865 59.6127 25.3765 59.9183 25.5917C59.9835 25.6375 60.0552 25.6717 60.1312 25.708C60.2274 25.7538 60.3268 25.8013 60.4141 25.8748C60.6887 26.1064 60.7589 26.5211 60.8208 26.8867L60.831 26.9467C60.9179 27.4543 61.0686 27.7352 61.3054 27.8307C61.46 27.8932 61.6597 27.8711 61.9157 27.7635C62.1345 27.6717 62.266 27.5578 62.3177 27.4156L62.4386 27.4595C62.374 27.6371 62.2194 27.7754 61.9658 27.8819C61.7881 27.9565 61.6322 27.9936 61.4949 27.9936L61.4947 27.9941Z" fill="#323232"/>
<path d="M61.8969 27.7338C61.6943 27.7338 61.4567 27.7122 61.2798 27.5609C61.0744 27.3854 61.011 27.0883 60.9551 26.8264C60.8624 26.3926 60.7205 25.9282 60.3675 25.7508C60.3168 25.7253 60.2631 25.7067 60.2059 25.6868C60.1301 25.6603 60.0515 25.633 59.9785 25.5881C59.8054 25.4816 59.6791 25.2813 59.6317 25.0382C59.5938 24.8441 59.6031 24.6255 59.6596 24.3696L59.7853 24.3973C59.7326 24.6354 59.7235 24.837 59.758 25.0135C59.7985 25.2214 59.9033 25.3908 60.0458 25.4785C60.1069 25.5161 60.1754 25.5399 60.2481 25.5654C60.3066 25.5857 60.367 25.6069 60.4251 25.6361C60.8269 25.8379 60.9815 26.3359 61.0801 26.7966C61.1351 27.0538 61.1912 27.3163 61.3634 27.4637C61.5269 27.6037 61.7563 27.6099 62.0171 27.6037L62.0201 27.732C61.9813 27.7329 61.9397 27.734 61.8969 27.734V27.7338Z" fill="#323232"/>
<path d="M57.4855 25.0643L57.3813 24.9897C57.4762 24.8315 57.5875 24.7213 57.7125 24.6626C57.8672 24.5898 58.035 24.5945 58.1975 24.5988C58.3062 24.6019 58.4091 24.6047 58.5074 24.5859C58.7173 24.5459 58.9021 24.4003 58.9893 24.2056L59.1067 24.2581C59.0026 24.4904 58.7821 24.6643 58.5315 24.7118C58.4193 24.7332 58.3045 24.73 58.1938 24.727C58.0398 24.7226 57.8942 24.7188 57.7673 24.7784C57.6811 24.819 57.6012 24.8925 57.5291 24.9971L57.5371 25.0038L57.4855 25.064V25.0643Z" fill="#323232"/>
<path d="M57.6815 24.7452L57.5825 24.6631C57.761 24.4492 58.0651 24.4248 58.2893 24.4419L58.312 24.4438C58.3566 24.4475 58.3989 24.4509 58.4389 24.4462C58.5171 24.4367 58.5958 24.3956 58.6941 24.3129C58.7695 24.2493 58.8303 24.1862 58.8795 24.1201L58.9828 24.1968C58.9274 24.2712 58.8602 24.3412 58.777 24.4112C58.6971 24.4784 58.5884 24.5575 58.4543 24.5739C58.4015 24.5804 58.3506 24.576 58.3014 24.5722L58.2793 24.5704C58.0857 24.5557 57.8247 24.5739 57.6815 24.7457V24.7452Z" fill="#323232"/>
<path d="M61.9221 27.3628C61.5099 27.3084 61.25 26.9132 61.1046 26.5912C61.0765 26.5292 61.0496 26.4657 61.0228 26.4021C60.9073 26.1301 60.7882 25.8488 60.5664 25.6668C60.5058 25.6171 60.4388 25.5759 60.3682 25.5322C60.2963 25.4877 60.2218 25.4419 60.154 25.3857C59.854 25.1385 59.7256 24.707 59.8417 24.3364L59.9645 24.3747C59.8638 24.6968 59.9753 25.072 60.2361 25.2867C60.2972 25.3371 60.3648 25.3788 60.4362 25.4229C60.5075 25.467 60.5811 25.5123 60.6483 25.5674C60.8946 25.7692 61.0202 26.0655 61.1415 26.3518C61.1681 26.4145 61.1945 26.4769 61.2223 26.5381C61.3542 26.8302 61.5859 27.1884 61.9394 27.2351L61.9225 27.3624L61.9221 27.3628Z" fill="#323232"/>
<path d="M66.0174 23.7642C67.0925 24.1026 68.1045 24.6611 69.2182 24.8359C70.3142 25.0079 71.4682 24.7845 72.4197 24.2156C72.3662 25.2545 72.2655 26.2912 72.118 27.3211C71.4745 27.4025 70.8286 27.4645 70.1814 27.5071C69.5693 27.5473 68.9492 27.5698 68.3479 27.4485C67.2829 27.2342 66.3173 26.5786 65.2316 26.5399C64.5926 26.5172 63.8178 26.7325 63.2515 26.3379C62.8555 26.0622 62.4041 25.1866 62.4219 24.6901C62.4758 23.1739 65.1189 23.4811 66.0174 23.7638V23.7642Z" fill="#323232"/>
<path d="M53.5291 37.9695C53.4988 37.9695 53.4719 37.9482 53.4661 37.9175L52.7795 34.3643C52.7728 34.3295 52.7955 34.2958 52.8304 34.2891C52.8653 34.2822 52.8991 34.3051 52.9058 34.3399L53.5924 37.8931C53.5991 37.9278 53.5763 37.9615 53.5415 37.9682C53.5374 37.9691 53.5332 37.9693 53.5291 37.9693V37.9695Z" fill="#323232"/>
<path d="M61.8118 46.2923C61.4663 45.968 61.1046 45.6417 60.7546 45.3265C59.1263 43.8589 57.4427 42.3411 56.6099 40.3091L56.729 40.2605C57.5505 42.2655 59.2233 43.7731 60.8408 45.2312C61.1913 45.5471 61.5534 45.8736 61.9 46.1988L61.8118 46.2923Z" fill="#F55246"/>
<path d="M67.516 42.4132H67.5156C67.48 42.413 67.4514 42.384 67.4517 42.3483L67.4917 37.5503C67.492 37.5151 67.5208 37.4866 67.5561 37.4866H67.5565C67.592 37.4868 67.6206 37.5157 67.6204 37.5514L67.5803 42.3494C67.5801 42.3846 67.5513 42.4132 67.516 42.4132Z" fill="#323232"/>
<path d="M46.9762 29.7496L46.9097 29.6396C47.7667 29.1247 48.7414 28.7652 49.728 28.5999L49.7492 28.7265C48.7782 28.889 47.8194 29.2427 46.9759 29.7496H46.9762Z" fill="#F55246"/>
<path d="M86.8672 67.0883L87.9313 68.2419C88.1561 68.5442 88.5893 68.5956 88.8791 68.3545C89.0199 68.2374 89.0411 68.0295 88.9268 67.8865L87.3192 65.873L86.8674 67.0883H86.8672Z" fill="#F6A36B"/>
<path d="M88.935 68.0094L87.8132 64.2073L86.5288 66.5053L88.935 68.0094Z" fill="#F6A36B"/>
<path d="M81.6924 61.4199L84.4132 59.645L85.1293 61.1774L87.2565 62.2393L87.8227 63.5316L87.8777 65.0161L87.717 66.3981L86.867 67.0883L84.5837 65.2384L81.6924 61.4199Z" fill="#F6A36B"/>
<path d="M82.7356 62.6868L83.5948 65.7471C83.5948 65.7471 85.4374 68.028 85.4385 68.0293C85.62 68.2538 86.0135 68.3463 86.1768 68.0522C86.2923 67.8441 86.2875 67.5425 86.2006 67.3255L85.3557 65.2168L82.7354 62.6868H82.7356Z" fill="#F6A36B"/>
<path d="M88.6198 67.5964C88.5986 67.5964 88.5778 67.5858 88.5654 67.5666L86.7874 64.7783C86.7683 64.7483 86.7772 64.7087 86.8071 64.6897C86.837 64.6707 86.8768 64.6796 86.8959 64.7094L88.6739 67.4977C88.693 67.5277 88.6841 67.5672 88.6542 67.5862C88.6436 67.5929 88.6315 67.5962 88.6198 67.5962V67.5964Z" fill="#323232"/>
<path d="M88.0556 65.5257C88.0331 65.5257 88.0115 65.514 87.9995 65.493L87.1548 64.0004C87.1373 63.9695 87.1483 63.9304 87.1793 63.9129C87.2103 63.8954 87.2495 63.9064 87.267 63.9373L88.1117 65.43C88.1293 65.4609 88.1182 65.5 88.0873 65.5175C88.0773 65.5231 88.0665 65.5257 88.0556 65.5257Z" fill="#323232"/>
<path d="M87.7925 63.7411C87.7717 63.7411 87.7513 63.7311 87.739 63.7126L87.3922 63.1953C87.3725 63.1659 87.3803 63.1259 87.41 63.1062C87.4394 63.0866 87.4795 63.0946 87.4992 63.124L87.846 63.6413C87.8657 63.6706 87.8579 63.7106 87.8282 63.7303C87.8172 63.7376 87.8048 63.7411 87.7925 63.7411Z" fill="#323232"/>
<path d="M43.9766 23.6767L44.1392 22.0505C44.1368 21.6581 44.4656 21.3445 44.8585 21.3644C45.0494 21.3741 45.1975 21.534 45.1921 21.7246L45.1161 24.4072L43.9766 23.6767Z" fill="#F6A36B"/>
<path d="M45.1221 21.6172L46.5737 25.4872L44.0605 24.3741L45.1221 21.6172Z" fill="#F6A36B"/>
<path d="M43.8922 31.5587L45.897 31.27L47.3454 27.475L47.006 26.0441L46.1201 24.7727L45.1183 23.7211L43.9769 23.6768L43.2348 26.645L43.2231 29.7391L43.8922 31.5587Z" fill="#F6A36B"/>
<path d="M43.2962 29.9265L42.0913 26.839C42.0913 26.839 42.1953 23.7866 42.1953 23.7849C42.2055 23.4843 42.4755 23.1613 42.7963 23.3046C43.0231 23.4059 43.2087 23.6602 43.2724 23.8953L43.8921 26.1808L43.2962 29.9267V29.9265Z" fill="#F6A36B"/>
<path d="M45.4274 25.7109C45.394 25.7109 45.3659 25.6854 45.3633 25.6517L45.0949 22.2169C45.0921 22.1817 45.1188 22.1506 45.1541 22.148C45.1894 22.1447 45.2206 22.1715 45.2232 22.207L45.4915 25.6417C45.4943 25.677 45.4677 25.7081 45.4324 25.7107C45.4307 25.7107 45.4289 25.7107 45.4274 25.7107V25.7109Z" fill="#323232"/>
<path d="M46.2214 26.1261C46.1895 26.1261 46.162 26.1026 46.1577 26.0702L45.9249 24.2983C45.9203 24.2631 45.945 24.2309 45.9803 24.2264C46.015 24.2218 46.0479 24.2465 46.0524 24.2817L46.2853 26.0535C46.2898 26.0888 46.2651 26.1209 46.2298 26.1255C46.227 26.1259 46.2242 26.1259 46.2214 26.1259V26.1261Z" fill="#323232"/>
<path d="M46.9251 26.6541C46.8911 26.6541 46.8628 26.6278 46.861 26.5934L46.8253 25.9456C46.8233 25.9102 46.8504 25.8799 46.8859 25.878C46.9217 25.8765 46.9518 25.9031 46.9537 25.9385L46.9895 26.5863C46.9914 26.6217 46.9643 26.652 46.9288 26.6539C46.9275 26.6539 46.9264 26.6539 46.9251 26.6539V26.6541Z" fill="#323232"/>
<path d="M61.0311 42.5497L52.8793 40.0276L46.4813 29.7393L42.6812 30.472L46.8896 43.317C47.4027 44.2734 48.2147 45.0366 49.2022 45.4905L60.3633 50.4722L61.0311 42.5497Z" fill="#F1EAD7"/>
<path d="M61.1792 60.5573L61.1163 60.7414C60.6019 63.3668 60.5959 63.4249 60.2941 65.3377L58.4375 80.1788H66.2163L70.5997 61.3411L61.1792 60.5571V60.5573Z" fill="#97B6DD"/>
<path d="M61.1792 60.5572L66.4743 69.1116L66.8178 72.1823L71.7692 80.1789H77.5399L75.5351 66.265C75.2017 63.8775 74.5985 62.6865 73.5541 60.5752L72.6724 59.9246L61.1792 60.5575V60.5572Z" fill="#97B6DD"/>
<path d="M71.9898 61.655H71.9896L61.6461 61.6027C61.6106 61.6027 61.5818 61.5735 61.582 61.5381C61.582 61.5026 61.6113 61.475 61.6468 61.4741L71.9903 61.5264C72.0258 61.5264 72.0546 61.5556 72.0544 61.591C72.0544 61.6265 72.0254 61.655 71.9901 61.655H71.9898Z" fill="#323232"/>
<path d="M74.1773 64.7173C74.17 64.7173 74.1626 64.716 74.1552 64.7134C72.949 64.2745 71.8455 63.4068 71.0477 62.27C71.0274 62.241 71.0345 62.2008 71.0635 62.1805C71.0926 62.1602 71.1329 62.1673 71.1532 62.1963C71.9358 63.3117 73.0177 64.1626 74.1994 64.5926C74.2328 64.6047 74.2501 64.6417 74.2377 64.6749C74.2282 64.7009 74.2035 64.7171 74.1773 64.7171V64.7173Z" fill="#323232"/>
<path d="M68.1145 66.735H68.1132L63.9715 66.6574C63.9359 66.6567 63.9076 66.6274 63.9082 66.5919C63.9089 66.5565 63.9385 66.5282 63.9738 66.5288L68.1156 66.6064C68.1511 66.607 68.1795 66.6364 68.1788 66.6719C68.1782 66.7069 68.1496 66.735 68.1145 66.735Z" fill="#323232"/>
<path d="M65.4762 66.4796C65.4591 66.4796 65.4422 66.4727 65.4299 66.4599C65.4047 66.434 64.8134 65.8179 64.7517 65.3892C64.6919 64.9739 64.9193 61.8332 64.9291 61.6997C64.9317 61.6643 64.9627 61.6377 64.998 61.6403C65.0335 61.6429 65.0601 61.6735 65.0575 61.709C65.0551 61.7416 64.8214 64.9692 64.8793 65.3711C64.9206 65.6593 65.2527 66.0682 65.4229 66.2613L65.7558 61.6331C65.7584 61.5977 65.7888 61.5707 65.8247 61.5737C65.8602 61.5763 65.8869 61.607 65.8843 61.6422L65.5405 66.4197C65.5388 66.445 65.5221 66.4668 65.4983 66.4755C65.4912 66.4781 65.4838 66.4794 65.4764 66.4794L65.4762 66.4796Z" fill="#323232"/>
<path d="M66.8177 72.2466C66.7884 72.2466 66.762 72.2265 66.7551 72.1969L65.4631 66.6084C65.4551 66.5739 65.4767 66.5395 65.5114 66.5315C65.5458 66.5233 65.5805 66.5451 65.5885 66.5797L66.8805 72.1681C66.8885 72.2027 66.8668 72.2371 66.8322 72.2451C66.8274 72.2461 66.8224 72.2468 66.8177 72.2468V72.2466Z" fill="#323232"/>
<path d="M66.5818 58.1081C66.5352 58.2322 65.9212 60.6747 65.9212 60.6747L62.6631 64.154L59.5 62.0637L59.9263 58.8279L66.5816 58.1079L66.5818 58.1081Z" fill="#21295D"/>
<path d="M65.3496 60.4157L69.4868 64.5597L73.9608 60.8667L73.8455 57.6895L65.3578 58.2953L65.3496 60.4157Z" fill="#21295D"/>
<path d="M66.3484 60.7832L66.0105 60.1967L65.9648 59.2797L66.0933 59.2734L66.1375 60.1594L66.46 60.7194L66.3484 60.7832Z" fill="#0C144D"/>
<path d="M62.5592 63.5277L59.8228 61.8192L59.891 61.7105L62.5378 63.363L65.4241 60.3044L65.5177 60.3924L62.5592 63.5277Z" fill="#0C144D"/>
<path d="M69.5748 63.9291L65.9722 59.9293L66.0679 59.8435L69.588 63.7517L73.5133 60.5255L73.595 60.6246L69.5748 63.9291Z" fill="#0C144D"/>
<path d="M63.8572 59.9268C63.8256 59.9268 63.7981 59.9037 63.7936 59.8715L62.7238 52.3133C62.7188 52.2783 62.7433 52.2456 62.7786 52.2407C62.8135 52.2355 62.8464 52.2601 62.8514 52.2953L63.9211 59.8536C63.9261 59.8886 63.9016 59.9212 63.8663 59.9262C63.8633 59.9266 63.8603 59.9268 63.8572 59.9268Z" fill="#323232"/>
<path d="M67.4804 40.6575L71.1989 41.0963C71.7389 41.1601 72.2429 41.3993 72.633 41.777L81.2736 51.3363C81.6674 51.7719 81.9728 52.2793 82.1733 52.8307L85.388 61.1312L81.8545 63.5936L77.3147 55.5807L74.1773 52.6248L74.4918 58.1586C74.5633 59.0663 73.941 59.8831 73.0452 60.0577L60.8977 60.6022L60.2286 60.4248C59.7343 60.2936 59.378 59.8651 59.3406 59.3563C59.0748 55.7408 58.0436 41.8243 57.9262 41.9952C57.7913 42.1916 67.4804 40.6575 67.4804 40.6575Z" fill="#F1EAD7"/>
<path d="M60.7409 42.4047C60.7366 42.3462 60.6558 41.255 60.6558 41.255C60.6558 41.255 66.1477 39.831 66.1731 39.9075C66.1984 39.984 66.3565 41.3243 66.3565 41.3243L60.7409 42.4047Z" fill="#0C144D"/>
<path d="M60.9097 33.908C60.9097 33.908 61.1412 32.305 62.6866 32.0212C64.232 31.7375 64.5491 32.4649 64.5491 32.4649C64.5491 32.4649 66.8673 32.5872 67.3982 33.7765C68.4487 36.1306 67.0296 38.6635 64.8342 38.9094C62.6387 39.1553 60.9097 33.9078 60.9097 33.9078V33.908Z" fill="#21295D"/>
<path d="M65.189 38.6413L61.3652 39.1148L61.4482 41.1187C62.5303 40.9272 64.1355 39.9728 65.189 38.6411V38.6413Z" fill="#F37D3D"/>
<path d="M65.5724 41.206L65.306 38.45L64.6577 39.2255C63.7678 40.0615 62.6356 40.6429 61.4482 41.119L61.5126 42.6721L65.5724 41.206Z" fill="#F6A36B"/>
<path d="M60.4254 35.2148C60.3953 35.5063 60.4011 35.8363 60.6078 36.0446C60.6435 36.0807 60.6858 36.1124 60.7347 36.1263C60.8164 36.1494 60.9034 36.12 60.9792 36.082C61.3812 35.8808 61.6158 35.4581 61.8049 35.051C62.0048 34.6206 62.1848 34.1643 62.1759 33.69C62.1733 33.551 62.1532 33.4086 62.0863 33.2868C62.0193 33.1647 61.8991 33.0657 61.7603 33.0525C61.5926 33.0368 61.3461 33.172 61.2197 33.2833C61.0479 33.4348 60.914 33.6519 60.8083 33.8522C60.5863 34.2727 60.4739 34.7446 60.4252 35.215L60.4254 35.2148Z" fill="#21295D"/>
<path d="M65.9322 38.0847C65.9322 38.0847 65.9313 38.0851 65.9313 38.0859C65.7745 38.2435 65.6036 38.3844 65.4206 38.5097C65.3673 38.5466 65.313 38.5823 65.2573 38.6166C65.1358 38.692 65.0108 38.761 64.8817 38.8252C64.8384 38.847 64.7946 38.8679 64.7502 38.888C64.6796 38.9209 64.6082 38.9516 64.5356 38.9805C64.5174 38.9885 64.4992 38.9961 64.481 39.0028C64.345 39.0572 64.2072 39.1063 64.0677 39.1503C63.4801 39.3396 62.8702 39.4475 62.3144 39.5164C61.9646 39.5603 61.6352 39.5438 61.3389 39.471C60.8355 39.3468 60.4266 39.0585 60.1732 38.619C60.0222 38.3565 59.9267 38.0393 59.8989 37.6715C59.8883 37.5252 59.8901 37.3822 59.9039 37.2415C60.0157 36.0377 60.9334 35.0304 61.3064 33.9014C61.348 33.7754 61.4103 33.6583 61.4914 33.5507C61.5659 33.45 61.6566 33.3588 61.7604 33.2752C62.557 32.6334 64.1251 32.5163 65.2898 33.1818C65.3974 33.243 65.4973 33.3061 65.5904 33.3707C66.0186 33.6669 66.3013 33.9891 66.4882 34.2804C66.4897 34.2827 66.4908 34.2851 66.4923 34.2875C66.8198 34.8037 66.8471 35.2207 66.8471 35.2207C66.9495 36.5362 66.5627 37.4489 65.932 38.0853L65.9322 38.0847Z" fill="#F6A36B"/>
<path d="M62.7139 33.4981L62.7957 33.4812C62.8163 33.4825 62.7931 33.4877 62.7139 33.4981Z" fill="#21295D"/>
<path d="M65.2732 38.7161L65.5729 38.169L65.5093 37.71L65.5656 37.6097L65.7001 37.3708C65.644 37.3429 65.5907 37.3107 65.5411 37.2744C65.5075 37.2511 65.4761 37.2253 65.446 37.1983C65.2888 37.0557 65.1774 36.8721 65.1242 36.6713C65.0849 36.5214 65.0776 36.3628 65.1077 36.2037C65.1157 35.0455 63.3128 33.5939 63.3128 33.5939L63.4514 33.2761L62.7955 33.4809C62.7252 33.4751 62.1356 33.5135 61.4912 33.5501C61.5657 33.4494 61.6565 33.3582 61.7602 33.2746C62.5569 32.6328 64.1965 32.4066 65.3611 33.0721C66.0544 33.4658 66.6397 34.0622 66.8989 34.8271C67.3867 36.2659 66.8086 37.8595 65.5472 38.6266L65.2727 38.7156L65.2732 38.7161Z" fill="#21295D"/>
<path d="M65.976 37.958C66.291 37.5006 66.2754 36.9441 65.9411 36.715C65.6069 36.4859 65.0806 36.671 64.7656 37.1284C64.4507 37.5858 64.4663 38.1423 64.8005 38.3713C65.1347 38.6004 65.661 38.4153 65.976 37.958Z" fill="#F6A36B"/>
<path d="M65.0176 37.6626L65.1202 37.7153C65.2688 37.4271 65.6305 37.2696 65.9437 37.3571L65.9747 37.246C65.6108 37.1444 65.1902 37.3275 65.0176 37.6626Z" fill="#323232"/>
<path d="M65.5868 37.8794C65.634 37.9119 65.6856 37.9378 65.7404 37.9562L65.777 37.8468C65.5775 37.7801 65.4293 37.5873 65.417 37.3779L65.3018 37.3848C65.3135 37.5826 65.4244 37.7682 65.5868 37.8794Z" fill="#323232"/>
<path d="M60.7554 36.4069C60.722 36.4019 60.6928 36.3784 60.6824 36.344L60.5281 35.8276C60.5182 35.7943 60.5286 35.7582 60.5546 35.7351L61.2046 35.1597C61.2416 35.127 61.2981 35.1303 61.3311 35.1672C61.364 35.2042 61.3605 35.2606 61.3235 35.2934L60.7161 35.831L60.8541 36.2928C60.8682 36.3401 60.8413 36.39 60.7939 36.4041C60.7809 36.408 60.7679 36.4088 60.7554 36.4069Z" fill="#323232"/>
<path d="M62.5599 35.2872C62.5425 35.3302 62.7041 35.3356 62.8802 35.4063C63.0563 35.4771 63.1802 35.5863 63.1975 35.5435C63.2149 35.5005 63.1191 35.3218 62.943 35.2509C62.7669 35.18 62.5772 35.2442 62.5599 35.2872Z" fill="#323232"/>
<path d="M60.5892 37.0579L62.5974 37.4565C62.5974 37.4565 61.9918 38.4207 61.1393 38.374C60.2868 38.3273 60.5892 37.0579 60.5892 37.0579Z" fill="#F15F62"/>
<path d="M63.0535 36.3323C63.0305 36.3323 63.0084 36.3202 62.9967 36.2986C62.9287 36.1728 62.7805 36.0641 62.6101 36.0151C62.4903 35.9805 62.3786 35.9827 62.3114 36.0205C62.2804 36.038 62.2412 36.027 62.2237 35.9963C62.2061 35.9654 62.2172 35.9263 62.2479 35.9088C62.3461 35.8535 62.491 35.8472 62.6456 35.8917C62.8481 35.9501 63.0259 36.0825 63.1098 36.2377C63.1267 36.2688 63.115 36.3079 63.0836 36.3247C63.0738 36.3299 63.0634 36.3325 63.053 36.3325L63.0535 36.3323Z" fill="#323232"/>
<path d="M67.4802 40.6575C66.4417 41.702 62.2412 45.8308 61.2393 45.2876C60.4927 44.8825 60.2245 43.2774 60.1279 42.2087L61.4305 41.9032L62.0402 42.446L67.48 40.6575H67.4802Z" fill="#21295D"/>
<path d="M63.3716 33.1431C63.3716 33.1431 62.6834 35.7721 63.5884 36.0532C64.1667 36.2328 64.1894 35.6574 64.1894 35.6574C64.1894 35.6574 64.1669 37.6922 64.7246 37.2032C65.2824 36.714 66.1078 35.6919 65.8286 34.7615C65.5492 33.8311 63.3716 33.1433 63.3716 33.1433V33.1431Z" fill="#21295D"/>
<path d="M62.9568 33.5511C62.6555 33.6652 62.3287 33.6983 62.0064 33.6957C61.7012 33.6933 61.3873 33.6572 61.1183 33.5131C60.8495 33.369 60.6327 33.0982 60.6243 32.7938C60.6208 32.6695 60.6539 32.5408 60.7343 32.4457C60.8147 32.3506 60.9463 32.2949 61.0679 32.3225C61.1209 32.3346 61.1694 32.3612 61.2186 32.3848C61.6475 32.5907 62.1352 32.5758 62.5994 32.5956C62.8398 32.606 63.8667 32.6337 63.5907 33.1032C63.466 33.3154 63.1786 33.4671 62.9568 33.5509V33.5511Z" fill="#21295D"/>
<path d="M66.0393 36.0218C65.6055 35.3487 65.3473 34.5712 65.2925 33.773L65.4209 33.7642C65.4742 34.5407 65.7255 35.2975 66.1476 35.9522L66.0393 36.0215V36.0218Z" fill="#182056"/>
<path d="M64.2347 35.5468L64.1167 35.4956C64.223 35.2514 64.2698 34.9569 64.264 34.569C64.262 34.437 64.2547 34.3024 64.2475 34.1721C64.2371 33.9832 64.2265 33.7881 64.2315 33.5947L64.3602 33.5982C64.3552 33.7864 64.3658 33.9789 64.376 34.1652C64.3831 34.2968 64.3907 34.4327 64.3926 34.5673C64.3965 34.8234 64.3844 35.2032 64.2347 35.547V35.5468Z" fill="#182056"/>
<path d="M66.83 36.9634C66.8045 36.9634 66.7781 36.9589 66.751 36.9491L66.7949 36.8286C66.8915 36.8634 66.986 36.7307 67.0267 36.6466C67.2721 36.1386 67.1521 35.4805 66.924 35.0537L67.0375 34.9934C67.2808 35.4489 67.4075 36.154 67.1426 36.7026C67.0776 36.8372 66.9658 36.9638 66.8302 36.9638L66.83 36.9634Z" fill="#182056"/>
<path d="M60.656 41.2551C60.716 41.2702 62.042 42.4656 62.042 42.4656L60.3146 45.3947L59.6191 42.3698L60.656 41.2549V41.2551Z" fill="#21295D"/>
<path d="M66.1734 39.9075L62.1006 42.4611L64.1853 45.1485L67.4804 40.6575L66.1734 39.9075Z" fill="#21295D"/>
<path d="M60.9386 44.6219L60.8286 44.5553L62.0831 42.4885L63.4566 44.1461L63.3574 44.2277L62.0994 42.7096L60.9386 44.6219Z" fill="#0C144D"/>
<path d="M74.3303 54.4739C74.2987 54.4739 74.2712 54.4508 74.2666 54.4188L73.1212 46.3571C73.1163 46.3221 73.1407 46.2895 73.176 46.2845C73.2111 46.2798 73.2438 46.304 73.2488 46.339L74.3942 54.4007C74.3992 54.4357 74.3747 54.4683 74.3394 54.4733C74.3363 54.4737 74.3333 54.4739 74.3303 54.4739Z" fill="#323232"/>
<path d="M58.8128 49.7001C58.78 49.7001 58.7521 49.6755 58.7489 49.6422L58.4168 46.3483C58.4134 46.3131 58.4391 46.2815 58.4744 46.278C58.5104 46.2752 58.5414 46.3003 58.5448 46.3355L58.8769 49.6294C58.8803 49.6647 58.8546 49.6962 58.8193 49.6997C58.8171 49.6997 58.8149 49.6999 58.8128 49.6999V49.7001Z" fill="#323232"/>
<path d="M34.7183 22.5001C34.7536 22.2484 34.9371 22.0422 35.1838 21.9778L35.4933 21.8968L35.5069 21.794C35.5364 21.571 35.7298 21.4061 35.9553 21.4115C36.1888 21.4173 36.3774 21.6036 36.3855 21.8363L36.1838 24.7603L36.9984 24.9211L37.4223 23.3601C37.4875 23.1198 37.7361 22.9783 37.9768 23.0444C38.1929 23.1038 38.3324 23.3128 38.304 23.5347L38.0158 25.7815C38.0158 25.7815 38.5406 28.567 38.4095 29.3476C38.3454 29.7297 37.8345 30.7874 37.8345 30.7874L34.7341 30.7301L33.7291 28.5866L33.7129 26.5527L34.7185 22.5001H34.7183Z" fill="#F6AAA2"/>
<path d="M37.3176 22.2886L37.0579 25.3816L35.8774 25.2428L36.3451 22.1743C36.3847 21.9137 36.6243 21.7315 36.8868 21.7624C37.1491 21.7933 37.3397 22.0261 37.3176 22.2886Z" fill="#F6AAA2"/>
<path d="M34.8717 25.0892C34.8678 25.0892 34.8637 25.0888 34.8596 25.0881C34.8247 25.0817 34.8017 25.048 34.8082 25.0132L35.385 21.9779C35.3915 21.9431 35.4253 21.92 35.4602 21.9267C35.495 21.9332 35.518 21.9669 35.5115 22.0017L34.9347 25.0369C34.9289 25.0678 34.9018 25.0892 34.8715 25.0892H34.8717Z" fill="#323232"/>
<path d="M35.8466 25.143C35.8429 25.143 35.8392 25.1428 35.8358 25.1421C35.8007 25.1361 35.7773 25.103 35.7831 25.068L36.2767 22.1933C36.2828 22.1583 36.3159 22.135 36.351 22.1408C36.3861 22.1468 36.4095 22.1799 36.4037 22.2149L35.91 25.0896C35.9046 25.1209 35.8776 25.143 35.8466 25.143Z" fill="#323232"/>
<path d="M36.9594 25.2124C36.9559 25.2124 36.9524 25.2122 36.949 25.2115C36.9139 25.2059 36.8901 25.1728 36.8959 25.1378L37.0501 24.1921C37.0557 24.1571 37.0885 24.1331 37.124 24.1391C37.1591 24.1447 37.1829 24.1778 37.177 24.2128L37.0228 25.1586C37.0176 25.1901 36.9903 25.2124 36.9594 25.2124Z" fill="#323232"/>
<path d="M23.2749 55.6801L24.9289 80.3448H19.3422C19.3422 80.3448 14.6096 63.3692 15.1923 60.4107C15.7749 57.4521 18.152 54.3088 18.152 54.3088L23.2749 55.6803V55.6801Z" fill="#ED7D9E"/>
<path d="M15.6735 80.3447L19.7594 56.0196L15.0599 53.3547C15.0599 53.3547 13.5427 56.6545 12.4296 59.4188C12.3867 59.5249 12.3429 59.6549 12.2975 59.8049C12.1534 60.2831 11.997 60.975 11.8344 61.8177C11.2167 65.0198 10.1675 76.1826 9.65674 80.3447H15.6737H15.6735Z" fill="#ED7D9E"/>
<path d="M16.9581 69.3855C16.928 69.3855 16.9011 69.3645 16.8951 69.334L15.5457 62.6548C15.5388 62.62 15.5613 62.5863 15.5962 62.5792C15.631 62.5721 15.665 62.5947 15.672 62.6295L17.0213 69.3087C17.0283 69.3435 17.0058 69.3772 16.9709 69.3844C16.9665 69.3852 16.9622 69.3857 16.9581 69.3857V69.3855Z" fill="#323232"/>
<path d="M21.1782 38.5068L23.444 39.3264L22.8999 40.8238C22.2174 40.0998 21.6277 39.3217 21.1782 38.5071V38.5068Z" fill="#F48D8D"/>
<path d="M21.1975 38.5141C21.647 39.3287 22.2368 40.1068 22.9193 40.8309L22.0215 43.3013L18.7617 42.1224L20.2038 38.1545L21.1975 38.5141Z" fill="#F6AAA2"/>
<path d="M24.9461 36.0796C25.4629 38.0189 24.7323 39.83 22.2588 39.5115C19.0592 39.0997 18.6494 36.0787 18.842 34.6824C19.1355 32.5555 21.609 32.2638 21.609 32.2638C22.7173 32.0534 23.5092 32.2777 24.0762 32.7379C25.081 33.5469 24.6459 34.9536 24.9459 36.0798L24.9461 36.0796Z" fill="#F6AAA2"/>
<path d="M23.1413 37.1694C23.1413 37.1694 24.3709 37.3946 24.3774 37.3959C24.1857 37.3607 24.1691 37.9726 23.7495 37.9194C23.6016 37.9006 23.4747 37.8172 23.3997 37.7232C23.3571 37.6697 23.1801 37.1766 23.1411 37.1694H23.1413Z" fill="#F15F62"/>
<path d="M24.5611 35.2402L25.4359 36.2783C25.5306 36.3904 25.4866 36.5622 25.3497 36.6154L24.4771 36.955L24.5613 35.2402H24.5611Z" fill="#F6AAA2"/>
<path d="M24.1689 35.8747C24.2993 35.8261 24.3565 35.657 24.2967 35.4969C24.2368 35.3368 24.0825 35.2463 23.952 35.2949C23.8216 35.3435 23.7644 35.5126 23.8242 35.6727C23.8841 35.8328 24.0384 35.9233 24.1689 35.8747Z" fill="black"/>
<path d="M23.0951 34.8298C23.1148 34.884 23.2695 34.7546 23.4921 34.674C23.7148 34.5934 23.921 34.5916 23.9013 34.5374C23.8816 34.4832 23.6431 34.3967 23.4207 34.4776C23.198 34.5584 23.0756 34.7755 23.0953 34.8298H23.0951Z" fill="black"/>
<path d="M21.1878 32.0432C21.1878 32.0432 22.9687 31.1644 23.6763 31.7223C24.3839 32.28 24.8296 33.7187 24.8296 33.7187L23.78 34.0182L22.7425 33.1015C22.7425 33.1015 22.5892 34.0581 22.1105 34.7876L20.9331 35.2234L21.188 32.0434L21.1878 32.0432Z" fill="#F77066"/>
<path d="M13.6161 62.0976C13.6135 62.0976 13.6109 62.0976 13.6083 62.0972L11.9306 61.8943C11.8953 61.89 11.8702 61.858 11.8745 61.8228C11.8788 61.7876 11.9111 61.7627 11.9462 61.7668L13.56 61.9622L13.7925 60.0507L12.4541 59.8889C12.4188 59.8846 12.3937 59.8526 12.398 59.8174C12.4024 59.7821 12.4348 59.7575 12.4697 59.7614L13.8719 59.931C13.9072 59.9353 13.9324 59.9673 13.928 60.0025L13.6803 62.0415C13.6783 62.0583 13.6694 62.0736 13.656 62.0842C13.6445 62.0931 13.6307 62.0979 13.6164 62.0979L13.6161 62.0976Z" fill="#323232"/>
<path d="M22.5018 31.8244C22.5018 31.8244 20.881 30.55 19.0869 32.1265C17.2929 33.703 16.4938 36.3914 20.057 38.6108L22.5018 31.8244Z" fill="#F77066"/>
<path d="M21.8169 36.3723C21.8461 36.8269 21.5877 37.2308 21.197 37.408C21.0802 37.4615 20.9529 37.495 20.8195 37.5035C20.2325 37.5408 19.7254 37.0959 19.6877 36.5082C19.6503 35.9226 20.096 35.4168 20.683 35.3794C20.7291 35.3764 20.7753 35.3757 20.8195 35.3798C21.3486 35.4129 21.7822 35.8325 21.8169 36.3721V36.3723Z" fill="#F6AAA2"/>
<path d="M20.8819 36.8518C20.8819 36.8518 20.8826 36.8518 20.883 36.8518C20.9287 36.8483 20.9629 36.8083 20.9595 36.7627C20.9068 36.0775 20.4089 35.818 20.3879 35.8072C20.3467 35.7867 20.2969 35.8029 20.2761 35.8435C20.2553 35.8842 20.2718 35.9341 20.3125 35.9548C20.3309 35.9643 20.7487 36.1867 20.794 36.7753C20.7974 36.8204 20.8369 36.8546 20.8821 36.8515L20.8819 36.8518Z" fill="#323232"/>
<path d="M20.8116 36.5205C20.8307 36.5192 20.8495 36.5116 20.8643 36.4972C20.8972 36.4652 20.8978 36.4129 20.8658 36.38C20.6336 36.1419 20.2511 36.2636 20.2348 36.269C20.1913 36.2832 20.1675 36.3301 20.182 36.3736C20.1963 36.417 20.2435 36.4406 20.2866 36.4265C20.2901 36.4254 20.5875 36.3323 20.7469 36.4957C20.7644 36.5138 20.7885 36.522 20.8116 36.5205Z" fill="#323232"/>
<path d="M17.0663 34.6466C17.3304 34.1474 17.7482 33.7421 18.0101 33.2418C18.2719 32.7416 18.3347 32.0575 17.9256 31.6677C17.607 31.3641 17.2784 31.0709 16.9405 30.7889C17.4556 30.7141 18.0007 30.8831 18.3828 31.2355C18.3757 31.0685 18.3131 30.9043 18.2069 30.7746C19.0034 30.9743 19.5217 31.7602 19.7417 32.5495C20.0246 33.5647 20.0356 35.6252 19.0898 36.3769C17.9258 37.302 16.373 35.9575 17.0663 34.6468V34.6466Z" fill="#F77066"/>
<path d="M18.2262 32.0098L18.929 32.2102L18.2153 34.7017L17.5124 34.5013C17.2127 34.4158 17.0388 34.1037 17.1245 33.8046L17.5279 32.3966C17.6135 32.0976 17.9263 31.9241 18.2262 32.0096L18.2262 32.0098Z" fill="#B4C342"/>
<mask id="mask1_7_17424" style="mask-type:luminance" maskUnits="userSpaceOnUse" x="11" y="30" width="29" height="28">
<path d="M34.4521 30.6961L30.0468 40.634L21.6967 41.0588L19.4343 40.4657C19.3204 40.4313 19.1536 40.4117 18.9492 40.4039C16.475 40.3084 15.3539 42.2014 14.6989 44.5835L11.293 55.5471L24.21 57.6442L25.0573 48.8664L32.9026 46.9098C34.5288 46.5042 35.7857 45.2166 36.1489 43.5841L39.0439 30.5745L34.4519 30.6965L34.4521 30.6961Z" fill="white"/>
</mask>
<g mask="url(#mask1_7_17424)">
<path d="M34.4521 30.6961L30.0468 40.634L21.6967 41.0588L19.4343 40.4657C19.3204 40.4313 19.1536 40.4117 18.9492 40.4039C16.475 40.3084 15.3539 42.2014 14.6989 44.5835L11.293 55.5471L24.21 57.6442L25.0573 48.8664L32.9026 46.9098C34.5288 46.5042 35.7857 45.2166 36.1489 43.5841L39.0439 30.5745L34.4519 30.6965L34.4521 30.6961Z" fill="#B4C342"/>
<path d="M12.3974 58.8406C12.3719 58.8406 12.3433 58.8257 12.332 58.7909L12.4546 58.7516C12.449 58.7339 12.4297 58.714 12.4009 58.7123C12.3697 58.7106 12.35 58.7313 12.3452 58.7415C12.5605 58.2678 15.166 36.0335 16.5136 24.343L16.6414 24.3577C16.6314 24.4437 15.6381 33.0575 14.6316 41.563C14.0403 46.5585 13.5603 50.54 13.2047 53.3963C12.9935 55.0925 12.8244 56.4059 12.7022 57.2998C12.4927 58.8316 12.4739 58.8333 12.4037 58.8402C12.4016 58.8402 12.3996 58.8404 12.3974 58.8404V58.8406Z" fill="#CDD781"/>
<path d="M14.8291 59.1348C14.8035 59.1348 14.7749 59.1199 14.7637 59.0851L14.8863 59.0458C14.8806 59.0281 14.8614 59.0082 14.8326 59.0065C14.8011 59.0048 14.7817 59.0255 14.7769 59.0357C14.9922 58.562 17.5976 36.3277 18.9452 24.6372L19.073 24.6519C19.0631 24.7379 18.0698 33.3517 17.0633 41.8572C16.472 46.8527 15.992 50.8342 15.6363 53.6905C15.4252 55.3867 15.2562 56.7001 15.1338 57.594C14.9244 59.1258 14.9055 59.1275 14.8354 59.1344C14.8332 59.1344 14.8312 59.1346 14.8291 59.1346V59.1348Z" fill="#CDD781"/>
<path d="M17.2602 59.4288C17.2347 59.4288 17.2061 59.4139 17.1948 59.3791L17.3174 59.3397C17.3118 59.322 17.2925 59.3022 17.2637 59.3004C17.2329 59.2989 17.2128 59.3194 17.208 59.3296C17.4233 58.8559 20.0287 36.6217 21.3764 24.9312L21.5042 24.9458C21.4942 25.0318 20.5009 33.6456 19.4944 42.1511C18.9031 47.1466 18.4231 51.1281 18.0675 53.9845C17.8563 55.6807 17.6874 56.994 17.565 57.8879C17.3555 59.4197 17.3367 59.4214 17.2665 59.4283C17.2644 59.4283 17.2624 59.4286 17.2602 59.4286V59.4288Z" fill="#CDD781"/>
<path d="M19.6914 59.7232C19.6658 59.7232 19.6372 59.7083 19.626 59.6735L19.7486 59.6342C19.7429 59.6165 19.7237 59.5966 19.6949 59.5949C19.6639 59.5936 19.644 59.6139 19.6392 59.624C19.8545 59.1504 22.4599 36.9161 23.8076 25.2256L23.9353 25.2403C23.9254 25.3263 22.9321 33.94 21.9256 42.4455C21.3343 47.4411 20.8543 51.4225 20.4986 54.2789C20.2875 55.9751 20.1185 57.2884 19.9961 58.1824C19.7867 59.7141 19.7678 59.7159 19.6977 59.7228C19.6955 59.7228 19.6936 59.723 19.6914 59.723V59.7232Z" fill="#CDD781"/>
<path d="M22.1225 60.0172C22.097 60.0172 22.0684 60.0022 22.0571 59.9675L22.1797 59.9281C22.1741 59.9104 22.1548 59.8905 22.126 59.8888C22.0948 59.8869 22.0751 59.9078 22.0703 59.918C22.2856 59.4443 24.8911 37.21 26.2387 25.5195L26.3665 25.5342C26.3565 25.6202 25.3632 34.234 24.3567 42.7395C23.7654 47.735 23.2854 51.7165 22.9298 54.5728C22.7186 56.269 22.5497 57.5824 22.4273 58.4763C22.2178 60.0081 22.199 60.0098 22.1288 60.0167C22.1267 60.0167 22.1247 60.0169 22.1225 60.0169V60.0172Z" fill="#CDD781"/>
<path d="M24.5542 60.3113C24.5286 60.3113 24.5 60.2964 24.4888 60.2616L24.6114 60.2223C24.6057 60.2046 24.5865 60.1847 24.5576 60.183C24.5269 60.181 24.5067 60.202 24.502 60.2122C24.7173 59.7385 27.3227 37.5042 28.6703 25.8137L28.7981 25.8284C28.7882 25.9144 27.7949 34.5282 26.7884 43.0337C26.1971 48.0292 25.7171 52.0107 25.3614 54.867C25.1503 56.5632 24.9813 57.8766 24.8589 58.7705C24.6495 60.3023 24.6306 60.304 24.5605 60.3109C24.5583 60.3109 24.5563 60.3111 24.5542 60.3111V60.3113Z" fill="#CDD781"/>
<path d="M26.9853 60.6053C26.9598 60.6053 26.9312 60.5904 26.9199 60.5556L27.0425 60.5163C27.0369 60.4985 27.0176 60.4787 26.9888 60.4769C26.9578 60.4752 26.9379 60.496 26.9331 60.5061C27.1484 60.0325 29.7538 37.7982 31.1015 26.1077L31.2293 26.1224C31.2193 26.2084 30.226 34.8221 29.2195 43.3276C28.6282 48.3232 28.1482 52.3046 27.7926 55.161C27.5814 56.8572 27.4125 58.1705 27.2901 59.0644C27.0806 60.5962 27.0618 60.5979 26.9916 60.6049C26.9895 60.6049 26.9875 60.6051 26.9853 60.6051V60.6053Z" fill="#CDD781"/>
<path d="M29.4165 60.8997C29.3909 60.8997 29.3623 60.8848 29.3511 60.85L29.4737 60.8107C29.468 60.793 29.4488 60.7731 29.42 60.7714C29.3888 60.7699 29.3691 60.7904 29.3643 60.8005C29.5796 60.3269 32.185 38.0926 33.5327 26.4021L33.6604 26.4168C33.6505 26.5028 32.6572 35.1166 31.6507 43.6221C31.0594 48.6176 30.5794 52.5991 30.2237 55.4554C30.0126 57.1516 29.8434 58.4649 29.7212 59.3589C29.5118 60.8906 29.4929 60.8924 29.4228 60.8993C29.4206 60.8993 29.4187 60.8995 29.4165 60.8995V60.8997Z" fill="#CDD781"/>
<path d="M31.8476 61.1937C31.8221 61.1937 31.7935 61.1788 31.7822 61.144L31.9048 61.1046C31.8992 61.0869 31.8799 61.067 31.8511 61.0653C31.8197 61.0638 31.8002 61.0843 31.7954 61.0945C32.0107 60.6208 34.6162 38.3866 35.9638 26.696L36.0916 26.7107C36.0816 26.7967 35.0883 35.4105 34.0818 43.916C33.4905 48.9115 33.0105 52.893 32.6549 55.7493C32.4437 57.4456 32.2745 58.7589 32.1524 59.6528C31.9429 61.1846 31.9241 61.1863 31.8539 61.1932C31.8518 61.1932 31.8498 61.1935 31.8476 61.1935V61.1937Z" fill="#CDD781"/>
<path d="M34.2788 61.4879C34.2532 61.4879 34.2246 61.4729 34.2134 61.4382L34.336 61.3988C34.3303 61.3811 34.3111 61.3612 34.2823 61.3595C34.2513 61.3582 34.2314 61.3785 34.2266 61.3887C34.4419 60.915 37.0473 38.6807 38.395 26.9902L38.5227 27.0049C38.5128 27.0909 37.5195 35.7047 36.513 44.2102C35.9217 49.2057 35.4417 53.1872 35.086 56.0435C34.8749 57.7398 34.7057 59.0531 34.5835 59.947C34.3741 61.4788 34.3552 61.4805 34.2851 61.4874C34.2829 61.4874 34.281 61.4876 34.2788 61.4876V61.4879Z" fill="#CDD781"/>
</g>
<path d="M21.6146 49.7887C21.5858 49.7887 21.5596 49.7693 21.5522 49.7401C21.5436 49.7058 21.5646 49.671 21.599 49.6623L24.8768 48.8449C24.9112 48.8365 24.9461 48.8572 24.9547 48.8916C24.9634 48.9259 24.9424 48.9607 24.9079 48.9694L21.6302 49.7868C21.625 49.7881 21.6198 49.7887 21.6146 49.7887Z" fill="#323232"/>
<path d="M33.2307 74.9456L31.9929 75.9112C31.673 76.1107 31.5868 76.5374 31.8045 76.8447C31.9102 76.994 32.1162 77.0318 32.2684 76.9296L34.4088 75.4922L33.2307 74.9456Z" fill="#C16D55"/>
<path d="M32.1445 76.928L36.0331 76.1171L33.8398 74.6558L32.1445 76.928Z" fill="#C16D55"/>
<path d="M39.3085 70.2537L40.8641 73.1016L39.2754 73.691L38.0443 75.7213L36.7077 76.1809L35.2201 76.1165L33.8521 75.846L33.2305 74.9456L35.2617 72.8233L39.3085 70.2537Z" fill="#C16D55"/>
<path d="M37.9594 71.1899L34.8329 71.7993C34.8329 71.7993 32.4064 73.4488 32.4049 73.4499C32.166 73.6124 32.0421 73.9964 32.323 74.1824C32.5216 74.3138 32.8233 74.3335 33.0471 74.2643L35.2217 73.5932L37.9594 71.1902V71.1899Z" fill="#C16D55"/>
<path d="M32.647 76.7169C32.6238 76.7169 32.6015 76.7046 32.59 76.6828C32.5733 76.6515 32.5855 76.6126 32.6169 76.5959L35.5452 75.0512C35.5766 75.0345 35.6156 75.0466 35.6323 75.078C35.649 75.1093 35.6368 75.1482 35.6054 75.1648L32.6771 76.7096C32.6676 76.7148 32.6572 76.7171 32.647 76.7171V76.7169Z" fill="#323232"/>
<path d="M34.7607 76.3223C34.7365 76.3223 34.7133 76.3084 34.7023 76.2851C34.6873 76.2529 34.7014 76.2149 34.7337 76.2L36.2927 75.4793C36.325 75.4644 36.3633 75.4785 36.3781 75.5107C36.393 75.5429 36.3789 75.5809 36.3466 75.5958L34.7876 76.3164C34.7789 76.3205 34.7696 76.3225 34.7605 76.3225L34.7607 76.3223Z" fill="#323232"/>
<path d="M36.565 76.2032C36.5425 76.2032 36.5206 76.1913 36.5087 76.1703C36.4914 76.1394 36.5024 76.1003 36.5334 76.083L37.0779 75.7797C37.1089 75.7624 37.1481 75.7734 37.1654 75.8045C37.1827 75.8354 37.1717 75.8745 37.1407 75.8918L36.5962 76.1952C36.5862 76.2008 36.5754 76.2034 36.5648 76.2034L36.565 76.2032Z" fill="#323232"/>
<path d="M45.9411 65.4312C45.9411 65.4312 44.901 66.7255 44.3357 68.345C43.765 69.9803 41.8384 80.179 41.8384 80.179H56.3983C56.3983 80.179 57.0405 71.4077 56.7193 70.248C56.3983 69.0883 55.1137 65.5204 55.1137 65.5204L45.9411 65.4312Z" fill="#F1EAD7"/>
<path d="M53.5681 80.1901L53.4414 80.1681C53.4496 80.1212 54.2621 75.4461 54.3325 72.9817C54.4029 70.5158 54.1919 67.2816 54.19 67.2491L54.3184 67.2407C54.3206 67.2731 54.5317 70.5132 54.4611 72.9852C54.3905 75.4588 53.5766 80.143 53.5683 80.1899L53.5681 80.1901Z" fill="#E3D5AF"/>
<path d="M43.6857 80.1892L43.5586 80.1687C43.5725 80.0829 44.9476 71.5716 45.2004 70.4127C45.4841 69.1117 46.5155 67.0583 46.5259 67.0376L46.641 67.0953C46.6306 67.1158 45.6067 69.1547 45.3262 70.44C45.0741 71.5953 43.6996 80.1032 43.6857 80.189V80.1892Z" fill="#E3D5AF"/>
<path d="M52.1539 67.3221L50.7256 80.1667L50.8535 80.1809L52.2817 67.3362L52.1539 67.3221Z" fill="#E3D5AF"/>
<path d="M48.8404 67.3596L47.4131 80.1748L47.541 80.189L48.9682 67.3738L48.8404 67.3596Z" fill="#E3D5AF"/>
<path d="M38.9013 25.2201L38.7679 23.6754C38.6968 23.31 38.9485 22.9602 39.3182 22.9103C39.498 22.8861 39.6641 23.0094 39.6925 23.1879L40.0919 25.7024L38.9013 25.2199V25.2201Z" fill="#C16D55"/>
<path d="M39.608 23.1001L41.6398 26.4552L39.1016 25.8557L39.608 23.1001Z" fill="#C16D55"/>
<path d="M39.2695 32.7346L42.0229 31.9651L42.708 28.174L42.1407 26.8992L41.0917 25.8683L39.9735 25.0625L38.9013 25.2202L38.73 28.1174L39.2695 32.7346Z" fill="#C16D55"/>
<path d="M39.3625 31.166L37.6977 28.4975C37.6977 28.4975 37.2596 25.6335 37.2593 25.6316C37.2162 25.3496 37.4114 25.0013 37.7356 25.0789C37.9648 25.1338 38.1825 25.3386 38.283 25.5467L39.2613 27.5696L39.3625 31.166Z" fill="#C16D55"/>
<path d="M40.5991 26.8683C40.5707 26.8683 40.5447 26.8495 40.5369 26.8208L39.6844 23.665C39.6751 23.6308 39.6954 23.5956 39.7297 23.5863C39.7641 23.5768 39.7994 23.5973 39.8085 23.6315L40.661 26.7873C40.6703 26.8214 40.65 26.8567 40.6157 26.866C40.6101 26.8675 40.6045 26.8681 40.5991 26.8681V26.8683Z" fill="#323232"/>
<path d="M41.4124 27.1167C41.3854 27.1167 41.3602 27.0994 41.3514 27.0724L40.8235 25.4609C40.8125 25.4272 40.8309 25.3909 40.8647 25.3799C40.8987 25.3689 40.9348 25.3875 40.9459 25.4209L41.4737 27.0325C41.4848 27.0662 41.4664 27.1025 41.4326 27.1135C41.4259 27.1156 41.4192 27.1167 41.4127 27.1167H41.4124Z" fill="#323232"/>
<path d="M42.1608 27.4862C42.1318 27.4862 42.1056 27.4665 42.0984 27.4374L41.9516 26.8397C41.9431 26.8053 41.9641 26.7705 41.9988 26.7621C42.0332 26.7537 42.0681 26.7746 42.0765 26.8092L42.2234 27.4069C42.2318 27.4413 42.2108 27.476 42.1762 27.4845C42.171 27.4858 42.1658 27.4864 42.1608 27.4864V27.4862Z" fill="#323232"/>
<path d="M38.9736 32.6701L42.014 40.5792L46.4115 49.6476L53.7395 51.3086L46.5248 38.9178L42.1942 31.2822L38.9736 32.6701Z" fill="#F7D042"/>
<path d="M46.5024 40.5435C46.5024 40.5435 44.5925 39.9888 43.9678 41.2161C43.3434 42.4435 43.8476 43.0569 43.8476 43.0569L46.5022 40.5435H46.5024Z" fill="#562A2F"/>
<path d="M48.3513 46.384L44.6982 47.9044L45.4386 49.7769C46.5787 48.8655 47.5987 47.6898 48.3513 46.384Z" fill="#B75539"/>
<path d="M49.7008 49.3761L48.5416 46.3049L48.3512 46.3842C47.5986 47.69 46.5786 48.8657 45.4385 49.7771L45.7352 50.528L49.7006 49.3763L49.7008 49.3761Z" fill="#C16D55"/>
<path d="M43.3687 44.1655C42.5344 46.0171 42.9663 47.9445 45.4881 48.0309C48.75 48.1424 49.6551 45.1936 49.692 43.7681C49.7483 41.597 47.3265 40.9014 47.3265 40.9014C46.2546 40.5103 45.4274 40.6047 44.7857 40.9714C43.6496 41.6149 43.8532 43.0903 43.3687 44.1657V44.1655Z" fill="#C16D55"/>
<path d="M43.891 43.3906L42.8473 44.2839C42.7344 44.3805 42.75 44.559 42.878 44.6346L43.6935 45.1162L43.891 43.3906Z" fill="#C16D55"/>
<path d="M45.4219 43.2202C45.3933 43.2712 45.2601 43.1167 45.0513 42.9998C44.8423 42.8829 44.6365 42.8475 44.6653 42.7967C44.6939 42.7457 44.946 42.6986 45.155 42.8155C45.364 42.9324 45.4507 43.1694 45.4221 43.2204L45.4219 43.2202Z" fill="black"/>
<path d="M44.0471 46.1113C43.7874 46.1113 43.6007 46.0752 43.584 46.0719L43.6091 45.946C43.6176 45.9477 44.4731 46.1115 45.0794 45.7161L45.1497 45.8235C44.7915 46.057 44.3646 46.1111 44.0468 46.1111L44.0471 46.1113Z" fill="#BB435B"/>
<path d="M44.937 54.4807C45.0123 53.4513 45.1871 52.431 45.4687 51.4379C45.6075 50.948 45.7596 50.5053 45.903 50.3692C46.9814 49.3458 48.3522 48.4238 49.8344 48.3531C51.4816 48.2747 53.7521 50.7356 54.1957 52.3201L55.3257 66.4154C55.3257 66.4154 44.663 67.1898 44.6625 67.1898C44.5586 67.1946 44.4951 61.0085 44.4912 60.5627L44.9372 54.4807H44.937Z" fill="#F7D042"/>
<path d="M46.5024 40.5434C46.5024 40.5434 49.9735 39.3178 50.7316 43.409C51.2625 46.2744 50.792 46.2647 51.053 47.6528C51.3143 49.0407 53.5452 52.2097 52.0669 53.1527C50.5887 54.0954 47.1933 54.7681 46.3003 51.545C45.9291 50.2049 47.7131 46.9084 47.3781 45.7217C47.043 44.535 44.1902 41.2951 45.1322 40.7214L46.5022 40.5436L46.5024 40.5434Z" fill="#562A2F"/>
<path d="M46.4446 44.9689C46.3408 45.4182 46.5325 45.8635 46.8933 46.1042C47.0012 46.1768 47.1227 46.231 47.2546 46.2613C47.8344 46.3946 48.4136 46.0333 48.5479 45.4525C48.6815 44.8741 48.3194 44.2963 47.7396 44.163C47.6941 44.1526 47.6482 44.1444 47.6033 44.1411C47.0696 44.0878 46.5678 44.4356 46.4446 44.9687V44.9689Z" fill="#C16D55"/>
<path d="M47.2991 45.6009C47.2991 45.6009 47.2985 45.6009 47.298 45.6007C47.253 45.5896 47.2253 45.5443 47.2363 45.4993C47.4014 44.8239 47.9411 44.646 47.9639 44.6389C48.0083 44.6251 48.0555 44.6493 48.0693 44.6934C48.0834 44.7374 48.0589 44.7845 48.0148 44.7986C47.9948 44.8051 47.5413 44.9587 47.3994 45.5391C47.3886 45.5836 47.3437 45.6113 47.2989 45.6009H47.2991Z" fill="#323232"/>
<path d="M47.4241 45.2814C47.4052 45.2771 47.3877 45.2663 47.3753 45.2497C47.3478 45.2125 47.3556 45.16 47.3929 45.1326C47.6636 44.9327 48.0258 45.1168 48.0409 45.1248C48.0821 45.1462 48.0981 45.1967 48.0767 45.2378C48.0552 45.2789 48.0041 45.2946 47.9636 45.2737C47.9603 45.2719 47.6788 45.1304 47.4927 45.2674C47.4721 45.2825 47.447 45.2871 47.4238 45.2817L47.4241 45.2814Z" fill="#323232"/>
<path d="M44.9061 44.241C44.881 44.241 44.8571 44.2263 44.8467 44.2017C44.7623 44.0014 44.5459 43.8594 44.3282 43.8594C44.3235 43.8594 44.3189 43.8594 44.3141 43.8597C44.2793 43.859 44.2489 43.8329 44.2481 43.7972C44.247 43.7618 44.2749 43.7322 44.3107 43.7313C44.5879 43.7263 44.8578 43.8964 44.9657 44.152C44.9795 44.1846 44.9641 44.2225 44.9312 44.2361C44.923 44.2395 44.9145 44.241 44.9063 44.241H44.9061Z" fill="#323232"/>
<path d="M46.3374 54.2344L42.7716 64.7732L37.2954 71.1436L41.1486 73.7714L48.0862 66.8903L51.1774 57.2575L46.3374 54.2344Z" fill="#F7D042"/>
<path d="M48.0863 66.9545C48.0806 66.9545 48.075 66.9538 48.0694 66.9523C48.0352 66.943 48.0148 66.9076 48.0243 66.8735L50.7311 57.0008C50.7404 56.9667 50.7757 56.9466 50.8102 56.9559C50.8444 56.9652 50.8647 57.0006 50.8552 57.0347L48.1484 66.9074C48.1406 66.9359 48.1146 66.9547 48.0865 66.9547L48.0863 66.9545Z" fill="#323232"/>
<path d="M83.6345 25.2841L81.854 23.9345L79.7341 24.6364C79.493 24.7161 79.2646 24.4848 79.3473 24.2446L80.0805 22.134L78.7578 20.3335C78.6072 20.1288 78.7578 19.8394 79.0117 19.8453L81.2448 19.8906L82.5479 18.0763C82.6965 17.8696 83.0174 17.9227 83.0912 18.1669L83.7388 20.305L85.8666 20.9842C86.1087 21.062 86.1579 21.3829 85.9483 21.5286L84.1157 22.8054L84.1275 25.039C84.1285 25.293 83.8382 25.4387 83.6354 25.2851L83.6345 25.2841Z" fill="#F47458"/>
<path d="M58.0199 18.814L61.2038 18.7739L61.3622 15.8099L64.4972 15.632L64.9974 12.8177L67.3215 12.3005L67.0602 11.1242L63.9519 11.8148L63.477 14.4821L60.2167 14.6675L60.0603 17.5826L57.1758 17.619L58.0199 18.814Z" fill="#A8B5FF"/>
<path d="M11.9626 19.9374C11.9626 19.9374 12.3415 18.8319 13.6091 18.4726C14.739 18.1517 15.7872 18.8782 16.1001 19.9817C16.4623 21.2595 15.8305 23.0727 13.4477 25.1685C10.319 24.6369 8.8289 23.4271 8.46573 22.1493C8.15276 21.0458 8.66257 19.8764 9.79243 19.5554C11.0601 19.1951 11.9636 19.9364 11.9636 19.9364L11.9626 19.9374Z" fill="#F7CC7F"/>
<path d="M7.33907 33.5834L5.01746 34.852L2.56386 31.3409L-1.05921 32.778L-3.32512 30.4505L-4.50201 31.5975L-1.47193 34.71L1.96122 33.3492L4.51413 37.0013L8.00679 35.0923L7.33907 33.5834Z" fill="#F47458"/>
</g>
<defs>
<clipPath id="clip0_7_17424">
<rect width="86" height="69" fill="white" transform="translate(3 11.3447)"/>
</clipPath>
</defs>
</svg>
