<svg width="231" height="40" viewBox="0 0 231 40" fill="none" xmlns="http://www.w3.org/2000/svg">
<mask id="path-1-inside-1_0_4092" fill="white">
<path d="M13.2141 38.3447H-0.00190616V0.992723H16.8541C20.7741 0.992723 24.8621 1.44072 28.2781 4.85672C30.1821 6.76073 31.8061 9.61673 31.8061 14.0407C31.8061 17.3447 30.7981 19.4167 29.7341 20.7047C28.6141 22.1047 26.7661 23.2247 24.5821 23.6727V24.0087C25.3101 24.4007 26.0381 24.9607 26.5421 25.7447L34.9421 38.3447H19.3181L13.9421 27.4247C13.7741 27.0327 13.6061 26.8647 13.4381 26.2487L13.2141 26.3607V38.3447ZM13.2141 11.2407V17.6247H14.7821C15.5661 17.6247 16.7981 17.5127 17.6381 16.7847C18.0861 16.3927 18.5901 15.6647 18.5901 14.4887C18.5901 13.6487 18.3661 12.8087 17.8621 12.2487C17.4141 11.7447 16.6861 11.2407 15.5661 11.2407H13.2141ZM65.3466 38.3447H39.8106V0.992723H65.0106V11.2407H53.3626V14.7127H63.9466V24.5127H53.3626V28.0967H65.3466V38.3447ZM93.0425 33.6967H82.7385L81.7305 38.3447H67.3945L80.3305 0.992723H95.3385L108.667 38.3447H94.2745L93.0425 33.6967ZM88.9545 17.6807C88.6185 16.2247 88.3945 14.8247 88.2265 13.4807H87.7225C87.6665 15.0487 87.4425 16.3367 87.1065 17.6807L85.2585 24.8487H90.6905L88.9545 17.6807ZM139.988 3.40073L136.348 12.9207C134.724 11.8007 131.756 10.1207 128.732 10.1207C128.004 10.1207 126.884 10.2327 126.156 10.7927C125.652 11.1847 125.484 11.5767 125.484 12.1367C125.484 12.9207 125.596 13.6487 127.668 14.0967L131.98 15.0487C135.284 15.7767 137.244 17.1207 138.364 18.2407C140.716 20.5367 141.22 23.3927 141.22 25.6327C141.22 28.8247 140.38 31.7927 137.86 34.4247C135.732 36.6087 131.7 39.1847 124.7 39.1847C118.988 39.1847 115.18 37.5607 111.988 36.2727L110.756 35.7687L114.844 25.2407L116.3 26.3607C117.7 27.4247 120.556 29.1047 123.86 29.1047C125.708 29.1047 126.492 28.6567 126.772 28.4327C127.388 27.9287 127.5 27.3127 127.5 26.7527C127.5 26.4167 127.444 25.8567 127.052 25.4647C126.604 25.0167 125.876 24.8487 124.476 24.5687L121.172 23.9527C119.044 23.5607 116.748 22.8887 114.676 20.7607C112.772 18.8007 111.988 16.5607 111.988 13.8727C111.988 10.4007 113.164 7.43272 115.628 4.96873C118.484 2.05673 122.684 0.152724 128.62 0.152724C131.588 0.152724 135.452 0.656724 139.988 3.40073ZM186.813 19.6407C186.813 25.6327 184.517 30.2247 181.605 33.1927C178.413 36.4407 173.205 39.1847 166.093 39.1847C158.981 39.1847 153.773 36.4407 150.581 33.1927C147.669 30.2247 145.373 25.6327 145.373 19.6407C145.373 13.7047 147.669 9.11273 150.581 6.14472C153.773 2.89673 158.981 0.152724 166.093 0.152724C173.205 0.152724 178.413 2.89673 181.605 6.14472C184.517 9.11273 186.813 13.7047 186.813 19.6407ZM166.093 12.1927C163.685 12.1927 162.117 13.1447 161.221 14.0967C159.877 15.4967 159.093 17.6807 159.093 19.6967C159.093 21.8247 159.877 23.8967 161.221 25.2407C162.341 26.3607 164.021 27.1447 166.093 27.1447C168.165 27.1447 169.845 26.3607 170.965 25.2407C172.197 24.0087 173.093 22.0487 173.093 19.6967C173.093 17.3447 172.309 15.3847 170.965 14.0967C169.957 13.0887 168.333 12.1927 166.093 12.1927ZM205.598 38.3447H192.662V0.992723H205.598L214.278 15.1047C215.678 17.3447 216.574 18.8007 217.806 21.7127H218.198C217.638 19.3607 217.022 15.6087 217.022 12.8647V0.992723H230.014V38.3447H217.022L207.726 23.6167C206.886 22.2727 205.878 20.3127 205.15 18.7447H204.758C205.15 20.7607 205.598 23.9527 205.598 25.6327V38.3447Z"/>
</mask>
<path d="M13.2141 38.3447H-0.00190616V0.992723H16.8541C20.7741 0.992723 24.8621 1.44072 28.2781 4.85672C30.1821 6.76073 31.8061 9.61673 31.8061 14.0407C31.8061 17.3447 30.7981 19.4167 29.7341 20.7047C28.6141 22.1047 26.7661 23.2247 24.5821 23.6727V24.0087C25.3101 24.4007 26.0381 24.9607 26.5421 25.7447L34.9421 38.3447H19.3181L13.9421 27.4247C13.7741 27.0327 13.6061 26.8647 13.4381 26.2487L13.2141 26.3607V38.3447ZM13.2141 11.2407V17.6247H14.7821C15.5661 17.6247 16.7981 17.5127 17.6381 16.7847C18.0861 16.3927 18.5901 15.6647 18.5901 14.4887C18.5901 13.6487 18.3661 12.8087 17.8621 12.2487C17.4141 11.7447 16.6861 11.2407 15.5661 11.2407H13.2141ZM65.3466 38.3447H39.8106V0.992723H65.0106V11.2407H53.3626V14.7127H63.9466V24.5127H53.3626V28.0967H65.3466V38.3447ZM93.0425 33.6967H82.7385L81.7305 38.3447H67.3945L80.3305 0.992723H95.3385L108.667 38.3447H94.2745L93.0425 33.6967ZM88.9545 17.6807C88.6185 16.2247 88.3945 14.8247 88.2265 13.4807H87.7225C87.6665 15.0487 87.4425 16.3367 87.1065 17.6807L85.2585 24.8487H90.6905L88.9545 17.6807ZM139.988 3.40073L136.348 12.9207C134.724 11.8007 131.756 10.1207 128.732 10.1207C128.004 10.1207 126.884 10.2327 126.156 10.7927C125.652 11.1847 125.484 11.5767 125.484 12.1367C125.484 12.9207 125.596 13.6487 127.668 14.0967L131.98 15.0487C135.284 15.7767 137.244 17.1207 138.364 18.2407C140.716 20.5367 141.22 23.3927 141.22 25.6327C141.22 28.8247 140.38 31.7927 137.86 34.4247C135.732 36.6087 131.7 39.1847 124.7 39.1847C118.988 39.1847 115.18 37.5607 111.988 36.2727L110.756 35.7687L114.844 25.2407L116.3 26.3607C117.7 27.4247 120.556 29.1047 123.86 29.1047C125.708 29.1047 126.492 28.6567 126.772 28.4327C127.388 27.9287 127.5 27.3127 127.5 26.7527C127.5 26.4167 127.444 25.8567 127.052 25.4647C126.604 25.0167 125.876 24.8487 124.476 24.5687L121.172 23.9527C119.044 23.5607 116.748 22.8887 114.676 20.7607C112.772 18.8007 111.988 16.5607 111.988 13.8727C111.988 10.4007 113.164 7.43272 115.628 4.96873C118.484 2.05673 122.684 0.152724 128.62 0.152724C131.588 0.152724 135.452 0.656724 139.988 3.40073ZM186.813 19.6407C186.813 25.6327 184.517 30.2247 181.605 33.1927C178.413 36.4407 173.205 39.1847 166.093 39.1847C158.981 39.1847 153.773 36.4407 150.581 33.1927C147.669 30.2247 145.373 25.6327 145.373 19.6407C145.373 13.7047 147.669 9.11273 150.581 6.14472C153.773 2.89673 158.981 0.152724 166.093 0.152724C173.205 0.152724 178.413 2.89673 181.605 6.14472C184.517 9.11273 186.813 13.7047 186.813 19.6407ZM166.093 12.1927C163.685 12.1927 162.117 13.1447 161.221 14.0967C159.877 15.4967 159.093 17.6807 159.093 19.6967C159.093 21.8247 159.877 23.8967 161.221 25.2407C162.341 26.3607 164.021 27.1447 166.093 27.1447C168.165 27.1447 169.845 26.3607 170.965 25.2407C172.197 24.0087 173.093 22.0487 173.093 19.6967C173.093 17.3447 172.309 15.3847 170.965 14.0967C169.957 13.0887 168.333 12.1927 166.093 12.1927ZM205.598 38.3447H192.662V0.992723H205.598L214.278 15.1047C215.678 17.3447 216.574 18.8007 217.806 21.7127H218.198C217.638 19.3607 217.022 15.6087 217.022 12.8647V0.992723H230.014V38.3447H217.022L207.726 23.6167C206.886 22.2727 205.878 20.3127 205.15 18.7447H204.758C205.15 20.7607 205.598 23.9527 205.598 25.6327V38.3447Z" fill="white"/>
<path d="M13.2141 38.3447V39.3447C13.7664 39.3447 14.2141 38.897 14.2141 38.3447H13.2141ZM-0.00190616 38.3447H-1.00191C-1.00191 38.897 -0.554191 39.3447 -0.00190616 39.3447V38.3447ZM-0.00190616 0.992723V-0.00727654C-0.554191 -0.00727654 -1.00191 0.440439 -1.00191 0.992723H-0.00190616ZM28.2781 4.85672L28.9852 4.14962L28.9852 4.14962L28.2781 4.85672ZM29.7341 20.7047L28.9631 20.0678C28.9598 20.0719 28.9565 20.0759 28.9532 20.08L29.7341 20.7047ZM24.5821 23.6727L24.3812 22.6931C23.916 22.7885 23.5821 23.1979 23.5821 23.6727H24.5821ZM24.5821 24.0087H23.5821C23.5821 24.3766 23.7841 24.7148 24.108 24.8892L24.5821 24.0087ZM26.5421 25.7447L25.7009 26.2855C25.7039 26.2902 25.707 26.2948 25.71 26.2994L26.5421 25.7447ZM34.9421 38.3447V39.3447C35.3109 39.3447 35.6498 39.1417 35.8238 38.8166C35.9978 38.4914 35.9787 38.0969 35.7741 37.79L34.9421 38.3447ZM19.3181 38.3447L18.4209 38.7864C18.5892 39.1282 18.9371 39.3447 19.3181 39.3447V38.3447ZM13.9421 27.4247L13.0229 27.8186C13.0299 27.8348 13.0372 27.8507 13.0449 27.8664L13.9421 27.4247ZM13.4381 26.2487L14.4029 25.9856C14.324 25.6966 14.1198 25.4581 13.8463 25.3358C13.5728 25.2135 13.2588 25.2203 12.9909 25.3543L13.4381 26.2487ZM13.2141 26.3607L12.7669 25.4663C12.4281 25.6357 12.2141 25.982 12.2141 26.3607H13.2141ZM13.2141 11.2407V10.2407C12.6618 10.2407 12.2141 10.6884 12.2141 11.2407H13.2141ZM13.2141 17.6247H12.2141C12.2141 18.177 12.6618 18.6247 13.2141 18.6247V17.6247ZM17.6381 16.7847L18.293 17.5404L18.2966 17.5373L17.6381 16.7847ZM17.8621 12.2487L17.1147 12.9131L17.1188 12.9177L17.8621 12.2487ZM13.2141 37.3447H-0.00190616V39.3447H13.2141V37.3447ZM0.998094 38.3447V0.992723H-1.00191V38.3447H0.998094ZM-0.00190616 1.99272H16.8541V-0.00727654H-0.00190616V1.99272ZM16.8541 1.99272C20.7096 1.99272 24.4481 2.44094 27.571 5.56383L28.9852 4.14962C25.2761 0.440512 20.8386 -0.00727654 16.8541 -0.00727654V1.99272ZM27.571 5.56383C29.2995 7.29233 30.8061 9.89849 30.8061 14.0407H32.8061C32.8061 9.33496 31.0647 6.22912 28.9852 4.14962L27.571 5.56383ZM30.8061 14.0407C30.8061 17.1212 29.8735 18.9658 28.9631 20.0678L30.5051 21.3416C31.7227 19.8676 32.8061 17.5682 32.8061 14.0407H30.8061ZM28.9532 20.08C27.9969 21.2755 26.3658 22.286 24.3812 22.6931L24.783 24.6523C27.1664 24.1634 29.2313 22.934 30.515 21.3294L28.9532 20.08ZM23.5821 23.6727V24.0087H25.5821V23.6727H23.5821ZM24.108 24.8892C24.7388 25.2289 25.3159 25.6865 25.7009 26.2855L27.3833 25.204C26.7603 24.2349 25.8814 23.5726 25.0562 23.1283L24.108 24.8892ZM25.71 26.2994L34.11 38.8994L35.7741 37.79L27.3741 25.19L25.71 26.2994ZM34.9421 37.3447H19.3181V39.3447H34.9421V37.3447ZM20.2153 37.903L14.8393 26.983L13.0449 27.8664L18.4209 38.7864L20.2153 37.903ZM14.8612 27.0308C14.7645 26.805 14.6274 26.5593 14.5845 26.4735C14.5273 26.359 14.468 26.2245 14.4029 25.9856L12.4733 26.5118C12.5762 26.8889 12.6849 27.1464 12.7957 27.3679C12.9208 27.6181 12.9517 27.6525 13.0229 27.8186L14.8612 27.0308ZM12.9909 25.3543L12.7669 25.4663L13.6613 27.2552L13.8853 27.1432L12.9909 25.3543ZM12.2141 26.3607V38.3447H14.2141V26.3607H12.2141ZM12.2141 11.2407V17.6247H14.2141V11.2407H12.2141ZM13.2141 18.6247H14.7821V16.6247H13.2141V18.6247ZM14.7821 18.6247C15.5934 18.6247 17.1573 18.5247 18.293 17.5404L16.9832 16.029C16.4388 16.5008 15.5388 16.6247 14.7821 16.6247V18.6247ZM18.2966 17.5373C18.9359 16.9779 19.5901 15.9855 19.5901 14.4887H17.5901C17.5901 15.3439 17.2363 15.8076 16.9796 16.0321L18.2966 17.5373ZM19.5901 14.4887C19.5901 13.505 19.3327 12.3879 18.6054 11.5798L17.1188 12.9177C17.3995 13.2295 17.5901 13.7924 17.5901 14.4887H19.5901ZM18.6095 11.5844C18.014 10.9144 17.0297 10.2407 15.5661 10.2407V12.2407C16.3425 12.2407 16.8142 12.5751 17.1147 12.9131L18.6095 11.5844ZM15.5661 10.2407H13.2141V12.2407H15.5661V10.2407ZM65.3466 38.3447V39.3447C65.8989 39.3447 66.3466 38.897 66.3466 38.3447H65.3466ZM39.8106 38.3447H38.8106C38.8106 38.897 39.2583 39.3447 39.8106 39.3447V38.3447ZM39.8106 0.992723V-0.00727654C39.2583 -0.00727654 38.8106 0.440439 38.8106 0.992723H39.8106ZM65.0106 0.992723H66.0106C66.0106 0.440439 65.5629 -0.00727654 65.0106 -0.00727654V0.992723ZM65.0106 11.2407V12.2407C65.5629 12.2407 66.0106 11.793 66.0106 11.2407H65.0106ZM53.3626 11.2407V10.2407C52.8103 10.2407 52.3626 10.6884 52.3626 11.2407H53.3626ZM53.3626 14.7127H52.3626C52.3626 15.265 52.8103 15.7127 53.3626 15.7127V14.7127ZM63.9466 14.7127H64.9466C64.9466 14.1604 64.4989 13.7127 63.9466 13.7127V14.7127ZM63.9466 24.5127V25.5127C64.4989 25.5127 64.9466 25.065 64.9466 24.5127H63.9466ZM53.3626 24.5127V23.5127C52.8103 23.5127 52.3626 23.9604 52.3626 24.5127H53.3626ZM53.3626 28.0967H52.3626C52.3626 28.649 52.8103 29.0967 53.3626 29.0967V28.0967ZM65.3466 28.0967H66.3466C66.3466 27.5444 65.8989 27.0967 65.3466 27.0967V28.0967ZM65.3466 37.3447H39.8106V39.3447H65.3466V37.3447ZM40.8106 38.3447V0.992723H38.8106V38.3447H40.8106ZM39.8106 1.99272H65.0106V-0.00727654H39.8106V1.99272ZM64.0106 0.992723V11.2407H66.0106V0.992723H64.0106ZM65.0106 10.2407H53.3626V12.2407H65.0106V10.2407ZM52.3626 11.2407V14.7127H54.3626V11.2407H52.3626ZM53.3626 15.7127H63.9466V13.7127H53.3626V15.7127ZM62.9466 14.7127V24.5127H64.9466V14.7127H62.9466ZM63.9466 23.5127H53.3626V25.5127H63.9466V23.5127ZM52.3626 24.5127V28.0967H54.3626V24.5127H52.3626ZM53.3626 29.0967H65.3466V27.0967H53.3626V29.0967ZM64.3466 28.0967V38.3447H66.3466V28.0967H64.3466ZM93.0425 33.6967L94.0092 33.4405C93.8929 33.002 93.4961 32.6967 93.0425 32.6967V33.6967ZM82.7385 33.6967V32.6967C82.2679 32.6967 81.861 33.0249 81.7612 33.4848L82.7385 33.6967ZM81.7305 38.3447V39.3447C82.2011 39.3447 82.6081 39.0166 82.7078 38.5567L81.7305 38.3447ZM67.3945 38.3447L66.4496 38.0175C66.3437 38.3232 66.3923 38.6612 66.5799 38.9247C66.7675 39.1882 67.071 39.3447 67.3945 39.3447V38.3447ZM80.3305 0.992723V-0.00727654C79.9044 -0.00727654 79.5251 0.262785 79.3856 0.665467L80.3305 0.992723ZM95.3385 0.992723L96.2804 0.656655C96.1383 0.258524 95.7613 -0.00727654 95.3385 -0.00727654V0.992723ZM108.667 38.3447V39.3447C108.992 39.3447 109.297 39.1866 109.484 38.9209C109.671 38.6551 109.718 38.3149 109.608 38.0087L108.667 38.3447ZM94.2745 38.3447L93.3079 38.6009C93.4241 39.0394 93.8209 39.3447 94.2745 39.3447V38.3447ZM88.9545 17.6807L87.9801 17.9056L87.9826 17.9161L88.9545 17.6807ZM88.2265 13.4807L89.2188 13.3567C89.1563 12.8563 88.7309 12.4807 88.2265 12.4807V13.4807ZM87.7225 13.4807V12.4807C87.1841 12.4807 86.7424 12.907 86.7232 13.445L87.7225 13.4807ZM87.1065 17.6807L88.0749 17.9304L88.0767 17.9233L87.1065 17.6807ZM85.2585 24.8487L84.2902 24.5991C84.213 24.8985 84.2787 25.2168 84.4681 25.4612C84.6575 25.7057 84.9493 25.8487 85.2585 25.8487V24.8487ZM90.6905 24.8487V25.8487C90.9972 25.8487 91.2869 25.708 91.4765 25.467C91.6661 25.226 91.7346 24.9114 91.6624 24.6133L90.6905 24.8487ZM93.0425 32.6967H82.7385V34.6967H93.0425V32.6967ZM81.7612 33.4848L80.7532 38.1328L82.7078 38.5567L83.7158 33.9087L81.7612 33.4848ZM81.7305 37.3447H67.3945V39.3447H81.7305V37.3447ZM68.3395 38.672L81.2755 1.31998L79.3856 0.665467L66.4496 38.0175L68.3395 38.672ZM80.3305 1.99272H95.3385V-0.00727654H80.3305V1.99272ZM94.3967 1.32879L107.725 38.6808L109.608 38.0087L96.2804 0.656655L94.3967 1.32879ZM108.667 37.3447H94.2745V39.3447H108.667V37.3447ZM95.2412 38.0885L94.0092 33.4405L92.0759 33.9529L93.3079 38.6009L95.2412 38.0885ZM89.9289 17.4559C89.6026 16.0418 89.3838 14.677 89.2188 13.3567L87.2343 13.6048C87.4052 14.9725 87.6345 16.4076 87.9801 17.9056L89.9289 17.4559ZM88.2265 12.4807H87.7225V14.4807H88.2265V12.4807ZM86.7232 13.445C86.6702 14.9286 86.4594 16.1461 86.1364 17.4382L88.0767 17.9233C88.4256 16.5274 88.6629 15.1688 88.7219 13.5164L86.7232 13.445ZM86.1382 17.4311L84.2902 24.5991L86.2269 25.0984L88.0749 17.9304L86.1382 17.4311ZM85.2585 25.8487H90.6905V23.8487H85.2585V25.8487ZM91.6624 24.6133L89.9264 17.4453L87.9826 17.9161L89.7186 25.0841L91.6624 24.6133ZM139.988 3.40073L140.922 3.75786C141.094 3.30609 140.919 2.79545 140.505 2.5451L139.988 3.40073ZM136.348 12.9207L135.78 13.7439C136.032 13.9181 136.351 13.9667 136.644 13.8758C136.937 13.7849 137.172 13.5644 137.282 13.2779L136.348 12.9207ZM126.156 10.7927L125.546 10.0001L125.542 10.0034L126.156 10.7927ZM127.668 14.0967L127.883 13.1202L127.879 13.1193L127.668 14.0967ZM131.98 15.0487L131.764 16.0252L131.764 16.0253L131.98 15.0487ZM138.364 18.2407L137.656 18.9479L137.665 18.9563L138.364 18.2407ZM137.86 34.4247L138.576 35.1226L138.582 35.1163L137.86 34.4247ZM111.988 36.2727L111.609 37.1983L111.613 37.2001L111.988 36.2727ZM110.756 35.7687L109.823 35.4068C109.626 35.9151 109.872 36.4878 110.377 36.6943L110.756 35.7687ZM114.844 25.2407L115.453 24.4481C115.204 24.256 114.878 24.1928 114.575 24.2776C114.271 24.3623 114.025 24.5851 113.911 24.8788L114.844 25.2407ZM116.3 26.3607L115.69 27.1534L115.695 27.1569L116.3 26.3607ZM126.772 28.4327L127.396 29.2136L127.405 29.2067L126.772 28.4327ZM127.052 25.4647L126.344 26.1718L126.344 26.1718L127.052 25.4647ZM124.476 24.5687L124.672 23.5881L124.659 23.5857L124.476 24.5687ZM121.172 23.9527L121.355 22.9697L121.353 22.9693L121.172 23.9527ZM114.676 20.7607L113.958 21.4575L113.959 21.4583L114.676 20.7607ZM115.628 4.96873L116.335 5.67587L116.342 5.66893L115.628 4.96873ZM139.054 3.04359L135.414 12.5636L137.282 13.2779L140.922 3.75786L139.054 3.04359ZM136.915 12.0975C135.255 10.9527 132.074 9.12073 128.732 9.12073V11.1207C131.437 11.1207 134.192 12.6487 135.78 13.7439L136.915 12.0975ZM128.732 9.12073C128.322 9.12073 127.787 9.15174 127.236 9.26849C126.694 9.3835 126.072 9.59517 125.546 10.0001L126.765 11.5853C126.967 11.4303 127.269 11.306 127.651 11.225C128.025 11.1457 128.413 11.1207 128.732 11.1207V9.12073ZM125.542 10.0034C125.204 10.2664 124.919 10.5756 124.73 10.9662C124.541 11.3572 124.484 11.755 124.484 12.1367H126.484C126.484 11.9585 126.51 11.8803 126.531 11.8373C126.552 11.7938 126.604 11.7111 126.77 11.5821L125.542 10.0034ZM124.484 12.1367C124.484 12.5571 124.5 13.2624 125.038 13.8922C125.542 14.4816 126.355 14.8359 127.456 15.0741L127.879 13.1193C126.909 12.9095 126.63 12.6758 126.559 12.5932C126.523 12.5511 126.484 12.5003 126.484 12.1367H124.484ZM127.452 15.0732L131.764 16.0252L132.195 14.0722L127.883 13.1202L127.452 15.0732ZM131.764 16.0253C134.886 16.7132 136.675 17.9659 137.656 18.9478L139.071 17.5336C137.813 16.2756 135.681 14.8402 132.195 14.0722L131.764 16.0253ZM137.665 18.9563C139.748 20.9895 140.22 23.5322 140.22 25.6327H142.22C142.22 23.2532 141.683 20.084 139.062 17.5252L137.665 18.9563ZM140.22 25.6327C140.22 28.6255 139.442 31.3256 137.137 33.7332L138.582 35.1163C141.317 32.2598 142.22 29.024 142.22 25.6327H140.22ZM137.143 33.7269C135.199 35.722 131.424 38.1847 124.7 38.1847V40.1847C131.975 40.1847 136.264 37.4955 138.576 35.1226L137.143 33.7269ZM124.7 38.1847C119.199 38.1847 115.55 36.6317 112.362 35.3454L111.613 37.2001C114.81 38.4898 118.776 40.1847 124.7 40.1847V38.1847ZM112.366 35.3472L111.134 34.8432L110.377 36.6943L111.609 37.1983L112.366 35.3472ZM111.688 36.1307L115.776 25.6027L113.911 24.8788L109.823 35.4068L111.688 36.1307ZM114.234 26.0333L115.69 27.1533L116.909 25.5681L115.453 24.4481L114.234 26.0333ZM115.695 27.1569C117.173 28.2805 120.242 30.1047 123.86 30.1047V28.1047C120.87 28.1047 118.226 26.569 116.905 25.5646L115.695 27.1569ZM123.86 30.1047C125.87 30.1047 126.894 29.6152 127.396 29.2136L126.147 27.6519C126.089 27.6983 125.545 28.1047 123.86 28.1047V30.1047ZM127.405 29.2067C128.348 28.4354 128.5 27.4643 128.5 26.7527H126.5C126.5 26.9706 126.477 27.1352 126.427 27.2701C126.383 27.3921 126.305 27.5224 126.138 27.6588L127.405 29.2067ZM128.5 26.7527C128.5 26.3613 128.447 25.4462 127.759 24.7576L126.344 26.1718C126.386 26.2132 126.427 26.2806 126.458 26.3928C126.489 26.5075 126.5 26.6351 126.5 26.7527H128.5ZM127.759 24.7576C127.378 24.3771 126.917 24.1597 126.427 24.0019C125.95 23.8481 125.359 23.7257 124.672 23.5881L124.279 25.5493C124.992 25.6918 125.465 25.7933 125.814 25.9056C126.15 26.0137 126.277 26.1044 126.344 26.1718L127.759 24.7576ZM124.659 23.5857L121.355 22.9697L120.988 24.9358L124.292 25.5518L124.659 23.5857ZM121.353 22.9693C119.311 22.5931 117.254 21.9754 115.392 20.0631L113.959 21.4583C116.241 23.8021 118.776 24.5283 120.99 24.9362L121.353 22.9693ZM115.393 20.0639C113.692 18.3126 112.988 16.333 112.988 13.8727H110.988C110.988 16.7884 111.852 19.2888 113.958 21.4575L115.393 20.0639ZM112.988 13.8727C112.988 10.6553 114.066 7.94489 116.335 5.67583L114.92 4.26162C112.262 6.92056 110.988 10.1462 110.988 13.8727H112.988ZM116.342 5.66893C118.985 2.97366 122.915 1.15272 128.62 1.15272V-0.847276C122.452 -0.847276 117.982 1.13979 114.914 4.26852L116.342 5.66893ZM128.62 1.15272C131.45 1.15272 135.124 1.62745 139.47 4.25635L140.505 2.5451C135.779 -0.314005 131.726 -0.847276 128.62 -0.847276V1.15272ZM181.605 33.1927L182.318 33.8937L182.319 33.8931L181.605 33.1927ZM150.581 33.1927L149.867 33.8931L149.868 33.8937L150.581 33.1927ZM150.581 6.14472L149.868 5.44379L149.867 5.44438L150.581 6.14472ZM181.605 6.14472L182.319 5.44438L182.318 5.44379L181.605 6.14472ZM161.221 14.0967L161.942 14.7893L161.949 14.7821L161.221 14.0967ZM161.221 25.2407L161.928 24.5336L161.928 24.5336L161.221 25.2407ZM170.965 25.2407L170.258 24.5336L170.258 24.5336L170.965 25.2407ZM170.965 14.0967L170.258 14.8038C170.263 14.8088 170.268 14.8138 170.273 14.8187L170.965 14.0967ZM185.813 19.6407C185.813 25.3648 183.624 29.707 180.891 32.4924L182.319 33.8931C185.41 30.7425 187.813 25.9007 187.813 19.6407H185.813ZM180.892 32.4918C177.886 35.5505 172.934 38.1847 166.093 38.1847V40.1847C173.476 40.1847 178.94 37.3309 182.318 33.8937L180.892 32.4918ZM166.093 38.1847C159.252 38.1847 154.3 35.5505 151.294 32.4918L149.868 33.8937C153.246 37.3309 158.71 40.1847 166.093 40.1847V38.1847ZM151.295 32.4924C148.562 29.707 146.373 25.3648 146.373 19.6407H144.373C144.373 25.9007 146.776 30.7425 149.867 33.8931L151.295 32.4924ZM146.373 19.6407C146.373 13.9742 148.561 9.63161 151.295 6.84506L149.867 5.44438C146.777 8.59385 144.373 13.4352 144.373 19.6407H146.373ZM151.294 6.84566C154.3 3.78694 159.252 1.15272 166.093 1.15272V-0.847276C158.71 -0.847276 153.246 2.00651 149.868 5.44379L151.294 6.84566ZM166.093 1.15272C172.934 1.15272 177.886 3.78694 180.892 6.84566L182.318 5.44379C178.94 2.00651 173.476 -0.847276 166.093 -0.847276V1.15272ZM180.891 6.84506C183.625 9.63161 185.813 13.9742 185.813 19.6407H187.813C187.813 13.4352 185.409 8.59385 182.319 5.44438L180.891 6.84506ZM166.093 11.1927C163.395 11.1927 161.568 12.2688 160.493 13.4114L161.949 14.7821C162.666 14.0206 163.974 13.1927 166.093 13.1927V11.1927ZM160.499 13.4042C158.953 15.0151 158.093 17.4589 158.093 19.6967H160.093C160.093 17.9026 160.801 15.9784 161.942 14.7893L160.499 13.4042ZM158.093 19.6967C158.093 22.0489 158.955 24.3892 160.514 25.9478L161.928 24.5336C160.799 23.4043 160.093 21.6005 160.093 19.6967H158.093ZM160.514 25.9478C161.825 27.2588 163.76 28.1447 166.093 28.1447V26.1447C164.281 26.1447 162.857 25.4626 161.928 24.5336L160.514 25.9478ZM166.093 28.1447C168.425 28.1447 170.361 27.2588 171.672 25.9478L170.258 24.5336C169.329 25.4626 167.904 26.1447 166.093 26.1447V28.1447ZM171.672 25.9478C173.101 24.5186 174.093 22.2999 174.093 19.6967H172.093C172.093 21.7976 171.292 23.4989 170.258 24.5336L171.672 25.9478ZM174.093 19.6967C174.093 17.126 173.233 14.8856 171.657 13.3747L170.273 14.8187C171.384 15.8838 172.093 17.5635 172.093 19.6967H174.093ZM171.672 13.3896C170.491 12.2089 168.618 11.1927 166.093 11.1927V13.1927C168.047 13.1927 169.422 13.9686 170.258 14.8038L171.672 13.3896ZM205.598 38.3447V39.3447C206.15 39.3447 206.598 38.897 206.598 38.3447H205.598ZM192.662 38.3447H191.662C191.662 38.897 192.11 39.3447 192.662 39.3447V38.3447ZM192.662 0.992723V-0.00727654C192.11 -0.00727654 191.662 0.440439 191.662 0.992723H192.662ZM205.598 0.992723L206.45 0.468815C206.268 0.17296 205.945 -0.00727654 205.598 -0.00727654V0.992723ZM214.278 15.1047L213.426 15.6286L213.43 15.6347L214.278 15.1047ZM217.806 21.7127L216.885 22.1024C217.042 22.4723 217.404 22.7127 217.806 22.7127V21.7127ZM218.198 21.7127V22.7127C218.504 22.7127 218.793 22.5727 218.983 22.3326C219.173 22.0925 219.242 21.7787 219.171 21.4811L218.198 21.7127ZM217.022 0.992723V-0.00727654C216.47 -0.00727654 216.022 0.440439 216.022 0.992723H217.022ZM230.014 0.992723H231.014C231.014 0.440439 230.566 -0.00727654 230.014 -0.00727654V0.992723ZM230.014 38.3447V39.3447C230.566 39.3447 231.014 38.897 231.014 38.3447H230.014ZM217.022 38.3447L216.177 38.8785C216.36 39.1687 216.679 39.3447 217.022 39.3447V38.3447ZM207.726 23.6167L206.878 24.1467L206.881 24.1505L207.726 23.6167ZM205.15 18.7447L206.057 18.3236C205.893 17.9706 205.539 17.7447 205.15 17.7447V18.7447ZM204.758 18.7447V17.7447C204.46 17.7447 204.176 17.8782 203.987 18.1087C203.797 18.3391 203.72 18.6424 203.777 18.9356L204.758 18.7447ZM205.598 37.3447H192.662V39.3447H205.598V37.3447ZM193.662 38.3447V0.992723H191.662V38.3447H193.662ZM192.662 1.99272H205.598V-0.00727654H192.662V1.99272ZM204.746 1.51663L213.426 15.6286L215.13 14.5808L206.45 0.468815L204.746 1.51663ZM213.43 15.6347C214.82 17.8589 215.684 19.2627 216.885 22.1024L218.727 21.3231C217.465 18.3388 216.536 16.8306 215.126 14.5747L213.43 15.6347ZM217.806 22.7127H218.198V20.7127H217.806V22.7127ZM219.171 21.4811C218.621 19.1698 218.022 15.5014 218.022 12.8647H216.022C216.022 15.7161 216.656 19.5516 217.225 21.9443L219.171 21.4811ZM218.022 12.8647V0.992723H216.022V12.8647H218.022ZM217.022 1.99272H230.014V-0.00727654H217.022V1.99272ZM229.014 0.992723V38.3447H231.014V0.992723H229.014ZM230.014 37.3447H217.022V39.3447H230.014V37.3447ZM217.868 37.811L208.572 23.083L206.881 24.1505L216.177 38.8785L217.868 37.811ZM208.574 23.0867C207.765 21.7914 206.776 19.8723 206.057 18.3236L204.243 19.1658C204.98 20.7532 206.008 22.754 206.878 24.1467L208.574 23.0867ZM205.15 17.7447H204.758V19.7447H205.15V17.7447ZM203.777 18.9356C204.166 20.9361 204.598 24.0517 204.598 25.6327H206.598C206.598 23.8538 206.135 20.5853 205.74 18.5539L203.777 18.9356ZM204.598 25.6327V38.3447H206.598V25.6327H204.598Z" fill="#333333" mask="url(#path-1-inside-1_0_4092)"/>
</svg>
