<svg width="97" height="61" viewBox="0 0 97 61" fill="none" xmlns="http://www.w3.org/2000/svg">
<g clip-path="url(#clip0_7_19163)">
<path d="M90.6348 1.51173C93.2406 1.51173 95.3607 3.63167 95.3607 6.23762V54.7453C95.3607 57.351 93.2408 59.4712 90.6348 59.4712H5.66975C3.06398 59.4712 0.943857 57.3512 0.943857 54.7453V6.23762C0.943857 3.63185 3.06379 1.51173 5.66975 1.51173H90.6348ZM90.6348 0.571289H5.66975C2.54035 0.571289 0.00341797 3.10822 0.00341797 6.23762V54.7453C0.00341797 57.875 2.54035 60.4116 5.66975 60.4116H90.6348C93.7646 60.4116 96.3012 57.875 96.3012 54.7453V6.23762C96.3012 3.10822 93.7644 0.571289 90.6348 0.571289Z" fill="#E20613"/>
<path d="M73.3211 33.803C73.4941 38.9782 73.6662 44.3261 73.4076 49.5877C73.2349 51.6582 71.9409 53.6423 70.0438 54.8498C68.5773 55.7989 66.7657 55.8851 64.8677 55.9708L58.0102 55.8851L57.9673 11.9799C58.3122 9.04726 60.469 6.5457 63.2292 5.76927C66.5936 5.33817 69.6987 5.51065 73.2346 5.42432L73.4072 7.66726V32.5957L73.3207 32.6818L73.3211 33.803Z" fill="#009540"/>
<path d="M23.6374 32.1639V11.4622C24.0683 9.1329 25.9663 6.97685 28.2089 6.1139C31.5728 5.07904 35.4544 5.68281 38.9047 5.59647C39.0771 8.96024 38.9047 13.1871 38.9912 16.1198L39.1637 43.1185C38.732 47.259 40.2847 52.8656 35.1094 55.1945C31.8316 56.834 27.4323 55.7986 23.7232 56.1436L23.6372 55.5398V33.0263L23.6374 32.1639Z" fill="#0069B3"/>
<path d="M23.6372 33.0262C25.017 34.8381 26.9148 36.2183 29.2437 36.305C32.0901 36.5632 35.7993 36.8222 37.697 34.148C38.991 32.768 38.2146 30.8704 38.4736 29.0587L38.3869 25.7809C36.7479 25.4362 35.2817 25.7809 33.3843 25.6946C32.4356 29.2312 34.9368 33.1987 30.8825 35.0108C29.9336 35.269 28.5536 35.0963 27.6049 34.4931C26.0524 34.148 26.915 31.6462 24.8447 32.3363L23.6374 32.1639L23.6372 33.0262Z" fill="white"/>
<path d="M56.1562 8.44303L56.242 50.4504C55.6386 52.4349 54.0861 54.5906 51.9301 55.3675C48.6513 56.4893 44.5975 55.9709 40.9747 55.9709L40.8022 11.7214C40.9747 9.65131 42.3549 7.83983 44.1666 6.71827C45.4608 5.8557 47.0127 5.59707 48.6517 5.51074H55.9836L56.1562 8.44303Z" fill="#E20613"/>
<path d="M55.4661 25.781C55.6385 26.2986 55.4661 26.7295 55.552 27.3336C52.9651 26.6437 49.773 25.8669 47.4447 27.7649C46.5814 28.7999 46.0639 29.835 46.1505 31.2152C46.4089 32.768 47.358 34.234 48.8241 34.8381C51.0667 35.528 53.3962 34.9241 55.4659 34.4065C55.5518 34.8381 55.6384 35.4415 55.4659 35.7874H45.5465C43.8214 35.4415 42.4412 34.4932 41.6646 32.768C40.9745 31.129 41.3202 28.8861 42.5269 27.5061C43.562 26.2986 45.0287 25.6085 46.6673 25.6944L55.4661 25.781ZM73.3211 33.8031C73.0624 34.8381 72.1999 35.7874 71.1648 35.9601H59.0892L58.6577 35.7874C58.6577 32.3364 58.571 29.0589 58.7443 25.6946H66.4205C68.8357 25.9536 71.5098 24.9186 72.6308 27.1611C72.9757 27.9376 72.8898 28.9726 72.2858 29.5764C71.9409 30.1801 71.1648 30.2663 70.9925 30.6979C71.9409 30.9566 72.9757 31.733 73.3211 32.6817V33.8031ZM62.9704 26.7295C62.7114 27.6786 62.7114 28.9724 62.8844 30.0075C64.6957 29.9213 67.0248 30.6112 68.2325 29.2312C68.6642 28.7138 68.405 27.8512 68.1458 27.4198C66.7658 26.212 64.6953 26.9887 62.9704 26.7295ZM67.629 31.4736C65.9898 31.2152 64.3504 31.3013 62.7977 31.388C62.7112 32.6815 62.7977 33.7166 62.9702 34.9241C64.6953 34.9241 66.5937 35.1829 68.1456 34.4065C68.5775 33.9754 68.8359 33.2857 68.664 32.6815C68.5775 32.1639 68.1456 31.7328 67.629 31.4736Z" fill="white"/>
</g>
<defs>
<clipPath id="clip0_7_19163">
<rect width="97" height="60" fill="white" transform="translate(0 0.439941)"/>
</clipPath>
</defs>
</svg>
