<svg width="97" height="61" viewBox="0 0 97 61" fill="none" xmlns="http://www.w3.org/2000/svg">
<g clip-path="url(#clip0_7_19150)">
<path d="M90.7942 1.41773C93.4 1.41773 95.5201 3.53767 95.5201 6.14363V54.6515C95.5201 57.2572 93.4002 59.3774 90.7942 59.3774H5.82893C3.22316 59.3774 1.10304 57.2574 1.10304 54.6515V6.14363C1.10304 3.53786 3.22297 1.41773 5.82893 1.41773H90.7942ZM90.7942 0.477295H5.82893C2.69953 0.477295 0.162598 3.01422 0.162598 6.14363V54.6515C0.162598 57.7811 2.69953 60.3178 5.82893 60.3178H90.7942C93.9238 60.3178 96.4605 57.7811 96.4605 54.6515V6.14363C96.4605 3.01422 93.9236 0.477295 90.7942 0.477295Z" fill="#E30613"/>
<path fill-rule="evenodd" clip-rule="evenodd" d="M48.4458 48.8112C52.7052 52.736 58.4259 55.1163 64.6477 55.1163C78.0089 55.1163 88.8241 44.2183 88.8241 30.814C88.8241 17.3691 78.0089 6.47095 64.6477 6.47095C58.4259 6.47095 52.7054 8.85082 48.4458 12.776C43.5608 17.2435 40.4707 23.6744 40.4707 30.814C40.4707 37.9544 43.561 44.3855 48.4458 48.8112Z" fill="#FAB31E"/>
<path fill-rule="evenodd" clip-rule="evenodd" d="M56.255 28.2257C56.1715 27.3488 56.0047 26.5137 55.8369 25.6368H41.0558C41.2228 24.76 41.4728 23.9247 41.7233 23.0896H55.1276C54.8346 22.2133 54.5007 21.336 54.1247 20.5009H42.7676C43.1852 19.6246 43.6443 18.7474 44.1455 17.9123H52.7054C52.1624 17.0354 51.5364 16.1583 50.868 15.3652H45.9824C46.734 14.4467 47.5695 13.5699 48.4458 12.7765C44.1455 8.89307 38.4664 6.47144 32.2033 6.47144C18.8835 6.47144 8.02686 17.3696 8.02686 30.8145C8.02686 44.2188 18.8835 55.1168 32.2033 55.1168C38.4666 55.1168 44.1455 52.7365 48.4458 48.8117C49.3232 48.0178 50.1164 47.1828 50.868 46.2642H45.9824C45.3143 45.4293 44.7297 44.5942 44.1454 43.6756H52.7052C53.2479 42.8406 53.7072 42.0055 54.1245 41.0867H42.7674C42.3911 40.2518 42.0158 39.4165 41.7232 38.5393H55.1274C55.4195 37.7044 55.6279 36.8277 55.8367 35.9506C56.0045 35.1157 56.1711 34.2383 56.2548 33.3618C56.3381 32.5267 56.3801 31.6917 56.3801 30.8143C56.3803 29.9378 56.3383 29.0608 56.255 28.2257Z" fill="#E40520"/>
<path fill-rule="evenodd" clip-rule="evenodd" d="M85.6089 36.4515C85.6089 35.9927 85.9426 35.6587 86.3605 35.6587C86.8194 35.6587 87.1536 35.9925 87.1536 36.4515C87.1536 36.869 86.8196 37.2454 86.3605 37.2454C85.9427 37.2454 85.6089 36.869 85.6089 36.4515ZM86.3605 37.0359C86.6943 37.0359 86.9866 36.7855 86.9866 36.4515C86.9866 36.1172 86.6943 35.8667 86.3605 35.8667C86.0682 35.8667 85.7759 36.1172 85.7759 36.4515C85.7759 36.7855 86.0684 37.0359 86.3605 37.0359ZM86.277 36.7855H86.1099V36.1171H86.4022H86.5693C86.6528 36.1596 86.6528 36.2431 86.6528 36.3264C86.6528 36.368 86.6112 36.4513 86.5275 36.4936L86.6945 36.7855H86.4859L86.4024 36.535H86.2772L86.277 36.7855L86.2772 36.4101H86.3607C86.4024 36.4101 86.4446 36.4101 86.4446 36.368C86.4859 36.368 86.4859 36.3264 86.4859 36.2846C86.4859 36.2846 86.4859 36.2431 86.4446 36.2431C86.4446 36.2006 86.4022 36.2431 86.3607 36.2431H86.2772V36.4101L86.277 36.7855Z" fill="white"/>
<path fill-rule="evenodd" clip-rule="evenodd" d="M40.2202 37.8296C39.4272 38.038 38.8426 38.1634 38.2581 38.1634C37.005 38.1634 36.2534 37.3697 36.2534 35.9502C36.2534 35.6585 36.2952 35.3656 36.3369 35.0316L36.504 34.0708L36.6294 33.278L37.7568 26.4299H40.2623L39.9695 27.9331H41.5566L41.1808 30.4386H39.5942L38.9261 34.5305C38.8838 34.7398 38.8838 34.8644 38.8838 34.9481C38.8838 35.4916 39.1344 35.6996 39.7613 35.6996C40.053 35.6996 40.3035 35.6585 40.554 35.6161L40.2202 37.8296ZM48.3211 37.7462C47.4027 37.9968 46.5678 38.1217 45.6484 38.1217C42.8092 38.1217 41.1809 36.6185 41.1809 33.6534C41.1809 30.1883 43.1017 27.6828 45.7737 27.6828C47.9038 27.6828 49.2813 29.1028 49.2813 31.3153C49.2813 32.0667 49.198 32.7771 48.9892 33.7791H43.7696C43.7275 33.9463 43.7275 34.0298 43.7275 34.1131C43.7275 35.2823 44.521 35.8665 46.0242 35.8665C46.9848 35.8665 47.8199 35.6586 48.7385 35.2409L48.3211 37.7462ZM46.7758 31.775V31.2739C46.7758 30.439 46.3172 29.9793 45.5233 29.9793C44.6884 29.9793 44.1035 30.606 43.8533 31.775H46.7758Z" fill="#06326E"/>
<path fill-rule="evenodd" clip-rule="evenodd" d="M20.1783 37.9542H17.5893L19.0923 28.4762L15.7103 37.9542H13.9143L13.7053 28.5182L12.1193 37.9542H9.57227L11.6183 25.6372H15.4183L15.5013 33.2362L18.0483 25.6372H22.2233L20.1783 37.9542Z" fill="#06326E"/>
<path fill-rule="evenodd" clip-rule="evenodd" d="M26.4833 33.4862C26.2326 33.445 26.1493 33.445 25.9822 33.445C24.4787 33.445 23.7272 34.0296 23.7272 34.9481C23.7272 35.575 24.103 35.9925 24.6876 35.9925C25.9403 35.9927 26.4415 34.9482 26.4833 33.4862ZM28.5709 37.9545H26.3163L26.358 36.9109C25.7733 37.7039 24.9799 38.1217 23.6022 38.1217C22.3493 38.1217 21.2637 36.9948 21.2637 35.3658C21.2637 34.9072 21.3476 34.4897 21.4723 34.071C21.8898 32.5264 23.435 31.5661 25.8152 31.5247C26.1071 31.5247 26.5664 31.5247 26.9842 31.5661C27.0677 31.232 27.0677 31.1071 27.0677 30.8978C27.0677 30.2297 26.5249 30.0217 25.3138 30.0217C24.5622 30.0217 23.7271 30.1462 23.1425 30.3555L22.7671 30.4388L22.6 30.4802L22.9756 28.2256C24.1866 27.8504 25.0636 27.6828 26.024 27.6828C28.2786 27.6828 29.4895 28.7267 29.4895 30.6472C29.4895 31.1483 29.5313 31.5247 29.3642 32.6101L28.7797 36.2009L28.6961 36.8276L28.6544 37.3289L28.6126 37.6627L28.5709 37.9545ZM60.9314 28.0172C61.6828 28.0172 62.3511 28.2256 63.2693 28.6853L63.729 26.0126C63.4787 25.8873 63.395 25.8873 63.0607 25.7622L62.0166 25.4697C61.6828 25.3862 61.2654 25.3445 60.8057 25.3445C59.5115 25.3445 58.7601 25.3862 57.9667 25.8457C57.5492 26.138 57.0064 26.5136 56.4218 27.1819L56.0877 27.0984L53.4152 28.9772L53.5405 27.9335H50.7848L49.1565 37.9546H51.7869L52.7471 32.568C52.7471 32.568 53.1229 31.8164 53.2899 31.5661C53.7908 30.9401 54.2084 30.9401 54.7516 30.9401H54.9605C54.8765 31.5247 54.8347 32.1504 54.8347 32.8608C54.8347 36.1172 56.6723 38.1636 59.5115 38.1636C60.2213 38.1636 60.8477 38.0803 61.8081 37.8298L62.2672 34.9906C61.4321 35.4493 60.6803 35.6588 60.0541 35.6588C58.5094 35.6588 57.5909 34.4897 57.5909 32.6515C57.5913 29.9378 58.9691 28.0172 60.9314 28.0172ZM83.1037 25.6368L82.5193 29.144C81.8928 28.1842 81.1416 27.7244 80.1395 27.7244C78.761 27.7244 77.4667 28.5181 76.6734 30.0215V29.9792L75.0032 28.9768L75.1702 27.9331H72.3728L70.7861 37.9543H73.3751L74.2516 32.5676C74.2516 32.5676 74.9197 31.816 75.0867 31.5657C75.5042 31.0648 75.9218 30.9809 76.2558 30.9397C75.9635 31.7746 75.7967 32.7771 75.7967 33.9038C75.7967 36.4099 77.0911 38.0799 79.0121 38.0799C79.9725 38.0799 80.7241 37.7461 81.4337 36.9521L81.3086 37.9543H83.772L85.7761 25.6366L83.1037 25.6368ZM79.8889 35.5751C79.0119 35.5751 78.5526 34.9071 78.5526 33.6121C78.5526 31.6492 79.3871 30.2297 80.5984 30.2297C81.5174 30.2297 81.9765 30.9399 81.9765 32.1928C81.9765 34.1968 81.1414 35.5751 79.8889 35.5751ZM67.8212 33.4862C67.5705 33.445 67.487 33.445 67.3202 33.445C65.817 33.445 65.0654 34.0296 65.0654 34.9481C65.0654 35.575 65.4414 35.9925 66.0257 35.9925C67.2782 35.9927 67.7795 34.9482 67.8212 33.4862ZM69.9088 37.9545H67.6123L67.696 36.9109C67.1114 37.7039 66.318 38.1217 64.9403 38.1217C63.6459 38.1217 62.5181 37.036 62.5181 35.3658C62.5181 32.9855 64.314 31.5247 67.1531 31.5247C67.4454 31.5247 67.9047 31.5247 68.2805 31.5661C68.3639 31.232 68.4058 31.1071 68.4058 30.8978C68.4058 30.2297 67.8632 30.0217 66.6103 30.0217C65.9007 30.0217 65.0236 30.1462 64.4394 30.3555L64.1054 30.4388L63.938 30.4802L64.314 28.2256C65.5249 27.8504 66.4015 27.6828 67.3619 27.6828C69.6165 27.6828 70.7861 28.7267 70.7861 30.6472C70.7861 31.1483 70.869 31.5247 70.6604 32.6101L70.1174 36.2009L70.0341 36.8276L69.9506 37.3289L69.9088 37.6627V37.9545ZM34.0408 30.0627C34.5419 30.0627 35.2518 30.105 36.0034 30.2297L36.3792 27.8916C35.6276 27.8082 34.6252 27.6828 34.0408 27.6828C31.118 27.6828 30.1574 29.2699 30.1574 31.1069C30.1574 32.3176 30.7006 33.1947 32.1201 33.8628C33.1638 34.3637 33.331 34.4472 33.331 34.9071C33.331 35.533 32.7882 35.9092 31.7861 35.9092C30.9927 35.9092 30.2413 35.7834 29.406 35.4916L29.1137 37.7874L29.1555 37.8296L29.6565 37.9131C29.8234 37.9545 30.0327 37.9966 30.3248 38.038C30.9511 38.0801 31.494 38.1215 31.8278 38.1215C34.7509 38.1215 35.9618 36.9946 35.9618 34.781C35.9618 33.4025 35.2935 32.5676 33.9991 31.983C32.8717 31.4822 32.7464 31.3987 32.7464 30.9397C32.7464 30.4802 33.2475 30.0627 34.0408 30.0627Z" fill="#06326E"/>
<path fill-rule="evenodd" clip-rule="evenodd" d="M64.4393 25.2194L63.9798 27.8916C63.0608 27.4324 62.3927 27.2235 61.6411 27.2235C59.6788 27.2235 58.3007 29.1442 58.3007 31.8587C58.3007 33.7371 59.2195 34.8647 60.7642 34.8647C61.3906 34.8647 62.1422 34.6567 62.9773 34.238L62.5182 37.036C61.5578 37.2866 60.9315 37.4122 60.2218 37.4122C57.3824 37.4122 55.6285 35.3658 55.6285 32.0669C55.6285 27.6828 58.0505 24.5933 61.516 24.5933C61.9752 24.5933 62.3929 24.635 62.7273 24.7185L63.771 24.9691C64.1051 25.0941 64.1882 25.1359 64.4393 25.2194ZM56.0047 27.0565H55.754C54.8765 27.0565 54.3758 27.474 53.5823 28.6853L53.8326 27.14H51.4531L49.8247 37.1617H52.4549C53.4153 31.0234 53.6658 29.9792 54.9185 29.9792H55.0855C55.336 28.7686 55.6701 27.8914 56.088 27.098L56.0047 27.0565ZM40.8884 37.0358C40.1792 37.2864 39.5948 37.3697 39.01 37.3697C37.6736 37.3697 36.9219 36.6183 36.9219 35.1574C36.9219 34.9069 36.9636 34.5719 37.0054 34.2802L37.1726 33.278L37.2977 32.4841L38.4256 25.6366H41.0143L40.7214 27.1398H42.0576L41.7237 29.6037H40.3876L39.6783 33.7789C39.6362 33.9461 39.6362 34.0708 39.6362 34.1966C39.6362 34.6977 39.8867 34.9069 40.5134 34.9069C40.8051 34.9069 41.0562 34.9069 41.2232 34.8234L40.8884 37.0358ZM30.8258 30.3132C30.8258 31.5659 31.4101 32.4429 32.7881 33.1112C33.8739 33.6121 34.0409 33.7791 34.0409 34.1966C34.0409 34.8234 33.5818 35.1153 32.5377 35.1153C31.7444 35.1153 31.0345 34.9904 30.1994 34.74L29.8232 37.0358L29.9487 37.0782L30.4082 37.1617C30.575 37.2029 30.784 37.2452 31.118 37.2452C31.7026 37.3285 32.2035 37.3285 32.5377 37.3285C35.2936 37.3285 36.588 36.2844 36.588 33.9881C36.588 32.6098 36.0452 31.816 34.7508 31.1903C33.6234 30.6894 33.4979 30.5634 33.4979 30.1048C33.4979 29.5616 33.9574 29.3109 34.7925 29.3109C35.2934 29.3109 36.0034 29.3532 36.6713 29.4367L37.0471 27.1398C36.379 27.0145 35.3353 26.9308 34.7508 26.9308C31.8277 26.931 30.784 28.476 30.8258 30.3132ZM84.4398 37.1617H81.9764L82.1015 36.2007C81.3918 36.9523 80.64 37.2864 79.6799 37.2864C77.7585 37.2864 76.5061 35.6587 76.5061 33.1524C76.5061 29.8123 78.4688 26.9729 80.7655 26.9729C81.8094 26.9729 82.561 27.4323 83.2706 28.3513L83.8552 24.843H86.4444L84.4398 37.1617ZM80.5983 34.8235C81.8092 34.8235 82.6445 33.4027 82.6445 31.4414C82.6445 30.1462 82.185 29.4783 81.2668 29.4783C80.0974 29.4783 79.2202 30.8564 79.2202 32.8185C79.2202 34.1553 79.6799 34.8235 80.5983 34.8235ZM48.9059 36.9523C47.9874 37.2454 47.1525 37.3699 46.1914 37.3699C43.2689 37.3699 41.7657 35.8255 41.7657 32.8607C41.7657 29.4369 43.6862 26.8892 46.3174 26.8892C48.4883 26.8892 49.8663 28.3089 49.8663 30.5222C49.8663 31.2738 49.7826 31.9832 49.5322 33.0277H44.3543C44.3126 33.1522 44.3126 33.2357 44.3126 33.3192C44.3126 34.4895 45.1059 35.0739 46.6091 35.0739C47.5697 35.0739 48.4048 34.9069 49.3236 34.4472L48.9059 36.9523ZM47.4441 30.9811V30.4802C47.4441 29.6451 46.9853 29.186 46.1914 29.186C45.3565 29.186 44.7719 29.8125 44.5214 30.9811H47.4441Z" fill="white"/>
<path fill-rule="evenodd" clip-rule="evenodd" d="M20.8462 37.162H18.2572L19.7602 27.683L16.3782 37.162H14.5822L14.3742 27.766L12.7872 37.162H10.3652L12.4112 24.843H16.1692L16.2942 32.484L18.7992 24.843H22.8922L20.8462 37.162Z" fill="white"/>
<path fill-rule="evenodd" clip-rule="evenodd" d="M27.3181 32.6935C27.0676 32.6935 26.9423 32.651 26.7338 32.651C25.2721 32.651 24.5205 33.1944 24.5205 34.1965C24.5205 34.8232 24.8546 35.1986 25.4391 35.1986C26.525 35.1988 27.2766 34.1967 27.3181 32.6935ZM29.2389 37.1615H27.0676L27.1094 36.1169C26.4413 36.952 25.5642 37.3283 24.3535 37.3283C22.934 37.3283 21.9736 36.2429 21.9736 34.6137C21.9736 32.1497 23.6437 30.7304 26.5664 30.7304C26.8586 30.7304 27.2348 30.7725 27.6522 30.8137C27.7357 30.4799 27.7357 30.3552 27.7357 30.188C27.7357 29.5201 27.2766 29.2695 26.0655 29.2695C25.3139 29.2695 24.4788 29.353 23.8944 29.5201L23.5186 29.6448L23.2681 29.6869L23.6439 27.4321C24.9381 27.0561 25.8153 26.9307 26.7755 26.9307C29.0301 26.9307 30.2412 27.933 30.2412 29.8539C30.2412 30.355 30.1995 30.7302 30.0326 31.858L29.4477 35.4076L29.3642 36.0334L29.3224 36.5344L29.2808 36.9104L29.2389 37.1615ZM68.6563 32.6935C68.3638 32.6935 68.2387 32.651 68.0717 32.651C66.5687 32.651 65.8171 33.1944 65.8171 34.1965C65.8171 34.8232 66.1929 35.1986 66.7775 35.1986C67.8212 35.1988 68.6145 34.1967 68.6563 32.6935ZM70.5766 37.1615H68.4055L68.4473 36.1169C67.7794 36.952 66.9025 37.3283 65.6918 37.3283C64.2721 37.3283 63.3119 36.2429 63.3119 34.6137C63.3119 32.1497 64.982 30.7304 67.9047 30.7304C68.197 30.7304 68.5728 30.7725 68.9487 30.8137C69.0321 30.4799 69.0738 30.3552 69.0738 30.188C69.0738 29.5201 68.6147 29.2695 67.4036 29.2695C66.6522 29.2695 65.7755 29.353 65.1906 29.5201L64.8567 29.6448L64.6062 29.6869L64.982 27.4321C66.2764 27.0561 67.1531 26.9307 68.1133 26.9307C70.368 26.9307 71.5376 27.933 71.5376 29.8539C71.5376 30.355 71.5376 30.7302 71.3282 31.858L70.786 35.4076L70.7021 36.0334L70.6188 36.5344L70.5768 36.9104L70.5766 37.1615ZM77.5918 27.0563H77.3412C76.4644 27.0563 75.9635 27.4739 75.1699 28.6851L75.4203 27.1398H73.0408L71.4537 37.1615H74.0427C75.0031 31.0233 75.2536 29.979 76.5063 29.979H76.6735C76.9238 28.7685 77.2579 27.8912 77.6754 27.0979L77.5918 27.0563Z" fill="white"/>
</g>
<defs>
<clipPath id="clip0_7_19150">
<rect width="97" height="60" fill="white" transform="translate(0 0.439941)"/>
</clipPath>
</defs>
</svg>
