<svg width="72" height="73" viewBox="0 0 72 73" fill="none" xmlns="http://www.w3.org/2000/svg">
<rect y="0.439941" width="72" height="72" rx="36" fill="#ECF491"/>
<g clip-path="url(#clip0_37_122)">
<path d="M50.8526 15.106C51.5602 15.106 52.1158 15.6735 52.1158 16.3963V28.0092L49.3115 30.5898H12.2336L9 28.0092V16.3963C9 15.6735 9.55559 15.106 10.2632 15.106H50.8526Z" fill="#FF5B5B"/>
<path d="M50.8528 15.106C51.5604 15.106 52.116 15.6735 52.116 16.3963V28.0092L49.3117 30.5898H30.5581V15.106H50.8528Z" fill="#FF3980"/>
<path d="M16.663 25.4294C15.2703 25.4294 14.1367 24.2714 14.1367 22.8487C14.1367 21.426 15.2703 20.2681 16.663 20.2681C18.0558 20.2681 19.1894 21.426 19.1894 22.8487C19.1894 24.2714 18.0558 25.4294 16.663 25.4294Z" fill="#384949"/>
<path d="M30.5581 20.2681C29.1686 20.2681 28.0317 21.4294 28.0317 22.8487C28.0317 24.2681 29.1686 25.4294 30.5581 25.4294C31.9475 25.4294 33.0844 24.2681 33.0844 22.8487C33.0844 21.4294 31.9475 20.2681 30.5581 20.2681Z" fill="#384949"/>
<path d="M44.4526 25.4294C43.0598 25.4294 41.9263 24.2714 41.9263 22.8487C41.9263 21.426 43.0598 20.2681 44.4526 20.2681C45.8453 20.2681 46.9789 21.426 46.9789 22.8487C46.9789 24.2714 45.8453 25.4294 44.4526 25.4294Z" fill="#293939"/>
<path d="M16.6631 22.8485C15.965 22.8485 15.3999 22.2713 15.3999 21.5582V13.7303C15.3999 13.0172 15.965 12.4399 16.6631 12.4399C17.3611 12.4399 17.9262 13.0172 17.9262 13.7303V21.5582C17.9262 22.2713 17.3611 22.8485 16.6631 22.8485Z" fill="#384949"/>
<path d="M30.5581 25.4294V20.2681C31.9476 20.2681 33.0844 21.4294 33.0844 22.8487C33.0844 24.2681 31.9476 25.4294 30.5581 25.4294Z" fill="#293939"/>
<path d="M9 28.0103V55.1931C9 55.9155 9.55559 56.4834 10.2632 56.4834H50.8526C51.5602 56.4834 52.1158 55.9155 52.1158 55.1931V28.0103H9Z" fill="white"/>
<path d="M44.4526 22.8485C43.7546 22.8485 43.1895 22.2713 43.1895 21.5582V13.7303C43.1895 13.0172 43.7546 12.4399 44.4526 12.4399C45.1506 12.4399 45.7158 13.0172 45.7158 13.7303V21.5582C45.7158 22.2713 45.1506 22.8485 44.4526 22.8485Z" fill="#293939"/>
<path d="M30.5581 12.4399C31.2656 12.4399 31.8212 13.0075 31.8212 13.7303V21.5582C31.8212 22.2807 31.2656 22.8485 30.5581 22.8485C29.8505 22.8485 29.2949 22.2807 29.2949 21.5582V13.7303C29.2949 13.0075 29.8505 12.4399 30.5581 12.4399Z" fill="#384949"/>
<path d="M30.5581 22.8485V12.4399C31.2657 12.4399 31.8213 13.0075 31.8213 13.7303V21.5582C31.8213 22.2807 31.2657 22.8485 30.5581 22.8485Z" fill="#293939"/>
<path d="M12.7896 39.7955C12.7896 39.7243 12.8461 39.6665 12.9159 39.6665H17.7159C17.7856 39.6665 17.8422 39.7243 17.8422 39.7955V44.6988C17.8422 44.77 17.7856 44.8278 17.7159 44.8278H12.9159C12.8461 44.8278 12.7896 44.77 12.7896 44.6988V39.7955Z" fill="#B7EDFF"/>
<path d="M12.7896 47.6647C12.7896 47.5934 12.8461 47.5356 12.9159 47.5356H17.7159C17.7856 47.5356 17.8422 47.5934 17.8422 47.6647V52.5679C17.8422 52.6392 17.7856 52.6969 17.7159 52.6969H12.9159C12.8461 52.6969 12.7896 52.6392 12.7896 52.5679V47.6647Z" fill="#B7EDFF"/>
<path d="M20.1157 31.9244C20.1157 31.8532 20.1723 31.7954 20.242 31.7954H25.042C25.1118 31.7954 25.1684 31.8532 25.1684 31.9244V36.8277C25.1684 36.8989 25.1118 36.9567 25.042 36.9567H20.242C20.1723 36.9567 20.1157 36.8989 20.1157 36.8277V31.9244Z" fill="#B7EDFF"/>
<path d="M20.1157 39.7955C20.1157 39.7243 20.1723 39.6665 20.242 39.6665H25.042C25.1118 39.6665 25.1684 39.7243 25.1684 39.7955V44.6988C25.1684 44.77 25.1118 44.8278 25.042 44.8278H20.242C20.1723 44.8278 20.1157 44.77 20.1157 44.6988V39.7955Z" fill="#B7EDFF"/>
<path d="M20.1157 47.6647C20.1157 47.5934 20.1723 47.5356 20.242 47.5356H25.042C25.1118 47.5356 25.1684 47.5934 25.1684 47.6647V52.5679C25.1684 52.6392 25.1118 52.6969 25.042 52.6969H20.242C20.1723 52.6969 20.1157 52.6392 20.1157 52.5679V47.6647Z" fill="#B7EDFF"/>
<path d="M27.4419 31.9244C27.4419 31.8532 27.4984 31.7954 27.5682 31.7954H32.3682C32.438 31.7954 32.4945 31.8532 32.4945 31.9244V36.8277C32.4945 36.8989 32.438 36.9567 32.3682 36.9567H27.5682C27.4984 36.9567 27.4419 36.8989 27.4419 36.8277V31.9244Z" fill="#B7EDFF"/>
<path d="M27.4419 39.7955C27.4419 39.7243 27.4984 39.6665 27.5682 39.6665H32.3682C32.438 39.6665 32.4945 39.7243 32.4945 39.7955V44.6988C32.4945 44.77 32.438 44.8278 32.3682 44.8278H27.5682C27.4984 44.8278 27.4419 44.77 27.4419 44.6988V39.7955Z" fill="#B7EDFF"/>
<path d="M27.4419 47.6647C27.4419 47.5934 27.4984 47.5356 27.5682 47.5356H32.3682C32.438 47.5356 32.4945 47.5934 32.4945 47.6647V52.5679C32.4945 52.6392 32.438 52.6969 32.3682 52.6969H27.5682C27.4984 52.6969 27.4419 52.6392 27.4419 52.5679V47.6647Z" fill="#B7EDFF"/>
<path d="M34.7686 31.9244C34.7686 31.8532 34.8251 31.7954 34.8949 31.7954H39.6949C39.7646 31.7954 39.8212 31.8532 39.8212 31.9244V36.8277C39.8212 36.8989 39.7646 36.9567 39.6949 36.9567H34.8949C34.8251 36.9567 34.7686 36.8989 34.7686 36.8277V31.9244Z" fill="#B7EDFF"/>
<path d="M34.7686 39.7955C34.7686 39.7243 34.8251 39.6665 34.8949 39.6665H39.6949C39.7646 39.6665 39.8212 39.7243 39.8212 39.7955V44.6988C39.8212 44.77 39.7646 44.8278 39.6949 44.8278H34.8949C34.8251 44.8278 34.7686 44.77 34.7686 44.6988V39.7955Z" fill="#B7EDFF"/>
<path d="M34.7686 47.6647C34.7686 47.5934 34.8251 47.5356 34.8949 47.5356H39.6949C39.7646 47.5356 39.8212 47.5934 39.8212 47.6647V52.5679C39.8212 52.6392 39.7646 52.6969 39.6949 52.6969H34.8949C34.8251 52.6969 34.7686 52.6392 34.7686 52.5679V47.6647Z" fill="#B7EDFF"/>
<path d="M42.0947 31.9244C42.0947 31.8532 42.1513 31.7954 42.221 31.7954H47.021C47.0908 31.7954 47.1474 31.8532 47.1474 31.9244V36.8277C47.1474 36.8989 47.0908 36.9567 47.021 36.9567H42.221C42.1513 36.9567 42.0947 36.8989 42.0947 36.8277V31.9244Z" fill="#B7EDFF"/>
<path d="M42.0947 39.7955C42.0947 39.7243 42.1513 39.6665 42.221 39.6665H47.021C47.0908 39.6665 47.1474 39.7243 47.1474 39.7955V44.6988C47.1474 44.77 47.0908 44.8278 47.021 44.8278H42.221C42.1513 44.8278 42.0947 44.77 42.0947 44.6988V39.7955Z" fill="#B7EDFF"/>
<path d="M42.0947 47.6647C42.0947 47.5934 42.1513 47.5356 42.221 47.5356H47.021C47.0908 47.5356 47.1474 47.5934 47.1474 47.6647V52.5679C47.1474 52.6392 47.0908 52.6969 47.021 52.6969H42.221C42.1513 52.6969 42.0947 52.6392 42.0947 52.5679V47.6647Z" fill="#B7EDFF"/>
<g clip-path="url(#clip1_37_122)">
<path fill-rule="evenodd" clip-rule="evenodd" d="M45.9467 33.4998C45.983 33.5369 46.0033 33.5871 46.0033 33.6395C46.0033 33.6919 45.983 33.7421 45.9467 33.7792L44.4969 35.2601C44.4778 35.2797 44.455 35.2952 44.43 35.3058C44.405 35.3164 44.3781 35.3219 44.351 35.3219C44.3239 35.3219 44.2971 35.3164 44.2721 35.3058C44.247 35.2952 44.2243 35.2797 44.2051 35.2601L43.4848 34.5245C43.4664 34.5062 43.4516 34.4844 43.4415 34.4603C43.4313 34.4362 43.426 34.4103 43.4258 34.3841C43.4256 34.3578 43.4305 34.3318 43.4402 34.3075C43.4499 34.2832 43.4643 34.2612 43.4824 34.2426C43.5006 34.2241 43.5222 34.2094 43.546 34.1995C43.5697 34.1895 43.5952 34.1845 43.6209 34.1848C43.6466 34.185 43.6719 34.1905 43.6955 34.2008C43.7191 34.2112 43.7405 34.2262 43.7583 34.2451L44.351 34.8505L45.6731 33.4998C45.691 33.4814 45.7124 33.4669 45.7358 33.4569C45.7593 33.447 45.7845 33.4419 45.8099 33.4419C45.8353 33.4419 45.8605 33.447 45.8839 33.4569C45.9074 33.4669 45.9287 33.4814 45.9467 33.4998Z" fill="white"/>
</g>
<g clip-path="url(#clip2_37_122)">
<path fill-rule="evenodd" clip-rule="evenodd" d="M23.8412 49.1775C23.8775 49.2146 23.8979 49.2648 23.8979 49.3172C23.8979 49.3696 23.8775 49.4199 23.8412 49.4569L22.3915 50.9379C22.3723 50.9574 22.3496 50.973 22.3245 50.9836C22.2995 50.9941 22.2727 50.9996 22.2456 50.9996C22.2185 50.9996 22.1916 50.9941 22.1666 50.9836C22.1416 50.973 22.1188 50.9574 22.0997 50.9379L21.3794 50.2022C21.3609 50.184 21.3462 50.1622 21.336 50.1381C21.3259 50.114 21.3205 50.088 21.3203 50.0618C21.3201 50.0356 21.325 50.0095 21.3347 49.9853C21.3444 49.961 21.3588 49.9389 21.377 49.9204C21.3951 49.9018 21.4167 49.8871 21.4405 49.8772C21.4643 49.8673 21.4897 49.8623 21.5154 49.8625C21.5411 49.8627 21.5665 49.8682 21.5901 49.8785C21.6137 49.8889 21.635 49.9039 21.6529 49.9228L22.2455 50.5282L23.5676 49.1775C23.5856 49.1592 23.6069 49.1446 23.6304 49.1347C23.6538 49.1247 23.679 49.1196 23.7044 49.1196C23.7298 49.1196 23.755 49.1247 23.7785 49.1347C23.8019 49.1446 23.8233 49.1592 23.8412 49.1775Z" fill="white"/>
</g>
<g clip-path="url(#clip3_37_122)">
<path d="M45.7383 36.9556C39.6291 36.9556 34.5791 42.0253 34.5791 48.2661C34.5791 54.5068 39.6291 59.6652 45.7383 59.6652C51.8476 59.6652 56.8107 54.5068 56.8107 48.2661C56.8107 42.0253 51.8476 36.9556 45.7383 36.9556Z" fill="#FEDB41"/>
<path d="M56.8106 48.2661C56.8106 54.5068 51.8475 59.6652 45.7383 59.6652V36.9556C51.8475 36.9556 56.8106 42.0253 56.8106 48.2661Z" fill="#FFCC33"/>
<path d="M45.7385 39.6177C41.075 39.6177 37.1846 43.5031 37.1846 48.2669C37.1846 53.0306 41.075 57.0048 45.7385 57.0048C50.402 57.0048 54.2056 53.0306 54.2056 48.2669C54.2056 43.5031 50.402 39.6177 45.7385 39.6177Z" fill="#FEA832"/>
<path d="M54.2054 48.2669C54.2054 53.0306 50.4018 57.0048 45.7383 57.0048V39.6177C50.4018 39.6177 54.2054 43.5031 54.2054 48.2669Z" fill="#FE9923"/>
<path d="M48.9951 51.0162C48.9951 51.3889 48.7086 51.6816 48.3438 51.6816H46.3898V53.6775C46.3898 54.0501 46.1033 54.3428 45.7385 54.3428C45.3737 54.3428 45.0872 54.0501 45.0872 53.6775V51.6816H43.0464C42.6816 51.6816 42.3951 51.3889 42.3951 51.0162C42.3951 50.6436 42.6816 50.3509 43.0464 50.3509H45.0872V48.9316H43.0464C42.6816 48.9316 42.3951 48.6389 42.3951 48.2662C42.3951 47.8936 42.6816 47.6009 43.0464 47.6009H44.4403L42.4994 44.6469C42.3038 44.3408 42.382 43.9283 42.6816 43.7155C42.9812 43.5158 43.3851 43.5957 43.5934 43.9017L45.7385 47.0687L47.7968 43.9017C48.005 43.5957 48.4089 43.5159 48.7086 43.7155C49.0081 43.9283 49.0864 44.3408 48.8908 44.6469L46.9499 47.6009H48.3438C48.7086 47.6009 48.9951 47.8936 48.9951 48.2662C48.9951 48.6389 48.7086 48.9316 48.3438 48.9316H46.3898V50.3509H48.3438C48.7086 50.3509 48.9951 50.6436 48.9951 51.0162Z" fill="#FEDB41"/>
<path d="M48.9949 51.0163C48.9949 51.3889 48.7083 51.6816 48.3435 51.6816H46.3896V53.6775C46.3896 54.0502 46.1031 54.3429 45.7383 54.3429V47.0686L47.7965 43.9017C48.0048 43.5957 48.4087 43.5158 48.7083 43.7154C49.0079 43.9283 49.0861 44.3408 48.8906 44.6469L46.9496 47.6009H48.3435C48.7083 47.6009 48.9949 47.8936 48.9949 48.2663C48.9949 48.6389 48.7083 48.9316 48.3435 48.9316H46.3896V50.3509H48.3435C48.7083 50.3509 48.9949 50.6436 48.9949 51.0163Z" fill="#FFCC33"/>
</g>
</g>
<defs>
<clipPath id="clip0_37_122">
<rect width="48" height="48" fill="white" transform="translate(9 12.4399)"/>
</clipPath>
<clipPath id="clip1_37_122">
<rect width="3.09474" height="3.16129" fill="white" transform="translate(43.1685 32.8267)"/>
</clipPath>
<clipPath id="clip2_37_122">
<rect width="3.09474" height="3.16129" fill="white" transform="translate(21.063 48.5044)"/>
</clipPath>
<clipPath id="clip3_37_122">
<rect width="22.2316" height="22.7097" fill="white" transform="translate(34.5791 36.9556)"/>
</clipPath>
</defs>
</svg>
