<svg width="95" height="107" viewBox="0 0 95 107" fill="none" xmlns="http://www.w3.org/2000/svg">
<g filter="url(#filter0_d_0_116)">
<circle cx="47.9751" cy="58" r="45" fill="#6FBADA"/>
</g>
<g clip-path="url(#clip0_0_116)">
<path d="M74.4462 68.4886C73.538 66.391 71.889 64.8078 69.6772 63.9104C67.8874 63.1842 65.8441 62.9658 63.8606 63.2771L63.0683 61.5835V59.2184C63.4936 59.3748 63.9459 59.4575 64.4072 59.4575H67.0994C68.0524 59.4575 68.8278 58.6827 68.8278 57.73V53.3887C68.8278 52.4362 68.0524 51.6613 67.0994 51.6613H64.4072C63.9459 51.6613 63.4936 51.7439 63.0683 51.9002V49.2693C63.0683 48.8474 62.9743 48.4607 62.7891 48.1193C62.4715 47.4221 61.8472 46.925 61.117 46.76L59.946 44.0937C60.3402 43.7885 60.5953 43.3128 60.5953 42.7776V41.469C60.5953 40.6473 59.9795 39.9825 59.0651 39.8149L55.2244 39.1C55.2237 39.0999 55.223 39.0998 55.2222 39.0996C54.8012 39.0224 54.3802 39.1374 54.0372 39.4234C53.6482 39.7476 53.4161 40.246 53.4161 40.7569V42.7777C53.4161 43.6968 54.1643 44.4445 55.0839 44.4445H58.4233L59.4122 46.6962L55.5374 46.6829C55.5331 46.6828 55.529 46.6828 55.5247 46.6828C54.0887 46.6828 53.304 47.7407 53.2711 48.789C53.237 49.877 53.979 51.0239 55.4634 51.1108L58.538 51.2906V53.7568C57.9281 53.3242 57.1478 52.9706 56.2159 52.7154C52.4331 51.6793 47.1313 52.4034 45.1487 55.0368H39.1472C38.7233 55.0368 38.3796 55.3804 38.3796 55.8043C38.3796 56.2282 38.7233 56.5718 39.1472 56.5718H44.7855V60.5627H35.9761H32.3345H26.2374C25.2183 60.5627 24.61 60.0662 24.61 59.2346V56.0204C24.61 55.6291 24.7072 55.3391 24.8989 55.1586C25.1235 54.9471 25.5165 54.8426 25.9777 54.8696C25.9942 54.8706 26.0112 54.8714 26.0271 54.871L27.4054 54.8652C27.7018 54.8667 27.9665 55.1056 28.3742 55.4953C28.8539 55.9541 29.4508 56.5249 30.3506 56.5708C30.3636 56.5715 30.3767 56.5718 30.3898 56.5718H35.8031C36.227 56.5718 36.5707 56.2282 36.5707 55.8043C36.5707 55.3804 36.227 55.0368 35.8031 55.0368H30.4132C30.1119 55.0138 29.8412 54.7743 29.435 54.386C28.9452 53.9176 28.3355 53.3345 27.4057 53.3302L26.0439 53.3359C25.1601 53.288 24.3805 53.5383 23.8464 54.041C23.4943 54.3725 23.0747 54.985 23.0747 56.0204V59.2346C23.0747 60.9203 24.3752 62.0977 26.2372 62.0977H31.3878L31.169 63.1333C27.6753 63.1948 23.9001 64.8869 23.003 68.2075C22.669 69.4474 22.7334 70.33 23.1998 70.9058C23.318 71.0519 23.4903 71.209 23.7323 71.3258C23.6295 71.842 23.5768 72.3691 23.5768 72.9012C23.5768 77.3252 27.1792 80.9244 31.6072 80.9244C35.382 80.9244 38.6388 78.2677 39.4448 74.6437L42.9163 74.6402C43.3402 74.6398 43.6835 74.2958 43.6831 73.8719C43.6827 73.4482 43.3391 73.1052 42.9155 73.1052C42.9153 73.1052 42.915 73.1052 42.9147 73.1052L34.024 73.1144C34.1107 72.9157 34.1805 72.6993 34.2257 72.4604L34.4411 71.5155H45.9573C45.9583 71.5155 45.9593 71.5157 45.9604 71.5157C45.9614 71.5157 45.9624 71.5155 45.9634 71.5155H47.5091C48.688 71.5155 49.2511 71.2356 49.9183 70.318L54.1539 64.5067C54.1579 64.5011 54.1622 64.4957 54.1661 64.4899L55.9096 62.0978H58.391L50.9507 71.8208C50.9415 71.8329 50.9327 71.8452 50.9241 71.8577C50.0819 73.1052 49.2419 73.1052 48.9258 73.1052H45.9306C45.5067 73.1052 45.163 73.4487 45.163 73.8727C45.163 74.2966 45.5067 74.6402 45.9306 74.6402H48.9258C50.2275 74.6402 51.3234 73.9997 52.1832 72.7362L59.1231 63.6672L59.7048 64.8788C58.3381 65.8149 57.3454 67.0664 56.8144 68.5323C56.3987 69.6813 56.4101 70.5805 56.8483 71.205C56.9986 71.4192 57.2435 71.6575 57.6327 71.8144C57.5844 72.1714 57.5592 72.5347 57.5592 72.9012C57.5592 77.3252 61.1616 80.9244 65.5896 80.9244C70.0177 80.9244 73.6201 77.3252 73.6201 72.9012C73.6201 72.551 73.5961 72.1998 73.5501 71.8507C74.0283 71.6858 74.3142 71.4 74.4809 71.1456C75.089 70.2197 74.6589 68.9784 74.4462 68.4886ZM63.0683 53.6154C63.4614 53.3434 63.9267 53.1964 64.4072 53.1964H67.0994C67.2042 53.1964 67.2926 53.2845 67.2926 53.3887V57.73C67.2926 57.8342 67.2042 57.9224 67.0994 57.9224H64.4072C63.9268 57.9224 63.4614 57.7752 63.0683 57.5032V53.6154ZM59.0602 42.7778C59.0602 42.8492 58.9981 42.9096 58.9246 42.9096H58.9207C58.9171 42.9096 58.9134 42.9095 58.9098 42.9096H55.084C55.0121 42.9096 54.9513 42.8492 54.9513 42.7778V40.757C54.9513 40.7054 54.9788 40.6506 55.0029 40.6204L58.7863 41.3246C58.9405 41.3529 59.0602 41.4255 59.0602 41.4691V42.7778ZM24.6696 69.9662C24.6571 69.9663 24.6446 69.9665 24.6321 69.9672C24.4507 69.9769 24.3939 69.9409 24.3939 69.9408C24.3492 69.8966 24.234 69.5405 24.4854 68.6075C25.0737 66.4296 27.726 64.832 30.843 64.6785L29.7261 69.9661H24.677C24.6745 69.9661 24.672 69.9662 24.6696 69.9662ZM31.3004 74.5983C31.3686 74.6105 31.4375 74.6195 31.5069 74.6258C31.5695 74.6422 31.6349 74.6519 31.7026 74.6519H31.7034L33.8792 74.6496C33.3469 75.3373 32.5146 75.7688 31.6073 75.7688C30.0242 75.7688 28.7363 74.4824 28.7363 72.9013C28.7363 72.405 28.8639 71.9279 29.1044 71.5012H29.4019L29.3905 71.555C29.3886 71.5645 29.3868 71.5738 29.3852 71.5831C29.0914 73.286 30.1263 74.389 31.3004 74.5983ZM35.6506 74.6478L37.8637 74.6456C37.0928 77.4034 34.5435 79.3894 31.6073 79.3894C28.0258 79.3894 25.112 76.4789 25.112 72.9013C25.112 72.4272 25.1636 71.9584 25.2641 71.5012H27.4289C27.2786 71.9481 27.2012 72.419 27.2012 72.9013C27.2012 75.329 29.1778 77.3039 31.6073 77.3039C33.3762 77.3039 34.9628 76.2368 35.6506 74.6478ZM34.4609 64.5233L33.0826 70.5693C33.0817 70.5737 33.0805 70.5781 33.0796 70.5825L32.7259 72.1339C32.7236 72.1444 32.7214 72.1549 32.7194 72.1656C32.561 73.0266 31.922 73.1495 31.5699 73.0871C31.369 73.0512 30.7291 72.8569 30.8958 71.8573L31.0963 70.908C31.0989 70.8964 31.1015 70.8848 31.1037 70.873L32.957 62.0979H35.0139L34.4692 64.4878C34.4661 64.4997 34.4632 64.5114 34.4609 64.5233ZM38.1623 69.9661C38.1587 69.9661 38.1553 69.9661 38.1517 69.9661H34.7947L35.7443 65.8006C36.9106 66.4983 37.7829 67.4884 38.2922 68.7038C38.2938 68.7076 38.2953 68.7114 38.297 68.7151C38.4581 69.083 38.5968 69.6316 38.6291 69.9725L38.1623 69.9661ZM36.0993 64.2428L36.5884 62.0979H43.7963L39.1819 67.0812C38.4536 65.8882 37.4072 64.9247 36.0993 64.2428ZM39.8845 68.5819L45.8884 62.0978H54.0104L53.1375 63.2955H48.4616C48.0377 63.2955 47.694 63.6391 47.694 64.0631C47.694 64.487 48.0377 64.8306 48.4616 64.8306H52.0187L50.0446 67.539C49.4979 66.9699 48.7319 66.6279 47.8991 66.6279C47.0848 66.6279 46.3233 66.9472 45.7567 67.5254C45.249 68.0405 44.9446 68.7206 44.8996 69.44C44.8882 69.6218 44.895 69.8022 44.9157 69.9804H40.1647C40.1472 69.4742 40.0064 68.9488 39.8845 68.5819ZM47.5095 69.9805H46.471C46.436 69.8368 46.4222 69.6873 46.4317 69.5361C46.4535 69.186 46.6021 68.8546 46.8516 68.6015C47.1286 68.3188 47.5005 68.163 47.899 68.163C48.4095 68.163 48.8552 68.4123 49.1112 68.8196L48.6777 69.4145C48.3126 69.9165 48.224 69.9805 47.5095 69.9805ZM58.538 60.5628H46.3207V56.0291C47.789 53.9199 52.5476 53.3023 55.8104 54.1961C56.6305 54.4207 58.5381 55.0873 58.5381 56.4213L58.538 60.5628ZM59.3504 49.8004L55.553 49.5784C54.9852 49.5452 54.7955 49.1583 54.8056 48.8373C54.8115 48.6507 54.8933 48.218 55.5256 48.218H55.5317L60.5865 48.2353C60.9388 48.237 61.2575 48.4464 61.3983 48.7692C61.4089 48.7935 61.4208 48.8175 61.4339 48.8406C61.4999 48.9571 61.5333 49.1014 61.5333 49.2695V53.2475V57.8713V61.7542C61.5333 61.8667 61.558 61.9778 61.6057 62.0794L62.7052 64.4294C62.7147 64.4526 62.7253 64.4752 62.7369 64.4971L66.2658 72.0391C66.4694 72.4736 66.3941 72.7675 66.0358 72.9375C65.7868 73.0555 65.3499 73.0878 65.2031 72.7824L60.0732 62.0982V61.3303V56.4213V50.5667C60.0731 50.1602 59.7561 49.8241 59.3504 49.8004ZM67.8606 71.9882H68.3098C68.4077 72.2801 68.4584 72.5855 68.4584 72.9012C68.4584 74.4823 67.1717 75.7687 65.5901 75.7687C64.0071 75.7687 62.7191 74.4823 62.7191 72.9012C62.7191 72.5871 62.7705 72.2816 62.8698 71.9882H63.1187L63.8192 73.4471C64.1885 74.2155 64.9174 74.5579 65.6539 74.5579C66.0122 74.5579 66.3723 74.4769 66.6936 74.3245C67.4781 73.9524 68.0972 73.0953 67.8606 71.9882ZM58.1055 70.3234C58.0305 70.2165 57.9783 69.8291 58.2585 69.0549C58.653 67.9653 59.3799 67.0196 60.3797 66.2835L62.3817 70.4532H58.6216C58.3594 70.4532 58.1617 70.4034 58.1055 70.3234ZM65.5901 79.3894C62.0087 79.3894 59.0949 76.4789 59.0949 72.9013C59.0949 72.5926 59.1167 72.2873 59.1587 71.9883H61.281C61.2178 72.2863 61.184 72.5908 61.184 72.9013C61.184 75.329 63.1606 77.3039 65.5901 77.3039C68.0182 77.3039 69.9935 75.3289 69.9935 72.9013C69.9935 72.5901 69.9602 72.2855 69.8976 71.9883H72.0182C72.0611 72.2918 72.0855 72.597 72.0855 72.9013C72.0855 76.4789 69.1716 79.3894 65.5901 79.3894ZM73.1979 70.3038C73.1366 70.3973 72.9342 70.4532 72.6568 70.4532H67.2184L64.5421 64.7335C67.7408 64.3834 71.4993 65.5457 73.0377 69.0994C73.2836 69.6654 73.3037 70.1423 73.1979 70.3038Z" fill="white"/>
</g>
<rect x="23.9751" width="48" height="34" rx="17" fill="white"/>
<defs>
<filter id="filter0_d_0_116" x="0.975082" y="13" width="94" height="94" filterUnits="userSpaceOnUse" color-interpolation-filters="sRGB">
<feFlood flood-opacity="0" result="BackgroundImageFix"/>
<feColorMatrix in="SourceAlpha" type="matrix" values="0 0 0 0 0 0 0 0 0 0 0 0 0 0 0 0 0 0 127 0" result="hardAlpha"/>
<feOffset dy="2"/>
<feGaussianBlur stdDeviation="1"/>
<feComposite in2="hardAlpha" operator="out"/>
<feColorMatrix type="matrix" values="0 0 0 0 0.2 0 0 0 0 0.2 0 0 0 0 0.2 0 0 0 0.25 0"/>
<feBlend mode="normal" in2="BackgroundImageFix" result="effect1_dropShadow_0_116"/>
<feBlend mode="normal" in="SourceGraphic" in2="effect1_dropShadow_0_116" result="shape"/>
</filter>
<clipPath id="clip0_0_116">
<rect width="52" height="52" fill="white" transform="translate(22.7934 34)"/>
</clipPath>
</defs>
</svg>
