<svg width="161" height="150" viewBox="0 0 161 150" fill="none" xmlns="http://www.w3.org/2000/svg">
<g clip-path="url(#clip0_0_1993)">
<path d="M99.2049 66.0371C94.5386 66.0371 90.7424 69.8333 90.7424 74.4996C90.7424 79.1659 94.5386 82.9621 99.2049 82.9621C103.871 82.9621 107.667 79.1659 107.667 74.4996C107.667 69.8333 103.871 66.0371 99.2049 66.0371Z" fill="white" fill-opacity="0.6"/>
<path d="M104.81 40.3857V55.6459C109.156 56.94 112.876 59.6969 115.397 63.3458L129.912 58.6295C124.976 49.1172 115.748 42.1762 104.81 40.3857Z" fill="white" fill-opacity="0.6"/>
<path d="M133.384 69.2881L118.865 74.0057C118.869 74.1706 118.878 74.3345 118.878 74.5001C118.878 78.993 117.361 83.1359 114.816 86.4516L123.781 98.7894C129.957 92.5411 133.777 83.9586 133.777 74.5001C133.777 72.7288 133.642 70.9884 133.384 69.2881Z" fill="white" fill-opacity="0.6"/>
<path d="M99.2049 0.70459H31.0147C27.9193 0.70459 25.4098 3.21411 25.4098 6.30953C25.4098 9.40495 27.9193 11.9145 31.0147 11.9145H60.1497C54.0028 15.7641 48.4604 20.4918 43.7012 25.9234H5.60494C2.50952 25.9238 0 28.4336 0 31.5291C0 34.6245 2.50952 37.134 5.60494 37.134H35.5928C29.1262 48.1006 25.4094 60.8736 25.4094 74.4997C25.4094 90.3549 30.4369 105.058 38.9795 117.1H23.0763C19.9809 117.1 17.4713 119.61 17.4713 122.705C17.4713 125.8 19.9809 128.31 23.0763 128.31H48.7624C52.2573 131.588 56.0704 134.53 60.1497 137.085H6.18307C3.08765 137.085 0.578132 139.594 0.578132 142.69C0.578132 145.785 3.08765 148.294 6.18307 148.294H99.2049C139.896 148.294 173 115.19 173 74.4994C173 33.8088 139.896 0.70459 99.2049 0.70459ZM126.431 111.283C126.328 111.37 126.226 111.458 126.115 111.538C125.99 111.629 125.862 111.713 125.732 111.792C118.243 117.135 109.085 120.281 99.2049 120.281C89.3249 120.281 80.1667 117.135 72.6774 111.792C72.5476 111.713 72.4199 111.629 72.2949 111.538C72.1841 111.457 72.0817 111.369 71.9783 111.283C60.7282 102.933 53.423 89.5541 53.423 74.4997C53.423 49.2555 73.9607 28.7178 99.2049 28.7178C124.449 28.7178 144.987 49.2555 144.987 74.4997C144.987 89.5544 137.682 102.933 126.431 111.283Z" fill="white" fill-opacity="0.6"/>
<path d="M68.498 58.629L83.0121 63.3453C85.5338 59.6968 89.2536 56.9399 93.5996 55.6454V40.3853C82.6621 42.1761 73.4346 49.1167 68.498 58.629Z" fill="white" fill-opacity="0.6"/>
<path d="M105.753 93.0483C103.703 93.7741 101.501 94.1732 99.2049 94.1732C96.9099 94.1732 94.7065 93.7741 92.6569 93.0483L83.6906 105.389C88.3589 107.743 93.6293 109.071 99.2049 109.071C104.78 109.071 110.051 107.743 114.719 105.389L105.753 93.0483Z" fill="white" fill-opacity="0.6"/>
<path d="M79.5322 74.5001C79.5322 74.3345 79.5403 74.1706 79.5443 74.0057L65.0255 69.2881C64.7673 70.9884 64.6329 72.7288 64.6329 74.5001C64.6329 83.959 68.4527 92.5414 74.629 98.79L83.5933 86.4516C81.0493 83.1362 79.5322 78.993 79.5322 74.5001Z" fill="white" fill-opacity="0.6"/>
</g>
<defs>
<clipPath id="clip0_0_1993">
<rect width="173" height="149" fill="white" transform="translate(0 0.276367)"/>
</clipPath>
</defs>
</svg>
