<svg width="65" height="43" viewBox="0 0 65 43" fill="none" xmlns="http://www.w3.org/2000/svg">
<path d="M17.04 42.5553C9.06 42.5553 1.56 35.4153 1.56 21.6153C1.56 7.87527 9.06 0.735271 17.04 0.735271C25.02 0.735271 32.52 7.87527 32.52 21.6753C32.52 35.4153 25.02 42.5553 17.04 42.5553ZM17.04 7.45527C13.68 7.45527 9.36 11.2353 9.36 21.6153C9.36 32.0553 13.62 35.8353 17.04 35.8353C20.46 35.8353 24.72 32.0553 24.72 21.6153C24.72 11.2353 20.4 7.45527 17.04 7.45527ZM43.6214 41.6553V8.35527H37.8614V1.63527H51.4214V41.6553H43.6214Z" fill="#8A8E2F"/>
</svg>
