<svg width="351" height="37" viewBox="0 0 351 37" fill="none" xmlns="http://www.w3.org/2000/svg">
<mask id="path-1-inside-1_0_6442" fill="white">
<path d="M24.3258 31.6235H14.7578L13.8218 35.9395H0.509766L12.5218 1.25545H26.4578L38.8338 35.9395H25.4698L24.3258 31.6235ZM20.5298 16.7515C20.2178 15.3995 20.0098 14.0995 19.8538 12.8515H19.3858C19.3338 14.3075 19.1258 15.5035 18.8138 16.7515L17.0978 23.4075H22.1418L20.5298 16.7515ZM54.6056 35.9395H42.3336V1.25545H58.9736C64.4856 1.25545 67.6576 3.49145 69.1136 4.89545C71.9736 7.70345 72.6496 11.2395 72.6496 13.9955C72.6496 16.8555 72.0256 20.1315 69.2176 22.6795C66.4616 25.1755 63.3416 25.4875 60.6896 25.4875H54.6056V35.9395ZM54.6056 10.7715V16.7515H56.7376C57.3616 16.7515 58.6616 16.6995 59.5456 15.8155C60.0136 15.3995 60.3776 14.7235 60.3776 13.6835C60.3776 12.5915 59.9096 11.9155 59.4416 11.5515C58.8696 11.0835 57.8296 10.7715 56.8936 10.7715H54.6056ZM89.2892 35.9395H77.0172V1.25545H93.6572C99.1692 1.25545 102.341 3.49145 103.797 4.89545C106.657 7.70345 107.333 11.2395 107.333 13.9955C107.333 16.8555 106.709 20.1315 103.901 22.6795C101.145 25.1755 98.0252 25.4875 95.3732 25.4875H89.2892V35.9395ZM89.2892 10.7715V16.7515H91.4212C92.0452 16.7515 93.3452 16.6995 94.2292 15.8155C94.6972 15.3995 95.0612 14.7235 95.0612 13.6835C95.0612 12.5915 94.5932 11.9155 94.1252 11.5515C93.5532 11.0835 92.5132 10.7715 91.5772 10.7715H89.2892ZM134.893 35.9395H111.701V1.25545H124.285V24.7595H134.893V35.9395ZM151.707 35.9395H139.123V1.25545H151.707V35.9395ZM184.049 22.3675L183.685 35.3155C180.409 36.5635 176.561 36.7195 174.949 36.7195C170.425 36.7195 165.589 35.1075 162.157 31.6755C158.881 28.4515 157.113 23.7715 157.113 18.8835C157.113 13.5275 159.141 8.95145 162.313 5.72745C164.757 3.28345 168.917 0.475451 175.417 0.475451C178.017 0.475451 180.929 0.891452 183.685 1.82745L184.049 15.0355C182.593 13.5795 179.889 11.6035 176.717 11.6035C174.741 11.6035 172.921 12.3835 171.673 13.7355C170.477 15.0355 169.853 16.8555 169.853 18.6755C169.853 20.5475 170.529 22.3675 171.881 23.6675C172.921 24.6555 174.533 25.6435 177.029 25.6435C180.565 25.6435 183.009 23.5115 184.049 22.3675ZM209.728 31.6235H200.16L199.224 35.9395H185.912L197.924 1.25545H211.86L224.236 35.9395H210.872L209.728 31.6235ZM205.932 16.7515C205.62 15.3995 205.412 14.0995 205.256 12.8515H204.788C204.736 14.3075 204.528 15.5035 204.216 16.7515L202.5 23.4075H207.544L205.932 16.7515ZM242.49 35.9395H230.114V12.2275L223.042 12.5395V1.25545H249.562V12.5395L242.49 12.2275V35.9395ZM266.015 35.9395H253.431V1.25545H266.015V35.9395ZM309.902 18.5715C309.902 24.1355 307.77 28.3995 305.066 31.1555C302.102 34.1715 297.266 36.7195 290.662 36.7195C284.058 36.7195 279.222 34.1715 276.258 31.1555C273.554 28.3995 271.422 24.1355 271.422 18.5715C271.422 13.0595 273.554 8.79545 276.258 6.03945C279.222 3.02345 284.058 0.475451 290.662 0.475451C297.266 0.475451 302.102 3.02345 305.066 6.03945C307.77 8.79545 309.902 13.0595 309.902 18.5715ZM290.662 11.6555C288.426 11.6555 286.97 12.5395 286.138 13.4235C284.89 14.7235 284.162 16.7515 284.162 18.6235C284.162 20.5995 284.89 22.5235 286.138 23.7715C287.178 24.8115 288.738 25.5395 290.662 25.5395C292.586 25.5395 294.146 24.8115 295.186 23.7715C296.33 22.6275 297.162 20.8075 297.162 18.6235C297.162 16.4395 296.434 14.6195 295.186 13.4235C294.25 12.4875 292.742 11.6555 290.662 11.6555ZM327.346 35.9395H315.334V1.25545H327.346L335.406 14.3595C336.706 16.4395 337.538 17.7915 338.682 20.4955H339.046C338.526 18.3115 337.954 14.8275 337.954 12.2795V1.25545H350.018V35.9395H337.954L329.322 22.2635C328.542 21.0155 327.606 19.1955 326.93 17.7395H326.566C326.93 19.6115 327.346 22.5755 327.346 24.1355V35.9395Z"/>
</mask>
<path d="M24.3258 31.6235H14.7578L13.8218 35.9395H0.509766L12.5218 1.25545H26.4578L38.8338 35.9395H25.4698L24.3258 31.6235ZM20.5298 16.7515C20.2178 15.3995 20.0098 14.0995 19.8538 12.8515H19.3858C19.3338 14.3075 19.1258 15.5035 18.8138 16.7515L17.0978 23.4075H22.1418L20.5298 16.7515ZM54.6056 35.9395H42.3336V1.25545H58.9736C64.4856 1.25545 67.6576 3.49145 69.1136 4.89545C71.9736 7.70345 72.6496 11.2395 72.6496 13.9955C72.6496 16.8555 72.0256 20.1315 69.2176 22.6795C66.4616 25.1755 63.3416 25.4875 60.6896 25.4875H54.6056V35.9395ZM54.6056 10.7715V16.7515H56.7376C57.3616 16.7515 58.6616 16.6995 59.5456 15.8155C60.0136 15.3995 60.3776 14.7235 60.3776 13.6835C60.3776 12.5915 59.9096 11.9155 59.4416 11.5515C58.8696 11.0835 57.8296 10.7715 56.8936 10.7715H54.6056ZM89.2892 35.9395H77.0172V1.25545H93.6572C99.1692 1.25545 102.341 3.49145 103.797 4.89545C106.657 7.70345 107.333 11.2395 107.333 13.9955C107.333 16.8555 106.709 20.1315 103.901 22.6795C101.145 25.1755 98.0252 25.4875 95.3732 25.4875H89.2892V35.9395ZM89.2892 10.7715V16.7515H91.4212C92.0452 16.7515 93.3452 16.6995 94.2292 15.8155C94.6972 15.3995 95.0612 14.7235 95.0612 13.6835C95.0612 12.5915 94.5932 11.9155 94.1252 11.5515C93.5532 11.0835 92.5132 10.7715 91.5772 10.7715H89.2892ZM134.893 35.9395H111.701V1.25545H124.285V24.7595H134.893V35.9395ZM151.707 35.9395H139.123V1.25545H151.707V35.9395ZM184.049 22.3675L183.685 35.3155C180.409 36.5635 176.561 36.7195 174.949 36.7195C170.425 36.7195 165.589 35.1075 162.157 31.6755C158.881 28.4515 157.113 23.7715 157.113 18.8835C157.113 13.5275 159.141 8.95145 162.313 5.72745C164.757 3.28345 168.917 0.475451 175.417 0.475451C178.017 0.475451 180.929 0.891452 183.685 1.82745L184.049 15.0355C182.593 13.5795 179.889 11.6035 176.717 11.6035C174.741 11.6035 172.921 12.3835 171.673 13.7355C170.477 15.0355 169.853 16.8555 169.853 18.6755C169.853 20.5475 170.529 22.3675 171.881 23.6675C172.921 24.6555 174.533 25.6435 177.029 25.6435C180.565 25.6435 183.009 23.5115 184.049 22.3675ZM209.728 31.6235H200.16L199.224 35.9395H185.912L197.924 1.25545H211.86L224.236 35.9395H210.872L209.728 31.6235ZM205.932 16.7515C205.62 15.3995 205.412 14.0995 205.256 12.8515H204.788C204.736 14.3075 204.528 15.5035 204.216 16.7515L202.5 23.4075H207.544L205.932 16.7515ZM242.49 35.9395H230.114V12.2275L223.042 12.5395V1.25545H249.562V12.5395L242.49 12.2275V35.9395ZM266.015 35.9395H253.431V1.25545H266.015V35.9395ZM309.902 18.5715C309.902 24.1355 307.77 28.3995 305.066 31.1555C302.102 34.1715 297.266 36.7195 290.662 36.7195C284.058 36.7195 279.222 34.1715 276.258 31.1555C273.554 28.3995 271.422 24.1355 271.422 18.5715C271.422 13.0595 273.554 8.79545 276.258 6.03945C279.222 3.02345 284.058 0.475451 290.662 0.475451C297.266 0.475451 302.102 3.02345 305.066 6.03945C307.77 8.79545 309.902 13.0595 309.902 18.5715ZM290.662 11.6555C288.426 11.6555 286.97 12.5395 286.138 13.4235C284.89 14.7235 284.162 16.7515 284.162 18.6235C284.162 20.5995 284.89 22.5235 286.138 23.7715C287.178 24.8115 288.738 25.5395 290.662 25.5395C292.586 25.5395 294.146 24.8115 295.186 23.7715C296.33 22.6275 297.162 20.8075 297.162 18.6235C297.162 16.4395 296.434 14.6195 295.186 13.4235C294.25 12.4875 292.742 11.6555 290.662 11.6555ZM327.346 35.9395H315.334V1.25545H327.346L335.406 14.3595C336.706 16.4395 337.538 17.7915 338.682 20.4955H339.046C338.526 18.3115 337.954 14.8275 337.954 12.2795V1.25545H350.018V35.9395H337.954L329.322 22.2635C328.542 21.0155 327.606 19.1955 326.93 17.7395H326.566C326.93 19.6115 327.346 22.5755 327.346 24.1355V35.9395Z" fill="white"/>
<path d="M24.3258 31.6235L25.2924 31.3672C25.1762 30.9288 24.7794 30.6235 24.3258 30.6235V31.6235ZM14.7578 31.6235V30.6235C14.2872 30.6235 13.8802 30.9516 13.7805 31.4115L14.7578 31.6235ZM13.8218 35.9395V36.9395C14.2924 36.9395 14.6993 36.6113 14.799 36.1514L13.8218 35.9395ZM0.509766 35.9395L-0.43517 35.6122C-0.541037 35.9179 -0.492489 36.2559 -0.304868 36.5194C-0.117247 36.783 0.186267 36.9395 0.509766 36.9395V35.9395ZM12.5218 1.25545V0.25545C12.0956 0.25545 11.7163 0.525512 11.5768 0.928194L12.5218 1.25545ZM26.4578 1.25545L27.3996 0.919382C27.2575 0.52125 26.8805 0.25545 26.4578 0.25545V1.25545ZM38.8338 35.9395V36.9395C39.1589 36.9395 39.4638 36.7814 39.6511 36.5156C39.8384 36.2499 39.8849 35.9096 39.7756 35.6034L38.8338 35.9395ZM25.4698 35.9395L24.5031 36.1957C24.6194 36.6341 25.0162 36.9395 25.4698 36.9395V35.9395ZM20.5298 16.7515L19.5553 16.9763L19.5579 16.9868L20.5298 16.7515ZM19.8538 12.8515L20.846 12.7274C20.7835 12.227 20.3581 11.8515 19.8538 11.8515V12.8515ZM19.3858 12.8515V11.8515C18.8474 11.8515 18.4056 12.2777 18.3864 12.8158L19.3858 12.8515ZM18.8138 16.7515L19.7821 17.0011L19.7839 16.994L18.8138 16.7515ZM17.0978 23.4075L16.1294 23.1578C16.0522 23.4572 16.1179 23.7755 16.3073 24.02C16.4967 24.2644 16.7885 24.4075 17.0978 24.4075V23.4075ZM22.1418 23.4075V24.4075C22.4484 24.4075 22.7381 24.2668 22.9277 24.0258C23.1173 23.7848 23.1858 23.4701 23.1137 23.1721L22.1418 23.4075ZM24.3258 30.6235H14.7578V32.6235H24.3258V30.6235ZM13.7805 31.4115L12.8445 35.7275L14.799 36.1514L15.735 31.8354L13.7805 31.4115ZM13.8218 34.9395H0.509766V36.9395H13.8218V34.9395ZM1.4547 36.2667L13.4667 1.58271L11.5768 0.928194L-0.43517 35.6122L1.4547 36.2667ZM12.5218 2.25545H26.4578V0.25545H12.5218V2.25545ZM25.5159 1.59152L37.8919 36.2755L39.7756 35.6034L27.3996 0.919382L25.5159 1.59152ZM38.8338 34.9395H25.4698V36.9395H38.8338V34.9395ZM26.4364 35.6832L25.2924 31.3672L23.3591 31.8797L24.5031 36.1957L26.4364 35.6832ZM21.5042 16.5266C21.2018 15.2166 20.9991 13.9517 20.846 12.7274L18.8615 12.9755C19.0205 14.2472 19.2337 15.5823 19.5554 16.9763L21.5042 16.5266ZM19.8538 11.8515H19.3858V13.8515H19.8538V11.8515ZM18.3864 12.8158C18.3374 14.1874 18.1426 15.3128 17.8436 16.5089L19.7839 16.994C20.1089 15.6941 20.3301 14.4275 20.3851 12.8871L18.3864 12.8158ZM17.8454 16.5018L16.1294 23.1578L18.0661 23.6571L19.7821 17.0011L17.8454 16.5018ZM17.0978 24.4075H22.1418V22.4075H17.0978V24.4075ZM23.1137 23.1721L21.5017 16.5161L19.5579 16.9868L21.1699 23.6428L23.1137 23.1721ZM54.6056 35.9395V36.9395C55.1579 36.9395 55.6056 36.4917 55.6056 35.9395H54.6056ZM42.3336 35.9395H41.3336C41.3336 36.4917 41.7813 36.9395 42.3336 36.9395V35.9395ZM42.3336 1.25545V0.25545C41.7813 0.25545 41.3336 0.703165 41.3336 1.25545H42.3336ZM69.1136 4.89545L69.8142 4.18186L69.8077 4.17561L69.1136 4.89545ZM69.2176 22.6795L69.8889 23.4207L69.8896 23.42L69.2176 22.6795ZM54.6056 25.4875V24.4875C54.0533 24.4875 53.6056 24.9352 53.6056 25.4875H54.6056ZM54.6056 10.7715V9.77145C54.0533 9.77145 53.6056 10.2192 53.6056 10.7715H54.6056ZM54.6056 16.7515H53.6056C53.6056 17.3037 54.0533 17.7515 54.6056 17.7515V16.7515ZM59.5456 15.8155L58.8812 15.068C58.8666 15.0811 58.8524 15.0945 58.8385 15.1083L59.5456 15.8155ZM59.4416 11.5515L58.8084 12.3254C58.8147 12.3306 58.8212 12.3358 58.8277 12.3408L59.4416 11.5515ZM54.6056 34.9395H42.3336V36.9395H54.6056V34.9395ZM43.3336 35.9395V1.25545H41.3336V35.9395H43.3336ZM42.3336 2.25545H58.9736V0.25545H42.3336V2.25545ZM58.9736 2.25545C64.1824 2.25545 67.1153 4.35774 68.4195 5.6153L69.8077 4.17561C68.1999 2.62516 64.7888 0.25545 58.9736 0.25545V2.25545ZM68.413 5.60902C71.0107 8.15942 71.6496 11.3889 71.6496 13.9955H73.6496C73.6496 11.09 72.9366 7.24749 69.8142 4.18189L68.413 5.60902ZM71.6496 13.9955C71.6496 16.7178 71.0575 19.6596 68.5456 21.9389L69.8896 23.42C72.9937 20.6034 73.6496 16.9931 73.6496 13.9955H71.6496ZM68.5463 21.9382C66.0711 24.18 63.2659 24.4875 60.6896 24.4875V26.4875C63.4173 26.4875 66.8521 26.1709 69.8889 23.4207L68.5463 21.9382ZM60.6896 24.4875H54.6056V26.4875H60.6896V24.4875ZM53.6056 25.4875V35.9395H55.6056V25.4875H53.6056ZM53.6056 10.7715V16.7515H55.6056V10.7715H53.6056ZM54.6056 17.7515H56.7376V15.7515H54.6056V17.7515ZM56.7376 17.7515C57.359 17.7515 59.0521 17.7232 60.2527 16.5226L58.8385 15.1083C58.2711 15.6758 57.3643 15.7515 56.7376 15.7515V17.7515ZM60.21 16.5629C60.9122 15.9386 61.3776 14.9801 61.3776 13.6835H59.3776C59.3776 14.4668 59.115 14.8603 58.8812 15.068L60.21 16.5629ZM61.3776 13.6835C61.3776 12.27 60.7568 11.3075 60.0556 10.7621L58.8277 12.3408C59.0625 12.5234 59.3776 12.9129 59.3776 13.6835H61.3776ZM60.0748 10.7775C59.2757 10.1236 57.9889 9.77145 56.8936 9.77145V11.7715C57.6703 11.7715 58.4635 12.0433 58.8084 12.3254L60.0748 10.7775ZM56.8936 9.77145H54.6056V11.7715H56.8936V9.77145ZM89.2892 35.9395V36.9395C89.8415 36.9395 90.2892 36.4917 90.2892 35.9395H89.2892ZM77.0172 35.9395H76.0172C76.0172 36.4917 76.4649 36.9395 77.0172 36.9395V35.9395ZM77.0172 1.25545V0.25545C76.4649 0.25545 76.0172 0.703165 76.0172 1.25545H77.0172ZM103.797 4.89545L104.498 4.18186L104.491 4.17561L103.797 4.89545ZM103.901 22.6795L104.572 23.4207L104.573 23.42L103.901 22.6795ZM89.2892 25.4875V24.4875C88.7369 24.4875 88.2892 24.9352 88.2892 25.4875H89.2892ZM89.2892 10.7715V9.77145C88.7369 9.77145 88.2892 10.2192 88.2892 10.7715H89.2892ZM89.2892 16.7515H88.2892C88.2892 17.3037 88.7369 17.7515 89.2892 17.7515V16.7515ZM94.2292 15.8155L93.5648 15.068C93.5502 15.0811 93.5359 15.0945 93.5221 15.1083L94.2292 15.8155ZM94.1252 11.5515L93.492 12.3254C93.4983 12.3306 93.5048 12.3358 93.5113 12.3408L94.1252 11.5515ZM89.2892 34.9395H77.0172V36.9395H89.2892V34.9395ZM78.0172 35.9395V1.25545H76.0172V35.9395H78.0172ZM77.0172 2.25545H93.6572V0.25545H77.0172V2.25545ZM93.6572 2.25545C98.866 2.25545 101.799 4.35774 103.103 5.6153L104.491 4.17561C102.883 2.62516 99.4724 0.25545 93.6572 0.25545V2.25545ZM103.097 5.60902C105.694 8.15942 106.333 11.3889 106.333 13.9955H108.333C108.333 11.09 107.62 7.24749 104.498 4.18189L103.097 5.60902ZM106.333 13.9955C106.333 16.7178 105.741 19.6596 103.229 21.9389L104.573 23.42C107.677 20.6034 108.333 16.9931 108.333 13.9955H106.333ZM103.23 21.9382C100.755 24.18 97.9495 24.4875 95.3732 24.4875V26.4875C98.1009 26.4875 101.536 26.1709 104.572 23.4207L103.23 21.9382ZM95.3732 24.4875H89.2892V26.4875H95.3732V24.4875ZM88.2892 25.4875V35.9395H90.2892V25.4875H88.2892ZM88.2892 10.7715V16.7515H90.2892V10.7715H88.2892ZM89.2892 17.7515H91.4212V15.7515H89.2892V17.7515ZM91.4212 17.7515C92.0426 17.7515 93.7357 17.7232 94.9363 16.5226L93.5221 15.1083C92.9547 15.6758 92.0479 15.7515 91.4212 15.7515V17.7515ZM94.8936 16.5629C95.5958 15.9386 96.0612 14.9801 96.0612 13.6835H94.0612C94.0612 14.4668 93.7986 14.8603 93.5648 15.068L94.8936 16.5629ZM96.0612 13.6835C96.0612 12.27 95.4404 11.3075 94.7391 10.7621L93.5113 12.3408C93.746 12.5234 94.0612 12.9129 94.0612 13.6835H96.0612ZM94.7584 10.7775C93.9593 10.1236 92.6725 9.77145 91.5772 9.77145V11.7715C92.3539 11.7715 93.1471 12.0433 93.492 12.3254L94.7584 10.7775ZM91.5772 9.77145H89.2892V11.7715H91.5772V9.77145ZM134.893 35.9395V36.9395C135.445 36.9395 135.893 36.4917 135.893 35.9395H134.893ZM111.701 35.9395H110.701C110.701 36.4917 111.149 36.9395 111.701 36.9395V35.9395ZM111.701 1.25545V0.25545C111.149 0.25545 110.701 0.703165 110.701 1.25545H111.701ZM124.285 1.25545H125.285C125.285 0.703165 124.837 0.25545 124.285 0.25545V1.25545ZM124.285 24.7595H123.285C123.285 25.3117 123.733 25.7595 124.285 25.7595V24.7595ZM134.893 24.7595H135.893C135.893 24.2072 135.445 23.7595 134.893 23.7595V24.7595ZM134.893 34.9395H111.701V36.9395H134.893V34.9395ZM112.701 35.9395V1.25545H110.701V35.9395H112.701ZM111.701 2.25545H124.285V0.25545H111.701V2.25545ZM123.285 1.25545V24.7595H125.285V1.25545H123.285ZM124.285 25.7595H134.893V23.7595H124.285V25.7595ZM133.893 24.7595V35.9395H135.893V24.7595H133.893ZM151.707 35.9395V36.9395C152.259 36.9395 152.707 36.4917 152.707 35.9395H151.707ZM139.123 35.9395H138.123C138.123 36.4917 138.57 36.9395 139.123 36.9395V35.9395ZM139.123 1.25545V0.25545C138.57 0.25545 138.123 0.703165 138.123 1.25545H139.123ZM151.707 1.25545H152.707C152.707 0.703165 152.259 0.25545 151.707 0.25545V1.25545ZM151.707 34.9395H139.123V36.9395H151.707V34.9395ZM140.123 35.9395V1.25545H138.123V35.9395H140.123ZM139.123 2.25545H151.707V0.25545H139.123V2.25545ZM150.707 1.25545V35.9395H152.707V1.25545H150.707ZM184.049 22.3675L185.049 22.3956C185.061 21.9774 184.811 21.5962 184.423 21.4399C184.035 21.2836 183.591 21.3853 183.31 21.6948L184.049 22.3675ZM183.685 35.3155L184.041 36.2499C184.42 36.1059 184.674 35.7481 184.685 35.3436L183.685 35.3155ZM162.157 31.6755L162.865 30.9683L162.859 30.9627L162.157 31.6755ZM162.313 5.72745L161.606 5.02032L161.601 5.02612L162.313 5.72745ZM183.685 1.82745L184.685 1.7999C184.674 1.38182 184.403 1.01507 184.007 0.880571L183.685 1.82745ZM184.049 15.0355L183.342 15.7426C183.632 16.0321 184.069 16.1159 184.445 15.954C184.821 15.7921 185.06 15.4172 185.049 15.0079L184.049 15.0355ZM171.673 13.7355L170.939 13.0572L170.938 13.0584L171.673 13.7355ZM171.881 23.6675L171.188 24.3883L171.193 24.3925L171.881 23.6675ZM183.05 22.3394L182.686 35.2874L184.685 35.3436L185.049 22.3956L183.05 22.3394ZM183.329 34.381C180.23 35.5619 176.532 35.7195 174.949 35.7195V37.7195C176.591 37.7195 180.589 37.565 184.041 36.2499L183.329 34.381ZM174.949 35.7195C170.643 35.7195 166.078 34.1817 162.865 30.9683L161.45 32.3826C165.101 36.0332 170.208 37.7195 174.949 37.7195V35.7195ZM162.859 30.9627C159.799 27.9512 158.113 23.5406 158.113 18.8835H156.113C156.113 24.0023 157.964 28.9517 161.456 32.3882L162.859 30.9627ZM158.113 18.8835C158.113 13.7876 160.04 9.46413 163.026 6.42879L161.601 5.02612C158.243 8.43877 156.113 13.2673 156.113 18.8835H158.113ZM163.021 6.43456C165.324 4.13072 169.243 1.47545 175.417 1.47545V-0.524549C168.592 -0.524549 164.191 2.43619 161.606 5.02034L163.021 6.43456ZM175.417 1.47545C177.918 1.47545 180.72 1.87643 183.364 2.77433L184.007 0.880571C181.139 -0.0935227 178.117 -0.524549 175.417 -0.524549V1.47545ZM182.686 1.855L183.05 15.063L185.049 15.0079L184.685 1.7999L182.686 1.855ZM184.757 14.3283C183.229 12.801 180.283 10.6035 176.717 10.6035V12.6035C179.496 12.6035 181.958 14.3579 183.342 15.7426L184.757 14.3283ZM176.717 10.6035C174.479 10.6035 172.387 11.488 170.939 13.0572L172.408 14.4137C173.456 13.2789 175.004 12.6035 176.717 12.6035V10.6035ZM170.938 13.0584C169.548 14.5684 168.853 16.6415 168.853 18.6755H170.853C170.853 17.0694 171.407 15.5025 172.409 14.4125L170.938 13.0584ZM168.853 18.6755C168.853 20.7827 169.615 22.8757 171.188 24.3883L172.575 22.9466C171.444 21.8592 170.853 20.3122 170.853 18.6755H168.853ZM171.193 24.3925C172.382 25.5227 174.231 26.6435 177.029 26.6435V24.6435C174.836 24.6435 173.46 23.7882 172.57 22.9425L171.193 24.3925ZM177.029 26.6435C180.979 26.6435 183.672 24.2692 184.789 23.0401L183.31 21.6948C182.347 22.7537 180.152 24.6435 177.029 24.6435V26.6435ZM209.728 31.6235L210.695 31.3672C210.579 30.9288 210.182 30.6235 209.728 30.6235V31.6235ZM200.16 31.6235V30.6235C199.689 30.6235 199.283 30.9516 199.183 31.4115L200.16 31.6235ZM199.224 35.9395V36.9395C199.695 36.9395 200.102 36.6113 200.201 36.1514L199.224 35.9395ZM185.912 35.9395L184.967 35.6122C184.861 35.9179 184.91 36.2559 185.097 36.5194C185.285 36.783 185.589 36.9395 185.912 36.9395V35.9395ZM197.924 1.25545V0.25545C197.498 0.25545 197.119 0.525512 196.979 0.928194L197.924 1.25545ZM211.86 1.25545L212.802 0.919382C212.66 0.52125 212.283 0.25545 211.86 0.25545V1.25545ZM224.236 35.9395V36.9395C224.561 36.9395 224.866 36.7814 225.053 36.5156C225.241 36.2499 225.287 35.9096 225.178 35.6034L224.236 35.9395ZM210.872 35.9395L209.905 36.1957C210.022 36.6341 210.419 36.9395 210.872 36.9395V35.9395ZM205.932 16.7515L204.958 16.9763L204.96 16.9868L205.932 16.7515ZM205.256 12.8515L206.248 12.7274C206.186 12.227 205.76 11.8515 205.256 11.8515V12.8515ZM204.788 12.8515V11.8515C204.25 11.8515 203.808 12.2777 203.789 12.8158L204.788 12.8515ZM204.216 16.7515L205.184 17.0011L205.186 16.994L204.216 16.7515ZM202.5 23.4075L201.532 23.1578C201.455 23.4572 201.52 23.7755 201.71 24.02C201.899 24.2644 202.191 24.4075 202.5 24.4075V23.4075ZM207.544 23.4075V24.4075C207.851 24.4075 208.14 24.2668 208.33 24.0258C208.52 23.7848 208.588 23.4701 208.516 23.1721L207.544 23.4075ZM209.728 30.6235H200.16V32.6235H209.728V30.6235ZM199.183 31.4115L198.247 35.7275L200.201 36.1514L201.137 31.8354L199.183 31.4115ZM199.224 34.9395H185.912V36.9395H199.224V34.9395ZM186.857 36.2667L198.869 1.58271L196.979 0.928194L184.967 35.6122L186.857 36.2667ZM197.924 2.25545H211.86V0.25545H197.924V2.25545ZM210.918 1.59152L223.294 36.2755L225.178 35.6034L212.802 0.919382L210.918 1.59152ZM224.236 34.9395H210.872V36.9395H224.236V34.9395ZM211.839 35.6832L210.695 31.3672L208.761 31.8797L209.905 36.1957L211.839 35.6832ZM206.907 16.5266C206.604 15.2166 206.401 13.9517 206.248 12.7274L204.264 12.9755C204.423 14.2472 204.636 15.5823 204.958 16.9763L206.907 16.5266ZM205.256 11.8515H204.788V13.8515H205.256V11.8515ZM203.789 12.8158C203.74 14.1874 203.545 15.3128 203.246 16.5089L205.186 16.994C205.511 15.6941 205.732 14.4275 205.787 12.8871L203.789 12.8158ZM203.248 16.5018L201.532 23.1578L203.468 23.6571L205.184 17.0011L203.248 16.5018ZM202.5 24.4075H207.544V22.4075H202.5V24.4075ZM208.516 23.1721L206.904 16.5161L204.96 16.9868L206.572 23.6428L208.516 23.1721ZM242.49 35.9395V36.9395C243.042 36.9395 243.49 36.4917 243.49 35.9395H242.49ZM230.114 35.9395H229.114C229.114 36.4917 229.561 36.9395 230.114 36.9395V35.9395ZM230.114 12.2275H231.114C231.114 11.9546 231.002 11.6936 230.805 11.5049C230.608 11.3163 230.342 11.2164 230.07 11.2284L230.114 12.2275ZM223.042 12.5395H222.042C222.042 12.8123 222.153 13.0733 222.35 13.262C222.548 13.4506 222.813 13.5505 223.086 13.5385L223.042 12.5395ZM223.042 1.25545V0.25545C222.489 0.25545 222.042 0.703165 222.042 1.25545H223.042ZM249.562 1.25545H250.562C250.562 0.703165 250.114 0.25545 249.562 0.25545V1.25545ZM249.562 12.5395L249.518 13.5385C249.79 13.5505 250.056 13.4506 250.253 13.262C250.45 13.0733 250.562 12.8123 250.562 12.5395H249.562ZM242.49 12.2275L242.534 11.2284C242.261 11.2164 241.996 11.3163 241.798 11.5049C241.601 11.6936 241.49 11.9546 241.49 12.2275H242.49ZM242.49 34.9395H230.114V36.9395H242.49V34.9395ZM231.114 35.9395V12.2275H229.114V35.9395H231.114ZM230.07 11.2284L222.998 11.5404L223.086 13.5385L230.158 13.2265L230.07 11.2284ZM224.042 12.5395V1.25545H222.042V12.5395H224.042ZM223.042 2.25545H249.562V0.25545H223.042V2.25545ZM248.562 1.25545V12.5395H250.562V1.25545H248.562ZM249.606 11.5404L242.534 11.2284L242.446 13.2265L249.518 13.5385L249.606 11.5404ZM241.49 12.2275V35.9395H243.49V12.2275H241.49ZM266.015 35.9395V36.9395C266.568 36.9395 267.015 36.4917 267.015 35.9395H266.015ZM253.431 35.9395H252.431C252.431 36.4917 252.879 36.9395 253.431 36.9395V35.9395ZM253.431 1.25545V0.25545C252.879 0.25545 252.431 0.703165 252.431 1.25545H253.431ZM266.015 1.25545H267.015C267.015 0.703165 266.568 0.25545 266.015 0.25545V1.25545ZM266.015 34.9395H253.431V36.9395H266.015V34.9395ZM254.431 35.9395V1.25545H252.431V35.9395H254.431ZM253.431 2.25545H266.015V0.25545H253.431V2.25545ZM265.015 1.25545V35.9395H267.015V1.25545H265.015ZM305.066 31.1555L305.779 31.8564L305.78 31.8558L305.066 31.1555ZM276.258 31.1555L275.544 31.8558L275.545 31.8564L276.258 31.1555ZM276.258 6.03945L275.545 5.33852L275.544 5.33911L276.258 6.03945ZM305.066 6.03945L305.78 5.33911L305.779 5.33852L305.066 6.03945ZM286.138 13.4235L286.859 14.116L286.866 14.1088L286.138 13.4235ZM286.138 23.7715L286.845 23.0643L286.845 23.0643L286.138 23.7715ZM295.186 23.7715L294.479 23.0643L294.479 23.0643L295.186 23.7715ZM295.186 13.4235L294.479 14.1306C294.484 14.1356 294.489 14.1405 294.494 14.1454L295.186 13.4235ZM308.902 18.5715C308.902 23.8675 306.877 27.8817 304.352 30.4551L305.78 31.8558C308.663 28.9172 310.902 24.4034 310.902 18.5715H308.902ZM304.353 30.4545C301.575 33.2812 296.995 35.7195 290.662 35.7195V37.7195C297.537 37.7195 302.629 35.0617 305.779 31.8564L304.353 30.4545ZM290.662 35.7195C284.329 35.7195 279.749 33.2812 276.971 30.4545L275.545 31.8564C278.695 35.0617 283.787 37.7195 290.662 37.7195V35.7195ZM276.972 30.4551C274.447 27.8817 272.422 23.8675 272.422 18.5715H270.422C270.422 24.4034 272.661 28.9172 275.544 31.8558L276.972 30.4551ZM272.422 18.5715C272.422 13.329 274.446 9.31433 276.972 6.73979L275.544 5.33911C272.662 8.27657 270.422 12.7899 270.422 18.5715H272.422ZM276.971 6.74038C279.749 3.91367 284.329 1.47545 290.662 1.47545V-0.524549C283.787 -0.524549 278.695 2.13324 275.545 5.33852L276.971 6.74038ZM290.662 1.47545C296.995 1.47545 301.575 3.91367 304.353 6.74038L305.779 5.33852C302.629 2.13324 297.537 -0.524549 290.662 -0.524549V1.47545ZM304.352 6.73979C306.878 9.31433 308.902 13.329 308.902 18.5715H310.902C310.902 12.7899 308.662 8.27657 305.78 5.33911L304.352 6.73979ZM290.662 10.6555C288.137 10.6555 286.421 11.6635 285.41 12.7381L286.866 14.1088C287.519 13.4154 288.716 12.6555 290.662 12.6555V10.6555ZM285.417 12.7309C283.966 14.2418 283.162 16.5296 283.162 18.6235H285.162C285.162 16.9733 285.814 15.2051 286.859 14.116L285.417 12.7309ZM283.162 18.6235C283.162 20.8237 283.968 23.0159 285.431 24.4786L286.845 23.0643C285.812 22.031 285.162 20.3752 285.162 18.6235H283.162ZM285.431 24.4786C286.662 25.7095 288.478 26.5395 290.662 26.5395V24.5395C288.998 24.5395 287.694 23.9134 286.845 23.0643L285.431 24.4786ZM290.662 26.5395C292.846 26.5395 294.662 25.7095 295.893 24.4786L294.479 23.0643C293.63 23.9134 292.326 24.5395 290.662 24.5395V26.5395ZM295.893 24.4786C297.234 23.1373 298.162 21.0586 298.162 18.6235H296.162C296.162 20.5563 295.426 22.1176 294.479 23.0643L295.893 24.4786ZM298.162 18.6235C298.162 16.2207 297.359 14.1203 295.878 12.7015L294.494 14.1454C295.51 15.1186 296.162 16.6582 296.162 18.6235H298.162ZM295.893 12.7163C294.784 11.6076 293.028 10.6555 290.662 10.6555V12.6555C292.457 12.6555 293.716 13.3673 294.479 14.1306L295.893 12.7163ZM327.346 35.9395V36.9395C327.898 36.9395 328.346 36.4917 328.346 35.9395H327.346ZM315.334 35.9395H314.334C314.334 36.4917 314.781 36.9395 315.334 36.9395V35.9395ZM315.334 1.25545V0.25545C314.781 0.25545 314.334 0.703165 314.334 1.25545H315.334ZM327.346 1.25545L328.197 0.731541C328.015 0.435687 327.693 0.25545 327.346 0.25545V1.25545ZM335.406 14.3595L334.554 14.8834L334.558 14.8895L335.406 14.3595ZM338.682 20.4955L337.761 20.8851C337.917 21.2551 338.28 21.4955 338.682 21.4955V20.4955ZM339.046 20.4955V21.4955C339.352 21.4955 339.641 21.3554 339.83 21.1153C340.02 20.8752 340.089 20.5615 340.018 20.2638L339.046 20.4955ZM337.954 1.25545V0.25545C337.401 0.25545 336.954 0.703165 336.954 1.25545H337.954ZM350.018 1.25545H351.018C351.018 0.703165 350.57 0.25545 350.018 0.25545V1.25545ZM350.018 35.9395V36.9395C350.57 36.9395 351.018 36.4917 351.018 35.9395H350.018ZM337.954 35.9395L337.108 36.4732C337.291 36.7634 337.61 36.9395 337.954 36.9395V35.9395ZM329.322 22.2635L328.474 22.7935L328.476 22.7972L329.322 22.2635ZM326.93 17.7395L327.837 17.3183C327.673 16.9653 327.319 16.7395 326.93 16.7395V17.7395ZM326.566 17.7395V16.7395C326.267 16.7395 325.984 16.8729 325.794 17.1034C325.604 17.3339 325.527 17.6372 325.584 17.9303L326.566 17.7395ZM327.346 34.9395H315.334V36.9395H327.346V34.9395ZM316.334 35.9395V1.25545H314.334V35.9395H316.334ZM315.334 2.25545H327.346V0.25545H315.334V2.25545ZM326.494 1.77936L334.554 14.8834L336.257 13.8355L328.197 0.731541L326.494 1.77936ZM334.558 14.8895C335.848 16.9536 336.647 18.2534 337.761 20.8851L339.603 20.1058C338.428 17.3295 337.564 15.9253 336.254 13.8295L334.558 14.8895ZM338.682 21.4955H339.046V19.4955H338.682V21.4955ZM340.018 20.2638C339.508 18.1205 338.954 14.7201 338.954 12.2795H336.954C336.954 14.9348 337.543 18.5024 338.073 20.7271L340.018 20.2638ZM338.954 12.2795V1.25545H336.954V12.2795H338.954ZM337.954 2.25545H350.018V0.25545H337.954V2.25545ZM349.018 1.25545V35.9395H351.018V1.25545H349.018ZM350.018 34.9395H337.954V36.9395H350.018V34.9395ZM338.799 35.4057L330.167 21.7297L328.476 22.7972L337.108 36.4732L338.799 35.4057ZM330.17 21.7335C329.42 20.5341 328.504 18.755 327.837 17.3183L326.023 18.1606C326.708 19.6359 327.663 21.4968 328.474 22.7935L330.17 21.7335ZM326.93 16.7395H326.566V18.7395H326.93V16.7395ZM325.584 17.9303C325.945 19.7869 326.346 22.6744 326.346 24.1355H328.346C328.346 22.4765 327.914 19.436 327.547 17.5486L325.584 17.9303ZM326.346 24.1355V35.9395H328.346V24.1355H326.346Z" fill="#333333" mask="url(#path-1-inside-1_0_6442)"/>
</svg>
