<svg width="29" height="22" viewBox="0 0 29 22" fill="none" xmlns="http://www.w3.org/2000/svg">
<path d="M28.5744 20.2387H27.638V8.3472H28.5744C28.7297 8.3472 28.8727 8.26236 28.9475 8.12581C29.0222 7.98926 29.0168 7.82272 28.9335 7.69135L25.7554 2.68441C25.6772 2.56129 25.5418 2.48675 25.3963 2.48675H16.9463L14.9256 0.460938H14.0744L12.0537 2.48681H3.60373C3.45822 2.48681 3.32275 2.56134 3.2446 2.68447L0.0665232 7.6914C-0.0168447 7.82278 -0.0222361 7.98931 0.0525056 8.12586C0.127304 8.26236 0.270317 8.3472 0.425646 8.3472H1.36204V20.2387H0.425646C0.190582 20.2387 1.04047e-05 20.4297 1.04047e-05 20.6654C1.04047e-05 20.9011 0.190582 21.0921 0.425646 21.0921H28.5744C28.8094 21.0921 29 20.9011 29 20.6654C29 20.4297 28.8094 20.2387 28.5744 20.2387ZM25.1626 3.34027L27.799 7.49374H21.9405L17.7976 3.34027H25.1626ZM3.83737 3.34027H11.2023L7.05949 7.49374H1.20104L3.83737 3.34027ZM2.21332 8.3472H7.2357C7.24978 8.3472 7.26385 8.34646 7.27793 8.34503C7.28394 8.34446 7.28984 8.34333 7.2958 8.34247C7.30358 8.34133 7.31135 8.34042 7.31913 8.33889C7.32605 8.33752 7.33275 8.33559 7.33956 8.33388C7.3462 8.33223 7.3529 8.33069 7.35948 8.32876C7.36618 8.32671 7.3727 8.32415 7.37928 8.32182C7.38581 8.31949 7.39234 8.31732 7.39881 8.31465C7.40499 8.31209 7.41089 8.30907 7.41691 8.30623C7.42344 8.3031 7.43008 8.3002 7.43649 8.29673C7.44234 8.2936 7.44784 8.29001 7.45352 8.28666C7.45976 8.28296 7.46611 8.27937 7.47219 8.27528C7.47854 8.27101 7.4845 8.26629 7.49057 8.26168C7.49557 8.25792 7.50073 8.25445 7.50556 8.25041C7.51645 8.24148 7.5269 8.23203 7.53683 8.22202L14.5 1.24111L21.4632 8.22208C21.4731 8.23203 21.4836 8.24148 21.4944 8.25047C21.4993 8.25445 21.5044 8.25792 21.5094 8.26168C21.5155 8.26629 21.5215 8.27107 21.5279 8.27533C21.5339 8.27937 21.5402 8.2829 21.5464 8.2866C21.5521 8.29007 21.5577 8.29366 21.5636 8.29678C21.5699 8.3002 21.5764 8.3031 21.583 8.30617C21.589 8.30907 21.5951 8.31209 21.6013 8.31471C21.6077 8.31732 21.6141 8.31943 21.6205 8.32176C21.6272 8.32415 21.6338 8.32671 21.6406 8.32882C21.647 8.33081 21.6536 8.33223 21.6602 8.33388C21.6671 8.33564 21.6739 8.33758 21.6809 8.33895C21.6884 8.34042 21.696 8.34133 21.7035 8.34241C21.7097 8.34332 21.7158 8.34446 21.7221 8.34509C21.7361 8.34646 21.7501 8.3472 21.7641 8.3472H26.7867V20.2387H17.6497V14.2929C17.6497 13.5556 17.0514 12.9558 16.316 12.9558H12.684C11.9486 12.9558 11.3503 13.5556 11.3503 14.2929V20.2387H2.21332V8.3472ZM16.7984 14.7765H12.2016V14.2929C12.2016 14.0262 12.418 13.8093 12.684 13.8093H16.316C16.582 13.8093 16.7984 14.0262 16.7984 14.2929V14.7765ZM12.2016 15.63H14.0744V20.2387H12.2016V15.63ZM14.9256 15.63H16.7984V20.2387H14.9256V15.63Z" fill="#333333"/>
<path d="M14.5003 11.5343C16.2371 11.5343 17.65 10.1177 17.65 8.37653C17.65 6.63531 16.2371 5.21875 14.5003 5.21875C12.7635 5.21875 11.3506 6.63531 11.3506 8.37653C11.3506 10.1177 12.7635 11.5343 14.5003 11.5343ZM14.5003 6.0722C15.7677 6.0722 16.7987 7.10591 16.7987 8.37653C16.7987 9.64715 15.7677 10.6809 14.5003 10.6809C13.2329 10.6809 12.2019 9.64715 12.2019 8.37653C12.2019 7.10591 13.2329 6.0722 14.5003 6.0722Z" fill="#333333"/>
<path d="M14.4996 8.80296C14.7346 8.80296 14.9252 8.61191 14.9252 8.37624V7.01071C14.9252 6.77504 14.7346 6.58398 14.4996 6.58398C14.2645 6.58398 14.0739 6.77504 14.0739 7.01071V7.94951H13.1375C12.9025 7.94951 12.7119 8.14057 12.7119 8.37624C12.7119 8.61191 12.9025 8.80296 13.1375 8.80296H14.4996Z" fill="#333333"/>
<path d="M9.95936 15.2324H7.68931C7.45424 15.2324 7.26367 15.4235 7.26367 15.6591V18.3902C7.26367 18.6259 7.45424 18.8169 7.68931 18.8169H9.95936C10.1944 18.8169 10.385 18.6259 10.385 18.3902V15.6591C10.385 15.4235 10.1944 15.2324 9.95936 15.2324ZM9.53373 16.0859V16.5979H8.11494V16.0859H9.53373ZM8.11494 17.9635V17.4514H9.53373V17.9635H8.11494Z" fill="#333333"/>
<path d="M5.8744 15.2324H3.60435C3.36928 15.2324 3.17871 15.4235 3.17871 15.6591V18.3902C3.17871 18.6259 3.36928 18.8169 3.60435 18.8169H5.8744C6.10947 18.8169 6.30004 18.6259 6.30004 18.3902V15.6591C6.30004 15.4235 6.10947 15.2324 5.8744 15.2324ZM5.44877 16.0859V16.5979H4.02998V16.0859H5.44877ZM4.02998 17.9635V17.4514H5.44877V17.9635H4.02998Z" fill="#333333"/>
<path d="M9.81749 9.76953H7.83119C7.51826 9.76953 7.26367 10.0248 7.26367 10.3385V13.3825C7.26367 13.6182 7.45424 13.8092 7.68931 13.8092H9.95936C10.1944 13.8092 10.385 13.6182 10.385 13.3825V10.3385C10.385 10.0248 10.1304 9.76953 9.81749 9.76953ZM9.53373 10.623V11.5902H8.11494V10.623H9.53373ZM8.11494 12.9558V12.4437H9.53373V12.9558H8.11494Z" fill="#333333"/>
<path d="M5.73252 9.76953H3.74623C3.4333 9.76953 3.17871 10.0248 3.17871 10.3385V13.3825C3.17871 13.6182 3.36928 13.8092 3.60435 13.8092H5.8744C6.10947 13.8092 6.30004 13.6182 6.30004 13.3825V10.3385C6.30004 10.0248 6.04545 9.76953 5.73252 9.76953ZM5.44877 10.623V11.5902H4.02998V10.623H5.44877ZM4.02998 12.9558V12.4437H5.44877V12.9558H4.02998Z" fill="#333333"/>
<path d="M23.1258 18.8169H25.3959C25.631 18.8169 25.8215 18.6259 25.8215 18.3902V15.6591C25.8215 15.4235 25.631 15.2324 25.3959 15.2324H23.1258C22.8908 15.2324 22.7002 15.4235 22.7002 15.6591V18.3902C22.7002 18.6259 22.8908 18.8169 23.1258 18.8169ZM23.5515 17.9635V17.4514H24.9703V17.9635H23.5515ZM24.9703 16.0859V16.5979H23.5515V16.0859H24.9703Z" fill="#333333"/>
<path d="M19.0399 18.8169H21.31C21.545 18.8169 21.7356 18.6259 21.7356 18.3902V15.6591C21.7356 15.4235 21.545 15.2324 21.31 15.2324H19.0399C18.8048 15.2324 18.6143 15.4235 18.6143 15.6591V18.3902C18.6143 18.6259 18.8048 18.8169 19.0399 18.8169ZM19.4655 17.9635V17.4514H20.8843V17.9635H19.4655ZM20.8843 16.0859V16.5979H19.4655V16.0859H20.8843Z" fill="#333333"/>
<path d="M23.1258 13.8092H25.3959C25.631 13.8092 25.8215 13.6182 25.8215 13.3825V10.3385C25.8215 10.0248 25.5669 9.76953 25.254 9.76953H23.2677C22.9548 9.76953 22.7002 10.0248 22.7002 10.3385V13.3825C22.7002 13.6182 22.8908 13.8092 23.1258 13.8092ZM23.5515 12.9558V12.4437H24.9703V12.9558H23.5515ZM24.9703 10.623V11.5902H23.5515V10.623H24.9703Z" fill="#333333"/>
<path d="M19.0399 13.8092H21.31C21.545 13.8092 21.7356 13.6182 21.7356 13.3825V10.3385C21.7356 10.0248 21.481 9.76953 21.1681 9.76953H19.1818C18.8688 9.76953 18.6143 10.0248 18.6143 10.3385V13.3825C18.6143 13.6182 18.8048 13.8092 19.0399 13.8092ZM19.4655 12.9558V12.4437H20.8843V12.9558H19.4655ZM20.8843 10.623V11.5902H19.4655V10.623H20.8843Z" fill="#333333"/>
</svg>
