<svg width="64" height="42" viewBox="0 0 64 42" fill="none" xmlns="http://www.w3.org/2000/svg">
<path d="M16.04 41.9C8.06 41.9 0.56 34.76 0.56 20.96C0.56 7.22 8.06 0.0799975 16.04 0.0799975C24.02 0.0799975 31.52 7.22 31.52 21.02C31.52 34.76 24.02 41.9 16.04 41.9ZM16.04 6.8C12.68 6.8 8.36 10.58 8.36 20.96C8.36 31.4 12.62 35.18 16.04 35.18C19.46 35.18 23.72 31.4 23.72 20.96C23.72 10.58 19.4 6.8 16.04 6.8ZM34.1816 41L45.9416 27.62C46.6616 26.78 51.3416 21.44 52.7816 19.28C53.8616 17.66 55.1216 15.2 55.1216 12.86C55.1216 9.26 52.5416 6.8 49.1816 6.8C45.1016 6.8 42.9416 10.04 42.8216 13.46H34.7816C35.1416 5.3 40.9016 0.0799975 48.8216 0.0799975C58.1216 0.0799975 62.9216 6.44 62.9216 12.8C62.9216 18.98 58.7816 23.42 55.6616 26.78L48.7616 34.28H63.2216V41H34.1816Z" fill="#8A8E2F"/>
</svg>
