<svg width="150" height="213" viewBox="0 0 150 213" fill="none" xmlns="http://www.w3.org/2000/svg">
<path d="M147.301 62.4855C131.561 67.1831 93.0439 82.0826 94.8724 114.649C95.2446 121.144 98.0888 127.25 102.822 131.714C124.944 152.195 140.858 178.487 148.743 207.585C149.036 208.724 148.783 209.934 148.058 210.86C147.334 211.786 146.22 212.323 145.045 212.313L38.6172 212.29C36.8716 212.28 35.36 211.077 34.9567 209.379C16.9529 136.226 -41.214 118.646 -59.0323 114.937C-60.7719 114.564 -62.0109 113.021 -62 111.242V62.1294C-62.0004 61.0164 -61.5115 59.9599 -60.6628 59.2401C-59.814 58.5203 -58.6913 58.2105 -57.5939 58.393C-35.9137 62.2284 -14.5946 67.881 6.13786 75.2913V30.1124C-1.24509 28.2063 -6.05862 21.1078 -5.09776 13.5436C-4.13692 5.97943 2.29868 0.30957 9.92354 0.30957C17.5484 0.30957 23.984 5.97943 24.9444 13.5436C25.9049 21.1078 21.0917 28.2063 13.7088 30.1124V77.9678C15.3781 78.3774 17.1114 77.5965 17.9108 76.0752C37.4359 37.8156 121.079 31.7361 146.09 30.7749C147.115 30.7411 148.11 31.1246 148.847 31.8385C149.584 32.552 150 33.5344 150 34.5605V58.8705C150.003 60.541 148.903 62.0131 147.301 62.4855ZM-27.5147 89.7028C-32.5608 88.3172 -37.5573 87.1515 -42.3611 86.2353C-43.7033 85.9471 -45.0966 86.4086 -46.0018 87.4406C-46.907 88.4727 -47.1822 89.9144 -46.7212 91.2077C-46.2601 92.5011 -45.1349 93.443 -43.7804 93.6697C-39.1696 94.5518 -34.37 95.6723 -29.5169 97.0049C-29.1886 97.0946 -28.8502 97.1402 -28.5101 97.141C-26.6124 97.1423 -25.0072 95.7385 -24.7552 93.8577C-24.5036 91.9768 -25.6836 90.2001 -27.5147 89.7028ZM7.81093 102.872C2.69313 100.423 -2.5081 98.1824 -7.65623 96.2215C-8.92978 95.6913 -10.3913 95.8965 -11.4702 96.7562C-12.549 97.6164 -13.0745 98.9949 -12.8419 100.355C-12.6093 101.715 -11.6552 102.84 -10.3517 103.293C-5.40036 105.185 -0.388336 107.339 4.54404 109.697C5.05228 109.945 5.61024 110.075 6.17537 110.076C7.93735 110.069 9.46123 108.848 9.8519 107.13C10.2426 105.411 9.39633 103.651 7.8105 102.883V102.872H7.81093ZM41.6038 123.48C36.9302 119.871 32.0758 116.501 27.06 113.384C25.2828 112.283 22.9494 112.83 21.8474 114.607C20.7458 116.384 21.2932 118.718 23.0699 119.82C27.8649 122.794 32.5069 126.008 36.9778 129.45C38.634 130.69 40.9797 130.371 42.2439 128.733C43.5086 127.095 43.2233 124.745 41.6034 123.457L41.6038 123.48ZM52.434 137.698C50.9561 139.177 50.9561 141.573 52.434 143.051C57.5628 148.141 62.292 153.618 66.58 159.434C67.8207 161.118 70.1916 161.478 71.8757 160.236C73.5597 158.996 73.9191 156.625 72.678 154.941C68.1566 148.815 63.1732 143.044 57.771 137.679C56.2896 136.217 53.9052 136.225 52.434 137.698ZM77.6298 66.0549C76.4987 64.2968 74.1564 63.7885 72.3982 64.9192C66.6533 68.5064 61.4167 72.8492 56.8286 77.8313C55.8927 78.8355 55.5732 80.2675 55.9946 81.5744C56.4161 82.8808 57.5118 83.8572 58.8582 84.1253C60.2047 84.3933 61.5908 83.9116 62.4804 82.866C66.6104 78.3972 71.3211 74.5024 76.4865 71.2865C77.3319 70.7446 77.9277 69.8887 78.1418 68.9076C78.3563 67.9265 78.1722 66.9003 77.6298 66.0549ZM80.7113 174.614C79.8132 175.064 79.1313 175.853 78.8153 176.806C78.4992 177.76 78.5755 178.8 79.0264 179.697C82.5348 186.713 85.4548 194.007 87.7558 201.505C88.1364 202.819 89.1963 203.825 90.5275 204.138C91.8592 204.45 93.2559 204.019 94.1805 203.012C95.1055 202.004 95.4148 200.576 94.9896 199.276C92.5656 191.375 89.4887 183.689 85.7911 176.298C84.853 174.431 82.579 173.677 80.7113 174.614ZM107.626 52.8171C106.94 50.8432 104.785 49.7976 102.81 50.4816C97.6471 52.2646 92.6275 54.2668 87.8806 56.4738C86.6525 57.0411 85.8206 58.2206 85.698 59.5675C85.5754 60.9144 86.1805 62.225 87.2859 63.0047C88.3913 63.7843 89.8288 63.9154 91.0564 63.3481C95.5724 61.2625 100.361 59.3395 105.286 57.6319C107.262 56.9488 108.309 54.7932 107.626 52.8171ZM137.826 42.0476C132.594 42.8045 127.412 43.7851 122.427 44.9209C121.097 45.2104 120.024 46.1915 119.619 47.4907C119.213 48.79 119.535 50.2068 120.464 51.2018C121.392 52.1972 122.783 52.6174 124.107 52.3026C128.903 51.2123 133.893 50.281 138.931 49.5355C140.957 49.187 142.334 47.2855 142.034 45.2521C141.734 43.2183 139.866 41.796 137.826 42.0476Z" fill="white" fill-opacity="0.6"/>
</svg>
