<svg width="390" height="821" viewBox="0 0 390 821" fill="none" xmlns="http://www.w3.org/2000/svg">
<path d="M0.926334 29.705C0.926334 29.705 101.409 3.86661 160.3 17.52C255.791 39.6591 390.005 175 390.005 175L390.005 210.186L2.13362 210.186L0.926334 29.705Z" fill="#6FBADA"/>
<path d="M1.19673 147C1.19673 147 74.4214 118.431 123.51 108.5C165.588 99.9877 193.068 112.751 232.791 96.5C253.168 88.1634 262.24 78.8075 281.415 68C303.302 55.6646 314.914 47.2825 338.061 37.5C358.182 28.9961 391.197 20 391.197 20V820.5H1.19673V147Z" fill="#D6E816"/>
<path d="M-0.20478 349.059C-0.20478 349.059 129.067 328.379 210.201 307.447C291.811 286.391 415.653 241.618 415.653 241.618" stroke="white" stroke-opacity="0.6" stroke-width="2"/>
<path d="M-0.802437 345.083C-0.802437 345.083 128.47 324.403 209.604 303.47C291.213 282.414 415.055 237.641 415.055 237.641" stroke="white" stroke-opacity="0.6"/>
<path d="M-65.1728 319.705C-65.1728 319.705 85.9383 302.922 179.632 278.766C273.875 254.468 415.039 195.636 415.039 195.636" stroke="white" stroke-opacity="0.6" stroke-width="2"/>
<path d="M-66.1611 315.799C-66.1611 315.799 84.95 299.016 178.644 274.86C272.887 250.562 414.051 191.73 414.051 191.73" stroke="white" stroke-opacity="0.6"/>
</svg>
