<svg width="221" height="40" viewBox="0 0 221 40" fill="none" xmlns="http://www.w3.org/2000/svg">
<mask id="path-1-inside-1_0_187" fill="white">
<path d="M13.2571 38.5H0.0410626V1.148H17.9611C23.8971 1.148 27.3131 3.556 28.8811 5.068C31.9611 8.092 32.6891 11.9 32.6891 14.868C32.6891 17.948 32.0171 21.476 28.9931 24.22C26.0251 26.908 22.6651 27.244 19.8091 27.244H13.2571V38.5ZM13.2571 11.396V17.836H15.5531C16.2251 17.836 17.6251 17.78 18.5771 16.828C19.0811 16.38 19.4731 15.652 19.4731 14.532C19.4731 13.356 18.9691 12.628 18.4651 12.236C17.8491 11.732 16.7291 11.396 15.7211 11.396H13.2571ZM50.9446 38.5H37.3926V1.148H50.9446V38.5ZM85.7753 23.884L85.3833 37.828C81.8553 39.172 77.7113 39.34 75.9753 39.34C71.1033 39.34 65.8953 37.604 62.1993 33.908C58.6713 30.436 56.7673 25.396 56.7673 20.132C56.7673 14.364 58.9513 9.436 62.3673 5.964C64.9993 3.332 69.4793 0.307998 76.4793 0.307998C79.2793 0.307998 82.4153 0.755999 85.3833 1.764L85.7753 15.988C84.2073 14.42 81.2953 12.292 77.8793 12.292C75.7513 12.292 73.7913 13.132 72.4473 14.588C71.1593 15.988 70.4873 17.948 70.4873 19.908C70.4873 21.924 71.2153 23.884 72.6713 25.284C73.7913 26.348 75.5273 27.412 78.2153 27.412C82.0233 27.412 84.6553 25.116 85.7753 23.884ZM104.525 38.5H91.5333V1.148H104.525V12.74C104.525 14.42 104.469 15.764 104.245 17.444H104.525C105.309 15.316 105.813 14.476 106.485 13.244L112.925 1.148H127.597L115.949 19.46L128.829 38.5H113.149L106.317 26.516C105.645 25.396 105.029 24.052 104.525 22.932H104.245C104.469 24.22 104.525 25.228 104.525 26.46V38.5ZM146.057 25.004V1.148H159.497V22.82C159.497 23.94 159.609 25.508 160.673 26.628C161.401 27.412 162.297 27.636 163.361 27.636C164.761 27.636 165.601 27.244 166.105 26.74C167.113 25.732 167.113 23.772 167.113 22.82V1.148H180.609V24.052C180.609 26.964 180.049 31.22 176.689 34.692C172.881 38.612 167.505 39.34 163.361 39.34C159.945 39.34 153.729 39.004 149.473 34.412C146.561 31.276 146.057 27.748 146.057 25.004ZM201.327 38.5H188.111V1.148H206.031C211.967 1.148 215.383 3.556 216.951 5.068C220.031 8.092 220.759 11.9 220.759 14.868C220.759 17.948 220.087 21.476 217.063 24.22C214.095 26.908 210.735 27.244 207.879 27.244H201.327V38.5ZM201.327 11.396V17.836H203.623C204.295 17.836 205.695 17.78 206.647 16.828C207.151 16.38 207.543 15.652 207.543 14.532C207.543 13.356 207.039 12.628 206.535 12.236C205.919 11.732 204.799 11.396 203.791 11.396H201.327Z"/>
</mask>
<path d="M13.2571 38.5H0.0410626V1.148H17.9611C23.8971 1.148 27.3131 3.556 28.8811 5.068C31.9611 8.092 32.6891 11.9 32.6891 14.868C32.6891 17.948 32.0171 21.476 28.9931 24.22C26.0251 26.908 22.6651 27.244 19.8091 27.244H13.2571V38.5ZM13.2571 11.396V17.836H15.5531C16.2251 17.836 17.6251 17.78 18.5771 16.828C19.0811 16.38 19.4731 15.652 19.4731 14.532C19.4731 13.356 18.9691 12.628 18.4651 12.236C17.8491 11.732 16.7291 11.396 15.7211 11.396H13.2571ZM50.9446 38.5H37.3926V1.148H50.9446V38.5ZM85.7753 23.884L85.3833 37.828C81.8553 39.172 77.7113 39.34 75.9753 39.34C71.1033 39.34 65.8953 37.604 62.1993 33.908C58.6713 30.436 56.7673 25.396 56.7673 20.132C56.7673 14.364 58.9513 9.436 62.3673 5.964C64.9993 3.332 69.4793 0.307998 76.4793 0.307998C79.2793 0.307998 82.4153 0.755999 85.3833 1.764L85.7753 15.988C84.2073 14.42 81.2953 12.292 77.8793 12.292C75.7513 12.292 73.7913 13.132 72.4473 14.588C71.1593 15.988 70.4873 17.948 70.4873 19.908C70.4873 21.924 71.2153 23.884 72.6713 25.284C73.7913 26.348 75.5273 27.412 78.2153 27.412C82.0233 27.412 84.6553 25.116 85.7753 23.884ZM104.525 38.5H91.5333V1.148H104.525V12.74C104.525 14.42 104.469 15.764 104.245 17.444H104.525C105.309 15.316 105.813 14.476 106.485 13.244L112.925 1.148H127.597L115.949 19.46L128.829 38.5H113.149L106.317 26.516C105.645 25.396 105.029 24.052 104.525 22.932H104.245C104.469 24.22 104.525 25.228 104.525 26.46V38.5ZM146.057 25.004V1.148H159.497V22.82C159.497 23.94 159.609 25.508 160.673 26.628C161.401 27.412 162.297 27.636 163.361 27.636C164.761 27.636 165.601 27.244 166.105 26.74C167.113 25.732 167.113 23.772 167.113 22.82V1.148H180.609V24.052C180.609 26.964 180.049 31.22 176.689 34.692C172.881 38.612 167.505 39.34 163.361 39.34C159.945 39.34 153.729 39.004 149.473 34.412C146.561 31.276 146.057 27.748 146.057 25.004ZM201.327 38.5H188.111V1.148H206.031C211.967 1.148 215.383 3.556 216.951 5.068C220.031 8.092 220.759 11.9 220.759 14.868C220.759 17.948 220.087 21.476 217.063 24.22C214.095 26.908 210.735 27.244 207.879 27.244H201.327V38.5ZM201.327 11.396V17.836H203.623C204.295 17.836 205.695 17.78 206.647 16.828C207.151 16.38 207.543 15.652 207.543 14.532C207.543 13.356 207.039 12.628 206.535 12.236C205.919 11.732 204.799 11.396 203.791 11.396H201.327Z" fill="white"/>
<path d="M13.2571 38.5V39.5C13.8093 39.5 14.2571 39.0523 14.2571 38.5H13.2571ZM0.0410626 38.5H-0.958937C-0.958937 39.0523 -0.511222 39.5 0.0410626 39.5V38.5ZM0.0410626 1.148V0.147997C-0.511222 0.147997 -0.958937 0.595712 -0.958937 1.148H0.0410626ZM28.8811 5.068L29.5817 4.35441L29.5752 4.34816L28.8811 5.068ZM28.9931 24.22L29.6643 24.9612L29.6651 24.9606L28.9931 24.22ZM13.2571 27.244V26.244C12.7048 26.244 12.2571 26.6917 12.2571 27.244H13.2571ZM13.2571 11.396V10.396C12.7048 10.396 12.2571 10.8437 12.2571 11.396H13.2571ZM13.2571 17.836H12.2571C12.2571 18.3883 12.7048 18.836 13.2571 18.836V17.836ZM18.5771 16.828L17.9127 16.0806C17.8981 16.0936 17.8838 16.107 17.87 16.1209L18.5771 16.828ZM18.4651 12.236L17.8318 13.01C17.8382 13.0152 17.8446 13.0203 17.8511 13.0254L18.4651 12.236ZM13.2571 37.5H0.0410626V39.5H13.2571V37.5ZM1.04106 38.5V1.148H-0.958937V38.5H1.04106ZM0.0410626 2.148H17.9611V0.147997H0.0410626V2.148ZM17.9611 2.148C23.5939 2.148 26.7708 4.42229 28.1869 5.78784L29.5752 4.34816C27.8553 2.68971 24.2003 0.147997 17.9611 0.147997V2.148ZM28.1805 5.78156C30.9981 8.54796 31.6891 12.0495 31.6891 14.868H33.6891C33.6891 11.7505 32.924 7.63603 29.5817 4.35444L28.1805 5.78156ZM31.6891 14.868C31.6891 17.8103 31.049 21.0041 28.3211 23.4794L29.6651 24.9606C32.9851 21.9479 33.6891 18.0857 33.6891 14.868H31.6891ZM28.3218 23.4788C25.6345 25.9125 22.5894 26.244 19.8091 26.244V28.244C22.7407 28.244 26.4156 27.9035 29.6643 24.9612L28.3218 23.4788ZM19.8091 26.244H13.2571V28.244H19.8091V26.244ZM12.2571 27.244V38.5H14.2571V27.244H12.2571ZM12.2571 11.396V17.836H14.2571V11.396H12.2571ZM13.2571 18.836H15.5531V16.836H13.2571V18.836ZM15.5531 18.836C16.2224 18.836 18.0156 18.8037 19.2842 17.5351L17.87 16.1209C17.2345 16.7563 16.2277 16.836 15.5531 16.836V18.836ZM19.2414 17.5754C19.9797 16.9192 20.4731 15.9086 20.4731 14.532H18.4731C18.4731 15.3954 18.1825 15.8408 17.9127 16.0806L19.2414 17.5754ZM20.4731 14.532C20.4731 13.0345 19.8162 12.02 19.079 11.4466L17.8511 13.0254C18.1219 13.236 18.4731 13.6775 18.4731 14.532H20.4731ZM19.0983 11.462C18.2551 10.7722 16.8883 10.396 15.7211 10.396V12.396C16.5698 12.396 17.443 12.6918 17.8318 13.01L19.0983 11.462ZM15.7211 10.396H13.2571V12.396H15.7211V10.396ZM50.9446 38.5V39.5C51.4969 39.5 51.9446 39.0523 51.9446 38.5H50.9446ZM37.3926 38.5H36.3926C36.3926 39.0523 36.8403 39.5 37.3926 39.5V38.5ZM37.3926 1.148V0.147997C36.8403 0.147997 36.3926 0.595712 36.3926 1.148H37.3926ZM50.9446 1.148H51.9446C51.9446 0.595712 51.4969 0.147997 50.9446 0.147997V1.148ZM50.9446 37.5H37.3926V39.5H50.9446V37.5ZM38.3926 38.5V1.148H36.3926V38.5H38.3926ZM37.3926 2.148H50.9446V0.147997H37.3926V2.148ZM49.9446 1.148V38.5H51.9446V1.148H49.9446ZM85.7753 23.884L86.7749 23.9121C86.7867 23.494 86.537 23.1127 86.149 22.9564C85.761 22.8001 85.3167 22.9018 85.0354 23.2113L85.7753 23.884ZM85.3833 37.828L85.7393 38.7625C86.1175 38.6184 86.3715 38.2606 86.3829 37.8561L85.3833 37.828ZM62.1993 33.908L62.9064 33.2009L62.9007 33.1953L62.1993 33.908ZM62.3673 5.964L61.6602 5.25687L61.6545 5.26266L62.3673 5.964ZM85.3833 1.764L86.3829 1.73645C86.3714 1.31837 86.1009 0.951617 85.7049 0.817117L85.3833 1.764ZM85.7753 15.988L85.0682 16.6951C85.3578 16.9847 85.7946 17.0684 86.1707 16.9065C86.5468 16.7446 86.7862 16.3698 86.7749 15.9605L85.7753 15.988ZM72.4473 14.588L71.7125 13.9097L71.7114 13.9109L72.4473 14.588ZM72.6713 25.284L71.9782 26.0048L71.9826 26.009L72.6713 25.284ZM84.7757 23.8559L84.3837 37.7999L86.3829 37.8561L86.7749 23.9121L84.7757 23.8559ZM85.0273 36.8935C81.6754 38.1704 77.6818 38.34 75.9753 38.34V40.34C77.7408 40.34 82.0352 40.1736 85.7393 38.7625L85.0273 36.8935ZM75.9753 38.34C71.3211 38.34 66.3838 36.6783 62.9064 33.2009L61.4922 34.6151C65.4068 38.5297 70.8855 40.34 75.9753 40.34V38.34ZM62.9007 33.1953C59.5887 29.9358 57.7673 25.1651 57.7673 20.132H55.7673C55.7673 25.6269 57.7539 30.9362 61.4979 34.6207L62.9007 33.1953ZM57.7673 20.132C57.7673 14.6241 59.8498 9.94867 63.0801 6.66533L61.6545 5.26266C58.0529 8.92332 55.7673 14.1039 55.7673 20.132H57.7673ZM63.0744 6.67111C65.5663 4.17927 69.8048 1.308 76.4793 1.308V-0.692002C69.1539 -0.692002 64.4324 2.48473 61.6602 5.25689L63.0744 6.67111ZM76.4793 1.308C79.1794 1.308 82.2059 1.74097 85.0617 2.71088L85.7049 0.817117C82.6247 -0.228976 79.3792 -0.692002 76.4793 -0.692002V1.308ZM84.3837 1.79155L84.7757 16.0155L86.7749 15.9605L86.3829 1.73645L84.3837 1.79155ZM86.4824 15.2809C84.843 13.6415 81.6889 11.292 77.8793 11.292V13.292C80.9017 13.292 83.5716 15.1985 85.0682 16.6951L86.4824 15.2809ZM77.8793 11.292C75.4891 11.292 73.257 12.2365 71.7125 13.9097L73.1821 15.2663C74.3256 14.0275 76.0135 13.292 77.8793 13.292V11.292ZM71.7114 13.9109C70.2302 15.521 69.4873 17.734 69.4873 19.908H71.4873C71.4873 18.162 72.0885 16.455 73.1832 15.2651L71.7114 13.9109ZM69.4873 19.908C69.4873 22.1593 70.3011 24.3923 71.9782 26.0048L73.3644 24.5632C72.1295 23.3757 71.4873 21.6887 71.4873 19.908H69.4873ZM71.9826 26.009C73.2523 27.2152 75.2251 28.412 78.2153 28.412V26.412C75.8295 26.412 74.3304 25.4808 73.3601 24.559L71.9826 26.009ZM78.2153 28.412C82.4371 28.412 85.3179 25.8738 86.5153 24.5567L85.0354 23.2113C83.9927 24.3582 81.6095 26.412 78.2153 26.412V28.412ZM104.525 38.5V39.5C105.078 39.5 105.525 39.0523 105.525 38.5H104.525ZM91.5333 38.5H90.5333C90.5333 39.0523 90.981 39.5 91.5333 39.5V38.5ZM91.5333 1.148V0.147997C90.981 0.147997 90.5333 0.595712 90.5333 1.148H91.5333ZM104.525 1.148H105.525C105.525 0.595712 105.078 0.147997 104.525 0.147997V1.148ZM104.245 17.444L103.254 17.3118C103.216 17.5976 103.303 17.8858 103.493 18.1027C103.683 18.3196 103.957 18.444 104.245 18.444V17.444ZM104.525 17.444V18.444C104.944 18.444 105.319 18.1828 105.464 17.7897L104.525 17.444ZM106.485 13.244L107.363 13.7229L107.368 13.7139L106.485 13.244ZM112.925 1.148V0.147997C112.556 0.147997 112.216 0.351828 112.043 0.678045L112.925 1.148ZM127.597 1.148L128.441 1.68471C128.637 1.37678 128.649 0.986597 128.474 0.666701C128.298 0.346805 127.962 0.147997 127.597 0.147997V1.148ZM115.949 19.46L115.105 18.9233C114.892 19.2594 114.898 19.6904 115.121 20.0203L115.949 19.46ZM128.829 38.5V39.5C129.199 39.5 129.539 39.2957 129.713 38.9689C129.886 38.6421 129.865 38.2462 129.658 37.9397L128.829 38.5ZM113.149 38.5L112.281 38.9953C112.458 39.3073 112.79 39.5 113.149 39.5V38.5ZM106.317 26.516L107.186 26.0207C107.182 26.0143 107.179 26.0079 107.175 26.0015L106.317 26.516ZM104.525 22.932L105.437 22.5216C105.276 22.1628 104.919 21.932 104.525 21.932V22.932ZM104.245 22.932V21.932C103.95 21.932 103.67 22.0624 103.48 22.2883C103.29 22.5142 103.209 22.8125 103.26 23.1033L104.245 22.932ZM104.525 37.5H91.5333V39.5H104.525V37.5ZM92.5333 38.5V1.148H90.5333V38.5H92.5333ZM91.5333 2.148H104.525V0.147997H91.5333V2.148ZM103.525 1.148V12.74H105.525V1.148H103.525ZM103.525 12.74C103.525 14.3914 103.47 15.6888 103.254 17.3118L105.236 17.5762C105.468 15.8392 105.525 14.4486 105.525 12.74H103.525ZM104.245 18.444H104.525V16.444H104.245V18.444ZM105.464 17.7897C106.22 15.7363 106.693 14.952 107.363 13.7228L105.607 12.7651C104.934 14 104.398 14.8957 103.587 17.0983L105.464 17.7897ZM107.368 13.7139L113.808 1.61795L112.043 0.678045L105.603 12.774L107.368 13.7139ZM112.925 2.148H127.597V0.147997H112.925V2.148ZM126.753 0.611288L115.105 18.9233L116.793 19.9967L128.441 1.68471L126.753 0.611288ZM115.121 20.0203L128.001 39.0603L129.658 37.9397L116.778 18.8997L115.121 20.0203ZM128.829 37.5H113.149V39.5H128.829V37.5ZM114.018 38.0047L107.186 26.0207L105.449 27.0113L112.281 38.9953L114.018 38.0047ZM107.175 26.0015C106.537 24.939 105.943 23.6465 105.437 22.5216L103.613 23.3424C104.115 24.4575 104.753 25.853 105.46 27.0305L107.175 26.0015ZM104.525 21.932H104.245V23.932H104.525V21.932ZM103.26 23.1033C103.472 24.3199 103.525 25.268 103.525 26.46H105.525C105.525 25.188 105.467 24.1201 105.23 22.7607L103.26 23.1033ZM103.525 26.46V38.5H105.525V26.46H103.525ZM146.057 1.148V0.147997C145.504 0.147997 145.057 0.595712 145.057 1.148H146.057ZM159.497 1.148H160.497C160.497 0.595712 160.049 0.147997 159.497 0.147997V1.148ZM160.673 26.628L161.406 25.9475L161.398 25.9392L160.673 26.628ZM167.113 1.148V0.147997C166.56 0.147997 166.113 0.595712 166.113 1.148H167.113ZM180.609 1.148H181.609C181.609 0.595712 181.161 0.147997 180.609 0.147997V1.148ZM176.689 34.692L177.406 35.3888L177.407 35.3874L176.689 34.692ZM149.473 34.412L150.206 33.7322L150.205 33.7315L149.473 34.412ZM147.057 25.004V1.148H145.057V25.004H147.057ZM146.057 2.148H159.497V0.147997H146.057V2.148ZM158.497 1.148V22.82H160.497V1.148H158.497ZM158.497 22.82C158.497 23.9517 158.59 25.888 159.948 27.3167L161.398 25.9392C160.627 25.128 160.497 23.9283 160.497 22.82H158.497ZM159.94 27.3085C160.929 28.3737 162.146 28.636 163.361 28.636V26.636C162.448 26.636 161.872 26.4503 161.405 25.9475L159.94 27.3085ZM163.361 28.636C164.953 28.636 166.074 28.1845 166.812 27.4471L165.398 26.0329C165.127 26.3035 164.568 26.636 163.361 26.636V28.636ZM166.812 27.4471C167.533 26.7256 167.834 25.7376 167.972 24.928C168.115 24.0985 168.113 23.2911 168.113 22.82H166.113C166.113 23.3009 166.111 23.9495 166.001 24.59C165.888 25.2504 165.684 25.7464 165.398 26.0329L166.812 27.4471ZM168.113 22.82V1.148H166.113V22.82H168.113ZM167.113 2.148H180.609V0.147997H167.113V2.148ZM179.609 1.148V24.052H181.609V1.148H179.609ZM179.609 24.052C179.609 26.8523 179.068 30.7955 175.97 33.9966L177.407 35.3874C181.029 31.6445 181.609 27.0757 181.609 24.052H179.609ZM175.971 33.9952C172.455 37.6147 167.432 38.34 163.361 38.34V40.34C167.577 40.34 173.306 39.6093 177.406 35.3888L175.971 33.9952ZM163.361 38.34C159.957 38.34 154.147 37.9842 150.206 33.7322L148.739 35.0918C153.31 40.0238 159.932 40.34 163.361 40.34V38.34ZM150.205 33.7315C147.535 30.8558 147.057 27.6217 147.057 25.004H145.057C145.057 27.8743 145.586 31.6962 148.74 35.0925L150.205 33.7315ZM201.327 38.5V39.5C201.88 39.5 202.327 39.0523 202.327 38.5H201.327ZM188.111 38.5H187.111C187.111 39.0523 187.559 39.5 188.111 39.5V38.5ZM188.111 1.148V0.147997C187.559 0.147997 187.111 0.595712 187.111 1.148H188.111ZM216.951 5.068L217.652 4.35441L217.646 4.34816L216.951 5.068ZM217.063 24.22L217.735 24.9612L217.735 24.9606L217.063 24.22ZM201.327 27.244V26.244C200.775 26.244 200.327 26.6917 200.327 27.244H201.327ZM201.327 11.396V10.396C200.775 10.396 200.327 10.8437 200.327 11.396H201.327ZM201.327 17.836H200.327C200.327 18.3883 200.775 18.836 201.327 18.836V17.836ZM206.647 16.828L205.983 16.0806C205.968 16.0936 205.954 16.107 205.94 16.1209L206.647 16.828ZM206.535 12.236L205.902 13.01C205.909 13.0152 205.915 13.0203 205.921 13.0254L206.535 12.236ZM201.327 37.5H188.111V39.5H201.327V37.5ZM189.111 38.5V1.148H187.111V38.5H189.111ZM188.111 2.148H206.031V0.147997H188.111V2.148ZM206.031 2.148C211.664 2.148 214.841 4.42229 216.257 5.78784L217.646 4.34816C215.926 2.68971 212.271 0.147997 206.031 0.147997V2.148ZM216.251 5.78156C219.068 8.54796 219.759 12.0495 219.759 14.868H221.759C221.759 11.7505 220.994 7.63603 217.652 4.35444L216.251 5.78156ZM219.759 14.868C219.759 17.8103 219.119 21.0041 216.391 23.4794L217.735 24.9606C221.055 21.9479 221.759 18.0857 221.759 14.868H219.759ZM216.392 23.4788C213.705 25.9125 210.66 26.244 207.879 26.244V28.244C210.811 28.244 214.486 27.9035 217.735 24.9612L216.392 23.4788ZM207.879 26.244H201.327V28.244H207.879V26.244ZM200.327 27.244V38.5H202.327V27.244H200.327ZM200.327 11.396V17.836H202.327V11.396H200.327ZM201.327 18.836H203.623V16.836H201.327V18.836ZM203.623 18.836C204.293 18.836 206.086 18.8037 207.354 17.5351L205.94 16.1209C205.305 16.7563 204.298 16.836 203.623 16.836V18.836ZM207.312 17.5754C208.05 16.9192 208.543 15.9086 208.543 14.532H206.543C206.543 15.3954 206.253 15.8408 205.983 16.0806L207.312 17.5754ZM208.543 14.532C208.543 13.0345 207.887 12.02 207.149 11.4466L205.921 13.0254C206.192 13.236 206.543 13.6775 206.543 14.532H208.543ZM207.169 11.462C206.325 10.7722 204.959 10.396 203.791 10.396V12.396C204.64 12.396 205.513 12.6918 205.902 13.01L207.169 11.462ZM203.791 10.396H201.327V12.396H203.791V10.396Z" fill="#333333" mask="url(#path-1-inside-1_0_187)"/>
</svg>
