<svg width="73" height="73" viewBox="0 0 73 73" fill="none" xmlns="http://www.w3.org/2000/svg">
<rect x="0.5" y="0.439941" width="72" height="72" rx="36" fill="#ECF491"/>
<path d="M42.203 55.6499L40.7443 48.2927C40.6746 47.9423 40.3697 47.6899 40.0154 47.6899H32.5806C32.2263 47.6899 31.921 47.9423 31.8516 48.2927L30.3647 55.7927C30.3207 56.0132 30.3774 56.2417 30.5186 56.4153C30.6598 56.5892 30.8707 56.6899 31.0936 56.6899H41.5023C41.5081 56.6899 41.5125 56.6896 41.5168 56.6899C41.9278 56.6899 42.2603 56.3541 42.2603 55.9399C42.2603 55.837 42.24 55.7393 42.203 55.6499Z" fill="#9E9E9E"/>
<path d="M45.2194 55.1899H27.3759C26.146 55.1899 25.1455 56.1992 25.1455 57.4399V58.9399C25.1455 59.3541 25.4784 59.6899 25.889 59.6899H46.7064C47.1173 59.6899 47.4499 59.3541 47.4499 58.9399V57.4399C47.4499 56.1992 46.4494 55.1899 45.2194 55.1899Z" fill="#BDBDBD"/>
<path d="M55.6283 13.1899H16.9674C14.9177 13.1899 13.25 14.8723 13.25 16.9399V45.4399C13.25 47.5076 14.9177 49.1899 16.9674 49.1899H55.6283C57.6779 49.1899 59.3456 47.5076 59.3456 45.4399V16.9399C59.3456 14.8723 57.6779 13.1899 55.6283 13.1899Z" fill="#64B5F6"/>
<path d="M13.25 41.6899V45.4399C13.25 47.5076 14.9177 49.1899 16.9674 49.1899H55.6283C57.6779 49.1899 59.3456 47.5076 59.3456 45.4399V41.6899H13.25Z" fill="#BDBDBD"/>
<path d="M25.8889 21.4399H21.428C21.0175 21.4399 20.6846 21.1041 20.6846 20.6899C20.6846 20.2758 21.0175 19.9399 21.428 19.9399H25.8889C26.2995 19.9399 26.6324 20.2758 26.6324 20.6899C26.6324 21.1041 26.2995 21.4399 25.8889 21.4399Z" fill="#E0E0E0"/>
<path d="M35.5541 25.1899H21.428C21.0175 25.1899 20.6846 24.8541 20.6846 24.4399C20.6846 24.0258 21.0175 23.6899 21.428 23.6899H35.5541C35.9647 23.6899 36.2976 24.0258 36.2976 24.4399C36.2976 24.8541 35.9647 25.1899 35.5541 25.1899Z" fill="#E0E0E0"/>
<path d="M35.5541 28.1899H21.428C21.0175 28.1899 20.6846 27.8541 20.6846 27.4399C20.6846 27.0258 21.0175 26.6899 21.428 26.6899H35.5541C35.9647 26.6899 36.2976 27.0258 36.2976 27.4399C36.2976 27.8541 35.9647 28.1899 35.5541 28.1899Z" fill="#E0E0E0"/>
<path d="M35.5541 31.1899H21.428C21.0175 31.1899 20.6846 30.8541 20.6846 30.4399C20.6846 30.0258 21.0175 29.6899 21.428 29.6899H35.5541C35.9647 29.6899 36.2976 30.0258 36.2976 30.4399C36.2976 30.8541 35.9647 31.1899 35.5541 31.1899Z" fill="#E0E0E0"/>
<path d="M35.5541 34.1899H21.428C21.0175 34.1899 20.6846 33.8541 20.6846 33.4399C20.6846 33.0258 21.0175 32.6899 21.428 32.6899H35.5541C35.9647 32.6899 36.2976 33.0258 36.2976 33.4399C36.2976 33.8541 35.9647 34.1899 35.5541 34.1899Z" fill="#E0E0E0"/>
<path d="M35.5541 37.1899H21.428C21.0175 37.1899 20.6846 36.8541 20.6846 36.4399C20.6846 36.0258 21.0175 35.6899 21.428 35.6899H35.5541C35.9647 35.6899 36.2976 36.0258 36.2976 36.4399C36.2976 36.8541 35.9647 37.1899 35.5541 37.1899Z" fill="#E0E0E0"/>
<path d="M51.1673 52.1899H40.7586C39.1184 52.1899 37.7847 50.8441 37.7847 49.1899V26.6899C37.7847 25.0358 39.1184 23.6899 40.7586 23.6899H51.1673C52.8074 23.6899 54.1412 25.0358 54.1412 26.6899V49.1899C54.1412 50.8441 52.8074 52.1899 51.1673 52.1899Z" fill="#607D8B"/>
<path d="M40.7584 25.1899C39.9387 25.1899 39.2715 25.8627 39.2715 26.6899V49.1899C39.2715 50.0172 39.9387 50.6899 40.7584 50.6899H51.1671C51.9868 50.6899 52.6541 50.0172 52.6541 49.1899V26.6899C52.6541 25.8627 51.9868 25.1899 51.1671 25.1899H40.7584Z" fill="#FFCA28"/>
<path d="M49.5403 24.0016C49.4002 23.8057 49.1758 23.6899 48.9369 23.6899H42.9891C42.7503 23.6899 42.5259 23.8057 42.3858 24.0016C42.2464 24.1971 42.2079 24.4484 42.2841 24.6772L43.0276 26.9272C43.1285 27.2334 43.4124 27.4399 43.7326 27.4399H48.1935C48.5137 27.4399 48.7975 27.2334 48.8985 26.9272L49.6419 24.6772C49.7182 24.4484 49.6797 24.1971 49.5403 24.0016Z" fill="#607D8B"/>
<path d="M46.706 49.9399H45.2191C44.8081 49.9399 44.4756 49.6041 44.4756 49.1899C44.4756 48.7758 44.8081 48.4399 45.2191 48.4399H46.706C47.117 48.4399 47.4495 48.7758 47.4495 49.1899C47.4495 49.6041 47.117 49.9399 46.706 49.9399Z" fill="#607D8B"/>
<path d="M45.9626 32.6899C43.0933 32.6899 40.7583 35.045 40.7583 37.9399C40.7583 40.8348 43.0933 43.1899 45.9626 43.1899C48.832 43.1899 51.167 40.8348 51.167 37.9399C51.167 35.045 48.832 32.6899 45.9626 32.6899Z" fill="#66BB6A"/>
<path d="M45.2192 40.1899C45.029 40.1899 44.8388 40.1167 44.6935 39.9702L43.2066 38.4702C42.9162 38.1772 42.9162 37.7026 43.2066 37.4097C43.497 37.1167 43.9675 37.1167 44.2579 37.4097L45.2192 38.3794L47.6675 35.9097C47.9579 35.6167 48.4284 35.6167 48.7188 35.9097C49.0092 36.2026 49.0092 36.6772 48.7188 36.9702L45.7449 39.9702C45.5997 40.1167 45.4094 40.1899 45.2192 40.1899Z" fill="#E0E0E0"/>
</svg>
