<svg width="265" height="39" viewBox="0 0 265 39" fill="none" xmlns="http://www.w3.org/2000/svg">
<mask id="path-1-outside-1_0_6216" maskUnits="userSpaceOnUse" x="-1" y="-0.745117" width="267" height="40" fill="black">
<rect fill="white" x="-1" y="-0.745117" width="267" height="40"/>
<path d="M13.7375 38.2549H0.521531V0.90288H18.4415C24.3775 0.90288 27.7935 3.31088 29.3615 4.82288C32.4415 7.84688 33.1695 11.6549 33.1695 14.6229C33.1695 17.7029 32.4975 21.2309 29.4735 23.9749C26.5055 26.6629 23.1455 26.9989 20.2895 26.9989H13.7375V38.2549ZM13.7375 11.1509V17.5909H16.0335C16.7055 17.5909 18.1055 17.5349 19.0575 16.5829C19.5615 16.1349 19.9535 15.4069 19.9535 14.2869C19.9535 13.1109 19.4495 12.3829 18.9455 11.9909C18.3295 11.4869 17.2095 11.1509 16.2015 11.1509H13.7375ZM56.98 33.6069H46.676L45.668 38.2549H31.332L44.268 0.90288H59.276L72.604 38.2549H58.212L56.98 33.6069ZM52.892 17.5909C52.556 16.1349 52.332 14.7349 52.164 13.3909H51.66C51.604 14.9589 51.38 16.2469 51.044 17.5909L49.196 24.7589H54.628L52.892 17.5909ZM81.0102 22.1829L68.0182 0.90288H83.3622L86.5542 7.73488C86.7782 8.23888 87.2262 9.30288 87.5622 10.7029H87.9542C88.2342 9.13488 88.6262 8.57488 88.9622 7.73488L91.8742 0.90288H107.162L94.3942 22.1829V38.2549H81.0102V22.1829ZM120.013 38.2549H106.853L112.901 0.90288H126.845L131.213 16.1909C131.773 18.1509 131.997 19.9989 132.053 20.5029H132.389C132.445 18.8789 132.669 17.7589 133.117 16.1909L137.485 0.90288H151.317L157.421 38.2549H144.373L142.693 21.5109C142.581 20.2229 142.469 19.3829 142.469 17.8149H142.245C142.077 18.7669 141.741 20.2229 141.517 20.9509L135.973 38.2549H128.021L123.037 21.9029C122.645 20.5589 122.365 19.3829 122.309 17.8149H121.917C121.917 18.5429 121.917 19.9989 121.861 20.7269L120.013 38.2549ZM188.972 38.2549H163.436V0.90288H188.636V11.1509H176.988V14.6229H187.572V24.4229H176.988V28.0069H188.972V38.2549ZM207.708 38.2549H194.772V0.90288H207.708L216.388 15.0149C217.788 17.2549 218.684 18.7109 219.916 21.6229H220.308C219.748 19.2709 219.132 15.5189 219.132 12.7749V0.90288H232.124V38.2549H219.132L209.836 23.5269C208.996 22.1829 207.988 20.2229 207.26 18.6549H206.868C207.26 20.6709 207.708 23.8629 207.708 25.5429V38.2549ZM257.199 38.2549H243.871V12.7189L236.255 13.0549V0.90288H264.815V13.0549L257.199 12.7189V38.2549Z"/>
</mask>
<path d="M13.7375 38.2549H0.521531V0.90288H18.4415C24.3775 0.90288 27.7935 3.31088 29.3615 4.82288C32.4415 7.84688 33.1695 11.6549 33.1695 14.6229C33.1695 17.7029 32.4975 21.2309 29.4735 23.9749C26.5055 26.6629 23.1455 26.9989 20.2895 26.9989H13.7375V38.2549ZM13.7375 11.1509V17.5909H16.0335C16.7055 17.5909 18.1055 17.5349 19.0575 16.5829C19.5615 16.1349 19.9535 15.4069 19.9535 14.2869C19.9535 13.1109 19.4495 12.3829 18.9455 11.9909C18.3295 11.4869 17.2095 11.1509 16.2015 11.1509H13.7375ZM56.98 33.6069H46.676L45.668 38.2549H31.332L44.268 0.90288H59.276L72.604 38.2549H58.212L56.98 33.6069ZM52.892 17.5909C52.556 16.1349 52.332 14.7349 52.164 13.3909H51.66C51.604 14.9589 51.38 16.2469 51.044 17.5909L49.196 24.7589H54.628L52.892 17.5909ZM81.0102 22.1829L68.0182 0.90288H83.3622L86.5542 7.73488C86.7782 8.23888 87.2262 9.30288 87.5622 10.7029H87.9542C88.2342 9.13488 88.6262 8.57488 88.9622 7.73488L91.8742 0.90288H107.162L94.3942 22.1829V38.2549H81.0102V22.1829ZM120.013 38.2549H106.853L112.901 0.90288H126.845L131.213 16.1909C131.773 18.1509 131.997 19.9989 132.053 20.5029H132.389C132.445 18.8789 132.669 17.7589 133.117 16.1909L137.485 0.90288H151.317L157.421 38.2549H144.373L142.693 21.5109C142.581 20.2229 142.469 19.3829 142.469 17.8149H142.245C142.077 18.7669 141.741 20.2229 141.517 20.9509L135.973 38.2549H128.021L123.037 21.9029C122.645 20.5589 122.365 19.3829 122.309 17.8149H121.917C121.917 18.5429 121.917 19.9989 121.861 20.7269L120.013 38.2549ZM188.972 38.2549H163.436V0.90288H188.636V11.1509H176.988V14.6229H187.572V24.4229H176.988V28.0069H188.972V38.2549ZM207.708 38.2549H194.772V0.90288H207.708L216.388 15.0149C217.788 17.2549 218.684 18.7109 219.916 21.6229H220.308C219.748 19.2709 219.132 15.5189 219.132 12.7749V0.90288H232.124V38.2549H219.132L209.836 23.5269C208.996 22.1829 207.988 20.2229 207.26 18.6549H206.868C207.26 20.6709 207.708 23.8629 207.708 25.5429V38.2549ZM257.199 38.2549H243.871V12.7189L236.255 13.0549V0.90288H264.815V13.0549L257.199 12.7189V38.2549Z" fill="white"/>
<path d="M13.7375 38.2549V39.2549C14.2898 39.2549 14.7375 38.8072 14.7375 38.2549H13.7375ZM0.52153 38.2549H-0.47847C-0.47847 38.8072 -0.0307541 39.2549 0.52153 39.2549V38.2549ZM0.52153 0.90288V-0.0971203C-0.0307541 -0.0971203 -0.47847 0.350595 -0.47847 0.90288H0.52153ZM29.3615 4.82288L30.0621 4.10929L30.0557 4.10304L29.3615 4.82288ZM29.4735 23.9749L30.1448 24.7161L30.1455 24.7154L29.4735 23.9749ZM13.7375 26.9989V25.9989C13.1852 25.9989 12.7375 26.4466 12.7375 26.9989H13.7375ZM13.7375 11.1509V10.1509C13.1852 10.1509 12.7375 10.5986 12.7375 11.1509H13.7375ZM13.7375 17.5909H12.7375C12.7375 18.1432 13.1852 18.5909 13.7375 18.5909V17.5909ZM19.0575 16.5829L18.3932 15.8355C18.3785 15.8485 18.3643 15.8619 18.3504 15.8758L19.0575 16.5829ZM18.9455 11.9909L18.3123 12.7648C18.3187 12.7701 18.3251 12.7752 18.3316 12.7802L18.9455 11.9909ZM13.7375 37.2549H0.52153V39.2549H13.7375V37.2549ZM1.52153 38.2549V0.90288H-0.47847V38.2549H1.52153ZM0.52153 1.90288H18.4415V-0.0971203H0.52153V1.90288ZM18.4415 1.90288C24.0743 1.90288 27.2513 4.17717 28.6674 5.54273L30.0557 4.10304C28.3358 2.44459 24.6807 -0.0971203 18.4415 -0.0971203V1.90288ZM28.6609 5.53645C31.4786 8.30285 32.1695 11.8043 32.1695 14.6229H34.1695C34.1695 11.5054 33.4045 7.39091 30.0621 4.10932L28.6609 5.53645ZM32.1695 14.6229C32.1695 17.5652 31.5295 20.759 28.8015 23.2343L30.1455 24.7154C33.4656 21.7028 34.1695 17.8406 34.1695 14.6229H32.1695ZM28.8023 23.2337C26.115 25.6674 23.0699 25.9989 20.2895 25.9989V27.9989C23.2212 27.9989 26.8961 27.6583 30.1448 24.7161L28.8023 23.2337ZM20.2895 25.9989H13.7375V27.9989H20.2895V25.9989ZM12.7375 26.9989V38.2549H14.7375V26.9989H12.7375ZM12.7375 11.1509V17.5909H14.7375V11.1509H12.7375ZM13.7375 18.5909H16.0335V16.5909H13.7375V18.5909ZM16.0335 18.5909C16.7029 18.5909 18.496 18.5586 19.7646 17.29L18.3504 15.8758C17.715 16.5112 16.7082 16.5909 16.0335 16.5909V18.5909ZM19.7219 17.3303C20.4601 16.6741 20.9535 15.6635 20.9535 14.2869H18.9535C18.9535 15.1502 18.6629 15.5957 18.3932 15.8355L19.7219 17.3303ZM20.9535 14.2869C20.9535 12.7894 20.2967 11.7749 19.5595 11.2015L18.3316 12.7802C18.6024 12.9908 18.9535 13.4324 18.9535 14.2869H20.9535ZM19.5788 11.2169C18.7356 10.5271 17.3688 10.1509 16.2015 10.1509V12.1509C17.0503 12.1509 17.9235 12.4467 18.3123 12.7648L19.5788 11.2169ZM16.2015 10.1509H13.7375V12.1509H16.2015V10.1509ZM56.98 33.6069L57.9467 33.3507C57.8304 32.9122 57.4336 32.6069 56.98 32.6069V33.6069ZM46.676 33.6069V32.6069C46.2054 32.6069 45.7985 32.935 45.6988 33.3949L46.676 33.6069ZM45.668 38.2549V39.2549C46.1386 39.2549 46.5456 38.9267 46.6453 38.4668L45.668 38.2549ZM31.332 38.2549L30.3871 37.9276C30.2812 38.2333 30.3298 38.5713 30.5174 38.8349C30.705 39.0984 31.0085 39.2549 31.332 39.2549V38.2549ZM44.268 0.90288V-0.0971203C43.8419 -0.0971203 43.4626 0.172942 43.3231 0.575623L44.268 0.90288ZM59.276 0.90288L60.2179 0.566812C60.0758 0.16868 59.6988 -0.0971203 59.276 -0.0971203V0.90288ZM72.604 38.2549V39.2549C72.9292 39.2549 73.234 39.0968 73.4214 38.831C73.6087 38.5653 73.6551 38.2251 73.5459 37.9188L72.604 38.2549ZM58.212 38.2549L57.2454 38.5111C57.3616 38.9496 57.7584 39.2549 58.212 39.2549V38.2549ZM52.892 17.5909L51.9176 17.8158L51.9201 17.8263L52.892 17.5909ZM52.164 13.3909L53.1563 13.2668C53.0938 12.7664 52.6684 12.3909 52.164 12.3909V13.3909ZM51.66 13.3909V12.3909C51.1216 12.3909 50.6799 12.8171 50.6607 13.3552L51.66 13.3909ZM51.044 17.5909L52.0124 17.8405L52.0142 17.8334L51.044 17.5909ZM49.196 24.7589L48.2277 24.5092C48.1505 24.8087 48.2162 25.127 48.4056 25.3714C48.595 25.6158 48.8868 25.7589 49.196 25.7589V24.7589ZM54.628 24.7589V25.7589C54.9347 25.7589 55.2244 25.6182 55.414 25.3772C55.6036 25.1362 55.6721 24.8215 55.5999 24.5235L54.628 24.7589ZM56.98 32.6069H46.676V34.6069H56.98V32.6069ZM45.6988 33.3949L44.6908 38.0429L46.6453 38.4668L47.6533 33.8188L45.6988 33.3949ZM45.668 37.2549H31.332V39.2549H45.668V37.2549ZM32.277 38.5821L45.213 1.23014L43.3231 0.575623L30.3871 37.9276L32.277 38.5821ZM44.268 1.90288H59.276V-0.0971203H44.268V1.90288ZM58.3342 1.23895L71.6622 38.591L73.5459 37.9188L60.2179 0.566812L58.3342 1.23895ZM72.604 37.2549H58.212V39.2549H72.604V37.2549ZM59.1786 37.9987L57.9467 33.3507L56.0134 33.8631L57.2454 38.5111L59.1786 37.9987ZM53.8664 17.366C53.5401 15.952 53.3214 14.5871 53.1563 13.2668L51.1718 13.5149C51.3427 14.8826 51.572 16.3178 51.9176 17.8157L53.8664 17.366ZM52.164 12.3909H51.66V14.3909H52.164V12.3909ZM50.6607 13.3552C50.6077 14.8388 50.3969 16.0562 50.0739 17.3483L52.0142 17.8334C52.3632 16.4375 52.6004 15.079 52.6594 13.4266L50.6607 13.3552ZM50.0757 17.3412L48.2277 24.5092L50.1644 25.0085L52.0124 17.8405L50.0757 17.3412ZM49.196 25.7589H54.628V23.7589H49.196V25.7589ZM55.5999 24.5235L53.8639 17.3555L51.9201 17.8263L53.6561 24.9943L55.5999 24.5235ZM81.0102 22.1829H82.0102C82.0102 21.999 81.9595 21.8187 81.8637 21.6618L81.0102 22.1829ZM68.0182 0.90288V-0.0971203C67.6565 -0.0971203 67.323 0.0981447 67.1461 0.413537C66.9691 0.728928 66.9762 1.1153 67.1646 1.42397L68.0182 0.90288ZM83.3622 0.90288L84.2682 0.479588C84.1038 0.127734 83.7505 -0.0971203 83.3622 -0.0971203V0.90288ZM86.5542 7.73488L87.468 7.32874C87.4654 7.323 87.4628 7.31728 87.4601 7.31159L86.5542 7.73488ZM87.5622 10.7029L86.5898 10.9363C86.6977 11.3859 87.0998 11.7029 87.5622 11.7029V10.7029ZM87.9542 10.7029V11.7029C88.4386 11.7029 88.8534 11.3556 88.9386 10.8787L87.9542 10.7029ZM88.9622 7.73488L88.0422 7.34278C88.0393 7.34965 88.0365 7.35656 88.0337 7.36349L88.9622 7.73488ZM91.8742 0.90288V-0.0971203C91.4734 -0.0971203 91.1114 0.142124 90.9542 0.510781L91.8742 0.90288ZM107.162 0.90288L108.02 1.41738C108.205 1.10844 108.21 0.72369 108.032 0.410181C107.855 0.0966722 107.522 -0.0971203 107.162 -0.0971203V0.90288ZM94.3941 22.1829L93.5367 21.6684C93.4434 21.8238 93.3941 22.0016 93.3941 22.1829H94.3941ZM94.3941 38.2549V39.2549C94.9464 39.2549 95.3941 38.8072 95.3941 38.2549H94.3941ZM81.0102 38.2549H80.0102C80.0102 38.8072 80.4579 39.2549 81.0102 39.2549V38.2549ZM81.8637 21.6618L68.8717 0.381793L67.1646 1.42397L80.1567 22.704L81.8637 21.6618ZM68.0182 1.90288H83.3622V-0.0971203H68.0182V1.90288ZM82.4562 1.32617L85.6482 8.15817L87.4601 7.31159L84.2682 0.479588L82.4562 1.32617ZM85.6404 8.14102C85.8514 8.61596 86.2735 9.61835 86.5898 10.9363L88.5345 10.4695C88.1788 8.98741 87.7049 7.8618 87.468 7.32874L85.6404 8.14102ZM87.5622 11.7029H87.9542V9.70288H87.5622V11.7029ZM88.9386 10.8787C89.1946 9.44484 89.5067 9.06612 89.8906 8.10627L88.0337 7.36349C87.7456 8.08364 87.2737 8.82492 86.9697 10.5271L88.9386 10.8787ZM89.8821 8.12698L92.7941 1.29498L90.9542 0.510781L88.0422 7.34278L89.8821 8.12698ZM91.8742 1.90288H107.162V-0.0971203H91.8742V1.90288ZM106.305 0.388384L93.5367 21.6684L95.2516 22.6974L108.02 1.41738L106.305 0.388384ZM93.3941 22.1829V38.2549H95.3941V22.1829H93.3941ZM94.3941 37.2549H81.0102V39.2549H94.3941V37.2549ZM82.0102 38.2549V22.1829H80.0102V38.2549H82.0102ZM120.013 38.2549V39.2549C120.525 39.2549 120.954 38.8686 121.008 38.3597L120.013 38.2549ZM106.853 38.2549L105.866 38.095C105.819 38.3844 105.902 38.6798 106.092 38.903C106.282 39.1263 106.56 39.2549 106.853 39.2549V38.2549ZM112.901 0.90288V-0.0971203C112.411 -0.0971203 111.993 0.258762 111.914 0.743042L112.901 0.90288ZM126.845 0.90288L127.807 0.628159C127.684 0.198857 127.292 -0.0971203 126.845 -0.0971203V0.90288ZM131.213 16.1909L132.175 15.9162L131.213 16.1909ZM132.053 20.5029L131.059 20.6133C131.116 21.1197 131.544 21.5029 132.053 21.5029V20.5029ZM132.389 20.5029V21.5029C132.928 21.5029 133.37 21.0759 133.389 20.5373L132.389 20.5029ZM133.117 16.1909L132.156 15.9162V15.9162L133.117 16.1909ZM137.485 0.90288V-0.0971203C137.039 -0.0971203 136.646 0.198857 136.524 0.628159L137.485 0.90288ZM151.317 0.90288L152.304 0.741601C152.225 0.257981 151.807 -0.0971203 151.317 -0.0971203V0.90288ZM157.421 38.2549V39.2549C157.715 39.2549 157.993 39.126 158.183 38.9025C158.373 38.6789 158.456 38.3832 158.408 38.0936L157.421 38.2549ZM144.373 38.2549L143.378 38.3547C143.43 38.8658 143.86 39.2549 144.373 39.2549V38.2549ZM142.693 21.5109L141.697 21.5975L141.698 21.6107L142.693 21.5109ZM142.469 17.8149H143.469C143.469 17.2626 143.022 16.8149 142.469 16.8149V17.8149ZM142.245 17.8149V16.8149C141.76 16.8149 141.345 17.1632 141.26 17.6411L142.245 17.8149ZM141.517 20.9509L142.47 21.256L142.473 21.245L141.517 20.9509ZM135.973 38.2549V39.2549C136.408 39.2549 136.793 38.974 136.926 38.56L135.973 38.2549ZM128.021 38.2549L127.065 38.5464C127.193 38.9673 127.581 39.2549 128.021 39.2549V38.2549ZM123.037 21.9029L122.077 22.1829L122.081 22.1944L123.037 21.9029ZM122.309 17.8149L123.309 17.7792C123.289 17.2411 122.848 16.8149 122.309 16.8149V17.8149ZM121.917 17.8149V16.8149C121.365 16.8149 120.917 17.2626 120.917 17.8149H121.917ZM121.861 20.7269L122.856 20.8317C122.857 20.8224 122.858 20.813 122.858 20.8036L121.861 20.7269ZM120.013 37.2549H106.853V39.2549H120.013V37.2549ZM107.84 38.4147L113.888 1.06272L111.914 0.743042L105.866 38.095L107.84 38.4147ZM112.901 1.90288H126.845V-0.0971203H112.901V1.90288ZM125.884 1.1776L130.252 16.4656L132.175 15.9162L127.807 0.628159L125.884 1.1776ZM130.252 16.4656C130.789 18.3459 131.006 20.1294 131.059 20.6133L133.047 20.3925C132.989 19.8684 132.758 17.9559 132.175 15.9162L130.252 16.4656ZM132.053 21.5029H132.389V19.5029H132.053V21.5029ZM133.389 20.5373C133.441 19.016 133.646 17.979 134.079 16.4656L132.156 15.9162C131.692 17.5388 131.449 18.7417 131.39 20.4684L133.389 20.5373ZM134.079 16.4656L138.447 1.1776L136.524 0.628159L132.156 15.9162L134.079 16.4656ZM137.485 1.90288H151.317V-0.0971203H137.485V1.90288ZM150.33 1.06416L156.434 38.4162L158.408 38.0936L152.304 0.741601L150.33 1.06416ZM157.421 37.2549H144.373V39.2549H157.421V37.2549ZM145.368 38.155L143.688 21.411L141.698 21.6107L143.378 38.3547L145.368 38.155ZM143.69 21.4243C143.575 20.1101 143.469 19.3275 143.469 17.8149H141.469C141.469 19.4382 141.587 20.3357 141.697 21.5975L143.69 21.4243ZM142.469 16.8149H142.245V18.8149H142.469V16.8149ZM141.26 17.6411C141.097 18.565 140.77 19.9788 140.562 20.6568L142.473 21.245C142.712 20.467 143.057 18.9688 143.23 17.9887L141.26 17.6411ZM140.565 20.6458L135.021 37.9498L136.926 38.56L142.47 21.256L140.565 20.6458ZM135.973 37.2549H128.021V39.2549H135.973V37.2549ZM128.978 37.9633L123.994 21.6113L122.081 22.1944L127.065 38.5464L128.978 37.9633ZM123.997 21.6229C123.616 20.3159 123.36 19.2296 123.309 17.7792L121.31 17.8506C121.37 19.5362 121.674 20.8019 122.077 22.1829L123.997 21.6229ZM122.309 16.8149H121.917V18.8149H122.309V16.8149ZM120.917 17.8149C120.917 18.5628 120.917 19.9704 120.864 20.6502L122.858 20.8036C122.918 20.0274 122.917 18.523 122.917 17.8149H120.917ZM120.867 20.622L119.019 38.15L121.008 38.3597L122.856 20.8317L120.867 20.622ZM188.972 38.2549V39.2549C189.524 39.2549 189.972 38.8072 189.972 38.2549H188.972ZM163.436 38.2549H162.436C162.436 38.8072 162.883 39.2549 163.436 39.2549V38.2549ZM163.436 0.90288V-0.0971203C162.883 -0.0971203 162.436 0.350595 162.436 0.90288H163.436ZM188.636 0.90288H189.636C189.636 0.350595 189.188 -0.0971203 188.636 -0.0971203V0.90288ZM188.636 11.1509V12.1509C189.188 12.1509 189.636 11.7032 189.636 11.1509H188.636ZM176.988 11.1509V10.1509C176.435 10.1509 175.988 10.5986 175.988 11.1509H176.988ZM176.988 14.6229H175.988C175.988 15.1752 176.435 15.6229 176.988 15.6229V14.6229ZM187.572 14.6229H188.572C188.572 14.0706 188.124 13.6229 187.572 13.6229V14.6229ZM187.572 24.4229V25.4229C188.124 25.4229 188.572 24.9752 188.572 24.4229H187.572ZM176.988 24.4229V23.4229C176.435 23.4229 175.988 23.8706 175.988 24.4229H176.988ZM176.988 28.0069H175.988C175.988 28.5592 176.435 29.0069 176.988 29.0069V28.0069ZM188.972 28.0069H189.972C189.972 27.4546 189.524 27.0069 188.972 27.0069V28.0069ZM188.972 37.2549H163.436V39.2549H188.972V37.2549ZM164.436 38.2549V0.90288H162.436V38.2549H164.436ZM163.436 1.90288H188.636V-0.0971203H163.436V1.90288ZM187.636 0.90288V11.1509H189.636V0.90288H187.636ZM188.636 10.1509H176.988V12.1509H188.636V10.1509ZM175.988 11.1509V14.6229H177.988V11.1509H175.988ZM176.988 15.6229H187.572V13.6229H176.988V15.6229ZM186.572 14.6229V24.4229H188.572V14.6229H186.572ZM187.572 23.4229H176.988V25.4229H187.572V23.4229ZM175.988 24.4229V28.0069H177.988V24.4229H175.988ZM176.988 29.0069H188.972V27.0069H176.988V29.0069ZM187.972 28.0069V38.2549H189.972V28.0069H187.972ZM207.708 38.2549V39.2549C208.26 39.2549 208.708 38.8072 208.708 38.2549H207.708ZM194.772 38.2549H193.772C193.772 38.8072 194.219 39.2549 194.772 39.2549V38.2549ZM194.772 0.90288V-0.0971203C194.219 -0.0971203 193.772 0.350595 193.772 0.90288H194.772ZM207.708 0.90288L208.559 0.378971C208.377 0.0831161 208.055 -0.0971203 207.708 -0.0971203V0.90288ZM216.388 15.0149L215.536 15.5388L215.54 15.5449L216.388 15.0149ZM219.916 21.6229L218.995 22.0125C219.151 22.3825 219.514 22.6229 219.916 22.6229V21.6229ZM220.308 21.6229V22.6229C220.613 22.6229 220.903 22.4828 221.092 22.2427C221.282 22.0026 221.351 21.6889 221.28 21.3913L220.308 21.6229ZM219.132 0.90288V-0.0971203C218.579 -0.0971203 218.132 0.350595 218.132 0.90288H219.132ZM232.124 0.90288H233.124C233.124 0.350595 232.676 -0.0971203 232.124 -0.0971203V0.90288ZM232.124 38.2549V39.2549C232.676 39.2549 233.124 38.8072 233.124 38.2549H232.124ZM219.132 38.2549L218.286 38.7886C218.469 39.0789 218.788 39.2549 219.132 39.2549V38.2549ZM209.836 23.5269L208.988 24.0569L208.99 24.0606L209.836 23.5269ZM207.26 18.6549L208.167 18.2338C208.003 17.8807 207.649 17.6549 207.26 17.6549V18.6549ZM206.868 18.6549V17.6549C206.569 17.6549 206.286 17.7884 206.096 18.0188C205.906 18.2493 205.829 18.5526 205.886 18.8458L206.868 18.6549ZM207.708 37.2549H194.772V39.2549H207.708V37.2549ZM195.772 38.2549V0.90288H193.772V38.2549H195.772ZM194.772 1.90288H207.708V-0.0971203H194.772V1.90288ZM206.856 1.42679L215.536 15.5388L217.239 14.491L208.559 0.378971L206.856 1.42679ZM215.54 15.5449C216.93 17.769 217.793 19.1728 218.995 22.0125L220.836 21.2332C219.574 18.2489 218.645 16.7407 217.236 14.4849L215.54 15.5449ZM219.916 22.6229H220.308V20.6229H219.916V22.6229ZM221.28 21.3913C220.73 19.08 220.132 15.4115 220.132 12.7749H218.132C218.132 15.6262 218.765 19.4618 219.335 21.8545L221.28 21.3913ZM220.132 12.7749V0.90288H218.132V12.7749H220.132ZM219.132 1.90288H232.124V-0.0971203H219.132V1.90288ZM231.124 0.90288V38.2549H233.124V0.90288H231.124ZM232.124 37.2549H219.132V39.2549H232.124V37.2549ZM219.977 37.7211L210.681 22.9931L208.99 24.0606L218.286 38.7886L219.977 37.7211ZM210.684 22.9969C209.874 21.7016 208.886 19.7824 208.167 18.2338L206.353 19.076C207.089 20.6633 208.117 22.6642 208.988 24.0569L210.684 22.9969ZM207.26 17.6549H206.868V19.6549H207.26V17.6549ZM205.886 18.8458C206.275 20.8463 206.708 23.9618 206.708 25.5429H208.708C208.708 23.7639 208.244 20.4955 207.849 18.464L205.886 18.8458ZM206.708 25.5429V38.2549H208.708V25.5429H206.708ZM257.199 38.2549V39.2549C257.752 39.2549 258.199 38.8072 258.199 38.2549H257.199ZM243.871 38.2549H242.871C242.871 38.8072 243.319 39.2549 243.871 39.2549V38.2549ZM243.871 12.7189H244.871C244.871 12.446 244.76 12.185 244.563 11.9964C244.365 11.8077 244.1 11.7078 243.827 11.7199L243.871 12.7189ZM236.255 13.0549H235.255C235.255 13.3277 235.367 13.5888 235.564 13.7774C235.761 13.966 236.027 14.0659 236.299 14.0539L236.255 13.0549ZM236.255 0.90288V-0.0971203C235.703 -0.0971203 235.255 0.350595 235.255 0.90288H236.255ZM264.815 0.90288H265.815C265.815 0.350595 265.368 -0.0971203 264.815 -0.0971203V0.90288ZM264.815 13.0549L264.771 14.0539C265.044 14.0659 265.309 13.966 265.507 13.7774C265.704 13.5888 265.815 13.3277 265.815 13.0549H264.815ZM257.199 12.7189L257.243 11.7199C256.971 11.7078 256.705 11.8077 256.508 11.9964C256.311 12.185 256.199 12.446 256.199 12.7189H257.199ZM257.199 37.2549H243.871V39.2549H257.199V37.2549ZM244.871 38.2549V12.7189H242.871V38.2549H244.871ZM243.827 11.7199L236.211 12.0559L236.299 14.0539L243.915 13.7179L243.827 11.7199ZM237.255 13.0549V0.90288H235.255V13.0549H237.255ZM236.255 1.90288H264.815V-0.0971203H236.255V1.90288ZM263.815 0.90288V13.0549H265.815V0.90288H263.815ZM264.859 12.0559L257.243 11.7199L257.155 13.7179L264.771 14.0539L264.859 12.0559ZM256.199 12.7189V38.2549H258.199V12.7189H256.199Z" fill="#333333" mask="url(#path-1-outside-1_0_6216)"/>
</svg>
