<svg width="154" height="154" viewBox="0 0 154 154" fill="none" xmlns="http://www.w3.org/2000/svg">
<g clip-path="url(#clip0_0_6533)">
<path d="M49.9444 54.6436H0V83.08H69.0179L49.9444 54.6436Z" fill="white" fill-opacity="0.5"/>
<path d="M55.0923 100.703C72.1935 100.703 86.1068 114.616 86.1068 131.718C86.1068 132.937 86.0346 134.14 85.8971 135.322H106.707V118.057H92.7712V109.034H106.707V104.732C106.707 97.7555 101.051 92.0996 94.0739 92.0996H0V135.322H24.2875C24.15 134.14 24.0778 132.937 24.0778 131.718C24.0778 114.616 37.9908 100.703 55.0923 100.703Z" fill="white" fill-opacity="0.5"/>
<path d="M131.239 67.5254H122.216V144.986H83.1161H72.993C75.75 141.276 77.3841 136.684 77.3841 131.718C77.3841 119.426 67.384 109.426 55.0923 109.426C42.8006 109.426 32.8005 119.426 32.8005 131.718C32.8005 136.684 34.4346 141.276 37.1916 144.986H27.0685H0V154.009H154V144.986H131.239V67.5254Z" fill="white" fill-opacity="0.5"/>
<path d="M127.29 18.8633H123.224V27.2397C124.753 27.2322 126.32 27.2262 127.29 27.2262C129.649 27.2262 131.642 25.3114 131.642 23.045C131.642 20.7781 129.649 18.8633 127.29 18.8633Z" fill="white" fill-opacity="0.5"/>
<path d="M95.2066 0.00976562V58.8032H154V0.00976562H95.2066ZM127.29 36.2479C126.337 36.2479 124.761 36.2542 123.224 36.2617V48.4355H114.201V9.83839H127.29C134.665 9.83839 140.665 15.762 140.665 23.0433C140.665 30.3246 134.665 36.2479 127.29 36.2479Z" fill="white" fill-opacity="0.5"/>
</g>
<defs>
<clipPath id="clip0_0_6533">
<rect width="154" height="154" fill="white" transform="translate(0 0.00976562)"/>
</clipPath>
</defs>
</svg>
