<svg width="163" height="40" viewBox="0 0 163 40" fill="none" xmlns="http://www.w3.org/2000/svg">
<mask id="path-1-inside-1_0_170" fill="white">
<path d="M13.6333 38.5H0.697313V1.148H13.6333L22.3133 15.26C23.7133 17.5 24.6093 18.956 25.8413 21.868H26.2333C25.6733 19.516 25.0573 15.764 25.0573 13.02V1.148H38.0493V38.5H25.0573L15.7613 23.772C14.9213 22.428 13.9133 20.468 13.1853 18.9H12.7933C13.1853 20.916 13.6333 24.108 13.6333 25.788V38.5ZM71.0771 38.5H45.5411V1.148H70.7411V11.396H59.0931V14.868H69.6771V24.668H59.0931V28.252H71.0771V38.5ZM86.229 38.5L73.125 1.148H87.181L91.269 18.844C91.549 20.132 91.885 21.252 91.885 23.436H92.221C92.333 21.084 92.669 19.124 93.173 17.164L97.261 1.148H107.677L111.989 18.172C112.325 19.516 112.661 21.98 112.773 23.436H113.053C113.109 21.028 113.445 19.404 113.893 17.444L117.757 1.148H131.869L118.709 38.5H106.893L103.365 23.268C103.029 21.756 102.749 20.02 102.637 18.172H102.189C102.133 19.404 101.909 22.092 101.629 23.268L97.765 38.5H86.229ZM161.742 3.556L158.102 13.076C156.478 11.956 153.51 10.276 150.486 10.276C149.758 10.276 148.638 10.388 147.91 10.948C147.406 11.34 147.238 11.732 147.238 12.292C147.238 13.076 147.35 13.804 149.422 14.252L153.734 15.204C157.038 15.932 158.998 17.276 160.118 18.396C162.47 20.692 162.974 23.548 162.974 25.788C162.974 28.98 162.134 31.948 159.614 34.58C157.486 36.764 153.454 39.34 146.454 39.34C140.742 39.34 136.934 37.716 133.742 36.428L132.51 35.924L136.598 25.396L138.054 26.516C139.454 27.58 142.31 29.26 145.614 29.26C147.462 29.26 148.246 28.812 148.526 28.588C149.142 28.084 149.254 27.468 149.254 26.908C149.254 26.572 149.198 26.012 148.806 25.62C148.358 25.172 147.63 25.004 146.23 24.724L142.926 24.108C140.798 23.716 138.502 23.044 136.43 20.916C134.526 18.956 133.742 16.716 133.742 14.028C133.742 10.556 134.918 7.588 137.382 5.124C140.238 2.212 144.438 0.307998 150.374 0.307998C153.342 0.307998 157.206 0.811998 161.742 3.556Z"/>
</mask>
<path d="M13.6333 38.5H0.697313V1.148H13.6333L22.3133 15.26C23.7133 17.5 24.6093 18.956 25.8413 21.868H26.2333C25.6733 19.516 25.0573 15.764 25.0573 13.02V1.148H38.0493V38.5H25.0573L15.7613 23.772C14.9213 22.428 13.9133 20.468 13.1853 18.9H12.7933C13.1853 20.916 13.6333 24.108 13.6333 25.788V38.5ZM71.0771 38.5H45.5411V1.148H70.7411V11.396H59.0931V14.868H69.6771V24.668H59.0931V28.252H71.0771V38.5ZM86.229 38.5L73.125 1.148H87.181L91.269 18.844C91.549 20.132 91.885 21.252 91.885 23.436H92.221C92.333 21.084 92.669 19.124 93.173 17.164L97.261 1.148H107.677L111.989 18.172C112.325 19.516 112.661 21.98 112.773 23.436H113.053C113.109 21.028 113.445 19.404 113.893 17.444L117.757 1.148H131.869L118.709 38.5H106.893L103.365 23.268C103.029 21.756 102.749 20.02 102.637 18.172H102.189C102.133 19.404 101.909 22.092 101.629 23.268L97.765 38.5H86.229ZM161.742 3.556L158.102 13.076C156.478 11.956 153.51 10.276 150.486 10.276C149.758 10.276 148.638 10.388 147.91 10.948C147.406 11.34 147.238 11.732 147.238 12.292C147.238 13.076 147.35 13.804 149.422 14.252L153.734 15.204C157.038 15.932 158.998 17.276 160.118 18.396C162.47 20.692 162.974 23.548 162.974 25.788C162.974 28.98 162.134 31.948 159.614 34.58C157.486 36.764 153.454 39.34 146.454 39.34C140.742 39.34 136.934 37.716 133.742 36.428L132.51 35.924L136.598 25.396L138.054 26.516C139.454 27.58 142.31 29.26 145.614 29.26C147.462 29.26 148.246 28.812 148.526 28.588C149.142 28.084 149.254 27.468 149.254 26.908C149.254 26.572 149.198 26.012 148.806 25.62C148.358 25.172 147.63 25.004 146.23 24.724L142.926 24.108C140.798 23.716 138.502 23.044 136.43 20.916C134.526 18.956 133.742 16.716 133.742 14.028C133.742 10.556 134.918 7.588 137.382 5.124C140.238 2.212 144.438 0.307998 150.374 0.307998C153.342 0.307998 157.206 0.811998 161.742 3.556Z" fill="white"/>
<path d="M13.6333 38.5V39.5C14.1856 39.5 14.6333 39.0523 14.6333 38.5H13.6333ZM0.697313 38.5H-0.302687C-0.302687 39.0523 0.145028 39.5 0.697313 39.5V38.5ZM0.697313 1.148V0.147997C0.145028 0.147997 -0.302687 0.595712 -0.302687 1.148H0.697313ZM13.6333 1.148L14.4851 0.624088C14.3031 0.328233 13.9807 0.147997 13.6333 0.147997V1.148ZM22.3133 15.26L21.4615 15.7839L21.4653 15.79L22.3133 15.26ZM25.8413 21.868L24.9203 22.2576C25.0769 22.6276 25.4396 22.868 25.8413 22.868V21.868ZM26.2333 21.868V22.868C26.5393 22.868 26.8284 22.7279 27.018 22.4878C27.2077 22.2477 27.277 21.934 27.2061 21.6364L26.2333 21.868ZM25.0573 1.148V0.147997C24.505 0.147997 24.0573 0.595712 24.0573 1.148H25.0573ZM38.0493 1.148H39.0493C39.0493 0.595712 38.6016 0.147997 38.0493 0.147997V1.148ZM38.0493 38.5V39.5C38.6016 39.5 39.0493 39.0523 39.0493 38.5H38.0493ZM25.0573 38.5L24.2117 39.0338C24.3949 39.324 24.7141 39.5 25.0573 39.5V38.5ZM15.7613 23.772L14.9133 24.302L14.9157 24.3058L15.7613 23.772ZM13.1853 18.9L14.0923 18.4789C13.9284 18.1259 13.5745 17.9 13.1853 17.9V18.9ZM12.7933 18.9V17.9C12.4947 17.9 12.2116 18.0335 12.0217 18.2639C11.8317 18.4944 11.7547 18.7977 11.8117 19.0909L12.7933 18.9ZM13.6333 37.5H0.697313V39.5H13.6333V37.5ZM1.69731 38.5V1.148H-0.302687V38.5H1.69731ZM0.697313 2.148H13.6333V0.147997H0.697313V2.148ZM12.7815 1.67191L21.4615 15.7839L23.1651 14.7361L14.4851 0.624088L12.7815 1.67191ZM21.4653 15.79C22.8554 18.0141 23.7189 19.4179 24.9203 22.2576L26.7623 21.4784C25.4997 18.4941 24.5712 16.9859 23.1613 14.73L21.4653 15.79ZM25.8413 22.868H26.2333V20.868H25.8413V22.868ZM27.2061 21.6364C26.6558 19.3251 26.0573 15.6566 26.0573 13.02H24.0573C24.0573 15.8714 24.6908 19.7069 25.2605 22.0996L27.2061 21.6364ZM26.0573 13.02V1.148H24.0573V13.02H26.0573ZM25.0573 2.148H38.0493V0.147997H25.0573V2.148ZM37.0493 1.148V38.5H39.0493V1.148H37.0493ZM38.0493 37.5H25.0573V39.5H38.0493V37.5ZM25.903 37.9662L16.607 23.2382L14.9157 24.3058L24.2117 39.0338L25.903 37.9662ZM16.6093 23.242C15.7997 21.9467 14.8113 20.0276 14.0923 18.4789L12.2783 19.3211C13.0153 20.9084 14.0429 22.9093 14.9133 24.302L16.6093 23.242ZM13.1853 17.9H12.7933V19.9H13.1853V17.9ZM11.8117 19.0909C12.2007 21.0914 12.6333 24.207 12.6333 25.788H14.6333C14.6333 24.009 14.1699 20.7406 13.7749 18.7091L11.8117 19.0909ZM12.6333 25.788V38.5H14.6333V25.788H12.6333ZM71.0771 38.5V39.5C71.6293 39.5 72.0771 39.0523 72.0771 38.5H71.0771ZM45.5411 38.5H44.5411C44.5411 39.0523 44.9888 39.5 45.5411 39.5V38.5ZM45.5411 1.148V0.147997C44.9888 0.147997 44.5411 0.595712 44.5411 1.148H45.5411ZM70.7411 1.148H71.7411C71.7411 0.595712 71.2933 0.147997 70.7411 0.147997V1.148ZM70.7411 11.396V12.396C71.2933 12.396 71.7411 11.9483 71.7411 11.396H70.7411ZM59.0931 11.396V10.396C58.5408 10.396 58.0931 10.8437 58.0931 11.396H59.0931ZM59.0931 14.868H58.0931C58.0931 15.4203 58.5408 15.868 59.0931 15.868V14.868ZM69.6771 14.868H70.6771C70.6771 14.3157 70.2293 13.868 69.6771 13.868V14.868ZM69.6771 24.668V25.668C70.2293 25.668 70.6771 25.2203 70.6771 24.668H69.6771ZM59.0931 24.668V23.668C58.5408 23.668 58.0931 24.1157 58.0931 24.668H59.0931ZM59.0931 28.252H58.0931C58.0931 28.8043 58.5408 29.252 59.0931 29.252V28.252ZM71.0771 28.252H72.0771C72.0771 27.6997 71.6293 27.252 71.0771 27.252V28.252ZM71.0771 37.5H45.5411V39.5H71.0771V37.5ZM46.5411 38.5V1.148H44.5411V38.5H46.5411ZM45.5411 2.148H70.7411V0.147997H45.5411V2.148ZM69.7411 1.148V11.396H71.7411V1.148H69.7411ZM70.7411 10.396H59.0931V12.396H70.7411V10.396ZM58.0931 11.396V14.868H60.0931V11.396H58.0931ZM59.0931 15.868H69.6771V13.868H59.0931V15.868ZM68.6771 14.868V24.668H70.6771V14.868H68.6771ZM69.6771 23.668H59.0931V25.668H69.6771V23.668ZM58.0931 24.668V28.252H60.0931V24.668H58.0931ZM59.0931 29.252H71.0771V27.252H59.0931V29.252ZM70.0771 28.252V38.5H72.0771V28.252H70.0771ZM86.229 38.5L85.2854 38.831C85.426 39.2318 85.8043 39.5 86.229 39.5V38.5ZM73.125 1.148V0.147997C72.8008 0.147997 72.4967 0.30517 72.3092 0.569656C72.1217 0.834142 72.0741 1.17311 72.1814 1.47904L73.125 1.148ZM87.181 1.148L88.1553 0.922912C88.0505 0.46929 87.6466 0.147997 87.181 0.147997V1.148ZM91.269 18.844L92.2463 18.6316L92.2433 18.6189L91.269 18.844ZM91.885 23.436H90.885C90.885 23.9883 91.3327 24.436 91.885 24.436V23.436ZM92.221 23.436V24.436C92.7548 24.436 93.1945 24.0168 93.2199 23.4836L92.221 23.436ZM93.173 17.164L94.1415 17.413L94.1419 17.4113L93.173 17.164ZM97.261 1.148V0.147997C96.804 0.147997 96.4051 0.457849 96.2921 0.900681L97.261 1.148ZM107.677 1.148L108.646 0.902461C108.534 0.458758 108.135 0.147997 107.677 0.147997V1.148ZM111.989 18.172L112.959 17.9295L112.958 17.9265L111.989 18.172ZM112.773 23.436L111.776 23.5127C111.816 24.0337 112.25 24.436 112.773 24.436V23.436ZM113.053 23.436V24.436C113.596 24.436 114.04 24.0023 114.053 23.4592L113.053 23.436ZM113.893 17.444L112.92 17.2133L112.918 17.2212L113.893 17.444ZM117.757 1.148V0.147997C117.294 0.147997 116.891 0.466375 116.784 0.917281L117.757 1.148ZM131.869 1.148L132.812 1.4803C132.92 1.17429 132.873 0.835004 132.685 0.5702C132.498 0.305397 132.193 0.147997 131.869 0.147997V1.148ZM118.709 38.5V39.5C119.133 39.5 119.511 39.2324 119.652 38.8323L118.709 38.5ZM106.893 38.5L105.919 38.7256C106.024 39.179 106.428 39.5 106.893 39.5V38.5ZM103.365 23.268L102.389 23.4849L102.391 23.4936L103.365 23.268ZM102.637 18.172L103.635 18.1115C103.603 17.5837 103.166 17.172 102.637 17.172V18.172ZM102.189 18.172V17.172C101.654 17.172 101.214 17.5925 101.19 18.1266L102.189 18.172ZM101.629 23.268L102.598 23.5139C102.6 23.5091 102.601 23.5044 102.602 23.4996L101.629 23.268ZM97.765 38.5V39.5C98.2226 39.5 98.6218 39.1894 98.7343 38.7459L97.765 38.5ZM87.1726 38.169L74.0686 0.816953L72.1814 1.47904L85.2854 38.831L87.1726 38.169ZM73.125 2.148H87.181V0.147997H73.125V2.148ZM86.2067 1.37308L90.2947 19.0691L92.2433 18.6189L88.1553 0.922912L86.2067 1.37308ZM90.2918 19.0564C90.5777 20.3713 90.885 21.3802 90.885 23.436H92.885C92.885 21.1238 92.5203 19.8927 92.2462 18.6316L90.2918 19.0564ZM91.885 24.436H92.221V22.436H91.885V24.436ZM93.2199 23.4836C93.3283 21.2068 93.6525 19.3145 94.1415 17.413L92.2045 16.915C91.6855 18.9335 91.3377 20.9612 91.2221 23.3884L93.2199 23.4836ZM94.1419 17.4113L98.2299 1.39531L96.2921 0.900681L92.2041 16.9167L94.1419 17.4113ZM97.261 2.148H107.677V0.147997H97.261V2.148ZM106.708 1.39353L111.02 18.4175L112.958 17.9265L108.646 0.902461L106.708 1.39353ZM111.019 18.4145C111.336 19.6843 111.666 22.0877 111.776 23.5127L113.77 23.3593C113.656 21.8723 113.314 19.3477 112.959 17.9295L111.019 18.4145ZM112.773 24.436H113.053V22.436H112.773V24.436ZM114.053 23.4592C114.106 21.1519 114.425 19.605 114.868 17.6668L112.918 17.2212C112.465 19.203 112.112 20.9041 112.053 23.4127L114.053 23.4592ZM114.866 17.6747L118.73 1.37871L116.784 0.917281L112.92 17.2133L114.866 17.6747ZM117.757 2.148H131.869V0.147997H117.757V2.148ZM130.926 0.815695L117.766 38.1677L119.652 38.8323L132.812 1.4803L130.926 0.815695ZM118.709 37.5H106.893V39.5H118.709V37.5ZM107.867 38.2744L104.339 23.0424L102.391 23.4936L105.919 38.7256L107.867 38.2744ZM104.341 23.0511C104.015 21.5812 103.743 19.8981 103.635 18.1115L101.639 18.2325C101.755 20.1419 102.043 21.9308 102.389 23.4849L104.341 23.0511ZM102.637 17.172H102.189V19.172H102.637V17.172ZM101.19 18.1266C101.134 19.3592 100.912 21.962 100.656 23.0364L102.602 23.4996C102.906 22.222 103.132 19.4488 103.188 18.2174L101.19 18.1266ZM100.66 23.0221L96.7957 38.2541L98.7343 38.7459L102.598 23.5139L100.66 23.0221ZM97.765 37.5H86.229V39.5H97.765V37.5ZM161.742 3.556L162.676 3.91314C162.848 3.46137 162.673 2.95072 162.259 2.70038L161.742 3.556ZM158.102 13.076L157.534 13.8992C157.786 14.0734 158.105 14.122 158.398 14.0311C158.691 13.9401 158.926 13.7197 159.036 13.4331L158.102 13.076ZM147.91 10.948L147.3 10.1554L147.296 10.1586L147.91 10.948ZM149.422 14.252L149.637 13.2755L149.633 13.2746L149.422 14.252ZM153.734 15.204L153.518 16.1805L153.518 16.1806L153.734 15.204ZM160.118 18.396L159.41 19.1032L159.419 19.1116L160.118 18.396ZM159.614 34.58L160.33 35.2779L160.336 35.2716L159.614 34.58ZM133.742 36.428L133.363 37.3536L133.367 37.3554L133.742 36.428ZM132.51 35.924L131.577 35.562C131.38 36.0703 131.626 36.6431 132.131 36.8495L132.51 35.924ZM136.598 25.396L137.207 24.6034C136.958 24.4113 136.632 24.3481 136.328 24.4329C136.025 24.5176 135.779 24.7404 135.665 25.034L136.598 25.396ZM138.054 26.516L137.444 27.3086L137.448 27.3122L138.054 26.516ZM148.526 28.588L149.15 29.3689L149.159 29.362L148.526 28.588ZM148.806 25.62L148.098 26.3271L148.098 26.3271L148.806 25.62ZM146.23 24.724L146.426 23.7433L146.413 23.7409L146.23 24.724ZM142.926 24.108L143.109 23.1249L143.107 23.1245L142.926 24.108ZM136.43 20.916L135.712 21.6128L135.713 21.6136L136.43 20.916ZM137.382 5.124L138.089 5.83114L138.095 5.82421L137.382 5.124ZM160.807 3.19886L157.167 12.7189L159.036 13.4331L162.676 3.91314L160.807 3.19886ZM158.669 12.2528C157.009 11.108 153.828 9.276 150.486 9.276V11.276C153.191 11.276 155.946 12.804 157.534 13.8992L158.669 12.2528ZM150.486 9.276C150.076 9.276 149.54 9.30701 148.99 9.42376C148.448 9.53877 147.826 9.75045 147.3 10.1554L148.519 11.7406C148.721 11.5856 149.023 11.4612 149.405 11.3802C149.779 11.301 150.167 11.276 150.486 11.276V9.276ZM147.296 10.1586C146.957 10.4216 146.673 10.7309 146.484 11.1214C146.295 11.5124 146.238 11.9103 146.238 12.292H148.238C148.238 12.1137 148.264 12.0356 148.285 11.9926C148.306 11.9491 148.358 11.8664 148.523 11.7374L147.296 10.1586ZM146.238 12.292C146.238 12.7124 146.254 13.4176 146.792 14.0475C147.296 14.6369 148.108 14.9912 149.21 15.2294L149.633 13.2746C148.663 13.0648 148.383 12.8311 148.313 12.7485C148.277 12.7064 148.238 12.6556 148.238 12.292H146.238ZM149.206 15.2285L153.518 16.1805L153.949 14.2275L149.637 13.2755L149.206 15.2285ZM153.518 16.1806C156.64 16.8685 158.428 18.1211 159.41 19.1031L160.825 17.6889C159.567 16.4309 157.435 14.9955 153.949 14.2274L153.518 16.1806ZM159.419 19.1116C161.502 21.1448 161.974 23.6875 161.974 25.788H163.974C163.974 23.4085 163.437 20.2392 160.816 17.6804L159.419 19.1116ZM161.974 25.788C161.974 28.7807 161.196 31.4809 158.891 33.8884L160.336 35.2716C163.071 32.4151 163.974 29.1793 163.974 25.788H161.974ZM158.897 33.8821C156.953 35.8773 153.178 38.34 146.454 38.34V40.34C153.729 40.34 158.018 37.6507 160.33 35.2779L158.897 33.8821ZM146.454 38.34C140.953 38.34 137.304 36.787 134.116 35.5006L133.367 37.3554C136.563 38.645 140.53 40.34 146.454 40.34V38.34ZM134.12 35.5025L132.888 34.9985L132.131 36.8495L133.363 37.3535L134.12 35.5025ZM133.442 36.286L137.53 25.758L135.665 25.034L131.577 35.562L133.442 36.286ZM135.988 26.1886L137.444 27.3086L138.663 25.7234L137.207 24.6034L135.988 26.1886ZM137.448 27.3122C138.927 28.4357 141.995 30.26 145.614 30.26V28.26C142.624 28.26 139.98 26.7243 138.659 25.7198L137.448 27.3122ZM145.614 30.26C147.624 30.26 148.648 29.7704 149.15 29.3689L147.901 27.8071C147.843 27.8536 147.299 28.26 145.614 28.26V30.26ZM149.159 29.362C150.101 28.5907 150.254 27.6196 150.254 26.908H148.254C148.254 27.1259 148.231 27.2905 148.181 27.4254C148.137 27.5474 148.059 27.6777 147.892 27.814L149.159 29.362ZM150.254 26.908C150.254 26.5166 150.201 25.6015 149.513 24.9129L148.098 26.3271C148.14 26.3685 148.181 26.4359 148.212 26.5481C148.243 26.6628 148.254 26.7904 148.254 26.908H150.254ZM149.513 24.9129C149.132 24.5324 148.671 24.315 148.181 24.1571C147.704 24.0034 147.113 23.881 146.426 23.7434L146.033 25.7046C146.746 25.847 147.219 25.9486 147.568 26.0609C147.904 26.169 148.031 26.2596 148.098 26.3271L149.513 24.9129ZM146.413 23.7409L143.109 23.1249L142.742 25.0911L146.046 25.7071L146.413 23.7409ZM143.107 23.1245C141.065 22.7484 139.008 22.1306 137.146 20.2184L135.713 21.6136C137.995 23.9574 140.53 24.6836 142.744 25.0915L143.107 23.1245ZM137.147 20.2192C135.446 18.4679 134.742 16.4883 134.742 14.028H132.742C132.742 16.9437 133.605 19.4441 135.712 21.6128L137.147 20.2192ZM134.742 14.028C134.742 10.8106 135.82 8.10016 138.089 5.83111L136.674 4.41689C134.015 7.07583 132.742 10.3014 132.742 14.028H134.742ZM138.095 5.82421C140.739 3.12894 144.669 1.308 150.374 1.308V-0.692002C144.206 -0.692002 139.736 1.29506 136.668 4.42379L138.095 5.82421ZM150.374 1.308C153.204 1.308 156.878 1.78273 161.224 4.41162L162.259 2.70038C157.533 -0.158732 153.479 -0.692002 150.374 -0.692002V1.308Z" fill="#333333" mask="url(#path-1-inside-1_0_170)"/>
</svg>
