<svg width="269" height="40" viewBox="0 0 269 40" fill="none" xmlns="http://www.w3.org/2000/svg">
<mask id="path-1-inside-1_0_2203" fill="white">
<path d="M13.468 38.9854H0.252V1.63335H18.172C24.108 1.63335 27.524 4.04135 29.092 5.55335C32.172 8.57735 32.9 12.3854 32.9 15.3534C32.9 18.4334 32.228 21.9614 29.204 24.7054C26.236 27.3934 22.876 27.7294 20.02 27.7294H13.468V38.9854ZM13.468 11.8814V18.3214H15.764C16.436 18.3214 17.836 18.2654 18.788 17.3134C19.292 16.8654 19.684 16.1374 19.684 15.0173C19.684 13.8413 19.18 13.1134 18.676 12.7214C18.06 12.2174 16.94 11.8814 15.932 11.8814H13.468ZM77.3636 20.2814C77.3636 26.2734 75.0676 30.8654 72.1556 33.8334C68.9636 37.0814 63.7556 39.8254 56.6436 39.8254C49.5316 39.8254 44.3236 37.0814 41.1316 33.8334C38.2196 30.8654 35.9236 26.2734 35.9236 20.2814C35.9236 14.3454 38.2196 9.75335 41.1316 6.78535C44.3236 3.53735 49.5316 0.793349 56.6436 0.793349C63.7556 0.793349 68.9636 3.53735 72.1556 6.78535C75.0676 9.75335 77.3636 14.3454 77.3636 20.2814ZM56.6436 12.8334C54.2356 12.8334 52.6676 13.7854 51.7716 14.7373C50.4276 16.1374 49.6436 18.3214 49.6436 20.3374C49.6436 22.4654 50.4276 24.5374 51.7716 25.8814C52.8916 27.0014 54.5716 27.7854 56.6436 27.7854C58.7156 27.7854 60.3956 27.0014 61.5156 25.8814C62.7476 24.6494 63.6436 22.6894 63.6436 20.3374C63.6436 17.9853 62.8596 16.0254 61.5156 14.7373C60.5076 13.7293 58.8836 12.8334 56.6436 12.8334ZM96.4289 38.9854H83.2129V1.63335H101.133C107.069 1.63335 110.485 4.04135 112.053 5.55335C115.133 8.57735 115.861 12.3854 115.861 15.3534C115.861 18.4334 115.189 21.9614 112.165 24.7054C109.197 27.3934 105.837 27.7294 102.981 27.7294H96.4289V38.9854ZM96.4289 11.8814V18.3214H98.7249C99.3969 18.3214 100.797 18.2654 101.749 17.3134C102.253 16.8654 102.645 16.1374 102.645 15.0173C102.645 13.8413 102.141 13.1134 101.637 12.7214C101.021 12.2174 99.9009 11.8814 98.8929 11.8814H96.4289ZM120.565 25.4894V1.63335H134.005V23.3054C134.005 24.4254 134.117 25.9934 135.181 27.1134C135.909 27.8974 136.805 28.1214 137.869 28.1214C139.269 28.1214 140.109 27.7294 140.613 27.2254C141.621 26.2174 141.621 24.2574 141.621 23.3054V1.63335H155.117V24.5374C155.117 27.4494 154.557 31.7054 151.197 35.1774C147.389 39.0974 142.013 39.8254 137.869 39.8254C134.453 39.8254 128.237 39.4894 123.981 34.8974C121.069 31.7614 120.565 28.2334 120.565 25.4894ZM187.595 38.9854H162.619V1.63335H176.171V26.9454H187.595V38.9854ZM214.046 34.3374H203.742L202.734 38.9854H188.398L201.334 1.63335H216.342L229.67 38.9854H215.278L214.046 34.3374ZM209.958 18.3214C209.622 16.8654 209.398 15.4654 209.23 14.1213H208.726C208.67 15.6894 208.446 16.9774 208.11 18.3214L206.262 25.4894H211.694L209.958 18.3214ZM246.656 38.9854H233.44V1.63335H250.296C254.216 1.63335 258.304 2.08135 261.72 5.49735C263.624 7.40135 265.248 10.2574 265.248 14.6814C265.248 17.9853 264.24 20.0573 263.176 21.3454C262.056 22.7454 260.208 23.8654 258.024 24.3134V24.6494C258.752 25.0414 259.48 25.6014 259.984 26.3854L268.384 38.9854H252.76L247.384 28.0654C247.216 27.6734 247.048 27.5054 246.88 26.8894L246.656 27.0014V38.9854ZM246.656 11.8814V18.2654H248.224C249.008 18.2654 250.24 18.1534 251.08 17.4254C251.528 17.0334 252.032 16.3053 252.032 15.1293C252.032 14.2894 251.808 13.4493 251.304 12.8894C250.856 12.3854 250.128 11.8814 249.008 11.8814H246.656Z"/>
</mask>
<path d="M13.468 38.9854H0.252V1.63335H18.172C24.108 1.63335 27.524 4.04135 29.092 5.55335C32.172 8.57735 32.9 12.3854 32.9 15.3534C32.9 18.4334 32.228 21.9614 29.204 24.7054C26.236 27.3934 22.876 27.7294 20.02 27.7294H13.468V38.9854ZM13.468 11.8814V18.3214H15.764C16.436 18.3214 17.836 18.2654 18.788 17.3134C19.292 16.8654 19.684 16.1374 19.684 15.0173C19.684 13.8413 19.18 13.1134 18.676 12.7214C18.06 12.2174 16.94 11.8814 15.932 11.8814H13.468ZM77.3636 20.2814C77.3636 26.2734 75.0676 30.8654 72.1556 33.8334C68.9636 37.0814 63.7556 39.8254 56.6436 39.8254C49.5316 39.8254 44.3236 37.0814 41.1316 33.8334C38.2196 30.8654 35.9236 26.2734 35.9236 20.2814C35.9236 14.3454 38.2196 9.75335 41.1316 6.78535C44.3236 3.53735 49.5316 0.793349 56.6436 0.793349C63.7556 0.793349 68.9636 3.53735 72.1556 6.78535C75.0676 9.75335 77.3636 14.3454 77.3636 20.2814ZM56.6436 12.8334C54.2356 12.8334 52.6676 13.7854 51.7716 14.7373C50.4276 16.1374 49.6436 18.3214 49.6436 20.3374C49.6436 22.4654 50.4276 24.5374 51.7716 25.8814C52.8916 27.0014 54.5716 27.7854 56.6436 27.7854C58.7156 27.7854 60.3956 27.0014 61.5156 25.8814C62.7476 24.6494 63.6436 22.6894 63.6436 20.3374C63.6436 17.9853 62.8596 16.0254 61.5156 14.7373C60.5076 13.7293 58.8836 12.8334 56.6436 12.8334ZM96.4289 38.9854H83.2129V1.63335H101.133C107.069 1.63335 110.485 4.04135 112.053 5.55335C115.133 8.57735 115.861 12.3854 115.861 15.3534C115.861 18.4334 115.189 21.9614 112.165 24.7054C109.197 27.3934 105.837 27.7294 102.981 27.7294H96.4289V38.9854ZM96.4289 11.8814V18.3214H98.7249C99.3969 18.3214 100.797 18.2654 101.749 17.3134C102.253 16.8654 102.645 16.1374 102.645 15.0173C102.645 13.8413 102.141 13.1134 101.637 12.7214C101.021 12.2174 99.9009 11.8814 98.8929 11.8814H96.4289ZM120.565 25.4894V1.63335H134.005V23.3054C134.005 24.4254 134.117 25.9934 135.181 27.1134C135.909 27.8974 136.805 28.1214 137.869 28.1214C139.269 28.1214 140.109 27.7294 140.613 27.2254C141.621 26.2174 141.621 24.2574 141.621 23.3054V1.63335H155.117V24.5374C155.117 27.4494 154.557 31.7054 151.197 35.1774C147.389 39.0974 142.013 39.8254 137.869 39.8254C134.453 39.8254 128.237 39.4894 123.981 34.8974C121.069 31.7614 120.565 28.2334 120.565 25.4894ZM187.595 38.9854H162.619V1.63335H176.171V26.9454H187.595V38.9854ZM214.046 34.3374H203.742L202.734 38.9854H188.398L201.334 1.63335H216.342L229.67 38.9854H215.278L214.046 34.3374ZM209.958 18.3214C209.622 16.8654 209.398 15.4654 209.23 14.1213H208.726C208.67 15.6894 208.446 16.9774 208.11 18.3214L206.262 25.4894H211.694L209.958 18.3214ZM246.656 38.9854H233.44V1.63335H250.296C254.216 1.63335 258.304 2.08135 261.72 5.49735C263.624 7.40135 265.248 10.2574 265.248 14.6814C265.248 17.9853 264.24 20.0573 263.176 21.3454C262.056 22.7454 260.208 23.8654 258.024 24.3134V24.6494C258.752 25.0414 259.48 25.6014 259.984 26.3854L268.384 38.9854H252.76L247.384 28.0654C247.216 27.6734 247.048 27.5054 246.88 26.8894L246.656 27.0014V38.9854ZM246.656 11.8814V18.2654H248.224C249.008 18.2654 250.24 18.1534 251.08 17.4254C251.528 17.0334 252.032 16.3053 252.032 15.1293C252.032 14.2894 251.808 13.4493 251.304 12.8894C250.856 12.3854 250.128 11.8814 249.008 11.8814H246.656Z" fill="white"/>
<path d="M13.468 38.9854V39.9854C14.0203 39.9854 14.468 39.5376 14.468 38.9854H13.468ZM0.252 38.9854H-0.748C-0.748 39.5376 -0.300285 39.9854 0.252 39.9854V38.9854ZM0.252 1.63335V0.633348C-0.300285 0.633348 -0.748 1.08106 -0.748 1.63335H0.252ZM29.092 5.55335L29.7926 4.83976L29.7861 4.83351L29.092 5.55335ZM29.204 24.7054L29.8753 25.4466L29.876 25.4459L29.204 24.7054ZM13.468 27.7294V26.7294C12.9157 26.7294 12.468 27.1771 12.468 27.7294H13.468ZM13.468 11.8814V10.8814C12.9157 10.8814 12.468 11.3291 12.468 11.8814H13.468ZM13.468 18.3214H12.468C12.468 18.8736 12.9157 19.3214 13.468 19.3214V18.3214ZM18.788 17.3134L18.1236 16.5659C18.109 16.579 18.0947 16.5924 18.0809 16.6062L18.788 17.3134ZM18.676 12.7214L18.0428 13.4953C18.0491 13.5005 18.0556 13.5057 18.0621 13.5107L18.676 12.7214ZM13.468 37.9854H0.252V39.9854H13.468V37.9854ZM1.252 38.9854V1.63335H-0.748V38.9854H1.252ZM0.252 2.63335H18.172V0.633348H0.252V2.63335ZM18.172 2.63335C23.8048 2.63335 26.9817 4.90764 28.3979 6.2732L29.7861 4.83351C28.0663 3.17506 24.4112 0.633348 18.172 0.633348V2.63335ZM28.3914 6.26692C31.209 9.03332 31.9 12.5348 31.9 15.3534H33.9C33.9 12.2359 33.135 8.12138 29.7926 4.83979L28.3914 6.26692ZM31.9 15.3534C31.9 18.2957 31.2599 21.4895 28.532 23.9648L29.876 25.4459C33.1961 22.4332 33.9 18.571 33.9 15.3534H31.9ZM28.5327 23.9641C25.8455 26.3979 22.8003 26.7294 20.02 26.7294V28.7294C22.9517 28.7294 26.6265 28.3888 29.8753 25.4466L28.5327 23.9641ZM20.02 26.7294H13.468V28.7294H20.02V26.7294ZM12.468 27.7294V38.9854H14.468V27.7294H12.468ZM12.468 11.8814V18.3214H14.468V11.8814H12.468ZM13.468 19.3214H15.764V17.3214H13.468V19.3214ZM15.764 19.3214C16.4334 19.3214 18.2265 19.2891 19.4951 18.0205L18.0809 16.6062C17.4455 17.2417 16.4386 17.3214 15.764 17.3214V19.3214ZM19.4524 18.0608C20.1906 17.4045 20.684 16.394 20.684 15.0173H18.684C18.684 15.8807 18.3934 16.3262 18.1236 16.5659L19.4524 18.0608ZM20.684 15.0173C20.684 13.5199 20.0272 12.5054 19.2899 11.932L18.0621 13.5107C18.3328 13.7213 18.684 14.1628 18.684 15.0173H20.684ZM19.3092 11.9474C18.4661 11.2575 17.0993 10.8814 15.932 10.8814V12.8814C16.7807 12.8814 17.6539 13.1772 18.0428 13.4953L19.3092 11.9474ZM15.932 10.8814H13.468V12.8814H15.932V10.8814ZM72.1556 33.8334L72.8688 34.5343L72.8694 34.5337L72.1556 33.8334ZM41.1316 33.8334L40.4178 34.5337L40.4183 34.5343L41.1316 33.8334ZM41.1316 6.78535L40.4183 6.08442L40.4178 6.08501L41.1316 6.78535ZM72.1556 6.78535L72.8694 6.08501L72.8688 6.08442L72.1556 6.78535ZM51.7716 14.7373L52.493 15.4299L52.4998 15.4227L51.7716 14.7373ZM51.7716 25.8814L52.4787 25.1742L52.4787 25.1742L51.7716 25.8814ZM61.5156 25.8814L60.8085 25.1742L60.8085 25.1742L61.5156 25.8814ZM61.5156 14.7373L60.8085 15.4445C60.8135 15.4495 60.8185 15.4544 60.8237 15.4593L61.5156 14.7373ZM76.3636 20.2814C76.3636 26.0054 74.1746 30.3476 71.4418 33.133L72.8694 34.5337C75.9605 31.3831 78.3636 26.5413 78.3636 20.2814H76.3636ZM71.4423 33.1324C68.4364 36.1911 63.4845 38.8254 56.6436 38.8254V40.8254C64.0266 40.8254 69.4908 37.9716 72.8688 34.5343L71.4423 33.1324ZM56.6436 38.8254C49.8026 38.8254 44.8508 36.1911 41.8448 33.1324L40.4183 34.5343C43.7964 37.9716 49.2605 40.8254 56.6436 40.8254V38.8254ZM41.8454 33.133C39.1125 30.3476 36.9236 26.0054 36.9236 20.2814H34.9236C34.9236 26.5413 37.3266 31.3831 40.4178 34.5337L41.8454 33.133ZM36.9236 20.2814C36.9236 14.6149 39.1114 10.2722 41.8454 7.48569L40.4178 6.08501C37.3277 9.23447 34.9236 14.0758 34.9236 20.2814H36.9236ZM41.8448 7.48628C44.8508 4.42757 49.8026 1.79335 56.6436 1.79335V-0.206651C49.2605 -0.206651 43.7964 2.64713 40.4183 6.08442L41.8448 7.48628ZM56.6436 1.79335C63.4845 1.79335 68.4364 4.42757 71.4423 7.48628L72.8688 6.08442C69.4908 2.64713 64.0266 -0.206651 56.6436 -0.206651V1.79335ZM71.4418 7.48569C74.1757 10.2722 76.3636 14.6149 76.3636 20.2814H78.3636C78.3636 14.0758 75.9594 9.23447 72.8694 6.08501L71.4418 7.48569ZM56.6436 11.8334C53.9461 11.8334 52.1187 12.9094 51.0434 14.052L52.4998 15.4227C53.2164 14.6613 54.525 13.8334 56.6436 13.8334V11.8334ZM51.0502 14.0448C49.5037 15.6557 48.6436 18.0995 48.6436 20.3374H50.6436C50.6436 18.5432 51.3514 16.619 52.493 15.4299L51.0502 14.0448ZM48.6436 20.3374C48.6436 22.6896 49.5058 25.0298 51.0645 26.5885L52.4787 25.1742C51.3493 24.0449 50.6436 22.2411 50.6436 20.3374H48.6436ZM51.0645 26.5885C52.3754 27.8994 54.3112 28.7854 56.6436 28.7854V26.7854C54.8319 26.7854 53.4077 26.1033 52.4787 25.1742L51.0645 26.5885ZM56.6436 28.7854C58.9759 28.7854 60.9117 27.8994 62.2227 26.5885L60.8085 25.1742C59.8794 26.1033 58.4552 26.7854 56.6436 26.7854V28.7854ZM62.2227 26.5885C63.6519 25.1592 64.6436 22.9405 64.6436 20.3374H62.6436C62.6436 22.4382 61.8432 24.1395 60.8085 25.1742L62.2227 26.5885ZM64.6436 20.3374C64.6436 17.7666 63.784 15.5262 62.2075 14.0154L60.8237 15.4593C61.9351 16.5245 62.6436 18.2041 62.6436 20.3374H64.6436ZM62.2227 14.0302C61.0419 12.8495 59.169 11.8334 56.6436 11.8334V13.8334C58.5981 13.8334 59.9732 14.6092 60.8085 15.4445L62.2227 14.0302ZM96.4289 38.9854V39.9854C96.9812 39.9854 97.4289 39.5376 97.4289 38.9854H96.4289ZM83.2129 38.9854H82.2129C82.2129 39.5376 82.6607 39.9854 83.2129 39.9854V38.9854ZM83.2129 1.63335V0.633348C82.6607 0.633348 82.2129 1.08106 82.2129 1.63335H83.2129ZM112.053 5.55335L112.754 4.83976L112.747 4.83351L112.053 5.55335ZM112.165 24.7054L112.836 25.4466L112.837 25.4459L112.165 24.7054ZM96.4289 27.7294V26.7294C95.8767 26.7294 95.4289 27.1771 95.4289 27.7294H96.4289ZM96.4289 11.8814V10.8814C95.8767 10.8814 95.4289 11.3291 95.4289 11.8814H96.4289ZM96.4289 18.3214H95.4289C95.4289 18.8736 95.8767 19.3214 96.4289 19.3214V18.3214ZM101.749 17.3134L101.085 16.5659C101.07 16.579 101.056 16.5924 101.042 16.6062L101.749 17.3134ZM101.637 12.7214L101.004 13.4953C101.01 13.5005 101.017 13.5057 101.023 13.5107L101.637 12.7214ZM96.4289 37.9854H83.2129V39.9854H96.4289V37.9854ZM84.2129 38.9854V1.63335H82.2129V38.9854H84.2129ZM83.2129 2.63335H101.133V0.633348H83.2129V2.63335ZM101.133 2.63335C106.766 2.63335 109.943 4.90764 111.359 6.2732L112.747 4.83351C111.027 3.17506 107.372 0.633348 101.133 0.633348V2.63335ZM111.352 6.26692C114.17 9.03332 114.861 12.5348 114.861 15.3534H116.861C116.861 12.2359 116.096 8.12138 112.754 4.83979L111.352 6.26692ZM114.861 15.3534C114.861 18.2957 114.221 21.4895 111.493 23.9648L112.837 25.4459C116.157 22.4332 116.861 18.571 116.861 15.3534H114.861ZM111.494 23.9641C108.806 26.3979 105.761 26.7294 102.981 26.7294V28.7294C105.913 28.7294 109.587 28.3888 112.836 25.4466L111.494 23.9641ZM102.981 26.7294H96.4289V28.7294H102.981V26.7294ZM95.4289 27.7294V38.9854H97.4289V27.7294H95.4289ZM95.4289 11.8814V18.3214H97.4289V11.8814H95.4289ZM96.4289 19.3214H98.7249V17.3214H96.4289V19.3214ZM98.7249 19.3214C99.3943 19.3214 101.187 19.2891 102.456 18.0205L101.042 16.6062C100.406 17.2417 99.3996 17.3214 98.7249 17.3214V19.3214ZM102.413 18.0608C103.152 17.4045 103.645 16.394 103.645 15.0173H101.645C101.645 15.8807 101.354 16.3262 101.085 16.5659L102.413 18.0608ZM103.645 15.0173C103.645 13.5199 102.988 12.5054 102.251 11.932L101.023 13.5107C101.294 13.7213 101.645 14.1628 101.645 15.0173H103.645ZM102.27 11.9474C101.427 11.2575 100.06 10.8814 98.8929 10.8814V12.8814C99.7417 12.8814 100.615 13.1772 101.004 13.4953L102.27 11.9474ZM98.8929 10.8814H96.4289V12.8814H98.8929V10.8814ZM120.565 1.63335V0.633348C120.012 0.633348 119.565 1.08106 119.565 1.63335H120.565ZM134.005 1.63335H135.005C135.005 1.08106 134.557 0.633348 134.005 0.633348V1.63335ZM135.181 27.1134L135.913 26.4329L135.905 26.4246L135.181 27.1134ZM141.621 1.63335V0.633348C141.068 0.633348 140.621 1.08106 140.621 1.63335H141.621ZM155.117 1.63335H156.117C156.117 1.08106 155.669 0.633348 155.117 0.633348V1.63335ZM151.197 35.1774L151.914 35.8741L151.915 35.8728L151.197 35.1774ZM123.981 34.8974L124.714 34.2176L124.713 34.2169L123.981 34.8974ZM121.565 25.4894V1.63335H119.565V25.4894H121.565ZM120.565 2.63335H134.005V0.633348H120.565V2.63335ZM133.005 1.63335V23.3054H135.005V1.63335H133.005ZM133.005 23.3054C133.005 24.437 133.098 26.3734 134.456 27.8021L135.905 26.4246C135.135 25.6133 135.005 24.4137 135.005 23.3054H133.005ZM134.448 27.7938C135.437 28.859 136.654 29.1214 137.869 29.1214V27.1214C136.955 27.1214 136.38 26.9357 135.913 26.4329L134.448 27.7938ZM137.869 29.1214C139.461 29.1214 140.582 28.6698 141.32 27.9325L139.905 26.5182C139.635 26.7889 139.076 27.1214 137.869 27.1214V29.1214ZM141.32 27.9325C142.041 27.2109 142.341 26.223 142.48 25.4133C142.622 24.5838 142.621 23.7764 142.621 23.3054H140.621C140.621 23.7863 140.619 24.4349 140.509 25.0754C140.396 25.7357 140.192 26.2318 139.905 26.5182L141.32 27.9325ZM142.621 23.3054V1.63335H140.621V23.3054H142.621ZM141.621 2.63335H155.117V0.633348H141.621V2.63335ZM154.117 1.63335V24.5374H156.117V1.63335H154.117ZM154.117 24.5374C154.117 27.3376 153.576 31.2809 150.478 34.4819L151.915 35.8728C155.537 32.1298 156.117 27.5611 156.117 24.5374H154.117ZM150.479 34.4806C146.963 38.1 141.94 38.8254 137.869 38.8254V40.8254C142.085 40.8254 147.814 40.0947 151.914 35.8741L150.479 34.4806ZM137.869 38.8254C134.465 38.8254 128.655 38.4696 124.714 34.2176L123.247 35.5771C127.818 40.5091 134.44 40.8254 137.869 40.8254V38.8254ZM124.713 34.2169C122.043 31.3412 121.565 28.107 121.565 25.4894H119.565C119.565 28.3597 120.094 32.1815 123.248 35.5778L124.713 34.2169ZM187.595 38.9854V39.9854C188.147 39.9854 188.595 39.5376 188.595 38.9854H187.595ZM162.619 38.9854H161.619C161.619 39.5376 162.067 39.9854 162.619 39.9854V38.9854ZM162.619 1.63335V0.633348C162.067 0.633348 161.619 1.08106 161.619 1.63335H162.619ZM176.171 1.63335H177.171C177.171 1.08106 176.723 0.633348 176.171 0.633348V1.63335ZM176.171 26.9454H175.171C175.171 27.4976 175.619 27.9454 176.171 27.9454V26.9454ZM187.595 26.9454H188.595C188.595 26.3931 188.147 25.9454 187.595 25.9454V26.9454ZM187.595 37.9854H162.619V39.9854H187.595V37.9854ZM163.619 38.9854V1.63335H161.619V38.9854H163.619ZM162.619 2.63335H176.171V0.633348H162.619V2.63335ZM175.171 1.63335V26.9454H177.171V1.63335H175.171ZM176.171 27.9454H187.595V25.9454H176.171V27.9454ZM186.595 26.9454V38.9854H188.595V26.9454H186.595ZM214.046 34.3374L215.013 34.0811C214.897 33.6427 214.5 33.3374 214.046 33.3374V34.3374ZM203.742 34.3374V33.3374C203.272 33.3374 202.865 33.6655 202.765 34.1254L203.742 34.3374ZM202.734 38.9854V39.9854C203.205 39.9854 203.612 39.6572 203.712 39.1973L202.734 38.9854ZM188.398 38.9854L187.454 38.6581C187.348 38.9638 187.396 39.3018 187.584 39.5653C187.771 39.8289 188.075 39.9854 188.398 39.9854V38.9854ZM201.334 1.63335V0.633348C200.908 0.633348 200.529 0.90341 200.39 1.30609L201.334 1.63335ZM216.342 1.63335L217.284 1.29728C217.142 0.899149 216.765 0.633348 216.342 0.633348V1.63335ZM229.67 38.9854V39.9854C229.996 39.9854 230.3 39.8273 230.488 39.5615C230.675 39.2958 230.722 38.9555 230.612 38.6493L229.67 38.9854ZM215.278 38.9854L214.312 39.2416C214.428 39.68 214.825 39.9854 215.278 39.9854V38.9854ZM209.958 18.3214L208.984 18.5462L208.987 18.5567L209.958 18.3214ZM209.23 14.1213L210.223 13.9973C210.16 13.4969 209.735 13.1213 209.23 13.1213V14.1213ZM208.726 14.1213V13.1213C208.188 13.1213 207.746 13.5476 207.727 14.0857L208.726 14.1213ZM208.11 18.3214L209.079 18.571L209.081 18.5639L208.11 18.3214ZM206.262 25.4894L205.294 25.2397C205.217 25.5391 205.283 25.8574 205.472 26.1019C205.661 26.3463 205.953 26.4894 206.262 26.4894V25.4894ZM211.694 25.4894V26.4894C212.001 26.4894 212.291 26.3487 212.48 26.1077C212.67 25.8667 212.739 25.552 212.666 25.254L211.694 25.4894ZM214.046 33.3374H203.742V35.3374H214.046V33.3374ZM202.765 34.1254L201.757 38.7734L203.712 39.1973L204.72 34.5493L202.765 34.1254ZM202.734 37.9854H188.398V39.9854H202.734V37.9854ZM189.343 39.3126L202.279 1.9606L200.39 1.30609L187.454 38.6581L189.343 39.3126ZM201.334 2.63335H216.342V0.633348H201.334V2.63335ZM215.401 1.96942L228.729 39.3214L230.612 38.6493L217.284 1.29728L215.401 1.96942ZM229.67 37.9854H215.278V39.9854H229.67V37.9854ZM216.245 38.7291L215.013 34.0811L213.08 34.5936L214.312 39.2416L216.245 38.7291ZM210.933 18.0965C210.607 16.6825 210.388 15.3176 210.223 13.9973L208.238 14.2454C208.409 15.6131 208.638 17.0482 208.984 18.5462L210.933 18.0965ZM209.23 13.1213H208.726V15.1213H209.23V13.1213ZM207.727 14.0857C207.674 15.5693 207.463 16.7867 207.14 18.0788L209.081 18.5639C209.43 17.168 209.667 15.8094 209.726 14.157L207.727 14.0857ZM207.142 18.0717L205.294 25.2397L207.231 25.739L209.079 18.571L207.142 18.0717ZM206.262 26.4894H211.694V24.4894H206.262V26.4894ZM212.666 25.254L210.93 18.086L208.987 18.5567L210.723 25.7247L212.666 25.254ZM246.656 38.9854V39.9854C247.208 39.9854 247.656 39.5376 247.656 38.9854H246.656ZM233.44 38.9854H232.44C232.44 39.5376 232.887 39.9854 233.44 39.9854V38.9854ZM233.44 1.63335V0.633348C232.887 0.633348 232.44 1.08106 232.44 1.63335H233.44ZM261.72 5.49735L262.427 4.79024L262.427 4.79024L261.72 5.49735ZM263.176 21.3454L262.405 20.7085C262.401 20.7125 262.398 20.7166 262.395 20.7207L263.176 21.3454ZM258.024 24.3134L257.823 23.3337C257.357 23.4292 257.024 23.8385 257.024 24.3134H258.024ZM258.024 24.6494H257.024C257.024 25.0172 257.225 25.3554 257.549 25.5298L258.024 24.6494ZM259.984 26.3854L259.142 26.9261C259.145 26.9308 259.148 26.9354 259.151 26.9401L259.984 26.3854ZM268.384 38.9854V39.9854C268.752 39.9854 269.091 39.7824 269.265 39.4572C269.439 39.1321 269.42 38.7375 269.216 38.4307L268.384 38.9854ZM252.76 38.9854L251.862 39.427C252.031 39.7689 252.379 39.9854 252.76 39.9854V38.9854ZM247.384 28.0654L246.464 28.4593C246.471 28.4754 246.479 28.4913 246.486 28.507L247.384 28.0654ZM246.88 26.8894L247.844 26.6262C247.765 26.3372 247.561 26.0987 247.288 25.9764C247.014 25.8542 246.7 25.8609 246.432 25.9949L246.88 26.8894ZM246.656 27.0014L246.208 26.1069C245.87 26.2763 245.656 26.6226 245.656 27.0014H246.656ZM246.656 11.8814V10.8814C246.103 10.8814 245.656 11.3291 245.656 11.8814H246.656ZM246.656 18.2654H245.656C245.656 18.8176 246.103 19.2654 246.656 19.2654V18.2654ZM251.08 17.4254L251.734 18.181L251.738 18.1779L251.08 17.4254ZM251.304 12.8894L250.556 13.5537L250.56 13.5583L251.304 12.8894ZM246.656 37.9854H233.44V39.9854H246.656V37.9854ZM234.44 38.9854V1.63335H232.44V38.9854H234.44ZM233.44 2.63335H250.296V0.633348H233.44V2.63335ZM250.296 2.63335C254.151 2.63335 257.89 3.08156 261.012 6.20446L262.427 4.79024C258.718 1.08114 254.28 0.633348 250.296 0.633348V2.63335ZM261.012 6.20445C262.741 7.93296 264.248 10.5391 264.248 14.6814H266.248C266.248 9.97558 264.506 6.86974 262.427 4.79024L261.012 6.20445ZM264.248 14.6814C264.248 17.7618 263.315 19.6065 262.405 20.7085L263.946 21.9822C265.164 20.5082 266.248 18.2089 266.248 14.6814H264.248ZM262.395 20.7207C261.438 21.9161 259.807 22.9266 257.823 23.3337L258.224 25.293C260.608 24.8041 262.673 23.5746 263.956 21.97L262.395 20.7207ZM257.024 24.3134V24.6494H259.024V24.3134H257.024ZM257.549 25.5298C258.18 25.8695 258.757 26.3271 259.142 26.9261L260.825 25.8446C260.202 24.8756 259.323 24.2132 258.498 23.7689L257.549 25.5298ZM259.151 26.9401L267.551 39.5401L269.216 38.4307L260.816 25.8307L259.151 26.9401ZM268.384 37.9854H252.76V39.9854H268.384V37.9854ZM253.657 38.5437L248.281 27.6237L246.486 28.507L251.862 39.427L253.657 38.5437ZM248.303 27.6714C248.206 27.4456 248.069 27.2 248.026 27.1141C247.969 26.9997 247.909 26.8652 247.844 26.6262L245.915 27.1525C246.018 27.5295 246.126 27.787 246.237 28.0086C246.362 28.2588 246.393 28.2931 246.464 28.4593L248.303 27.6714ZM246.432 25.9949L246.208 26.1069L247.103 27.8958L247.327 27.7838L246.432 25.9949ZM245.656 27.0014V38.9854H247.656V27.0014H245.656ZM245.656 11.8814V18.2654H247.656V11.8814H245.656ZM246.656 19.2654H248.224V17.2654H246.656V19.2654ZM248.224 19.2654C249.035 19.2654 250.599 19.1653 251.734 18.181L250.425 16.6697C249.88 17.1414 248.98 17.2654 248.224 17.2654V19.2654ZM251.738 18.1779C252.377 17.6185 253.032 16.6262 253.032 15.1293H251.032C251.032 15.9845 250.678 16.4482 250.421 16.6728L251.738 18.1779ZM253.032 15.1293C253.032 14.1457 252.774 13.0285 252.047 12.2204L250.56 13.5583C250.841 13.8702 251.032 14.433 251.032 15.1293H253.032ZM252.051 12.225C251.455 11.555 250.471 10.8814 249.008 10.8814V12.8814C249.784 12.8814 250.256 13.2157 250.556 13.5537L252.051 12.225ZM249.008 10.8814H246.656V12.8814H249.008V10.8814Z" fill="#333333" mask="url(#path-1-inside-1_0_2203)"/>
</svg>
