<svg width="340" height="40" viewBox="0 0 340 40" fill="none" xmlns="http://www.w3.org/2000/svg">
<mask id="path-1-inside-1_0_5703" fill="white">
<path d="M17.7462 38.2549H-0.00581241V0.90288H14.3862C17.5222 0.90288 25.4742 1.18288 30.9062 6.55888C33.3142 8.96688 35.9462 13.1669 35.9462 20.0549C35.9462 23.9189 35.2182 28.9029 31.1302 32.9909C28.8902 35.2869 24.5222 38.2549 17.7462 38.2549ZM13.4342 12.3269V26.8309H14.4422C16.0102 26.8309 18.3062 26.7749 20.2102 25.0949C21.4982 23.9749 22.3942 22.0709 22.3942 19.7189C22.3942 17.3109 21.4422 15.2949 20.2102 14.1189C18.5862 12.6069 16.4582 12.3269 14.8902 12.3269H13.4342ZM67.2568 38.2549H41.7208V0.90288H66.9208V11.1509H55.2728V14.6229H65.8568V24.4229H55.2728V28.0069H67.2568V38.2549ZM86.6087 38.2549H73.0567V0.90288H97.9767V11.5429H86.6087V15.3509H96.5767V25.2069H86.6087V38.2549ZM116.96 38.2549H103.408V0.90288H128.328V11.5429H116.96V15.3509H126.928V25.2069H116.96V38.2549ZM159.296 38.2549H133.76V0.90288H158.96V11.1509H147.312V14.6229H157.896V24.4229H147.312V28.0069H159.296V38.2549ZM178.312 38.2549H165.096V0.90288H181.952C185.872 0.90288 189.96 1.35088 193.376 4.76688C195.28 6.67088 196.904 9.52688 196.904 13.9509C196.904 17.2549 195.896 19.3269 194.832 20.6149C193.712 22.0149 191.864 23.1349 189.68 23.5829V23.9189C190.408 24.3109 191.136 24.8709 191.64 25.6549L200.04 38.2549H184.416L179.04 27.3349C178.872 26.9429 178.704 26.7749 178.536 26.1589L178.312 26.2709V38.2549ZM178.312 11.1509V17.5349H179.88C180.664 17.5349 181.896 17.4229 182.736 16.6949C183.184 16.3029 183.688 15.5749 183.688 14.3989C183.688 13.5589 183.464 12.7189 182.96 12.1589C182.512 11.6549 181.784 11.1509 180.664 11.1509H178.312ZM230.444 38.2549H204.908V0.90288H230.108V11.1509H218.46V14.6229H229.044V24.4229H218.46V28.0069H230.444V38.2549ZM249.18 38.2549H236.244V0.90288H249.18L257.86 15.0149C259.26 17.2549 260.156 18.7109 261.388 21.6229H261.78C261.22 19.2709 260.604 15.5189 260.604 12.7749V0.90288H273.596V38.2549H260.604L251.308 23.5269C250.468 22.1829 249.46 20.2229 248.732 18.6549H248.34C248.732 20.6709 249.18 23.8629 249.18 25.5429V38.2549ZM308.416 23.6389L308.024 37.5829C304.496 38.9269 300.352 39.0949 298.616 39.0949C293.744 39.0949 288.536 37.3589 284.84 33.6629C281.312 30.1909 279.408 25.1509 279.408 19.8869C279.408 14.1189 281.592 9.19088 285.008 5.71888C287.64 3.08688 292.12 0.0628805 299.12 0.0628805C301.92 0.0628805 305.056 0.510881 308.024 1.51888L308.416 15.7429C306.848 14.1749 303.936 12.0469 300.52 12.0469C298.392 12.0469 296.432 12.8869 295.088 14.3429C293.8 15.7429 293.128 17.7029 293.128 19.6629C293.128 21.6789 293.856 23.6389 295.312 25.0389C296.432 26.1029 298.168 27.1669 300.856 27.1669C304.664 27.1669 307.296 24.8709 308.416 23.6389ZM339.71 38.2549H314.174V0.90288H339.374V11.1509H327.726V14.6229H338.31V24.4229H327.726V28.0069H339.71V38.2549Z"/>
</mask>
<path d="M17.7462 38.2549H-0.00581241V0.90288H14.3862C17.5222 0.90288 25.4742 1.18288 30.9062 6.55888C33.3142 8.96688 35.9462 13.1669 35.9462 20.0549C35.9462 23.9189 35.2182 28.9029 31.1302 32.9909C28.8902 35.2869 24.5222 38.2549 17.7462 38.2549ZM13.4342 12.3269V26.8309H14.4422C16.0102 26.8309 18.3062 26.7749 20.2102 25.0949C21.4982 23.9749 22.3942 22.0709 22.3942 19.7189C22.3942 17.3109 21.4422 15.2949 20.2102 14.1189C18.5862 12.6069 16.4582 12.3269 14.8902 12.3269H13.4342ZM67.2568 38.2549H41.7208V0.90288H66.9208V11.1509H55.2728V14.6229H65.8568V24.4229H55.2728V28.0069H67.2568V38.2549ZM86.6087 38.2549H73.0567V0.90288H97.9767V11.5429H86.6087V15.3509H96.5767V25.2069H86.6087V38.2549ZM116.96 38.2549H103.408V0.90288H128.328V11.5429H116.96V15.3509H126.928V25.2069H116.96V38.2549ZM159.296 38.2549H133.76V0.90288H158.96V11.1509H147.312V14.6229H157.896V24.4229H147.312V28.0069H159.296V38.2549ZM178.312 38.2549H165.096V0.90288H181.952C185.872 0.90288 189.96 1.35088 193.376 4.76688C195.28 6.67088 196.904 9.52688 196.904 13.9509C196.904 17.2549 195.896 19.3269 194.832 20.6149C193.712 22.0149 191.864 23.1349 189.68 23.5829V23.9189C190.408 24.3109 191.136 24.8709 191.64 25.6549L200.04 38.2549H184.416L179.04 27.3349C178.872 26.9429 178.704 26.7749 178.536 26.1589L178.312 26.2709V38.2549ZM178.312 11.1509V17.5349H179.88C180.664 17.5349 181.896 17.4229 182.736 16.6949C183.184 16.3029 183.688 15.5749 183.688 14.3989C183.688 13.5589 183.464 12.7189 182.96 12.1589C182.512 11.6549 181.784 11.1509 180.664 11.1509H178.312ZM230.444 38.2549H204.908V0.90288H230.108V11.1509H218.46V14.6229H229.044V24.4229H218.46V28.0069H230.444V38.2549ZM249.18 38.2549H236.244V0.90288H249.18L257.86 15.0149C259.26 17.2549 260.156 18.7109 261.388 21.6229H261.78C261.22 19.2709 260.604 15.5189 260.604 12.7749V0.90288H273.596V38.2549H260.604L251.308 23.5269C250.468 22.1829 249.46 20.2229 248.732 18.6549H248.34C248.732 20.6709 249.18 23.8629 249.18 25.5429V38.2549ZM308.416 23.6389L308.024 37.5829C304.496 38.9269 300.352 39.0949 298.616 39.0949C293.744 39.0949 288.536 37.3589 284.84 33.6629C281.312 30.1909 279.408 25.1509 279.408 19.8869C279.408 14.1189 281.592 9.19088 285.008 5.71888C287.64 3.08688 292.12 0.0628805 299.12 0.0628805C301.92 0.0628805 305.056 0.510881 308.024 1.51888L308.416 15.7429C306.848 14.1749 303.936 12.0469 300.52 12.0469C298.392 12.0469 296.432 12.8869 295.088 14.3429C293.8 15.7429 293.128 17.7029 293.128 19.6629C293.128 21.6789 293.856 23.6389 295.312 25.0389C296.432 26.1029 298.168 27.1669 300.856 27.1669C304.664 27.1669 307.296 24.8709 308.416 23.6389ZM339.71 38.2549H314.174V0.90288H339.374V11.1509H327.726V14.6229H338.31V24.4229H327.726V28.0069H339.71V38.2549Z" fill="white"/>
<path d="M-0.00581241 38.2549H-1.00581C-1.00581 38.8072 -0.558097 39.2549 -0.00581241 39.2549V38.2549ZM-0.00581241 0.90288V-0.0971203C-0.558097 -0.0971203 -1.00581 0.350595 -1.00581 0.90288H-0.00581241ZM30.9062 6.55888L31.6133 5.85176L31.6096 5.84812L30.9062 6.55888ZM31.1302 32.9909L30.423 32.2837L30.4144 32.2926L31.1302 32.9909ZM13.4342 12.3269V11.3269C12.8819 11.3269 12.4342 11.7746 12.4342 12.3269H13.4342ZM13.4342 26.8309H12.4342C12.4342 27.3832 12.8819 27.8309 13.4342 27.8309V26.8309ZM20.2102 25.0949L19.554 24.3403L19.5486 24.345L20.2102 25.0949ZM20.2102 14.1189L20.9007 13.3955L20.8916 13.387L20.2102 14.1189ZM17.7462 37.2549H-0.00581241V39.2549H17.7462V37.2549ZM0.994188 38.2549V0.90288H-1.00581V38.2549H0.994188ZM-0.00581241 1.90288H14.3862V-0.0971203H-0.00581241V1.90288ZM14.3862 1.90288C17.5178 1.90288 25.0845 2.20414 30.2028 7.26964L31.6096 5.84812C25.8639 0.161615 17.5266 -0.0971203 14.3862 -0.0971203V1.90288ZM30.1991 7.26599C32.4366 9.50351 34.9462 13.4553 34.9462 20.0549H36.9462C36.9462 12.8785 34.1918 8.43026 31.6133 5.85177L30.1991 7.26599ZM34.9462 20.0549C34.9462 23.8022 34.2397 28.4672 30.4231 32.2838L31.8373 33.698C36.1967 29.3386 36.9462 24.0356 36.9462 20.0549H34.9462ZM30.4144 32.2926C28.3254 34.4338 24.2037 37.2549 17.7462 37.2549V39.2549C24.8407 39.2549 29.455 36.14 31.846 33.6892L30.4144 32.2926ZM12.4342 12.3269V26.8309H14.4342V12.3269H12.4342ZM13.4342 27.8309H14.4422V25.8309H13.4342V27.8309ZM14.4422 27.8309C16.0126 27.8309 18.6618 27.7948 20.8718 25.8447L19.5486 24.345C17.9506 25.755 16.0078 25.8309 14.4422 25.8309V27.8309ZM20.8664 25.8495C22.402 24.5141 23.3942 22.3192 23.3942 19.7189H21.3942C21.3942 21.8226 20.5943 23.4356 19.554 24.3403L20.8664 25.8495ZM23.3942 19.7189C23.3942 17.0578 22.3445 14.7737 20.9007 13.3955L19.5197 14.8422C20.5399 15.816 21.3942 17.564 21.3942 19.7189H23.3942ZM20.8916 13.387C18.9884 11.6151 16.5435 11.3269 14.8902 11.3269V13.3269C16.3729 13.3269 18.1839 13.5987 19.5288 14.8508L20.8916 13.387ZM14.8902 11.3269H13.4342V13.3269H14.8902V11.3269ZM67.2568 38.2549V39.2549C67.809 39.2549 68.2568 38.8072 68.2568 38.2549H67.2568ZM41.7208 38.2549H40.7208C40.7208 38.8072 41.1685 39.2549 41.7208 39.2549V38.2549ZM41.7208 0.90288V-0.0971203C41.1685 -0.0971203 40.7208 0.350595 40.7208 0.90288H41.7208ZM66.9208 0.90288H67.9208C67.9208 0.350595 67.473 -0.0971203 66.9208 -0.0971203V0.90288ZM66.9208 11.1509V12.1509C67.473 12.1509 67.9208 11.7032 67.9208 11.1509H66.9208ZM55.2728 11.1509V10.1509C54.7205 10.1509 54.2728 10.5986 54.2728 11.1509H55.2728ZM55.2728 14.6229H54.2728C54.2728 15.1752 54.7205 15.6229 55.2728 15.6229V14.6229ZM65.8568 14.6229H66.8568C66.8568 14.0706 66.409 13.6229 65.8568 13.6229V14.6229ZM65.8568 24.4229V25.4229C66.409 25.4229 66.8568 24.9752 66.8568 24.4229H65.8568ZM55.2728 24.4229V23.4229C54.7205 23.4229 54.2728 23.8706 54.2728 24.4229H55.2728ZM55.2728 28.0069H54.2728C54.2728 28.5592 54.7205 29.0069 55.2728 29.0069V28.0069ZM67.2568 28.0069H68.2568C68.2568 27.4546 67.809 27.0069 67.2568 27.0069V28.0069ZM67.2568 37.2549H41.7208V39.2549H67.2568V37.2549ZM42.7208 38.2549V0.90288H40.7208V38.2549H42.7208ZM41.7208 1.90288H66.9208V-0.0971203H41.7208V1.90288ZM65.9208 0.90288V11.1509H67.9208V0.90288H65.9208ZM66.9208 10.1509H55.2728V12.1509H66.9208V10.1509ZM54.2728 11.1509V14.6229H56.2728V11.1509H54.2728ZM55.2728 15.6229H65.8568V13.6229H55.2728V15.6229ZM64.8568 14.6229V24.4229H66.8568V14.6229H64.8568ZM65.8568 23.4229H55.2728V25.4229H65.8568V23.4229ZM54.2728 24.4229V28.0069H56.2728V24.4229H54.2728ZM55.2728 29.0069H67.2568V27.0069H55.2728V29.0069ZM66.2568 28.0069V38.2549H68.2568V28.0069H66.2568ZM86.6087 38.2549V39.2549C87.161 39.2549 87.6087 38.8072 87.6087 38.2549H86.6087ZM73.0567 38.2549H72.0567C72.0567 38.8072 72.5044 39.2549 73.0567 39.2549V38.2549ZM73.0567 0.90288V-0.0971203C72.5044 -0.0971203 72.0567 0.350595 72.0567 0.90288H73.0567ZM97.9767 0.90288H98.9767C98.9767 0.350595 98.529 -0.0971203 97.9767 -0.0971203V0.90288ZM97.9767 11.5429V12.5429C98.529 12.5429 98.9767 12.0952 98.9767 11.5429H97.9767ZM86.6087 11.5429V10.5429C86.0564 10.5429 85.6087 10.9906 85.6087 11.5429H86.6087ZM86.6087 15.3509H85.6087C85.6087 15.9032 86.0564 16.3509 86.6087 16.3509V15.3509ZM96.5767 15.3509H97.5767C97.5767 14.7986 97.129 14.3509 96.5767 14.3509V15.3509ZM96.5767 25.2069V26.2069C97.129 26.2069 97.5767 25.7592 97.5767 25.2069H96.5767ZM86.6087 25.2069V24.2069C86.0564 24.2069 85.6087 24.6546 85.6087 25.2069H86.6087ZM86.6087 37.2549H73.0567V39.2549H86.6087V37.2549ZM74.0567 38.2549V0.90288H72.0567V38.2549H74.0567ZM73.0567 1.90288H97.9767V-0.0971203H73.0567V1.90288ZM96.9767 0.90288V11.5429H98.9767V0.90288H96.9767ZM97.9767 10.5429H86.6087V12.5429H97.9767V10.5429ZM85.6087 11.5429V15.3509H87.6087V11.5429H85.6087ZM86.6087 16.3509H96.5767V14.3509H86.6087V16.3509ZM95.5767 15.3509V25.2069H97.5767V15.3509H95.5767ZM96.5767 24.2069H86.6087V26.2069H96.5767V24.2069ZM85.6087 25.2069V38.2549H87.6087V25.2069H85.6087ZM116.96 38.2549V39.2549C117.513 39.2549 117.96 38.8072 117.96 38.2549H116.96ZM103.408 38.2549H102.408C102.408 38.8072 102.856 39.2549 103.408 39.2549V38.2549ZM103.408 0.90288V-0.0971203C102.856 -0.0971203 102.408 0.350595 102.408 0.90288H103.408ZM128.328 0.90288H129.328C129.328 0.350595 128.881 -0.0971203 128.328 -0.0971203V0.90288ZM128.328 11.5429V12.5429C128.881 12.5429 129.328 12.0952 129.328 11.5429H128.328ZM116.96 11.5429V10.5429C116.408 10.5429 115.96 10.9906 115.96 11.5429H116.96ZM116.96 15.3509H115.96C115.96 15.9032 116.408 16.3509 116.96 16.3509V15.3509ZM126.928 15.3509H127.928C127.928 14.7986 127.481 14.3509 126.928 14.3509V15.3509ZM126.928 25.2069V26.2069C127.481 26.2069 127.928 25.7592 127.928 25.2069H126.928ZM116.96 25.2069V24.2069C116.408 24.2069 115.96 24.6546 115.96 25.2069H116.96ZM116.96 37.2549H103.408V39.2549H116.96V37.2549ZM104.408 38.2549V0.90288H102.408V38.2549H104.408ZM103.408 1.90288H128.328V-0.0971203H103.408V1.90288ZM127.328 0.90288V11.5429H129.328V0.90288H127.328ZM128.328 10.5429H116.96V12.5429H128.328V10.5429ZM115.96 11.5429V15.3509H117.96V11.5429H115.96ZM116.96 16.3509H126.928V14.3509H116.96V16.3509ZM125.928 15.3509V25.2069H127.928V15.3509H125.928ZM126.928 24.2069H116.96V26.2069H126.928V24.2069ZM115.96 25.2069V38.2549H117.96V25.2069H115.96ZM159.296 38.2549V39.2549C159.848 39.2549 160.296 38.8072 160.296 38.2549H159.296ZM133.76 38.2549H132.76C132.76 38.8072 133.208 39.2549 133.76 39.2549V38.2549ZM133.76 0.90288V-0.0971203C133.208 -0.0971203 132.76 0.350595 132.76 0.90288H133.76ZM158.96 0.90288H159.96C159.96 0.350595 159.512 -0.0971203 158.96 -0.0971203V0.90288ZM158.96 11.1509V12.1509C159.512 12.1509 159.96 11.7032 159.96 11.1509H158.96ZM147.312 11.1509V10.1509C146.76 10.1509 146.312 10.5986 146.312 11.1509H147.312ZM147.312 14.6229H146.312C146.312 15.1752 146.76 15.6229 147.312 15.6229V14.6229ZM157.896 14.6229H158.896C158.896 14.0706 158.448 13.6229 157.896 13.6229V14.6229ZM157.896 24.4229V25.4229C158.448 25.4229 158.896 24.9752 158.896 24.4229H157.896ZM147.312 24.4229V23.4229C146.76 23.4229 146.312 23.8706 146.312 24.4229H147.312ZM147.312 28.0069H146.312C146.312 28.5592 146.76 29.0069 147.312 29.0069V28.0069ZM159.296 28.0069H160.296C160.296 27.4546 159.848 27.0069 159.296 27.0069V28.0069ZM159.296 37.2549H133.76V39.2549H159.296V37.2549ZM134.76 38.2549V0.90288H132.76V38.2549H134.76ZM133.76 1.90288H158.96V-0.0971203H133.76V1.90288ZM157.96 0.90288V11.1509H159.96V0.90288H157.96ZM158.96 10.1509H147.312V12.1509H158.96V10.1509ZM146.312 11.1509V14.6229H148.312V11.1509H146.312ZM147.312 15.6229H157.896V13.6229H147.312V15.6229ZM156.896 14.6229V24.4229H158.896V14.6229H156.896ZM157.896 23.4229H147.312V25.4229H157.896V23.4229ZM146.312 24.4229V28.0069H148.312V24.4229H146.312ZM147.312 29.0069H159.296V27.0069H147.312V29.0069ZM158.296 28.0069V38.2549H160.296V28.0069H158.296ZM178.312 38.2549V39.2549C178.864 39.2549 179.312 38.8072 179.312 38.2549H178.312ZM165.096 38.2549H164.096C164.096 38.8072 164.543 39.2549 165.096 39.2549V38.2549ZM165.096 0.90288V-0.0971203C164.543 -0.0971203 164.096 0.350595 164.096 0.90288H165.096ZM193.376 4.76688L194.083 4.05977L194.083 4.05977L193.376 4.76688ZM194.832 20.6149L194.061 19.978C194.057 19.982 194.054 19.9861 194.051 19.9902L194.832 20.6149ZM189.68 23.5829L189.479 22.6033C189.014 22.6987 188.68 23.1081 188.68 23.5829H189.68ZM189.68 23.9189H188.68C188.68 24.2868 188.882 24.6249 189.206 24.7994L189.68 23.9189ZM191.64 25.6549L190.799 26.1956C190.802 26.2003 190.805 26.205 190.808 26.2096L191.64 25.6549ZM200.04 38.2549V39.2549C200.409 39.2549 200.747 39.0519 200.921 38.7267C201.095 38.4016 201.076 38.007 200.872 37.7002L200.04 38.2549ZM184.416 38.2549L183.519 38.6966C183.687 39.0384 184.035 39.2549 184.416 39.2549V38.2549ZM179.04 27.3349L178.121 27.7288C178.128 27.7449 178.135 27.7608 178.143 27.7766L179.04 27.3349ZM178.536 26.1589L179.501 25.8958C179.422 25.6067 179.217 25.3683 178.944 25.246C178.67 25.1237 178.357 25.1305 178.089 25.2645L178.536 26.1589ZM178.312 26.2709L177.865 25.3765C177.526 25.5458 177.312 25.8921 177.312 26.2709H178.312ZM178.312 11.1509V10.1509C177.759 10.1509 177.312 10.5986 177.312 11.1509H178.312ZM178.312 17.5349H177.312C177.312 18.0872 177.759 18.5349 178.312 18.5349V17.5349ZM182.736 16.6949L183.391 17.4506L183.394 17.4475L182.736 16.6949ZM182.96 12.1589L182.212 12.8233L182.216 12.8278L182.96 12.1589ZM178.312 37.2549H165.096V39.2549H178.312V37.2549ZM166.096 38.2549V0.90288H164.096V38.2549H166.096ZM165.096 1.90288H181.952V-0.0971203H165.096V1.90288ZM181.952 1.90288C185.807 1.90288 189.546 2.35109 192.669 5.47399L194.083 4.05977C190.374 0.350668 185.936 -0.0971203 181.952 -0.0971203V1.90288ZM192.669 5.47399C194.397 7.20249 195.904 9.80865 195.904 13.9509H197.904C197.904 9.24512 196.162 6.13928 194.083 4.05977L192.669 5.47399ZM195.904 13.9509C195.904 17.0314 194.971 18.876 194.061 19.978L195.603 21.2518C196.82 19.7778 197.904 17.4784 197.904 13.9509H195.904ZM194.051 19.9902C193.095 21.1856 191.463 22.1962 189.479 22.6033L189.881 24.5625C192.264 24.0736 194.329 22.8442 195.613 21.2396L194.051 19.9902ZM188.68 23.5829V23.9189H190.68V23.5829H188.68ZM189.206 24.7994C189.836 25.139 190.414 25.5967 190.799 26.1956L192.481 25.1141C191.858 24.1451 190.979 23.4828 190.154 23.0384L189.206 24.7994ZM190.808 26.2096L199.208 38.8096L200.872 37.7002L192.472 25.1002L190.808 26.2096ZM200.04 37.2549H184.416V39.2549H200.04V37.2549ZM185.313 37.8132L179.937 26.8932L178.143 27.7766L183.519 38.6966L185.313 37.8132ZM179.959 26.941C179.862 26.7152 179.725 26.4695 179.682 26.3837C179.625 26.2692 179.566 26.1347 179.501 25.8958L177.571 26.422C177.674 26.7991 177.783 27.0566 177.893 27.2781C178.018 27.5283 178.049 27.5626 178.121 27.7288L179.959 26.941ZM178.089 25.2645L177.865 25.3765L178.759 27.1653L178.983 27.0533L178.089 25.2645ZM177.312 26.2709V38.2549H179.312V26.2709H177.312ZM177.312 11.1509V17.5349H179.312V11.1509H177.312ZM178.312 18.5349H179.88V16.5349H178.312V18.5349ZM179.88 18.5349C180.691 18.5349 182.255 18.4348 183.391 17.4506L182.081 15.9392C181.536 16.4109 180.636 16.5349 179.88 16.5349V18.5349ZM183.394 17.4475C184.034 16.888 184.688 15.8957 184.688 14.3989H182.688C182.688 15.2541 182.334 15.7177 182.077 15.9423L183.394 17.4475ZM184.688 14.3989C184.688 13.4152 184.43 12.2981 183.703 11.4899L182.216 12.8278C182.497 13.1397 182.688 13.7026 182.688 14.3989H184.688ZM183.707 11.4945C183.112 10.8245 182.127 10.1509 180.664 10.1509V12.1509C181.44 12.1509 181.912 12.4852 182.212 12.8232L183.707 11.4945ZM180.664 10.1509H178.312V12.1509H180.664V10.1509ZM230.444 38.2549V39.2549C230.997 39.2549 231.444 38.8072 231.444 38.2549H230.444ZM204.908 38.2549H203.908C203.908 38.8072 204.356 39.2549 204.908 39.2549V38.2549ZM204.908 0.90288V-0.0971203C204.356 -0.0971203 203.908 0.350595 203.908 0.90288H204.908ZM230.108 0.90288H231.108C231.108 0.350595 230.661 -0.0971203 230.108 -0.0971203V0.90288ZM230.108 11.1509V12.1509C230.661 12.1509 231.108 11.7032 231.108 11.1509H230.108ZM218.46 11.1509V10.1509C217.908 10.1509 217.46 10.5986 217.46 11.1509H218.46ZM218.46 14.6229H217.46C217.46 15.1752 217.908 15.6229 218.46 15.6229V14.6229ZM229.044 14.6229H230.044C230.044 14.0706 229.597 13.6229 229.044 13.6229V14.6229ZM229.044 24.4229V25.4229C229.597 25.4229 230.044 24.9752 230.044 24.4229H229.044ZM218.46 24.4229V23.4229C217.908 23.4229 217.46 23.8706 217.46 24.4229H218.46ZM218.46 28.0069H217.46C217.46 28.5592 217.908 29.0069 218.46 29.0069V28.0069ZM230.444 28.0069H231.444C231.444 27.4546 230.997 27.0069 230.444 27.0069V28.0069ZM230.444 37.2549H204.908V39.2549H230.444V37.2549ZM205.908 38.2549V0.90288H203.908V38.2549H205.908ZM204.908 1.90288H230.108V-0.0971203H204.908V1.90288ZM229.108 0.90288V11.1509H231.108V0.90288H229.108ZM230.108 10.1509H218.46V12.1509H230.108V10.1509ZM217.46 11.1509V14.6229H219.46V11.1509H217.46ZM218.46 15.6229H229.044V13.6229H218.46V15.6229ZM228.044 14.6229V24.4229H230.044V14.6229H228.044ZM229.044 23.4229H218.46V25.4229H229.044V23.4229ZM217.46 24.4229V28.0069H219.46V24.4229H217.46ZM218.46 29.0069H230.444V27.0069H218.46V29.0069ZM229.444 28.0069V38.2549H231.444V28.0069H229.444ZM249.18 38.2549V39.2549C249.732 39.2549 250.18 38.8072 250.18 38.2549H249.18ZM236.244 38.2549H235.244C235.244 38.8072 235.692 39.2549 236.244 39.2549V38.2549ZM236.244 0.90288V-0.0971203C235.692 -0.0971203 235.244 0.350595 235.244 0.90288H236.244ZM249.18 0.90288L250.032 0.378971C249.85 0.083116 249.528 -0.0971203 249.18 -0.0971203V0.90288ZM257.86 15.0149L257.008 15.5388L257.012 15.5449L257.86 15.0149ZM261.388 21.6229L260.467 22.0125C260.624 22.3825 260.986 22.6229 261.388 22.6229V21.6229ZM261.78 21.6229V22.6229C262.086 22.6229 262.375 22.4828 262.565 22.2427C262.755 22.0026 262.824 21.6889 262.753 21.3913L261.78 21.6229ZM260.604 0.90288V-0.0971203C260.052 -0.0971203 259.604 0.350595 259.604 0.90288H260.604ZM273.596 0.90288H274.596C274.596 0.350595 274.148 -0.0971203 273.596 -0.0971203V0.90288ZM273.596 38.2549V39.2549C274.148 39.2549 274.596 38.8072 274.596 38.2549H273.596ZM260.604 38.2549L259.759 38.7886C259.942 39.0789 260.261 39.2549 260.604 39.2549V38.2549ZM251.308 23.5269L250.46 24.0569L250.463 24.0606L251.308 23.5269ZM248.732 18.6549L249.639 18.2338C249.475 17.8807 249.121 17.6549 248.732 17.6549V18.6549ZM248.34 18.6549V17.6549C248.042 17.6549 247.759 17.7884 247.569 18.0188C247.379 18.2493 247.302 18.5526 247.359 18.8458L248.34 18.6549ZM249.18 37.2549H236.244V39.2549H249.18V37.2549ZM237.244 38.2549V0.90288H235.244V38.2549H237.244ZM236.244 1.90288H249.18V-0.0971203H236.244V1.90288ZM248.328 1.42679L257.008 15.5388L258.712 14.491L250.032 0.378971L248.328 1.42679ZM257.012 15.5449C258.402 17.769 259.266 19.1728 260.467 22.0125L262.309 21.2332C261.047 18.2489 260.118 16.7407 258.708 14.4849L257.012 15.5449ZM261.388 22.6229H261.78V20.6229H261.388V22.6229ZM262.753 21.3913C262.203 19.08 261.604 15.4115 261.604 12.7749H259.604C259.604 15.6262 260.238 19.4618 260.807 21.8545L262.753 21.3913ZM261.604 12.7749V0.90288H259.604V12.7749H261.604ZM260.604 1.90288H273.596V-0.0971203H260.604V1.90288ZM272.596 0.90288V38.2549H274.596V0.90288H272.596ZM273.596 37.2549H260.604V39.2549H273.596V37.2549ZM261.45 37.7211L252.154 22.9931L250.463 24.0606L259.759 38.7886L261.45 37.7211ZM252.156 22.9969C251.347 21.7016 250.358 19.7824 249.639 18.2338L247.825 19.076C248.562 20.6633 249.59 22.6642 250.46 24.0569L252.156 22.9969ZM248.732 17.6549H248.34V19.6549H248.732V17.6549ZM247.359 18.8458C247.748 20.8463 248.18 23.9618 248.18 25.5429H250.18C250.18 23.7639 249.717 20.4955 249.322 18.464L247.359 18.8458ZM248.18 25.5429V38.2549H250.18V25.5429H248.18ZM308.416 23.6389L309.416 23.667C309.427 23.2489 309.178 22.8676 308.79 22.7113C308.402 22.555 307.957 22.6567 307.676 22.9662L308.416 23.6389ZM308.024 37.5829L308.38 38.5174C308.758 38.3733 309.012 38.0155 309.024 37.611L308.024 37.5829ZM284.84 33.6629L285.547 32.9558L285.541 32.9501L284.84 33.6629ZM285.008 5.71888L284.301 5.01175L284.295 5.01755L285.008 5.71888ZM308.024 1.51888L309.024 1.49133C309.012 1.07325 308.742 0.7065 308.346 0.572L308.024 1.51888ZM308.416 15.7429L307.709 16.45C307.998 16.7395 308.435 16.8233 308.811 16.6614C309.187 16.4995 309.427 16.1247 309.416 15.7153L308.416 15.7429ZM295.088 14.3429L294.353 13.6646L294.352 13.6658L295.088 14.3429ZM295.312 25.0389L294.619 25.7597L294.623 25.7639L295.312 25.0389ZM307.416 23.6108L307.024 37.5548L309.024 37.611L309.416 23.667L307.416 23.6108ZM307.668 36.6484C304.316 37.9253 300.322 38.0949 298.616 38.0949V40.0949C300.381 40.0949 304.676 39.9285 308.38 38.5174L307.668 36.6484ZM298.616 38.0949C293.962 38.0949 289.024 36.4332 285.547 32.9558L284.133 34.37C288.047 38.2846 293.526 40.0949 298.616 40.0949V38.0949ZM285.541 32.9501C282.229 29.6907 280.408 24.92 280.408 19.8869H278.408C278.408 25.3817 280.395 30.6911 284.139 34.3756L285.541 32.9501ZM280.408 19.8869C280.408 14.379 282.49 9.70356 285.721 6.42022L284.295 5.01755C280.693 8.6782 278.408 13.8588 278.408 19.8869H280.408ZM285.715 6.42599C288.207 3.93415 292.445 1.06288 299.12 1.06288V-0.937119C291.794 -0.937119 287.073 2.23961 284.301 5.01177L285.715 6.42599ZM299.12 1.06288C301.82 1.06288 304.847 1.49586 307.702 2.46576L308.346 0.572C305.265 -0.474093 302.02 -0.937119 299.12 -0.937119V1.06288ZM307.024 1.54643L307.416 15.7704L309.416 15.7153L309.024 1.49133L307.024 1.54643ZM309.123 15.0358C307.484 13.3964 304.33 11.0469 300.52 11.0469V13.0469C303.542 13.0469 306.212 14.9534 307.709 16.45L309.123 15.0358ZM300.52 11.0469C298.13 11.0469 295.898 11.9914 294.353 13.6646L295.823 15.0212C296.966 13.7823 298.654 13.0469 300.52 13.0469V11.0469ZM294.352 13.6658C292.871 15.2759 292.128 17.4889 292.128 19.6629H294.128C294.128 17.9168 294.729 16.2099 295.824 15.0199L294.352 13.6658ZM292.128 19.6629C292.128 21.9142 292.942 24.1472 294.619 25.7597L296.005 24.318C294.77 23.1306 294.128 21.4436 294.128 19.6629H292.128ZM294.623 25.7639C295.893 26.9701 297.866 28.1669 300.856 28.1669V26.1669C298.47 26.1669 296.971 25.2357 296.001 24.3139L294.623 25.7639ZM300.856 28.1669C305.078 28.1669 307.959 25.6286 309.156 24.3116L307.676 22.9662C306.633 24.1131 304.25 26.1669 300.856 26.1669V28.1669ZM339.71 38.2549V39.2549C340.262 39.2549 340.71 38.8072 340.71 38.2549H339.71ZM314.174 38.2549H313.174C313.174 38.8072 313.622 39.2549 314.174 39.2549V38.2549ZM314.174 0.90288V-0.0971203C313.622 -0.0971203 313.174 0.350595 313.174 0.90288H314.174ZM339.374 0.90288H340.374C340.374 0.350595 339.926 -0.0971203 339.374 -0.0971203V0.90288ZM339.374 11.1509V12.1509C339.926 12.1509 340.374 11.7032 340.374 11.1509H339.374ZM327.726 11.1509V10.1509C327.174 10.1509 326.726 10.5986 326.726 11.1509H327.726ZM327.726 14.6229H326.726C326.726 15.1752 327.174 15.6229 327.726 15.6229V14.6229ZM338.31 14.6229H339.31C339.31 14.0706 338.862 13.6229 338.31 13.6229V14.6229ZM338.31 24.4229V25.4229C338.862 25.4229 339.31 24.9752 339.31 24.4229H338.31ZM327.726 24.4229V23.4229C327.174 23.4229 326.726 23.8706 326.726 24.4229H327.726ZM327.726 28.0069H326.726C326.726 28.5592 327.174 29.0069 327.726 29.0069V28.0069ZM339.71 28.0069H340.71C340.71 27.4546 340.262 27.0069 339.71 27.0069V28.0069ZM339.71 37.2549H314.174V39.2549H339.71V37.2549ZM315.174 38.2549V0.90288H313.174V38.2549H315.174ZM314.174 1.90288H339.374V-0.0971203H314.174V1.90288ZM338.374 0.90288V11.1509H340.374V0.90288H338.374ZM339.374 10.1509H327.726V12.1509H339.374V10.1509ZM326.726 11.1509V14.6229H328.726V11.1509H326.726ZM327.726 15.6229H338.31V13.6229H327.726V15.6229ZM337.31 14.6229V24.4229H339.31V14.6229H337.31ZM338.31 23.4229H327.726V25.4229H338.31V23.4229ZM326.726 24.4229V28.0069H328.726V24.4229H326.726ZM327.726 29.0069H339.71V27.0069H327.726V29.0069ZM338.71 28.0069V38.2549H340.71V28.0069H338.71Z" fill="#333333" mask="url(#path-1-inside-1_0_5703)"/>
</svg>
