<svg width="132" height="113" viewBox="0 0 132 113" fill="none" xmlns="http://www.w3.org/2000/svg">
<g filter="url(#filter0_d_0_98)">
<circle cx="65.9751" cy="64" r="45" fill="#6FBADA"/>
</g>
<rect x="0.975082" width="131" height="34" rx="17" fill="white"/>
<g clip-path="url(#clip0_0_98)">
<path d="M80.8901 69.0068H79.422C78.9605 69.0068 78.5864 69.3809 78.5864 69.8425C78.5865 70.304 78.9606 70.6781 79.422 70.6781H80.8901C81.3517 70.6781 81.7257 70.304 81.7257 69.8425C81.7257 69.3809 81.3517 69.0068 80.8901 69.0068Z" fill="white"/>
<path d="M94.7908 64.2512C94.7852 64.1105 94.7693 63.97 94.742 63.8325L92.8698 54.3576C92.8697 54.3573 92.8696 54.3569 92.8696 54.3566L92.498 52.4759C92.2484 51.2128 91.1327 50.2959 89.845 50.2959H40.5055C39.01 50.2958 37.7934 51.5125 37.7934 53.008V75.3398C37.7934 76.8352 39.01 78.0518 40.5055 78.0518H43.1523C43.5559 80.6822 45.8342 82.7032 48.5757 82.7032C51.3171 82.7032 53.5954 80.6823 53.999 78.0518H56.151C56.6124 78.0518 56.9866 77.6778 56.9866 77.2162C56.9866 76.7546 56.6125 76.3806 56.151 76.3806H53.9989C53.5953 73.7504 51.317 71.7293 48.5756 71.7293C45.8341 71.7293 43.5558 73.7502 43.1522 76.3806H40.5055C39.9315 76.3806 39.4646 75.9136 39.4646 75.3397V53.008C39.4646 52.434 39.9315 51.9669 40.5055 51.9669H89.8449C90.3368 51.9669 90.7629 52.3172 90.8584 52.7998L91.0331 53.6839H80.0618C79.2473 53.6839 78.5847 54.3466 78.5847 55.161V64.1736C78.5847 65.0215 78.9906 65.8258 79.6704 66.3251C81.3071 67.5275 84.9663 69.0132 93.1221 69.3811V74.9885C93.1221 75.7563 92.4975 76.3808 91.7298 76.3808H89.4343C89.0307 73.7506 86.7525 71.7295 84.0109 71.7295C81.2694 71.7295 78.9912 73.7505 78.5876 76.3808H60.0391C59.5776 76.3808 59.2035 76.7549 59.2035 77.2164C59.2035 77.678 59.5775 78.0521 60.0391 78.0521H78.5878C78.9913 80.6824 81.2697 82.7035 84.0111 82.7035C86.7527 82.7035 89.0309 80.6825 89.4346 78.0521H91.73C93.4192 78.0521 94.7934 76.6778 94.7934 74.9887V64.3569V64.3568C94.7933 64.3214 94.7921 64.2863 94.7908 64.2512ZM48.5757 73.4007C50.6796 73.4007 52.3913 75.1123 52.3913 77.2163C52.3913 79.3203 50.6796 81.0321 48.5757 81.0321C46.4717 81.0321 44.76 79.3203 44.76 77.2163C44.76 75.1123 46.4717 73.4007 48.5757 73.4007ZM84.0111 81.032C81.9071 81.032 80.1955 79.3202 80.1955 77.2162C80.1955 75.1122 81.9071 73.4006 84.0111 73.4006C86.1151 73.4006 87.8269 75.1122 87.8269 77.2162C87.8268 79.3202 86.1151 81.032 84.0111 81.032ZM80.2559 64.1736V55.3552H91.3633L93.1025 64.1569C93.1056 64.1726 93.1072 64.1886 93.1095 64.2045C93.1164 64.251 93.1209 64.2978 93.1214 64.3447C93.1214 64.3488 93.122 64.3528 93.122 64.3568V67.7081C85.0281 67.335 81.8466 65.8501 80.6599 64.9783C80.407 64.7925 80.2559 64.4917 80.2559 64.1736Z" fill="white"/>
<path d="M56.8124 53.6846H42.8251C42.0903 53.6846 41.4924 54.2824 41.4924 55.0173V64.42C41.4924 65.1549 42.0903 65.7527 42.8251 65.7527H56.8124C57.5472 65.7527 58.1451 65.1549 58.1451 64.42V55.0173C58.1451 54.2824 57.5472 53.6846 56.8124 53.6846ZM48.9831 64.0816H43.1636V55.3557H48.9831V64.0816ZM56.4739 64.0816H50.6544V55.3557H56.4739V64.0816Z" fill="white"/>
<path d="M75.1565 53.6836H61.1691C60.4342 53.6836 59.8364 54.2814 59.8364 55.0163V64.4191C59.8364 65.1539 60.4342 65.7518 61.1691 65.7518H75.1565C75.8913 65.7518 76.4892 65.1539 76.4892 64.4191V55.0163C76.4892 54.2814 75.8913 53.6836 75.1565 53.6836ZM74.818 64.0806H68.9984V60.9137C68.9984 60.4521 68.6243 60.078 68.1627 60.078C67.7012 60.078 67.3271 60.4521 67.3271 60.9137V64.0806H61.5076V55.3547H67.3271V57.0255C67.3271 57.4871 67.7012 57.8612 68.1627 57.8612C68.6243 57.8612 68.9984 57.4871 68.9984 57.0255V55.3547H74.818V64.0806Z" fill="white"/>
</g>
<defs>
<filter id="filter0_d_0_98" x="18.9751" y="19" width="94" height="94" filterUnits="userSpaceOnUse" color-interpolation-filters="sRGB">
<feFlood flood-opacity="0" result="BackgroundImageFix"/>
<feColorMatrix in="SourceAlpha" type="matrix" values="0 0 0 0 0 0 0 0 0 0 0 0 0 0 0 0 0 0 127 0" result="hardAlpha"/>
<feOffset dy="2"/>
<feGaussianBlur stdDeviation="1"/>
<feComposite in2="hardAlpha" operator="out"/>
<feColorMatrix type="matrix" values="0 0 0 0 0.2 0 0 0 0 0.2 0 0 0 0 0.2 0 0 0 0.25 0"/>
<feBlend mode="normal" in2="BackgroundImageFix" result="effect1_dropShadow_0_98"/>
<feBlend mode="normal" in="SourceGraphic" in2="effect1_dropShadow_0_98" result="shape"/>
</filter>
<clipPath id="clip0_0_98">
<rect width="57" height="57" fill="white" transform="translate(37.7934 38)"/>
</clipPath>
</defs>
</svg>
