<svg width="175" height="40" viewBox="0 0 175 40" fill="none" xmlns="http://www.w3.org/2000/svg">
<mask id="path-1-inside-1_0_4764" fill="white">
<path d="M13.8547 38.3447H0.638719V0.992723H18.5587C24.4947 0.992723 27.9107 3.40073 29.4787 4.91273C32.5587 7.93672 33.2867 11.7447 33.2867 14.7127C33.2867 17.7927 32.6147 21.3207 29.5907 24.0647C26.6227 26.7527 23.2627 27.0887 20.4067 27.0887H13.8547V38.3447ZM13.8547 11.2407V17.6807H16.1507C16.8227 17.6807 18.2227 17.6247 19.1747 16.6727C19.6787 16.2247 20.0707 15.4967 20.0707 14.3767C20.0707 13.2007 19.5667 12.4727 19.0627 12.0807C18.4467 11.5767 17.3267 11.2407 16.3187 11.2407H13.8547ZM77.7503 19.6407C77.7503 25.6327 75.4543 30.2247 72.5423 33.1927C69.3503 36.4407 64.1423 39.1847 57.0303 39.1847C49.9183 39.1847 44.7103 36.4407 41.5183 33.1927C38.6063 30.2247 36.3103 25.6327 36.3103 19.6407C36.3103 13.7047 38.6063 9.11273 41.5183 6.14472C44.7103 2.89673 49.9183 0.152724 57.0303 0.152724C64.1423 0.152724 69.3503 2.89673 72.5423 6.14472C75.4543 9.11273 77.7503 13.7047 77.7503 19.6407ZM57.0303 12.1927C54.6223 12.1927 53.0543 13.1447 52.1583 14.0967C50.8143 15.4967 50.0303 17.6807 50.0303 19.6967C50.0303 21.8247 50.8143 23.8967 52.1583 25.2407C53.2783 26.3607 54.9583 27.1447 57.0303 27.1447C59.1023 27.1447 60.7823 26.3607 61.9023 25.2407C63.1343 24.0087 64.0303 22.0487 64.0303 19.6967C64.0303 17.3447 63.2463 15.3847 61.9023 14.0967C60.8943 13.0887 59.2703 12.1927 57.0303 12.1927ZM97.1517 38.3447H83.5997V0.992723H97.1517V38.3447ZM117.59 38.3447H104.654V0.992723H117.59L126.27 15.1047C127.67 17.3447 128.566 18.8007 129.798 21.7127H130.19C129.63 19.3607 129.014 15.6087 129.014 12.8647V0.992723H142.006V38.3447H129.014L119.718 23.6167C118.878 22.2727 117.87 20.3127 117.142 18.7447H116.75C117.142 20.7607 117.59 23.9527 117.59 25.6327V38.3447ZM167.082 38.3447H153.754V12.8087L146.138 13.1447V0.992723H174.698V13.1447L167.082 12.8087V38.3447Z"/>
</mask>
<path d="M13.8547 38.3447H0.638719V0.992723H18.5587C24.4947 0.992723 27.9107 3.40073 29.4787 4.91273C32.5587 7.93672 33.2867 11.7447 33.2867 14.7127C33.2867 17.7927 32.6147 21.3207 29.5907 24.0647C26.6227 26.7527 23.2627 27.0887 20.4067 27.0887H13.8547V38.3447ZM13.8547 11.2407V17.6807H16.1507C16.8227 17.6807 18.2227 17.6247 19.1747 16.6727C19.6787 16.2247 20.0707 15.4967 20.0707 14.3767C20.0707 13.2007 19.5667 12.4727 19.0627 12.0807C18.4467 11.5767 17.3267 11.2407 16.3187 11.2407H13.8547ZM77.7503 19.6407C77.7503 25.6327 75.4543 30.2247 72.5423 33.1927C69.3503 36.4407 64.1423 39.1847 57.0303 39.1847C49.9183 39.1847 44.7103 36.4407 41.5183 33.1927C38.6063 30.2247 36.3103 25.6327 36.3103 19.6407C36.3103 13.7047 38.6063 9.11273 41.5183 6.14472C44.7103 2.89673 49.9183 0.152724 57.0303 0.152724C64.1423 0.152724 69.3503 2.89673 72.5423 6.14472C75.4543 9.11273 77.7503 13.7047 77.7503 19.6407ZM57.0303 12.1927C54.6223 12.1927 53.0543 13.1447 52.1583 14.0967C50.8143 15.4967 50.0303 17.6807 50.0303 19.6967C50.0303 21.8247 50.8143 23.8967 52.1583 25.2407C53.2783 26.3607 54.9583 27.1447 57.0303 27.1447C59.1023 27.1447 60.7823 26.3607 61.9023 25.2407C63.1343 24.0087 64.0303 22.0487 64.0303 19.6967C64.0303 17.3447 63.2463 15.3847 61.9023 14.0967C60.8943 13.0887 59.2703 12.1927 57.0303 12.1927ZM97.1517 38.3447H83.5997V0.992723H97.1517V38.3447ZM117.59 38.3447H104.654V0.992723H117.59L126.27 15.1047C127.67 17.3447 128.566 18.8007 129.798 21.7127H130.19C129.63 19.3607 129.014 15.6087 129.014 12.8647V0.992723H142.006V38.3447H129.014L119.718 23.6167C118.878 22.2727 117.87 20.3127 117.142 18.7447H116.75C117.142 20.7607 117.59 23.9527 117.59 25.6327V38.3447ZM167.082 38.3447H153.754V12.8087L146.138 13.1447V0.992723H174.698V13.1447L167.082 12.8087V38.3447Z" fill="white"/>
<path d="M13.8547 38.3447V39.3447C14.407 39.3447 14.8547 38.897 14.8547 38.3447H13.8547ZM0.638719 38.3447H-0.361281C-0.361281 38.897 0.0864341 39.3447 0.638719 39.3447V38.3447ZM0.638719 0.992723V-0.00727654C0.0864341 -0.00727654 -0.361281 0.440439 -0.361281 0.992723H0.638719ZM29.4787 4.91273L30.1793 4.19913L30.1729 4.19288L29.4787 4.91273ZM29.5907 24.0647L30.262 24.8059L30.2627 24.8053L29.5907 24.0647ZM13.8547 27.0887V26.0887C13.3024 26.0887 12.8547 26.5364 12.8547 27.0887H13.8547ZM13.8547 11.2407V10.2407C13.3024 10.2407 12.8547 10.6884 12.8547 11.2407H13.8547ZM13.8547 17.6807H12.8547C12.8547 18.233 13.3024 18.6807 13.8547 18.6807V17.6807ZM19.1747 16.6727L18.5104 15.9253C18.4957 15.9383 18.4815 15.9518 18.4676 15.9656L19.1747 16.6727ZM19.0627 12.0807L18.4295 12.8547C18.4359 12.8599 18.4423 12.865 18.4488 12.8701L19.0627 12.0807ZM13.8547 37.3447H0.638719V39.3447H13.8547V37.3447ZM1.63872 38.3447V0.992723H-0.361281V38.3447H1.63872ZM0.638719 1.99272H18.5587V-0.00727654H0.638719V1.99272ZM18.5587 1.99272C24.1915 1.99272 27.3685 4.26702 28.7846 5.63257L30.1729 4.19288C28.453 2.53443 24.7979 -0.00727654 18.5587 -0.00727654V1.99272ZM28.7781 5.62629C31.5958 8.39269 32.2867 11.8942 32.2867 14.7127H34.2867C34.2867 11.5953 33.5217 7.48076 30.1793 4.19916L28.7781 5.62629ZM32.2867 14.7127C32.2867 17.655 31.6467 20.8488 28.9187 23.3242L30.2627 24.8053C33.5828 21.7926 34.2867 17.9304 34.2867 14.7127H32.2867ZM28.9194 23.3235C26.2322 25.7573 23.1871 26.0887 20.4067 26.0887V28.0887C23.3384 28.0887 27.0133 27.7482 30.262 24.8059L28.9194 23.3235ZM20.4067 26.0887H13.8547V28.0887H20.4067V26.0887ZM12.8547 27.0887V38.3447H14.8547V27.0887H12.8547ZM12.8547 11.2407V17.6807H14.8547V11.2407H12.8547ZM13.8547 18.6807H16.1507V16.6807H13.8547V18.6807ZM16.1507 18.6807C16.8201 18.6807 18.6132 18.6484 19.8818 17.3798L18.4676 15.9656C17.8322 16.601 16.8254 16.6807 16.1507 16.6807V18.6807ZM19.8391 17.4201C20.5773 16.7639 21.0707 15.7534 21.0707 14.3767H19.0707C19.0707 15.2401 18.7801 15.6855 18.5104 15.9253L19.8391 17.4201ZM21.0707 14.3767C21.0707 12.8792 20.4139 11.8648 19.6767 11.2914L18.4488 12.8701C18.7196 13.0807 19.0707 13.5222 19.0707 14.3767H21.0707ZM19.696 11.3068C18.8528 10.6169 17.486 10.2407 16.3187 10.2407V12.2407C17.1675 12.2407 18.0406 12.5365 18.4295 12.8547L19.696 11.3068ZM16.3187 10.2407H13.8547V12.2407H16.3187V10.2407ZM72.5423 33.1927L73.2555 33.8937L73.2561 33.8931L72.5423 33.1927ZM41.5183 33.1927L40.8045 33.8931L40.8051 33.8937L41.5183 33.1927ZM41.5183 6.14472L40.8051 5.44379L40.8045 5.44438L41.5183 6.14472ZM72.5423 6.14472L73.2561 5.44438L73.2555 5.44379L72.5423 6.14472ZM52.1583 14.0967L52.8797 14.7893L52.8865 14.7821L52.1583 14.0967ZM52.1583 25.2407L52.8654 24.5336L52.8654 24.5336L52.1583 25.2407ZM61.9023 25.2407L61.1952 24.5336L61.1952 24.5336L61.9023 25.2407ZM61.9023 14.0967L61.1952 14.8038C61.2002 14.8088 61.2053 14.8138 61.2104 14.8187L61.9023 14.0967ZM76.7503 19.6407C76.7503 25.3648 74.5613 29.707 71.8285 32.4924L73.2561 33.8931C76.3472 30.7425 78.7503 25.9007 78.7503 19.6407H76.7503ZM71.8291 32.4918C68.8231 35.5505 63.8712 38.1847 57.0303 38.1847V40.1847C64.4133 40.1847 69.8775 37.3309 73.2555 33.8937L71.8291 32.4918ZM57.0303 38.1847C50.1893 38.1847 45.2375 35.5505 42.2315 32.4918L40.8051 33.8937C44.1831 37.3309 49.6472 40.1847 57.0303 40.1847V38.1847ZM42.2321 32.4924C39.4992 29.707 37.3103 25.3648 37.3103 19.6407H35.3103C35.3103 25.9007 37.7133 30.7425 40.8045 33.8931L42.2321 32.4924ZM37.3103 19.6407C37.3103 13.9742 39.4981 9.63161 42.2321 6.84506L40.8045 5.44438C37.7144 8.59385 35.3103 13.4352 35.3103 19.6407H37.3103ZM42.2315 6.84566C45.2375 3.78694 50.1893 1.15272 57.0303 1.15272V-0.847276C49.6472 -0.847276 44.1831 2.00651 40.8051 5.44379L42.2315 6.84566ZM57.0303 1.15272C63.8712 1.15272 68.8231 3.78694 71.8291 6.84566L73.2555 5.44379C69.8775 2.00651 64.4133 -0.847276 57.0303 -0.847276V1.15272ZM71.8285 6.84506C74.5624 9.63161 76.7503 13.9742 76.7503 19.6407H78.7503C78.7503 13.4352 76.3461 8.59385 73.2561 5.44438L71.8285 6.84506ZM57.0303 11.1927C54.3328 11.1927 52.5054 12.2688 51.4301 13.4114L52.8865 14.7821C53.6031 14.0206 54.9118 13.1927 57.0303 13.1927V11.1927ZM51.4369 13.4042C49.8905 15.0151 49.0303 17.4589 49.0303 19.6967H51.0303C51.0303 17.9026 51.7381 15.9784 52.8797 14.7893L51.4369 13.4042ZM49.0303 19.6967C49.0303 22.0489 49.8925 24.3892 51.4512 25.9478L52.8654 24.5336C51.7361 23.4043 51.0303 21.6005 51.0303 19.6967H49.0303ZM51.4512 25.9478C52.7621 27.2588 54.698 28.1447 57.0303 28.1447V26.1447C55.2186 26.1447 53.7944 25.4626 52.8654 24.5336L51.4512 25.9478ZM57.0303 28.1447C59.3626 28.1447 61.2984 27.2588 62.6094 25.9478L61.1952 24.5336C60.2662 25.4626 58.842 26.1447 57.0303 26.1447V28.1447ZM62.6094 25.9478C64.0386 24.5186 65.0303 22.2999 65.0303 19.6967H63.0303C63.0303 21.7976 62.2299 23.4989 61.1952 24.5336L62.6094 25.9478ZM65.0303 19.6967C65.0303 17.126 64.1708 14.8856 62.5942 13.3747L61.2104 14.8187C62.3218 15.8838 63.0303 17.5635 63.0303 19.6967H65.0303ZM62.6094 13.3896C61.4287 12.2089 59.5557 11.1927 57.0303 11.1927V13.1927C58.9848 13.1927 60.3599 13.9686 61.1952 14.8038L62.6094 13.3896ZM97.1517 38.3447V39.3447C97.7039 39.3447 98.1517 38.897 98.1517 38.3447H97.1517ZM83.5997 38.3447H82.5997C82.5997 38.897 83.0474 39.3447 83.5997 39.3447V38.3447ZM83.5997 0.992723V-0.00727654C83.0474 -0.00727654 82.5997 0.440439 82.5997 0.992723H83.5997ZM97.1517 0.992723H98.1517C98.1517 0.440439 97.7039 -0.00727654 97.1517 -0.00727654V0.992723ZM97.1517 37.3447H83.5997V39.3447H97.1517V37.3447ZM84.5997 38.3447V0.992723H82.5997V38.3447H84.5997ZM83.5997 1.99272H97.1517V-0.00727654H83.5997V1.99272ZM96.1517 0.992723V38.3447H98.1517V0.992723H96.1517ZM117.59 38.3447V39.3447C118.143 39.3447 118.59 38.897 118.59 38.3447H117.59ZM104.654 38.3447H103.654C103.654 38.897 104.102 39.3447 104.654 39.3447V38.3447ZM104.654 0.992723V-0.00727654C104.102 -0.00727654 103.654 0.440439 103.654 0.992723H104.654ZM117.59 0.992723L118.442 0.468815C118.26 0.17296 117.938 -0.00727654 117.59 -0.00727654V0.992723ZM126.27 15.1047L125.419 15.6286L125.422 15.6347L126.27 15.1047ZM129.798 21.7127L128.877 22.1024C129.034 22.4723 129.397 22.7127 129.798 22.7127V21.7127ZM130.19 21.7127V22.7127C130.496 22.7127 130.785 22.5727 130.975 22.3326C131.165 22.0925 131.234 21.7787 131.163 21.4811L130.19 21.7127ZM129.014 0.992723V-0.00727654C128.462 -0.00727654 128.014 0.440439 128.014 0.992723H129.014ZM142.006 0.992723H143.006C143.006 0.440439 142.559 -0.00727654 142.006 -0.00727654V0.992723ZM142.006 38.3447V39.3447C142.559 39.3447 143.006 38.897 143.006 38.3447H142.006ZM129.014 38.3447L128.169 38.8785C128.352 39.1687 128.671 39.3447 129.014 39.3447V38.3447ZM119.718 23.6167L118.87 24.1467L118.873 24.1505L119.718 23.6167ZM117.142 18.7447L118.049 18.3236C117.885 17.9706 117.532 17.7447 117.142 17.7447V18.7447ZM116.75 18.7447V17.7447C116.452 17.7447 116.169 17.8782 115.979 18.1087C115.789 18.3391 115.712 18.6424 115.769 18.9356L116.75 18.7447ZM117.59 37.3447H104.654V39.3447H117.59V37.3447ZM105.654 38.3447V0.992723H103.654V38.3447H105.654ZM104.654 1.99272H117.59V-0.00727654H104.654V1.99272ZM116.739 1.51663L125.419 15.6286L127.122 14.5808L118.442 0.468815L116.739 1.51663ZM125.422 15.6347C126.812 17.8589 127.676 19.2627 128.877 22.1024L130.719 21.3231C129.457 18.3388 128.528 16.8306 127.118 14.5747L125.422 15.6347ZM129.798 22.7127H130.19V20.7127H129.798V22.7127ZM131.163 21.4811C130.613 19.1698 130.014 15.5014 130.014 12.8647H128.014C128.014 15.7161 128.648 19.5516 129.218 21.9443L131.163 21.4811ZM130.014 12.8647V0.992723H128.014V12.8647H130.014ZM129.014 1.99272H142.006V-0.00727654H129.014V1.99272ZM141.006 0.992723V38.3447H143.006V0.992723H141.006ZM142.006 37.3447H129.014V39.3447H142.006V37.3447ZM129.86 37.811L120.564 23.083L118.873 24.1505L128.169 38.8785L129.86 37.811ZM120.566 23.0867C119.757 21.7914 118.768 19.8723 118.049 18.3236L116.235 19.1658C116.972 20.7532 118 22.754 118.87 24.1467L120.566 23.0867ZM117.142 17.7447H116.75V19.7447H117.142V17.7447ZM115.769 18.9356C116.158 20.9361 116.59 24.0517 116.59 25.6327H118.59C118.59 23.8538 118.127 20.5853 117.732 18.5539L115.769 18.9356ZM116.59 25.6327V38.3447H118.59V25.6327H116.59ZM167.082 38.3447V39.3447C167.634 39.3447 168.082 38.897 168.082 38.3447H167.082ZM153.754 38.3447H152.754C152.754 38.897 153.202 39.3447 153.754 39.3447V38.3447ZM153.754 12.8087H154.754C154.754 12.5359 154.643 12.2748 154.445 12.0862C154.248 11.8976 153.983 11.7977 153.71 11.8097L153.754 12.8087ZM146.138 13.1447H145.138C145.138 13.4176 145.25 13.6786 145.447 13.8672C145.644 14.0559 145.91 14.1558 146.182 14.1438L146.138 13.1447ZM146.138 0.992723V-0.00727654C145.586 -0.00727654 145.138 0.440439 145.138 0.992723H146.138ZM174.698 0.992723H175.698C175.698 0.440439 175.25 -0.00727654 174.698 -0.00727654V0.992723ZM174.698 13.1447L174.654 14.1438C174.927 14.1558 175.192 14.0559 175.389 13.8672C175.587 13.6786 175.698 13.4176 175.698 13.1447H174.698ZM167.082 12.8087L167.126 11.8097C166.854 11.7977 166.588 11.8976 166.391 12.0862C166.194 12.2748 166.082 12.5359 166.082 12.8087H167.082ZM167.082 37.3447H153.754V39.3447H167.082V37.3447ZM154.754 38.3447V12.8087H152.754V38.3447H154.754ZM153.71 11.8097L146.094 12.1457L146.182 14.1438L153.798 13.8078L153.71 11.8097ZM147.138 13.1447V0.992723H145.138V13.1447H147.138ZM146.138 1.99272H174.698V-0.00727654H146.138V1.99272ZM173.698 0.992723V13.1447H175.698V0.992723H173.698ZM174.742 12.1457L167.126 11.8097L167.038 13.8078L174.654 14.1438L174.742 12.1457ZM166.082 12.8087V38.3447H168.082V12.8087H166.082Z" fill="#333333" mask="url(#path-1-inside-1_0_4764)"/>
</svg>
