<svg width="142" height="37" viewBox="0 0 142 37" fill="none" xmlns="http://www.w3.org/2000/svg">
<mask id="path-1-inside-1_0_6580" fill="white">
<path d="M0.105094 35.8281V1.14412H15.2371C18.2011 1.14412 22.8291 1.45612 25.5851 4.05612C26.4171 4.83612 28.2371 6.91612 28.2371 10.8161C28.2371 12.1161 28.0811 13.9881 26.7811 15.6001C26.1051 16.4321 25.0131 17.2641 23.7651 17.7321L23.7131 18.0441C25.1171 18.4081 26.2611 19.0841 27.3531 20.1241C29.0691 21.7881 29.9011 23.6601 29.9011 26.1561C29.9011 28.8601 29.0171 31.2521 26.6251 33.1761C23.7131 35.5161 20.1771 35.8281 17.7331 35.8281H0.105094ZM11.7531 9.46412V14.4561H13.7291C14.4571 14.4561 15.5491 14.2481 16.1211 13.6761C16.4331 13.3641 16.7971 12.7921 16.7971 11.8561C16.7971 10.8681 16.3291 10.2961 16.0171 10.0361C15.3411 9.51612 14.1971 9.46412 13.7291 9.46412H11.7531ZM11.7531 21.7361V27.4561H14.3011C15.0291 27.4561 16.1211 27.4041 16.9531 26.8841C17.5771 26.4681 18.1491 25.6881 18.1491 24.5441C18.1491 23.6601 17.7851 22.9321 17.2131 22.4641C16.3811 21.7881 15.1331 21.7361 14.4571 21.7361H11.7531ZM58.4885 35.8281H35.2965V1.14412H47.8805V24.6481H58.4885V35.8281ZM99.6384 18.4601C99.6384 24.0241 97.5064 28.2881 94.8024 31.0441C91.8384 34.0601 87.0024 36.6081 80.3984 36.6081C73.7944 36.6081 68.9584 34.0601 65.9944 31.0441C63.2904 28.2881 61.1584 24.0241 61.1584 18.4601C61.1584 12.9481 63.2904 8.68412 65.9944 5.92812C68.9584 2.91212 73.7944 0.364123 80.3984 0.364123C87.0024 0.364123 91.8384 2.91212 94.8024 5.92812C97.5064 8.68412 99.6384 12.9481 99.6384 18.4601ZM80.3984 11.5441C78.1624 11.5441 76.7064 12.4281 75.8744 13.3121C74.6264 14.6121 73.8984 16.6401 73.8984 18.5121C73.8984 20.4881 74.6264 22.4121 75.8744 23.6601C76.9144 24.7001 78.4744 25.4281 80.3984 25.4281C82.3224 25.4281 83.8824 24.7001 84.9224 23.6601C86.0664 22.5161 86.8984 20.6961 86.8984 18.5121C86.8984 16.3281 86.1704 14.5081 84.9224 13.3121C83.9864 12.3761 82.4784 11.5441 80.3984 11.5441ZM122.022 23.8681V15.6521H141.522V16.4321C141.522 20.6961 141.158 26.4681 136.998 30.9401C133.566 34.6321 128.002 36.6081 122.282 36.6081C115.002 36.6081 110.582 33.6961 107.982 30.8881C104.706 27.3521 103.51 23.1401 103.51 18.5641C103.51 12.2201 105.954 8.21612 108.294 5.82412C111.102 2.91212 115.886 0.364123 122.854 0.364123C126.598 0.364123 129.822 1.09212 133.046 2.80812C136.01 4.42012 138.09 6.39612 139.702 9.20412L127.95 13.5721C127.222 12.4281 125.818 10.9201 123.166 10.9201C121.346 10.9201 119.838 11.5441 118.746 12.5321C117.342 13.8321 116.198 16.0681 116.198 19.0841C116.198 21.4241 116.978 23.8161 118.486 25.2721C119.474 26.2081 120.826 26.8321 122.594 26.8321C124.466 26.8321 126.91 26.1561 127.742 23.8681H122.022Z"/>
</mask>
<path d="M0.105094 35.8281V1.14412H15.2371C18.2011 1.14412 22.8291 1.45612 25.5851 4.05612C26.4171 4.83612 28.2371 6.91612 28.2371 10.8161C28.2371 12.1161 28.0811 13.9881 26.7811 15.6001C26.1051 16.4321 25.0131 17.2641 23.7651 17.7321L23.7131 18.0441C25.1171 18.4081 26.2611 19.0841 27.3531 20.1241C29.0691 21.7881 29.9011 23.6601 29.9011 26.1561C29.9011 28.8601 29.0171 31.2521 26.6251 33.1761C23.7131 35.5161 20.1771 35.8281 17.7331 35.8281H0.105094ZM11.7531 9.46412V14.4561H13.7291C14.4571 14.4561 15.5491 14.2481 16.1211 13.6761C16.4331 13.3641 16.7971 12.7921 16.7971 11.8561C16.7971 10.8681 16.3291 10.2961 16.0171 10.0361C15.3411 9.51612 14.1971 9.46412 13.7291 9.46412H11.7531ZM11.7531 21.7361V27.4561H14.3011C15.0291 27.4561 16.1211 27.4041 16.9531 26.8841C17.5771 26.4681 18.1491 25.6881 18.1491 24.5441C18.1491 23.6601 17.7851 22.9321 17.2131 22.4641C16.3811 21.7881 15.1331 21.7361 14.4571 21.7361H11.7531ZM58.4885 35.8281H35.2965V1.14412H47.8805V24.6481H58.4885V35.8281ZM99.6384 18.4601C99.6384 24.0241 97.5064 28.2881 94.8024 31.0441C91.8384 34.0601 87.0024 36.6081 80.3984 36.6081C73.7944 36.6081 68.9584 34.0601 65.9944 31.0441C63.2904 28.2881 61.1584 24.0241 61.1584 18.4601C61.1584 12.9481 63.2904 8.68412 65.9944 5.92812C68.9584 2.91212 73.7944 0.364123 80.3984 0.364123C87.0024 0.364123 91.8384 2.91212 94.8024 5.92812C97.5064 8.68412 99.6384 12.9481 99.6384 18.4601ZM80.3984 11.5441C78.1624 11.5441 76.7064 12.4281 75.8744 13.3121C74.6264 14.6121 73.8984 16.6401 73.8984 18.5121C73.8984 20.4881 74.6264 22.4121 75.8744 23.6601C76.9144 24.7001 78.4744 25.4281 80.3984 25.4281C82.3224 25.4281 83.8824 24.7001 84.9224 23.6601C86.0664 22.5161 86.8984 20.6961 86.8984 18.5121C86.8984 16.3281 86.1704 14.5081 84.9224 13.3121C83.9864 12.3761 82.4784 11.5441 80.3984 11.5441ZM122.022 23.8681V15.6521H141.522V16.4321C141.522 20.6961 141.158 26.4681 136.998 30.9401C133.566 34.6321 128.002 36.6081 122.282 36.6081C115.002 36.6081 110.582 33.6961 107.982 30.8881C104.706 27.3521 103.51 23.1401 103.51 18.5641C103.51 12.2201 105.954 8.21612 108.294 5.82412C111.102 2.91212 115.886 0.364123 122.854 0.364123C126.598 0.364123 129.822 1.09212 133.046 2.80812C136.01 4.42012 138.09 6.39612 139.702 9.20412L127.95 13.5721C127.222 12.4281 125.818 10.9201 123.166 10.9201C121.346 10.9201 119.838 11.5441 118.746 12.5321C117.342 13.8321 116.198 16.0681 116.198 19.0841C116.198 21.4241 116.978 23.8161 118.486 25.2721C119.474 26.2081 120.826 26.8321 122.594 26.8321C124.466 26.8321 126.91 26.1561 127.742 23.8681H122.022Z" fill="white"/>
<path d="M0.105094 35.8281H-0.894906C-0.894906 36.3804 -0.447191 36.8281 0.105094 36.8281V35.8281ZM0.105094 1.14412V0.144122C-0.447191 0.144122 -0.894906 0.591837 -0.894906 1.14412H0.105094ZM25.5851 4.05612L24.8989 4.78352L24.9012 4.78566L25.5851 4.05612ZM26.7811 15.6001L27.5572 16.2307L27.5595 16.2279L26.7811 15.6001ZM23.7651 17.7321L23.414 16.7958C23.0796 16.9212 22.8374 17.2154 22.7787 17.5677L23.7651 17.7321ZM23.7131 18.0441L22.7267 17.8797C22.6415 18.3907 22.9607 18.8821 23.4621 19.0121L23.7131 18.0441ZM27.3531 20.1241L28.0493 19.4062L28.0428 19.4L27.3531 20.1241ZM26.6251 33.1761L27.2515 33.9556L27.2519 33.9553L26.6251 33.1761ZM11.7531 9.46412V8.46412C11.2008 8.46412 10.7531 8.91184 10.7531 9.46412H11.7531ZM11.7531 14.4561H10.7531C10.7531 15.0084 11.2008 15.4561 11.7531 15.4561V14.4561ZM16.0171 10.0361L16.6573 9.2679C16.6473 9.25957 16.6371 9.25144 16.6268 9.2435L16.0171 10.0361ZM11.7531 21.7361V20.7361C11.2008 20.7361 10.7531 21.1838 10.7531 21.7361H11.7531ZM11.7531 27.4561H10.7531C10.7531 28.0084 11.2008 28.4561 11.7531 28.4561V27.4561ZM16.9531 26.8841L17.4831 27.7321C17.4914 27.7269 17.4996 27.7216 17.5078 27.7162L16.9531 26.8841ZM17.2131 22.4641L17.8463 21.6902L17.8437 21.688L17.2131 22.4641ZM1.10509 35.8281V1.14412H-0.894906V35.8281H1.10509ZM0.105094 2.14412H15.2371V0.144122H0.105094V2.14412ZM15.2371 2.14412C16.6908 2.14412 18.5077 2.22148 20.2786 2.60273C22.0573 2.98564 23.7052 3.65745 24.8989 4.78352L26.2713 3.32873C24.7089 1.8548 22.6649 1.07061 20.6996 0.64752C18.7265 0.22277 16.7474 0.144122 15.2371 0.144122V2.14412ZM24.9012 4.78566C25.5989 5.43979 27.2371 7.27303 27.2371 10.8161H29.2371C29.2371 6.55922 27.2353 4.23245 26.269 3.32659L24.9012 4.78566ZM27.2371 10.8161C27.2371 12.052 27.0822 13.6338 26.0027 14.9724L27.5595 16.2279C29.08 14.3424 29.2371 12.1803 29.2371 10.8161H27.2371ZM26.005 14.9695C25.4398 15.6652 24.4939 16.3908 23.414 16.7958L24.1162 18.6685C25.5323 18.1374 26.7704 17.1991 27.5572 16.2307L26.005 14.9695ZM22.7787 17.5677L22.7267 17.8797L24.6995 18.2085L24.7515 17.8965L22.7787 17.5677ZM23.4621 19.0121C24.6817 19.3283 25.6788 19.9106 26.6634 20.8483L28.0428 19.4C26.8433 18.2577 25.5524 17.4879 23.9641 17.0761L23.4621 19.0121ZM26.6569 20.842C28.1826 22.3214 28.9011 23.936 28.9011 26.1561H30.9011C30.9011 23.3842 29.9556 21.2548 28.0492 19.4062L26.6569 20.842ZM28.9011 26.1561C28.9011 28.6038 28.1203 30.6901 25.9983 32.3969L27.2519 33.9553C29.9139 31.8141 30.9011 29.1164 30.9011 26.1561H28.9011ZM25.9987 32.3966C23.362 34.5154 20.1183 34.8281 17.7331 34.8281V36.8281C20.2359 36.8281 24.0642 36.5169 27.2515 33.9556L25.9987 32.3966ZM17.7331 34.8281H0.105094V36.8281H17.7331V34.8281ZM10.7531 9.46412V14.4561H12.7531V9.46412H10.7531ZM11.7531 15.4561H13.7291V13.4561H11.7531V15.4561ZM13.7291 15.4561C14.1773 15.4561 14.7247 15.3935 15.2564 15.2427C15.7746 15.0957 16.3732 14.8382 16.8282 14.3832L15.414 12.969C15.297 13.086 15.0636 13.2185 14.7108 13.3186C14.3715 13.4148 14.0089 13.4561 13.7291 13.4561V15.4561ZM16.8282 14.3832C17.3096 13.9019 17.7971 13.082 17.7971 11.8561H15.7971C15.7971 12.5023 15.5566 12.8264 15.414 12.969L16.8282 14.3832ZM17.7971 11.8561C17.7971 10.5111 17.1466 9.67566 16.6573 9.2679L15.3769 10.8043C15.5116 10.9166 15.7971 11.2251 15.7971 11.8561H17.7971ZM16.6268 9.2435C16.1041 8.84141 15.4662 8.66075 14.974 8.57125C14.4633 8.4784 13.9946 8.46412 13.7291 8.46412V10.4641C13.9316 10.4641 14.2689 10.4758 14.6162 10.539C14.982 10.6055 15.2541 10.7108 15.4074 10.8287L16.6268 9.2435ZM13.7291 8.46412H11.7531V10.4641H13.7291V8.46412ZM10.7531 21.7361V27.4561H12.7531V21.7361H10.7531ZM11.7531 28.4561H14.3011V26.4561H11.7531V28.4561ZM14.3011 28.4561C15.027 28.4561 16.3849 28.4185 17.4831 27.7321L16.4231 26.0361C15.8573 26.3897 15.0311 26.4561 14.3011 26.4561V28.4561ZM17.5078 27.7162C18.3789 27.1354 19.1491 26.0582 19.1491 24.5441H17.1491C17.1491 25.3181 16.7753 25.8008 16.3984 26.0521L17.5078 27.7162ZM19.1491 24.5441C19.1491 23.3735 18.6606 22.3564 17.8463 21.6902L16.5799 23.2381C16.9096 23.5079 17.1491 23.9467 17.1491 24.5441H19.1491ZM17.8437 21.688C17.2528 21.2079 16.5562 20.9797 15.9678 20.8651C15.3731 20.7492 14.8168 20.7361 14.4571 20.7361V22.7361C14.7734 22.7361 15.1791 22.749 15.5854 22.8282C15.998 22.9086 16.3414 23.0443 16.5825 23.2402L17.8437 21.688ZM14.4571 20.7361H11.7531V22.7361H14.4571V20.7361ZM58.4885 35.8281V36.8281C59.0408 36.8281 59.4885 36.3804 59.4885 35.8281H58.4885ZM35.2965 35.8281H34.2965C34.2965 36.3804 34.7442 36.8281 35.2965 36.8281V35.8281ZM35.2965 1.14412V0.144122C34.7442 0.144122 34.2965 0.591837 34.2965 1.14412H35.2965ZM47.8805 1.14412H48.8805C48.8805 0.591837 48.4328 0.144122 47.8805 0.144122V1.14412ZM47.8805 24.6481H46.8805C46.8805 25.2004 47.3282 25.6481 47.8805 25.6481V24.6481ZM58.4885 24.6481H59.4885C59.4885 24.0958 59.0408 23.6481 58.4885 23.6481V24.6481ZM58.4885 34.8281H35.2965V36.8281H58.4885V34.8281ZM36.2965 35.8281V1.14412H34.2965V35.8281H36.2965ZM35.2965 2.14412H47.8805V0.144122H35.2965V2.14412ZM46.8805 1.14412V24.6481H48.8805V1.14412H46.8805ZM47.8805 25.6481H58.4885V23.6481H47.8805V25.6481ZM57.4885 24.6481V35.8281H59.4885V24.6481H57.4885ZM94.8024 31.0441L95.5156 31.7451L95.5162 31.7445L94.8024 31.0441ZM65.9944 31.0441L65.2806 31.7445L65.2811 31.7451L65.9944 31.0441ZM65.9944 5.92812L65.2811 5.22719L65.2806 5.22778L65.9944 5.92812ZM94.8024 5.92812L95.5162 5.22778L95.5156 5.22719L94.8024 5.92812ZM75.8744 13.3121L76.5958 14.0047L76.6026 13.9975L75.8744 13.3121ZM75.8744 23.6601L76.5815 22.953L76.5815 22.953L75.8744 23.6601ZM84.9224 23.6601L84.2153 22.953L84.2153 22.953L84.9224 23.6601ZM84.9224 13.3121L84.2153 14.0192C84.2203 14.0242 84.2254 14.0292 84.2305 14.0341L84.9224 13.3121ZM98.6384 18.4601C98.6384 23.7562 96.6134 27.7704 94.0886 30.3438L95.5162 31.7445C98.3993 28.8059 100.638 24.2921 100.638 18.4601H98.6384ZM94.0891 30.3432C91.3112 33.1699 86.7313 35.6081 80.3984 35.6081V37.6081C87.2734 37.6081 92.3656 34.9503 95.5156 31.7451L94.0891 30.3432ZM80.3984 35.6081C74.0654 35.6081 69.4856 33.1699 66.7076 30.3432L65.2811 31.7451C68.4312 34.9503 73.5233 37.6081 80.3984 37.6081V35.6081ZM66.7082 30.3438C64.1833 27.7704 62.1584 23.7562 62.1584 18.4601H60.1584C60.1584 24.2921 62.3974 28.8059 65.2806 31.7445L66.7082 30.3438ZM62.1584 18.4601C62.1584 13.2176 64.1822 9.203 66.7082 6.62846L65.2806 5.22778C62.3985 8.16524 60.1584 12.6786 60.1584 18.4601H62.1584ZM66.7076 6.62905C69.4856 3.80234 74.0654 1.36412 80.3984 1.36412V-0.635877C73.5233 -0.635877 68.4312 2.02191 65.2811 5.22719L66.7076 6.62905ZM80.3984 1.36412C86.7313 1.36412 91.3112 3.80234 94.0891 6.62905L95.5156 5.22719C92.3656 2.02191 87.2734 -0.635877 80.3984 -0.635877V1.36412ZM94.0886 6.62846C96.6145 9.203 98.6384 13.2176 98.6384 18.4601H100.638C100.638 12.6786 98.3982 8.16524 95.5162 5.22778L94.0886 6.62846ZM80.3984 10.5441C77.8729 10.5441 76.1575 11.5522 75.1462 12.6268L76.6026 13.9975C77.2552 13.304 78.4519 12.5441 80.3984 12.5441V10.5441ZM75.153 12.6196C73.7026 14.1305 72.8984 16.4183 72.8984 18.5121H74.8984C74.8984 16.862 75.5502 15.0938 76.5958 14.0047L75.153 12.6196ZM72.8984 18.5121C72.8984 20.7123 73.7046 22.9046 75.1673 24.3672L76.5815 22.953C75.5481 21.9197 74.8984 20.2639 74.8984 18.5121H72.8984ZM75.1673 24.3672C76.3982 25.5982 78.2141 26.4281 80.3984 26.4281V24.4281C78.7347 24.4281 77.4305 23.802 76.5815 22.953L75.1673 24.3672ZM80.3984 26.4281C82.5827 26.4281 84.3985 25.5982 85.6295 24.3672L84.2153 22.953C83.3662 23.802 82.0621 24.4281 80.3984 24.4281V26.4281ZM85.6295 24.3672C86.9707 23.026 87.8984 20.9473 87.8984 18.5121H85.8984C85.8984 20.445 85.162 22.0063 84.2153 22.953L85.6295 24.3672ZM87.8984 18.5121C87.8984 16.1094 87.0949 14.009 85.6143 12.5901L84.2305 14.0341C85.2459 15.0072 85.8984 16.5469 85.8984 18.5121H87.8984ZM85.6295 12.605C84.5208 11.4963 82.7638 10.5441 80.3984 10.5441V12.5441C82.1929 12.5441 83.452 13.256 84.2153 14.0192L85.6295 12.605ZM122.022 23.8681H121.022C121.022 24.4204 121.47 24.8681 122.022 24.8681V23.8681ZM122.022 15.6521V14.6521C121.47 14.6521 121.022 15.0998 121.022 15.6521H122.022ZM141.522 15.6521H142.522C142.522 15.0998 142.074 14.6521 141.522 14.6521V15.6521ZM136.998 30.9401L136.266 30.259L136.266 30.2593L136.998 30.9401ZM107.982 30.8881L108.716 30.2087L108.715 30.2085L107.982 30.8881ZM108.294 5.82412L109.009 6.52344L109.014 6.51826L108.294 5.82412ZM133.046 2.80812L133.524 1.9296L133.516 1.92538L133.046 2.80812ZM139.702 9.20412L140.05 10.1415C140.326 10.0391 140.542 9.82057 140.642 9.54411C140.742 9.26764 140.716 8.96121 140.569 8.70626L139.702 9.20412ZM127.95 13.5721L127.106 14.109C127.359 14.5069 127.856 14.6738 128.298 14.5095L127.95 13.5721ZM118.746 12.5321L118.075 11.7905L118.067 11.7984L118.746 12.5321ZM118.486 25.2721L117.791 25.9916L117.798 25.9981L118.486 25.2721ZM127.742 23.8681L128.682 24.2099C128.793 23.9033 128.748 23.5616 128.561 23.2944C128.374 23.0272 128.068 22.8681 127.742 22.8681V23.8681ZM123.022 23.8681V15.6521H121.022V23.8681H123.022ZM122.022 16.6521H141.522V14.6521H122.022V16.6521ZM140.522 15.6521V16.4321H142.522V15.6521H140.522ZM140.522 16.4321C140.522 20.6754 140.143 26.0911 136.266 30.259L137.73 31.6212C142.173 26.8452 142.522 20.7169 142.522 16.4321H140.522ZM136.266 30.2593C133.07 33.6971 127.802 35.6081 122.282 35.6081V37.6081C128.202 37.6081 134.062 35.5671 137.73 31.621L136.266 30.2593ZM122.282 35.6081C115.309 35.6081 111.147 32.8343 108.716 30.2087L107.248 31.5675C110.017 34.5579 114.695 37.6081 122.282 37.6081V35.6081ZM108.715 30.2085C105.651 26.9004 104.51 22.9537 104.51 18.5641H102.51C102.51 23.3266 103.761 27.8038 107.248 31.5677L108.715 30.2085ZM104.51 18.5641C104.51 12.51 106.831 8.74997 109.009 6.52342L107.579 5.12483C105.077 7.68227 102.51 11.9302 102.51 18.5641H104.51ZM109.014 6.51826C111.624 3.8113 116.144 1.36412 122.854 1.36412V-0.635877C115.628 -0.635877 110.58 2.01295 107.574 5.12999L109.014 6.51826ZM122.854 1.36412C126.452 1.36412 129.511 2.05966 132.576 3.69087L133.516 1.92538C130.132 0.124587 126.744 -0.635877 122.854 -0.635877V1.36412ZM132.568 3.68661C135.382 5.21678 137.321 7.06598 138.835 9.70199L140.569 8.70626C138.858 5.72627 136.638 3.62346 133.524 1.92964L132.568 3.68661ZM139.354 8.26678L127.602 12.6348L128.298 14.5095L140.05 10.1415L139.354 8.26678ZM128.794 13.0352C127.961 11.7274 126.285 9.92012 123.166 9.92012V11.9201C125.351 11.9201 126.483 13.1289 127.106 14.109L128.794 13.0352ZM123.166 9.92012C121.108 9.92012 119.358 10.6296 118.075 11.7906L119.417 13.2737C120.318 12.4587 121.584 11.9201 123.166 11.9201V9.92012ZM118.067 11.7984C116.443 13.3014 115.198 15.8105 115.198 19.0841H117.198C117.198 16.3257 118.241 14.3628 119.425 13.2659L118.067 11.7984ZM115.198 19.0841C115.198 21.6056 116.032 24.2927 117.791 25.9915L119.181 24.5527C117.924 23.3396 117.198 21.2426 117.198 19.0841H115.198ZM117.798 25.9981C118.971 27.1087 120.568 27.8321 122.594 27.8321V25.8321C121.084 25.8321 119.977 25.3075 119.174 24.5462L117.798 25.9981ZM122.594 27.8321C124.59 27.8321 127.626 27.1135 128.682 24.2099L126.802 23.5264C126.194 25.1988 124.342 25.8321 122.594 25.8321V27.8321ZM127.742 22.8681H122.022V24.8681H127.742V22.8681Z" fill="#333333" mask="url(#path-1-inside-1_0_6580)"/>
</svg>
