<svg width="36" height="36" viewBox="0 0 36 36" fill="none" xmlns="http://www.w3.org/2000/svg">
<path d="M8.4375 19.125C7.71436 19.125 7.00747 19.3394 6.4062 19.7412C5.80493 20.1429 5.3363 20.714 5.05957 21.3821C4.78283 22.0502 4.71043 22.7853 4.85151 23.4945C4.99258 24.2038 5.34081 24.8553 5.85214 25.3666C6.36348 25.8779 7.01496 26.2262 7.7242 26.3672C8.43345 26.5083 9.1686 26.4359 9.83669 26.1592C10.5048 25.8825 11.0758 25.4138 11.4776 24.8126C11.8793 24.2113 12.0938 23.5044 12.0938 22.7812C12.0927 21.8119 11.7071 20.8825 11.0216 20.1971C10.3362 19.5117 9.40686 19.1261 8.4375 19.125ZM8.4375 24.4688C8.10375 24.4688 7.77748 24.3698 7.49998 24.1844C7.22247 23.9989 7.00618 23.7354 6.87845 23.427C6.75073 23.1187 6.71731 22.7794 6.78243 22.452C6.84754 22.1247 7.00826 21.824 7.24426 21.588C7.48026 21.352 7.78094 21.1913 8.10829 21.1262C8.43563 21.0611 8.77493 21.0945 9.08328 21.2222C9.39163 21.3499 9.65518 21.5662 9.84061 21.8437C10.026 22.1212 10.125 22.4475 10.125 22.7812C10.125 23.2288 9.94721 23.658 9.63074 23.9745C9.31428 24.291 8.88505 24.4688 8.4375 24.4688Z" fill="#B2C10F"/>
<path d="M28.6875 19.125C27.9644 19.125 27.2575 19.3394 26.6562 19.7412C26.0549 20.1429 25.5863 20.714 25.3096 21.3821C25.0328 22.0502 24.9604 22.7853 25.1015 23.4945C25.2426 24.2038 25.5908 24.8553 26.1021 25.3666C26.6135 25.8779 27.265 26.2262 27.9742 26.3672C28.6834 26.5083 29.4186 26.4359 30.0867 26.1592C30.7548 25.8825 31.3258 25.4138 31.7276 24.8126C32.1293 24.2113 32.3438 23.5044 32.3438 22.7812C32.3427 21.8119 31.9571 20.8825 31.2716 20.1971C30.5862 19.5117 29.6569 19.1261 28.6875 19.125ZM28.6875 24.4688C28.3537 24.4688 28.0275 24.3698 27.75 24.1844C27.4725 23.9989 27.2562 23.7354 27.1285 23.427C27.0007 23.1187 26.9673 22.7794 27.0324 22.452C27.0975 22.1247 27.2583 21.824 27.4943 21.588C27.7303 21.352 28.0309 21.1913 28.3583 21.1262C28.6856 21.0611 29.0249 21.0945 29.3333 21.2222C29.6416 21.3499 29.9052 21.5662 30.0906 21.8437C30.276 22.1212 30.375 22.4475 30.375 22.7812C30.375 23.2288 30.1972 23.658 29.8807 23.9745C29.5643 24.291 29.1351 24.4688 28.6875 24.4688Z" fill="#B2C10F"/>
<path d="M33.5672 16.1044L27 14.9063L21.4091 10.2674C20.855 9.81223 20.1603 9.56314 19.4432 9.56251H11.2064C10.7422 9.56141 10.2838 9.66528 9.86547 9.86636C9.44711 10.0674 9.07964 10.3605 8.79054 10.7236L5.21944 14.9063H2.8125C2.1414 14.907 1.498 15.1739 1.02346 15.6485C0.548918 16.123 0.281994 16.7664 0.28125 17.4375V20.5313C0.282162 21.3515 0.608403 22.1379 1.1884 22.7179C1.76839 23.2979 2.55477 23.6241 3.375 23.625H4.01801C3.8932 22.9741 3.91371 22.3037 4.07808 21.6616C4.24245 21.0195 4.54661 20.4217 4.96883 19.9108C5.39105 19.4 5.92091 18.9887 6.52053 18.7063C7.12015 18.424 7.77473 18.2776 8.4375 18.2776C9.10027 18.2776 9.75485 18.424 10.3545 18.7063C10.9541 18.9887 11.4839 19.4 11.9062 19.9108C12.3284 20.4217 12.6326 21.0195 12.7969 21.6616C12.9613 22.3037 12.9818 22.9741 12.857 23.625H24.268C24.1432 22.9741 24.1637 22.3037 24.3281 21.6616C24.4924 21.0195 24.7966 20.4217 25.2188 19.9108C25.6411 19.4 26.1709 18.9887 26.7705 18.7063C27.3702 18.424 28.0247 18.2776 28.6875 18.2776C29.3503 18.2776 30.0048 18.424 30.6045 18.7063C31.2041 18.9887 31.7339 19.4 32.1562 19.9108C32.5784 20.4217 32.8825 21.0195 33.0469 21.6616C33.2113 22.3037 33.2318 22.9741 33.107 23.625H33.1875C33.8586 23.6243 34.502 23.3573 34.9765 22.8828C35.4511 22.4083 35.718 21.7649 35.7188 21.0938V18.6069C35.7218 18.0006 35.5058 17.4135 35.1105 16.9537C34.7152 16.4939 34.1671 16.1923 33.5672 16.1044ZM12.6562 14.0625C12.6562 14.2863 12.5674 14.5009 12.4091 14.6591C12.2509 14.8174 12.0363 14.9063 11.8125 14.9063H8.10316C8.0225 14.9063 7.94351 14.8832 7.87556 14.8397C7.80761 14.7963 7.75355 14.7342 7.71979 14.661C7.68602 14.5877 7.67397 14.5063 7.68505 14.4264C7.69614 14.3465 7.7299 14.2715 7.78233 14.2102L10.2374 11.3344C10.3166 11.2417 10.415 11.1673 10.5258 11.1163C10.6366 11.0654 10.7571 11.039 10.879 11.0391H11.8125C12.0363 11.0391 12.2509 11.128 12.4091 11.2862C12.5674 11.4444 12.6562 11.659 12.6562 11.8828V14.0625ZM16.875 18H15.75C15.5262 18 15.3116 17.9111 15.1534 17.7529C14.9951 17.5946 14.9062 17.38 14.9062 17.1563C14.9062 16.9325 14.9951 16.7179 15.1534 16.5596C15.3116 16.4014 15.5262 16.3125 15.75 16.3125H16.875C17.0988 16.3125 17.3134 16.4014 17.4716 16.5596C17.6299 16.7179 17.7188 16.9325 17.7188 17.1563C17.7188 17.38 17.6299 17.5946 17.4716 17.7529C17.3134 17.9111 17.0988 18 16.875 18ZM23.5181 14.9269L15.4668 14.9082C15.2433 14.9077 15.0292 14.8186 14.8714 14.6604C14.7136 14.5022 14.625 14.2879 14.625 14.0645V11.8828C14.625 11.659 14.7139 11.4444 14.8721 11.2862C15.0304 11.128 15.245 11.0391 15.4688 11.0391H19.5151C19.7047 11.0391 19.8889 11.103 20.0377 11.2205L23.7803 14.1736C23.8493 14.2279 23.8996 14.3024 23.9243 14.3867C23.9489 14.471 23.9466 14.5608 23.9177 14.6438C23.8889 14.7267 23.8349 14.7985 23.7632 14.8493C23.6916 14.9001 23.6059 14.9272 23.5181 14.9269Z" fill="#B2C10F"/>
</svg>
