<svg width="36" height="18" viewBox="0 0 36 18" fill="none" xmlns="http://www.w3.org/2000/svg">
<path d="M8.4375 10.0723C7.71436 10.0723 7.00747 10.2867 6.4062 10.6885C5.80493 11.0902 5.3363 11.6612 5.05957 12.3293C4.78283 12.9974 4.71043 13.7326 4.85151 14.4418C4.99258 15.1511 5.34081 15.8025 5.85214 16.3139C6.36348 16.8252 7.01496 17.1734 7.7242 17.3145C8.43345 17.4556 9.1686 17.3832 9.83669 17.1065C10.5048 16.8297 11.0758 16.3611 11.4776 15.7598C11.8793 15.1586 12.0938 14.4517 12.0938 13.7285C12.0927 12.7592 11.7071 11.8298 11.0216 11.1444C10.3362 10.4589 9.40686 10.0734 8.4375 10.0723ZM8.4375 15.416C8.10375 15.416 7.77748 15.317 7.49998 15.1316C7.22247 14.9462 7.00618 14.6826 6.87845 14.3743C6.75073 14.0659 6.71731 13.7266 6.78243 13.3993C6.84754 13.072 7.00826 12.7713 7.24426 12.5353C7.48026 12.2993 7.78094 12.1386 8.10829 12.0734C8.43563 12.0083 8.77493 12.0417 9.08328 12.1695C9.39163 12.2972 9.65518 12.5135 9.84061 12.791C10.026 13.0685 10.125 13.3948 10.125 13.7285C10.125 14.1761 9.94721 14.6053 9.63074 14.9218C9.31428 15.2382 8.88505 15.416 8.4375 15.416Z" fill="#0FC2A0"/>
<path d="M28.6875 10.0723C27.9644 10.0723 27.2575 10.2867 26.6562 10.6885C26.0549 11.0902 25.5863 11.6612 25.3096 12.3293C25.0328 12.9974 24.9604 13.7326 25.1015 14.4418C25.2426 15.1511 25.5908 15.8025 26.1021 16.3139C26.6135 16.8252 27.265 17.1734 27.9742 17.3145C28.6834 17.4556 29.4186 17.3832 30.0867 17.1065C30.7548 16.8297 31.3258 16.3611 31.7276 15.7598C32.1293 15.1586 32.3438 14.4517 32.3438 13.7285C32.3427 12.7592 31.9571 11.8298 31.2716 11.1444C30.5862 10.4589 29.6569 10.0734 28.6875 10.0723ZM28.6875 15.416C28.3537 15.416 28.0275 15.317 27.75 15.1316C27.4725 14.9462 27.2562 14.6826 27.1285 14.3743C27.0007 14.0659 26.9673 13.7266 27.0324 13.3993C27.0975 13.072 27.2583 12.7713 27.4943 12.5353C27.7303 12.2993 28.0309 12.1386 28.3583 12.0734C28.6856 12.0083 29.0249 12.0417 29.3333 12.1695C29.6416 12.2972 29.9052 12.5135 30.0906 12.791C30.276 13.0685 30.375 13.3948 30.375 13.7285C30.375 14.1761 30.1972 14.6053 29.8807 14.9218C29.5643 15.2382 29.1351 15.416 28.6875 15.416Z" fill="#0FC2A0"/>
<path d="M33.5672 7.05165L27 5.85352L21.4091 1.21466C20.855 0.759499 20.1603 0.510408 19.4432 0.509774H11.2064C10.7422 0.508675 10.2838 0.612548 9.86547 0.813623C9.44711 1.0147 9.07964 1.30777 8.79054 1.67091L5.21944 5.85352H2.8125C2.1414 5.85427 1.498 6.12119 1.02346 6.59573C0.548918 7.07027 0.281994 7.71367 0.28125 8.38477V11.4785C0.282162 12.2988 0.608403 13.0851 1.1884 13.6651C1.76839 14.2451 2.55477 14.5714 3.375 14.5723H4.01801C3.8932 13.9214 3.91371 13.2509 4.07808 12.6089C4.24245 11.9668 4.54661 11.369 4.96883 10.8581C5.39105 10.3472 5.92091 9.93594 6.52053 9.6536C7.12015 9.37127 7.77473 9.22487 8.4375 9.22487C9.10027 9.22487 9.75485 9.37127 10.3545 9.6536C10.9541 9.93594 11.4839 10.3472 11.9062 10.8581C12.3284 11.369 12.6326 11.9668 12.7969 12.6089C12.9613 13.2509 12.9818 13.9214 12.857 14.5723H24.268C24.1432 13.9214 24.1637 13.2509 24.3281 12.6089C24.4924 11.9668 24.7966 11.369 25.2188 10.8581C25.6411 10.3472 26.1709 9.93594 26.7705 9.6536C27.3702 9.37127 28.0247 9.22487 28.6875 9.22487C29.3503 9.22487 30.0048 9.37127 30.6045 9.6536C31.2041 9.93594 31.7339 10.3472 32.1562 10.8581C32.5784 11.369 32.8825 11.9668 33.0469 12.6089C33.2113 13.2509 33.2318 13.9214 33.107 14.5723H33.1875C33.8586 14.5715 34.502 14.3046 34.9765 13.8301C35.4511 13.3555 35.718 12.7121 35.7188 12.041V9.55421C35.7218 8.94785 35.5058 8.36078 35.1105 7.90099C34.7152 7.44119 34.1671 7.13959 33.5672 7.05165ZM12.6562 5.00977C12.6562 5.23355 12.5674 5.44816 12.4091 5.6064C12.2509 5.76463 12.0363 5.85352 11.8125 5.85352H8.10316C8.0225 5.85357 7.94351 5.83049 7.87556 5.78701C7.80761 5.74354 7.75355 5.6815 7.71979 5.60824C7.68602 5.53498 7.67397 5.45358 7.68505 5.37368C7.69614 5.29378 7.7299 5.21873 7.78233 5.15743L10.2374 2.28165C10.3166 2.18898 10.415 2.11459 10.5258 2.06361C10.6366 2.01263 10.7571 1.98627 10.879 1.98634H11.8125C12.0363 1.98634 12.2509 2.07523 12.4091 2.23347C12.5674 2.3917 12.6562 2.60631 12.6562 2.83009V5.00977ZM16.875 8.94727H15.75C15.5262 8.94727 15.3116 8.85838 15.1534 8.70014C14.9951 8.54191 14.9062 8.3273 14.9062 8.10352C14.9062 7.87975 14.9951 7.66514 15.1534 7.5069C15.3116 7.34867 15.5262 7.25977 15.75 7.25977H16.875C17.0988 7.25977 17.3134 7.34867 17.4716 7.5069C17.6299 7.66514 17.7188 7.87975 17.7188 8.10352C17.7188 8.3273 17.6299 8.54191 17.4716 8.70014C17.3134 8.85838 17.0988 8.94727 16.875 8.94727ZM23.5181 5.8742L15.4668 5.85549C15.2433 5.85497 15.0292 5.76585 14.8714 5.60767C14.7136 5.44949 14.625 5.23518 14.625 5.01174V2.83009C14.625 2.60631 14.7139 2.3917 14.8721 2.23347C15.0304 2.07523 15.245 1.98634 15.4688 1.98634H19.5151C19.7047 1.98635 19.8889 2.05026 20.0377 2.16774L23.7803 5.12087C23.8493 5.17519 23.8996 5.24968 23.9243 5.33396C23.9489 5.41824 23.9466 5.50811 23.9177 5.59103C23.8889 5.67395 23.8349 5.7458 23.7632 5.79656C23.6916 5.84732 23.6059 5.87446 23.5181 5.8742Z" fill="#0FC2A0"/>
</svg>
