<svg width="128" height="128" viewBox="0 0 128 128" fill="none" xmlns="http://www.w3.org/2000/svg">
<path d="M64.001 128C99.3477 128 128.002 99.3462 128.002 64C128.002 28.6538 99.3477 0 64.001 0C28.6542 0 0 28.6538 0 64C0 99.3462 28.6542 128 64.001 128Z" fill="#D6E3F0"/>
<mask id="mask0_10_36174" style="mask-type:luminance" maskUnits="userSpaceOnUse" x="0" y="0" width="129" height="128">
<path d="M64.001 128C99.3477 128 128.002 99.3462 128.002 64C128.002 28.6538 99.3477 0 64.001 0C28.6542 0 0 28.6538 0 64C0 99.3462 28.6542 128 64.001 128Z" fill="white"/>
</mask>
<g mask="url(#mask0_10_36174)">
<path d="M110.011 139.734H17.9941L18.6786 137.827C22.3945 127.413 26.6482 117.097 31.293 107.172C32.5154 104.532 34.9111 102.772 37.698 102.38H37.8936H53.6861L54.8595 99.0557L55.6418 99.3491V97.0023C47.1833 94.0198 40.7783 86.7349 38.8715 77.9832C38.6759 77.9832 38.4803 77.9832 38.2847 77.9832C32.7109 77.9832 28.3595 71.236 28.3595 65.4178C28.3595 61.262 30.6085 58.4262 34.6178 57.3506C32.8087 49.8212 33.2977 40.9228 33.2977 40.5317L33.4932 37.0603L33.6888 37.3048C34.5689 31.4377 37.0135 24.495 43.4185 19.6547C51.5348 13.4942 64.0025 12.1742 80.4794 15.6944C83.1197 16.33 84.9287 18.0412 85.8577 20.6325C90.1114 22.0504 93.4361 24.7395 95.4407 28.5531C98.961 35.1535 98.6676 44.9809 94.6584 57.7906C97.8854 59.1107 99.6455 61.7998 99.6455 65.4178C99.6455 68.2047 98.6187 71.2849 96.9075 73.6806C94.9518 76.4186 92.4093 77.9343 89.7691 77.9832C87.7645 87.1749 80.9195 94.6065 71.8743 97.3445V99.4958L73.1455 99.0557L74.3189 102.38H90.3069C93.0938 102.772 95.4896 104.532 96.7119 107.172C101.357 117.097 105.61 127.364 109.326 137.827L110.011 139.734ZM22.1012 136.849H105.904C102.384 127.169 98.4232 117.635 94.0717 108.394C93.2894 106.683 91.7248 105.51 89.9647 105.265H72.2654L71.3853 102.723L68.9896 103.554V95.0955L70.0652 94.8021C78.9637 92.5042 85.6621 85.2192 87.1289 76.1741L87.3733 74.7563L88.7912 74.9518C89.0846 75.0007 89.4269 75.0007 89.7202 75.0007C92.8005 75.0007 96.7608 70.4538 96.7608 65.3201C96.7608 62.4843 95.3429 60.7242 92.4582 59.9908L90.9425 59.5997L91.4315 58.1329C95.6363 45.4209 96.1252 35.8869 92.8494 29.7754C91.0892 26.4018 88.2045 24.1528 84.2442 23.0283L83.4619 22.7838L83.2663 22.0015C82.7285 19.948 81.6529 18.8235 79.7949 18.3835C64.1981 15.0588 52.5126 16.1833 45.1298 21.8548C38.3825 26.9885 36.5246 34.9091 36.2312 40.6784L36.1335 42.7807C36.0846 46.1543 36.2801 52.8036 37.7958 58.0351L38.2847 59.6486L36.6224 59.893C33.0532 60.3819 31.293 62.2398 31.293 65.4178C31.293 67.618 32.1242 70.0626 33.4932 72.0183C34.8622 73.974 36.6224 75.0985 38.3336 75.0985C38.8226 75.0985 39.3115 75.0496 39.7515 74.9518L41.2672 74.6096L41.5117 76.1252C42.8807 84.7792 49.1879 92.0152 57.5486 94.5576L58.5754 94.851V103.407L56.6685 102.723L55.7885 105.265H38.0892C36.329 105.558 34.8133 106.732 33.9822 108.394C29.5818 117.586 25.6214 127.169 22.1012 136.849Z" fill="white"/>
</g>
<mask id="mask1_10_36174" style="mask-type:luminance" maskUnits="userSpaceOnUse" x="0" y="0" width="129" height="128">
<path d="M64.001 128C99.3477 128 128.002 99.3462 128.002 64C128.002 28.6538 99.3477 0 64.001 0C28.6542 0 0 28.6538 0 64C0 99.3462 28.6542 128 64.001 128Z" fill="white"/>
</mask>
<g mask="url(#mask1_10_36174)">
<path d="M70.4551 84.2908H57.0586V107.466H70.4551V84.2908Z" fill="#F9C9AA"/>
<path d="M97.2484 116.804C97.2484 109.666 91.3813 103.798 84.2429 103.798H43.7594C36.6211 103.798 30.7539 109.666 30.7539 116.804V138.268H97.2484V116.804Z" fill="#1A1A1A"/>
<path d="M34.7125 40.5324C34.7125 40.5324 33.9303 54.1734 37.5972 61.7028C40.0418 66.6898 43.2198 49.9686 43.2198 49.9686L34.7125 40.5324Z" fill="#3E3A39"/>
<path d="M73.2922 103.798H54.7129L59.5533 138.268H68.5007L73.2922 103.798Z" fill="white"/>
<path d="M77.4963 21.0245C77.4963 21.0245 106.49 17.6998 92.702 58.916C90.5507 62.6318 71.4824 61.605 71.4824 61.605L77.4963 21.0245Z" fill="#3E3A39"/>
<path d="M44.2456 73.8277C42.7299 75.4901 40.5786 76.4679 38.2318 76.4679C33.5381 76.4679 29.7734 70.3564 29.7734 65.3694C29.7734 60.3335 33.587 58.28 38.2318 58.28C40.432 58.28 42.4365 59.16 43.9033 60.6268L44.2456 73.8277Z" fill="#F9D6BE"/>
<path d="M83.7031 73.8277C85.2188 75.4901 87.37 76.4679 89.7169 76.4679C94.4105 76.4679 98.1752 70.3564 98.1752 65.3693C98.1752 60.3334 94.3616 58.28 89.7169 58.28C87.5167 58.28 85.5121 59.16 84.0454 60.6268L83.7031 73.8277Z" fill="#F9C9AA"/>
<path d="M39.6992 44.1993V72.3612C39.6992 85.9533 50.7002 97.0029 64.3413 97.0029C77.9336 97.0029 88.9834 86.0022 88.9834 72.3612V44.1993H39.6992Z" fill="#F9D6BE"/>
<path d="M88.9349 72.3612V44.1993H63.1193C63.1193 44.1993 63.1193 62.9739 63.1193 63.4139C63.1193 63.854 62.8749 64.3429 62.8749 64.3429L56.9588 75.3925C56.9588 75.3925 56.0788 76.5171 57.35 76.5171C58.4256 76.5171 61.7014 76.5171 62.7771 76.5171C63.1193 76.5171 63.1193 76.8593 63.1193 76.8593V96.954C63.5105 96.954 63.9016 97.0029 64.3417 97.0029C77.9339 96.954 88.9349 85.9533 88.9349 72.3612Z" fill="#F9C9AA"/>
<path d="M55.9329 61.5555C55.9329 64.2934 54.3684 66.5425 52.4616 66.5425C50.5548 66.5425 48.9902 64.2934 48.9902 61.5555C48.9902 58.8175 50.5548 56.5685 52.4616 56.5685C54.3684 56.5685 55.9329 58.8175 55.9329 61.5555Z" fill="#3E3A39"/>
<path d="M79.304 61.5555C79.304 64.2934 77.7395 66.5425 75.8327 66.5425C73.9259 66.5425 72.3613 64.2934 72.3613 61.5555C72.3613 58.8175 73.9259 56.5685 75.8327 56.5685C77.7395 56.5685 79.304 58.8175 79.304 61.5555Z" fill="#3E3A39"/>
<path d="M56.0781 83.0187L72.5062 80.4274C72.5062 80.4274 72.5062 87.9568 63.8032 89.1302C57.0071 90.0592 56.0781 83.0187 56.0781 83.0187Z" fill="#A0174D"/>
<path d="M72.5539 80.4274C72.5539 80.4274 72.3584 82.2364 72.1628 82.5787C71.9183 83.0676 65.3179 84.9744 59.0597 84.8277C57.1529 84.7788 56.7617 82.872 56.7617 82.872L72.5539 80.4274Z" fill="white"/>
<path d="M57.3013 54.8571C57.2035 54.8571 57.1546 54.8571 57.0568 54.8082C53.1943 53.3903 49.8697 54.0259 47.7184 54.8082C47.3762 54.9549 46.985 54.7593 46.8383 54.4171C46.6917 54.0748 46.8872 53.6837 47.2295 53.537C49.5763 52.7058 53.2432 52.0214 57.448 53.537C57.7902 53.6837 57.9858 54.0259 57.8391 54.4171C57.8391 54.7104 57.5946 54.8571 57.3013 54.8571Z" fill="#3E3A39"/>
<path d="M80.7193 54.8571C80.6215 54.8571 80.5726 54.8571 80.4748 54.8082C76.6123 53.3903 73.2876 54.0259 71.1364 54.8082C70.7941 54.9549 70.403 54.7593 70.2563 54.4171C70.1096 54.0748 70.3052 53.6837 70.6474 53.537C72.9943 52.7058 76.6612 52.0214 80.8659 53.537C81.2082 53.6837 81.4037 54.0259 81.2571 54.4171C81.2571 54.7104 81.0126 54.8571 80.7193 54.8571Z" fill="#3E3A39"/>
<path d="M64.0005 103.799L61.1158 108.59L54.7109 103.799L55.7377 100.865L64.0005 103.799Z" fill="#EFEFEF"/>
<path d="M64.002 103.799L66.9355 108.59L73.2915 103.799L72.2648 100.865L64.002 103.799Z" fill="#EFEFEF"/>
<path d="M54.7112 103.798H47.964L50.9954 109.568L47.084 112.012L58.9648 134.209L54.7112 103.798Z" fill="#595757"/>
<path d="M73.2887 103.798H80.0359L77.0045 109.568L80.9648 112.012L69.084 134.209L73.2887 103.798Z" fill="#595757"/>
<path d="M80.1851 43.5631C80.1851 43.5631 71.8733 48.599 41.4619 51.2881C35.3502 51.4348 34.9102 46.6922 34.9102 46.6922C35.0569 46.6922 28.6519 6.01385 80.1851 17.0635C91.1861 19.7037 80.1851 43.5631 80.1851 43.5631Z" fill="#3E3A39"/>
<path d="M73.7311 41.7544C73.7311 41.7544 75.5401 48.1593 90.9414 51.2884C91.0392 51.1418 90.9414 38.9676 90.9414 38.9676H73.291L73.7311 41.7544Z" fill="#3E3A39"/>
<path d="M42.6827 46.4967C42.6827 46.4967 40.6292 55.9329 40.6781 66.5425C40.6781 68.4982 39.7002 67.3737 39.7002 67.3737V58.3286L38.918 58.2797L39.7002 44.1498H44.7362L42.6827 46.4967Z" fill="#3E3A39"/>
<path d="M85.9539 46.4967C85.9539 46.4967 88.0073 55.9329 87.9584 66.5425C87.9584 68.4982 88.9363 67.3737 88.9363 67.3737V58.3286L89.7186 58.2797L88.9363 44.1498H83.9004L85.9539 46.4967Z" fill="#3E3A39"/>
<path d="M44.683 113.48C45.7098 111.231 45.4653 108.738 44.243 106.782L47.0788 108.102V103.848H37.9358C35.7356 104.142 33.6821 105.608 32.6554 107.809C27.9616 117.783 23.7568 127.952 20.0898 138.317H34.3177C37.398 129.859 40.8694 121.596 44.683 113.48Z" fill="#1A1A1A"/>
<path d="M95.3922 107.759C94.3165 105.51 92.3119 104.092 90.1117 103.799H80.9688V108.052L83.8045 106.732C82.5333 108.639 82.2889 111.181 83.3645 113.43C87.1782 121.546 90.6496 129.858 93.7787 138.268H108.007C104.291 127.902 100.086 117.733 95.3922 107.759Z" fill="#1A1A1A"/>
<path d="M65.9584 110.399L67.0829 108.59L64.0027 103.798L60.9713 108.59L62.0959 110.399L60.4824 138.268H67.5229L65.9584 110.399Z" fill="#C7000B"/>
</g>
</svg>
