<svg width="80" height="80" viewBox="0 0 80 80" fill="none" xmlns="http://www.w3.org/2000/svg">
<path d="M61.7664 45.3437H63.0929C64.7044 45.3437 66.0155 46.6549 66.0155 48.2664C66.0155 49.8781 64.7044 51.189 63.0929 51.189H60.9081L60.6667 55.8333C60.6107 56.9018 60.9804 57.9119 61.7067 58.6772C62.4329 59.4416 63.42 59.8626 64.488 59.8626H68.8315L69.6366 39.1381C69.7294 36.7668 70.3612 34.3881 71.5155 32.0684L71.6369 31.8237L71.4977 31.9273C66.7552 35.4593 63.26 40.2978 61.7664 45.3437Z" fill="#DBCA0B"/>
<path d="M63.754 48.2664C63.754 47.9026 63.458 47.6064 63.0941 47.6064H39.5869C39.7024 48.0426 39.8029 48.4828 39.8888 48.9264H63.094C63.4578 48.9264 63.754 48.6304 63.754 48.2664Z" fill="#FFEC6B"/>
<path d="M34.1624 15.9009C34.1624 16.5259 33.656 17.0323 33.0311 17.0323H23.5685V32.9998C26.0239 33.4139 28.3885 34.2713 30.5315 35.5593C33.1663 37.1422 36.4594 37.2078 39.1258 35.7299L40.2618 35.0999L35.5911 16.1721C35.5079 15.8345 35.5845 15.4772 35.7992 15.2036C36.0135 14.9295 36.3421 14.7697 36.6898 14.7697H37.9091C38.2936 14.7697 38.6066 14.4567 38.6066 14.0719C38.6066 13.6871 38.2936 13.374 37.9091 13.374H12.8786C12.4936 13.374 12.1807 13.6871 12.1807 14.0719C12.1807 14.4567 12.4936 14.7697 12.8786 14.7697H33.0311C33.656 14.7695 34.1624 15.2759 34.1624 15.9009Z" fill="#FFF296"/>
<path d="M50.0375 54.6772C46.829 54.6772 44.2188 57.2873 44.2188 60.4958C44.2188 63.7043 46.8292 66.3142 50.0375 66.3142C53.246 66.3142 55.8556 63.7041 55.8556 60.4958C55.8556 57.2873 53.2458 54.6772 50.0375 54.6772ZM50.0375 64.707C47.7152 64.707 45.826 62.8177 45.826 60.4958C45.826 58.1737 47.7152 56.2846 50.0375 56.2846C50.6621 56.2846 51.1688 56.7908 51.1688 57.416C51.1688 58.0409 50.6621 58.5473 50.0375 58.5473C48.9629 58.5473 48.0885 59.4216 48.0885 60.496C48.0885 61.5702 48.9628 62.4444 50.0375 62.4444C51.1114 62.4444 51.9858 61.57 51.9858 60.496C51.9858 59.871 52.4925 59.3646 53.117 59.3646C53.7416 59.3646 54.2484 59.871 54.2484 60.496C54.2484 62.8177 52.3591 64.707 50.0375 64.707Z" fill="#A3A3A3"/>
<path d="M19.4197 39.7793C12.1042 39.7793 6.15234 45.7311 6.15234 53.0465C6.15234 60.3623 12.1042 66.3142 19.4197 66.3142C26.7355 66.3142 32.6872 60.3623 32.6872 53.0465C32.6872 45.731 26.7355 39.7793 19.4197 39.7793ZM19.4197 61.0478C15.008 61.0478 11.4187 57.4585 11.4187 53.0465C11.4187 48.6345 15.0079 45.0452 19.4197 45.0452C23.8317 45.0452 27.4208 48.6345 27.4208 53.0465C27.4208 57.4585 23.8317 61.0478 19.4197 61.0478Z" fill="#A3A3A3"/>
<path d="M19.4178 47.3076C16.2539 47.3076 13.6797 49.8819 13.6797 53.0462C13.6797 56.2105 16.2539 58.7847 19.4178 58.7847C22.5819 58.7847 25.1563 56.2105 25.1563 53.0462C25.1563 49.882 22.5821 47.3076 19.4178 47.3076ZM19.4178 57.0983C17.1834 57.0983 15.3659 55.2804 15.3659 53.0462C15.3659 52.4212 15.8722 51.9148 16.4973 51.9148C17.1222 51.9148 17.6286 52.4212 17.6286 53.0462C17.6286 54.0329 18.4312 54.8356 19.4178 54.8356C20.4043 54.8356 21.2072 54.0329 21.2072 53.0462C21.2072 52.0596 20.4043 51.2571 19.4178 51.2571C18.7928 51.2571 18.2864 50.7507 18.2864 50.1257C18.2864 49.5007 18.7928 48.9943 19.4178 48.9943C21.652 48.9943 23.4699 50.8118 23.4699 53.0462C23.4699 55.2804 21.6522 57.0983 19.4178 57.0983Z" fill="#DBCA0B"/>
<path d="M50.0386 52.4141C51.3133 52.4141 52.5155 52.719 53.589 53.247L53.8326 51.1885H40.1944C40.2343 51.7043 40.26 52.2222 40.26 52.7422C40.26 53.3672 39.7533 53.8736 39.1286 53.8736C38.5037 53.8736 37.9973 53.3672 37.9973 52.7422C37.9973 49.5171 37.1248 46.3592 35.4742 43.6096C35.1528 43.0741 35.3262 42.3789 35.8621 42.0573C36.3973 41.7354 37.0933 41.9096 37.4144 42.4451C37.9709 43.3722 38.4389 44.3442 38.8357 45.343H54.525L54.98 41.4957L41.6749 36.9035L40.2232 37.7086C36.853 39.5787 32.693 39.4981 29.3662 37.4987C26.6149 35.8456 23.4546 34.9717 20.2267 34.9717C16.1304 34.9717 12.2814 36.3261 9.09665 38.8886C8.57329 39.3096 8.25441 39.932 8.22161 40.596C8.19761 41.083 8.32529 41.5464 8.58337 41.9419C11.384 39.2083 15.2054 37.516 19.4189 37.516C27.9824 37.516 34.9491 44.4827 34.9491 53.0459C34.9491 54.4498 34.7451 55.8037 34.3942 57.0981H42.7159C44.0024 54.337 46.7968 52.4141 50.0386 52.4141Z" fill="#19B041"/>
<path d="M52.996 38.4165L53.4616 36.6608C53.6067 36.1165 53.304 35.5427 52.7729 35.3547L41.6865 31.4253L42.5193 34.8005L52.996 38.4165Z" fill="#A3A3A3"/>
<path d="M21.3058 32.7457V17.0327H16.3877L13.707 33.8086C15.7938 33.0903 17.9979 32.7092 20.2267 32.7092C20.5875 32.7092 20.9469 32.7265 21.3058 32.7457Z" fill="#DBCA0B"/>
<path d="M53.1182 59.3632C52.4935 59.3632 51.987 59.8696 51.987 60.4946C51.987 61.5688 51.1126 62.443 50.0387 62.443C48.9641 62.443 48.0897 61.5686 48.0897 60.4946C48.0897 59.4202 48.9639 58.5459 50.0387 58.5459C50.6633 58.5459 51.17 58.0395 51.17 57.4146C51.17 56.7896 50.6633 56.2832 50.0387 56.2832C47.7164 56.2832 45.8271 58.1723 45.8271 60.4944C45.8271 62.8163 47.7164 64.7056 50.0387 64.7056C52.3603 64.7056 54.2495 62.8163 54.2495 60.4944C54.2495 59.8696 53.7428 59.3632 53.1182 59.3632Z" fill="#333333"/>
<path d="M19.4199 45.0449C15.0082 45.0449 11.4189 48.6342 11.4189 53.0462C11.4189 57.4582 15.0081 61.0475 19.4199 61.0475C23.8319 61.0475 27.421 57.4582 27.421 53.0462C27.421 48.6342 23.8319 45.0449 19.4199 45.0449ZM19.4199 58.7848C16.2561 58.7848 13.6818 56.2105 13.6818 53.0462C13.6818 49.882 16.2561 47.3076 19.4199 47.3076C22.5841 47.3076 25.1585 49.8819 25.1585 53.0462C25.1585 56.2105 22.5842 58.7848 19.4199 58.7848Z" fill="#333333"/>
<path d="M19.4171 48.9941C18.7921 48.9941 18.2857 49.5005 18.2857 50.1255C18.2857 50.7505 18.7921 51.2569 19.4171 51.2569C20.4036 51.2569 21.2065 52.0594 21.2065 53.046C21.2065 54.0327 20.4036 54.8354 19.4171 54.8354C18.4305 54.8354 17.628 54.0327 17.628 53.046C17.628 52.421 17.1216 51.9146 16.4966 51.9146C15.8716 51.9146 15.3652 52.421 15.3652 53.046C15.3652 55.2802 17.1827 57.0981 19.4171 57.0981C21.6513 57.0981 23.4692 55.2802 23.4692 53.046C23.4692 50.8116 21.6515 48.9941 19.4171 48.9941Z" fill="#333333"/>
<path d="M74.082 27.1827L70.1472 30.112C64.8191 34.0792 60.9429 39.6024 59.4223 45.3432H56.8028L57.334 40.8565C57.3967 40.3285 57.0829 39.8275 56.5797 39.654L55.1399 39.1571L55.6479 37.2416C56.092 35.5667 55.161 33.8011 53.5272 33.2222L41.036 28.7948L38.1319 17.0241C39.6602 16.91 40.8688 15.6294 40.8688 14.072C40.8688 12.4393 39.541 11.1113 37.9087 11.1113H12.8784C11.246 11.1113 9.91779 12.4393 9.91779 14.072C9.91779 15.7044 11.246 17.0326 12.8784 17.0326H14.0959L11.2479 34.8555C9.98771 35.4867 8.78419 36.2356 7.67795 37.1256C6.65155 37.9516 6.02579 39.1758 5.96163 40.4849C5.90403 41.6537 6.30547 42.7944 7.06547 43.6731C5.08131 46.2816 3.88867 49.5235 3.88867 53.0462C3.88867 61.6097 10.8554 68.5765 19.4186 68.5765C25.7327 68.5765 31.1682 64.7833 33.5936 59.3611H42.046C41.9933 59.7328 41.9568 60.1094 41.9568 60.4955C41.9568 64.9512 45.5821 68.5766 50.0383 68.5766C54.4938 68.5766 58.1191 64.9512 58.1191 60.4955C58.1191 58.2392 57.1872 56.1982 55.6909 54.7307L56.1103 51.1886H58.6426L58.4071 55.7152C58.3188 57.4097 58.9079 59.0145 60.0658 60.2347C61.2229 61.4537 62.7932 62.1251 64.488 62.1251H71.9664C72.5911 62.1251 73.0978 61.6187 73.0978 60.9937C73.0978 60.3688 72.5909 59.8624 71.9664 59.8624H71.0959L71.898 39.2259C71.9775 37.1765 72.5306 35.1073 73.5412 33.076L75.77 28.5941C76.0036 28.1253 75.8842 27.5576 75.4828 27.2222C75.0821 26.8867 74.5024 26.8701 74.082 27.1827ZM52.7717 35.3552C53.3028 35.543 53.6055 36.1168 53.4604 36.6613L52.9948 38.4169L42.5181 34.8011L41.6853 31.4259L52.7717 35.3552ZM12.8784 14.7699C12.4935 14.7699 12.1805 14.4569 12.1805 14.0721C12.1805 13.6873 12.4935 13.3742 12.8784 13.3742H37.9088C38.2933 13.3742 38.6063 13.6873 38.6063 14.0721C38.6063 14.4569 38.2933 14.7699 37.9088 14.7699H36.6895C36.3418 14.7699 36.0132 14.9297 35.7989 15.2038C35.5842 15.4774 35.5076 15.8347 35.5908 16.1723L40.2615 35.1001L39.1255 35.7301C36.4591 37.208 33.166 37.1425 30.5312 35.5595C28.3882 34.2715 26.0236 33.4141 23.5682 33V17.0324H33.0308C33.6557 17.0324 34.1621 16.526 34.1621 15.9011C34.1621 15.2761 33.6557 14.7697 33.0308 14.7697L12.8784 14.7699ZM16.3876 17.0326H21.3056V32.7456C20.9468 32.7264 20.5874 32.7091 20.2266 32.7091C17.9978 32.7091 15.7936 33.0902 13.7069 33.8084L16.3876 17.0326ZM19.4186 66.3139C12.1031 66.3139 6.15123 60.3621 6.15123 53.0462C6.15123 45.7307 12.1031 39.779 19.4186 39.779C26.7344 39.779 32.6861 45.7309 32.6861 53.0462C32.6861 60.3621 26.7344 66.3139 19.4186 66.3139ZM34.3941 57.0984C34.745 55.804 34.949 54.4499 34.949 53.0462C34.949 44.483 27.9823 37.5163 19.4188 37.5163C15.2053 37.5163 11.3839 39.2086 8.58323 41.9422C8.32531 41.5467 8.19763 41.0833 8.22147 40.5963C8.25427 39.9323 8.57315 39.3099 9.09651 38.8889C12.2815 36.3264 16.1303 34.972 20.2266 34.972C23.4546 34.972 26.6148 35.8459 29.3661 37.499C32.6928 39.4984 36.8528 39.579 40.2231 37.7089L41.6748 36.9038L54.9799 41.496L54.5248 45.3433H38.8356C38.4388 44.3445 37.9708 43.3725 37.4143 42.4454C37.0932 41.9099 36.3972 41.7357 35.862 42.0576C35.3261 42.3792 35.1527 43.0744 35.4741 43.6099C37.1247 46.3595 37.9972 49.5174 37.9972 52.7425C37.9972 53.3675 38.5036 53.8739 39.1285 53.8739C39.7532 53.8739 40.2599 53.3675 40.2599 52.7425C40.2599 52.2224 40.2341 51.7046 40.1943 51.1888H53.8324L53.5887 53.2473C52.5152 52.7193 51.3132 52.4144 50.0383 52.4144C46.7965 52.4144 44.0021 54.3373 42.7157 57.0985H34.3941V57.0984ZM55.8565 60.4955C55.8565 63.704 53.2469 66.3139 50.0384 66.3139C46.83 66.3139 44.2197 63.7038 44.2197 60.4955C44.2197 57.287 46.8301 54.6769 50.0384 54.6769C53.2468 54.6769 55.8565 57.287 55.8565 60.4955ZM39.888 48.9259C39.8023 48.4822 39.7016 48.0422 39.5861 47.6059H63.0932C63.457 47.6059 63.753 47.9019 63.753 48.2659C63.753 48.6297 63.457 48.9259 63.0932 48.9259H39.888ZM71.5157 32.068C70.3615 34.3878 69.7296 36.7664 69.6368 39.1377L68.8317 59.8622H64.4882C63.4204 59.8622 62.4333 59.4413 61.7069 58.6768C60.9807 57.9115 60.6109 56.9013 60.6669 55.8329L60.9084 51.1886H63.0932C64.7047 51.1886 66.0157 49.8776 66.0157 48.2661C66.0157 46.6545 64.7047 45.3433 63.0932 45.3433H61.7666C63.2602 40.2973 66.7554 35.4588 71.498 31.927L71.6372 31.8235L71.5157 32.068Z" fill="#333333"/>
</svg>
