<svg width="16" height="17" viewBox="0 0 16 17" fill="none" xmlns="http://www.w3.org/2000/svg">
<g clip-path="url(#clip0_11_49386)">
<path d="M0 15.0337C0 15.5862 0.4475 16.0337 1 16.0337H15C15.5525 16.0337 16 15.5862 16 15.0337V6.03369H0V15.0337ZM11 7.03369H15V9.03369H11V7.03369ZM11 10.0337H15V12.0337H11V10.0337ZM11 13.0337H15V15.0337H11V13.0337ZM6 7.03369H10V9.03369H6V7.03369ZM6 10.0337H10V12.0337H6V10.0337ZM6 13.0337H10V15.0337H6V13.0337ZM1 7.03369H5V9.03369H1V7.03369ZM1 10.0337H5V12.0337H1V10.0337ZM1 13.0337H5V15.0337H1V13.0337ZM15 2.03369H13V0.605191C13 0.289691 12.776 0.0336914 12.5 0.0336914C12.224 0.0336914 12 0.289691 12 0.605191V2.03369H4V0.605191C4 0.289691 3.776 0.0336914 3.5 0.0336914C3.224 0.0336914 3 0.289691 3 0.605191V2.03369H1C0.4475 2.03369 0 2.48119 0 3.03369V5.03369H16V3.03369C16 2.48119 15.5525 2.03369 15 2.03369ZM3.5 4.53369C2.9475 4.53369 2.5 4.08619 2.5 3.53369C2.5 3.16369 2.701 2.84069 3 2.66769V3.53369C3 3.80969 3.224 4.03369 3.5 4.03369C3.776 4.03369 4 3.80969 4 3.53369V2.66769C4.299 2.84069 4.5 3.16369 4.5 3.53369C4.5 4.08619 4.0525 4.53369 3.5 4.53369ZM12.5 4.53369C11.9475 4.53369 11.5 4.08619 11.5 3.53369C11.5 3.16369 11.701 2.84069 12 2.66769V3.53369C12 3.80969 12.224 4.03369 12.5 4.03369C12.776 4.03369 13 3.80969 13 3.53369V2.66769C13.299 2.84069 13.5 3.16369 13.5 3.53369C13.5 4.08619 13.0525 4.53369 12.5 4.53369Z" fill="#444444"/>
</g>
<defs>
<clipPath id="clip0_11_49386">
<rect width="16" height="16" fill="white" transform="translate(0 0.0336914)"/>
</clipPath>
</defs>
</svg>
