<svg width="80" height="80" viewBox="0 0 80 80" fill="none" xmlns="http://www.w3.org/2000/svg">
<path d="M76.735 34.6412L63.798 32.485L57.5353 16.2021H42.505C41.1216 16.2021 40 17.3237 40 18.7071V33.7451H1.17188V51.2804C1.17188 52.664 2.29359 53.7856 3.67719 53.7854L77.5758 53.7778C78.2675 53.7778 78.8281 53.217 78.8281 52.5253V37.112C78.8281 35.8876 77.9428 34.8425 76.735 34.6412Z" fill="#F198AC"/>
<path d="M1.17188 47.5225H78.8281V52.5326C78.8281 53.2243 78.2674 53.7851 77.5756 53.7851H3.67688C2.29344 53.7851 1.17188 52.6636 1.17188 51.2801V47.5225Z" fill="#F198AC"/>
<path d="M46.2628 38.7552H78.8283V37.1121C78.8283 35.8875 77.943 34.8424 76.735 34.6411L63.8442 32.4927H46.2628C44.8794 32.4927 43.7578 33.6142 43.7578 34.9977V36.2502C43.7577 37.6336 44.8792 38.7552 46.2628 38.7552Z" fill="#F198AC"/>
<path d="M73.8184 38.7545V42.512C73.8184 43.8955 74.9399 45.0171 76.3234 45.0171H78.8285V38.7544L73.8184 38.7545Z" fill="#FFFABE"/>
<path d="M48.7677 32.4841H63.798L59.4624 21.2114H46.2627V29.9791C46.2627 31.3625 47.3843 32.4841 48.7677 32.4841Z" fill="#00D7FF"/>
<path d="M40 33.7451H1.17188V38.7545H40V33.7451Z" fill="#F198AC"/>
<path d="M66.303 42.5122C59.8116 42.5122 54.476 47.4535 53.8486 53.7795L77.5758 53.777C78.0491 53.777 78.4463 53.5041 78.6593 53.1167C77.7361 47.1139 72.5641 42.5122 66.303 42.5122Z" fill="#CB667C"/>
<path d="M66.3023 63.7961C71.1443 63.7961 75.0695 59.8709 75.0695 55.0289C75.0695 50.1869 71.1443 46.2617 66.3023 46.2617C61.4604 46.2617 57.5352 50.1869 57.5352 55.0289C57.5352 59.8709 61.4604 63.7961 66.3023 63.7961Z" fill="#5B5D6E"/>
<path d="M66.3036 58.7795C68.3745 58.7795 70.0534 57.1006 70.0534 55.0296C70.0534 52.9587 68.3745 51.2798 66.3036 51.2798C64.2326 51.2798 62.5537 52.9587 62.5537 55.0296C62.5537 57.1006 64.2326 58.7795 66.3036 58.7795Z" fill="#C7CFE2"/>
<path d="M29.91 53.7827C29.2838 47.4553 23.9475 42.5127 17.4555 42.5127C10.9627 42.5127 5.62598 47.4568 5.00098 53.7852L29.91 53.7827Z" fill="#CB667C"/>
<path d="M17.4557 63.7961C22.2976 63.7961 26.2229 59.8709 26.2229 55.0289C26.2229 50.1869 22.2976 46.2617 17.4557 46.2617C12.6137 46.2617 8.68848 50.1869 8.68848 55.0289C8.68848 59.8709 12.6137 63.7961 17.4557 63.7961Z" fill="#5B5D6E"/>
<path d="M17.4549 58.7795C19.5259 58.7795 21.2048 57.1006 21.2048 55.0296C21.2048 52.9587 19.5259 51.2798 17.4549 51.2798C15.3839 51.2798 13.7051 52.9587 13.7051 55.0296C13.7051 57.1006 15.3839 58.7795 17.4549 58.7795Z" fill="#C7CFE2"/>
<path d="M57.5383 16.209H42.4284C41.0812 16.2504 40 17.349 40 18.7063V19.9666H58.9834L57.5383 16.209Z" fill="#F198AC"/>
<path d="M59.4655 21.2197L59.4652 21.2191L46.2627 21.2114V24.9767H60.9105L59.4655 21.2197Z" fill="#00C3FF"/>
<path d="M21.2124 53.8576C20.5652 53.8576 20.0405 54.3823 20.0405 55.0295C20.0405 56.4553 18.8805 57.6151 17.4548 57.6151C16.029 57.6151 14.8691 56.4553 14.8691 55.0295C14.8691 53.6037 16.029 52.4438 17.4548 52.4438C18.102 52.4438 18.6266 51.9192 18.6266 51.272C18.6266 50.6248 18.102 50.1001 17.4548 50.1001C14.7366 50.1001 12.5254 52.3113 12.5254 55.0295C12.5254 57.7476 14.7366 59.9589 17.4548 59.9589C20.1729 59.9589 22.3843 57.7476 22.3843 55.0295C22.3843 54.3823 21.8596 53.8576 21.2124 53.8576Z" fill="#333333"/>
<path d="M70.0599 53.8576C69.4127 53.8576 68.888 54.3823 68.888 55.0295C68.888 56.4553 67.7282 57.6151 66.3024 57.6151C64.8766 57.6151 63.7168 56.4553 63.7168 55.0295C63.7168 53.6037 64.8766 52.4438 66.3024 52.4438C66.9496 52.4438 67.4743 51.9192 67.4743 51.272C67.4743 50.6248 66.9496 50.1001 66.3024 50.1001C63.5843 50.1001 61.373 52.3113 61.373 55.0295C61.373 57.7476 63.5843 59.9588 66.3024 59.9588C69.0205 59.9588 71.2318 57.7476 71.2318 55.0295C71.2318 54.3823 70.7071 53.8576 70.0599 53.8576Z" fill="#333333"/>
<path d="M76.9275 33.4853L64.6513 31.4392L59.2416 17.374H60.0403C60.6875 17.374 61.2122 16.8493 61.2122 16.2021C61.2122 15.555 60.6875 15.0303 60.0403 15.0303H42.505C40.4775 15.0303 38.8281 16.6798 38.8281 18.7071V32.5656H1.17188C0.524688 32.5656 0 33.0903 0 33.7375V51.2728C0 53.3003 1.64953 54.9496 3.67688 54.9496H7.51719C7.51703 54.9767 7.51516 55.0032 7.51516 55.0303C7.51516 60.5111 11.9741 64.9698 17.4547 64.9698C22.9355 64.9698 27.3942 60.5109 27.3942 55.0303C27.3942 55.0032 27.3923 54.9767 27.3922 54.9496H56.3655C56.3653 54.9767 56.3634 55.0032 56.3634 55.0303C56.3634 60.5111 60.8223 64.9698 66.303 64.9698C71.7836 64.9698 76.2425 60.5109 76.2425 55.0303C76.2425 55.0032 76.2406 54.9767 76.2405 54.9496H77.5756C78.9125 54.9496 80 53.8621 80 52.5253V37.112C80 35.3073 78.7078 33.782 76.9275 33.4853ZM77.6563 43.8382H76.3231C75.588 43.8382 74.99 43.2401 74.99 42.5051V39.9195H77.6563V43.8382ZM62.0916 31.3131H48.7675C48.0323 31.3131 47.4344 30.715 47.4344 29.98V22.3842H58.6574L62.0916 31.3131ZM17.4545 62.6262C13.2663 62.6262 9.85875 59.2187 9.85875 55.0304C9.85875 50.8421 13.2663 47.4346 17.4545 47.4346C21.643 47.4346 25.0503 50.8421 25.0503 55.0304C25.0505 59.2187 21.643 62.6262 17.4545 62.6262ZM66.303 62.6262C62.1145 62.6262 58.7072 59.2187 58.7072 55.0304C58.7072 50.8421 62.1147 47.4346 66.303 47.4346C70.4913 47.4346 73.8988 50.8421 73.8988 55.0304C73.8988 59.2187 70.4913 62.6262 66.303 62.6262ZM77.5756 52.6059H75.9422C74.857 48.2934 70.9475 45.0907 66.303 45.0907C61.6584 45.0907 57.7489 48.2934 56.6638 52.6059H27.0939C26.0088 48.2934 22.0992 45.0907 17.4547 45.0907C12.8102 45.0907 8.90063 48.2934 7.81547 52.6059H3.67688C2.94172 52.6059 2.34375 52.0078 2.34375 51.2728V34.9093H38.8281V48.7676C38.8281 49.4148 39.3528 49.9395 40 49.9395C40.6472 49.9395 41.1719 49.4148 41.1719 48.7676V18.7073C41.1719 17.9721 41.77 17.3742 42.505 17.3742H56.7303L57.7558 20.0406H46.2623C45.6152 20.0406 45.0905 20.5653 45.0905 21.2125V29.9801C45.0905 32.0076 46.74 33.657 48.7673 33.657H63.7006L76.542 35.7971C77.1875 35.9046 77.6559 36.4578 77.6559 37.1121V37.5757H73.8178C73.1706 37.5757 72.6459 38.1004 72.6459 38.7476V42.5051C72.6459 44.5326 74.2955 46.182 76.3228 46.182H77.6563V52.5253C77.6563 52.5698 77.6202 52.6059 77.5756 52.6059Z" fill="#333333"/>
<path d="M61.2929 37.5757H46.2627C45.6155 37.5757 45.0908 38.1004 45.0908 38.7476C45.0908 39.3947 45.6155 39.9194 46.2627 39.9194H61.2929C61.94 39.9194 62.4647 39.3947 62.4647 38.7476C62.4647 38.1004 61.94 37.5757 61.2929 37.5757Z" fill="#333333"/>
<path d="M68.8077 37.5757H66.3027C65.6555 37.5757 65.1309 38.1004 65.1309 38.7476C65.1309 39.3947 65.6555 39.9194 66.3027 39.9194H68.8077C69.4549 39.9194 69.9796 39.3947 69.9796 38.7476C69.9796 38.1004 69.4549 37.5757 68.8077 37.5757Z" fill="#333333"/>
<path d="M34.9898 37.5757H6.18164C5.53445 37.5757 5.00977 38.1004 5.00977 38.7476C5.00977 39.3947 5.53445 39.9194 6.18164 39.9194H34.9896C35.6368 39.9194 36.1615 39.3947 36.1615 38.7476C36.1615 38.1004 35.637 37.5757 34.9898 37.5757Z" fill="#333333"/>
</svg>
