<svg width="30" height="31" viewBox="0 0 30 31" fill="none" xmlns="http://www.w3.org/2000/svg">
<path d="M28.7756 13.4908L23.9242 12.6822L21.5757 6.57617H15.9394C15.4206 6.57617 15 6.99676 15 7.51555V13.1548H0.439453V19.7305C0.439453 20.2494 0.860098 20.67 1.37895 20.6699L29.0909 20.667C29.3503 20.667 29.5605 20.4567 29.5605 20.1973V14.4174C29.5605 13.9582 29.2286 13.5663 28.7756 13.4908Z" fill="#F198AC"/>
<path d="M0.439453 18.3213H29.5605V20.2001C29.5605 20.4595 29.3503 20.6698 29.0909 20.6698H1.37883C0.860039 20.6698 0.439453 20.2492 0.439453 19.7304V18.3213Z" fill="#F198AC"/>
<path d="M17.3486 15.033H29.5606V14.4168C29.5606 13.9576 29.2286 13.5657 28.7756 13.4902L23.9416 12.6846H17.3486C16.8298 12.6846 16.4092 13.1052 16.4092 13.6239V14.0936C16.4091 14.6124 16.8297 15.033 17.3486 15.033Z" fill="#F198AC"/>
<path d="M27.6816 15.0333V16.4423C27.6816 16.9611 28.1022 17.3817 28.621 17.3817H29.5604V15.0332L27.6816 15.0333Z" fill="#FFFABE"/>
<path d="M18.288 12.6813H23.9244L22.2985 8.4541H17.3486V11.742C17.3486 12.2608 17.7692 12.6813 18.288 12.6813Z" fill="#00D7FF"/>
<path d="M15 13.1543H0.439453V15.0328H15V13.1543Z" fill="#F198AC"/>
<path d="M24.8637 16.4424C22.4295 16.4424 20.4286 18.2954 20.1934 20.6676L29.0911 20.6667C29.2685 20.6667 29.4175 20.5643 29.4973 20.4191C29.1512 18.168 27.2117 16.4424 24.8637 16.4424Z" fill="#CB667C"/>
<path d="M24.8639 24.424C26.6796 24.424 28.1516 22.9521 28.1516 21.1363C28.1516 19.3206 26.6796 17.8486 24.8639 17.8486C23.0481 17.8486 21.5762 19.3206 21.5762 21.1363C21.5762 22.9521 23.0481 24.424 24.8639 24.424Z" fill="#5B5D6E"/>
<path d="M24.8642 22.5419C25.6408 22.5419 26.2704 21.9123 26.2704 21.1357C26.2704 20.3591 25.6408 19.7295 24.8642 19.7295C24.0876 19.7295 23.458 20.3591 23.458 21.1357C23.458 21.9123 24.0876 22.5419 24.8642 22.5419Z" fill="#C7CFE2"/>
<path d="M11.2159 20.6686C10.9811 18.2959 8.97996 16.4424 6.54545 16.4424C4.11064 16.4424 2.10937 18.2964 1.875 20.6696L11.2159 20.6686Z" fill="#CB667C"/>
<path d="M6.54551 24.424C8.36125 24.424 9.8332 22.9521 9.8332 21.1363C9.8332 19.3206 8.36125 17.8486 6.54551 17.8486C4.72976 17.8486 3.25781 19.3206 3.25781 21.1363C3.25781 22.9521 4.72976 24.424 6.54551 24.424Z" fill="#5B5D6E"/>
<path d="M6.54584 22.5419C7.32246 22.5419 7.95203 21.9123 7.95203 21.1357C7.95203 20.3591 7.32246 19.7295 6.54584 19.7295C5.76922 19.7295 5.13965 20.3591 5.13965 21.1357C5.13965 21.9123 5.76922 22.5419 6.54584 22.5419Z" fill="#C7CFE2"/>
<path d="M21.5769 6.57812H15.9107C15.4055 6.59365 15 7.00562 15 7.51463V7.98725H22.1188L21.5769 6.57812Z" fill="#F198AC"/>
<path d="M22.2997 8.45721L22.2996 8.45697L17.3486 8.4541V9.86609H22.8416L22.2997 8.45721Z" fill="#00C3FF"/>
<path d="M7.9549 20.6962C7.71221 20.6962 7.51545 20.8929 7.51545 21.1356C7.51545 21.6703 7.08045 22.1052 6.54578 22.1052C6.01111 22.1052 5.57617 21.6703 5.57617 21.1356C5.57617 20.601 6.01111 20.166 6.54578 20.166C6.78848 20.166 6.98523 19.9693 6.98523 19.7266C6.98523 19.4839 6.78848 19.2871 6.54578 19.2871C5.52648 19.2871 4.69727 20.1163 4.69727 21.1356C4.69727 22.1549 5.52648 22.9841 6.54578 22.9841C7.56508 22.9841 8.39435 22.1549 8.39435 21.1356C8.39435 20.8929 8.1976 20.6962 7.9549 20.6962Z" fill="#333333"/>
<path d="M26.2722 20.6962C26.0295 20.6962 25.8328 20.8929 25.8328 21.1356C25.8328 21.6703 25.3978 22.1052 24.8632 22.1052C24.3285 22.1052 23.8936 21.6703 23.8936 21.1356C23.8936 20.601 24.3285 20.166 24.8632 20.166C25.1059 20.166 25.3026 19.9693 25.3026 19.7266C25.3026 19.4839 25.1059 19.2871 24.8632 19.2871C23.8439 19.2871 23.0146 20.1163 23.0146 21.1356C23.0146 22.1549 23.8439 22.9841 24.8632 22.9841C25.8825 22.9841 26.7117 22.1549 26.7117 21.1356C26.7117 20.8929 26.5149 20.6962 26.2722 20.6962Z" fill="#333333"/>
<path d="M28.8478 13.0573L24.2442 12.2901L22.2156 7.01562H22.5151C22.7578 7.01562 22.9546 6.81887 22.9546 6.57617C22.9546 6.33348 22.7578 6.13672 22.5151 6.13672H15.9394C15.1791 6.13672 14.5605 6.75529 14.5605 7.51555V12.7125H0.439453C0.196758 12.7125 0 12.9092 0 13.1519V19.7277C0 20.488 0.618574 21.1065 1.37883 21.1065H2.81895C2.81889 21.1166 2.81818 21.1266 2.81818 21.1367C2.81818 23.192 4.49027 24.864 6.54551 24.864C8.6008 24.864 10.2728 23.192 10.2728 21.1367C10.2728 21.1266 10.2721 21.1166 10.2721 21.1065H21.1371C21.137 21.1166 21.1363 21.1266 21.1363 21.1367C21.1363 23.192 22.8084 24.864 24.8636 24.864C26.9188 24.864 28.5909 23.192 28.5909 21.1367C28.5909 21.1266 28.5902 21.1166 28.5902 21.1065H29.0909C29.5922 21.1065 30 20.6987 30 20.1973V14.4174C30 13.7406 29.5154 13.1686 28.8478 13.0573ZM29.1211 16.9397H28.6212C28.3455 16.9397 28.1213 16.7154 28.1213 16.4398V15.4702H29.1211V16.9397ZM23.2843 12.2428H18.2878C18.0121 12.2428 17.7879 12.0185 17.7879 11.7429V8.89443H21.9965L23.2843 12.2428ZM6.54545 23.9852C4.97484 23.9852 3.69703 22.7074 3.69703 21.1368C3.69703 19.5662 4.97484 18.2884 6.54545 18.2884C8.11611 18.2884 9.39387 19.5662 9.39387 21.1368C9.39393 22.7074 8.11611 23.9852 6.54545 23.9852ZM24.8636 23.9852C23.2929 23.9852 22.0152 22.7074 22.0152 21.1368C22.0152 19.5662 23.293 18.2884 24.8636 18.2884C26.4342 18.2884 27.712 19.5662 27.712 21.1368C27.712 22.7074 26.4342 23.9852 24.8636 23.9852ZM29.0909 20.2276H28.4783C28.0714 18.6104 26.6053 17.4094 24.8636 17.4094C23.1219 17.4094 21.6558 18.6104 21.2489 20.2276H10.1602C9.75328 18.6104 8.28721 17.4094 6.54551 17.4094C4.80381 17.4094 3.33773 18.6104 2.9308 20.2276H1.37883C1.10314 20.2276 0.878906 20.0033 0.878906 19.7277V13.5914H14.5605V18.7882C14.5605 19.0309 14.7573 19.2277 15 19.2277C15.2427 19.2277 15.4395 19.0309 15.4395 18.7882V7.51561C15.4395 7.23992 15.6638 7.01568 15.9394 7.01568H21.2739L21.6584 8.01559H17.3484C17.1057 8.01559 16.9089 8.21234 16.9089 8.45504V11.7429C16.9089 12.5032 17.5275 13.1217 18.2878 13.1217H23.8877L28.7033 13.9243C28.9453 13.9646 29.121 14.172 29.121 14.4174V14.5913H27.6817C27.439 14.5913 27.2422 14.788 27.2422 15.0307V16.4398C27.2422 17.2001 27.8608 17.8186 28.6211 17.8186H29.1211V20.1973C29.1211 20.214 29.1076 20.2276 29.0909 20.2276Z" fill="#333333"/>
<path d="M22.9849 14.5908H17.3486C17.1059 14.5908 16.9092 14.7876 16.9092 15.0303C16.9092 15.273 17.1059 15.4697 17.3486 15.4697H22.9849C23.2276 15.4697 23.4244 15.273 23.4244 15.0303C23.4244 14.7876 23.2276 14.5908 22.9849 14.5908Z" fill="#333333"/>
<path d="M25.8027 14.5908H24.8633C24.6206 14.5908 24.4238 14.7876 24.4238 15.0303C24.4238 15.273 24.6206 15.4697 24.8633 15.4697H25.8027C26.0454 15.4697 26.2421 15.273 26.2421 15.0303C26.2421 14.7876 26.0454 14.5908 25.8027 14.5908Z" fill="#333333"/>
<path d="M13.1214 14.5908H2.31836C2.07566 14.5908 1.87891 14.7876 1.87891 15.0303C1.87891 15.273 2.07566 15.4697 2.31836 15.4697H13.1213C13.364 15.4697 13.5608 15.273 13.5608 15.0303C13.5608 14.7876 13.3641 14.5908 13.1214 14.5908Z" fill="#333333"/>
</svg>
