<svg width="30" height="31" viewBox="0 0 30 31" fill="none" xmlns="http://www.w3.org/2000/svg">
<path d="M28.6218 15.0301L27.839 12.6816H24.8643V15.0301C24.8643 15.2895 25.0746 15.4998 25.3339 15.4998H29.0915L28.6218 15.0301Z" fill="#5D5360"/>
<path d="M27.839 12.6816H24.8643V14.0907H28.3086L27.839 12.6816Z" fill="#4B3F4E"/>
<path d="M24.8686 20.6963H24.8639C24.6212 20.6963 24.4268 20.893 24.4268 21.1357C24.4268 21.3784 24.6259 21.5752 24.8686 21.5752C25.1113 21.5752 25.308 21.3784 25.308 21.1357C25.308 20.893 25.1113 20.6963 24.8686 20.6963Z" fill="#333333"/>
<path d="M29.2849 15.6943L28.6207 15.03L27.2116 10.8027H22.9844V20.6664L29.0904 20.6666C29.3498 20.6666 29.5601 20.4563 29.5601 20.1969V16.3585C29.5601 16.1094 29.4611 15.8705 29.2849 15.6943Z" fill="#DBD9DC"/>
<path d="M0.909142 7.98535H22.5152C22.7746 7.98535 22.9848 8.19565 22.9848 8.45504V19.258H0.909142C0.649747 19.258 0.439453 19.0478 0.439453 18.7884V8.45498C0.439453 8.19559 0.649747 7.98535 0.909142 7.98535Z" fill="#3A7C97"/>
<path d="M22.9848 19.2577H0.909142C0.649747 19.2577 0.439453 19.0474 0.439453 18.788V17.3789H22.9848V19.2577Z" fill="#7DA5D7"/>
<path d="M24.8627 21.1366H2.31734C2.05795 21.1366 1.84766 20.9263 1.84766 20.6669V19.2578H24.8627V21.1366Z" fill="#6F6571"/>
<path d="M24.8629 23.0149C25.9004 23.0149 26.7414 22.1738 26.7414 21.1363C26.7414 20.0989 25.9004 19.2578 24.8629 19.2578C23.8254 19.2578 22.9844 20.0989 22.9844 21.1363C22.9844 22.1738 23.8254 23.0149 24.8629 23.0149Z" fill="#4B3F4E"/>
<path d="M9.36192 23.0149C10.3994 23.0149 11.2404 22.1738 11.2404 21.1363C11.2404 20.0989 10.3994 19.2578 9.36192 19.2578C8.32444 19.2578 7.4834 20.0989 7.4834 21.1363C7.4834 22.1738 8.32444 23.0149 9.36192 23.0149Z" fill="#4B3F4E"/>
<path d="M5.60508 23.0149C6.64256 23.0149 7.4836 22.1738 7.4836 21.1363C7.4836 20.0989 6.64256 19.2578 5.60508 19.2578C4.5676 19.2578 3.72656 20.0989 3.72656 21.1363C3.72656 22.1738 4.5676 23.0149 5.60508 23.0149Z" fill="#4B3F4E"/>
<path d="M5.61074 20.6973H5.606C5.3633 20.6973 5.16895 20.894 5.16895 21.1367C5.16895 21.3794 5.36805 21.5762 5.61074 21.5762C5.85344 21.5762 6.0502 21.3794 6.0502 21.1367C6.0502 20.894 5.85344 20.6973 5.61074 20.6973Z" fill="#333333"/>
<path d="M9.36856 20.6973H9.36387C9.12117 20.6973 8.92676 20.894 8.92676 21.1367C8.92676 21.3794 9.12586 21.5762 9.36856 21.5762C9.61125 21.5762 9.80801 21.3794 9.80801 21.1367C9.80801 20.894 9.61125 20.6973 9.36856 20.6973Z" fill="#333333"/>
<path d="M29.5962 15.3831L29.0053 14.7923L27.815 11.2212C27.9926 11.1648 28.1213 10.9987 28.1213 10.8024C28.1213 10.5598 27.9245 10.363 27.6819 10.363H23.4244V8.45406C23.4244 7.95273 23.0166 7.54492 22.5152 7.54492H0.909142C0.407813 7.54498 0 7.95285 0 8.45406V18.7873C0 19.2887 0.407813 19.6965 0.909142 19.6965H1.40907V20.6658C1.40907 21.1672 1.81688 21.575 2.31821 21.575H3.33018C3.5362 22.6437 4.4781 23.4537 5.60609 23.4537C6.37847 23.4537 7.06337 23.0737 7.48484 22.4912C7.90636 23.0737 8.59127 23.4537 9.36365 23.4537C10.4916 23.4537 11.4336 22.6437 11.6396 21.575H22.5877C22.7937 22.6437 23.7356 23.4537 24.8636 23.4537C26.1419 23.4537 27.1818 22.4138 27.1818 21.1355C27.1818 21.1255 27.1812 21.1156 27.181 21.1055H29.0909C29.5922 21.1055 30 20.6977 30 20.1964V16.358C30.0001 15.9898 29.8566 15.6435 29.5962 15.3831ZM3.33018 20.6961H2.31821C2.30151 20.6961 2.28797 20.6826 2.28797 20.6659V19.6965H3.79061C3.56327 19.9828 3.40196 20.3236 3.33018 20.6961ZM5.60609 22.575C4.81243 22.575 4.16679 21.9293 4.16679 21.1357C4.16679 20.3451 4.80763 19.7015 5.59712 19.6966H5.61517C6.40466 19.7014 7.0455 20.345 7.0455 21.1357C7.04544 21.9292 6.39974 22.575 5.60609 22.575ZM9.36371 22.575C8.57006 22.575 7.92435 21.9293 7.92435 21.1357C7.92435 20.3451 8.56519 19.7015 9.35469 19.6966H9.37273C10.1622 19.7014 10.8031 20.345 10.8031 21.1357C10.803 21.9292 10.1574 22.575 9.36371 22.575ZM22.5878 20.6961H11.6396C11.5678 20.3236 11.4065 19.9828 11.1791 19.6965H19.697C19.9397 19.6965 20.1364 19.4997 20.1364 19.257C20.1364 19.0143 19.9397 18.8176 19.697 18.8176H0.909142C0.892443 18.8176 0.878908 18.804 0.878908 18.7873V8.45406C0.878908 8.43736 0.892443 8.42383 0.909142 8.42383H22.5152C22.5319 8.42383 22.5454 8.43736 22.5454 8.45406V18.8176H21.576C21.3333 18.8176 21.1365 19.0144 21.1365 19.2571C21.1365 19.4998 21.3333 19.6965 21.576 19.6965H23.0482C22.8208 19.9828 22.6595 20.3236 22.5878 20.6961ZM28.1681 15.0599H25.3334C25.3167 15.0599 25.3031 15.0463 25.3031 15.0296V13.1206H27.5217L28.1681 15.0599ZM24.8637 22.575C24.07 22.575 23.4244 21.9293 23.4244 21.1357C23.4244 20.3451 24.0652 19.7015 24.8547 19.6966H24.8637C24.8647 19.6966 24.8657 19.6965 24.8668 19.6964C25.659 19.698 26.3031 20.3431 26.3031 21.1356C26.303 21.9292 25.6573 22.575 24.8637 22.575ZM29.1212 17.4086H28.6212C28.3785 17.4086 28.1818 17.6053 28.1818 17.848C28.1818 18.0907 28.3785 18.2875 28.6212 18.2875H29.1212V20.1965C29.1212 20.2132 29.1076 20.2267 29.0909 20.2267H26.9961C26.6419 19.399 25.8195 18.8174 24.8637 18.8174C24.8606 18.8174 24.8577 18.8177 24.8546 18.8177H23.4244V11.2723V11.272C23.4244 11.2553 23.4379 11.2418 23.4546 11.2418H26.8954L27.2287 12.2416H24.8637C24.621 12.2416 24.4242 12.4384 24.4242 12.6811V15.0296C24.4242 15.5309 24.832 15.9387 25.3334 15.9387H28.9089L28.9747 16.0046C29.0691 16.099 29.1212 16.2245 29.1212 16.3581V17.4086Z" fill="#333333"/>
<path d="M2.31738 17.8184H21.1052C21.3479 17.8184 21.5447 17.6216 21.5447 17.3789C21.5447 17.1362 21.3479 16.9395 21.1052 16.9395H2.31738C2.07469 16.9395 1.87793 17.1362 1.87793 17.3789C1.87793 17.6216 2.07469 17.8184 2.31738 17.8184Z" fill="#333333"/>
</svg>
