<svg width="80" height="81" viewBox="0 0 80 81" fill="none" xmlns="http://www.w3.org/2000/svg">
<g clip-path="url(#clip0_15_3615)">
<path d="M60.182 42.0603C60.4414 41.7875 60.7215 41.5269 61.0157 41.2766L62.5031 46.149C60.4096 47.4704 59.0174 49.8032 59.0174 52.4619C59.0174 56.5829 62.3585 59.9234 66.479 59.9234C70.6 59.9234 73.9405 56.5829 73.9405 52.4619C73.9405 48.8236 71.1799 45.64 67.7338 44.9802L74.2304 42.7598C76.9721 45.0333 78.8752 48.6216 78.8752 52.4619C78.8752 59.3082 73.3252 64.8581 66.479 64.8581C60.9175 64.8581 55.8992 61.0397 54.3281 55.9952C54.6821 51.5109 57.0814 45.3153 60.182 42.0603Z" fill="#576574"/>
<path d="M62.8059 62.6724C59.0144 60.1364 57.386 55.3555 58.7422 51.0007C59.4911 48.5953 60.5915 46.1625 61.9038 44.1861L61.0157 41.2766C60.7215 41.5269 60.4414 41.7875 60.1814 42.0603C57.0814 45.3153 54.6821 51.5109 54.3281 55.9952C55.8986 61.0397 60.9175 64.8581 66.479 64.8581C67.0576 64.8581 67.6258 64.8153 68.1837 64.739C66.2379 64.4674 64.4001 63.7387 62.8059 62.6724Z" fill="#3E4B5A"/>
<path d="M65.9784 38.5679C66.203 38.5569 66.4288 38.5496 66.6565 38.5496C69.8193 38.5496 72.8344 39.73 75.1617 41.5207C75.5969 41.8552 75.484 42.5412 74.9639 42.7189L66.698 45.5442L64.5605 39.1855L65.9784 38.5679Z" fill="#FECA57"/>
<path d="M69.3927 38.8431C68.5022 38.6539 67.5867 38.549 66.6571 38.549C66.4294 38.549 66.2036 38.5569 65.979 38.5679L64.5605 39.1855L66.6986 45.5442L71.1358 44.0274L69.3927 38.8431Z" fill="#F4B537"/>
<path d="M17.243 30.0896L22.2277 34.1875C23.3471 35.1073 24.8205 35.4753 26.2408 35.1897L28.9245 39.1508L24.2187 39.4481C22.7612 39.5396 21.3232 39.0739 20.1965 38.1444L12.4121 31.7229L17.243 30.0896Z" fill="#576574"/>
<path d="M25.2282 38.1444L18.4741 32.5731C18.0243 32.202 18.1567 31.4818 18.7091 31.295L17.243 30.0896L12.4121 31.7229L20.1965 38.1444C21.3232 39.0739 22.7612 39.5396 24.2187 39.4481L27.3522 39.2497C26.5814 39.0361 25.8563 38.6626 25.2282 38.1444Z" fill="#3E4B5A"/>
<path d="M53.1958 28.8878C51.4893 29.5628 45.171 33.0681 41.6834 34.846C40.16 35.6224 38.9368 36.8791 38.2014 38.4227L37.4226 40.0572L28.4199 29.6226C34.878 20.8257 39.2933 23.0058 45.1508 24.3334C49.3262 25.2794 54.0845 28.5466 54.0845 28.5466C53.7903 28.5576 53.4931 28.7706 53.1958 28.8878Z" fill="#FECA57"/>
<path d="M37.1461 27.7098C39.0229 25.5406 40.7362 24.3059 42.3835 23.6669C37.7985 22.5865 33.8246 22.2612 28.4199 29.6226L37.4226 40.0578L38.2014 38.4227C38.7653 37.2392 39.6168 36.2254 40.6696 35.4661L37.1473 31.3841C36.2373 30.3288 36.2342 28.7633 37.1461 27.7098Z" fill="#F4B537"/>
<path d="M13.6169 40.0657C17.9345 40.0657 21.7352 42.2739 23.955 45.6217L19.428 47.7829C18.0602 46.0868 15.9661 45.0003 13.6175 45.0003C9.49643 45.0003 6.15599 48.3408 6.15599 52.4619C6.15599 56.5829 9.49643 59.9234 13.6175 59.9234C17.4365 59.9234 20.5834 57.0535 21.0241 53.3536L25.9966 53.1119C25.6585 59.656 20.2453 64.8581 13.6169 64.8581C6.77061 64.8581 1.2207 59.3082 1.2207 52.4619C1.2207 45.6156 6.77061 40.0657 13.6169 40.0657Z" fill="#576574"/>
<path d="M5.51756 52.4619C5.51756 46.3468 9.94687 41.2693 15.772 40.2537C15.072 40.131 14.3524 40.0657 13.6169 40.0657C6.77061 40.0657 1.2207 45.6156 1.2207 52.4619C1.2207 59.3082 6.77061 64.8581 13.6169 64.8581C14.3505 64.8581 15.0677 64.7909 15.7659 64.6688C9.94442 63.6514 5.51756 58.5751 5.51756 52.4619Z" fill="#3E4B5A"/>
<path d="M3.74729 22.2734H6.30282C7.42037 22.2734 8.49642 22.6964 9.31489 23.4575L12.4124 26.3378L17.4435 30.4741L12.6932 31.9798C11.0428 32.3875 9.02315 31.6844 7.94039 30.3734L2.84031 24.1997C2.20616 23.4319 2.75181 22.2734 3.74729 22.2734Z" fill="#FF6B6B"/>
<path d="M12.8817 30.3734L7.78158 24.1997C7.34824 23.6754 7.46664 22.968 7.90243 22.5731C7.39645 22.3766 6.85446 22.2734 6.30271 22.2734H3.74718C2.75231 22.2734 2.20604 23.4319 2.8402 24.1997L7.93966 30.3734C9.02303 31.6838 11.0427 32.3875 12.6931 31.9792L14.2665 31.4806C13.7313 31.1949 13.2509 30.8208 12.8817 30.3734Z" fill="#EE5253"/>
<path d="M33.81 51.8253C33.3888 50.9574 33.1752 50.0247 33.1752 49.0543C33.1752 48.0594 33.3998 47.1048 33.8429 46.218L33.8838 46.1362L31.1818 42.1488L12.4697 50.9317L12.4685 50.9323C10.9621 51.6513 11.5047 53.9694 13.2143 53.8889L28.279 53.1729L28.1661 52.9563C28.066 52.764 28.0739 52.5363 28.1886 52.3477C28.3034 52.1585 28.4969 52.0499 28.7196 52.0499H33.9186L33.81 51.8253Z" fill="#E4EAF8"/>
<path d="M20.4305 50.9323L20.4311 50.9317L33.1032 44.9839L31.1824 42.1482L12.4697 50.9317L12.4685 50.9323C10.9621 51.6513 11.5047 53.9694 13.2143 53.8889L20.1247 53.5605C19.3233 52.908 19.3013 51.4713 20.4305 50.9323Z" fill="#C7D2E5"/>
<path d="M32.1605 33.7645L37.4217 39.5891L35.4387 43.7517C34.575 44.3687 33.8683 45.1909 33.3904 46.1479L26.0137 35.2599L32.1605 33.7645Z" fill="#C7D2E5"/>
<path d="M32.415 37.946C31.7174 36.917 32.2612 35.5077 33.4697 35.2141L32.1605 33.7651L26.0137 35.2599L33.3904 46.1485C33.8683 45.1915 34.575 44.3687 35.4387 43.7517L35.814 42.9637L32.415 37.946Z" fill="#AABCD6"/>
<path d="M58.1481 30.7365C57.9809 30.8049 57.8136 30.8757 57.6458 30.9453L56.3555 27.0598L52.9424 24.8222C51.9659 24.1826 51.7022 22.8862 52.3535 21.9268C53.0053 20.9679 54.3249 20.7091 55.3008 21.3488L59.3273 23.9879C59.7246 24.2479 60.0207 24.6318 60.1684 25.0774L61.3488 28.632C60.606 29.4286 59.5696 30.1512 58.1481 30.7365Z" fill="#576574"/>
<path d="M64.5443 38.8676L68.7417 51.7368C69.1091 52.8641 68.4933 54.0762 67.3659 54.4437C67.145 54.5163 66.9204 54.5505 66.7 54.5505C65.7955 54.5505 64.9544 53.9743 64.659 53.0685L60.7949 41.2198C61.8777 40.2982 63.168 39.5206 64.5443 38.8676Z" fill="#576574"/>
<path d="M59.5592 27.0598L56.1456 24.8223C55.169 24.1826 54.9053 22.8862 55.5572 21.9268C55.6231 21.8297 55.6969 21.7418 55.7757 21.6594L55.3008 21.3488C54.3249 20.7085 53.0053 20.9679 52.3535 21.9268C51.7022 22.8862 51.9659 24.1826 52.9424 24.8223L56.3555 27.0598L57.6458 30.9453C57.8136 30.8751 57.9809 30.8049 58.1481 30.7359C59.0301 30.3734 59.7631 29.9571 60.3704 29.5037L59.5592 27.0598Z" fill="#3E4B5A"/>
<path d="M67.8622 53.0685L64.385 42.4064C64.1457 41.6733 64.4064 40.864 65.0381 40.4227L65.0491 40.4154L64.5443 38.8676C63.168 39.5212 61.8777 40.2982 60.7949 41.2204L64.659 53.0685C64.9545 53.9749 65.7955 54.5505 66.7 54.5505C66.9204 54.5505 67.145 54.5163 67.3659 54.4443C67.7407 54.3222 68.0562 54.1055 68.301 53.8315C68.1093 53.616 67.9574 53.3597 67.8622 53.0685Z" fill="#3E4B5A"/>
<path d="M41.3568 43.0034C40.7324 42.8044 40.0677 42.6957 39.3774 42.6957C37.9669 42.6957 36.5057 42.9893 35.4395 43.751L38.2013 37.9539C38.9368 36.4104 40.1599 35.1537 41.6827 34.3773C45.1709 32.5993 51.4892 29.4066 53.1957 28.7316C55.5901 27.7849 58.1957 30.8922 58.1957 30.8922C53.8915 32.6958 49.2785 35.0804 46.0034 36.7979C43.5034 38.1096 41.9208 40.3038 41.3568 43.0034Z" fill="#E4EAF8"/>
<path d="M40.1843 39.4908C40.9198 37.9478 42.1429 36.6905 43.6664 35.9141C47.1539 34.1362 53.4722 30.9434 55.1788 30.269C56.1181 29.8979 57.0885 30.1506 57.9229 30.5943C57.1941 29.8411 55.1263 27.9686 53.1957 28.7321C51.4892 29.4066 45.1709 32.5993 41.6827 34.3773C40.1599 35.1536 38.9368 36.4103 38.2013 37.9539L35.4395 43.7516C36.3214 43.1211 37.4737 42.8123 38.6444 42.7238L40.1843 39.4908Z" fill="#C7D2E5"/>
<path d="M41.5254 45.3263C41.3026 45.2286 41.1591 45.0065 41.1591 44.7605C41.1591 44.1288 41.2245 43.4958 41.3532 42.8788L41.3825 42.7408L41.2476 42.6981C40.5927 42.4894 39.911 42.3832 39.2213 42.3832C35.5427 42.3832 32.5508 45.3757 32.5508 49.0537C32.5508 50.0724 32.7748 51.0507 33.2167 51.9614L33.2594 52.0493H35.6092C35.8009 52.0493 35.9816 52.139 36.1036 52.2952C36.9715 53.4104 38.2997 54.0537 39.7029 54.0537C39.8042 54.0537 39.9055 54.05 40.0074 54.0433C42.2266 53.8962 44.0443 52.1158 44.2347 49.9021C44.4025 47.9502 43.3137 46.1112 41.5254 45.3263Z" fill="#576574"/>
<path d="M41.0987 52.2959C40.9767 52.1396 40.796 52.0499 40.6043 52.0499H39.6681C38.2038 52.0499 37.7784 50.7889 37.6771 50.3672C37.5917 49.9387 37.5459 49.5005 37.5459 49.0537C37.5459 46.4115 39.0901 44.1233 41.3233 43.0442C41.3337 42.9893 41.3416 42.9337 41.3532 42.8788L41.3825 42.7408L41.2483 42.6981C40.5927 42.4894 39.911 42.3838 39.2213 42.3838C35.5433 42.3838 32.5508 45.3757 32.5508 49.0537C32.5508 50.0724 32.7748 51.0507 33.2167 51.9614L33.2594 52.0493H35.6092C35.8015 52.0493 35.9816 52.139 36.1036 52.2959C36.9715 53.4104 38.2997 54.0537 39.7029 54.0537C39.8042 54.0537 39.9055 54.0506 40.0074 54.0439C40.8076 53.9908 41.554 53.7247 42.1925 53.3035C41.7805 53.0332 41.4094 52.6956 41.0987 52.2959Z" fill="#3E4B5A"/>
<path d="M43.4973 47.2874H43.4967C43.9368 48.0411 44.1608 48.9365 44.0784 49.8893C43.8946 52.0279 42.1387 53.7455 39.9963 53.8877C38.4644 53.9896 37.0874 53.3054 36.2262 52.2001C36.0773 52.009 35.8515 51.8937 35.6085 51.8937H28.407C27.7778 51.8937 27.4085 52.6011 27.768 53.1174L32.8083 60.3568C32.9541 60.5661 33.1928 60.6906 33.4473 60.6906H53.2769C53.6718 60.6906 54.0032 60.3958 54.0496 60.004C54.2242 58.5294 54.7302 54.8899 55.8233 51.1283L43.4973 47.2874Z" fill="#FF6B6B"/>
<path d="M38.3526 60.6906C38.0974 60.6906 37.8588 60.5655 37.7135 60.3568L32.6733 53.1168C32.3138 52.6011 32.683 51.8937 33.3117 51.8931H28.4069C27.7783 51.8931 27.4084 52.6005 27.7679 53.1168L32.8082 60.3568C32.954 60.5655 33.1927 60.6906 33.4472 60.6906H53.2768H38.3526Z" fill="#EE5253"/>
<path d="M42.1387 53.1522C44.7595 54.9466 48.6865 53.3414 48.9837 49.8893C49.01 49.5847 49.0014 49.285 48.9666 48.9914L43.4973 47.2874C43.9368 48.0411 44.1608 48.9365 44.079 49.8893C43.9624 51.2436 43.2147 52.4283 42.1387 53.1522Z" fill="#EE5253"/>
<path d="M75.3965 32.5615C75.5692 32.5615 75.7389 32.5682 75.9068 32.5779L74.8679 29.3767C74.5615 28.4325 74.1569 27.5255 73.6656 26.6692L70.3062 26.3402C69.271 26.2389 68.3354 25.6822 67.7525 24.8216L63.1181 17.9766L62.4382 18.394C61.8626 18.7474 61.6276 19.4701 61.8937 20.0908C62.8941 22.4199 64.4767 28.0394 58.0388 30.7365C54.0349 32.4138 49.901 34.4584 46.707 36.118C48.6632 36.1473 50.8092 36.5843 52.9381 37.4711C55.9746 38.7358 58.3885 40.6675 59.8332 42.7604C59.9473 42.6267 60.0639 42.4973 60.1823 42.3728C63.549 38.8377 70.0071 37.2258 73.8828 36.5477C72.2654 36.2535 71.1143 35.5027 71.1143 34.6214C71.1143 33.4837 73.0314 32.5615 75.3965 32.5615Z" fill="#FECA57"/>
<path d="M50.9081 36.486C51.1363 36.3664 51.3732 36.2425 51.613 36.118C51.613 36.118 51.613 36.118 51.6124 36.118C51.6716 36.0868 51.8327 36.0038 51.9194 35.9587H51.92C55.0694 34.3284 59.0666 32.3607 62.9442 30.7359C66.4341 29.2741 67.5663 26.9536 67.7128 24.7636L63.1181 17.9766L62.4382 18.394C61.8626 18.7474 61.6276 19.4701 61.8937 20.0908C62.8941 22.4199 64.4767 28.0394 58.0388 30.7365C54.0349 32.4138 49.901 34.4584 46.707 36.118C47.9387 36.1369 49.2461 36.3169 50.5766 36.6691C50.6859 36.6063 50.7958 36.5446 50.9081 36.486Z" fill="#F4B537"/>
<path d="M70.1504 26.4965C69.1152 26.3952 68.1795 25.8385 67.5967 24.9779L62.9336 18.0901L64.3075 17.2466C64.8763 16.8975 65.6142 17.0098 66.0531 17.5134L72.0369 24.3786C72.7016 25.1403 73.2796 25.9704 73.7673 26.8505L70.1504 26.4965Z" fill="#8AC2FF"/>
<path d="M71.7971 25.0511C70.7625 24.9498 69.8263 24.3932 69.2434 23.5326L64.858 17.0549C64.6676 17.0781 64.4796 17.141 64.3075 17.2466L62.9336 18.0907L67.5973 24.9779C68.1802 25.8391 69.1158 26.3957 70.151 26.4964L73.7679 26.8504C73.4365 26.2529 73.0599 25.6804 72.6467 25.1341L71.7971 25.0511Z" fill="#54A0FF"/>
<path d="M47.6706 50.2635C46.2375 49.6666 44.9509 48.9122 43.8511 48.0601C43.4495 46.8999 42.5779 45.9593 41.4615 45.4698C41.1808 45.3465 41.002 45.067 41.002 44.7606C41.002 41.2871 42.9264 38.0992 46.0025 36.4861C46.3279 36.3152 46.6672 36.1388 47.0145 35.9587C48.9139 35.9594 51.0135 36.3726 53.0948 37.2393C56.1783 38.524 58.5837 40.5364 59.9008 42.683C57.9898 44.8625 56.6586 48.1816 55.7504 51.3804C53.3963 51.7888 50.5161 51.4488 47.6706 50.2635Z" fill="#EE5253"/>
<path d="M41.4622 45.4697C42.5785 45.9592 43.4501 46.8997 43.8517 48.06C44.9515 48.9121 46.2381 49.6665 47.6712 50.2634C48.0594 50.4251 48.4488 50.5698 48.837 50.7004C48.9072 50.4422 48.9591 50.173 48.9835 49.8892C49.1483 47.9764 48.0619 46.2131 46.3669 45.4697C46.0868 45.3464 45.9073 45.0669 45.9073 44.7605C45.9073 41.2906 47.8281 38.1064 50.8982 36.4915C49.559 36.1338 48.245 35.9592 47.0151 35.9592C46.6678 36.1387 46.3279 36.3151 46.0032 36.486C42.927 38.0991 41.002 41.287 41.002 44.7605C41.0026 45.0669 41.1814 45.3464 41.4622 45.4697Z" fill="#D83941"/>
<path d="M12.4493 26.2932C13.573 24.9797 15.5127 24.7648 16.9391 25.7408C21.4026 28.7956 28.4191 29.6226 28.4191 29.6226L32.3577 33.983L26.0137 35.2598C24.6167 35.5406 23.1671 35.1786 22.0666 34.2741L12.4121 26.3377C12.4243 26.3225 12.4371 26.3078 12.4493 26.2932Z" fill="#3E4B5A"/>
<path d="M29.84 34.2742L22.6202 28.3385C20.7086 27.744 18.6389 26.9042 16.9391 25.7409C15.5127 24.7643 13.573 24.9792 12.45 26.2932C12.4371 26.3079 12.4249 26.3225 12.4121 26.3378L22.0666 34.2742C23.1677 35.1787 24.6167 35.5406 26.0137 35.2599L30.0622 34.4451C29.9865 34.3901 29.9127 34.3334 29.84 34.2742Z" fill="#374451"/>
<path d="M71.0078 34.6092C71.0078 33.4563 72.8712 32.5219 75.1692 32.5219C75.4182 32.5219 75.6617 32.5334 75.8991 32.5548L76.5187 34.464C76.7915 35.305 76.2409 36.1876 75.3657 36.3127C74.9006 36.3786 74.3537 36.4647 73.7489 36.5721C72.1498 36.281 71.0078 35.512 71.0078 34.6092Z" fill="#576574"/>
<path d="M74.1847 34.6092C74.1847 33.8921 74.9067 33.2592 76.0053 32.8838L75.8991 32.5548C75.6617 32.5334 75.4182 32.5219 75.1692 32.5219C72.8712 32.5219 71.0078 33.4563 71.0078 34.6092C71.0078 35.512 72.1504 36.281 73.7489 36.5721C74.3537 36.4647 74.9006 36.3786 75.3657 36.3127C75.4847 36.2956 75.5976 36.2633 75.7038 36.22C74.7773 35.8367 74.1847 35.258 74.1847 34.6092Z" fill="#3E4B5A"/>
<path d="M75.828 40.4807C74.4748 39.4388 72.9831 38.6515 71.4023 38.1302C72.7701 37.8086 74.1831 37.5467 75.4825 37.3612C77.0749 37.1341 78.0826 35.5265 77.5851 33.9915C75.8811 28.7418 75.4147 26.4158 72.8708 23.4971L66.8869 16.6325C66.0697 15.6944 64.7056 15.4863 63.6448 16.1369L61.7765 17.2844C60.7096 17.9393 60.2763 19.2967 60.7688 20.4423C61.2553 21.5751 61.9352 23.6631 61.4225 25.6242L61.0892 24.6025C60.8634 23.9097 60.405 23.3061 59.7996 22.902L55.8439 20.2629C54.3492 19.2656 52.321 19.6702 51.323 21.1656C50.3233 22.664 50.7267 24.6867 52.2257 25.6864L54.636 27.2941C54.5579 27.2849 54.4798 27.2764 54.401 27.2709C49.1069 23.7925 45.8067 23.2005 43.7456 22.6927C38.7126 21.4531 33.9531 20.2824 27.8502 28.253C26.0503 27.9673 20.9515 26.9895 17.5518 24.6629C15.9466 23.5643 13.8922 23.599 12.3773 24.6403L10.0634 22.4882C8.16342 20.7212 6.30857 20.9904 3.69811 20.9904C1.71081 20.9904 0.623167 23.3049 1.8872 24.835L6.98728 31.0087C8.19516 32.4711 10.1086 33.2426 12.0373 32.9893L19.2742 38.9591C20.639 40.0852 22.3424 40.615 24.0496 40.5063L28.0095 40.2561L29.0319 41.7649L24.284 44.0317C21.7193 40.7279 17.7856 38.7827 13.5687 38.7827C6.08701 38.7821 0 44.8691 0 52.3508C0 59.8324 6.08701 65.9188 13.5687 65.9188C20.4351 65.9188 26.1474 60.8169 27.0183 54.122L27.0659 54.1196L31.7974 60.9152C32.1617 61.4389 32.7605 61.7514 33.3977 61.7514H41.3115C41.9591 61.7514 42.4834 61.2265 42.4834 60.5795C42.4834 59.9319 41.9591 59.4076 41.3115 59.4076H33.6034L29.1106 52.9544H35.3697C38.4465 56.6452 44.4249 54.9325 45.1512 50.2457C47.8166 51.7557 51.0356 52.6962 54.1368 52.5986C53.6003 54.7726 53.1584 57.1853 52.8794 59.4076H46.7808C46.1339 59.4076 45.609 59.9325 45.609 60.5795C45.609 61.2265 46.1332 61.7514 46.7808 61.7514H53.2279C54.2161 61.7514 55.0486 61.0116 55.1646 60.0302C55.1689 59.9942 55.1743 59.9569 55.1786 59.9209C56.0301 61.1837 57.0902 62.3092 58.314 63.2241C67.2086 69.8745 80.0003 63.5134 80.0003 52.3508C80.0003 48.8309 78.6472 45.4947 76.2448 42.9819C76.7893 42.1567 76.5945 41.0703 75.828 40.4807ZM37.7623 41.3852L39.2101 38.3469C39.8308 37.0438 40.8806 35.9653 42.166 35.3098C43.123 34.8221 53.1144 29.6983 53.9842 29.614C54.6391 29.5512 55.3135 29.8899 55.8524 30.2677C54.3675 30.9153 45.5815 34.9369 43.6735 36.4786C42.086 37.7616 40.9331 39.4596 40.3123 41.3413C39.4621 41.2137 38.5667 41.2369 37.7623 41.3852ZM27.9229 35.9495C29.5708 35.618 29.0075 35.7316 31.8865 35.1523L35.9776 39.6817C35.4656 40.7572 34.9608 41.8161 34.4567 42.8751C34.0508 43.1906 33.6321 43.599 33.3379 43.942C31.8285 41.7142 29.6654 38.5209 27.9229 35.9495ZM58.4428 31.7063C63.306 29.669 64.9003 25.6394 63.4153 20.8537L66.5775 25.5235C67.3581 26.677 68.6008 27.4162 69.9869 27.5517L72.9776 27.8446C73.5007 28.9018 73.6728 29.531 74.2404 31.2797C71.6489 31.5214 69.7873 32.8245 69.7873 34.4981C69.7873 35.0388 69.9729 35.5375 70.3128 35.9763C66.7502 36.8589 62.7329 38.3353 60.0022 40.7639C58.0131 38.2926 54.7263 36.1429 50.8854 35.1798C53.2804 33.9988 56.0294 32.7116 58.4428 31.7063ZM65.12 18.1724C71.9681 26.0282 71.0123 24.9235 71.3468 25.33C70.2115 25.2189 69.2337 25.2665 68.5178 24.2094L64.5414 18.3372L64.8716 18.1346C64.9515 18.0851 65.0565 18.0992 65.12 18.1724ZM75.1517 35.0413C74.7073 35.1041 74.2233 35.1798 73.7113 35.2677C72.6871 35.0455 72.222 34.6537 72.1384 34.4974C72.2745 34.2301 73.2688 33.6143 74.9881 33.5837L75.3555 34.7147C75.4044 34.8643 75.3073 35.0187 75.1517 35.0413ZM63.5697 45.6742C63.1766 44.4693 63.4299 45.2463 62.3344 41.8875C62.8141 41.5317 63.3457 41.1893 63.9274 40.8628C64.7025 43.2389 66.9187 50.0345 67.5815 52.067C67.7378 52.5473 67.4765 53.0643 66.9944 53.2217C66.5067 53.3804 65.9952 53.1125 65.8396 52.6346L63.5697 45.6742ZM67.396 43.9395L66.0587 39.8386L66.3004 39.7336C68.7955 39.6433 71.3803 40.3025 73.6484 41.8021L67.396 43.9395ZM57.3435 26.5849C57.2623 26.3346 57.0988 26.1198 56.8797 25.9739L53.5264 23.7364C53.1047 23.455 52.9923 22.8868 53.2725 22.4662C53.5533 22.0457 54.1233 21.9322 54.5432 22.2123L58.4983 24.8515C58.6686 24.965 58.7974 25.1347 58.8609 25.3294L59.7935 28.1883C59.3272 28.5935 58.8071 28.928 58.2523 29.2118C58.2279 29.188 58.2035 29.1654 58.1773 29.141L57.3435 26.5849ZM43.1846 24.9681C45.2061 25.4661 47.155 25.7322 51.3346 28.1407C48.6509 29.3894 43.7419 31.876 41.1015 33.2218C39.3584 34.1105 37.935 35.5723 37.094 37.3386L37.0683 37.3923L29.8894 29.445C34.9535 22.9405 38.4331 23.798 43.1846 24.9681ZM16.228 26.5971C20.2673 29.3614 26.1266 30.3745 27.7886 30.6156C28.5912 31.5043 28.0443 30.8988 30.0585 33.129L25.7335 33.9994C24.6764 34.2118 23.5943 33.9414 22.7618 33.2572L14.2864 26.2907C14.9175 26.0966 15.6341 26.19 16.228 26.5971ZM8.79452 29.5158L3.69139 23.3451C3.69139 23.3415 3.69444 23.3348 3.69078 23.3342H3.69872C6.2927 23.3342 7.31931 23.1364 8.46737 24.2039C12.5 27.9545 10.6756 26.356 14.7405 29.6977C13.0316 30.275 13.5162 30.1115 12.0379 30.6113C10.8447 30.8891 9.57577 30.4618 8.79452 29.5158ZM20.7659 37.1506L14.7332 32.1745C15.5407 31.9016 15.0518 32.0664 16.8731 31.4512L21.2737 35.0681C22.4114 36.0032 23.8793 36.4982 25.3991 36.403C26.1669 37.5358 25.9319 37.1897 26.4837 38.0039C23.9464 38.1644 22.4206 38.516 20.7659 37.1506ZM11.9824 49.9045C11.0937 50.3287 10.5188 51.2393 10.5188 52.2244C10.5188 53.6868 11.7449 54.8636 13.2147 54.7922L19.4842 54.4882C18.6041 56.9308 16.2658 58.6404 13.5687 58.6404C10.1007 58.6404 7.27902 55.8188 7.27902 52.3508C7.27902 47.1799 13.2324 44.2008 17.362 47.3361L11.9824 49.9045ZM24.6355 54.238C23.7371 59.5675 19.1045 63.5751 13.5687 63.5751C7.37912 63.5751 2.34374 58.5403 2.34374 52.3508C2.34374 46.1612 7.37912 41.1264 13.5687 41.1264C16.8835 41.1264 19.9877 42.5791 22.1093 45.0699L19.6636 46.2375C14.2803 40.8579 4.93467 44.6488 4.93467 52.3508C4.93467 57.1115 8.80795 60.9842 13.5687 60.9842C17.5994 60.9842 21.0473 58.2022 21.9634 54.368C23.0443 54.3149 22.4651 54.3429 24.6355 54.238ZM28.358 50.61C27.556 50.61 26.8609 51.0965 26.5624 51.7978L13.1011 52.4515C12.9718 52.4594 12.8631 52.3544 12.8631 52.2244C12.8631 52.1378 12.9138 52.0572 12.9919 52.02C13.3966 51.8271 29.8235 43.9841 30.3612 43.7278C31.2157 44.9887 30.996 44.6646 32.0073 46.1569C31.4458 47.5907 31.3494 49.18 31.6661 50.61H28.358ZM34.0959 50.61C32.8893 46.9534 35.8824 43.1571 39.8296 43.6447C39.8009 43.9402 39.7807 44.335 39.7807 44.6488C39.7807 45.4135 40.2287 46.1118 40.9288 46.4249C40.9331 46.4273 40.9373 46.4298 40.9422 46.4316C42.2954 47.0255 43.0882 48.4958 42.8233 49.9674C42.3637 52.5101 39.0648 53.6984 37.0506 51.3101C36.6759 50.8658 36.1382 50.61 35.5596 50.61H34.0959ZM44.7752 47.2153C44.2442 45.9635 43.2512 44.946 42.1287 44.3997C42.1806 42.7048 42.7617 41.0538 43.7791 39.7129C44.9742 38.1345 46.2712 37.529 47.2453 37.0231C51.406 37.1195 56.0404 39.3509 58.3939 42.5083C56.7387 44.6982 55.5869 47.5845 54.791 50.2109C51.3713 50.5527 47.5041 49.2331 44.7752 47.2153ZM66.431 63.5751C61.5836 63.5751 57.3472 60.5282 55.8006 55.9634C56.5495 52.0578 57.9826 46.7685 60.4539 43.6795L61.074 45.5814C54.6964 50.6143 58.2566 60.9842 66.431 60.9842C69.7965 60.9842 72.8775 59.006 74.2813 55.9445C74.5511 55.3561 74.2923 54.6603 73.7045 54.3906C73.1162 54.1208 72.4204 54.379 72.1506 54.9673C71.1277 57.1988 68.8828 58.6404 66.431 58.6404C62.963 58.6404 60.142 55.8188 60.142 52.3508C60.142 50.7108 60.7694 49.1751 61.8699 48.0209L63.6112 53.3615C64.1727 55.0821 66.0129 56.0068 67.7213 55.4501C69.4345 54.891 70.3684 53.0527 69.8099 51.34L68.1693 46.3101C70.145 46.8772 71.738 48.3847 72.3978 50.358C72.6029 50.972 73.2669 51.3034 73.8803 51.0983C74.4943 50.8926 74.8258 50.2292 74.6207 49.6152C73.9957 47.7445 72.7597 46.1771 71.1612 45.1291L74.0762 44.133C81.4786 51.0172 76.6397 63.5751 66.431 63.5751Z" fill="black"/>
</g>
<defs>
<clipPath id="clip0_15_3615">
<rect width="80" height="80" fill="white" transform="translate(0 0.759766)"/>
</clipPath>
</defs>
</svg>
