<svg width="80" height="33" viewBox="0 0 80 33" fill="none" xmlns="http://www.w3.org/2000/svg">
<path d="M77.4981 16.7598C77.4981 16.7598 71.159 12.6582 61.7418 8.93635C60.6965 9.54573 54.559 13.0098 49.9981 13.0098C44.009 13.0098 29.1184 8.08635 27.884 7.67541L30.5371 3.08167C21.1855 3.50667 14.884 5.75823 2.49805 8.00979L4.99805 14.2598L2.49805 20.5098L4.99805 28.0098H77.4981L76.2481 21.7598L77.4981 16.7598Z" fill="#EEBA17"/>
<path d="M61.248 30.5098C64.6998 30.5098 67.4981 27.7115 67.4981 24.2598C67.4981 20.808 64.6998 18.0098 61.248 18.0098C57.7963 18.0098 54.998 20.808 54.998 24.2598C54.998 27.7115 57.7963 30.5098 61.248 30.5098Z" fill="#D2D2D2"/>
<path d="M61.7426 8.93633C53.916 5.84258 43.9613 3.00977 33.7488 3.00977C32.6332 3.00977 31.5676 3.03477 30.5379 3.08164L27.8848 7.67539C29.1176 8.08633 44.0098 13.0098 49.9988 13.0098C54.5582 13.0098 60.6973 9.5457 61.7426 8.93633Z" fill="#7D7D7D"/>
<path d="M17.498 30.5098C20.9498 30.5098 23.748 27.7115 23.748 24.2598C23.748 20.808 20.9498 18.0098 17.498 18.0098C14.0463 18.0098 11.248 20.808 11.248 24.2598C11.248 27.7115 14.0463 30.5098 17.498 30.5098Z" fill="#D2D2D2"/>
<path d="M78.8114 21.8207L79.9255 17.366C80.1848 16.3285 79.7552 15.241 78.8583 14.6614C78.6333 14.516 73.2677 11.0645 65.0364 7.58323C57.4098 4.35667 45.7911 0.511353 33.7505 0.511353C25.7598 0.511353 20.1645 1.73948 13.0817 3.2926C9.91452 3.98792 6.32389 4.77542 2.05358 5.55198C1.31451 5.68635 0.677014 6.14573 0.312952 6.80198C-0.0495483 7.45823 -0.0995483 8.24417 0.180139 8.94104L2.30826 14.2629L0.177014 19.5817C-0.0432983 20.1301 -0.0604858 20.7395 0.127014 21.3004L2.62701 28.8004C2.96764 29.8207 3.92233 30.5098 4.99889 30.5098H11.3833C12.9614 32.0551 15.1208 33.0098 17.4989 33.0098C19.877 33.0098 22.0348 32.0551 23.6145 30.5098H55.1333C56.7114 32.0551 58.8708 33.0098 61.2489 33.0098C63.627 33.0098 65.7848 32.0551 67.3645 30.5098H77.4989C78.2473 30.5098 78.9567 30.1739 79.4317 29.5942C79.9067 29.0145 80.0973 28.2535 79.9505 27.5192L78.8114 21.8207ZM55.3723 9.29573C53.6036 9.9676 51.652 10.5098 50.0005 10.5098C45.888 10.5098 36.7505 7.9176 31.6755 6.32542L32.1426 5.54573C32.1426 5.54573 32.1489 5.53323 32.152 5.52854C32.6739 5.5176 33.2036 5.50979 33.7489 5.50979C41.4645 5.50979 49.0505 7.23323 55.3708 9.29573H55.3723ZM5.15983 20.5879L6.69108 16.7598H7.49889C8.88014 16.7598 9.99889 15.641 9.99889 14.2598C9.99889 12.8785 8.88014 11.7598 7.49889 11.7598H6.69108L5.94733 9.90198C9.01608 9.30042 11.7083 8.71135 14.1505 8.17542C18.5333 7.21448 22.1614 6.41917 26.0661 5.95354L24.1036 9.22385C23.638 9.99885 23.6286 10.966 24.077 11.7504L31.9395 25.5098H26.1567C26.2161 25.102 26.2473 24.6848 26.2473 24.2598C26.2473 19.4348 22.3223 15.5098 17.4973 15.5098C12.6723 15.5098 8.74733 19.4348 8.74733 24.2598C8.74733 24.6848 8.77858 25.102 8.83795 25.5098H6.79889L5.15827 20.5879H5.15983ZM13.7489 24.2598C13.7489 22.1926 15.4317 20.5098 17.4989 20.5098C19.5661 20.5098 21.2489 22.1926 21.2489 24.2598C21.2489 26.327 19.5661 28.0098 17.4989 28.0098C15.4317 28.0098 13.7489 26.327 13.7489 24.2598ZM57.4989 24.2598C57.4989 22.1926 59.1817 20.5098 61.2489 20.5098C63.3161 20.5098 64.9989 22.1926 64.9989 24.2598C64.9989 26.327 63.3161 28.0098 61.2489 28.0098C59.1817 28.0098 57.4989 26.327 57.4989 24.2598ZM73.7973 22.2504L74.4489 25.5098H69.9083C69.9677 25.102 69.9989 24.6848 69.9989 24.2598C69.9989 19.4348 66.0739 15.5098 61.2489 15.5098C56.4239 15.5098 52.4989 19.4348 52.4989 24.2598C52.4989 24.6848 52.5301 25.102 52.5895 25.5098H37.6989L29.3036 10.8192C33.2083 12.066 44.4911 15.5098 49.9973 15.5098C54.752 15.5098 60.2223 12.6989 61.9723 11.7254C62.3177 11.8676 62.6598 12.0082 62.9895 12.1473C68.3692 14.4176 72.5239 16.7114 74.6239 17.941L73.8208 21.1535C73.7317 21.5129 73.7223 21.8879 73.7942 22.2504H73.7973Z" fill="#414141"/>
</svg>
