<svg width="62" height="27" viewBox="0 0 62 27" fill="none" xmlns="http://www.w3.org/2000/svg">
<path d="M28.8054 13.093L28.1269 11.0576H25.5488V13.093C25.5488 13.3178 25.7311 13.5 25.9559 13.5H29.2124L28.8054 13.093Z" fill="#5D5360"/>
<path d="M28.1269 11.0576H25.5488V12.2788H28.534L28.1269 11.0576Z" fill="#4B3F4E"/>
<path d="M25.5528 18.0039H25.5488C25.3384 18.0039 25.1699 18.1744 25.1699 18.3848C25.1699 18.5951 25.3425 18.7656 25.5528 18.7656C25.7632 18.7656 25.9337 18.5951 25.9337 18.3848C25.9337 18.1744 25.7632 18.0039 25.5528 18.0039Z" fill="#333333"/>
<path d="M29.3804 13.668L28.8047 13.0923L27.5835 9.42871H23.9199V17.9772L29.2118 17.9774C29.4366 17.9774 29.6189 17.7951 29.6189 17.5703V14.2437C29.6189 14.0278 29.5331 13.8207 29.3804 13.668Z" fill="#DBD9DC"/>
<path d="M4.78792 6.9873H23.5131C23.7379 6.9873 23.9202 7.16956 23.9202 7.39437V16.757H4.78792C4.56311 16.757 4.38086 16.5747 4.38086 16.3499V7.39432C4.38086 7.16951 4.56311 6.9873 4.78792 6.9873Z" fill="#3A7C97"/>
<path d="M23.9202 16.7562H4.78792C4.56311 16.7562 4.38086 16.5739 4.38086 16.3491V15.1279H23.9202V16.7562Z" fill="#7DA5D7"/>
<path d="M25.548 18.3851H6.00863C5.78382 18.3851 5.60156 18.2028 5.60156 17.978V16.7568H25.548V18.3851Z" fill="#6F6571"/>
<path d="M25.5489 20.0129C26.4481 20.0129 27.177 19.284 27.177 18.3849C27.177 17.4857 26.4481 16.7568 25.5489 16.7568C24.6498 16.7568 23.9209 17.4857 23.9209 18.3849C23.9209 19.284 24.6498 20.0129 25.5489 20.0129Z" fill="#4B3F4E"/>
<path d="M12.1144 20.0129C13.0135 20.0129 13.7424 19.284 13.7424 18.3849C13.7424 17.4857 13.0135 16.7568 12.1144 16.7568C11.2152 16.7568 10.4863 17.4857 10.4863 18.3849C10.4863 19.284 11.2152 20.0129 12.1144 20.0129Z" fill="#4B3F4E"/>
<path d="M8.85852 20.0129C9.75767 20.0129 10.4866 19.284 10.4866 18.3849C10.4866 17.4857 9.75767 16.7568 8.85852 16.7568C7.95937 16.7568 7.23047 17.4857 7.23047 18.3849C7.23047 19.284 7.95937 20.0129 8.85852 20.0129Z" fill="#4B3F4E"/>
<path d="M8.86238 18.0039H8.85827C8.64793 18.0039 8.47949 18.1744 8.47949 18.3848C8.47949 18.5951 8.65205 18.7656 8.86238 18.7656C9.07272 18.7656 9.24324 18.5951 9.24324 18.3848C9.24324 18.1744 9.07272 18.0039 8.86238 18.0039Z" fill="#333333"/>
<path d="M12.1192 18.0039H12.1152C11.9048 18.0039 11.7363 18.1744 11.7363 18.3848C11.7363 18.5951 11.9089 18.7656 12.1192 18.7656C12.3296 18.7656 12.5001 18.5951 12.5001 18.3848C12.5001 18.1744 12.3296 18.0039 12.1192 18.0039Z" fill="#333333"/>
<path d="M29.65 13.3986L29.1379 12.8865L28.1063 9.79159C28.2602 9.74269 28.3718 9.59872 28.3718 9.42866C28.3718 9.21832 28.2013 9.0478 27.9909 9.0478H24.3011V7.39339C24.3011 6.95891 23.9477 6.60547 23.5132 6.60547H4.78792C4.35344 6.60552 4 6.95901 4 7.39339V16.3489C4 16.7834 4.35344 17.1368 4.78792 17.1368H5.22119V17.9769C5.22119 18.4114 5.57463 18.7649 6.00911 18.7649H6.88616C7.06471 19.6911 7.88102 20.3931 8.85861 20.3931C9.52801 20.3931 10.1216 20.0637 10.4869 19.5589C10.8522 20.0637 11.4458 20.3931 12.1152 20.3931C13.0928 20.3931 13.9091 19.6911 14.0876 18.7649H23.576C23.7546 19.6911 24.5709 20.3931 25.5485 20.3931C26.6563 20.3931 27.5576 19.4918 27.5576 18.384C27.5576 18.3753 27.557 18.3667 27.5569 18.358H29.2121C29.6466 18.358 30 18.0046 30 17.5701V14.2435C30.0001 13.9243 29.8757 13.6243 29.65 13.3986ZM6.88616 18.0032H6.00911C5.99464 18.0032 5.98291 17.9915 5.98291 17.977V17.1369H7.2852C7.08817 17.385 6.94837 17.6803 6.88616 18.0032ZM8.85861 19.6315C8.17077 19.6315 7.61121 19.0719 7.61121 18.3841C7.61121 17.699 8.16661 17.1412 8.85084 17.1369H8.86648C9.55071 17.1411 10.1061 17.6989 10.1061 18.3841C10.1061 19.0719 9.54644 19.6315 8.85861 19.6315ZM12.1152 19.6315C11.4274 19.6315 10.8678 19.0719 10.8678 18.3841C10.8678 17.699 11.4232 17.1412 12.1074 17.1369H12.123C12.8073 17.1411 13.3627 17.6989 13.3627 18.3841C13.3626 19.0719 12.803 19.6315 12.1152 19.6315ZM23.5761 18.0032H14.0877C14.0255 17.6803 13.8857 17.3849 13.6886 17.1368H21.0707C21.281 17.1368 21.4516 16.9663 21.4516 16.7559C21.4516 16.5456 21.281 16.3751 21.0707 16.3751H4.78792C4.77345 16.3751 4.76172 16.3634 4.76172 16.3489V7.39339C4.76172 7.37892 4.77345 7.36719 4.78792 7.36719H23.5131C23.5276 7.36719 23.5393 7.37892 23.5393 7.39339V16.3751H22.6992C22.4888 16.3751 22.3183 16.5457 22.3183 16.756C22.3183 16.9663 22.4888 17.1369 22.6992 17.1369H23.9751C23.778 17.385 23.6383 17.6803 23.5761 18.0032ZM28.4123 13.1184H25.9556C25.9411 13.1184 25.9294 13.1067 25.9294 13.0922V11.4377H27.8521L28.4123 13.1184ZM25.5485 19.6315C24.8607 19.6315 24.3011 19.0719 24.3011 18.3841C24.3011 17.699 24.8565 17.1412 25.5407 17.1369H25.5486C25.5494 17.1369 25.5503 17.1368 25.5512 17.1368C26.2378 17.1382 26.796 17.6972 26.796 18.3841C26.7959 19.0719 26.2363 19.6315 25.5485 19.6315ZM29.2383 15.1539H28.8051C28.5947 15.1539 28.4242 15.3245 28.4242 15.5348C28.4242 15.7451 28.5947 15.9157 28.8051 15.9157H29.2383V17.5702C29.2383 17.5846 29.2266 17.5964 29.2121 17.5964H27.3966C27.0896 16.879 26.3769 16.375 25.5485 16.375C25.5459 16.375 25.5433 16.3752 25.5407 16.3752H24.3011V9.83582V9.83562C24.3011 9.82115 24.3128 9.80942 24.3273 9.80942H27.3094L27.5982 10.6759H25.5485C25.3382 10.6759 25.1676 10.8465 25.1676 11.0568V13.0922C25.1676 13.5267 25.5211 13.8801 25.9556 13.8801H29.0544L29.1114 13.9372C29.1932 14.019 29.2383 14.1278 29.2383 14.2435V15.1539Z" fill="#333333"/>
<path d="M6.00879 15.5098H22.2916C22.5019 15.5098 22.6724 15.3392 22.6724 15.1289C22.6724 14.9186 22.5019 14.748 22.2916 14.748H6.00879C5.79845 14.748 5.62793 14.9186 5.62793 15.1289C5.62793 15.3392 5.79845 15.5098 6.00879 15.5098Z" fill="#333333"/>
<path d="M47.8438 17.5625V21.2188H38.9062C38.9062 20.68 38.6922 20.1634 38.3113 19.7824C37.9304 19.4015 37.4137 19.1875 36.875 19.1875C36.3363 19.1875 35.8196 19.4015 35.4387 19.7824C35.0578 20.1634 34.8438 20.68 34.8438 21.2188H33.625C33.5173 21.2188 33.4139 21.1759 33.3377 21.0998C33.2616 21.0236 33.2188 20.9202 33.2188 20.8125V17.5625H47.8438Z" fill="#CC7400"/>
<path d="M35.25 16.75C35.6987 16.75 36.0625 16.3862 36.0625 15.9375C36.0625 15.4888 35.6987 15.125 35.25 15.125C34.8013 15.125 34.4375 15.4888 34.4375 15.9375C34.4375 16.3862 34.8013 16.75 35.25 16.75Z" fill="#57565C"/>
<path d="M42.5625 16.75C43.0112 16.75 43.375 16.3862 43.375 15.9375C43.375 15.4888 43.0112 15.125 42.5625 15.125C42.1138 15.125 41.75 15.4888 41.75 15.9375C41.75 16.3862 42.1138 16.75 42.5625 16.75Z" fill="#57565C"/>
<path d="M38.5 11.0625V13.5H34.8438L35.8391 11.5134C35.9063 11.3781 36.01 11.2642 36.1385 11.1845C36.267 11.1048 36.4151 11.0626 36.5662 11.0625H38.5Z" fill="#D1D3D4"/>
<path d="M42.9688 13.5H38.5V11.0625H40.125L42.9688 13.5Z" fill="#E6E7E8"/>
<path d="M51.9062 23.25C53.0281 23.25 53.9375 22.3406 53.9375 21.2188C53.9375 20.0969 53.0281 19.1875 51.9062 19.1875C50.7844 19.1875 49.875 20.0969 49.875 21.2188C49.875 22.3406 50.7844 23.25 51.9062 23.25Z" fill="#57565C"/>
<path d="M54.3438 16.75V17.5625C54.3438 17.6702 54.3866 17.7736 54.4627 17.8498C54.5389 17.9259 54.6423 17.9688 54.75 17.9688H56.7812V20.4062C56.7806 20.6215 56.6948 20.8278 56.5426 20.9801C56.3903 21.1323 56.184 21.2181 55.9688 21.2188H53.9375C53.9375 20.68 53.7235 20.1634 53.3426 19.7824C52.9616 19.4015 52.445 19.1875 51.9062 19.1875C51.3675 19.1875 50.8509 19.4015 50.4699 19.7824C50.089 20.1634 49.875 20.68 49.875 21.2188H47.8438V10.25H49.4688V14.7188H56.7163C56.7603 14.865 56.7822 15.017 56.7812 15.1697V16.3438H54.75C54.6423 16.3438 54.5389 16.3866 54.4627 16.4627C54.3866 16.5389 54.3438 16.6423 54.3438 16.75Z" fill="#EE8700"/>
<path d="M56.7812 16.3438V17.9688H54.75C54.6423 17.9688 54.5389 17.9259 54.4627 17.8498C54.3866 17.7736 54.3438 17.6702 54.3438 17.5625V16.75C54.3438 16.6423 54.3866 16.5389 54.4627 16.4627C54.5389 16.3866 54.6423 16.3438 54.75 16.3438H56.7812Z" fill="#E6E7E8"/>
<path d="M56.7162 14.7188H49.4688V10.25H53.8603C54.0069 10.25 54.1507 10.2896 54.2766 10.3647C54.4025 10.4398 54.5057 10.5476 54.5753 10.6766L56.5497 14.3328C56.6226 14.4532 56.6786 14.5831 56.7162 14.7188Z" fill="#E6E7E8"/>
<path d="M47.8438 11.8748V17.5623H46.2188V11.1191L47.8438 11.8748Z" fill="#787680"/>
<path d="M48.2095 10.2504H47.8438V11.8754L46.2188 11.1198L34.8438 5.81418L34.5879 5.69637L35.2745 4.22168L48.2095 10.2504Z" fill="#898890"/>
<path d="M47.8438 11.8748V12.6873L46.2188 11.9316V11.1191L47.8438 11.8748Z" fill="#57565C"/>
<path d="M39.7188 21.2188H38.9062C38.9062 20.68 38.6922 20.1634 38.3113 19.7824C37.9304 19.4015 37.4137 19.1875 36.875 19.1875C36.3363 19.1875 35.8196 19.4015 35.4387 19.7824C35.0578 20.1634 34.8438 20.68 34.8438 21.2188H34.0312C34.0313 20.4645 34.3309 19.7412 34.8642 19.2079C35.3975 18.6746 36.1208 18.375 36.875 18.375C37.6292 18.375 38.3525 18.6746 38.8858 19.2079C39.4191 19.7412 39.7188 20.4645 39.7188 21.2188Z" fill="#AA6100"/>
<path d="M36.875 23.25C37.9968 23.25 38.9062 22.3406 38.9062 21.2188C38.9062 20.0969 37.9968 19.1875 36.875 19.1875C35.7532 19.1875 34.8438 20.0969 34.8438 21.2188C34.8438 22.3406 35.7532 23.25 36.875 23.25Z" fill="#57565C"/>
<path d="M44.5938 14.3125V15.9375H43.375C43.375 15.722 43.2894 15.5153 43.137 15.363C42.9847 15.2106 42.778 15.125 42.5625 15.125C42.347 15.125 42.1403 15.2106 41.988 15.363C41.8356 15.5153 41.75 15.722 41.75 15.9375H36.0625C36.0625 15.722 35.9769 15.5153 35.8245 15.363C35.6722 15.2106 35.4655 15.125 35.25 15.125C35.0345 15.125 34.8278 15.2106 34.6755 15.363C34.5231 15.5153 34.4375 15.722 34.4375 15.9375H33.2188V13.9062C33.2188 13.7985 33.2616 13.6952 33.3377 13.619C33.4139 13.5428 33.5173 13.5 33.625 13.5H43.7853L44.5938 14.3125Z" fill="#3D9AE2"/>
<path d="M36.4688 15.9375H36.0625C36.0625 15.722 35.9769 15.5153 35.8245 15.363C35.6722 15.2106 35.4655 15.125 35.25 15.125C35.0345 15.125 34.8278 15.2106 34.6755 15.363C34.5231 15.5153 34.4375 15.722 34.4375 15.9375H34.0312C34.0312 15.6143 34.1597 15.3043 34.3882 15.0757C34.6168 14.8472 34.9268 14.7188 35.25 14.7188C35.5732 14.7188 35.8832 14.8472 36.1118 15.0757C36.3403 15.3043 36.4688 15.6143 36.4688 15.9375Z" fill="#1E81CE"/>
<path d="M43.7812 15.9375H43.375C43.375 15.722 43.2894 15.5153 43.137 15.363C42.9847 15.2106 42.778 15.125 42.5625 15.125C42.347 15.125 42.1403 15.2106 41.988 15.363C41.8356 15.5153 41.75 15.722 41.75 15.9375H41.3438C41.3438 15.6143 41.4722 15.3043 41.7007 15.0757C41.9293 14.8472 42.2393 14.7188 42.5625 14.7188C42.8857 14.7188 43.1957 14.8472 43.4243 15.0757C43.6528 15.3043 43.7812 15.6143 43.7812 15.9375Z" fill="#1E81CE"/>
<path d="M54.75 21.2188H53.9375C53.9375 20.68 53.7235 20.1634 53.3426 19.7824C52.9616 19.4015 52.445 19.1875 51.9062 19.1875C51.3675 19.1875 50.8509 19.4015 50.4699 19.7824C50.089 20.1634 49.875 20.68 49.875 21.2188H49.0625C49.0625 20.4645 49.3621 19.7412 49.8954 19.2079C50.4287 18.6746 51.152 18.375 51.9062 18.375C52.6605 18.375 53.3838 18.6746 53.9171 19.2079C54.4504 19.7412 54.75 20.4645 54.75 21.2188Z" fill="#CC7400"/>
<path d="M49.0625 15.9375H50.6875V16.75H49.0625V15.9375Z" fill="black"/>
<path d="M36.4688 20.8125H37.2812V21.625H36.4688V20.8125Z" fill="black"/>
<path d="M51.5 20.8125H52.3125V21.625H51.5V20.8125Z" fill="black"/>
<path d="M56.9072 14.1398L54.9316 10.4836C54.8271 10.2902 54.6723 10.1287 54.4835 10.0161C54.2946 9.90351 54.0789 9.8441 53.8591 9.84415H48.2992L35.4458 3.85358C35.3975 3.83095 35.3452 3.81811 35.292 3.81581C35.2387 3.8135 35.1855 3.82179 35.1354 3.84018C35.0853 3.85839 35.0392 3.88631 34.9998 3.92235C34.9604 3.95839 34.9285 4.00184 34.9059 4.05021L34.2193 5.5249C34.1966 5.57334 34.1837 5.6258 34.1813 5.67926C34.1789 5.73272 34.1871 5.78612 34.2054 5.8364C34.2237 5.88668 34.2518 5.93285 34.288 5.97226C34.3242 6.01166 34.3678 6.04353 34.4164 6.06602L34.4375 6.07455V8.21915C34.4375 8.32689 34.4803 8.43022 34.5565 8.50641C34.6327 8.5826 34.736 8.6254 34.8438 8.6254C34.9241 8.6254 35.0026 8.64922 35.0695 8.69386C35.1363 8.7385 35.1883 8.80195 35.2191 8.87618C35.2498 8.95041 35.2579 9.0321 35.2422 9.1109C35.2265 9.18971 35.1878 9.26209 35.131 9.31891C35.0742 9.37572 35.0018 9.41442 34.923 9.43009C34.8442 9.44577 34.7625 9.43772 34.6883 9.40697C34.6141 9.37622 34.5506 9.32415 34.506 9.25735C34.4613 9.19054 34.4375 9.112 34.4375 9.03165H33.625C33.625 9.25507 33.6865 9.47419 33.8027 9.66504C33.9188 9.8559 34.0852 10.0112 34.2836 10.1138C34.4821 10.2165 34.7049 10.2627 34.9278 10.2473C35.1507 10.2319 35.3651 10.1555 35.5475 10.0265C35.7299 9.89744 35.8733 9.72077 35.9621 9.51574C36.0509 9.31071 36.0816 9.08522 36.0509 8.86392C36.0202 8.64261 35.9293 8.43401 35.788 8.2609C35.6468 8.08779 35.4606 7.95684 35.25 7.88237V6.45318L45.8125 11.3765V17.1566H33.2188C33.111 17.1566 33.0077 17.1994 32.9315 17.2756C32.8553 17.3518 32.8125 17.4552 32.8125 17.5629V20.8129C32.8125 21.0284 32.8981 21.235 33.0505 21.3874C33.2028 21.5398 33.4095 21.6254 33.625 21.6254H34.4741C34.5695 22.1931 34.8631 22.7087 35.3027 23.0805C35.7422 23.4522 36.2993 23.6563 36.875 23.6563C37.4507 23.6563 38.0078 23.4522 38.4473 23.0805C38.8869 22.7087 39.1805 22.1931 39.2759 21.6254H49.5053C49.6008 22.1931 49.8944 22.7087 50.3339 23.0805C50.7735 23.4522 51.3305 23.6563 51.9063 23.6563C52.482 23.6563 53.039 23.4522 53.4786 23.0805C53.9181 22.7087 54.2117 22.1931 54.3072 21.6254H55.9688C56.292 21.6254 56.602 21.497 56.8305 21.2684C57.0591 21.0399 57.1875 20.7299 57.1875 20.4066V15.1693C57.1883 14.8072 57.0914 14.4516 56.9072 14.1398ZM54.2166 10.8699L56.0772 14.3129H49.875V10.6566H53.8591C53.9324 10.6566 54.0043 10.6765 54.0672 10.714C54.1302 10.7516 54.1818 10.8054 54.2166 10.8699ZM35.471 4.76155L47.4375 10.339V11.238L35.1281 5.49971L35.471 4.76155ZM46.625 11.7556L47.4375 12.1342V17.1566H46.625V11.7556ZM36.875 22.8441C36.5536 22.8441 36.2394 22.7488 35.9722 22.5703C35.705 22.3917 35.4967 22.1379 35.3737 21.841C35.2507 21.5441 35.2185 21.2173 35.2812 20.9021C35.3439 20.5869 35.4987 20.2974 35.726 20.0701C35.9532 19.8428 36.2428 19.6881 36.558 19.6254C36.8732 19.5627 37.1999 19.5949 37.4969 19.7178C37.7938 19.8408 38.0476 20.0491 38.2261 20.3163C38.4047 20.5836 38.5 20.8978 38.5 21.2191C38.5 21.6501 38.3288 22.0634 38.024 22.3682C37.7193 22.6729 37.306 22.8441 36.875 22.8441ZM36.875 18.7816C36.2995 18.7827 35.743 18.9872 35.3036 19.3588C34.8643 19.7305 34.5705 20.2456 34.4741 20.8129H33.625V17.9691H47.4375V20.8129H39.2759C39.1795 20.2456 38.8857 19.7305 38.4464 19.3588C38.0071 18.9872 37.4505 18.7827 36.875 18.7816ZM51.9063 22.8441C51.5849 22.8441 51.2707 22.7488 51.0034 22.5703C50.7362 22.3917 50.5279 22.1379 50.4049 21.841C50.282 21.5441 50.2498 21.2173 50.3125 20.9021C50.3752 20.5869 50.5299 20.2974 50.7572 20.0701C50.9845 19.8428 51.274 19.6881 51.5892 19.6254C51.9044 19.5627 52.2312 19.5949 52.5281 19.7178C52.825 19.8408 53.0788 20.0491 53.2574 20.3163C53.4359 20.5836 53.5313 20.8978 53.5313 21.2191C53.5313 21.6501 53.36 22.0634 53.0553 22.3682C52.7506 22.6729 52.3372 22.8441 51.9063 22.8441ZM55.9688 20.8129H54.3072C54.2117 20.2452 53.9181 19.7296 53.4786 19.3578C53.039 18.986 52.482 18.782 51.9063 18.782C51.3305 18.782 50.7735 18.986 50.3339 19.3578C49.8944 19.7296 49.6008 20.2452 49.5053 20.8129H48.25V10.6566H49.0625V14.7191C49.0625 14.8269 49.1053 14.9302 49.1815 15.0064C49.2577 15.0826 49.361 15.1254 49.4688 15.1254H56.3689C56.3689 15.14 56.375 15.1542 56.375 15.1693V15.9379H54.75C54.5345 15.9379 54.3279 16.0235 54.1755 16.1759C54.0231 16.3282 53.9375 16.5349 53.9375 16.7504V17.5629C53.9375 17.7784 54.0231 17.985 54.1755 18.1374C54.3279 18.2898 54.5345 18.3754 54.75 18.3754H56.375V19.1879H55.1563V20.0004H56.375V20.4066C56.375 20.5144 56.3322 20.6177 56.256 20.6939C56.1798 20.7701 56.0765 20.8129 55.9688 20.8129ZM56.375 16.7504V17.5629H54.75V16.7504H56.375Z" fill="black"/>
<path d="M36.394 16.3438H41.4185C41.5012 16.5812 41.6558 16.7871 41.8608 16.9327C42.0658 17.0784 42.311 17.1566 42.5625 17.1566C42.814 17.1566 43.0592 17.0784 43.2642 16.9327C43.4692 16.7871 43.6238 16.5812 43.7065 16.3438H44.5938C44.7015 16.3438 44.8048 16.301 44.881 16.2248C44.9572 16.1486 45 16.0453 45 15.9375V14.3125C45.0001 14.205 44.9576 14.1019 44.8818 14.0257L44.0729 13.2132C44.0352 13.1753 43.9903 13.1452 43.9408 13.1247C43.8914 13.1042 43.8384 13.0937 43.7849 13.0938H43.1191L40.3895 10.7542C40.3158 10.691 40.222 10.6563 40.125 10.6563H36.5646C36.3382 10.6555 36.116 10.7182 35.9233 10.8372C35.7307 10.9563 35.5752 11.1269 35.4747 11.3298L34.5927 13.0938H33.625C33.4095 13.0938 33.2028 13.1794 33.0505 13.3317C32.8981 13.4841 32.8125 13.6908 32.8125 13.9063V15.9375C32.8125 16.0453 32.8553 16.1486 32.9315 16.2248C33.0077 16.301 33.111 16.3438 33.2188 16.3438H34.106C34.1887 16.5812 34.3433 16.7871 34.5483 16.9327C34.7533 17.0784 34.9985 17.1566 35.25 17.1566C35.5015 17.1566 35.7467 17.0784 35.9517 16.9327C36.1567 16.7871 36.3113 16.5812 36.394 16.3438ZM42.5625 16.3438C42.4822 16.3438 42.4036 16.3199 42.3368 16.2753C42.27 16.2307 42.2179 16.1672 42.1872 16.093C42.1564 16.0187 42.1484 15.9371 42.1641 15.8583C42.1797 15.7794 42.2184 15.7071 42.2752 15.6502C42.3321 15.5934 42.4044 15.5547 42.4832 15.5391C42.562 15.5234 42.6437 15.5314 42.718 15.5622C42.7922 15.5929 42.8556 15.645 42.9003 15.7118C42.9449 15.7786 42.9688 15.8572 42.9688 15.9375C42.9688 16.0453 42.9259 16.1486 42.8498 16.2248C42.7736 16.301 42.6702 16.3438 42.5625 16.3438ZM41.8719 13.0938H38.9062V11.4688H39.9747L41.8719 13.0938ZM36.2014 11.6934C36.2349 11.6258 36.2867 11.5689 36.3509 11.5291C36.4151 11.4894 36.4891 11.4685 36.5646 11.4688H38.0938V13.0938H35.5011L36.2014 11.6934ZM33.625 13.9063H43.6163L44.1875 14.4803V15.5313H43.7065C43.6238 15.2938 43.4692 15.0879 43.2642 14.9423C43.0592 14.7966 42.814 14.7184 42.5625 14.7184C42.311 14.7184 42.0658 14.7966 41.8608 14.9423C41.6558 15.0879 41.5012 15.2938 41.4185 15.5313H36.394C36.3113 15.2938 36.1567 15.0879 35.9517 14.9423C35.7467 14.7966 35.5015 14.7184 35.25 14.7184C34.9985 14.7184 34.7533 14.7966 34.5483 14.9423C34.3433 15.0879 34.1887 15.2938 34.106 15.5313H33.625V13.9063ZM35.25 16.3438C35.1697 16.3438 35.0911 16.3199 35.0243 16.2753C34.9575 16.2307 34.9054 16.1672 34.8747 16.093C34.8439 16.0187 34.8359 15.9371 34.8516 15.8583C34.8672 15.7794 34.9059 15.7071 34.9627 15.6502C35.0196 15.5934 35.0919 15.5547 35.1707 15.5391C35.2495 15.5234 35.3312 15.5314 35.4055 15.5622C35.4797 15.5929 35.5431 15.645 35.5878 15.7118C35.6324 15.7786 35.6562 15.8572 35.6562 15.9375C35.6562 16.0453 35.6134 16.1486 35.5373 16.2248C35.4611 16.301 35.3577 16.3438 35.25 16.3438Z" fill="black"/>
</svg>
