<svg width="120" height="121" viewBox="0 0 120 121" fill="none" xmlns="http://www.w3.org/2000/svg">
<g clip-path="url(#clip0_15_4195)">
<path d="M120.004 111.216C120.004 116.397 115.64 120.761 110.459 120.761C107.731 120.761 105.277 119.67 103.368 117.761L72.8222 84.4882C71.7312 83.3972 71.7312 81.761 72.8222 80.67L79.9132 73.579C81.0042 72.488 82.6404 72.488 83.7314 73.579L117.004 104.397C118.913 106.034 120.004 108.761 120.004 111.216Z" fill="#B06328"/>
<path d="M73.6259 79.7831L79.0254 74.3835L70.926 66.2842L65.5265 71.6837L73.6259 79.7831Z" fill="#B0C4D8"/>
<path d="M75.0046 75.761L76.3682 77.1246L79.0954 74.3974L70.9136 66.2156L65.459 71.6702L69.55 75.761C71.1864 74.1246 73.3682 74.1246 75.0046 75.761Z" fill="#99B4CD"/>
<path d="M40.9129 0.760986C18.2767 0.760986 0.00390625 19.0338 0.00390625 41.67C0.00390625 64.3061 18.2767 82.5789 40.9129 82.5789C63.5491 82.5789 81.8219 64.3061 81.8219 41.67C81.8219 19.0338 63.5493 0.760986 40.9129 0.760986ZM40.9129 74.3974C22.9129 74.3974 8.1857 59.6702 8.1857 41.6702C8.1857 23.6702 22.9129 8.94278 40.9129 8.94278C58.9129 8.94278 73.6401 23.67 73.6401 41.67C73.6401 59.67 58.9129 74.3974 40.9129 74.3974Z" fill="#C4D7E5"/>
<path d="M40.9127 74.397C58.9875 74.397 73.6399 59.7445 73.6399 41.6698C73.6399 23.5951 58.9875 8.94263 40.9127 8.94263C22.838 8.94263 8.18555 23.5951 8.18555 41.6698C8.18555 59.7445 22.838 74.397 40.9127 74.397Z" fill="#70B7E5"/>
<path d="M24.8218 45.4881C26.1854 35.1245 34.3672 26.9427 44.7307 25.5791H45.0036C49.64 25.0337 49.9125 18.4881 45.5489 17.6701C42.8218 17.1247 40.0943 17.1247 37.3672 17.3973C26.7307 19.0337 18.2761 27.4883 16.9125 37.8519C16.3672 40.5791 16.6397 43.5791 17.1854 46.0337C18.0036 50.6701 24.549 50.1247 25.0943 45.4883C24.8218 45.7609 24.8218 45.4881 24.8218 45.4881Z" fill="#92C5EB"/>
<path d="M10.9127 44.3972C10.9127 26.3972 25.6399 11.6701 43.6399 11.6701C52.0945 11.6701 59.4581 14.9429 65.4581 19.8519C59.4581 13.0337 50.7309 8.94287 40.9127 8.94287C22.9127 8.94287 8.18555 23.6701 8.18555 41.6701C8.18555 51.4883 12.5491 60.2155 19.0945 66.2155C14.1855 60.2155 10.9127 52.8519 10.9127 44.3972Z" fill="#4C9CD6"/>
<path d="M40.9141 82.5791C63.5505 82.5791 81.823 64.3063 81.823 41.6702C80.4595 41.6702 79.0959 42.7612 79.0959 44.3974C78.5505 53.6702 74.4595 62.1245 68.1869 68.3973C61.9141 74.9427 53.1869 79.0338 43.6415 79.852C42.0051 79.852 40.9141 81.2156 40.9141 82.5791Z" fill="#B0C9DB"/>
<path d="M40.9129 0.760986C18.2767 0.760986 0.00390625 19.0338 0.00390625 41.67C1.3675 41.67 2.73109 40.579 2.73109 38.9428C3.27672 29.9428 7.09492 21.761 12.8221 15.761C19.3675 8.94278 28.3675 4.30638 38.1857 3.48817C39.8221 3.48817 40.9129 2.12458 40.9129 0.760986Z" fill="#E2E7F0"/>
<path d="M116.732 104.124L115.096 102.761C116.46 104.397 117.278 106.579 117.278 108.761C117.278 112.306 112.914 113.67 110.46 111.216L81.8235 82.5791C80.1871 80.9427 77.7325 80.9427 76.0963 82.5791L73.3691 85.3063L103.096 117.215C104.733 118.852 106.915 120.215 109.096 120.488C112.096 120.761 115.096 119.67 117.005 117.761C118.914 115.852 120.005 112.852 119.732 109.852C119.732 107.67 118.369 105.761 116.732 104.124Z" fill="#A35425"/>
<path d="M88.6405 85.3063C88.3677 85.3063 87.8223 85.3063 87.5495 85.0334L80.7313 78.2152C80.1859 77.6699 80.1859 76.8517 80.7313 76.3063C81.2767 75.7609 82.0949 75.7609 82.6403 76.3063L89.4585 83.1245C90.0039 83.6699 90.0039 84.4881 89.4585 85.0334C89.4587 85.3063 88.9131 85.3063 88.6405 85.3063Z" fill="#C97629"/>
</g>
<defs>
<clipPath id="clip0_15_4195">
<rect width="120" height="120" fill="white" transform="translate(0 0.759766)"/>
</clipPath>
</defs>
</svg>
