<svg width="76" height="22" viewBox="0 0 76 22" fill="none" xmlns="http://www.w3.org/2000/svg">
<g clip-path="url(#clip0_15_5477)">
<path d="M8.28317 5.20605H4.61657H3.87334C3.52151 5.20605 3.23633 5.49128 3.23633 5.84311V14.3368C3.23633 14.6887 3.52155 14.974 3.87334 14.974H4.61657H6.42215C6.42082 14.9439 6.41988 14.9138 6.41988 14.8835C6.41988 13.828 7.27547 12.9724 8.33095 12.9724C9.38635 12.9724 10.2419 13.828 10.2419 14.8835C10.2419 14.9138 10.241 14.9439 10.2397 14.974H18.0007C17.9993 14.9439 17.9983 14.9138 17.9983 14.8835C17.9983 13.828 18.8539 12.9724 19.9093 12.9724C20.9648 12.9724 21.8204 13.828 21.8204 14.8835C21.8204 14.9138 21.8195 14.9439 21.8181 14.974H23.1613H23.9045C24.2563 14.974 24.5415 14.6887 24.5415 14.3368V7.44081C24.541 6.20641 23.5402 5.20605 22.3058 5.20605H19.6974H9.44109" fill="#FF5357"/>
<path d="M4.48897 14.3368V5.84311C4.48897 5.49124 4.7742 5.20605 5.12599 5.20605H4.95836H4.21514C3.86331 5.20605 3.57812 5.49128 3.57812 5.84311V14.3368C3.57812 14.6887 3.86335 14.974 4.21514 14.974H4.95836H5.12599C4.7742 14.9739 4.48897 14.6887 4.48897 14.3368Z" fill="#ED3A47"/>
<path d="M19.909 16.7937C20.9644 16.7937 21.82 15.9381 21.82 14.8827C21.82 13.8273 20.9644 12.9717 19.909 12.9717C18.8536 12.9717 17.998 13.8273 17.998 14.8827C17.998 15.9381 18.8536 16.7937 19.909 16.7937Z" fill="#5B5E5E"/>
<path d="M8.33091 16.7937C9.38632 16.7937 10.2419 15.9381 10.2419 14.8827C10.2419 13.8273 9.38632 12.9717 8.33091 12.9717C7.2755 12.9717 6.41992 13.8273 6.41992 14.8827C6.41992 15.9381 7.2755 16.7937 8.33091 16.7937Z" fill="#5B5E5E"/>
<path d="M19.9093 15.5393C20.2718 15.5393 20.5657 15.2455 20.5657 14.883C20.5657 14.5204 20.2718 14.2266 19.9093 14.2266C19.5468 14.2266 19.2529 14.5204 19.2529 14.883C19.2529 15.2455 19.5468 15.5393 19.9093 15.5393Z" fill="#E6E9ED"/>
<path d="M8.33119 15.5393C8.69371 15.5393 8.98758 15.2455 8.98758 14.883C8.98758 14.5204 8.69371 14.2266 8.33119 14.2266C7.96868 14.2266 7.6748 14.5204 7.6748 14.883C7.6748 15.2455 7.96868 15.5393 8.33119 15.5393Z" fill="#E6E9ED"/>
<path d="M16.773 6.79785H11.5V14.973H16.773V6.79785Z" fill="#97D3EE"/>
<path d="M14.1366 6.79785H11.5V14.973H14.1366V6.79785Z" fill="#52B2CC"/>
<path d="M16.773 11.249H11.5V14.8834H16.773V11.249Z" fill="#EF4556"/>
<path d="M14.1366 11.249H11.5V14.8834H14.1366V11.249Z" fill="#E23740"/>
<path d="M22.0388 11.2487H24.5414V7.28125H19.9092V11.2487H20.881" fill="#97D3EE"/>
<path d="M19.9095 7.28125H16.7734V11.2486H19.9095V7.28125Z" fill="#52B2CC"/>
<path d="M11.4671 7.28125H8.33105V11.2486H11.4671V7.28125Z" fill="#97D3EE"/>
<path d="M8.33083 7.28125H5.19434V11.2486H8.33083V7.28125Z" fill="#52B2CC"/>
<path d="M3.23633 13.6468V12.3564H3.90943C4.26573 12.3564 4.55461 12.6453 4.55461 13.0016C4.55461 13.3579 4.26577 13.6468 3.90943 13.6468H3.23633V13.6468Z" fill="#F98B38"/>
<path d="M24.5411 13.6468V12.3564H23.5495C23.1932 12.3564 22.9043 12.6453 22.9043 13.0016C22.9043 13.3579 23.1931 13.6468 23.5495 13.6468H24.5411V13.6468Z" fill="#97D3EE"/>
<path d="M7.63355 14.8827C7.63355 13.9842 8.25372 13.231 9.08911 13.0267C8.94311 12.991 8.7907 12.9717 8.63373 12.9717C7.57825 12.9717 6.72266 13.8273 6.72266 14.8828C6.72266 15.9381 7.57825 16.7938 8.63373 16.7938C8.7907 16.7938 8.94311 16.7744 9.08911 16.7387C8.25372 16.5344 7.63355 15.7811 7.63355 14.8827Z" fill="#424444"/>
<path d="M19.2517 14.8827C19.2517 13.9842 19.8718 13.231 20.7073 13.0267C20.5613 12.991 20.4089 12.9717 20.2519 12.9717C19.1964 12.9717 18.3408 13.8273 18.3408 14.8828C18.3408 15.9381 19.1964 16.7938 20.2519 16.7938C20.4089 16.7938 20.5613 16.7744 20.7073 16.7387C19.8718 16.5344 19.2517 15.7811 19.2517 14.8827Z" fill="#424444"/>
<path d="M23.9021 12.9723C23.9021 12.616 24.191 12.3271 24.5473 12.3271H23.6364C23.2801 12.3271 22.9912 12.616 22.9912 12.9723C22.9912 13.3286 23.2801 13.6175 23.6364 13.6175H24.5473C24.191 13.6175 23.9021 13.3287 23.9021 12.9723Z" fill="#6CC6E4"/>
<path d="M24.8762 7.19035C24.7495 5.88355 23.6449 4.8584 22.3056 4.8584H9.44084C9.24894 4.8584 9.09348 5.01394 9.09348 5.20576C9.09348 5.39757 9.24894 5.55312 9.44084 5.55312H22.3056C23.1708 5.55312 23.9017 6.13856 24.124 6.93387H19.9092H19.9091H17.1204V6.79835C17.1204 6.60649 16.9649 6.45099 16.773 6.45099H11.4998C11.3079 6.45099 11.1524 6.60654 11.1524 6.79835V6.93387H8.33065H5.19437C5.00247 6.93387 4.84701 7.08942 4.84701 7.28123V11.2487C4.84701 11.4406 5.00247 11.5961 5.19437 11.5961H8.33065H11.1524V14.6263H10.5745C10.5726 14.6091 10.5698 14.5923 10.5675 14.5752C10.5655 14.5605 10.5637 14.5456 10.5614 14.531C10.5578 14.508 10.5535 14.4852 10.5491 14.4625C10.5467 14.4495 10.5446 14.4365 10.5419 14.4237C10.5361 14.3957 10.5295 14.368 10.5227 14.3404C10.5209 14.333 10.5193 14.3255 10.5174 14.3182C10.5084 14.2834 10.4986 14.249 10.4881 14.215C10.4848 14.2043 10.481 14.194 10.4775 14.1835C10.4699 14.1601 10.4622 14.1366 10.4538 14.1135C10.449 14.1002 10.4436 14.0872 10.4385 14.0739C10.4308 14.054 10.4232 14.034 10.415 14.0143C10.4091 14.0002 10.4027 13.9864 10.3965 13.9724C10.3884 13.954 10.3803 13.9356 10.3716 13.9174C10.3649 13.9032 10.3577 13.8892 10.3507 13.8752C10.3419 13.8577 10.3331 13.8401 10.3239 13.8229C10.3163 13.8088 10.3085 13.7949 10.3007 13.781C10.2913 13.7643 10.2818 13.7475 10.272 13.731C10.2637 13.7172 10.2553 13.7035 10.2468 13.6898C10.2367 13.6737 10.2264 13.6576 10.2159 13.6417C10.207 13.6283 10.198 13.6149 10.1888 13.6017C10.178 13.5861 10.1669 13.5705 10.1556 13.5551C10.1462 13.5422 10.1367 13.5293 10.127 13.5166C10.1154 13.5013 10.1035 13.4863 10.0915 13.4714C10.0815 13.4591 10.0717 13.4466 10.0614 13.4345C10.049 13.4197 10.0362 13.4052 10.0234 13.3906C10.0131 13.3789 10.0028 13.3672 9.99225 13.3556C9.97876 13.341 9.96497 13.3267 9.95113 13.3125C9.94065 13.3017 9.93034 13.2907 9.91964 13.2802C9.90477 13.2654 9.88943 13.2512 9.87422 13.2368C9.86399 13.2272 9.85398 13.2174 9.84362 13.208C9.82592 13.192 9.80775 13.1766 9.78953 13.1611C9.78111 13.154 9.7729 13.1465 9.76435 13.1395C9.73749 13.1174 9.71012 13.0959 9.68223 13.075C9.67566 13.0701 9.66883 13.0655 9.66221 13.0606C9.6406 13.0448 9.61885 13.0291 9.59668 13.014C9.58581 13.0067 9.57464 12.9997 9.5636 12.9925C9.54525 12.9806 9.5269 12.9685 9.50821 12.957C9.49575 12.9494 9.48303 12.9422 9.4704 12.9348C9.45265 12.9243 9.43495 12.914 9.41694 12.904C9.40354 12.8967 9.38996 12.8897 9.37643 12.8826C9.35872 12.8733 9.34102 12.8641 9.32306 12.8552C9.30901 12.8483 9.29479 12.8417 9.28061 12.8351C9.26269 12.8268 9.24477 12.8185 9.22659 12.8107C9.21207 12.8043 9.19742 12.7983 9.18272 12.7923C9.16446 12.7848 9.1462 12.7776 9.12768 12.7706C9.11273 12.7649 9.09773 12.7594 9.08265 12.7541C9.06404 12.7475 9.04527 12.7412 9.02649 12.7351C9.01123 12.7301 8.99598 12.7253 8.9806 12.7206C8.96152 12.7149 8.94223 12.7095 8.92298 12.7042C8.90755 12.7 8.89213 12.6958 8.87657 12.692C8.85689 12.6871 8.837 12.6826 8.81715 12.6782C8.80168 12.6748 8.78625 12.6713 8.77065 12.6682C8.7502 12.6641 8.72953 12.6607 8.70886 12.6571C8.69357 12.6545 8.67836 12.6518 8.66297 12.6495C8.64123 12.6463 8.61932 12.6437 8.5974 12.6411C8.58288 12.6394 8.56836 12.6374 8.55375 12.6359C8.52925 12.6335 8.50451 12.6319 8.4798 12.6303C8.46751 12.6295 8.45535 12.6283 8.44297 12.6277C8.40576 12.6258 8.36842 12.6248 8.33078 12.6248C8.29319 12.6248 8.25576 12.6258 8.21859 12.6277C8.20622 12.6283 8.19406 12.6295 8.18172 12.6303C8.15702 12.6319 8.13231 12.6335 8.10782 12.6359C8.09312 12.6374 8.07864 12.6394 8.06403 12.6411C8.04216 12.6437 8.02025 12.6463 7.99859 12.6495C7.98317 12.6518 7.96787 12.6545 7.95257 12.6572C7.93195 12.6606 7.91141 12.6642 7.89096 12.6682C7.87532 12.6713 7.8598 12.6748 7.84421 12.6783C7.82444 12.6826 7.80463 12.6871 7.78508 12.6919C7.76944 12.6958 7.75393 12.7001 7.73833 12.7043C7.71917 12.7095 7.70005 12.7149 7.68105 12.7205C7.66554 12.7252 7.65016 12.7301 7.63478 12.7351C7.61609 12.7411 7.59748 12.7474 7.579 12.754C7.56375 12.7593 7.54858 12.7649 7.53346 12.7706C7.51515 12.7775 7.49706 12.7847 7.47902 12.7921C7.46415 12.7982 7.44928 12.8043 7.43454 12.8107C7.41658 12.8184 7.39884 12.8266 7.38113 12.8348C7.36674 12.8415 7.35234 12.8483 7.33812 12.8552C7.32042 12.8639 7.30297 12.873 7.28553 12.8822C7.27173 12.8894 7.25786 12.8965 7.24428 12.904C7.22657 12.9137 7.20922 12.924 7.19186 12.9342C7.17892 12.9418 7.16586 12.9492 7.1531 12.957C7.13488 12.9682 7.11705 12.9799 7.09922 12.9916C7.08774 12.9991 7.07601 13.0064 7.06467 13.0141C7.04348 13.0285 7.02282 13.0435 7.00219 13.0585C6.99454 13.0641 6.98668 13.0694 6.97912 13.075C6.95136 13.0958 6.92407 13.1173 6.89739 13.1393C6.8882 13.1469 6.87939 13.1549 6.87023 13.1627C6.85275 13.1776 6.83513 13.1924 6.81807 13.2079C6.80729 13.2176 6.79689 13.2278 6.78636 13.2377C6.77149 13.2517 6.75654 13.2656 6.74202 13.28C6.7311 13.2908 6.72049 13.302 6.70979 13.3131C6.69621 13.3271 6.68259 13.3411 6.66936 13.3555C6.65861 13.3671 6.64813 13.3791 6.63765 13.391C6.62506 13.4053 6.61247 13.4196 6.60018 13.4343C6.58982 13.4466 6.57977 13.4592 6.56967 13.4717C6.55781 13.4865 6.54604 13.5013 6.53461 13.5163C6.52477 13.5292 6.51518 13.5422 6.50565 13.5553C6.49452 13.5706 6.48356 13.5859 6.47282 13.6015C6.46354 13.6149 6.45447 13.6283 6.44553 13.6419C6.43509 13.6577 6.42491 13.6736 6.41485 13.6897C6.40626 13.7034 6.39771 13.7172 6.38937 13.7312C6.37966 13.7475 6.37021 13.7641 6.36084 13.7808C6.35294 13.7949 6.34503 13.8089 6.33742 13.8231C6.32831 13.8402 6.31959 13.8575 6.31087 13.8749C6.30374 13.8891 6.29652 13.9033 6.28969 13.9176C6.28113 13.9356 6.27306 13.9539 6.26494 13.9722C6.25866 13.9863 6.2523 14.0002 6.24637 14.0145C6.23821 14.0339 6.23069 14.0537 6.22308 14.0734C6.21788 14.0869 6.21247 14.1001 6.20753 14.1137C6.19919 14.1366 6.19159 14.1599 6.18398 14.1831C6.1805 14.1938 6.17663 14.2043 6.17333 14.215C6.16276 14.2491 6.15296 14.2835 6.14398 14.3182C6.142 14.3259 6.14046 14.3337 6.13856 14.3414C6.13182 14.3687 6.12529 14.396 6.11953 14.4237C6.11682 14.4366 6.11472 14.4497 6.11227 14.4628C6.10797 14.4854 6.10367 14.5081 6.10002 14.531C6.0977 14.5457 6.09594 14.5605 6.09396 14.5752C6.09164 14.5923 6.08885 14.6092 6.08692 14.6263H3.87308C3.71337 14.6263 3.58343 14.4963 3.58343 14.3366V13.994H3.90918C4.45643 13.994 4.90171 13.5488 4.90171 13.0015C4.90171 12.4542 4.45647 12.0089 3.90918 12.0089H3.58343V5.84285C3.58343 5.6831 3.71341 5.55316 3.87308 5.55316H8.28296C8.47486 5.55316 8.63032 5.39761 8.63032 5.2058C8.63032 5.01399 8.47486 4.85844 8.28296 4.85844H3.87308C3.33026 4.8584 2.88867 5.30003 2.88867 5.84285V12.3563V13.6466V14.3365C2.88867 14.8793 3.33026 15.321 3.87308 15.321H6.11519C6.31968 16.3574 7.23517 17.1416 8.33065 17.1416C9.4261 17.1416 10.3415 16.3574 10.546 15.321H11.4998H16.773H17.6937C17.8982 16.3574 18.8136 17.1416 19.9091 17.1416C21.0046 17.1416 21.9201 16.3574 22.1245 15.321H23.9043C24.4471 15.321 24.8887 14.8793 24.8887 14.3365V13.6466V12.3563V11.2487V7.44039V7.28123C24.8886 7.24973 24.884 7.21936 24.8762 7.19035ZM3.90913 12.7037C4.07332 12.7037 4.20695 12.8373 4.20695 13.0015C4.20695 13.1657 4.07332 13.2993 3.90913 13.2993H3.58339V12.7037H3.90913V12.7037ZM19.5617 7.62863V10.9013H17.1203V7.62863H19.5617ZM11.8472 11.5961H16.4257V14.5358H11.8472V11.5961ZM16.4256 7.28127V10.9013H14.4838V7.14575H16.4257V7.28127H16.4256ZM13.7891 7.14575V10.9013H11.8472V7.14575H13.7891ZM5.54177 7.62863H7.9833V10.9013H5.54177V7.62863ZM11.1194 10.9014H8.67806V7.62867H11.1194V10.9014ZM8.33065 16.4469C7.49354 16.4469 6.80806 15.7856 6.76883 14.9581C6.76771 14.9332 6.76694 14.9083 6.76694 14.8832C6.76694 14.021 7.46844 13.3195 8.33065 13.3195C9.19282 13.3195 9.89428 14.021 9.89428 14.8832C9.89428 14.9083 9.89351 14.9331 9.89239 14.958C9.85316 15.7856 9.16773 16.4469 8.33065 16.4469ZM19.909 16.4469C19.0725 16.4469 18.3873 15.7864 18.3474 14.9596C18.3473 14.9587 18.3474 14.9578 18.3474 14.957C18.3462 14.9324 18.3454 14.908 18.3454 14.8832C18.3454 14.021 19.0469 13.3195 19.9091 13.3195C20.7713 13.3195 21.4728 14.021 21.4728 14.8832C21.4728 15.7454 20.7713 16.4469 19.909 16.4469ZM23.9042 14.6263H22.1529C22.151 14.6091 22.1483 14.5923 22.1459 14.5752C22.1439 14.5605 22.1421 14.5456 22.1398 14.531C22.1362 14.508 22.1319 14.4854 22.1276 14.4627C22.1251 14.4497 22.123 14.4365 22.1203 14.4236C22.1146 14.396 22.108 14.3686 22.1013 14.3413C22.0994 14.3336 22.0978 14.3258 22.0959 14.3181C22.0869 14.2834 22.0771 14.249 22.0665 14.215C22.0632 14.2043 22.0594 14.1938 22.0559 14.1831C22.0483 14.1598 22.0407 14.1366 22.0323 14.1136C22.0274 14.1001 22.022 14.0868 22.0168 14.0734C22.0092 14.0537 22.0017 14.0339 21.9935 14.0144C21.9876 14.0002 21.9811 13.9862 21.9749 13.9721C21.9668 13.9538 21.9588 13.9356 21.9502 13.9176C21.9433 13.9032 21.9361 13.889 21.929 13.8748C21.9203 13.8575 21.9116 13.8402 21.9024 13.8231C21.8948 13.8088 21.8869 13.7947 21.879 13.7807C21.8697 13.7641 21.8603 13.7475 21.8505 13.7312C21.8422 13.7172 21.8336 13.7034 21.825 13.6895C21.815 13.6735 21.8048 13.6576 21.7945 13.6419C21.7855 13.6283 21.7764 13.6148 21.7671 13.6015C21.7564 13.586 21.7454 13.5706 21.7343 13.5553C21.7248 13.5422 21.7152 13.5292 21.7053 13.5163C21.6939 13.5012 21.6821 13.4864 21.6703 13.4717C21.6602 13.4591 21.6501 13.4466 21.6398 13.4342C21.6275 13.4196 21.6149 13.4053 21.6023 13.391C21.5918 13.379 21.5814 13.3671 21.5706 13.3554C21.5574 13.341 21.5438 13.3271 21.5303 13.3131C21.5195 13.302 21.5089 13.2907 21.4979 13.2798C21.4835 13.2655 21.4687 13.2517 21.4538 13.2378C21.4432 13.2278 21.4327 13.2175 21.4219 13.2077C21.4049 13.1923 21.3875 13.1776 21.3701 13.1628C21.3609 13.155 21.352 13.1468 21.3426 13.1391C21.3159 13.1171 21.2887 13.0957 21.2609 13.0749C21.2534 13.0692 21.2455 13.064 21.2378 13.0584C21.2172 13.0434 21.1965 13.0283 21.1754 13.0139C21.164 13.0062 21.1523 12.999 21.1408 12.9915C21.1229 12.9798 21.1052 12.9681 21.0869 12.9569C21.0742 12.9491 21.0611 12.9417 21.0482 12.9341C21.0308 12.9239 21.0135 12.9137 20.9958 12.9039C20.9821 12.8964 20.9683 12.8892 20.9545 12.882C20.9371 12.8729 20.9196 12.8638 20.9019 12.8551C20.8876 12.8481 20.8732 12.8414 20.8587 12.8347C20.841 12.8265 20.8233 12.8183 20.8054 12.8105C20.7907 12.8041 20.7758 12.798 20.7609 12.7919C20.7429 12.7846 20.7248 12.7773 20.7065 12.7704C20.6914 12.7647 20.6762 12.7592 20.661 12.7538C20.6426 12.7473 20.6239 12.741 20.6052 12.7349C20.5899 12.7299 20.5744 12.725 20.559 12.7204C20.54 12.7147 20.5208 12.7093 20.5017 12.7041C20.4861 12.6999 20.4706 12.6957 20.455 12.6918C20.4354 12.6869 20.4157 12.6824 20.3958 12.6781C20.3803 12.6747 20.3648 12.6711 20.3491 12.668C20.3287 12.664 20.3081 12.6605 20.2875 12.657C20.2721 12.6544 20.2569 12.6516 20.2414 12.6493C20.2198 12.6461 20.1979 12.6435 20.176 12.641C20.1614 12.6393 20.1469 12.6372 20.1322 12.6358C20.1077 12.6334 20.083 12.6317 20.0583 12.6301C20.046 12.6293 20.0338 12.6281 20.0215 12.6275C19.9843 12.6257 19.9469 12.6246 19.9093 12.6246C19.8717 12.6246 19.8343 12.6257 19.7971 12.6275C19.7848 12.6281 19.7726 12.6293 19.7603 12.6301C19.7355 12.6317 19.7108 12.6333 19.6863 12.6358C19.6717 12.6372 19.6572 12.6392 19.6427 12.641C19.6208 12.6435 19.5988 12.6461 19.5771 12.6493C19.5617 12.6516 19.5465 12.6543 19.5312 12.657C19.5105 12.6605 19.4899 12.664 19.4694 12.668C19.4539 12.6711 19.4384 12.6746 19.4229 12.6781C19.403 12.6824 19.3832 12.6869 19.3635 12.6918C19.3479 12.6957 19.3325 12.6999 19.3171 12.704C19.2978 12.7093 19.2786 12.7147 19.2595 12.7205C19.2441 12.7251 19.2288 12.73 19.2136 12.7349C19.1947 12.741 19.176 12.7474 19.1574 12.7539C19.1423 12.7593 19.1273 12.7647 19.1124 12.7704C19.0939 12.7774 19.0756 12.7847 19.0574 12.7922C19.0427 12.7982 19.0281 12.8042 19.0135 12.8105C18.9953 12.8184 18.9774 12.8266 18.9595 12.835C18.9453 12.8416 18.9311 12.8482 18.9171 12.8551C18.8991 12.8639 18.8814 12.8731 18.8637 12.8825C18.8502 12.8896 18.8365 12.8965 18.8232 12.9039C18.8052 12.9139 18.7875 12.9243 18.7697 12.9347C18.7571 12.9421 18.7444 12.9493 18.7319 12.9569C18.7132 12.9683 18.6949 12.9804 18.6765 12.9924C18.6655 12.9996 18.6544 13.0065 18.6434 13.0139C18.6214 13.0289 18.5998 13.0445 18.5783 13.0603C18.5715 13.0652 18.5645 13.0699 18.5578 13.0749C18.53 13.0958 18.5026 13.1173 18.4758 13.1394C18.4672 13.1465 18.4591 13.1539 18.4506 13.1611C18.4324 13.1765 18.4142 13.192 18.3965 13.2079C18.3861 13.2174 18.3761 13.2271 18.3659 13.2367C18.3506 13.251 18.3354 13.2653 18.3205 13.2801C18.3098 13.2907 18.2995 13.3016 18.289 13.3124C18.2752 13.3267 18.2613 13.3409 18.2479 13.3555C18.2373 13.3671 18.227 13.3788 18.2166 13.3906C18.2039 13.405 18.1911 13.4196 18.1787 13.4343C18.1685 13.4466 18.1585 13.459 18.1485 13.4714C18.1365 13.4863 18.1247 13.5012 18.1131 13.5164C18.1034 13.5291 18.0938 13.5421 18.0844 13.555C18.0732 13.5704 18.0621 13.5859 18.0512 13.6016C18.0421 13.6148 18.0331 13.6282 18.0242 13.6416C18.0137 13.6575 18.0034 13.6735 17.9933 13.6897C17.9848 13.7034 17.9763 13.717 17.9681 13.7309C17.9583 13.7473 17.9488 13.764 17.9394 13.7807C17.9315 13.7947 17.9237 13.8087 17.9161 13.8229C17.907 13.8401 17.8982 13.8574 17.8895 13.8748C17.8824 13.889 17.8752 13.903 17.8685 13.9174C17.8599 13.9354 17.8518 13.9537 17.8437 13.9721C17.8375 13.9861 17.8311 14 17.8251 14.0142C17.8169 14.0338 17.8094 14.0537 17.8017 14.0735C17.7966 14.0868 17.7912 14.1 17.7863 14.1135C17.778 14.1363 17.7704 14.1596 17.7628 14.1828C17.7593 14.1935 17.7554 14.2041 17.7521 14.2149C17.7415 14.2489 17.7317 14.2833 17.7228 14.318C17.7208 14.3257 17.7193 14.3335 17.7174 14.3412C17.7106 14.3685 17.7041 14.3959 17.6983 14.4235C17.6956 14.4365 17.6935 14.4497 17.691 14.4628C17.6868 14.4854 17.6824 14.508 17.6789 14.5308C17.6766 14.5456 17.6747 14.5606 17.6728 14.5754C17.6705 14.5923 17.6677 14.6091 17.6658 14.6261H17.1209V11.5961H19.9096H19.9097H20.8813C21.0732 11.5961 21.2287 11.4406 21.2287 11.2487C21.2287 11.0569 21.0732 10.9014 20.8813 10.9014H20.257V7.62867H24.1941V10.9014H22.0389C21.847 10.9014 21.6915 11.0569 21.6915 11.2487C21.6915 11.4406 21.847 11.5961 22.0389 11.5961H24.1941V12.0089H23.5499C23.0026 12.0089 22.5573 12.4541 22.5573 13.0014C22.5573 13.5487 23.0026 13.994 23.5499 13.994H24.1941V14.3365C24.1939 14.4963 24.0639 14.6263 23.9042 14.6263ZM24.1939 13.2992H23.5497C23.3855 13.2992 23.2519 13.1656 23.2519 13.0014C23.2519 12.8372 23.3855 12.7036 23.5497 12.7036H24.1939V13.2992Z" fill="#231F20"/>
<path d="M8.3309 13.8799C7.77742 13.8799 7.32715 14.3302 7.32715 14.8836C7.32715 15.4371 7.77742 15.8874 8.3309 15.8874C8.88438 15.8874 9.33464 15.4371 9.33464 14.8836C9.33464 14.3302 8.88438 13.8799 8.3309 13.8799ZM8.3309 15.1927C8.16048 15.1927 8.02187 15.054 8.02187 14.8836C8.02187 14.7132 8.16048 14.5746 8.3309 14.5746C8.50131 14.5746 8.63993 14.7132 8.63993 14.8836C8.63993 15.054 8.50131 15.1927 8.3309 15.1927Z" fill="#231F20"/>
<path d="M19.909 13.8799C19.3555 13.8799 18.9053 14.3302 18.9053 14.8836C18.9053 15.4371 19.3555 15.8874 19.909 15.8874C20.4625 15.8874 20.9128 15.4371 20.9128 14.8836C20.9128 14.3302 20.4625 13.8799 19.909 13.8799ZM19.909 15.1927C19.7386 15.1927 19.6 15.054 19.6 14.8836C19.6 14.7132 19.7386 14.5746 19.909 14.5746C20.0794 14.5746 20.2181 14.7132 20.2181 14.8836C20.2181 15.054 20.0794 15.1927 19.909 15.1927Z" fill="#231F20"/>
</g>
<path d="M40.4063 14.4375V17.5313H32.8438C32.8438 17.0754 32.6627 16.6382 32.3403 16.3159C32.018 15.9936 31.5808 15.8125 31.125 15.8125C30.6692 15.8125 30.232 15.9936 29.9097 16.3159C29.5873 16.6382 29.4063 17.0754 29.4063 17.5313H28.375C28.2838 17.5313 28.1964 17.495 28.1319 17.4306C28.0675 17.3661 28.0312 17.2787 28.0312 17.1875V14.4375H40.4063Z" fill="#CC7400"/>
<path d="M29.75 13.75C30.1297 13.75 30.4375 13.4422 30.4375 13.0625C30.4375 12.6828 30.1297 12.375 29.75 12.375C29.3703 12.375 29.0625 12.6828 29.0625 13.0625C29.0625 13.4422 29.3703 13.75 29.75 13.75Z" fill="#57565C"/>
<path d="M35.9375 13.75C36.3172 13.75 36.625 13.4422 36.625 13.0625C36.625 12.6828 36.3172 12.375 35.9375 12.375C35.5578 12.375 35.25 12.6828 35.25 13.0625C35.25 13.4422 35.5578 13.75 35.9375 13.75Z" fill="#57565C"/>
<path d="M32.5 8.9375V11H29.4062L30.2484 9.31906C30.3054 9.20452 30.3931 9.10813 30.5018 9.04072C30.6105 8.97331 30.7358 8.93757 30.8638 8.9375H32.5Z" fill="#D1D3D4"/>
<path d="M36.2813 11H32.5V8.9375H33.875L36.2813 11Z" fill="#E6E7E8"/>
<path d="M43.8438 19.25C44.793 19.25 45.5625 18.4805 45.5625 17.5313C45.5625 16.582 44.793 15.8125 43.8438 15.8125C42.8945 15.8125 42.125 16.582 42.125 17.5313C42.125 18.4805 42.8945 19.25 43.8438 19.25Z" fill="#57565C"/>
<path d="M45.9062 13.75V14.4375C45.9062 14.5287 45.9425 14.6161 46.0069 14.6806C46.0714 14.745 46.1588 14.7813 46.25 14.7813H47.9688V16.8438C47.9682 17.0259 47.8956 17.2005 47.7668 17.3293C47.638 17.4581 47.4634 17.5307 47.2812 17.5313H45.5625C45.5625 17.0754 45.3814 16.6382 45.0591 16.3159C44.7368 15.9936 44.2996 15.8125 43.8438 15.8125C43.3879 15.8125 42.9507 15.9936 42.6284 16.3159C42.3061 16.6382 42.125 17.0754 42.125 17.5313H40.4062V8.25H41.7812V12.0313H47.9138C47.951 12.155 47.9695 12.2836 47.9688 12.4128V13.4063H46.25C46.1588 13.4063 46.0714 13.4425 46.0069 13.5069C45.9425 13.5714 45.9062 13.6588 45.9062 13.75Z" fill="#EE8700"/>
<path d="M47.9688 13.4062V14.7813H46.25C46.1588 14.7813 46.0714 14.745 46.0069 14.6806C45.9425 14.6161 45.9062 14.5287 45.9062 14.4375V13.75C45.9062 13.6588 45.9425 13.5714 46.0069 13.5069C46.0714 13.4425 46.1588 13.4062 46.25 13.4062H47.9688Z" fill="#E6E7E8"/>
<path d="M47.9138 12.0313H41.7812V8.25H45.4972C45.6212 8.25 45.7429 8.28355 45.8494 8.34709C45.9559 8.41063 46.0433 8.5018 46.1022 8.61094L47.7728 11.7047C47.8345 11.8066 47.8819 11.9165 47.9138 12.0313Z" fill="#E6E7E8"/>
<path d="M40.4063 9.62473V14.4372H39.0312V8.98535L40.4063 9.62473Z" fill="#787680"/>
<path d="M40.7154 8.24969H40.406V9.62469L39.031 8.98531L29.406 4.49594L29.1895 4.39625L29.7704 3.14844L40.7154 8.24969Z" fill="#898890"/>
<path d="M40.4063 9.62473V10.3122L39.0312 9.67285V8.98535L40.4063 9.62473Z" fill="#57565C"/>
<path d="M33.5313 17.5313H32.8438C32.8438 17.0754 32.6627 16.6382 32.3403 16.3159C32.018 15.9936 31.5808 15.8125 31.125 15.8125C30.6692 15.8125 30.232 15.9936 29.9097 16.3159C29.5873 16.6382 29.4063 17.0754 29.4063 17.5313H28.7188C28.7188 16.8931 28.9723 16.281 29.4235 15.8298C29.8748 15.3785 30.4868 15.125 31.125 15.125C31.7632 15.125 32.3752 15.3785 32.8265 15.8298C33.2777 16.281 33.5313 16.8931 33.5313 17.5313Z" fill="#AA6100"/>
<path d="M31.125 19.25C32.0742 19.25 32.8438 18.4805 32.8438 17.5313C32.8438 16.582 32.0742 15.8125 31.125 15.8125C30.1758 15.8125 29.4062 16.582 29.4062 17.5313C29.4062 18.4805 30.1758 19.25 31.125 19.25Z" fill="#57565C"/>
<path d="M37.6563 11.6875V13.0625H36.625C36.625 12.8802 36.5526 12.7053 36.4236 12.5764C36.2947 12.4474 36.1198 12.375 35.9375 12.375C35.7552 12.375 35.5803 12.4474 35.4514 12.5764C35.3224 12.7053 35.25 12.8802 35.25 13.0625H30.4375C30.4375 12.8802 30.3651 12.7053 30.2361 12.5764C30.1072 12.4474 29.9323 12.375 29.75 12.375C29.5677 12.375 29.3928 12.4474 29.2639 12.5764C29.1349 12.7053 29.0625 12.8802 29.0625 13.0625H28.0312V11.3438C28.0312 11.2526 28.0675 11.1651 28.1319 11.1007C28.1964 11.0362 28.2838 11 28.375 11H36.9722L37.6563 11.6875Z" fill="#3D9AE2"/>
<path d="M30.7813 13.0625H30.4375C30.4375 12.8802 30.3651 12.7053 30.2361 12.5764C30.1072 12.4474 29.9323 12.375 29.75 12.375C29.5677 12.375 29.3928 12.4474 29.2639 12.5764C29.1349 12.7053 29.0625 12.8802 29.0625 13.0625H28.7188C28.7188 12.789 28.8274 12.5267 29.0208 12.3333C29.2142 12.1399 29.4765 12.0312 29.75 12.0312C30.0235 12.0312 30.2858 12.1399 30.4792 12.3333C30.6726 12.5267 30.7813 12.789 30.7813 13.0625Z" fill="#1E81CE"/>
<path d="M36.9688 13.0625H36.625C36.625 12.8802 36.5526 12.7053 36.4236 12.5764C36.2947 12.4474 36.1198 12.375 35.9375 12.375C35.7552 12.375 35.5803 12.4474 35.4514 12.5764C35.3224 12.7053 35.25 12.8802 35.25 13.0625H34.9062C34.9062 12.789 35.0149 12.5267 35.2083 12.3333C35.4017 12.1399 35.664 12.0312 35.9375 12.0312C36.211 12.0312 36.4733 12.1399 36.6667 12.3333C36.8601 12.5267 36.9688 12.789 36.9688 13.0625Z" fill="#1E81CE"/>
<path d="M46.25 17.5313H45.5625C45.5625 17.0754 45.3814 16.6382 45.0591 16.3159C44.7368 15.9936 44.2996 15.8125 43.8438 15.8125C43.3879 15.8125 42.9507 15.9936 42.6284 16.3159C42.3061 16.6382 42.125 17.0754 42.125 17.5313H41.4375C41.4375 16.8931 41.691 16.281 42.1423 15.8298C42.5935 15.3785 43.2056 15.125 43.8438 15.125C44.4819 15.125 45.094 15.3785 45.5452 15.8298C45.9965 16.281 46.25 16.8931 46.25 17.5313Z" fill="#CC7400"/>
<path d="M41.4375 13.0625H42.8125V13.75H41.4375V13.0625Z" fill="black"/>
<path d="M30.7812 17.1875H31.4688V17.875H30.7812V17.1875Z" fill="black"/>
<path d="M43.5 17.1875H44.1875V17.875H43.5V17.1875Z" fill="black"/>
<path d="M48.0753 11.5407L46.4037 8.44697C46.3152 8.28333 46.1842 8.14664 46.0245 8.05139C45.8647 7.95614 45.6822 7.90587 45.4962 7.90591H40.7916L29.9157 2.83697C29.8748 2.81782 29.8306 2.80695 29.7855 2.80501C29.7404 2.80306 29.6954 2.81007 29.6531 2.82563C29.6106 2.84104 29.5716 2.86466 29.5383 2.89516C29.5049 2.92565 29.478 2.96242 29.4588 3.00335L28.8779 4.25116C28.8587 4.29215 28.8477 4.33654 28.8457 4.38177C28.8437 4.42701 28.8506 4.4722 28.8661 4.51474C28.8816 4.55729 28.9054 4.59635 28.936 4.6297C28.9666 4.66304 29.0035 4.69 29.0446 4.70903L29.0625 4.71625V6.53091C29.0625 6.62208 29.0987 6.70951 29.1632 6.77398C29.2276 6.83844 29.3151 6.87466 29.4063 6.87466C29.4742 6.87466 29.5407 6.89482 29.5972 6.93259C29.6538 6.97036 29.6978 7.02405 29.7238 7.08686C29.7499 7.14967 29.7567 7.21879 29.7434 7.28547C29.7301 7.35215 29.6974 7.4134 29.6493 7.46148C29.6012 7.50955 29.54 7.54229 29.4733 7.55555C29.4066 7.56882 29.3375 7.56201 29.2747 7.53599C29.2119 7.50998 29.1582 7.46592 29.1204 7.40939C29.0827 7.35286 29.0625 7.2864 29.0625 7.21841H28.375C28.375 7.40746 28.427 7.59287 28.5253 7.75436C28.6236 7.91586 28.7644 8.04722 28.9323 8.13411C29.1002 8.22099 29.2888 8.26005 29.4774 8.24701C29.666 8.23397 29.8474 8.16933 30.0017 8.06017C30.1561 7.951 30.2774 7.80151 30.3526 7.62803C30.4277 7.45454 30.4537 7.26374 30.4277 7.07649C30.4017 6.88923 30.3248 6.71271 30.2053 6.56624C30.0857 6.41976 29.9282 6.30896 29.75 6.24594V5.03663L38.6875 9.20254V14.0934H28.0313C27.9401 14.0934 27.8526 14.1296 27.7882 14.1941C27.7237 14.2586 27.6875 14.346 27.6875 14.4372V17.1872C27.6875 17.3695 27.7599 17.5444 27.8889 17.6733C28.0178 17.8022 28.1927 17.8747 28.375 17.8747H29.0934C29.1742 18.355 29.4226 18.7913 29.7946 19.1059C30.1665 19.4205 30.6379 19.5931 31.125 19.5931C31.6121 19.5931 32.0835 19.4205 32.4554 19.1059C32.8274 18.7913 33.0758 18.355 33.1566 17.8747H41.8122C41.893 18.355 42.1414 18.7913 42.5133 19.1059C42.8852 19.4205 43.3566 19.5931 43.8438 19.5931C44.3309 19.5931 44.8023 19.4205 45.1742 19.1059C45.5461 18.7913 45.7945 18.355 45.8753 17.8747H47.2813C47.5548 17.8747 47.8171 17.766 48.0105 17.5726C48.2039 17.3792 48.3125 17.1169 48.3125 16.8434V12.4118C48.3132 12.1054 48.2312 11.8045 48.0753 11.5407ZM45.7987 8.77388L47.373 11.6872H42.125V8.59341H45.4962C45.5582 8.59341 45.619 8.61018 45.6723 8.64195C45.7255 8.67373 45.7692 8.71931 45.7987 8.77388ZM29.937 3.60525L40.0625 8.3246V9.08532L29.6469 4.22985L29.937 3.60525ZM39.375 9.52325L40.0625 9.84363V14.0934H39.375V9.52325ZM31.125 18.9059C30.8531 18.9059 30.5872 18.8253 30.3611 18.6742C30.135 18.5231 29.9587 18.3083 29.8547 18.0571C29.7506 17.8059 29.7234 17.5294 29.7764 17.2627C29.8295 16.9959 29.9604 16.7509 30.1527 16.5586C30.345 16.3663 30.59 16.2354 30.8568 16.1823C31.1235 16.1293 31.3999 16.1565 31.6512 16.2606C31.9024 16.3646 32.1172 16.5409 32.2683 16.767C32.4194 16.9931 32.5 17.259 32.5 17.5309C32.5 17.8956 32.3551 18.2453 32.0973 18.5032C31.8394 18.761 31.4897 18.9059 31.125 18.9059ZM31.125 15.4684C30.6381 15.4693 30.1671 15.6423 29.7954 15.9568C29.4236 16.2713 29.175 16.7071 29.0934 17.1872H28.375V14.7809H40.0625V17.1872H33.1566C33.075 16.7071 32.8264 16.2713 32.4546 15.9568C32.0829 15.6423 31.6119 15.4693 31.125 15.4684ZM43.8438 18.9059C43.5718 18.9059 43.306 18.8253 43.0798 18.6742C42.8537 18.5231 42.6775 18.3083 42.5734 18.0571C42.4693 17.8059 42.4421 17.5294 42.4952 17.2627C42.5482 16.9959 42.6792 16.7509 42.8715 16.5586C43.0638 16.3663 43.3088 16.2354 43.5755 16.1823C43.8422 16.1293 44.1187 16.1565 44.3699 16.2606C44.6212 16.3646 44.8359 16.5409 44.987 16.767C45.1381 16.9931 45.2188 17.259 45.2188 17.5309C45.2188 17.8956 45.0739 18.2453 44.816 18.5032C44.5582 18.761 44.2084 18.9059 43.8438 18.9059ZM47.2813 17.1872H45.8753C45.7945 16.7068 45.5461 16.2706 45.1742 15.956C44.8023 15.6414 44.3309 15.4687 43.8438 15.4687C43.3566 15.4687 42.8852 15.6414 42.5133 15.956C42.1414 16.2706 41.893 16.7068 41.8122 17.1872H40.75V8.59341H41.4375V12.0309C41.4375 12.1221 41.4737 12.2095 41.5382 12.274C41.6026 12.3384 41.6901 12.3747 41.7813 12.3747H47.6198C47.6198 12.387 47.625 12.3991 47.625 12.4118V13.0622H46.25C46.0677 13.0622 45.8928 13.1346 45.7639 13.2635C45.6349 13.3925 45.5625 13.5673 45.5625 13.7497V14.4372C45.5625 14.6195 45.6349 14.7944 45.7639 14.9233C45.8928 15.0522 46.0677 15.1247 46.25 15.1247H47.625V15.8122H46.5938V16.4997H47.625V16.8434C47.625 16.9346 47.5888 17.022 47.5243 17.0865C47.4599 17.1509 47.3724 17.1872 47.2813 17.1872ZM47.625 13.7497V14.4372H46.25V13.7497H47.625Z" fill="black"/>
<path d="M30.718 13.4063H34.9695C35.0395 13.6072 35.1703 13.7814 35.3438 13.9046C35.5172 14.0279 35.7247 14.0941 35.9375 14.0941C36.1503 14.0941 36.3578 14.0279 36.5312 13.9046C36.7047 13.7814 36.8355 13.6072 36.9055 13.4063H37.6563C37.7474 13.4063 37.8349 13.37 37.8993 13.3056C37.9638 13.2411 38 13.1537 38 13.0625V11.6875C38.0001 11.5966 37.9641 11.5093 37.9 11.4448L37.2156 10.7573C37.1836 10.7253 37.1456 10.6998 37.1038 10.6825C37.062 10.6651 37.0171 10.6562 36.9718 10.6563H36.4084L34.0988 8.6766C34.0365 8.62315 33.9571 8.59376 33.875 8.59376H30.8624C30.6707 8.59309 30.4828 8.64613 30.3198 8.74687C30.1567 8.8476 30.0252 8.99201 29.9401 9.16369L29.1938 10.6563H28.375C28.1927 10.6563 28.0178 10.7287 27.8889 10.8576C27.7599 10.9866 27.6875 11.1614 27.6875 11.3438V13.0625C27.6875 13.1537 27.7237 13.2411 27.7882 13.3056C27.8526 13.37 27.9401 13.4063 28.0313 13.4063H28.782C28.852 13.6072 28.9828 13.7814 29.1563 13.9046C29.3297 14.0279 29.5372 14.0941 29.75 14.0941C29.9628 14.0941 30.1703 14.0279 30.3437 13.9046C30.5172 13.7814 30.648 13.6072 30.718 13.4063ZM35.9375 13.4063C35.8695 13.4063 35.8031 13.3861 35.7465 13.3483C35.69 13.3106 35.6459 13.2569 35.6199 13.1941C35.5939 13.1312 35.5871 13.0621 35.6004 12.9954C35.6136 12.9288 35.6464 12.8675 35.6944 12.8194C35.7425 12.7714 35.8038 12.7386 35.8704 12.7254C35.9371 12.7121 36.0062 12.7189 36.069 12.7449C36.1319 12.7709 36.1855 12.815 36.2233 12.8715C36.2611 12.9281 36.2813 12.9945 36.2813 13.0625C36.2813 13.1537 36.245 13.2411 36.1806 13.3056C36.1161 13.37 36.0287 13.4063 35.9375 13.4063ZM35.3531 10.6563H32.8438V9.28126H33.7478L35.3531 10.6563ZM30.5551 9.47135C30.5834 9.41411 30.6272 9.36595 30.6815 9.33235C30.7359 9.29875 30.7985 9.28105 30.8624 9.28126H32.1563V10.6563H29.9624L30.5551 9.47135ZM28.375 11.3438H36.8292L37.3125 11.8295V12.7188H36.9055C36.8355 12.5178 36.7047 12.3436 36.5312 12.2204C36.3578 12.0971 36.1503 12.0309 35.9375 12.0309C35.7247 12.0309 35.5172 12.0971 35.3438 12.2204C35.1703 12.3436 35.0395 12.5178 34.9695 12.7188H30.718C30.648 12.5178 30.5172 12.3436 30.3437 12.2204C30.1703 12.0971 29.9628 12.0309 29.75 12.0309C29.5372 12.0309 29.3297 12.0971 29.1563 12.2204C28.9828 12.3436 28.852 12.5178 28.782 12.7188H28.375V11.3438ZM29.75 13.4063C29.682 13.4063 29.6156 13.3861 29.559 13.3483C29.5025 13.3106 29.4584 13.2569 29.4324 13.1941C29.4064 13.1312 29.3996 13.0621 29.4129 12.9954C29.4261 12.9288 29.4589 12.8675 29.5069 12.8194C29.555 12.7714 29.6163 12.7386 29.6829 12.7254C29.7496 12.7121 29.8187 12.7189 29.8815 12.7449C29.9444 12.7709 29.998 12.815 30.0358 12.8715C30.0736 12.9281 30.0938 12.9945 30.0938 13.0625C30.0938 13.1537 30.0575 13.2411 29.9931 13.3056C29.9286 13.37 29.8412 13.4063 29.75 13.4063Z" fill="black"/>
<path d="M68.0969 12.47H68.4617C68.9049 12.47 69.2654 12.8305 69.2654 13.2737C69.2654 13.7169 68.9049 14.0774 68.4617 14.0774H67.8609L67.7945 15.3546C67.7791 15.6484 67.8808 15.9262 68.0805 16.1366C68.2802 16.3469 68.5516 16.4626 68.8453 16.4626H70.0398L70.2612 10.7634C70.2867 10.1113 70.4605 9.45714 70.7779 8.81923L70.8113 8.75195L70.773 8.78042C69.4688 9.75172 68.5076 11.0823 68.0969 12.47Z" fill="#DBCA0B"/>
<path d="M68.644 13.2733C68.644 13.1732 68.5626 13.0918 68.4625 13.0918H61.998C62.0298 13.2117 62.0574 13.3328 62.0811 13.4548H68.4625C68.5625 13.4548 68.644 13.3734 68.644 13.2733Z" fill="#FFEC6B"/>
<path d="M60.5059 4.37263C60.5059 4.54449 60.3667 4.68375 60.1948 4.68375H57.5926V9.07482C58.2678 9.18869 58.9181 9.42449 59.5074 9.77869C60.232 10.214 61.1376 10.232 61.8708 9.82559L62.1832 9.65236L60.8988 4.44721C60.8759 4.35437 60.897 4.25611 60.956 4.18087C61.015 4.1055 61.1053 4.06155 61.2009 4.06155H61.5363C61.642 4.06155 61.7281 3.97548 61.7281 3.86966C61.7281 3.76384 61.642 3.67773 61.5363 3.67773H54.6529C54.547 3.67773 54.4609 3.76384 54.4609 3.86966C54.4609 3.97548 54.547 4.06155 54.6529 4.06155H60.1948C60.3667 4.0615 60.5059 4.20076 60.5059 4.37263Z" fill="#FFF296"/>
<path d="M64.8716 15.0361C63.9893 15.0361 63.2715 15.7539 63.2715 16.6362C63.2715 17.5186 63.9893 18.2363 64.8716 18.2363C65.754 18.2363 66.4716 17.5185 66.4716 16.6362C66.4716 15.7539 65.7539 15.0361 64.8716 15.0361ZM64.8716 17.7943C64.233 17.7943 63.7135 17.2748 63.7135 16.6362C63.7135 15.9977 64.233 15.4782 64.8716 15.4782C65.0434 15.4782 65.1828 15.6174 65.1828 15.7893C65.1828 15.9611 65.0434 16.1004 64.8716 16.1004C64.5761 16.1004 64.3357 16.3408 64.3357 16.6363C64.3357 16.9317 64.5761 17.1721 64.8716 17.1721C65.167 17.1721 65.4074 16.9317 65.4074 16.6363C65.4074 16.4644 65.5468 16.3252 65.7185 16.3252C65.8903 16.3252 66.0296 16.4644 66.0296 16.6363C66.0296 17.2748 65.5101 17.7943 64.8716 17.7943Z" fill="#A3A3A3"/>
<path d="M56.4513 10.9395C54.4395 10.9395 52.8027 12.5762 52.8027 14.5879C52.8027 16.5998 54.4395 18.2365 56.4513 18.2365C58.4631 18.2365 60.0998 16.5998 60.0998 14.5879C60.0998 12.5762 58.4631 10.9395 56.4513 10.9395ZM56.4513 16.7883C55.238 16.7883 54.251 15.8012 54.251 14.5879C54.251 13.3746 55.238 12.3876 56.4513 12.3876C57.6646 12.3876 58.6516 13.3746 58.6516 14.5879C58.6516 15.8012 57.6646 16.7883 56.4513 16.7883Z" fill="#A3A3A3"/>
<path d="M56.451 13.0098C55.581 13.0098 54.873 13.7177 54.873 14.5879C54.873 15.4581 55.581 16.166 56.451 16.166C57.3212 16.166 58.0291 15.4581 58.0291 14.5879C58.0291 13.7177 57.3212 13.0098 56.451 13.0098ZM56.451 15.7022C55.8366 15.7022 55.3368 15.2023 55.3368 14.5879C55.3368 14.416 55.476 14.2767 55.6479 14.2767C55.8198 14.2767 55.959 14.416 55.959 14.5879C55.959 14.8592 56.1797 15.08 56.451 15.08C56.7223 15.08 56.9431 14.8592 56.9431 14.5879C56.9431 14.3166 56.7223 14.0959 56.451 14.0959C56.2792 14.0959 56.1399 13.9566 56.1399 13.7847C56.1399 13.6129 56.2792 13.4736 56.451 13.4736C57.0654 13.4736 57.5654 13.9734 57.5654 14.5879C57.5654 15.2023 57.0655 15.7022 56.451 15.7022Z" fill="#DBCA0B"/>
<path d="M64.8715 14.4138C65.2221 14.4138 65.5527 14.4977 65.8479 14.6429L65.9149 14.0768H62.1644C62.1754 14.2187 62.1824 14.3611 62.1824 14.5041C62.1824 14.676 62.0431 14.8152 61.8713 14.8152C61.6995 14.8152 61.5602 14.676 61.5602 14.5041C61.5602 13.6172 61.3203 12.7488 60.8664 11.9926C60.778 11.8453 60.8257 11.6542 60.973 11.5657C61.1202 11.4772 61.3116 11.5251 61.3999 11.6724C61.5529 11.9273 61.6816 12.1946 61.7908 12.4693H66.1053L66.2304 11.4113L62.5715 10.1484L62.1723 10.3699C61.2455 10.8841 60.1015 10.8619 59.1867 10.3121C58.43 9.85752 57.5609 9.61719 56.6733 9.61719C55.5468 9.61719 54.4883 9.98965 53.6125 10.6944C53.4686 10.8101 53.3809 10.9813 53.3719 11.1639C53.3653 11.2978 53.4004 11.4252 53.4714 11.534C54.2415 10.7823 55.2924 10.3169 56.4511 10.3169C58.8061 10.3169 60.7219 12.2327 60.7219 14.5876C60.7219 14.9737 60.6658 15.346 60.5694 15.7019H62.8578C63.2116 14.9426 63.9801 14.4138 64.8715 14.4138Z" fill="#19B041"/>
<path d="M65.6853 10.5642L65.8133 10.0814C65.8532 9.93168 65.77 9.7739 65.624 9.7222L62.5752 8.6416L62.8042 9.56978L65.6853 10.5642Z" fill="#A3A3A3"/>
<path d="M56.9705 9.00466V4.68359H55.618L54.8809 9.29695C55.4547 9.09943 56.0609 8.99463 56.6738 8.99463C56.773 8.99463 56.8718 8.99938 56.9705 9.00466Z" fill="#DBCA0B"/>
<path d="M65.7189 16.3245C65.5471 16.3245 65.4078 16.4638 65.4078 16.6357C65.4078 16.9311 65.1674 17.1715 64.872 17.1715C64.5765 17.1715 64.3361 16.931 64.3361 16.6357C64.3361 16.3402 64.5765 16.0998 64.872 16.0998C65.0438 16.0998 65.1832 15.9605 65.1832 15.7887C65.1832 15.6168 65.0438 15.4775 64.872 15.4775C64.2334 15.4775 63.7139 15.997 63.7139 16.6356C63.7139 17.2741 64.2334 17.7937 64.872 17.7937C65.5105 17.7937 66.03 17.2741 66.03 16.6356C66.03 16.4638 65.8907 16.3245 65.7189 16.3245Z" fill="#333333"/>
<path d="M56.4522 12.3877C55.239 12.3877 54.252 13.3747 54.252 14.588C54.252 15.8013 55.239 16.7884 56.4522 16.7884C57.6655 16.7884 58.6525 15.8013 58.6525 14.588C58.6525 13.3747 57.6655 12.3877 56.4522 12.3877ZM56.4522 16.1662C55.5822 16.1662 54.8742 15.4582 54.8742 14.588C54.8742 13.7179 55.5822 13.0099 56.4522 13.0099C57.3224 13.0099 58.0303 13.7179 58.0303 14.588C58.0303 15.4582 57.3224 16.1662 56.4522 16.1662Z" fill="#333333"/>
<path d="M56.4512 13.4736C56.2793 13.4736 56.14 13.6129 56.14 13.7848C56.14 13.9566 56.2793 14.0959 56.4512 14.0959C56.7225 14.0959 56.9433 14.3166 56.9433 14.5879C56.9433 14.8592 56.7225 15.08 56.4512 15.08C56.1799 15.08 55.9592 14.8592 55.9592 14.5879C55.9592 14.416 55.8199 14.2768 55.648 14.2768C55.4762 14.2768 55.3369 14.416 55.3369 14.5879C55.3369 15.2023 55.8367 15.7022 56.4512 15.7022C57.0656 15.7022 57.5655 15.2023 57.5655 14.5879C57.5655 13.9734 57.0656 13.4736 56.4512 13.4736Z" fill="#333333"/>
<path d="M71.4838 7.47529L70.4018 8.28084C68.9365 9.37182 67.8706 10.8907 67.4524 12.4694H66.732L66.8781 11.2356C66.8954 11.0904 66.8091 10.9526 66.6707 10.9049L66.2747 10.7682L66.4144 10.2415C66.5366 9.78089 66.2806 9.29535 65.8313 9.13616L62.3962 7.91863L61.5975 4.68168C62.0178 4.65031 62.3502 4.29814 62.3502 3.86984C62.3502 3.42086 61.9851 3.05566 61.5362 3.05566H54.6528C54.2039 3.05566 53.8387 3.42086 53.8387 3.86984C53.8387 4.31877 54.2039 4.68402 54.6528 4.68402H54.9876L54.2044 9.58531C53.8579 9.75889 53.5269 9.96485 53.2227 10.2096C52.9405 10.4368 52.7684 10.7734 52.7507 11.1334C52.7349 11.4548 52.8453 11.7685 53.0543 12.0101C52.5086 12.7275 52.1807 13.619 52.1807 14.5878C52.1807 16.9427 54.0965 18.8586 56.4514 18.8586C58.1878 18.8586 59.6825 17.8155 60.3495 16.3243H62.6739C62.6594 16.4266 62.6494 16.5301 62.6494 16.6363C62.6494 17.8616 63.6464 18.8586 64.8718 18.8586C66.0971 18.8586 67.094 17.8616 67.094 16.6363C67.094 16.0158 66.8378 15.4546 66.4263 15.051L66.5416 14.0769H67.238L67.1732 15.3217C67.1489 15.7877 67.3109 16.229 67.6294 16.5646C67.9476 16.8998 68.3794 17.0844 68.8455 17.0844H70.9021C71.0738 17.0844 71.2132 16.9452 71.2132 16.7733C71.2132 16.6015 71.0738 16.4622 70.9021 16.4622H70.6626L70.8832 10.7872C70.9051 10.2236 71.0572 9.65456 71.3351 9.09594L71.948 7.86341C72.0123 7.73449 71.9794 7.57838 71.869 7.48616C71.7589 7.39389 71.5994 7.38931 71.4838 7.47529ZM65.6235 9.72272C65.7695 9.77438 65.8528 9.93216 65.8129 10.0819L65.6848 10.5647L62.8038 9.57035L62.5747 8.64217L65.6235 9.72272ZM54.6528 4.06177C54.547 4.06177 54.4609 3.9757 54.4609 3.86988C54.4609 3.76406 54.547 3.67796 54.6528 3.67796H61.5362C61.6419 3.67796 61.728 3.76406 61.728 3.86988C61.728 3.9757 61.6419 4.06177 61.5362 4.06177H61.2009C61.1053 4.06177 61.0149 4.10572 60.956 4.1811C60.8969 4.25634 60.8759 4.35459 60.8987 4.44743L62.1832 9.65258L61.8708 9.82581C61.1375 10.2322 60.2319 10.2142 59.5074 9.77891C58.918 9.42471 58.2678 9.18891 57.5925 9.07504V4.68397H60.1947C60.3666 4.68397 60.5059 4.54471 60.5059 4.37285C60.5059 4.20098 60.3666 4.06172 60.1947 4.06172L54.6528 4.06177ZM55.6179 4.68402H56.9703V9.00508C56.8716 8.9998 56.7728 8.99505 56.6736 8.99505C56.0607 8.99505 55.4545 9.09986 54.8807 9.29737L55.6179 4.68402ZM56.4514 18.2364C54.4396 18.2364 52.8029 16.5996 52.8029 14.5878C52.8029 12.576 54.4396 10.9393 56.4514 10.9393C58.4632 10.9393 60.1 12.576 60.1 14.5878C60.1 16.5996 58.4632 18.2364 56.4514 18.2364ZM60.5697 15.7021C60.6662 15.3461 60.7223 14.9738 60.7223 14.5878C60.7223 12.2329 58.8064 10.317 56.4514 10.317C55.2927 10.317 54.2418 10.7824 53.4717 11.5342C53.4007 11.4254 53.3656 11.298 53.3722 11.164C53.3812 10.9814 53.4689 10.8103 53.6128 10.6945C54.4887 9.9898 55.5471 9.61734 56.6736 9.61734C57.5613 9.61734 58.4303 9.85767 59.187 10.3123C60.1018 10.8621 61.2458 10.8843 62.1726 10.37L62.5718 10.1486L66.2307 11.4114L66.1056 12.4695H61.7911C61.6819 12.1948 61.5532 11.9275 61.4002 11.6725C61.3119 11.5253 61.1205 11.4774 60.9733 11.5659C60.826 11.6543 60.7783 11.8455 60.8667 11.9928C61.3206 12.7489 61.5605 13.6173 61.5605 14.5042C61.5605 14.6761 61.6998 14.8154 61.8716 14.8154C62.0434 14.8154 62.1827 14.6761 62.1827 14.5042C62.1827 14.3612 62.1757 14.2188 62.1647 14.077H65.9152L65.8482 14.6431C65.553 14.4979 65.2224 14.414 64.8718 14.414C63.9803 14.414 63.2119 14.9428 62.8581 15.7021H60.5697V15.7021ZM66.4718 16.6363C66.4718 17.5186 65.7542 18.2364 64.8718 18.2364C63.9895 18.2364 63.2717 17.5186 63.2717 16.6363C63.2717 15.754 63.9896 15.0362 64.8718 15.0362C65.7541 15.0362 66.4718 15.754 66.4718 16.6363ZM62.0805 13.4547C62.0569 13.3327 62.0292 13.2117 61.9975 13.0917H68.4619C68.562 13.0917 68.6434 13.1731 68.6434 13.2732C68.6434 13.3732 68.562 13.4547 68.4619 13.4547H62.0805ZM70.7781 8.81874C70.4607 9.4567 70.2869 10.1108 70.2614 10.7629L70.04 16.4622H68.8455C68.5519 16.4622 68.2804 16.3464 68.0807 16.1362C67.881 15.9257 67.7793 15.6479 67.7947 15.3541L67.8611 14.0769H68.4619C68.9051 14.0769 69.2656 13.7164 69.2656 13.2732C69.2656 12.83 68.9051 12.4695 68.4619 12.4695H68.0971C68.5078 11.0818 69.469 9.75123 70.7732 8.77998L70.8115 8.75151L70.7781 8.81874Z" fill="#333333"/>
<defs>
<clipPath id="clip0_15_5477">
<rect width="22" height="22" fill="white" transform="translate(2.88867)"/>
</clipPath>
</defs>
</svg>
