<svg width="128" height="128" viewBox="0 0 128 128" fill="none" xmlns="http://www.w3.org/2000/svg">
<path d="M64.0019 128C99.3482 128 128.002 99.3462 128.002 64C128.002 28.6538 99.3482 0 64.0019 0C28.6557 0 0.00195312 28.6538 0.00195312 64C0.00195312 99.3462 28.6557 128 64.0019 128Z" fill="#D6E3F0"/>
<mask id="mask0_10_36198" style="mask-type:luminance" maskUnits="userSpaceOnUse" x="0" y="0" width="128" height="128">
<path d="M64 128C99.3462 128 128 99.3462 128 64C128 28.6538 99.3462 0 64 0C28.6538 0 0 28.6538 0 64C0 99.3462 28.6538 128 64 128Z" fill="white"/>
</mask>
<g mask="url(#mask0_10_36198)">
<path d="M107.955 140.859H20.0468C19.5578 140.859 19.1178 140.614 18.8733 140.223C18.58 139.832 18.5311 139.343 18.6777 138.903C22.3936 128.489 26.6472 118.173 31.292 108.248C32.5143 105.607 34.91 103.847 37.6969 103.456C37.7457 103.456 37.8435 103.456 37.8924 103.456H55.5914V98.0291C47.1331 95.0466 40.7282 87.7617 38.8214 79.01C38.6258 79.01 38.4302 79.01 38.2347 79.01C32.6609 79.01 28.3095 72.2628 28.3095 66.4446C28.3095 61.8977 31.0964 58.8663 35.839 58.133C35.7901 52.8526 36.5234 47.1322 37.0613 43.8075C36.3279 42.243 35.9367 40.4339 35.7412 39.4072L32.2698 38.2827C31.7809 38.136 31.3898 37.696 31.292 37.1582C31.1942 36.6203 31.3898 36.0825 31.8298 35.7892L35.7412 32.709L31.5853 27.1841C31.2431 26.7441 31.1942 26.1085 31.4875 25.6196C31.732 25.1307 32.2698 24.8373 32.8565 24.8373L46.5463 25.6196L45.5685 19.997C45.4707 19.5081 45.6663 19.0191 46.0085 18.6769C46.3508 18.3346 46.8886 18.2368 47.3286 18.3346L62.6319 22.1971L61.0185 16.6234C60.8718 16.0856 61.0185 15.5478 61.4096 15.1566C61.8008 14.7655 62.3875 14.6677 62.8764 14.8633L78.8153 20.4859L80.4287 17.1612C80.6732 16.6723 81.1621 16.379 81.6999 16.3301C82.2377 16.3301 82.7266 16.6234 83.02 17.1123L89.8649 30.2644C89.9627 30.411 90.0116 30.5577 90.0116 30.7533L91.3317 41.4118C91.4784 42.1941 93.0429 50.6524 92.9451 58.2796C97.2477 59.2086 99.6923 62.1421 99.6923 66.4446C99.6923 72.2139 95.3897 78.9611 89.816 79.01C89.376 81.0145 88.7404 82.9213 87.8603 84.7304C87.5181 85.4637 87.078 86.246 86.638 86.9305C86.198 87.6639 85.7091 88.3484 85.2202 89.0329C84.7312 89.7174 84.1934 90.353 83.6067 90.9397C83.0689 91.5753 82.4333 92.162 81.8466 92.6998C79.0108 95.2911 75.5884 97.2468 71.8726 98.3713V103.407H90.1094C90.1583 103.407 90.256 103.407 90.3049 103.407C93.0918 103.798 95.4875 105.558 96.7098 108.199C101.355 118.124 105.608 128.391 109.324 138.854C109.471 139.294 109.422 139.783 109.128 140.174C108.835 140.614 108.395 140.859 107.955 140.859ZM22.1002 137.974H105.902C102.381 128.293 98.4211 118.759 94.0696 109.519C93.2874 107.808 91.7228 106.634 89.9627 106.39H70.4058C69.6235 106.39 68.939 105.754 68.939 104.923V97.3446C68.939 96.6601 69.379 96.1223 70.0146 95.9267C73.6327 94.9977 77.0551 93.1887 79.842 90.6463C80.3798 90.1574 80.9176 89.6196 81.4066 89.0818C81.8955 88.544 82.3844 87.9572 82.8244 87.3705C83.2645 86.7838 83.7045 86.1482 84.0956 85.5126C84.4868 84.877 84.829 84.1926 85.1712 83.5569C86.1002 81.6013 86.7847 79.4989 87.1269 77.2987C87.2736 76.5164 87.9581 75.9786 88.7404 76.1253C89.0826 76.1742 89.376 76.1742 89.6693 76.1742C92.7496 76.1742 96.7098 71.6272 96.7098 66.4935C96.7098 63.2666 94.8519 61.4087 91.2339 60.9687C90.5005 60.8709 89.9138 60.2353 89.9627 59.453C90.2561 51.6792 88.3982 41.9985 88.3982 41.9007C88.3982 41.8518 88.3982 41.8518 88.3982 41.8029L87.0781 31.34L81.6999 20.9748L80.7709 22.8816C80.4287 23.5661 79.6953 23.8595 79.0108 23.615L64.5387 18.5302L66.1033 23.8106C66.2499 24.2995 66.1033 24.8373 65.761 25.2284C65.4188 25.6196 64.881 25.7663 64.3431 25.6196L48.7954 21.7082L49.7243 26.9397C49.8221 27.3797 49.6755 27.8197 49.3821 28.162C49.0888 28.5042 48.6487 28.6509 48.2087 28.6509L35.79 27.9664L38.9192 32.1223C39.4081 32.7579 39.2614 33.6379 38.6747 34.1268L35.79 36.3759L37.5013 36.9626C38.0391 37.1582 38.4302 37.5982 38.4791 38.136C38.4791 38.1849 38.8703 41.0207 39.897 42.9275C40.0437 43.2208 40.0926 43.5142 40.0437 43.8075C39.5059 47.1811 38.6258 53.6838 38.8214 59.3553C38.8703 60.1375 38.2347 60.822 37.4524 60.8709C34.6166 61.0665 31.2431 62.1421 31.2431 66.4446C31.2431 71.5783 35.1545 76.1253 38.2836 76.1253C38.7725 76.1253 39.2614 76.0764 39.7014 75.9786C40.0926 75.8809 40.4837 75.9786 40.826 76.1742C41.1682 76.4187 41.3638 76.7609 41.4616 77.1521C42.8305 85.806 49.1376 93.042 57.4982 95.5844C58.0849 95.78 58.525 96.3178 58.525 96.9534V104.874C58.525 105.656 57.8894 106.341 57.0582 106.341H37.9902C36.2301 106.634 34.7144 107.808 33.8833 109.47C29.5807 118.71 25.6205 128.293 22.1002 137.974Z" fill="white"/>
</g>
<mask id="mask1_10_36198" style="mask-type:luminance" maskUnits="userSpaceOnUse" x="0" y="0" width="128" height="128">
<path d="M64 128C99.3462 128 128 99.3462 128 64C128 28.6538 99.3462 0 64 0C28.6538 0 0 28.6538 0 64C0 99.3462 28.6538 128 64 128Z" fill="white"/>
</mask>
<g mask="url(#mask1_10_36198)">
<path d="M70.4551 91.1357H57.0586V108.639H70.4551V91.1357Z" fill="#F9C9AA"/>
<path d="M38.8704 41.6561C38.8704 41.6561 36.3769 54.4659 37.5503 62.8265C38.3326 68.3024 43.1729 51.0923 43.1729 51.0923L38.8704 41.6561Z" fill="#562800"/>
<path d="M89.8162 41.6561C89.8162 41.6561 92.3097 54.4659 91.1363 62.8265C90.354 68.3024 85.5137 51.0923 85.5137 51.0923L89.8162 41.6561Z" fill="#562800"/>
<path d="M44.2006 74.9524C42.685 76.6148 40.5337 77.5926 38.1869 77.5926C33.4932 77.5926 29.7285 71.4811 29.7285 66.494C29.7285 61.4581 33.5421 59.4047 38.1869 59.4047C40.387 59.4047 42.3916 60.2847 43.8584 61.7515L44.2006 74.9524Z" fill="#F9D6BE"/>
<path d="M83.7031 74.9524C85.2188 76.6148 87.3701 77.5926 89.7169 77.5926C94.4106 77.5926 98.1753 71.4811 98.1753 66.494C98.1753 61.4581 94.3617 59.4047 89.7169 59.4047C87.5167 59.4047 85.5121 60.2847 84.0454 61.7515L83.7031 74.9524Z" fill="#F9D6BE"/>
<path d="M39.6523 45.3231V73.4851C39.6523 87.0771 50.6531 98.1268 64.2941 98.1268C77.8861 98.1268 88.9358 87.126 88.9358 73.4851V45.3231H39.6523Z" fill="#F9D6BE"/>
<path d="M88.9344 73.485V45.323H63.1193V65.0266L58.5234 77.6408H63.1193V98.0778C63.5105 98.0778 63.9016 98.1267 64.3416 98.1267C77.8848 98.0778 88.9344 87.077 88.9344 73.485Z" fill="#F9C9AA"/>
<path d="M55.8861 62.6801C55.8861 65.4181 54.3215 67.6672 52.4147 67.6672C50.5079 67.6672 48.9434 65.4181 48.9434 62.6801C48.9434 59.9422 50.5079 57.6931 52.4147 57.6931C54.3704 57.6931 55.8861 59.9422 55.8861 62.6801Z" fill="#3F1600"/>
<path d="M79.304 62.6801C79.304 65.4181 77.7395 67.6672 75.8327 67.6672C73.9259 67.6672 72.3613 65.4181 72.3613 62.6801C72.3613 59.9422 73.9259 57.6931 75.8327 57.6931C77.7395 57.6931 79.304 59.9422 79.304 62.6801Z" fill="#3F1600"/>
<path d="M56.0801 84.1433L72.5079 81.552C72.5079 81.552 72.5079 89.0814 63.8051 90.2548C57.0091 91.1838 56.0801 84.1433 56.0801 84.1433Z" fill="#A0174D"/>
<path d="M72.507 81.552C72.507 81.552 72.3115 83.361 72.1159 83.7033C71.8715 84.1922 65.271 86.099 59.0128 85.9523C57.106 85.9034 56.7148 83.9966 56.7148 83.9966L72.507 81.552Z" fill="white"/>
<path d="M57.2544 55.9821C57.1566 55.9821 57.1077 55.9821 57.01 55.9332C53.1475 54.5154 49.8228 55.151 47.6715 55.9332C47.3293 56.0799 46.9381 55.8843 46.7915 55.5421C46.6448 55.1998 46.8404 54.8087 47.1826 54.662C49.5294 53.8309 53.1964 53.1464 57.4011 54.662C57.7433 54.8087 57.9389 55.1509 57.7922 55.5421C57.7922 55.8354 57.5478 55.9821 57.2544 55.9821Z" fill="#562800"/>
<path d="M80.7212 55.9817C80.6234 55.9817 80.5745 55.9817 80.4768 55.9328C76.6143 54.5149 73.2896 55.1505 71.1383 55.9328C70.7961 56.0795 70.4049 55.8839 70.2583 55.5417C70.1116 55.1994 70.3072 54.8083 70.6494 54.6616C72.9962 53.8304 76.6631 53.1459 80.8679 54.6616C81.2101 54.8083 81.4057 55.1505 81.259 55.5417C81.259 55.835 80.9657 55.9817 80.7212 55.9817Z" fill="#562800"/>
<path d="M42.6827 47.6213C42.6827 47.6213 40.6292 57.0575 40.6781 67.6671C40.6781 69.6228 39.7002 68.4983 39.7002 68.4983V59.4532L38.918 59.4043L39.2113 44.9811L44.6873 45.2744L42.6827 47.6213Z" fill="#562800"/>
<path d="M85.9539 47.621C85.9539 47.621 88.0073 57.0572 87.9584 67.6668C87.9584 69.6225 88.9363 68.498 88.9363 68.498V59.4529L89.7186 59.404L88.9363 45.2742H83.9004L85.9539 47.621Z" fill="#562800"/>
<path d="M95.3898 108.883C94.3142 106.634 92.3096 105.217 90.1095 104.923H84.2424H80.9666H47.0842H43.8085H37.9414C35.7412 105.217 33.6878 106.683 32.661 108.883C27.9674 118.857 23.7626 129.027 20.0957 139.392H30.8031H34.3233H93.8253H97.3455H108.053C104.239 129.027 100.083 118.857 95.3898 108.883Z" fill="#EFEFEF"/>
<path d="M63.708 111.621C67.4074 111.621 70.4063 108.622 70.4063 104.923C70.4063 101.224 67.4074 98.2247 63.708 98.2247C60.0087 98.2247 57.0098 101.224 57.0098 104.923C57.0098 108.622 60.0087 111.621 63.708 111.621Z" fill="#F9C9AA"/>
<path d="M40.2405 45.5677L63.0732 47.5233L86.786 45.5677L89.6706 45.9099L89.7684 41.7052L88.3994 30.9978L81.5545 17.8457L79.3543 22.3438L62.1931 16.3301L64.54 24.3484L46.792 19.8503L48.1121 27.2819L32.6133 26.4019L37.6492 33.0512L32.6133 36.9626L36.9158 38.3805C36.9647 38.3316 37.7959 44.3453 40.2405 45.5677Z" fill="#562800"/>
</g>
</svg>
