<svg width="80" height="80" viewBox="0 0 80 80" fill="none" xmlns="http://www.w3.org/2000/svg">
<path d="M48.75 52.5V63.75H21.25C21.25 62.0924 20.5915 60.5027 19.4194 59.3306C18.2473 58.1585 16.6576 57.5 15 57.5C13.3424 57.5 11.7527 58.1585 10.5806 59.3306C9.40848 60.5027 8.75 62.0924 8.75 63.75H5C4.66848 63.75 4.35054 63.6183 4.11612 63.3839C3.8817 63.1495 3.75 62.8315 3.75 62.5V52.5H48.75Z" fill="#CC7400"/>
<path d="M10 50C11.3807 50 12.5 48.8807 12.5 47.5C12.5 46.1193 11.3807 45 10 45C8.61929 45 7.5 46.1193 7.5 47.5C7.5 48.8807 8.61929 50 10 50Z" fill="#57565C"/>
<path d="M32.5 50C33.8807 50 35 48.8807 35 47.5C35 46.1193 33.8807 45 32.5 45C31.1193 45 30 46.1193 30 47.5C30 48.8807 31.1193 50 32.5 50Z" fill="#57565C"/>
<path d="M20 32.5V40H8.75L11.8125 33.8875C12.0195 33.471 12.3385 33.1205 12.7338 32.8753C13.1291 32.6302 13.5849 32.5002 14.05 32.5H20Z" fill="#D1D3D4"/>
<path d="M33.75 40H20V32.5H25L33.75 40Z" fill="#E6E7E8"/>
<path d="M61.25 70C64.7018 70 67.5 67.2018 67.5 63.75C67.5 60.2982 64.7018 57.5 61.25 57.5C57.7982 57.5 55 60.2982 55 63.75C55 67.2018 57.7982 70 61.25 70Z" fill="#57565C"/>
<path d="M68.75 50V52.5C68.75 52.8315 68.8817 53.1495 69.1161 53.3839C69.3505 53.6183 69.6685 53.75 70 53.75H76.25V61.25C76.248 61.9124 75.984 62.5472 75.5156 63.0156C75.0472 63.484 74.4124 63.748 73.75 63.75H67.5C67.5 62.0924 66.8415 60.5027 65.6694 59.3306C64.4973 58.1585 62.9076 57.5 61.25 57.5C59.5924 57.5 58.0027 58.1585 56.8306 59.3306C55.6585 60.5027 55 62.0924 55 63.75H48.75V30H53.75V43.75H76.05C76.1854 44.2 76.2528 44.6676 76.25 45.1375V48.75H70C69.6685 48.75 69.3505 48.8817 69.1161 49.1161C68.8817 49.3505 68.75 49.6685 68.75 50Z" fill="#EE8700"/>
<path d="M76.25 48.75V53.75H70C69.6685 53.75 69.3505 53.6183 69.1161 53.3839C68.8817 53.1495 68.75 52.8315 68.75 52.5V50C68.75 49.6685 68.8817 49.3505 69.1161 49.1161C69.3505 48.8817 69.6685 48.75 70 48.75H76.25Z" fill="#E6E7E8"/>
<path d="M76.05 43.75H53.75V30H67.2625C67.7135 30 68.1561 30.122 68.5434 30.353C68.9307 30.5841 69.2483 30.9156 69.4625 31.3125L75.5375 42.5625C75.7618 42.9331 75.9342 43.3326 76.05 43.75Z" fill="#E6E7E8"/>
<path d="M48.75 34.9998V52.4998H43.75V32.6748L48.75 34.9998Z" fill="#787680"/>
<path d="M49.8754 30.0002H48.7504V35.0002L43.7504 32.6752L8.75039 16.3502L7.96289 15.9877L10.0754 11.4502L49.8754 30.0002Z" fill="#898890"/>
<path d="M48.75 34.9998V37.4998L43.75 35.1748V32.6748L48.75 34.9998Z" fill="#57565C"/>
<path d="M23.75 63.75H21.25C21.25 62.0924 20.5915 60.5027 19.4194 59.3306C18.2473 58.1585 16.6576 57.5 15 57.5C13.3424 57.5 11.7527 58.1585 10.5806 59.3306C9.40848 60.5027 8.75 62.0924 8.75 63.75H6.25C6.25 61.4294 7.17187 59.2038 8.81282 57.5628C10.4538 55.9219 12.6794 55 15 55C17.3206 55 19.5462 55.9219 21.1872 57.5628C22.8281 59.2038 23.75 61.4294 23.75 63.75Z" fill="#AA6100"/>
<path d="M15 70C18.4518 70 21.25 67.2018 21.25 63.75C21.25 60.2982 18.4518 57.5 15 57.5C11.5482 57.5 8.75 60.2982 8.75 63.75C8.75 67.2018 11.5482 70 15 70Z" fill="#57565C"/>
<path d="M38.75 42.5V47.5H35C35 46.837 34.7366 46.2011 34.2678 45.7322C33.7989 45.2634 33.163 45 32.5 45C31.837 45 31.2011 45.2634 30.7322 45.7322C30.2634 46.2011 30 46.837 30 47.5H12.5C12.5 46.837 12.2366 46.2011 11.7678 45.7322C11.2989 45.2634 10.663 45 10 45C9.33696 45 8.70107 45.2634 8.23223 45.7322C7.76339 46.2011 7.5 46.837 7.5 47.5H3.75V41.25C3.75 40.9185 3.8817 40.6005 4.11612 40.3661C4.35054 40.1317 4.66848 40 5 40H36.2625L38.75 42.5Z" fill="#3D9AE2"/>
<path d="M13.75 47.5H12.5C12.5 46.837 12.2366 46.2011 11.7678 45.7322C11.2989 45.2634 10.663 45 10 45C9.33696 45 8.70107 45.2634 8.23223 45.7322C7.76339 46.2011 7.5 46.837 7.5 47.5H6.25C6.25 46.5054 6.64509 45.5516 7.34835 44.8484C8.05161 44.1451 9.00544 43.75 10 43.75C10.9946 43.75 11.9484 44.1451 12.6517 44.8484C13.3549 45.5516 13.75 46.5054 13.75 47.5Z" fill="#1E81CE"/>
<path d="M36.25 47.5H35C35 46.837 34.7366 46.2011 34.2678 45.7322C33.7989 45.2634 33.163 45 32.5 45C31.837 45 31.2011 45.2634 30.7322 45.7322C30.2634 46.2011 30 46.837 30 47.5H28.75C28.75 46.5054 29.1451 45.5516 29.8483 44.8484C30.5516 44.1451 31.5054 43.75 32.5 43.75C33.4946 43.75 34.4484 44.1451 35.1517 44.8484C35.8549 45.5516 36.25 46.5054 36.25 47.5Z" fill="#1E81CE"/>
<path d="M70 63.75H67.5C67.5 62.0924 66.8415 60.5027 65.6694 59.3306C64.4973 58.1585 62.9076 57.5 61.25 57.5C59.5924 57.5 58.0027 58.1585 56.8306 59.3306C55.6585 60.5027 55 62.0924 55 63.75H52.5C52.5 61.4294 53.4219 59.2038 55.0628 57.5628C56.7038 55.9219 58.9294 55 61.25 55C63.5706 55 65.7962 55.9219 67.4372 57.5628C69.0781 59.2038 70 61.4294 70 63.75Z" fill="#CC7400"/>
<path d="M52.5 47.5H57.5V50H52.5V47.5Z" fill="black"/>
<path d="M13.75 62.5H16.25V65H13.75V62.5Z" fill="black"/>
<path d="M60 62.5H62.5V65H60V62.5Z" fill="black"/>
<path d="M76.6375 41.9676L70.5588 30.7176C70.2373 30.1225 69.7608 29.6255 69.1799 29.2791C68.5989 28.9328 67.9351 28.75 67.2588 28.7501H50.1513L10.6025 10.3176C10.4539 10.2479 10.2931 10.2084 10.1291 10.2014C9.96521 10.1943 9.80151 10.2198 9.6475 10.2763C9.49309 10.3324 9.35124 10.4183 9.23006 10.5292C9.10888 10.6401 9.01074 10.7738 8.94125 10.9226L6.82875 15.4601C6.75883 15.6092 6.71905 15.7706 6.7117 15.9351C6.70434 16.0995 6.72956 16.2639 6.78589 16.4186C6.84222 16.5733 6.92857 16.7153 7.03996 16.8366C7.15135 16.9578 7.2856 17.0559 7.435 17.1251L7.5 17.1513V23.7501C7.5 24.0816 7.6317 24.3996 7.86612 24.634C8.10054 24.8684 8.41848 25.0001 8.75 25.0001C8.99723 25.0001 9.2389 25.0734 9.44446 25.2108C9.65002 25.3481 9.81024 25.5433 9.90485 25.7717C9.99946 26.0001 10.0242 26.2515 9.97598 26.494C9.92775 26.7364 9.8087 26.9592 9.63388 27.134C9.45907 27.3088 9.23634 27.4278 8.99386 27.4761C8.75139 27.5243 8.50005 27.4996 8.27165 27.4049C8.04324 27.3103 7.84802 27.1501 7.71066 26.9446C7.57331 26.739 7.5 26.4973 7.5 26.2501H5C5.00013 26.9376 5.18924 27.6118 5.54665 28.199C5.90407 28.7863 6.41603 29.264 7.0266 29.5799C7.63716 29.8958 8.32283 30.0379 9.00866 29.9904C9.69449 29.943 10.3541 29.708 10.9154 29.311C11.4766 28.9141 11.918 28.3705 12.1912 27.7396C12.4644 27.1088 12.5589 26.4149 12.4644 25.734C12.3699 25.0531 12.0901 24.4112 11.6555 23.8786C11.2208 23.3459 10.6481 22.943 10 22.7138V18.3163L42.5 33.4651V51.2501H3.75C3.41848 51.2501 3.10054 51.3818 2.86612 51.6162C2.6317 51.8506 2.5 52.1686 2.5 52.5001V62.5001C2.5 63.1631 2.76339 63.799 3.23223 64.2679C3.70107 64.7367 4.33696 65.0001 5 65.0001H7.6125C7.90629 66.747 8.8096 68.3332 10.1621 69.4772C11.5145 70.6212 13.2286 71.2489 15 71.2489C16.7714 71.2489 18.4855 70.6212 19.8379 69.4772C21.1904 68.3332 22.0937 66.747 22.3875 65.0001H53.8625C54.1563 66.747 55.0596 68.3332 56.4121 69.4772C57.7645 70.6212 59.4786 71.2489 61.25 71.2489C63.0214 71.2489 64.7355 70.6212 66.0879 69.4772C67.4404 68.3332 68.3437 66.747 68.6375 65.0001H73.75C74.7446 65.0001 75.6984 64.605 76.4017 63.9017C77.1049 63.1985 77.5 62.2447 77.5 61.2501V45.1351C77.5024 44.0209 77.2044 42.9267 76.6375 41.9676ZM68.3588 31.9063L74.0838 42.5001H55V31.2501H67.2588C67.4843 31.2501 67.7055 31.3111 67.8992 31.4266C68.0929 31.5422 68.2516 31.7079 68.3588 31.9063ZM10.68 13.1113L47.5 30.2726V33.0388L9.625 15.3826L10.68 13.1113ZM45 34.6313L47.5 35.7963V51.2501H45V34.6313ZM15 68.7501C14.0111 68.7501 13.0444 68.4569 12.2222 67.9074C11.3999 67.358 10.759 66.5772 10.3806 65.6635C10.0022 64.7499 9.90315 63.7446 10.0961 62.7746C10.289 61.8047 10.7652 60.9138 11.4645 60.2146C12.1637 59.5153 13.0546 59.0391 14.0245 58.8462C14.9945 58.6532 15.9998 58.7523 16.9134 59.1307C17.827 59.5091 18.6079 60.15 19.1573 60.9722C19.7068 61.7945 20 62.7612 20 63.7501C20 65.0762 19.4732 66.348 18.5355 67.2856C17.5979 68.2233 16.3261 68.7501 15 68.7501ZM15 56.2501C13.2293 56.2534 11.5168 56.8824 10.165 58.0261C8.81315 59.1698 7.90909 60.7544 7.6125 62.5001H5V53.7501H47.5V62.5001H22.3875C22.0909 60.7544 21.1868 59.1698 19.835 58.0261C18.4832 56.8824 16.7707 56.2534 15 56.2501ZM61.25 68.7501C60.2611 68.7501 59.2944 68.4569 58.4722 67.9074C57.6499 67.358 57.009 66.5772 56.6306 65.6635C56.2522 64.7499 56.1532 63.7446 56.3461 62.7746C56.539 61.8047 57.0152 60.9138 57.7145 60.2146C58.4137 59.5153 59.3046 59.0391 60.2746 58.8462C61.2445 58.6532 62.2498 58.7523 63.1634 59.1307C64.0771 59.5091 64.8579 60.15 65.4074 60.9722C65.9568 61.7945 66.25 62.7612 66.25 63.7501C66.25 65.0762 65.7232 66.348 64.7855 67.2856C63.8479 68.2233 62.5761 68.7501 61.25 68.7501ZM73.75 62.5001H68.6375C68.3437 60.7532 67.4404 59.167 66.0879 58.023C64.7355 56.879 63.0214 56.2513 61.25 56.2513C59.4786 56.2513 57.7645 56.879 56.4121 58.023C55.0596 59.167 54.1563 60.7532 53.8625 62.5001H50V31.2501H52.5V43.7501C52.5 44.0816 52.6317 44.3996 52.8661 44.634C53.1005 44.8684 53.4185 45.0001 53.75 45.0001H74.9813C74.9813 45.0451 75 45.0889 75 45.1351V47.5001H70C69.337 47.5001 68.7011 47.7635 68.2322 48.2323C67.7634 48.7012 67.5 49.3371 67.5 50.0001V52.5001C67.5 53.1631 67.7634 53.799 68.2322 54.2679C68.7011 54.7367 69.337 55.0001 70 55.0001H75V57.5001H71.25V60.0001H75V61.2501C75 61.5816 74.8683 61.8996 74.6339 62.134C74.3995 62.3684 74.0815 62.5001 73.75 62.5001ZM75 50.0001V52.5001H70V50.0001H75Z" fill="black"/>
<path d="M13.52 48.75H28.98C29.2346 49.4807 29.7102 50.1141 30.3409 50.5622C30.9717 51.0104 31.7262 51.2512 32.5 51.2512C33.2738 51.2512 34.0283 51.0104 34.6591 50.5622C35.2898 50.1141 35.7654 49.4807 36.02 48.75H38.75C39.0815 48.75 39.3995 48.6183 39.6339 48.3839C39.8683 48.1495 40 47.8315 40 47.5V42.5C40.0003 42.1693 39.8695 41.852 39.6363 41.6175L37.1475 39.1175C37.0313 39.0009 36.8931 38.9084 36.741 38.8454C36.589 38.7823 36.4259 38.7499 36.2613 38.75H34.2125L25.8138 31.5513C25.5872 31.3569 25.2985 31.25 25 31.25H14.045C13.3482 31.2476 12.6646 31.4405 12.0718 31.8068C11.479 32.1731 11.0008 32.6982 10.6913 33.3225L7.9775 38.75H5C4.33696 38.75 3.70107 39.0134 3.23223 39.4823C2.76339 39.9511 2.5 40.587 2.5 41.25V47.5C2.5 47.8315 2.6317 48.1495 2.86612 48.3839C3.10054 48.6183 3.41848 48.75 3.75 48.75H6.48C6.73456 49.4807 7.21019 50.1141 7.84093 50.5622C8.47167 51.0104 9.22625 51.2512 10 51.2512C10.7738 51.2512 11.5283 51.0104 12.1591 50.5622C12.7898 50.1141 13.2654 49.4807 13.52 48.75ZM32.5 48.75C32.2528 48.75 32.0111 48.6767 31.8055 48.5394C31.6 48.402 31.4398 48.2068 31.3452 47.9784C31.2505 47.75 31.2258 47.4986 31.274 47.2562C31.3223 47.0137 31.4413 46.791 31.6161 46.6161C31.7909 46.4413 32.0137 46.3223 32.2561 46.274C32.4986 46.2258 32.7499 46.2506 32.9784 46.3452C33.2068 46.4398 33.402 46.6 33.5393 46.8056C33.6767 47.0111 33.75 47.2528 33.75 47.5C33.75 47.8315 33.6183 48.1495 33.3839 48.3839C33.1495 48.6183 32.8315 48.75 32.5 48.75ZM30.375 38.75H21.25V33.75H24.5375L30.375 38.75ZM12.9275 34.4413C13.0305 34.2331 13.1899 34.058 13.3874 33.9358C13.5849 33.8137 13.8127 33.7493 14.045 33.75H18.75V38.75H10.7725L12.9275 34.4413ZM5 41.25H35.7425L37.5 43.0163V46.25H36.02C35.7654 45.5193 35.2898 44.886 34.6591 44.4378C34.0283 43.9896 33.2738 43.7488 32.5 43.7488C31.7262 43.7488 30.9717 43.9896 30.3409 44.4378C29.7102 44.886 29.2346 45.5193 28.98 46.25H13.52C13.2654 45.5193 12.7898 44.886 12.1591 44.4378C11.5283 43.9896 10.7738 43.7488 10 43.7488C9.22625 43.7488 8.47167 43.9896 7.84093 44.4378C7.21019 44.886 6.73456 45.5193 6.48 46.25H5V41.25ZM10 48.75C9.75277 48.75 9.5111 48.6767 9.30554 48.5394C9.09998 48.402 8.93976 48.2068 8.84515 47.9784C8.75054 47.75 8.72579 47.4986 8.77402 47.2562C8.82225 47.0137 8.9413 46.791 9.11612 46.6161C9.29093 46.4413 9.51366 46.3223 9.75614 46.274C9.99861 46.2258 10.2499 46.2506 10.4784 46.3452C10.7068 46.4398 10.902 46.6 11.0393 46.8056C11.1767 47.0111 11.25 47.2528 11.25 47.5C11.25 47.8315 11.1183 48.1495 10.8839 48.3839C10.6495 48.6183 10.3315 48.75 10 48.75Z" fill="black"/>
</svg>
