<svg width="1440" height="248" viewBox="0 0 1440 248" fill="none" xmlns="http://www.w3.org/2000/svg">
<rect width="1440" height="248" fill="#F4F6E4"/>
<rect width="1440" height="248" fill="#EFF3CE"/>
<path d="M1283.86 85.2177C1283.98 84.4059 1284.05 83.5317 1284.05 82.6574C1284.05 71.8543 1275.3 63.0494 1264.44 63.0494C1261.94 63.0494 1259.57 63.549 1257.38 64.3608C1255.45 54.9939 1247.14 48 1237.21 48C1226.66 48 1217.98 55.9306 1216.79 66.1093C1208.24 67.4206 1201.62 74.7893 1201.62 83.719C1201.62 83.9688 1201.62 84.281 1201.62 84.5308C1196.5 87.0911 1193 92.0867 1193 97.7693C1193 106.137 1200.49 112.944 1209.74 112.944C1212.98 112.944 1215.98 112.132 1218.54 110.696C1222.04 116.191 1230.03 120 1239.33 120C1247.39 120 1254.45 117.128 1258.44 112.756C1261.63 115.317 1265.62 116.878 1269.93 116.878C1280.17 116.878 1288.48 108.323 1288.48 97.7693C1288.48 92.961 1286.73 88.5898 1283.86 85.2177Z" fill="white"/>
<path d="M257.525 22.132C257.082 22.132 256.64 22.132 256.26 22.1952C256.324 21.6261 256.324 21.1202 256.324 20.5511C256.324 9.23219 247.155 0 235.773 0C228.501 0 222.114 3.79405 218.446 9.54836C217.688 9.48513 216.992 9.42189 216.233 9.42189C205.61 9.42189 196.884 17.4526 195.809 27.823C195.556 27.823 195.303 27.823 195.05 27.823C186.766 27.823 180 34.5259 180 42.8728C180 51.1565 186.703 57.9225 195.05 57.9225C197.895 57.9225 200.488 57.1637 202.764 55.7725C206.685 58.6813 212.123 60.3254 218.004 59.946C224.201 59.5666 229.576 56.974 233.117 53.3064C235.836 56.152 239.693 57.9225 243.93 57.9225C248.736 57.9225 252.972 55.6461 255.755 52.1682C256.387 52.2314 256.956 52.2947 257.588 52.2947C265.872 52.2947 272.638 45.5918 272.638 37.2449C272.575 28.898 265.809 22.132 257.525 22.132Z" fill="white"/>
<path d="M126.333 84C126.999 82.3576 127.398 80.5376 127.398 78.6732C127.398 70.9938 121.184 64.7793 113.504 64.7793C112.483 64.7793 111.507 64.9125 110.53 65.09C108.266 60.5179 103.561 57.4106 98.1011 57.4106C97.5684 57.4106 97.0358 57.455 96.5031 57.4994C94.9495 52.0395 89.889 48 83.8964 48C79.9014 48 76.3502 49.7756 73.9531 52.6165C71.4229 50.7522 68.3157 49.6424 64.9864 49.6424C57.1295 49.6424 50.693 55.635 49.9827 63.2701C49.9384 63.2701 49.9383 63.2701 49.894 63.2701C42.2145 63.2701 36 69.4846 36 77.164C36 79.6498 36.6658 82.0025 37.82 84H126.333Z" fill="white"/>
<path d="M1381.7 24.8644C1381.53 17.3994 1375.41 11.3938 1367.89 11.3938C1366.38 11.3938 1364.92 11.6183 1363.57 12.0674C1362.11 5.16371 1355.99 0 1348.7 0C1342.41 0 1337.02 3.81665 1334.72 9.20486C1333.6 8.92423 1332.48 8.75585 1331.3 8.75585C1323.78 8.75585 1317.66 14.8176 1317.49 22.2825C1308.9 22.3948 1302 29.4107 1302 37.9981C1302 46.6978 1309.07 53.7138 1317.72 53.7138C1319.79 53.7138 1321.81 53.3209 1323.67 52.5351C1325.97 56.9691 1330.57 60 1335.96 60C1341.29 60 1345.89 56.9691 1348.19 52.5351C1350.49 56.9691 1355.1 60 1360.43 60C1366.32 60 1371.37 56.2956 1373.34 51.0196C1374.68 51.4687 1376.14 51.7493 1377.72 51.7493C1385.35 51.7493 1391.52 45.5753 1391.52 37.942C1391.52 31.8241 1387.37 26.5482 1381.7 24.8644Z" fill="white"/>
<mask id="path-5-inside-1_11_49653" fill="white">
<path d="M0 221H1440V245H0V221Z"/>
</mask>
<path d="M0 221H1440V245H0V221Z" fill="#F0F1D5"/>
<path d="M0 221H1440V245H0V221Z" fill="#E2E4CE"/>
<path d="M0 223H1440V219H0V223Z" fill="white" mask="url(#path-5-inside-1_11_49653)"/>
<g clip-path="url(#clip0_11_49653)">
<path fill-rule="evenodd" clip-rule="evenodd" d="M173.748 220.969H122.811C121.248 220.969 119.998 219.719 119.998 218.156V209.562C119.998 209.25 120.154 209.094 120.311 208.938L128.123 201.281C128.279 201.125 128.436 200.969 128.748 200.969H143.592L145.467 189.094C145.779 187.062 146.873 185.812 148.279 185.812H153.592V200.031C153.592 200.656 154.061 200.969 154.529 200.969H171.404H173.748C175.311 200.969 176.561 202.219 176.561 203.781V218.156C176.561 219.719 175.311 220.969 173.748 220.969ZM169.842 213H145.467C144.842 213 144.529 212.688 144.529 212.219C144.529 211.75 144.842 211.281 145.467 211.281H169.842C170.311 211.281 170.779 211.75 170.779 212.219C170.779 212.688 170.311 213 169.842 213ZM136.404 213H126.717C126.248 213 125.779 212.688 125.779 212.219C125.779 211.75 126.248 211.281 126.717 211.281H136.404C137.029 211.281 137.342 211.75 137.342 212.219C137.342 212.688 137.029 213 136.404 213ZM155.467 185.812H166.717C168.123 185.812 169.061 187.062 169.529 189.094L171.092 199.25H155.467V185.812Z" fill="#C3CB47"/>
<path fill-rule="evenodd" clip-rule="evenodd" d="M133.748 199.25V192.219C133.748 191.594 134.217 191.281 134.686 191.281H140.623C141.092 191.281 141.404 191.594 141.404 192.219V199.25H133.748Z" fill="#C3CB47"/>
<path fill-rule="evenodd" clip-rule="evenodd" d="M137.654 193C137.186 193 136.717 192.688 136.717 192.219V186.125L133.123 181.282C132.811 180.969 132.811 180.344 133.279 180.032C133.592 179.719 134.217 179.875 134.529 180.188L138.279 185.344C138.436 185.5 138.592 185.657 138.592 185.813V192.219C138.592 192.688 138.123 193 137.654 193Z" fill="#C3CB47"/>
<path fill-rule="evenodd" clip-rule="evenodd" d="M178.748 222.219C178.123 222.219 177.342 221.906 176.873 221.594C177.811 220.812 178.436 219.562 178.436 218.156V205.812H178.748C180.623 205.812 182.186 207.219 182.186 209.094V218.781C182.186 220.656 180.623 222.219 178.748 222.219Z" fill="#C3CB47"/>
<path fill-rule="evenodd" clip-rule="evenodd" d="M199.061 236.125H181.717C181.248 236.125 180.779 235.656 180.779 235.188V228.781C180.779 228.625 180.779 228.469 180.936 228.312L189.842 213C189.998 212.688 190.311 212.531 190.623 212.531H195.623C195.936 212.531 196.092 212.688 196.248 212.844C196.404 213 196.561 213.156 196.561 213.469L196.404 229.094L199.529 230.969C199.842 231.125 199.998 231.438 199.998 231.75V235.188C199.998 235.656 199.529 236.125 199.061 236.125Z" fill="#C3CB47"/>
<path fill-rule="evenodd" clip-rule="evenodd" d="M165.311 235.188H131.248C126.873 235.188 123.279 231.594 123.279 227.219C123.279 225.5 123.748 223.938 124.529 222.688H172.029C172.967 223.938 173.436 225.5 173.436 227.219C173.436 231.594 169.842 235.188 165.311 235.188ZM132.654 232.375C130.779 232.375 129.217 230.812 129.217 228.938C129.217 227.062 130.779 225.5 132.654 225.5C134.529 225.5 136.092 227.062 136.092 228.938C136.092 230.812 134.529 232.375 132.654 232.375ZM132.654 227.375C131.717 227.375 131.092 228.156 131.092 228.938C131.092 229.875 131.717 230.656 132.654 230.656C133.592 230.656 134.373 229.875 134.373 228.938C134.373 228.156 133.592 227.375 132.654 227.375ZM143.123 232.375C141.248 232.375 139.686 230.812 139.686 228.938C139.686 227.062 141.248 225.5 143.123 225.5C144.998 225.5 146.561 227.062 146.561 228.938C146.561 230.812 144.998 232.375 143.123 232.375ZM143.123 227.375C142.186 227.375 141.561 228.156 141.561 228.938C141.561 229.875 142.186 230.656 143.123 230.656C144.061 230.656 144.686 229.875 144.686 228.938C144.686 228.156 144.061 227.375 143.123 227.375ZM153.592 232.375C151.561 232.375 150.154 230.812 150.154 228.938C150.154 227.062 151.561 225.5 153.592 225.5C155.467 225.5 156.873 227.062 156.873 228.938C156.873 230.812 155.467 232.375 153.592 232.375ZM153.592 227.375C152.654 227.375 151.873 228.156 151.873 228.938C151.873 229.875 152.654 230.656 153.592 230.656C154.373 230.656 155.154 229.875 155.154 228.938C155.154 228.156 154.373 227.375 153.592 227.375ZM163.904 232.375C162.029 232.375 160.467 230.812 160.467 228.938C160.467 227.062 162.029 225.5 163.904 225.5C165.779 225.5 167.342 227.062 167.342 228.938C167.342 230.812 165.779 232.375 163.904 232.375ZM163.904 227.375C162.967 227.375 162.342 228.156 162.342 228.938C162.342 229.875 162.967 230.656 163.904 230.656C164.842 230.656 165.467 229.875 165.467 228.938C165.467 228.156 164.842 227.375 163.904 227.375Z" fill="#C3CB47"/>
<path d="M183.904 214.562L188.748 218C189.217 218.312 189.217 218.938 188.904 219.25C188.748 219.562 188.592 219.719 188.279 219.719C188.123 219.719 187.811 219.562 187.654 219.562L187.498 219.406L184.686 224.562C184.842 224.875 184.842 225.344 184.529 225.656C184.373 225.812 184.217 225.969 183.904 225.969C183.748 225.969 183.436 225.812 183.279 225.656L180.779 223.469C182.654 222.688 183.904 220.812 183.904 218.781V214.562Z" fill="#C3CB47"/>
</g>
<path d="M296.847 205.576L285.211 193.94C284.968 193.697 284.726 193.576 284.362 193.576H272.847C272.241 193.576 271.635 194.182 271.635 194.788V220.243H227.635C227.029 220.243 226.423 220.849 226.423 221.455V232.243C226.423 232.97 227.029 233.455 227.635 233.455H234.302C234.302 233.091 234.18 232.606 234.18 232.243C234.18 227.031 238.423 222.788 243.635 222.788C248.847 222.788 253.09 227.031 253.09 232.243C253.09 232.606 253.09 233.091 252.968 233.455H270.908C270.908 233.091 270.786 232.606 270.786 232.243C270.786 227.031 275.029 222.788 280.241 222.788C285.453 222.788 289.696 227.031 289.696 232.243C289.696 232.606 289.696 233.091 289.574 233.455H296.241C296.968 233.455 297.453 232.97 297.453 232.243V206.546C297.211 206.182 297.09 205.819 296.847 205.576ZM291.514 213.213H277.453V199.394H281.211L291.635 209.819V213.213H291.514Z" fill="#C3CB47"/>
<path d="M280.12 225.212C276.241 225.212 273.09 228.363 273.09 232.242C273.09 236.121 276.241 239.273 280.12 239.273C283.999 239.273 287.15 236.121 287.15 232.242C287.029 228.363 283.999 225.212 280.12 225.212Z" fill="#C3CB47"/>
<path d="M243.514 225.212C239.635 225.212 236.483 228.363 236.483 232.242C236.483 236.121 239.635 239.273 243.514 239.273C247.392 239.273 250.544 236.121 250.544 232.242C250.544 228.363 247.392 225.212 243.514 225.212Z" fill="#C3CB47"/>
<path d="M232.605 207.515C234.908 207.515 236.847 205.576 236.847 203.273C236.847 201.333 235.514 199.758 233.817 199.152V186.546L248.726 214.303H247.029C244.605 214.303 242.665 215.758 241.696 217.697H269.332V215.879C268.241 214.909 266.908 214.303 265.332 214.303H263.393L237.938 178.424C237.211 177.455 236.12 176.849 234.908 176.849C233.574 176.849 232.362 177.576 231.635 178.667C231.029 179.637 230.908 180.97 231.393 182.061V200.243C231.393 200.97 231.877 201.455 232.605 201.455C233.574 201.455 234.423 202.303 234.423 203.273C234.423 204.243 233.574 205.091 232.605 205.091C231.635 205.091 230.787 204.243 230.787 203.273C230.787 202.546 230.302 202.061 229.574 202.061C228.847 202.061 228.362 202.546 228.362 203.273C228.362 205.576 230.302 207.515 232.605 207.515ZM234.908 179.03C235.635 179.03 236.241 179.637 236.241 180.364C236.241 181.091 235.635 181.697 234.908 181.697C234.18 181.697 233.574 181.091 233.574 180.364C233.574 179.637 234.059 179.03 234.908 179.03Z" fill="#C3CB47"/>
<path d="M343.458 215.848C339.553 215.257 336.278 218.793 337.328 222.735C337.814 224.557 339.288 226.031 341.111 226.517C345.052 227.568 348.588 224.292 347.997 220.386C347.648 218.081 345.763 216.197 343.458 215.848ZM342.602 223.205C341.515 223.205 340.641 222.33 340.641 221.243C340.641 220.169 341.515 219.294 342.602 219.294C343.677 219.294 344.551 220.169 344.551 221.243C344.551 222.33 343.677 223.205 342.602 223.205Z" fill="#C3CB47"/>
<path d="M392.479 222.735C393.529 218.793 390.254 215.257 386.349 215.848C384.044 216.197 382.159 218.081 381.81 220.386C381.219 224.292 384.755 227.568 388.697 226.517C390.519 226.031 391.993 224.557 392.479 222.735ZM387.205 223.205C386.13 223.205 385.256 222.33 385.256 221.243C385.256 220.169 386.13 219.294 387.205 219.294C388.292 219.294 389.166 220.169 389.166 221.243C389.166 222.33 388.292 223.205 387.205 223.205Z" fill="#C3CB47"/>
<path d="M327.422 191.72V218.507C327.422 220.877 329.361 222.817 331.732 222.817H335.43C335.318 222.317 335.256 221.78 335.256 221.243C335.256 220.93 335.28 220.618 335.318 220.318C335.768 216.707 338.866 213.909 342.602 213.909C346.338 213.909 349.424 216.707 349.873 220.318C349.911 220.618 349.936 220.93 349.936 221.243C349.936 221.78 349.873 222.317 349.761 222.817H380.046C379.934 222.317 379.871 221.78 379.871 221.243C379.871 220.93 379.896 220.618 379.934 220.318C380.384 216.707 383.47 213.909 387.205 213.909C390.466 213.909 393.227 216.033 394.189 218.969C394.327 219.406 394.427 219.856 394.489 220.318C394.527 220.618 394.552 220.93 394.552 221.243C394.552 221.78 394.489 222.317 394.377 222.817H397.293C398.725 222.817 399.887 221.656 399.887 220.224V218.507V214.508V212.984H396.551C396.082 212.984 395.701 212.604 395.701 212.135V209.711H399.887V208.337V207.375V204.876H394.189H387.368V196.105H394.189H399.887V193.606V193.194V191.217C399.887 189.114 398.182 187.409 396.079 187.409H394.189H331.732C329.361 187.409 327.422 189.349 327.422 191.72ZM377.198 196.105H384.869V204.876H377.198V196.105ZM367.015 196.105H374.699V204.876H367.015V196.105ZM356.845 196.105H364.516V204.876H356.845V196.105ZM346.663 196.105H354.346V204.876H346.663V196.105ZM335.693 198.479C335.693 197.168 336.756 196.105 338.067 196.105H344.164V204.876H338.067C336.755 204.876 335.693 203.801 335.693 202.502V198.479Z" fill="#C3CB47"/>
<g clip-path="url(#clip1_11_49653)">
<path fill-rule="evenodd" clip-rule="evenodd" d="M500.812 225.785H500.203C499.781 221.146 495.845 217.537 491.111 217.537C486.378 217.537 482.441 221.146 482.019 225.785H467.21C466.741 221.146 462.851 217.537 458.118 217.537C453.337 217.537 449.447 221.146 448.979 225.785H448.041C447.573 221.146 443.683 217.537 438.903 217.537C434.169 217.537 430.279 221.146 429.811 225.785C427.374 225.692 425.452 223.676 425.452 221.192V213.506C425.452 212.991 425.874 212.569 426.389 212.569H480.238V192.651C480.238 192.136 480.66 191.714 481.176 191.714H486.659V204.086C486.659 206.945 488.955 209.242 491.814 209.242H505.452V221.192C505.405 223.723 503.343 225.785 500.812 225.785ZM489.658 213.46C487.831 213.46 485.862 213.835 485.862 212.522C485.862 211.21 487.831 211.585 489.658 211.585C490.877 211.585 490.877 213.46 489.658 213.46ZM488.534 191.714H494.064C500.344 191.714 505.452 196.822 505.452 203.102V207.367H491.814C489.986 207.367 488.534 205.914 488.534 204.086V191.714Z" fill="#C3CB47"/>
<path fill-rule="evenodd" clip-rule="evenodd" d="M458.118 234.269C453.9 234.269 450.525 230.847 450.525 226.676C450.525 222.505 453.9 219.084 458.118 219.084C462.289 219.084 465.663 222.505 465.663 226.676C465.663 230.847 462.289 234.269 458.118 234.269ZM458.118 230.426C453.197 230.426 453.197 222.927 458.118 222.927C462.992 222.927 462.992 230.426 458.118 230.426Z" fill="#C3CB47"/>
<path fill-rule="evenodd" clip-rule="evenodd" d="M438.903 234.269C434.732 234.269 431.357 230.847 431.357 226.676C431.357 222.505 434.732 219.084 438.903 219.084C443.121 219.084 446.495 222.505 446.495 226.676C446.495 230.847 443.121 234.269 438.903 234.269ZM438.903 230.426C434.029 230.426 434.029 222.927 438.903 222.927C443.824 222.927 443.824 230.426 438.903 230.426Z" fill="#C3CB47"/>
<path fill-rule="evenodd" clip-rule="evenodd" d="M491.112 234.269C486.941 234.269 483.52 230.847 483.52 226.676C483.52 222.505 486.941 219.084 491.112 219.084C495.283 219.084 498.704 222.505 498.704 226.676C498.704 230.847 495.283 234.269 491.112 234.269ZM491.112 230.426C486.191 230.426 486.191 222.927 491.112 222.927C496.033 222.927 496.033 230.426 491.112 230.426Z" fill="#C3CB47"/>
<path fill-rule="evenodd" clip-rule="evenodd" d="M476.677 209.289H427.608C427.093 209.289 426.671 208.867 426.671 208.351V182.669C426.671 182.153 427.093 181.731 427.608 181.731H476.677C477.192 181.731 477.614 182.153 477.614 182.669V208.351C477.614 208.867 477.192 209.289 476.677 209.289ZM433.982 204.602C433.466 204.602 433.045 204.18 433.045 203.665V187.355C433.045 186.137 434.919 186.137 434.919 187.355V203.665C434.919 204.18 434.497 204.602 433.982 204.602ZM441.246 204.602C440.731 204.602 440.309 204.18 440.309 203.665V187.355C440.309 186.137 442.183 186.137 442.183 187.355V203.665C442.183 204.18 441.762 204.602 441.246 204.602ZM448.51 204.602C447.995 204.602 447.573 204.18 447.573 203.665V187.355C447.573 186.137 449.448 186.137 449.448 187.355V203.665C449.448 204.18 449.026 204.602 448.51 204.602ZM455.775 204.602C455.259 204.602 454.837 204.18 454.837 203.665V187.355C454.837 186.137 456.712 186.137 456.712 187.355V203.665C456.712 204.18 456.29 204.602 455.775 204.602ZM463.039 204.602C462.523 204.602 462.101 204.18 462.101 203.665V187.355C462.101 186.137 463.976 186.137 463.976 187.355V203.665C463.976 204.18 463.554 204.602 463.039 204.602ZM470.303 204.602C469.787 204.602 469.366 204.18 469.366 203.665V187.355C469.366 186.137 471.24 186.137 471.24 187.355V203.665C471.24 204.18 470.819 204.602 470.303 204.602Z" fill="#C3CB47"/>
<path fill-rule="evenodd" clip-rule="evenodd" d="M470.491 215.241C469.553 215.241 468.803 214.444 468.803 213.506V208.351C468.803 206.102 472.225 206.102 472.225 208.351V213.506C472.225 214.444 471.428 215.241 470.491 215.241ZM433.701 215.241C432.717 215.241 431.967 214.444 431.967 213.506V208.351C431.967 206.102 435.388 206.102 435.388 208.351V213.506C435.388 214.444 434.638 215.241 433.701 215.241Z" fill="#C3CB47"/>
</g>
<g clip-path="url(#clip2_11_49653)">
<path d="M607.271 186.906H550.709V191.594H534.342L527.271 207.503V224.406H537.05C538.017 227.134 540.622 229.094 543.678 229.094C546.733 229.094 549.338 227.134 550.306 224.406H579.55C580.517 227.134 583.122 229.094 586.178 229.094C587.977 229.094 589.62 228.413 590.865 227.298C592.11 228.414 593.753 229.094 595.553 229.094C599.43 229.094 602.584 225.94 602.584 222.062C602.584 219.701 601.412 217.609 599.621 216.333H607.271V186.906ZM533.222 205.656L537.388 196.281H542.896V205.656H533.222ZM543.678 224.406C542.385 224.406 541.334 223.355 541.334 222.062C541.334 220.77 542.385 219.719 543.678 219.719C544.97 219.719 546.021 220.77 546.021 222.062C546.021 223.355 544.97 224.406 543.678 224.406ZM579.146 219.719H555.396V216.333H579.146V219.719ZM586.178 224.406C584.885 224.406 583.834 223.355 583.834 222.062C583.834 220.77 584.885 219.719 586.178 219.719C587.47 219.719 588.521 220.77 588.521 222.062C588.521 223.355 587.47 224.406 586.178 224.406ZM595.553 224.406C594.26 224.406 593.209 223.355 593.209 222.062C593.209 220.77 594.26 219.719 595.553 219.719C596.845 219.719 597.896 220.77 597.896 222.062C597.896 223.355 596.845 224.406 595.553 224.406Z" fill="#C3CB47"/>
</g>
<g clip-path="url(#clip3_11_49653)">
<path d="M695.091 219.732C691.341 219.732 688.291 222.784 688.291 226.532C688.291 230.282 691.341 233.332 695.091 233.332C698.84 233.332 701.891 230.282 701.891 226.532C701.891 222.784 698.84 219.732 695.091 219.732ZM695.091 228.532C693.988 228.532 693.091 227.636 693.091 226.532C693.091 225.429 693.988 224.532 695.091 224.532C696.194 224.532 697.091 225.429 697.091 226.532C697.091 227.636 696.194 228.532 695.091 228.532Z" fill="#C3CB47"/>
<path d="M694.44 191.466H682.691C681.807 191.466 681.091 192.183 681.091 193.066V224.266C681.091 225.149 681.807 225.866 682.691 225.866H684.388C685.18 225.866 685.881 225.295 685.984 224.51C686.612 219.699 690.449 216.715 695.092 216.715C699.734 216.715 703.572 219.699 704.2 224.51C704.302 225.295 705.003 225.866 705.796 225.866H707.491C708.374 225.866 709.091 225.149 709.091 224.266V208.666C709.091 208.29 708.959 207.927 708.718 207.639L695.667 192.039C695.363 191.676 694.913 191.466 694.44 191.466ZM684.291 204.266V196.266C684.291 195.383 685.007 194.666 685.891 194.666H692.939C693.413 194.666 693.864 194.877 694.168 195.242L700.834 203.242C701.702 204.284 700.961 205.866 699.604 205.866H685.891C685.007 205.866 684.291 205.15 684.291 204.266Z" fill="#C3CB47"/>
<path d="M630.691 225.867H634.788C635.58 225.867 636.281 225.297 636.384 224.511C637.012 219.7 640.849 216.716 645.492 216.716C650.134 216.716 653.972 219.7 654.6 224.511C654.702 225.297 655.403 225.867 656.196 225.867H676.291C677.174 225.867 677.891 225.15 677.891 224.267V184.267C677.891 183.384 677.174 182.667 676.291 182.667H630.691C629.807 182.667 629.091 183.384 629.091 184.267V224.267C629.091 225.15 629.807 225.867 630.691 225.867Z" fill="#C3CB47"/>
<path d="M645.491 219.732C641.742 219.732 638.691 222.784 638.691 226.532C638.691 230.282 641.742 233.332 645.491 233.332C649.24 233.332 652.291 230.282 652.291 226.532C652.291 222.784 649.24 219.732 645.491 219.732ZM645.491 228.532C644.388 228.532 643.491 227.636 643.491 226.532C643.491 225.429 644.388 224.532 645.491 224.532C646.595 224.532 647.491 225.429 647.491 226.532C647.491 227.636 646.595 228.532 645.491 228.532Z" fill="#C3CB47"/>
</g>
<path d="M791.361 211.89H792.273C793.183 211.89 793.921 211.152 793.921 210.242V208.552C793.921 207.642 793.183 206.905 792.273 206.905C791.812 206.905 791.395 206.632 791.211 206.21L787.842 198.505C787.95 198.512 791.902 198.525 791.902 198.525C793.231 198.525 794.313 197.444 794.313 196.114V192.246C794.313 190.917 793.232 189.835 791.902 189.835H788.163C786.958 189.835 785.843 190.355 785.028 191.215C783.411 191.237 782.101 192.556 782.101 194.18C782.101 195.269 782.697 196.212 783.573 196.729C783.573 197.415 783.693 198.099 783.962 198.739C788.583 209.739 782.493 216.695 780.635 218.476C780.327 218.771 779.928 218.931 778.888 218.931H768.411C767.987 218.931 767.57 218.772 767.272 218.471C763.727 214.889 765.065 212.011 766.387 210.466C767.008 209.741 767.881 209.324 768.811 209.106C769.811 208.872 770.551 208.319 771.092 207.691C772 206.639 771.203 205.001 769.815 205.001H762.22V192.336H738.828V203.751C738.828 205.13 739.95 206.251 741.328 206.251H749.668C742.995 208.959 739.288 215.446 737.723 218.942C737.353 219.77 737.653 221.257 738.681 221.257H759.971C760.308 221.257 760.638 221.361 760.916 221.555L763.502 223.366C763.78 223.56 764.108 223.664 764.447 223.664H780.165C780.658 223.664 781.127 223.442 781.44 223.06L790.087 212.494C790.4 212.111 790.867 211.89 791.361 211.89Z" fill="#C3CB47"/>
<path d="M757.22 183.954H743.829C738.274 183.954 738.829 189.838 738.829 189.838H762.22C762.22 189.838 762.904 183.954 757.22 183.954Z" fill="#C3CB47"/>
<path d="M796.05 222.383C796.277 222.758 796.415 223.194 796.415 223.664C796.415 225.04 795.299 226.157 793.923 226.157C793.002 226.157 792.205 225.65 791.774 224.908C791.467 224.99 791.15 225.048 790.828 225.048H785.664C786.327 229.013 789.773 232.048 793.924 232.048C798.545 232.048 802.307 228.287 802.307 223.665C802.307 223.234 802.267 222.807 802.202 222.384H796.052L796.05 222.383Z" fill="#C3CB47"/>
<path d="M749.833 226.157C748.488 226.157 747.4 225.09 747.35 223.758H741.454C741.505 228.337 745.242 232.047 749.833 232.047C754.424 232.047 758.16 228.335 758.21 223.758H752.315C752.265 225.09 751.177 226.157 749.833 226.157Z" fill="#C3CB47"/>
<path d="M797.259 211.89H796.077C794.895 214.782 791.766 214.39 791.766 214.39L785.09 222.547H790.827C791.105 222.547 791.374 222.447 791.585 222.266L794.026 220.163C794.236 219.982 794.505 219.882 794.784 219.882H803.08C803.771 219.882 804.33 219.276 804.236 218.591C803.501 213.232 797.329 211.89 797.259 211.89Z" fill="#C3CB47"/>
<g clip-path="url(#clip4_11_49653)">
<path d="M901.009 212.688C899.089 212.688 897.302 213.196 895.701 214.018L892.533 210.253C893.937 209.423 895.456 208.785 897.062 208.425C898.371 208.131 899.669 208.023 901.022 208.002C902.768 208.016 904.487 207.327 905.773 206.052C907.115 204.725 907.884 202.878 907.884 200.694C907.884 188.69 897.771 179.875 887.095 179.875H884.446C883.151 179.875 882.103 180.924 882.103 182.219C882.103 183.514 883.151 184.562 884.446 184.562H887.095C887.793 184.562 888.459 184.683 889.134 184.769V189.298C887.773 189.422 886.491 189.843 885.278 190.407C885.263 190.39 885.243 190.378 885.229 190.36C883.305 191.26 881.647 192.667 880.445 194.469L875.11 202.47C874.744 203.017 874.167 203.386 873.515 203.486C868.77 204.216 864.657 207.241 862.497 211.658C864.499 214.65 865.696 218.214 865.696 222.062H860.853C860.853 214.308 854.545 208 846.79 208C839.036 208 832.728 214.308 832.728 222.062C832.728 229.817 839.036 236.125 846.79 236.125C852.893 236.125 858.047 232.194 859.989 226.75H882.103C883.398 226.75 884.446 225.701 884.446 224.406C884.446 223.104 884.602 221.774 884.906 220.456C885.545 217.719 886.968 215.228 888.879 213.193L892.042 216.953C890.35 218.984 889.29 221.561 889.29 224.406C889.29 230.867 894.548 236.125 901.009 236.125C907.47 236.125 912.728 230.867 912.728 224.406C912.728 217.945 907.47 212.688 901.009 212.688ZM846.79 231.438C841.62 231.438 837.415 227.233 837.415 222.062C837.415 216.892 841.62 212.688 846.79 212.688C851.96 212.688 856.165 216.892 856.165 222.062H849.134C847.84 222.062 846.79 221.012 846.79 219.719C846.79 218.424 845.741 217.375 844.446 217.375C843.151 217.375 842.103 218.424 842.103 219.719C842.103 223.596 845.257 226.75 849.134 226.75H854.861C853.235 229.539 850.245 231.438 846.79 231.438ZM901.009 231.438C897.132 231.438 893.978 228.283 893.978 224.406C893.978 223.048 894.382 221.79 895.052 220.714L899.178 225.871C899.993 226.887 901.468 227.041 902.474 226.237C903.483 225.427 903.648 223.953 902.84 222.941L898.719 217.79C899.44 217.539 900.203 217.375 901.009 217.375C904.886 217.375 908.04 220.529 908.04 224.406C908.04 228.283 904.886 231.438 901.009 231.438Z" fill="#C3CB47"/>
<path d="M872.53 197.892L876.545 191.868C877.829 189.942 879.512 188.377 881.424 187.162C878.852 185.538 875.887 184.562 872.727 184.562C867.19 184.562 862.074 187.385 859.063 191.912L862.812 194.162C865.824 195.969 869.121 197.178 872.53 197.892Z" fill="#C3CB47"/>
<path d="M860.4 198.181L845.36 189.25H835.071C833.776 189.25 832.728 190.299 832.728 191.594C832.728 198.055 837.985 203.312 844.446 203.312C849.134 203.312 853.998 203.414 859.208 207.944C859.228 207.907 859.228 207.865 859.251 207.828C861.069 204.905 863.636 202.638 866.579 201.045C864.449 200.266 862.363 199.357 860.4 198.181Z" fill="#C3CB47"/>
</g>
<g clip-path="url(#clip5_11_49653)">
<path fill-rule="evenodd" clip-rule="evenodd" d="M1010.57 224.658H1006.71C1006.74 224.324 1006.76 223.986 1006.76 223.643C1006.76 217.975 1002.15 213.365 996.483 213.365C990.815 213.365 986.206 217.975 986.206 223.643C986.206 223.986 986.223 224.324 986.256 224.658H959.872C959.904 224.324 959.922 223.986 959.922 223.643C959.922 217.975 955.312 213.365 949.644 213.365C943.976 213.365 939.367 217.975 939.367 223.643C939.367 223.986 939.384 224.324 939.417 224.658H939.079C938.757 224.658 938.455 224.507 938.264 224.249L934.744 219.52C934.613 219.344 934.543 219.132 934.543 218.913V213.985H942.692C943.252 213.985 943.707 213.53 943.707 212.969C943.707 212.408 943.252 211.954 942.692 211.954H934.543V209.679H942.692C943.252 209.679 943.707 209.225 943.707 208.664C943.707 208.103 943.252 207.648 942.692 207.648H934.543V200.656C934.543 200.475 934.591 200.298 934.682 200.142L939.961 191.124C940.143 190.812 940.477 190.621 940.838 190.621H946.094V203.191C946.094 203.752 946.549 204.207 947.11 204.207H974.478H975.494H995.156L1003.26 204.235C1003.46 205.773 1003.69 207.297 1003.82 207.67C1004.56 209.754 1006.24 211.397 1008.35 212.085C1008.68 212.193 1010.1 212.485 1011.58 212.761V223.643C1011.58 224.204 1011.13 224.658 1010.57 224.658ZM1005.36 204.242L1010.57 204.26C1011.13 204.261 1011.58 204.715 1011.58 205.275V210.673C1010.24 210.401 1008.87 210.119 1008.74 210.069C1007.41 209.558 1006.34 208.503 1005.8 207.176C1005.74 207.024 1005.55 205.601 1005.36 204.242ZM948.126 190.621H959.296V202.176H948.126V190.621ZM961.327 202.176V190.621H974.478V202.176H961.327Z" fill="#C3CB47"/>
<path fill-rule="evenodd" clip-rule="evenodd" d="M976.51 202.176V190.621H983.293C983.595 190.621 983.881 190.755 984.074 190.988L993.114 201.878V202.176L976.51 202.176Z" fill="#C3CB47"/>
<path fill-rule="evenodd" clip-rule="evenodd" d="M962.317 188.59V184.109H972.237C974.593 184.109 976.509 186.026 976.509 188.381V188.59H974.478H962.317ZM946.094 188.59V188.381C946.094 186.026 948.01 184.109 950.366 184.109H960.286V188.59H946.094Z" fill="#C3CB47"/>
<path fill-rule="evenodd" clip-rule="evenodd" d="M949.644 231.89C945.097 231.89 941.397 228.191 941.397 223.644C941.397 219.097 945.097 215.397 949.644 215.397C954.191 215.397 957.89 219.097 957.89 223.644C957.891 228.191 954.191 231.89 949.644 231.89ZM949.644 227.257C947.652 227.257 946.031 225.636 946.031 223.644C946.031 221.651 947.652 220.031 949.644 220.031C951.636 220.031 953.257 221.651 953.257 223.644C953.257 225.636 951.637 227.257 949.644 227.257ZM949.644 222.062C948.772 222.062 948.062 222.771 948.062 223.644C948.062 224.516 948.772 225.226 949.644 225.226C950.516 225.226 951.226 224.516 951.226 223.644C951.226 222.771 950.516 222.062 949.644 222.062Z" fill="#C3CB47"/>
<path fill-rule="evenodd" clip-rule="evenodd" d="M996.483 231.89C991.936 231.89 988.236 228.191 988.236 223.644C988.236 219.097 991.936 215.397 996.483 215.397C1001.03 215.397 1004.73 219.097 1004.73 223.644C1004.73 228.191 1001.03 231.89 996.483 231.89ZM996.483 227.257C994.49 227.257 992.87 225.636 992.87 223.644C992.87 221.651 994.49 220.031 996.483 220.031C998.475 220.031 1000.1 221.651 1000.1 223.644C1000.1 225.636 998.475 227.257 996.483 227.257ZM996.483 222.062C995.61 222.062 994.901 222.771 994.901 223.644C994.901 224.516 995.61 225.226 996.483 225.226C997.355 225.226 998.065 224.516 998.065 223.644C998.065 222.771 997.355 222.062 996.483 222.062Z" fill="#C3CB47"/>
<path fill-rule="evenodd" clip-rule="evenodd" d="M1013.53 229.492H1004.93C1005.52 228.642 1005.99 227.699 1006.3 226.69H1010.57C1012.25 226.69 1013.62 225.325 1013.62 223.643V222.632C1014.14 222.677 1014.54 223.112 1014.54 223.644V228.476C1014.54 229.037 1014.09 229.492 1013.53 229.492ZM988.037 229.492H958.092C958.682 228.642 959.148 227.699 959.462 226.69H986.667C986.981 227.699 987.446 228.642 988.037 229.492Z" fill="#C3CB47"/>
</g>
<path d="M1110.44 203.36C1101.32 200.96 1095.72 201.28 1094.44 200.8C1093.8 200.64 1094.44 200.8 1084.68 194.88C1083.72 194.24 1082.44 193.92 1081.32 193.76C1070.28 192.48 1057.32 192.8 1048.52 199.68C1048.04 200 1047.72 200.32 1047.24 200.32L1042.12 201.92C1041.16 202.24 1040.36 202.88 1040.04 203.68C1038.28 206.72 1037.64 210.56 1038.6 214.08C1038.92 215.52 1040.04 216.48 1041.32 216.8L1042.6 217.12C1042.6 216.64 1042.44 216.32 1042.44 215.84C1042.44 210.08 1047.08 205.44 1052.84 205.44C1058.6 205.44 1063.24 210.08 1063.24 215.84C1063.24 216.64 1063.08 217.44 1062.92 218.08H1092.2C1092.04 217.28 1091.88 216.64 1091.88 215.84C1091.88 210.08 1096.52 205.44 1102.28 205.44C1108.04 205.44 1112.68 210.08 1112.68 215.84C1112.68 216.48 1112.68 217.12 1112.52 217.76C1113.8 217.12 1114.6 215.68 1114.6 214.24V209.28C1114.76 206.4 1113 204 1110.44 203.36ZM1063.4 203.2C1062.92 203.2 1062.44 203.04 1062.12 202.56L1058.28 197.92C1061.8 196.8 1065.96 196.16 1070.6 196.16L1072.52 203.2H1063.4ZM1089.64 203.04C1089.32 203.2 1089.16 203.2 1088.84 203.2H1075.88L1073.96 196.32C1076.2 196.48 1078.44 196.64 1080.68 196.8C1081.32 196.8 1082.12 197.12 1082.76 197.44L1090.6 202.24L1089.64 203.04Z" fill="#C3CB47"/>
<path d="M1052.84 222.879C1056.82 222.879 1060.04 219.656 1060.04 215.679C1060.04 211.703 1056.82 208.479 1052.84 208.479C1048.87 208.479 1045.64 211.703 1045.64 215.679C1045.64 219.656 1048.87 222.879 1052.84 222.879Z" fill="#C3CB47"/>
<path d="M1102.44 222.879C1106.42 222.879 1109.64 219.656 1109.64 215.679C1109.64 211.703 1106.42 208.479 1102.44 208.479C1098.47 208.479 1095.24 211.703 1095.24 215.679C1095.24 219.656 1098.47 222.879 1102.44 222.879Z" fill="#C3CB47"/>
<path d="M1214.18 202.72C1213.7 201.92 1212.9 201.44 1212.1 201.28C1207.62 200.64 1201.7 196.96 1198.98 196.32C1193.06 194.88 1178.18 192.32 1172.58 194.4C1163.46 198.08 1161.22 200.64 1159.62 201.28C1153.86 201.92 1148.74 203.04 1144.1 204.48C1143.46 204.8 1142.98 205.12 1142.5 205.6C1140.26 208 1139.46 210.88 1139.78 214.24C1140.1 216.64 1142.18 218.4 1144.58 218.4C1144.26 217.44 1144.1 216.48 1144.1 215.52C1144.1 210.08 1148.58 205.6 1154.02 205.6C1159.46 205.6 1163.94 210.08 1163.94 215.52C1163.94 216.48 1163.78 217.6 1163.46 218.4H1191.78C1191.46 217.44 1191.3 216.48 1191.3 215.52C1191.3 210.08 1195.78 205.6 1201.22 205.6C1206.66 205.6 1211.14 210.08 1211.14 215.52C1211.14 216.48 1210.98 217.28 1210.82 218.08C1211.94 217.76 1213.22 217.44 1214.66 216.64C1215.46 216.16 1215.94 215.36 1216.1 214.4C1216.9 210.4 1216.26 206.4 1214.18 202.72ZM1179.78 201.92L1165.54 202.4L1164.42 202.08C1167.14 200.32 1170.18 198.88 1173.7 197.44C1173.86 197.44 1174.02 197.28 1174.18 197.28C1175.94 196.96 1177.86 196.96 1179.78 196.96V201.92ZM1196.74 201.28L1182.98 201.76V197.12C1187.46 197.28 1192.26 198.08 1197.7 199.36L1196.74 201.28Z" fill="#C3CB47"/>
<path d="M1147.46 215.52C1147.46 211.84 1150.5 208.8 1154.18 208.8C1157.86 208.8 1160.9 211.84 1160.9 215.52C1160.9 219.2 1157.86 222.24 1154.18 222.24C1150.5 222.24 1147.46 219.2 1147.46 215.52Z" fill="#C3CB47"/>
<path d="M1208.26 215.52C1208.26 219.2 1205.22 222.24 1201.54 222.24C1197.86 222.24 1194.82 219.2 1194.82 215.52C1194.82 211.84 1197.86 208.8 1201.54 208.8C1205.22 208.8 1208.26 211.84 1208.26 215.52Z" fill="#C3CB47"/>
<path d="M1303.75 212.375C1302.14 212.375 1300.57 212.852 1299.24 213.744C1297.9 214.637 1296.86 215.906 1296.24 217.391C1295.63 218.875 1295.47 220.509 1295.78 222.085C1296.09 223.661 1296.87 225.109 1298 226.245C1299.14 227.382 1300.59 228.155 1302.16 228.469C1303.74 228.782 1305.37 228.621 1306.86 228.007C1308.34 227.392 1309.61 226.35 1310.51 225.014C1311.4 223.678 1311.88 222.107 1311.88 220.5C1311.87 218.346 1311.02 216.281 1309.49 214.757C1307.97 213.234 1305.9 212.377 1303.75 212.375ZM1303.75 224.875C1302.88 224.875 1302.04 224.618 1301.32 224.138C1300.6 223.657 1300.04 222.974 1299.71 222.174C1299.38 221.375 1299.29 220.495 1299.46 219.646C1299.63 218.798 1300.04 218.018 1300.66 217.406C1301.27 216.795 1302.05 216.378 1302.9 216.209C1303.75 216.04 1304.62 216.127 1305.42 216.458C1306.22 216.789 1306.91 217.35 1307.39 218.069C1307.87 218.789 1308.13 219.635 1308.13 220.5C1308.12 221.66 1307.66 222.772 1306.84 223.592C1306.02 224.412 1304.91 224.874 1303.75 224.875Z" fill="#C3CB47"/>
<path d="M1258.75 212.375C1257.14 212.375 1255.57 212.852 1254.24 213.744C1252.9 214.637 1251.86 215.906 1251.24 217.391C1250.63 218.875 1250.47 220.509 1250.78 222.085C1251.09 223.661 1251.87 225.109 1253 226.245C1254.14 227.382 1255.59 228.155 1257.16 228.469C1258.74 228.782 1260.37 228.621 1261.86 228.007C1263.34 227.392 1264.61 226.35 1265.51 225.014C1266.4 223.678 1266.88 222.107 1266.88 220.5C1266.87 218.346 1266.02 216.281 1264.49 214.757C1262.97 213.234 1260.9 212.377 1258.75 212.375ZM1258.75 224.875C1257.88 224.875 1257.04 224.618 1256.32 224.138C1255.6 223.657 1255.04 222.974 1254.71 222.174C1254.38 221.375 1254.29 220.495 1254.46 219.646C1254.63 218.798 1255.04 218.018 1255.66 217.406C1256.27 216.795 1257.05 216.378 1257.9 216.209C1258.75 216.04 1259.62 216.127 1260.42 216.458C1261.22 216.789 1261.91 217.35 1262.39 218.069C1262.87 218.789 1263.13 219.635 1263.13 220.5C1263.12 221.66 1262.66 222.772 1261.84 223.592C1261.02 224.412 1259.91 224.874 1258.75 224.875Z" fill="#C3CB47"/>
<path d="M1317.83 206.154L1303.4 203.599L1291.87 192.207C1291.16 191.512 1290.22 191.123 1289.23 191.125H1260.17C1259.05 191.123 1257.96 191.452 1257.04 192.072C1256.11 192.692 1255.39 193.574 1254.97 194.605L1251.25 203.625H1244.38C1243.38 203.626 1242.43 204.022 1241.72 204.725C1241.02 205.428 1240.63 206.381 1240.62 207.375V218.625C1240.63 219.619 1241.02 220.572 1241.72 221.275C1242.43 221.978 1243.38 222.374 1244.38 222.375H1248.93C1248.65 220.929 1248.7 219.439 1249.06 218.012C1249.43 216.585 1250.1 215.257 1251.04 214.121C1251.98 212.986 1253.16 212.072 1254.49 211.445C1255.82 210.817 1257.28 210.492 1258.75 210.492C1260.22 210.492 1261.68 210.817 1263.01 211.445C1264.34 212.072 1265.52 212.986 1266.46 214.121C1267.4 215.257 1268.07 216.585 1268.44 218.012C1268.8 219.439 1268.85 220.929 1268.57 222.375H1293.93C1293.65 220.929 1293.7 219.439 1294.06 218.012C1294.43 216.585 1295.1 215.257 1296.04 214.121C1296.98 212.986 1298.16 212.072 1299.49 211.445C1300.82 210.817 1302.28 210.492 1303.75 210.492C1305.22 210.492 1306.68 210.817 1308.01 211.445C1309.34 212.072 1310.52 212.986 1311.46 214.121C1312.4 215.257 1313.07 216.585 1313.44 218.012C1313.8 219.439 1313.85 220.929 1313.57 222.375H1313.75C1315.24 222.373 1316.67 221.78 1317.73 220.726C1318.78 219.671 1319.37 218.241 1319.38 216.75V208C1319.38 207.559 1319.22 207.133 1318.94 206.795C1318.65 206.458 1318.26 206.231 1317.83 206.154ZM1261.41 201.75C1261.41 202.247 1261.21 202.724 1260.86 203.076C1260.51 203.427 1260.03 203.625 1259.53 203.625H1255.15C1254.99 203.625 1254.84 203.587 1254.7 203.514C1254.57 203.442 1254.45 203.337 1254.37 203.209C1254.28 203.081 1254.23 202.934 1254.21 202.78C1254.2 202.627 1254.22 202.472 1254.28 202.33L1256.88 196.035C1257.02 195.692 1257.26 195.398 1257.57 195.192C1257.88 194.985 1258.24 194.875 1258.61 194.875H1259.53C1260.03 194.875 1260.51 195.073 1260.86 195.424C1261.21 195.776 1261.41 196.253 1261.41 196.75V201.75ZM1277.5 201.75C1277.5 202.247 1277.3 202.724 1276.95 203.076C1276.6 203.427 1276.12 203.625 1275.62 203.625H1266.41C1265.91 203.625 1265.43 203.427 1265.08 203.076C1264.73 202.724 1264.53 202.247 1264.53 201.75V196.75C1264.53 196.253 1264.73 195.776 1265.08 195.424C1265.43 195.073 1265.91 194.875 1266.41 194.875H1275.62C1276.12 194.875 1276.6 195.073 1276.95 195.424C1277.3 195.776 1277.5 196.253 1277.5 196.75V201.75ZM1285 210.5H1282.5C1282 210.5 1281.53 210.302 1281.17 209.951C1280.82 209.599 1280.62 209.122 1280.62 208.625C1280.62 208.128 1280.82 207.651 1281.17 207.299C1281.53 206.948 1282 206.75 1282.5 206.75H1285C1285.5 206.75 1285.97 206.948 1286.33 207.299C1286.68 207.651 1286.88 208.128 1286.88 208.625C1286.88 209.122 1286.68 209.599 1286.33 209.951C1285.97 210.302 1285.5 210.5 1285 210.5ZM1298.12 203.625H1282.5C1282 203.625 1281.53 203.427 1281.17 203.076C1280.82 202.724 1280.62 202.247 1280.62 201.75V196.75C1280.62 196.253 1280.82 195.776 1281.17 195.424C1281.53 195.073 1282 194.875 1282.5 194.875H1290.68C1291.17 194.875 1291.64 195.066 1291.99 195.407L1298.77 202.017C1298.9 202.147 1299 202.314 1299.03 202.496C1299.07 202.679 1299.05 202.868 1298.98 203.041C1298.91 203.213 1298.79 203.361 1298.64 203.465C1298.48 203.569 1298.3 203.625 1298.12 203.625Z" fill="#C3CB47"/>
<path d="M1281.78 184.907C1281.65 184.534 1281.42 184.209 1281.1 183.979C1280.78 183.749 1280.39 183.625 1280 183.625H1270C1269.61 183.625 1269.22 183.749 1268.9 183.979C1268.58 184.209 1268.35 184.533 1268.22 184.906L1266.77 189.25H1283.23L1281.78 184.907Z" fill="#C3CB47"/>
<defs>
<clipPath id="clip0_11_49653">
<rect width="80" height="80" fill="white" transform="translate(120 168)"/>
</clipPath>
<clipPath id="clip1_11_49653">
<rect width="80" height="80" fill="white" transform="translate(425.454 168)"/>
</clipPath>
<clipPath id="clip2_11_49653">
<rect width="80" height="80" fill="white" transform="translate(527.272 168)"/>
</clipPath>
<clipPath id="clip3_11_49653">
<rect width="80" height="80" fill="white" transform="translate(629.091 168)"/>
</clipPath>
<clipPath id="clip4_11_49653">
<rect width="80" height="80" fill="white" transform="translate(832.728 168)"/>
</clipPath>
<clipPath id="clip5_11_49653">
<rect width="80" height="80" fill="white" transform="translate(934.545 168)"/>
</clipPath>
</defs>
</svg>
