<svg width="80" height="22" viewBox="0 0 80 22" fill="none" xmlns="http://www.w3.org/2000/svg">
<path d="M25.9899 10.6558L25.4158 8.93359H23.2344V10.6558C23.2344 10.8461 23.3886 11.0003 23.5788 11.0003H26.3344L25.9899 10.6558Z" fill="#5D5360"/>
<path d="M25.4158 8.93359H23.2344V9.96691H25.7603L25.4158 8.93359Z" fill="#4B3F4E"/>
<path d="M23.2371 14.8105H23.2336C23.0557 14.8105 22.9131 14.9548 22.9131 15.1328C22.9131 15.3108 23.0591 15.4551 23.2371 15.4551C23.415 15.4551 23.5593 15.3108 23.5593 15.1328C23.5593 14.9548 23.415 14.8105 23.2371 14.8105Z" fill="#333333"/>
<path d="M26.4759 11.1428L25.9888 10.6557L24.9555 7.55566H21.8555V14.789L26.3332 14.7892C26.5234 14.7892 26.6776 14.635 26.6776 14.4447V11.6299C26.6776 11.4472 26.6051 11.272 26.4759 11.1428Z" fill="#DBD9DC"/>
<path d="M5.6667 5.48926H21.5111C21.7013 5.48926 21.8556 5.64347 21.8556 5.8337V13.7559H5.6667C5.47648 13.7559 5.32227 13.6017 5.32227 13.4115V5.83365C5.32227 5.64343 5.47648 5.48926 5.6667 5.48926Z" fill="#3A7C97"/>
<path d="M21.8556 13.7557H5.6667C5.47648 13.7557 5.32227 13.6015 5.32227 13.4112V12.3779H21.8556V13.7557Z" fill="#7DA5D7"/>
<path d="M23.2332 15.1336H6.69991C6.50968 15.1336 6.35547 14.9794 6.35547 14.7892V13.7559H23.2332V15.1336Z" fill="#6F6571"/>
<path d="M23.233 16.511C23.9939 16.511 24.6106 15.8943 24.6106 15.1334C24.6106 14.3726 23.9939 13.7559 23.233 13.7559C22.4722 13.7559 21.8555 14.3726 21.8555 15.1334C21.8555 15.8943 22.4722 16.511 23.233 16.511Z" fill="#4B3F4E"/>
<path d="M11.8659 16.511C12.6267 16.511 13.2434 15.8943 13.2434 15.1334C13.2434 14.3726 12.6267 13.7559 11.8659 13.7559C11.105 13.7559 10.4883 14.3726 10.4883 15.1334C10.4883 15.8943 11.105 16.511 11.8659 16.511Z" fill="#4B3F4E"/>
<path d="M9.11098 16.511C9.8718 16.511 10.4886 15.8943 10.4886 15.1334C10.4886 14.3726 9.8718 13.7559 9.11098 13.7559C8.35016 13.7559 7.7334 14.3726 7.7334 15.1334C7.7334 15.8943 8.35016 16.511 9.11098 16.511Z" fill="#4B3F4E"/>
<path d="M9.115 14.8115H9.11152C8.93354 14.8115 8.79102 14.9558 8.79102 15.1338C8.79102 15.3118 8.93702 15.4561 9.115 15.4561C9.29298 15.4561 9.43727 15.3118 9.43727 15.1338C9.43727 14.9558 9.29298 14.8115 9.115 14.8115Z" fill="#333333"/>
<path d="M11.8699 14.8115H11.8664C11.6885 14.8115 11.5459 14.9558 11.5459 15.1338C11.5459 15.3118 11.6919 15.4561 11.8699 15.4561C12.0479 15.4561 12.1921 15.3118 12.1921 15.1338C12.1921 14.9558 12.0479 14.8115 11.8699 14.8115Z" fill="#333333"/>
<path d="M26.7039 10.915L26.2706 10.4817L25.3977 7.86294C25.5279 7.82156 25.6223 7.69975 25.6223 7.55584C25.6223 7.37787 25.478 7.23358 25.3 7.23358H22.1779V5.8337C22.1779 5.46605 21.8788 5.16699 21.5112 5.16699H5.6667C5.29906 5.16704 5 5.46614 5 5.8337V13.4114C5 13.7791 5.29906 14.0781 5.6667 14.0781H6.03331V14.789C6.03331 15.1566 6.33238 15.4557 6.70002 15.4557H7.44213C7.59321 16.2395 8.28394 16.8335 9.11113 16.8335C9.67755 16.8335 10.1798 16.5548 10.4889 16.1276C10.798 16.5548 11.3003 16.8335 11.8667 16.8335C12.6939 16.8335 13.3846 16.2395 13.5357 15.4557H21.5643C21.7154 16.2395 22.4061 16.8335 23.2333 16.8335C24.1707 16.8335 24.9333 16.0708 24.9333 15.1334C24.9333 15.1261 24.9329 15.1188 24.9328 15.1114H26.3333C26.7009 15.1114 27 14.8124 27 14.4447V11.6299C27 11.3599 26.8949 11.106 26.7039 10.915ZM7.44213 14.8112H6.70002C6.68777 14.8112 6.67785 14.8013 6.67785 14.789V14.0782H7.77978C7.61306 14.2881 7.49477 14.538 7.44213 14.8112ZM9.11113 16.1891C8.52912 16.1891 8.05564 15.7155 8.05564 15.1336C8.05564 14.5538 8.52559 14.0818 9.10456 14.0782H9.11779C9.69675 14.0818 10.1667 14.5537 10.1667 15.1336C10.1667 15.7155 9.69314 16.1891 9.11113 16.1891ZM11.8667 16.1891C11.2847 16.1891 10.8112 15.7155 10.8112 15.1336C10.8112 14.5538 11.2811 14.0818 11.8601 14.0782H11.8733C12.4523 14.0818 12.9223 14.5537 12.9223 15.1336C12.9222 15.7155 12.4487 16.1891 11.8667 16.1891ZM21.5644 14.8112H13.5357C13.4831 14.538 13.3648 14.2881 13.198 14.0781H19.4444C19.6224 14.0781 19.7667 13.9338 19.7667 13.7559C19.7667 13.5779 19.6224 13.4336 19.4444 13.4336H5.6667C5.65446 13.4336 5.64453 13.4237 5.64453 13.4114V5.8337C5.64453 5.82145 5.65446 5.81152 5.6667 5.81152H21.5111C21.5234 5.81152 21.5333 5.82145 21.5333 5.8337V13.4336H20.8224C20.6444 13.4336 20.5001 13.5779 20.5001 13.7559C20.5001 13.9339 20.6444 14.0782 20.8224 14.0782H21.902C21.7352 14.2881 21.617 14.538 21.5644 14.8112ZM25.6566 10.678H23.5778C23.5655 10.678 23.5556 10.668 23.5556 10.6558V9.25582H25.1826L25.6566 10.678ZM23.2334 16.1891C22.6513 16.1891 22.1779 15.7155 22.1779 15.1336C22.1779 14.5538 22.6478 14.0818 23.2268 14.0782H23.2334C23.2341 14.0782 23.2349 14.0781 23.2356 14.0781C23.8166 14.0793 24.2889 14.5523 24.2889 15.1335C24.2888 15.7155 23.8154 16.1891 23.2334 16.1891ZM26.3555 12.4003H25.9889C25.8109 12.4003 25.6666 12.5446 25.6666 12.7226C25.6666 12.9006 25.8109 13.0449 25.9889 13.0449H26.3555V14.4448C26.3555 14.4571 26.3456 14.467 26.3333 14.467H24.7971C24.5374 13.86 23.9343 13.4335 23.2334 13.4335C23.2311 13.4335 23.229 13.4337 23.2267 13.4337H22.1779V7.90037V7.9002C22.1779 7.88795 22.1878 7.87803 22.2 7.87803H24.7233L24.9677 8.61125H23.2334C23.0554 8.61125 22.9111 8.75553 22.9111 8.93351V10.6557C22.9111 11.0234 23.2102 11.3224 23.5778 11.3224H26.1998L26.2481 11.3707C26.3174 11.44 26.3555 11.5321 26.3555 11.63V12.4003Z" fill="#333333"/>
<path d="M6.69922 12.7002H20.477C20.6549 12.7002 20.7992 12.5559 20.7992 12.3779C20.7992 12.2 20.6549 12.0557 20.477 12.0557H6.69922C6.52124 12.0557 6.37695 12.2 6.37695 12.3779C6.37695 12.5559 6.52124 12.7002 6.69922 12.7002Z" fill="#333333"/>
<path d="M45.9856 12.47H46.3504C46.7935 12.47 47.1541 12.8305 47.1541 13.2737C47.1541 13.7169 46.7935 14.0774 46.3504 14.0774H45.7496L45.6832 15.3546C45.6678 15.6484 45.7694 15.9262 45.9692 16.1366C46.1689 16.3469 46.4403 16.4626 46.734 16.4626H47.9285L48.1499 10.7634C48.1754 10.1113 48.3492 9.45714 48.6666 8.81923L48.7 8.75195L48.6617 8.78042C47.3575 9.75172 46.3963 11.0823 45.9856 12.47Z" fill="#DBCA0B"/>
<path d="M46.5327 13.2733C46.5327 13.1732 46.4513 13.0918 46.3512 13.0918H39.8867C39.9185 13.2117 39.9461 13.3328 39.9697 13.4548H46.3512C46.4512 13.4548 46.5327 13.3734 46.5327 13.2733Z" fill="#FFEC6B"/>
<path d="M38.3946 4.37263C38.3946 4.54449 38.2553 4.68375 38.0835 4.68375H35.4813V9.07482C36.1565 9.18869 36.8068 9.42449 37.3961 9.77869C38.1207 10.214 39.0263 10.232 39.7595 9.82559L40.0719 9.65236L38.7875 4.44721C38.7646 4.35437 38.7857 4.25611 38.8447 4.18087C38.9036 4.1055 38.994 4.06155 39.0896 4.06155H39.4249C39.5307 4.06155 39.6167 3.97548 39.6167 3.86966C39.6167 3.76384 39.5307 3.67773 39.4249 3.67773H32.5415C32.4357 3.67773 32.3496 3.76384 32.3496 3.86966C32.3496 3.97548 32.4357 4.06155 32.5415 4.06155H38.0835C38.2553 4.0615 38.3946 4.20076 38.3946 4.37263Z" fill="#FFF296"/>
<path d="M42.7603 15.0361C41.878 15.0361 41.1602 15.7539 41.1602 16.6362C41.1602 17.5186 41.878 18.2363 42.7603 18.2363C43.6426 18.2363 44.3603 17.5185 44.3603 16.6362C44.3603 15.7539 43.6426 15.0361 42.7603 15.0361ZM42.7603 17.7943C42.1217 17.7943 41.6021 17.2748 41.6021 16.6362C41.6021 15.9977 42.1217 15.4782 42.7603 15.4782C42.9321 15.4782 43.0714 15.6174 43.0714 15.7893C43.0714 15.9611 42.9321 16.1004 42.7603 16.1004C42.4648 16.1004 42.2243 16.3408 42.2243 16.6363C42.2243 16.9317 42.4648 17.1721 42.7603 17.1721C43.0556 17.1721 43.2961 16.9317 43.2961 16.6363C43.2961 16.4644 43.4354 16.3252 43.6072 16.3252C43.7789 16.3252 43.9183 16.4644 43.9183 16.6363C43.9183 17.2748 43.3987 17.7943 42.7603 17.7943Z" fill="#A3A3A3"/>
<path d="M34.3399 10.9395C32.3282 10.9395 30.6914 12.5762 30.6914 14.5879C30.6914 16.5998 32.3282 18.2365 34.3399 18.2365C36.3518 18.2365 37.9885 16.5998 37.9885 14.5879C37.9885 12.5762 36.3518 10.9395 34.3399 10.9395ZM34.3399 16.7883C33.1267 16.7883 32.1397 15.8012 32.1397 14.5879C32.1397 13.3746 33.1267 12.3876 34.3399 12.3876C35.5532 12.3876 36.5402 13.3746 36.5402 14.5879C36.5402 15.8012 35.5532 16.7883 34.3399 16.7883Z" fill="#A3A3A3"/>
<path d="M34.3397 13.0098C33.4696 13.0098 32.7617 13.7177 32.7617 14.5879C32.7617 15.4581 33.4696 16.166 34.3397 16.166C35.2098 16.166 35.9178 15.4581 35.9178 14.5879C35.9178 13.7177 35.2099 13.0098 34.3397 13.0098ZM34.3397 15.7022C33.7252 15.7022 33.2254 15.2023 33.2254 14.5879C33.2254 14.416 33.3647 14.2767 33.5366 14.2767C33.7084 14.2767 33.8477 14.416 33.8477 14.5879C33.8477 14.8592 34.0684 15.08 34.3397 15.08C34.611 15.08 34.8318 14.8592 34.8318 14.5879C34.8318 14.3166 34.611 14.0959 34.3397 14.0959C34.1678 14.0959 34.0286 13.9566 34.0286 13.7847C34.0286 13.6129 34.1678 13.4736 34.3397 13.4736C34.9541 13.4736 35.454 13.9734 35.454 14.5879C35.454 15.2023 34.9542 15.7022 34.3397 15.7022Z" fill="#DBCA0B"/>
<path d="M42.7602 14.4138C43.1108 14.4138 43.4414 14.4977 43.7366 14.6429L43.8036 14.0768H40.0531C40.064 14.2187 40.0711 14.3611 40.0711 14.5041C40.0711 14.676 39.9318 14.8152 39.76 14.8152C39.5881 14.8152 39.4489 14.676 39.4489 14.5041C39.4489 13.6172 39.2089 12.7488 38.755 11.9926C38.6666 11.8453 38.7143 11.6542 38.8617 11.5657C39.0089 11.4772 39.2003 11.5251 39.2886 11.6724C39.4416 11.9273 39.5703 12.1946 39.6794 12.4693H43.994L44.1191 11.4113L40.4602 10.1484L40.061 10.3699C39.1342 10.8841 37.9902 10.8619 37.0753 10.3121C36.3187 9.85752 35.4496 9.61719 34.562 9.61719C33.4355 9.61719 32.377 9.98965 31.5012 10.6944C31.3573 10.8101 31.2696 10.9813 31.2606 11.1639C31.254 11.2978 31.2891 11.4252 31.36 11.534C32.1302 10.7823 33.1811 10.3169 34.3398 10.3169C36.6948 10.3169 38.6106 12.2327 38.6106 14.5876C38.6106 14.9737 38.5545 15.346 38.458 15.7019H40.7465C41.1003 14.9426 41.8687 14.4138 42.7602 14.4138Z" fill="#19B041"/>
<path d="M43.574 10.5642L43.702 10.0814C43.7419 9.93168 43.6587 9.7739 43.5126 9.7222L40.4639 8.6416L40.6929 9.56978L43.574 10.5642Z" fill="#A3A3A3"/>
<path d="M34.8592 9.00466V4.68359H33.5067L32.7695 9.29695C33.3434 9.09943 33.9495 8.99463 34.5624 8.99463C34.6617 8.99463 34.7605 8.99938 34.8592 9.00466Z" fill="#DBCA0B"/>
<path d="M43.6076 16.3245C43.4358 16.3245 43.2965 16.4638 43.2965 16.6357C43.2965 16.9311 43.056 17.1715 42.7607 17.1715C42.4652 17.1715 42.2247 16.931 42.2247 16.6357C42.2247 16.3402 42.4652 16.0998 42.7607 16.0998C42.9325 16.0998 43.0718 15.9605 43.0718 15.7887C43.0718 15.6168 42.9325 15.4775 42.7607 15.4775C42.1221 15.4775 41.6025 15.997 41.6025 16.6356C41.6025 17.2741 42.1221 17.7937 42.7607 17.7937C43.3991 17.7937 43.9187 17.2741 43.9187 16.6356C43.9187 16.4638 43.7794 16.3245 43.6076 16.3245Z" fill="#333333"/>
<path d="M34.3409 12.3877C33.1277 12.3877 32.1406 13.3747 32.1406 14.588C32.1406 15.8013 33.1276 16.7884 34.3409 16.7884C35.5542 16.7884 36.5412 15.8013 36.5412 14.588C36.5412 13.3747 35.5542 12.3877 34.3409 12.3877ZM34.3409 16.1662C33.4708 16.1662 32.7629 15.4582 32.7629 14.588C32.7629 13.7179 33.4708 13.0099 34.3409 13.0099C35.211 13.0099 35.919 13.7179 35.919 14.588C35.919 15.4582 35.2111 16.1662 34.3409 16.1662Z" fill="#333333"/>
<path d="M34.3398 13.4736C34.168 13.4736 34.0287 13.6129 34.0287 13.7848C34.0287 13.9566 34.168 14.0959 34.3398 14.0959C34.6111 14.0959 34.8319 14.3166 34.8319 14.5879C34.8319 14.8592 34.6111 15.08 34.3398 15.08C34.0685 15.08 33.8478 14.8592 33.8478 14.5879C33.8478 14.416 33.7086 14.2768 33.5367 14.2768C33.3648 14.2768 33.2256 14.416 33.2256 14.5879C33.2256 15.2023 33.7254 15.7022 34.3398 15.7022C34.9543 15.7022 35.4542 15.2023 35.4542 14.5879C35.4542 13.9734 34.9543 13.4736 34.3398 13.4736Z" fill="#333333"/>
<path d="M49.3725 7.47529L48.2904 8.28084C46.8252 9.37182 45.7593 10.8907 45.3411 12.4694H44.6207L44.7668 11.2356C44.784 11.0904 44.6978 10.9526 44.5594 10.9049L44.1634 10.7682L44.3031 10.2415C44.4253 9.78089 44.1692 9.29535 43.7199 9.13616L40.2849 7.91863L39.4862 4.68168C39.9065 4.65031 40.2389 4.29814 40.2389 3.86984C40.2389 3.42086 39.8737 3.05566 39.4248 3.05566H32.5415C32.0926 3.05566 31.7273 3.42086 31.7273 3.86984C31.7273 4.31877 32.0926 4.68402 32.5415 4.68402H32.8763L32.0931 9.58531C31.7466 9.75889 31.4156 9.96485 31.1114 10.2096C30.8291 10.4368 30.657 10.7734 30.6394 11.1334C30.6236 11.4548 30.734 11.7685 30.943 12.0101C30.3973 12.7275 30.0693 13.619 30.0693 14.5878C30.0693 16.9427 31.9852 18.8586 34.3401 18.8586C36.0764 18.8586 37.5712 17.8155 38.2382 16.3243H40.5626C40.5481 16.4266 40.5381 16.5301 40.5381 16.6363C40.5381 17.8616 41.535 18.8586 42.7605 18.8586C43.9857 18.8586 44.9827 17.8616 44.9827 16.6363C44.9827 16.0158 44.7264 15.4546 44.315 15.051L44.4303 14.0769H45.1267L45.0619 15.3217C45.0376 15.7877 45.1996 16.229 45.518 16.5646C45.8363 16.8998 46.2681 17.0844 46.7342 17.0844H48.7907C48.9625 17.0844 49.1018 16.9452 49.1018 16.7733C49.1018 16.6015 48.9625 16.4622 48.7907 16.4622H48.5513L48.7719 10.7872C48.7938 10.2236 48.9459 9.65456 49.2238 9.09594L49.8367 7.86341C49.9009 7.73449 49.8681 7.57838 49.7577 7.48616C49.6475 7.39389 49.4881 7.38931 49.3725 7.47529ZM43.5122 9.72272C43.6582 9.77438 43.7415 9.93216 43.7015 10.0819L43.5735 10.5647L40.6924 9.57035L40.4634 8.64217L43.5122 9.72272ZM32.5415 4.06177C32.4357 4.06177 32.3496 3.9757 32.3496 3.86988C32.3496 3.76406 32.4357 3.67796 32.5415 3.67796H39.4249C39.5306 3.67796 39.6167 3.76406 39.6167 3.86988C39.6167 3.9757 39.5306 4.06177 39.4249 4.06177H39.0896C38.9939 4.06177 38.9036 4.10572 38.8447 4.1811C38.7856 4.25634 38.7645 4.35459 38.7874 4.44743L40.0719 9.65258L39.7595 9.82581C39.0262 10.2322 38.1206 10.2142 37.396 9.77891C36.8067 9.42471 36.1564 9.18891 35.4812 9.07504V4.68397H38.0834C38.2553 4.68397 38.3945 4.54471 38.3945 4.37285C38.3945 4.20098 38.2553 4.06172 38.0834 4.06172L32.5415 4.06177ZM33.5065 4.68402H34.859V9.00508C34.7603 8.9998 34.6615 8.99505 34.5623 8.99505C33.9493 8.99505 33.3432 9.09986 32.7694 9.29737L33.5065 4.68402ZM34.3401 18.2364C32.3283 18.2364 30.6915 16.5996 30.6915 14.5878C30.6915 12.576 32.3283 10.9393 34.3401 10.9393C36.3519 10.9393 37.9886 12.576 37.9886 14.5878C37.9886 16.5996 36.3519 18.2364 34.3401 18.2364ZM38.4583 15.7021C38.5548 15.3461 38.6109 14.9738 38.6109 14.5878C38.6109 12.2329 36.6951 10.317 34.3401 10.317C33.1814 10.317 32.1305 10.7824 31.3603 11.5342C31.2894 11.4254 31.2543 11.298 31.2609 11.164C31.2699 10.9814 31.3576 10.8103 31.5015 10.6945C32.3774 9.9898 33.4358 9.61734 34.5623 9.61734C35.45 9.61734 36.319 9.85767 37.0756 10.3123C37.9905 10.8621 39.1345 10.8843 40.0613 10.37L40.4605 10.1486L44.1194 11.4114L43.9943 12.4695H39.6797C39.5706 12.1948 39.4419 11.9275 39.2889 11.6725C39.2006 11.5253 39.0092 11.4774 38.862 11.5659C38.7146 11.6543 38.6669 11.8455 38.7553 11.9928C39.2092 12.7489 39.4492 13.6173 39.4492 14.5042C39.4492 14.6761 39.5884 14.8154 39.7603 14.8154C39.9321 14.8154 40.0714 14.6761 40.0714 14.5042C40.0714 14.3612 40.0643 14.2188 40.0534 14.077H43.8038L43.7368 14.6431C43.4416 14.4979 43.1111 14.414 42.7605 14.414C41.869 14.414 41.1005 14.9428 40.7468 15.7021H38.4583V15.7021ZM44.3605 16.6363C44.3605 17.5186 43.6429 18.2364 42.7605 18.2364C41.8782 18.2364 41.1604 17.5186 41.1604 16.6363C41.1604 15.754 41.8782 15.0362 42.7605 15.0362C43.6428 15.0362 44.3605 15.754 44.3605 16.6363ZM39.9692 13.4547C39.9456 13.3327 39.9179 13.2117 39.8861 13.0917H46.3506C46.4506 13.0917 46.532 13.1731 46.532 13.2732C46.532 13.3732 46.4506 13.4547 46.3506 13.4547H39.9692ZM48.6668 8.81874C48.3494 9.4567 48.1756 10.1108 48.1501 10.7629L47.9287 16.4622H46.7342C46.4405 16.4622 46.1691 16.3464 45.9694 16.1362C45.7696 15.9257 45.668 15.6479 45.6834 15.3541L45.7497 14.0769H46.3506C46.7937 14.0769 47.1543 13.7164 47.1543 13.2732C47.1543 12.83 46.7937 12.4695 46.3506 12.4695H45.9858C46.3965 11.0818 47.3577 9.75123 48.6619 8.77998L48.7002 8.75151L48.6668 8.81874Z" fill="#333333"/>
<path d="M66.4063 14.4375V17.5313H58.8438C58.8438 17.0754 58.6627 16.6382 58.3403 16.3159C58.018 15.9936 57.5808 15.8125 57.125 15.8125C56.6692 15.8125 56.232 15.9936 55.9097 16.3159C55.5873 16.6382 55.4063 17.0754 55.4063 17.5313H54.375C54.2838 17.5313 54.1964 17.495 54.1319 17.4306C54.0675 17.3661 54.0312 17.2787 54.0312 17.1875V14.4375H66.4063Z" fill="#CC7400"/>
<path d="M55.75 13.75C56.1297 13.75 56.4375 13.4422 56.4375 13.0625C56.4375 12.6828 56.1297 12.375 55.75 12.375C55.3703 12.375 55.0625 12.6828 55.0625 13.0625C55.0625 13.4422 55.3703 13.75 55.75 13.75Z" fill="#57565C"/>
<path d="M61.9375 13.75C62.3172 13.75 62.625 13.4422 62.625 13.0625C62.625 12.6828 62.3172 12.375 61.9375 12.375C61.5578 12.375 61.25 12.6828 61.25 13.0625C61.25 13.4422 61.5578 13.75 61.9375 13.75Z" fill="#57565C"/>
<path d="M58.5 8.9375V11H55.4062L56.2484 9.31906C56.3054 9.20452 56.3931 9.10813 56.5018 9.04072C56.6105 8.97331 56.7358 8.93757 56.8638 8.9375H58.5Z" fill="#D1D3D4"/>
<path d="M62.2813 11H58.5V8.9375H59.875L62.2813 11Z" fill="#E6E7E8"/>
<path d="M69.8438 19.25C70.793 19.25 71.5625 18.4805 71.5625 17.5313C71.5625 16.582 70.793 15.8125 69.8438 15.8125C68.8945 15.8125 68.125 16.582 68.125 17.5313C68.125 18.4805 68.8945 19.25 69.8438 19.25Z" fill="#57565C"/>
<path d="M71.9062 13.75V14.4375C71.9062 14.5287 71.9425 14.6161 72.0069 14.6806C72.0714 14.745 72.1588 14.7813 72.25 14.7813H73.9688V16.8438C73.9682 17.0259 73.8956 17.2005 73.7668 17.3293C73.638 17.4581 73.4634 17.5307 73.2812 17.5313H71.5625C71.5625 17.0754 71.3814 16.6382 71.0591 16.3159C70.7368 15.9936 70.2996 15.8125 69.8438 15.8125C69.3879 15.8125 68.9507 15.9936 68.6284 16.3159C68.3061 16.6382 68.125 17.0754 68.125 17.5313H66.4062V8.25H67.7812V12.0313H73.9138C73.951 12.155 73.9695 12.2836 73.9688 12.4128V13.4063H72.25C72.1588 13.4063 72.0714 13.4425 72.0069 13.5069C71.9425 13.5714 71.9062 13.6588 71.9062 13.75Z" fill="#EE8700"/>
<path d="M73.9688 13.4062V14.7813H72.25C72.1588 14.7813 72.0714 14.745 72.0069 14.6806C71.9425 14.6161 71.9062 14.5287 71.9062 14.4375V13.75C71.9062 13.6588 71.9425 13.5714 72.0069 13.5069C72.0714 13.4425 72.1588 13.4062 72.25 13.4062H73.9688Z" fill="#E6E7E8"/>
<path d="M73.9138 12.0313H67.7812V8.25H71.4972C71.6212 8.25 71.7429 8.28355 71.8494 8.34709C71.9559 8.41063 72.0433 8.5018 72.1022 8.61094L73.7728 11.7047C73.8345 11.8066 73.8819 11.9165 73.9138 12.0313Z" fill="#E6E7E8"/>
<path d="M66.4063 9.62473V14.4372H65.0312V8.98535L66.4063 9.62473Z" fill="#787680"/>
<path d="M66.7154 8.24969H66.406V9.62469L65.031 8.98531L55.406 4.49594L55.1895 4.39625L55.7704 3.14844L66.7154 8.24969Z" fill="#898890"/>
<path d="M66.4063 9.62473V10.3122L65.0312 9.67285V8.98535L66.4063 9.62473Z" fill="#57565C"/>
<path d="M59.5313 17.5313H58.8438C58.8438 17.0754 58.6627 16.6382 58.3403 16.3159C58.018 15.9936 57.5808 15.8125 57.125 15.8125C56.6692 15.8125 56.232 15.9936 55.9097 16.3159C55.5873 16.6382 55.4063 17.0754 55.4063 17.5313H54.7188C54.7188 16.8931 54.9723 16.281 55.4235 15.8298C55.8748 15.3785 56.4868 15.125 57.125 15.125C57.7632 15.125 58.3752 15.3785 58.8265 15.8298C59.2777 16.281 59.5313 16.8931 59.5313 17.5313Z" fill="#AA6100"/>
<path d="M57.125 19.25C58.0742 19.25 58.8438 18.4805 58.8438 17.5313C58.8438 16.582 58.0742 15.8125 57.125 15.8125C56.1758 15.8125 55.4062 16.582 55.4062 17.5313C55.4062 18.4805 56.1758 19.25 57.125 19.25Z" fill="#57565C"/>
<path d="M63.6563 11.6875V13.0625H62.625C62.625 12.8802 62.5526 12.7053 62.4236 12.5764C62.2947 12.4474 62.1198 12.375 61.9375 12.375C61.7552 12.375 61.5803 12.4474 61.4514 12.5764C61.3224 12.7053 61.25 12.8802 61.25 13.0625H56.4375C56.4375 12.8802 56.3651 12.7053 56.2361 12.5764C56.1072 12.4474 55.9323 12.375 55.75 12.375C55.5677 12.375 55.3928 12.4474 55.2639 12.5764C55.1349 12.7053 55.0625 12.8802 55.0625 13.0625H54.0312V11.3438C54.0312 11.2526 54.0675 11.1651 54.1319 11.1007C54.1964 11.0362 54.2838 11 54.375 11H62.9722L63.6563 11.6875Z" fill="#3D9AE2"/>
<path d="M56.7813 13.0625H56.4375C56.4375 12.8802 56.3651 12.7053 56.2361 12.5764C56.1072 12.4474 55.9323 12.375 55.75 12.375C55.5677 12.375 55.3928 12.4474 55.2639 12.5764C55.1349 12.7053 55.0625 12.8802 55.0625 13.0625H54.7188C54.7188 12.789 54.8274 12.5267 55.0208 12.3333C55.2142 12.1399 55.4765 12.0312 55.75 12.0312C56.0235 12.0312 56.2858 12.1399 56.4792 12.3333C56.6726 12.5267 56.7813 12.789 56.7813 13.0625Z" fill="#1E81CE"/>
<path d="M62.9688 13.0625H62.625C62.625 12.8802 62.5526 12.7053 62.4236 12.5764C62.2947 12.4474 62.1198 12.375 61.9375 12.375C61.7552 12.375 61.5803 12.4474 61.4514 12.5764C61.3224 12.7053 61.25 12.8802 61.25 13.0625H60.9062C60.9062 12.789 61.0149 12.5267 61.2083 12.3333C61.4017 12.1399 61.664 12.0312 61.9375 12.0312C62.211 12.0312 62.4733 12.1399 62.6667 12.3333C62.8601 12.5267 62.9688 12.789 62.9688 13.0625Z" fill="#1E81CE"/>
<path d="M72.25 17.5313H71.5625C71.5625 17.0754 71.3814 16.6382 71.0591 16.3159C70.7368 15.9936 70.2996 15.8125 69.8438 15.8125C69.3879 15.8125 68.9507 15.9936 68.6284 16.3159C68.3061 16.6382 68.125 17.0754 68.125 17.5313H67.4375C67.4375 16.8931 67.691 16.281 68.1423 15.8298C68.5935 15.3785 69.2056 15.125 69.8438 15.125C70.4819 15.125 71.094 15.3785 71.5452 15.8298C71.9965 16.281 72.25 16.8931 72.25 17.5313Z" fill="#CC7400"/>
<path d="M67.4375 13.0625H68.8125V13.75H67.4375V13.0625Z" fill="black"/>
<path d="M56.7812 17.1875H57.4688V17.875H56.7812V17.1875Z" fill="black"/>
<path d="M69.5 17.1875H70.1875V17.875H69.5V17.1875Z" fill="black"/>
<path d="M74.0753 11.5407L72.4037 8.44697C72.3152 8.28333 72.1842 8.14664 72.0245 8.05139C71.8647 7.95614 71.6822 7.90587 71.4962 7.90591H66.7916L55.9157 2.83697C55.8748 2.81782 55.8306 2.80695 55.7855 2.80501C55.7404 2.80306 55.6954 2.81007 55.6531 2.82563C55.6106 2.84104 55.5716 2.86466 55.5383 2.89516C55.5049 2.92565 55.478 2.96242 55.4588 3.00335L54.8779 4.25116C54.8587 4.29215 54.8477 4.33654 54.8457 4.38177C54.8437 4.42701 54.8506 4.4722 54.8661 4.51474C54.8816 4.55729 54.9054 4.59635 54.936 4.6297C54.9666 4.66304 55.0035 4.69 55.0446 4.70903L55.0625 4.71625V6.53091C55.0625 6.62208 55.0987 6.70951 55.1632 6.77398C55.2276 6.83844 55.3151 6.87466 55.4063 6.87466C55.4742 6.87466 55.5407 6.89482 55.5972 6.93259C55.6538 6.97036 55.6978 7.02405 55.7238 7.08686C55.7499 7.14967 55.7567 7.21879 55.7434 7.28547C55.7301 7.35215 55.6974 7.4134 55.6493 7.46148C55.6012 7.50955 55.54 7.54229 55.4733 7.55555C55.4066 7.56882 55.3375 7.56201 55.2747 7.53599C55.2119 7.50998 55.1582 7.46592 55.1204 7.40939C55.0827 7.35286 55.0625 7.2864 55.0625 7.21841H54.375C54.375 7.40746 54.427 7.59287 54.5253 7.75436C54.6236 7.91586 54.7644 8.04722 54.9323 8.13411C55.1002 8.22099 55.2888 8.26005 55.4774 8.24701C55.666 8.23397 55.8474 8.16933 56.0017 8.06017C56.1561 7.951 56.2774 7.80151 56.3526 7.62803C56.4277 7.45454 56.4537 7.26374 56.4277 7.07649C56.4017 6.88923 56.3248 6.71271 56.2053 6.56624C56.0857 6.41976 55.9282 6.30896 55.75 6.24594V5.03663L64.6875 9.20254V14.0934H54.0313C53.9401 14.0934 53.8526 14.1296 53.7882 14.1941C53.7237 14.2586 53.6875 14.346 53.6875 14.4372V17.1872C53.6875 17.3695 53.7599 17.5444 53.8889 17.6733C54.0178 17.8022 54.1927 17.8747 54.375 17.8747H55.0934C55.1742 18.355 55.4226 18.7913 55.7946 19.1059C56.1665 19.4205 56.6379 19.5931 57.125 19.5931C57.6121 19.5931 58.0835 19.4205 58.4554 19.1059C58.8274 18.7913 59.0758 18.355 59.1566 17.8747H67.8122C67.893 18.355 68.1414 18.7913 68.5133 19.1059C68.8852 19.4205 69.3566 19.5931 69.8438 19.5931C70.3309 19.5931 70.8023 19.4205 71.1742 19.1059C71.5461 18.7913 71.7945 18.355 71.8753 17.8747H73.2813C73.5548 17.8747 73.8171 17.766 74.0105 17.5726C74.2039 17.3792 74.3125 17.1169 74.3125 16.8434V12.4118C74.3132 12.1054 74.2312 11.8045 74.0753 11.5407ZM71.7987 8.77388L73.373 11.6872H68.125V8.59341H71.4962C71.5582 8.59341 71.619 8.61018 71.6723 8.64195C71.7255 8.67373 71.7692 8.71931 71.7987 8.77388ZM55.937 3.60525L66.0625 8.3246V9.08532L55.6469 4.22985L55.937 3.60525ZM65.375 9.52325L66.0625 9.84363V14.0934H65.375V9.52325ZM57.125 18.9059C56.8531 18.9059 56.5872 18.8253 56.3611 18.6742C56.135 18.5231 55.9587 18.3083 55.8547 18.0571C55.7506 17.8059 55.7234 17.5294 55.7764 17.2627C55.8295 16.9959 55.9604 16.7509 56.1527 16.5586C56.345 16.3663 56.59 16.2354 56.8568 16.1823C57.1235 16.1293 57.3999 16.1565 57.6512 16.2606C57.9024 16.3646 58.1172 16.5409 58.2683 16.767C58.4194 16.9931 58.5 17.259 58.5 17.5309C58.5 17.8956 58.3551 18.2453 58.0973 18.5032C57.8394 18.761 57.4897 18.9059 57.125 18.9059ZM57.125 15.4684C56.6381 15.4693 56.1671 15.6423 55.7954 15.9568C55.4236 16.2713 55.175 16.7071 55.0934 17.1872H54.375V14.7809H66.0625V17.1872H59.1566C59.075 16.7071 58.8264 16.2713 58.4546 15.9568C58.0829 15.6423 57.6119 15.4693 57.125 15.4684ZM69.8438 18.9059C69.5718 18.9059 69.306 18.8253 69.0798 18.6742C68.8537 18.5231 68.6775 18.3083 68.5734 18.0571C68.4693 17.8059 68.4421 17.5294 68.4952 17.2627C68.5482 16.9959 68.6792 16.7509 68.8715 16.5586C69.0638 16.3663 69.3088 16.2354 69.5755 16.1823C69.8422 16.1293 70.1187 16.1565 70.3699 16.2606C70.6212 16.3646 70.8359 16.5409 70.987 16.767C71.1381 16.9931 71.2188 17.259 71.2188 17.5309C71.2188 17.8956 71.0739 18.2453 70.816 18.5032C70.5582 18.761 70.2084 18.9059 69.8438 18.9059ZM73.2813 17.1872H71.8753C71.7945 16.7068 71.5461 16.2706 71.1742 15.956C70.8023 15.6414 70.3309 15.4687 69.8438 15.4687C69.3566 15.4687 68.8852 15.6414 68.5133 15.956C68.1414 16.2706 67.893 16.7068 67.8122 17.1872H66.75V8.59341H67.4375V12.0309C67.4375 12.1221 67.4737 12.2095 67.5382 12.274C67.6026 12.3384 67.6901 12.3747 67.7813 12.3747H73.6198C73.6198 12.387 73.625 12.3991 73.625 12.4118V13.0622H72.25C72.0677 13.0622 71.8928 13.1346 71.7639 13.2635C71.6349 13.3925 71.5625 13.5673 71.5625 13.7497V14.4372C71.5625 14.6195 71.6349 14.7944 71.7639 14.9233C71.8928 15.0522 72.0677 15.1247 72.25 15.1247H73.625V15.8122H72.5938V16.4997H73.625V16.8434C73.625 16.9346 73.5888 17.022 73.5243 17.0865C73.4599 17.1509 73.3724 17.1872 73.2813 17.1872ZM73.625 13.7497V14.4372H72.25V13.7497H73.625Z" fill="black"/>
<path d="M56.718 13.4063H60.9695C61.0395 13.6072 61.1703 13.7814 61.3438 13.9046C61.5172 14.0279 61.7247 14.0941 61.9375 14.0941C62.1503 14.0941 62.3578 14.0279 62.5312 13.9046C62.7047 13.7814 62.8355 13.6072 62.9055 13.4063H63.6563C63.7474 13.4063 63.8349 13.37 63.8993 13.3056C63.9638 13.2411 64 13.1537 64 13.0625V11.6875C64.0001 11.5966 63.9641 11.5093 63.9 11.4448L63.2156 10.7573C63.1836 10.7253 63.1456 10.6998 63.1038 10.6825C63.062 10.6651 63.0171 10.6562 62.9718 10.6563H62.4084L60.0988 8.6766C60.0365 8.62315 59.9571 8.59376 59.875 8.59376H56.8624C56.6707 8.59309 56.4828 8.64613 56.3198 8.74687C56.1567 8.8476 56.0252 8.99201 55.9401 9.16369L55.1938 10.6563H54.375C54.1927 10.6563 54.0178 10.7287 53.8889 10.8576C53.7599 10.9866 53.6875 11.1614 53.6875 11.3438V13.0625C53.6875 13.1537 53.7237 13.2411 53.7882 13.3056C53.8526 13.37 53.9401 13.4063 54.0313 13.4063H54.782C54.852 13.6072 54.9828 13.7814 55.1563 13.9046C55.3297 14.0279 55.5372 14.0941 55.75 14.0941C55.9628 14.0941 56.1703 14.0279 56.3437 13.9046C56.5172 13.7814 56.648 13.6072 56.718 13.4063ZM61.9375 13.4063C61.8695 13.4063 61.8031 13.3861 61.7465 13.3483C61.69 13.3106 61.6459 13.2569 61.6199 13.1941C61.5939 13.1312 61.5871 13.0621 61.6004 12.9954C61.6136 12.9288 61.6464 12.8675 61.6944 12.8194C61.7425 12.7714 61.8038 12.7386 61.8704 12.7254C61.9371 12.7121 62.0062 12.7189 62.069 12.7449C62.1319 12.7709 62.1855 12.815 62.2233 12.8715C62.2611 12.9281 62.2813 12.9945 62.2813 13.0625C62.2813 13.1537 62.245 13.2411 62.1806 13.3056C62.1161 13.37 62.0287 13.4063 61.9375 13.4063ZM61.3531 10.6563H58.8438V9.28126H59.7478L61.3531 10.6563ZM56.5551 9.47135C56.5834 9.41411 56.6272 9.36595 56.6815 9.33235C56.7359 9.29875 56.7985 9.28105 56.8624 9.28126H58.1563V10.6563H55.9624L56.5551 9.47135ZM54.375 11.3438H62.8292L63.3125 11.8295V12.7188H62.9055C62.8355 12.5178 62.7047 12.3436 62.5312 12.2204C62.3578 12.0971 62.1503 12.0309 61.9375 12.0309C61.7247 12.0309 61.5172 12.0971 61.3438 12.2204C61.1703 12.3436 61.0395 12.5178 60.9695 12.7188H56.718C56.648 12.5178 56.5172 12.3436 56.3437 12.2204C56.1703 12.0971 55.9628 12.0309 55.75 12.0309C55.5372 12.0309 55.3297 12.0971 55.1563 12.2204C54.9828 12.3436 54.852 12.5178 54.782 12.7188H54.375V11.3438ZM55.75 13.4063C55.682 13.4063 55.6156 13.3861 55.559 13.3483C55.5025 13.3106 55.4584 13.2569 55.4324 13.1941C55.4064 13.1312 55.3996 13.0621 55.4129 12.9954C55.4261 12.9288 55.4589 12.8675 55.5069 12.8194C55.555 12.7714 55.6163 12.7386 55.6829 12.7254C55.7496 12.7121 55.8187 12.7189 55.8815 12.7449C55.9444 12.7709 55.998 12.815 56.0358 12.8715C56.0736 12.9281 56.0938 12.9945 56.0938 13.0625C56.0938 13.1537 56.0575 13.2411 55.9931 13.3056C55.9286 13.37 55.8412 13.4063 55.75 13.4063Z" fill="black"/>
</svg>
