<svg width="120" height="121" viewBox="0 0 120 121" fill="none" xmlns="http://www.w3.org/2000/svg">
<g clip-path="url(#clip0_15_4212)">
<path d="M107.069 0.759766H79.3021C73.2065 0.759766 65.0546 4.13623 60.7452 8.44653L3.77563 65.4152C1.34033 67.8496 0 71.0961 0 74.5577C0 78.0193 1.34125 81.2657 3.77563 83.7001L37.0587 116.984C39.4931 119.419 42.7405 120.76 46.2012 120.76C49.6628 120.76 52.9092 119.419 55.3445 116.984L112.313 60.0145C116.624 55.7051 120 47.5533 120 41.4577V13.6888C119.999 6.55963 114.198 0.759766 107.069 0.759766ZM100.33 25.6035C99.6762 26.2599 98.7689 26.6344 97.8433 26.6344C96.9177 26.6344 96.0123 26.259 95.3586 25.6035C94.7021 24.9498 94.3277 24.0444 94.3277 23.1188C94.3277 22.1923 94.7031 21.2859 95.3586 20.6322C96.0104 19.9785 96.9177 19.6031 97.8433 19.6031C98.7689 19.6031 99.6762 19.9785 100.33 20.6322C100.984 21.2859 101.359 22.1932 101.359 23.1188C101.359 24.0444 100.984 24.9498 100.33 25.6035Z" fill="#FF4949"/>
<path d="M100.331 20.634C100.984 21.2877 101.36 22.195 101.36 23.1206C101.36 24.0462 100.984 24.9517 100.331 25.6053C99.6771 26.2618 98.7698 26.6362 97.8442 26.6362C96.9186 26.6362 96.0131 26.2609 95.3594 25.6053L20.5215 100.447L37.0596 116.986C39.494 119.42 42.7413 120.761 46.202 120.762C49.6636 120.762 52.9101 119.42 55.3454 116.985L112.314 60.0164C116.624 55.7061 120.001 47.5551 120.001 41.4595V13.6907C120 10.1778 118.589 6.98901 116.308 4.65625L100.331 20.634Z" fill="#FF2323"/>
<path d="M32.6543 78.4557C31.3762 77.1785 31.6958 75.3145 33.612 73.3965C35.8495 71.1598 37.4737 71.559 38.2995 70.7341C39.258 69.7755 38.4588 68.1239 37.8463 67.5124C36.0885 65.7545 32.2277 68.8701 30.6566 70.4411C27.5942 73.5036 25.5443 78.2698 29.5113 82.2377C35.822 88.5484 43.1453 78.7761 47.1398 82.7705C48.7374 84.3681 48.0718 86.4711 46.4733 88.0696C43.7578 90.7851 40.9884 89.4539 39.8961 90.5452C39.0712 91.371 39.497 93.1819 40.2422 93.9281C41.7867 95.4726 46.2078 94.5671 49.6959 91.078C53.3709 87.404 54.063 82.7696 50.2553 78.9619C43.3587 72.0653 35.9557 81.7589 32.6543 78.4557Z" fill="#FEF4F5"/>
<path d="M69.8826 67.0056L47.9933 55.3958C46.9551 54.8364 45.5973 55.4489 44.5857 56.4615C43.6006 57.4457 42.9872 58.8043 43.5466 59.8435L55.1564 81.7319C55.236 81.8646 55.3166 81.9974 55.3697 82.0514C56.222 82.9028 58.0595 82.2373 58.9906 81.3053C59.5765 80.7202 59.8439 80.0803 59.4712 79.4412L56.9407 74.8883L63.039 68.79L67.592 71.3205C68.2319 71.6922 68.87 71.4267 69.456 70.8408C70.388 69.9088 71.027 68.0438 70.2012 67.2189C70.1225 67.1393 70.0154 67.0853 69.8826 67.0056ZM54.944 71.4533L49.0855 60.9604L59.5774 66.8198L54.944 71.4533Z" fill="#FEF4F5"/>
<path d="M80.393 53.8266L73.8955 60.3241L58.5311 44.9588C57.785 44.2136 56.5874 44.773 55.7351 45.6244C54.8562 46.5033 54.3233 47.6752 55.0686 48.4213L72.3775 65.7303C73.0962 66.449 74.215 66.0764 74.9877 65.3037L83.4289 56.8625C84.121 56.1704 83.6944 55.0516 82.9491 54.3064C82.1773 53.5336 81.086 53.1336 80.393 53.8266Z" fill="#FEF4F5"/>
<path d="M96.9626 40.3545C96.1368 39.5287 95.018 39.2092 94.3259 39.9014L86.7902 47.4371L81.438 42.0849L85.4856 38.0373C86.2308 37.2921 85.8582 36.2264 85.2457 35.6139C84.527 34.8953 83.4613 34.6298 82.7692 35.3219L78.7216 39.3685L73.396 34.0429L80.9317 26.5081C81.6239 25.8151 81.3043 24.6972 80.4795 23.8714C79.7598 23.1527 78.642 22.7261 77.8958 23.4713L68.4165 32.9516C67.6438 33.7234 67.2711 34.8422 67.9907 35.5608L85.2722 52.8423C85.9918 53.5619 87.1097 53.1893 87.8824 52.4166L97.3618 42.9372C98.107 42.192 97.6813 41.0732 96.9626 40.3545Z" fill="#FEF4F5"/>
<path d="M47.1328 82.7689C48.7304 84.3665 48.0648 86.4695 46.4672 88.068C43.7509 90.7834 40.9814 89.4523 39.8901 90.5436C39.0643 91.3694 39.4909 93.1803 40.2361 93.9264C41.7806 95.4709 46.2008 94.5655 49.689 91.0764C53.3639 87.4024 54.056 82.768 50.2483 78.9603C48.3523 77.0643 46.4178 76.4243 44.541 76.4207L36.8496 84.1129C40.8688 83.1306 44.6462 80.2823 47.1328 82.7689Z" fill="#D5EDED"/>
<path d="M59.571 66.8167L54.9384 71.4502L52.9948 67.9684L49.6348 71.3284L55.1508 81.7288C55.2305 81.8616 55.311 81.9943 55.3641 82.0483C56.2165 82.8998 58.054 82.2342 58.985 81.3022C59.571 80.7172 59.8383 80.0772 59.4657 79.4382L56.9352 74.8843L63.0335 68.7869L67.5864 71.3165C68.2264 71.6891 68.8645 71.4236 69.4504 70.8368C70.3824 69.9048 71.0215 68.0408 70.1957 67.2159C70.116 67.1362 70.0098 67.0822 69.8771 67.0026L59.4767 61.4856L56.0901 64.8721L59.571 66.8167Z" fill="#D5EDED"/>
<path d="M72.3739 65.7247C73.0926 66.4443 74.2114 66.0717 74.9832 65.299L83.4243 56.8569C84.1165 56.1657 83.6907 55.0469 82.9455 54.3017C82.1728 53.529 81.0815 53.1289 80.3884 53.8219L73.8909 60.3194L67.2643 53.6929L63.8027 57.1545L72.3739 65.7247Z" fill="#D5EDED"/>
<path d="M94.3182 39.8975L86.7825 47.4332L81.4303 42.0811L85.4778 38.0335C86.2002 37.3102 85.8715 36.2885 85.292 35.6687L76.6934 44.2673L85.2645 52.8385C85.9832 53.5581 87.102 53.1855 87.8747 52.4128L97.3532 42.9334C98.0993 42.1882 97.6727 41.0694 96.9549 40.3507C96.1291 39.5249 95.0103 39.2054 94.3182 39.8975Z" fill="#D5EDED"/>
</g>
<defs>
<clipPath id="clip0_15_4212">
<rect width="120" height="120" fill="white" transform="translate(0 0.759766)"/>
</clipPath>
</defs>
</svg>
