<svg width="120" height="121" viewBox="0 0 120 121" fill="none" xmlns="http://www.w3.org/2000/svg">
<g clip-path="url(#clip0_15_3818)">
<path d="M119.97 112.25L110.543 60.3095C110.449 59.7911 110.127 59.342 109.666 59.0858L85.9377 45.8882C85.6297 45.7166 85.2845 45.6484 84.9453 45.6746L89.2623 101.364L89.1177 101.429L117.516 114.169C117.747 114.272 117.992 114.323 118.237 114.323C118.624 114.323 119.007 114.196 119.322 113.949C119.837 113.547 120.087 112.893 119.97 112.25Z" fill="#44C868"/>
<path d="M59.998 58.5051L35.7296 45.865C35.4388 45.7133 35.1163 45.6515 34.7987 45.6728C34.8828 45.6676 34.9674 45.6681 35.0513 45.6747L30.7344 101.364L59.2769 114.169C59.5072 114.272 59.7531 114.323 59.998 114.323V58.5051Z" fill="#44C868"/>
<path d="M35.0493 45.6756C34.7101 45.6494 34.3649 45.7176 34.0569 45.8889L10.328 59.0866C9.86726 59.3427 9.54569 59.7916 9.45171 60.3103L0.0244245 112.25C-0.0922945 112.893 0.157081 113.547 0.672004 113.95C0.987708 114.197 1.37091 114.324 1.75763 114.324C2.00208 114.324 2.24794 114.273 2.4788 114.17L30.722 101.499L35.0493 45.6756Z" fill="#4CE166"/>
<path d="M84.9428 45.6746C84.7093 45.6926 84.4785 45.7547 84.2645 45.8663L59.9961 58.5061V114.325H59.9963C60.2413 114.325 60.4873 114.273 60.7175 114.17L89.26 101.365L84.9428 45.6746Z" fill="#4CE166"/>
<path d="M6.59672 76.05L4.68164 86.6013L33.0397 71.6233L33.698 63.1298L33.8072 61.7212L6.59672 76.05Z" fill="#FFDB56"/>
<path d="M33.2948 68.3298L33.0396 71.6233L4.68154 86.6013L0.0263776 112.25C-0.0903414 112.892 0.159034 113.547 0.673957 113.949C0.989661 114.196 1.37286 114.323 1.75958 114.323C2.00404 114.323 2.2499 114.273 2.48076 114.169L30.7239 101.498L33.2948 68.3298Z" fill="#A8EEFC"/>
<path d="M60.0047 65.4672L33.8066 61.7212L33.0391 71.6233L59.9976 112.564V97.6767L43.9108 72.3459L60.0047 74.2708V65.4672Z" fill="#FFBB24"/>
<path d="M107.797 58.0471L96.3985 51.707L85.6074 54.2284L85.7424 55.9713L86.2754 62.8464L107.797 58.0471Z" fill="#FFBB24"/>
<path d="M87.2337 75.1929L86.2119 62.0095L85.6088 54.2285L60.0059 65.4673V74.2709L76.73 66.9982L87.2337 75.1929Z" fill="#FFDB56"/>
<path d="M119.969 112.25L117.601 99.2032L86.2754 62.8467L87.2326 75.1931L119.358 113.917C119.847 113.512 120.083 112.876 119.969 112.25Z" fill="#FFBB24"/>
<path d="M60.1102 7.198C46.5251 7.198 35.4727 18.2413 35.4727 31.8154C35.4727 40.2121 39.4592 49.2271 47.3217 58.6097C53.0965 65.501 58.7928 69.9333 59.0325 70.1187C59.3499 70.3641 59.73 70.4866 60.1104 70.4866C60.4906 70.4866 60.871 70.3641 61.1883 70.1187C61.4279 69.9333 67.1244 65.501 72.8991 58.6097C80.7617 49.2271 84.7482 40.2124 84.7482 31.8154C84.7478 18.2413 73.6953 7.198 60.1102 7.198ZM69.2344 31.8152C69.2344 36.85 65.1493 40.9319 60.1102 40.9319C55.0711 40.9319 50.986 36.8502 50.986 31.8152C50.986 26.7801 55.0711 22.6984 60.1102 22.6984C65.1493 22.6984 69.2344 26.7803 69.2344 31.8152Z" fill="#FF4A4A"/>
<path d="M60.1115 7.198C59.0348 7.198 57.9742 7.26784 56.9336 7.40237C69.0234 8.96495 78.3935 19.3171 78.3935 31.8154C78.3935 40.2121 74.407 49.2271 66.5444 58.6097C62.8307 63.0412 59.1522 66.4535 56.9338 68.3759C58.1652 69.4427 58.9485 70.0526 59.0338 70.1187C59.3512 70.3641 59.7313 70.4866 60.1117 70.4866C60.4919 70.4866 60.8723 70.3641 61.1896 70.1187C61.4291 69.9333 67.1256 65.501 72.9004 58.6097C80.763 49.2271 84.7495 40.2124 84.7495 31.8154C84.749 18.2413 73.6966 7.198 60.1115 7.198Z" fill="#E7343F"/>
<path d="M60.7195 114.169L71.3331 109.407L59.998 97.6768V114.324H59.9983C60.2432 114.324 60.4891 114.273 60.7195 114.169Z" fill="#FFDB56"/>
<path d="M110.54 60.3083C110.446 59.7899 110.124 59.3408 109.663 59.0846L107.795 58.0457L86.2734 62.845L117.599 99.2015L110.54 60.3083Z" fill="#1EA4E9"/>
<path d="M59.9963 114.322C59.9965 114.322 59.9965 114.322 59.9963 114.322V112.563L33.038 71.6221L30.7324 101.363L59.2749 114.168C59.5053 114.271 59.7512 114.322 59.9963 114.322Z" fill="#1EA4E9"/>
</g>
<defs>
<clipPath id="clip0_15_3818">
<rect width="120" height="120" fill="white" transform="translate(0 0.759766)"/>
</clipPath>
</defs>
</svg>
