<svg width="120" height="121" viewBox="0 0 120 121" fill="none" xmlns="http://www.w3.org/2000/svg">
<g clip-path="url(#clip0_15_255)">
<path d="M8.81641 116.779V19.1236C8.81641 16.9242 10.5993 15.1411 12.7989 15.1411H93.3142C95.5136 15.1411 97.2967 16.924 97.2967 19.1236V116.779C97.2967 118.978 95.5138 120.761 93.3142 120.761H12.7987C10.5993 120.761 8.81641 118.978 8.81641 116.779Z" fill="#0E80AC"/>
<path d="M93.3137 15.1414H88.6817V116.779C88.6817 118.978 86.8988 120.761 84.6992 120.761H93.3137C95.513 120.761 97.2962 118.978 97.2962 116.779V19.1239C97.2962 16.9242 95.513 15.1414 93.3137 15.1414Z" fill="#057195"/>
<path d="M17.4375 15.1414V108.372C17.4375 109.822 18.6136 110.998 20.0644 110.998H86.0487C87.4994 110.998 88.6755 109.822 88.6755 108.372V15.1414H17.4375Z" fill="#F7F0F0"/>
<path d="M60.9451 6.47224C60.9451 3.31802 58.388 0.760986 55.2338 0.760986H50.8787C47.7245 0.760986 45.1674 3.31802 45.1674 6.47224C45.1674 8.07231 43.8702 9.36958 42.2701 9.36958H38.7854C35.5979 9.36958 33.0137 11.9536 33.0137 15.1413V18.1734C33.0137 19.6865 34.2402 20.913 35.7533 20.913H70.3592C71.8723 20.913 73.0988 19.6865 73.0988 18.1734V15.1413C73.0988 11.9538 70.5148 9.36958 67.3271 9.36958H63.8424C62.2421 9.36958 60.9451 8.07231 60.9451 6.47224Z" fill="#FD7E42"/>
<path d="M67.3279 9.36958H63.8432C62.2431 9.36958 60.9459 8.07231 60.9459 6.47224C60.9459 3.31802 58.3888 0.760986 55.2346 0.760986H52.2871V9.49005C52.2871 11.0901 53.5844 12.3874 55.1845 12.3874H58.6691C61.8566 12.3874 64.4409 14.9714 64.4409 18.1591V20.913H70.3598C71.8729 20.913 73.0994 19.6865 73.0994 18.1734V15.1413C73.0996 11.9536 70.5156 9.36958 67.3279 9.36958Z" fill="#FA6931"/>
<path d="M31.6906 44.0496L27.721 40.5211C26.9736 39.8566 26.9063 38.7122 27.5708 37.9648C28.235 37.2173 29.3797 37.1496 30.1271 37.8143L33.8572 41.1298L39.612 32.899C40.1848 32.0791 41.3143 31.8792 42.1336 32.4527C42.9533 33.0258 43.1532 34.155 42.5801 34.9746L36.6415 43.4681C35.5015 45.098 33.1869 45.3799 31.6906 44.0496Z" fill="#FBA615"/>
<path d="M31.6911 70.5031L27.721 66.9741C26.9736 66.3097 26.9063 65.1652 27.5708 64.4178C28.235 63.6704 29.3797 63.6024 30.1273 64.2673L33.8572 67.583L39.612 59.352C40.1848 58.5322 41.3143 58.3325 42.1336 58.9058C42.9533 59.4788 43.1532 60.6078 42.5801 61.4276L36.6415 69.9214C35.5015 71.5517 33.1873 71.8327 31.6911 70.5031Z" fill="#FBA615"/>
<path d="M31.6906 96.6008L27.721 93.0723C26.9736 92.4078 26.9063 91.2633 27.5708 90.5159C28.235 89.7685 29.3797 89.7008 30.1271 90.3655L33.8572 93.6809L39.612 85.4501C40.1848 84.6303 41.3143 84.4306 42.1336 85.0039C42.9533 85.5769 43.1532 86.7062 42.5801 87.5258L36.6415 96.0193C35.5015 97.6489 33.1869 97.9308 31.6906 96.6008Z" fill="#FBA615"/>
<path d="M77.1834 36.699H51.592C50.592 36.699 49.7812 35.8882 49.7812 34.8882C49.7812 33.8879 50.592 33.0774 51.592 33.0774H77.1834C78.1837 33.0774 78.9942 33.8881 78.9942 34.8882C78.9942 35.8882 78.1837 36.699 77.1834 36.699Z" fill="#786E79"/>
<path d="M77.1834 44.7466H51.592C50.592 44.7466 49.7812 43.9359 49.7812 42.9358C49.7812 41.9355 50.592 41.125 51.592 41.125H77.1834C78.1837 41.125 78.9942 41.9357 78.9942 42.9358C78.9942 43.9359 78.1837 44.7466 77.1834 44.7466Z" fill="#786E79"/>
<path d="M77.1834 62.5715H51.592C50.592 62.5715 49.7812 61.7608 49.7812 60.7607C49.7812 59.7607 50.592 58.95 51.592 58.95H77.1834C78.1837 58.95 78.9942 59.7607 78.9942 60.7607C78.9942 61.7608 78.1837 62.5715 77.1834 62.5715Z" fill="#786E79"/>
<path d="M64.3877 70.6191H51.592C50.592 70.6191 49.7812 69.8084 49.7812 68.8083C49.7812 67.808 50.592 66.9976 51.592 66.9976H64.3877C65.388 66.9976 66.1985 67.8083 66.1985 68.8083C66.1988 69.8087 65.388 70.6191 64.3877 70.6191Z" fill="#786E79"/>
<path d="M104.094 50.9944L97.0621 45.3584L94.6398 46.6679L53.556 97.928L47.0252 111.042C46.4945 112.107 46.7786 113.399 47.7074 114.143C48.636 114.887 49.9581 114.883 50.8823 114.134L62.2598 104.904L103.343 53.6438L104.094 50.9944Z" fill="#FA6931"/>
<path d="M53.6111 97.8574L47.0441 111.044C46.5107 112.116 46.7964 113.414 47.7301 114.162C48.6639 114.911 49.9933 114.907 50.9225 114.153L62.3631 104.872L53.6111 97.8574Z" fill="#557981"/>
<path d="M109.102 37.5392C106.699 35.6129 103.189 35.9996 101.263 38.4031L94.6387 46.6677L103.342 53.6434L109.966 45.3788C111.892 42.9755 111.505 39.4655 109.102 37.5392Z" fill="#FFC3AB"/>
</g>
<defs>
<clipPath id="clip0_15_255">
<rect width="120" height="120" fill="white" transform="translate(0 0.759766)"/>
</clipPath>
</defs>
</svg>
