<svg width="120" height="121" viewBox="0 0 120 121" fill="none" xmlns="http://www.w3.org/2000/svg">
<path d="M59.137 8.97863L59.8824 6.81934L60.6677 8.96451C61.0491 10.0061 61.6448 10.956 62.4163 11.753C63.1878 12.5499 64.1179 13.1761 65.1466 13.591C66.1752 14.0059 67.2795 14.2004 68.3881 14.1618C69.4966 14.1233 70.5847 13.8525 71.582 13.3671L73.6361 12.3672L72.6744 14.4393C72.2075 15.4455 71.957 16.5385 71.939 17.6475C71.921 18.7566 72.1359 19.8571 72.5699 20.8779C73.0038 21.8987 73.6472 22.817 74.4583 23.5736C75.2695 24.3302 76.2303 24.9081 77.2788 25.27L79.4381 26.0155L77.2919 26.8007C76.2506 27.1823 75.3009 27.778 74.5043 28.5495C73.7076 29.3209 73.0816 30.2509 72.6668 31.2794C72.252 32.3079 72.0575 33.4119 72.096 34.5203C72.1346 35.6286 72.4052 36.7165 72.8904 37.7137L73.8903 39.7678L71.8181 38.806C70.8118 38.339 69.7186 38.0883 68.6093 38.0703C67.5001 38.0522 66.3993 38.2672 65.3783 38.7013C64.3574 39.1355 63.4389 39.7791 62.6823 40.5905C61.9257 41.4019 61.3478 42.3631 60.986 43.4119L60.2406 45.5712L59.4553 43.426C59.074 42.3844 58.4783 41.4345 57.7068 40.6375C56.9353 39.8405 56.0051 39.2143 54.9765 38.7994C53.9478 38.3845 52.8435 38.19 51.7349 38.2286C50.6264 38.2672 49.5383 38.538 48.541 39.0235L46.4868 40.0233L47.4486 37.9512C47.9155 36.9451 48.1661 35.8522 48.1841 34.7432C48.2022 33.6341 47.9873 32.5337 47.5534 31.5129C47.1195 30.4921 46.4762 29.5737 45.6652 28.8171C44.8541 28.0605 43.8933 27.4825 42.8448 27.1205L40.6855 26.3751L42.8307 25.5898C43.8723 25.2084 44.8222 24.6127 45.6192 23.8412C46.4161 23.0697 47.0423 22.1396 47.4572 21.1109C47.8721 20.0822 48.0666 18.9779 48.0281 17.8694C47.9895 16.7609 47.7187 15.6728 47.2333 14.6755L46.2331 12.6196L48.3052 13.5813C49.3113 14.0484 50.4042 14.2992 51.5133 14.3174C52.6224 14.3356 53.723 14.1209 54.7439 13.6871C55.7648 13.2533 56.6833 12.61 57.44 11.799C58.1968 10.9879 58.7749 10.0271 59.137 8.97863Z" fill="#F74F73"/>
<path d="M60.062 33.5093C64.1015 33.5093 67.376 30.2348 67.376 26.1953C67.376 22.1559 64.1015 18.8813 60.062 18.8813C56.0226 18.8813 52.748 22.1559 52.748 26.1953C52.748 30.2348 56.0226 33.5093 60.062 33.5093Z" fill="white"/>
<path d="M20.7324 76.41C20.7324 76.41 24.5756 69.6978 35.7628 69.6335C35.7628 69.6335 33.2615 80.3428 20.7324 76.41Z" fill="#88A873"/>
<path d="M78.4457 91.0481H72.6268C73.453 88.4974 75.938 87.104 75.938 87.104L74.6117 86.1772C74.2254 85.9029 73.7855 85.7133 73.3208 85.6209C72.8561 85.5285 72.3772 85.5354 71.9153 85.6411C71.4535 85.7468 71.0192 85.949 70.641 86.2343C70.2628 86.5196 69.9491 86.8817 69.7206 87.2967C69.0148 88.4886 67.1855 91.0481 64.507 91.0481H61.4985V86.582C63.542 85.4148 65.3288 83.847 66.7517 81.9726C67.1257 81.4751 67.3583 80.8858 67.4247 80.2669C67.4911 79.6481 67.3889 79.0228 67.129 78.4573L66.2138 76.4477C66.2138 76.4477 64.4844 79.574 61.4985 80.5573V74.5538C61.4985 74.3041 61.4493 74.0569 61.3538 73.8262C61.2582 73.5956 61.1182 73.386 60.9416 73.2095C60.7651 73.033 60.5555 72.8929 60.3248 72.7974C60.0941 72.7019 59.8469 72.6528 59.5972 72.6528H58.5942C58.3445 72.6528 58.0973 72.7019 57.8666 72.7974C57.6359 72.8929 57.4263 73.033 57.2498 73.2095C57.0732 73.386 56.9332 73.5956 56.8376 73.8262C56.7421 74.0569 56.6929 74.3041 56.6929 74.5538V80.3727C54.1422 79.5468 52.7488 77.0618 52.7488 77.0618L51.8219 78.3881C51.548 78.7739 51.3585 79.2131 51.266 79.6771C51.1735 80.1411 51.18 80.6195 51.2851 81.0808C51.3901 81.5421 51.5914 81.976 51.8758 82.3542C52.1601 82.7324 52.5211 83.0463 52.9351 83.2753C54.1245 83.9812 56.6929 85.8098 56.6929 88.4928V91.0488H54.1369C51.4581 91.0488 49.6295 88.4893 48.9229 87.2974C48.6944 86.8824 48.3808 86.5203 48.0026 86.235C47.6244 85.9497 47.1902 85.7475 46.7284 85.6418C46.2666 85.5361 45.7876 85.5292 45.323 85.6216C44.8583 85.714 44.4184 85.9036 44.0322 86.1779L42.7058 87.1047C42.7058 87.1047 45.1909 88.4981 46.0168 91.0488H40.1982C39.6939 91.0488 39.2103 91.2491 38.8537 91.6057C38.4972 91.9623 38.2969 92.4459 38.2969 92.9501V93.9532C38.2969 94.4574 38.4972 94.941 38.8537 95.2976C39.2103 95.6542 39.6939 95.8545 40.1982 95.8545H46.2013C45.2184 98.8397 42.0921 100.57 42.0921 100.57L44.1017 101.485C44.6672 101.745 45.2924 101.847 45.9112 101.781C46.53 101.714 47.1193 101.482 47.6166 101.108C49.4914 99.6848 51.0594 97.8977 52.2264 95.8538H56.6929V98.8622C56.6929 101.541 54.1333 103.37 52.9415 104.076C52.5264 104.305 52.1644 104.618 51.879 104.996C51.5937 105.375 51.3916 105.809 51.2859 106.271C51.1802 106.733 51.1733 107.211 51.2656 107.676C51.358 108.141 51.5476 108.581 51.8219 108.967L52.7488 110.293C52.7488 110.293 54.1422 107.808 56.6929 106.982V112.801C56.6929 113.051 56.7421 113.298 56.8376 113.529C56.9332 113.759 57.0732 113.969 57.2498 114.146C57.4263 114.322 57.6359 114.462 57.8666 114.558C58.0973 114.653 58.3445 114.702 58.5942 114.702H59.5972C59.8469 114.702 60.0941 114.653 60.3248 114.558C60.5555 114.462 60.7651 114.322 60.9416 114.146C61.1182 113.969 61.2582 113.759 61.3538 113.529C61.4493 113.298 61.4985 113.051 61.4985 112.801V106.798C64.4837 107.781 66.2138 110.907 66.2138 110.907L67.129 108.898C67.3889 108.332 67.4911 107.707 67.4247 107.088C67.3583 106.469 67.1257 105.88 66.7517 105.382C65.3288 103.508 63.5421 101.94 61.4985 100.772V95.8538H66.4171C67.5845 97.8973 69.1525 99.6841 71.0272 101.107C71.5247 101.481 72.114 101.714 72.7328 101.78C73.3517 101.847 73.977 101.744 74.5425 101.485L76.5522 100.569C76.5522 100.569 73.4258 98.8397 72.4425 95.8538H78.4457C78.9499 95.8538 79.4335 95.6535 79.7901 95.2969C80.1467 94.9403 80.347 94.4567 80.347 93.9525V92.9491C80.3469 92.4449 80.1465 91.9614 79.79 91.6049C79.4334 91.2484 78.9499 91.0481 78.4457 91.0481Z" fill="#7FA0E2"/>
<path d="M111.171 55.2484C110.238 53.6503 108.739 52.4602 106.971 51.9131C108.437 50.3453 112.023 48.8587 112.023 48.8587C109.537 47.6657 106.73 47.3095 104.024 47.8433L105.562 43.5861C99.5297 44.484 97.2369 47.7579 97.2369 47.7579L95.8555 42.7144C92.2817 50.1801 84.3221 51.1059 84.3221 51.1059C84.2835 53.4934 83.6781 55.8375 82.5558 57.9452C81.4335 60.0528 79.8265 61.8636 77.8672 63.2284L83.0709 63.7489C83.0709 63.7489 80.2255 66.5559 80.3473 72.654L84.2879 70.4266C84.2137 73.1844 85.0341 75.8922 86.6265 78.1451C86.6265 78.1451 87.4937 74.3608 88.7946 72.654C89.6291 74.3051 91.0521 75.5835 92.7828 76.2371C92.7828 76.2371 91.742 70.4164 93.8237 67.2127C93.8237 67.2127 97.9862 70.9468 98.6801 75.3699C98.6801 75.3699 100.154 74.2422 100.935 70.6867C100.935 70.6867 103.103 74.1558 110.474 73.2882C110.099 65.8765 107.059 64.2141 107.059 64.2141C110.434 62.8511 111.3 61.2092 111.3 61.2092C106.823 61.2635 102.446 57.7825 102.446 57.7825C105.259 55.1937 111.171 55.2484 111.171 55.2484Z" fill="#F29251"/>
<path d="M19.1189 80.3675C18.8974 80.3673 18.68 80.3075 18.4895 80.1944C18.299 80.0814 18.1425 79.9192 18.0362 79.7248C17.9299 79.5305 17.8779 79.3111 17.8855 79.0898C17.8931 78.8684 17.9601 78.6531 18.0795 78.4665C22.9596 70.8335 20.676 58.8547 20.6524 58.7343C20.5916 58.414 20.66 58.0827 20.8424 57.8126C21.0249 57.5425 21.3068 57.3554 21.6266 57.2922C21.9464 57.229 22.2782 57.2948 22.5497 57.4752C22.8212 57.6556 23.0104 57.9361 23.076 58.2554C23.1819 58.7848 25.5819 71.3198 20.1607 79.7975C20.049 79.9724 19.8949 80.1163 19.7128 80.2159C19.5307 80.3155 19.3264 80.3677 19.1189 80.3675Z" fill="#88A873"/>
<path d="M99.8064 62.1607C97.0442 60.4212 94.413 58.482 91.9337 56.3587C93.4442 56.1943 94.9043 55.7189 96.2219 54.9624C96.4778 54.8211 96.6768 54.5954 96.7848 54.3238C96.8929 54.0522 96.9034 53.7515 96.8145 53.473C96.7557 53.2997 96.6591 53.1416 96.5317 53.0102C96.4043 52.8788 96.2493 52.7773 96.0779 52.7132C95.9065 52.649 95.7229 52.6237 95.5406 52.6391C95.3582 52.6546 95.1815 52.7104 95.0233 52.8024C94.6952 52.993 94.3544 53.1611 94.0033 53.3054C92.8278 53.7761 91.5416 53.8988 90.2982 53.6587C89.0549 53.4185 87.9068 52.8258 86.9911 51.9511C84.5756 49.6768 82.9941 48.0155 82.957 47.9763C82.7306 47.7434 82.4215 47.609 82.0968 47.6023C81.772 47.5956 81.4577 47.7171 81.2218 47.9404C80.986 48.1638 80.8476 48.4711 80.8366 48.7957C80.8257 49.1204 80.9431 49.4363 81.1633 49.675C81.3366 49.8582 83.3643 51.9886 86.3251 54.7186C87.5346 55.8198 88.2903 57.3324 88.4445 58.9609C88.582 60.4635 88.4273 61.9786 87.9889 63.4224C87.9285 63.6079 87.9128 63.805 87.9433 63.9977C87.9737 64.1903 88.0493 64.3731 88.1639 64.5309C88.2785 64.6887 88.4289 64.8172 88.6027 64.9057C88.7765 64.9942 88.9688 65.0404 89.1638 65.0403C89.4276 65.0403 89.6845 64.9558 89.8968 64.7993C90.1091 64.6427 90.2657 64.4223 90.3437 64.1703C90.8827 62.4099 91.0724 60.5611 90.902 58.728C93.3265 60.7658 95.8916 62.6303 98.5782 64.3076C98.7222 64.3952 98.8826 64.4524 99.0495 64.4756C99.2164 64.4989 99.3864 64.4877 99.5488 64.4429C99.7113 64.398 99.8629 64.3204 99.9942 64.2147C100.126 64.1091 100.234 63.9777 100.313 63.8287C100.455 63.5382 100.482 63.2045 100.388 62.895C100.294 62.5854 100.086 62.323 99.8064 62.1607Z" fill="#CC4729"/>
<path d="M61.809 61.1084L98.1577 24.7607C98.3894 24.5291 98.5197 24.2148 98.5197 23.8871C98.5197 23.5595 98.3896 23.2452 98.1579 23.0135C97.9262 22.7818 97.612 22.6516 97.2843 22.6515C96.9567 22.6515 96.6424 22.7816 96.4107 23.0133L60.062 59.3613L23.7129 23.0123C23.481 22.7806 23.1666 22.6505 22.8389 22.6506C22.5111 22.6508 22.1968 22.7811 21.9651 23.013C21.7335 23.2448 21.6034 23.5592 21.6035 23.887C21.6036 24.2148 21.734 24.5291 21.9658 24.7607L58.3145 61.1084L21.9658 97.4571C21.7342 97.6887 21.604 98.003 21.604 98.3306C21.604 98.6582 21.7342 98.9725 21.9658 99.2041C22.1975 99.4358 22.5117 99.566 22.8394 99.566C23.167 99.566 23.4812 99.4358 23.7129 99.2041L60.062 62.8554L96.4107 99.2041C96.6423 99.4358 96.9566 99.566 97.2842 99.566C97.6118 99.566 97.9261 99.4358 98.1577 99.2041C98.3894 98.9725 98.5196 98.6582 98.5196 98.3306C98.5196 98.003 98.3894 97.6887 98.1577 97.4571L61.809 61.1084Z" fill="#DADAEA"/>
<path d="M17.464 43.1576C16.2262 42.4238 15.0993 42.7475 13.9095 43.5892C12.7095 44.4155 12.0174 45.3628 12.28 46.7773C12.465 47.6376 12.9193 48.4164 13.5771 49.0009L18.9347 53.899L21.8567 51.8586L19.1038 45.1415C18.7819 44.3227 18.2075 43.6278 17.464 43.1576Z" fill="#FFB655"/>
<path d="M31.4478 63.1837C31.7104 64.5983 31.0179 65.5456 29.8183 66.3718C28.6296 67.2136 27.5019 67.5365 26.2642 66.8035C25.5206 66.3335 24.9461 65.6388 24.624 64.8203L21.8711 58.1031L24.7927 56.0627L30.1507 60.9609C30.8085 61.545 31.2629 62.3237 31.4478 63.1837Z" fill="#FFB655"/>
<path d="M30.2447 45.552C30.3128 44.1145 29.4982 43.2702 28.1976 42.6145C26.9055 41.9421 25.7443 41.7745 24.6177 42.6695C23.9447 43.2363 23.4699 44.0028 23.2621 44.8578L21.4473 51.8862L24.6191 53.5098L29.2603 47.9305C29.8329 47.2624 30.1777 46.4293 30.2447 45.552Z" fill="#FFB655"/>
<path d="M19.1095 67.2911C17.9829 68.1862 16.8217 68.0186 15.5296 67.3462C14.2286 66.6904 13.4141 65.8462 13.4825 64.4087C13.5492 63.5315 13.8936 62.6984 14.4658 62.0302L19.1088 56.4502L22.5888 57.5965L20.4651 65.1029C20.2572 65.9578 19.7823 66.7243 19.1095 67.2911Z" fill="#FFB655"/>
<path d="M34.2135 57.5499C35.4937 56.8927 35.8198 55.7654 35.74 54.311C35.6789 52.8558 35.2459 51.7655 33.9082 51.2347C33.0817 50.9337 32.1807 50.9039 31.336 51.1497L24.3379 53.0785L24.5098 56.6379L31.6614 57.8827C32.5259 58.0457 33.4198 57.9292 34.2135 57.5499Z" fill="#FFB655"/>
<path d="M21.8639 60.9714C25.1725 60.9714 27.8547 58.2892 27.8547 54.9806C27.8547 51.6719 25.1725 48.9897 21.8639 48.9897C18.5552 48.9897 15.873 51.6719 15.873 54.9806C15.873 58.2892 18.5552 60.9714 21.8639 60.9714Z" fill="#FFB655"/>
<path d="M9.81764 58.7281C8.47999 58.1987 8.04693 57.107 7.98588 55.6515C7.90611 54.1974 8.23293 53.0701 9.51235 52.4129C10.3059 52.0335 11.1998 51.9169 12.0641 52.0801L19.2158 53.3249L19.388 56.8843L12.3892 58.8132C11.5447 59.0588 10.644 59.029 9.81764 58.7281Z" fill="#FFB655"/>
<path d="M21.8599 58.955C24.0554 58.955 25.8351 57.1752 25.8351 54.9798C25.8351 52.7844 24.0554 51.0046 21.8599 51.0046C19.6645 51.0046 17.8848 52.7844 17.8848 54.9798C17.8848 57.1752 19.6645 58.955 21.8599 58.955Z" fill="white"/>
</svg>
