<svg width="30" height="31" viewBox="0 0 30 31" fill="none" xmlns="http://www.w3.org/2000/svg">
<path d="M18.2812 20.1875V24.4062H7.96875C7.96875 23.7846 7.72182 23.1885 7.28228 22.749C6.84274 22.3094 6.2466 22.0625 5.625 22.0625C5.0034 22.0625 4.40726 22.3094 3.96772 22.749C3.52818 23.1885 3.28125 23.7846 3.28125 24.4062H1.875C1.75068 24.4062 1.63145 24.3569 1.54354 24.269C1.45564 24.181 1.40625 24.0618 1.40625 23.9375V20.1875H18.2812Z" fill="#CC7400"/>
<path d="M3.75 19.25C4.26777 19.25 4.6875 18.8303 4.6875 18.3125C4.6875 17.7947 4.26777 17.375 3.75 17.375C3.23223 17.375 2.8125 17.7947 2.8125 18.3125C2.8125 18.8303 3.23223 19.25 3.75 19.25Z" fill="#57565C"/>
<path d="M12.1875 19.25C12.7053 19.25 13.125 18.8303 13.125 18.3125C13.125 17.7947 12.7053 17.375 12.1875 17.375C11.6697 17.375 11.25 17.7947 11.25 18.3125C11.25 18.8303 11.6697 19.25 12.1875 19.25Z" fill="#57565C"/>
<path d="M7.5 12.6875V15.5H3.28125L4.42969 13.2078C4.5073 13.0516 4.62695 12.9202 4.77518 12.8283C4.92341 12.7363 5.09434 12.6876 5.26875 12.6875H7.5Z" fill="#D1D3D4"/>
<path d="M12.6562 15.5H7.5V12.6875H9.375L12.6562 15.5Z" fill="#E6E7E8"/>
<path d="M22.9688 26.75C24.2632 26.75 25.3125 25.7007 25.3125 24.4062C25.3125 23.1118 24.2632 22.0625 22.9688 22.0625C21.6743 22.0625 20.625 23.1118 20.625 24.4062C20.625 25.7007 21.6743 26.75 22.9688 26.75Z" fill="#57565C"/>
<path d="M25.7812 19.25V20.1875C25.7812 20.3118 25.8306 20.431 25.9185 20.519C26.0065 20.6069 26.1257 20.6562 26.25 20.6562H28.5937V23.4688C28.593 23.7172 28.494 23.9552 28.3183 24.1308C28.1427 24.3065 27.9047 24.4055 27.6562 24.4062H25.3125C25.3125 23.7846 25.0656 23.1885 24.626 22.749C24.1865 22.3094 23.5904 22.0625 22.9687 22.0625C22.3471 22.0625 21.751 22.3094 21.3115 22.749C20.8719 23.1885 20.625 23.7846 20.625 24.4062H18.2812V11.75H20.1562V16.9062H28.5187C28.5695 17.075 28.5948 17.2504 28.5937 17.4266V18.7812H26.25C26.1257 18.7812 26.0065 18.8306 25.9185 18.9185C25.8306 19.0065 25.7812 19.1257 25.7812 19.25Z" fill="#EE8700"/>
<path d="M28.5938 18.7812V20.6562H26.25C26.1257 20.6562 26.0065 20.6069 25.9185 20.519C25.8306 20.431 25.7812 20.3118 25.7812 20.1875V19.25C25.7812 19.1257 25.8306 19.0065 25.9185 18.9185C26.0065 18.8306 26.1257 18.7812 26.25 18.7812H28.5938Z" fill="#E6E7E8"/>
<path d="M28.5187 16.9062H20.1562V11.75H25.2234C25.3926 11.75 25.5585 11.7957 25.7038 11.8824C25.849 11.969 25.9681 12.0934 26.0484 12.2422L28.3266 16.4609C28.4107 16.5999 28.4753 16.7497 28.5187 16.9062Z" fill="#E6E7E8"/>
<path d="M18.2812 13.6248V20.1873H16.4062V12.7529L18.2812 13.6248Z" fill="#787680"/>
<path d="M18.7035 11.7502H18.2816V13.6252L16.4066 12.7533L3.28164 6.63145L2.98633 6.49551L3.77852 4.79395L18.7035 11.7502Z" fill="#898890"/>
<path d="M18.2812 13.6248V14.5623L16.4062 13.6904V12.7529L18.2812 13.6248Z" fill="#57565C"/>
<path d="M8.90625 24.4062H7.96875C7.96875 23.7846 7.72182 23.1885 7.28228 22.749C6.84274 22.3094 6.2466 22.0625 5.625 22.0625C5.0034 22.0625 4.40726 22.3094 3.96772 22.749C3.52818 23.1885 3.28125 23.7846 3.28125 24.4062H2.34375C2.34375 23.536 2.68945 22.7014 3.30481 22.0861C3.92016 21.4707 4.75476 21.125 5.625 21.125C6.49524 21.125 7.32984 21.4707 7.94519 22.0861C8.56055 22.7014 8.90625 23.536 8.90625 24.4062Z" fill="#AA6100"/>
<path d="M5.625 26.75C6.91942 26.75 7.96875 25.7007 7.96875 24.4062C7.96875 23.1118 6.91942 22.0625 5.625 22.0625C4.33058 22.0625 3.28125 23.1118 3.28125 24.4062C3.28125 25.7007 4.33058 26.75 5.625 26.75Z" fill="#57565C"/>
<path d="M14.5312 16.4375V18.3125H13.125C13.125 18.0639 13.0262 17.8254 12.8504 17.6496C12.6746 17.4738 12.4361 17.375 12.1875 17.375C11.9389 17.375 11.7004 17.4738 11.5246 17.6496C11.3488 17.8254 11.25 18.0639 11.25 18.3125H4.6875C4.6875 18.0639 4.58873 17.8254 4.41291 17.6496C4.2371 17.4738 3.99864 17.375 3.75 17.375C3.50136 17.375 3.2629 17.4738 3.08709 17.6496C2.91127 17.8254 2.8125 18.0639 2.8125 18.3125H1.40625V15.9688C1.40625 15.8444 1.45564 15.7252 1.54354 15.6373C1.63145 15.5494 1.75068 15.5 1.875 15.5H13.5984L14.5312 16.4375Z" fill="#3D9AE2"/>
<path d="M5.15625 18.3125H4.6875C4.6875 18.0639 4.58873 17.8254 4.41291 17.6496C4.2371 17.4738 3.99864 17.375 3.75 17.375C3.50136 17.375 3.2629 17.4738 3.08709 17.6496C2.91127 17.8254 2.8125 18.0639 2.8125 18.3125H2.34375C2.34375 17.9395 2.49191 17.5819 2.75563 17.3181C3.01935 17.0544 3.37704 16.9062 3.75 16.9062C4.12296 16.9062 4.48065 17.0544 4.74437 17.3181C5.00809 17.5819 5.15625 17.9395 5.15625 18.3125Z" fill="#1E81CE"/>
<path d="M13.5938 18.3125H13.125C13.125 18.0639 13.0262 17.8254 12.8504 17.6496C12.6746 17.4738 12.4361 17.375 12.1875 17.375C11.9389 17.375 11.7004 17.4738 11.5246 17.6496C11.3488 17.8254 11.25 18.0639 11.25 18.3125H10.7812C10.7812 17.9395 10.9294 17.5819 11.1931 17.3181C11.4569 17.0544 11.8145 16.9062 12.1875 16.9062C12.5605 16.9062 12.9181 17.0544 13.1819 17.3181C13.4456 17.5819 13.5938 17.9395 13.5938 18.3125Z" fill="#1E81CE"/>
<path d="M26.25 24.4062H25.3125C25.3125 23.7846 25.0656 23.1885 24.626 22.749C24.1865 22.3094 23.5904 22.0625 22.9688 22.0625C22.3471 22.0625 21.751 22.3094 21.3115 22.749C20.8719 23.1885 20.625 23.7846 20.625 24.4062H19.6875C19.6875 23.536 20.0332 22.7014 20.6486 22.0861C21.2639 21.4707 22.0985 21.125 22.9688 21.125C23.839 21.125 24.6736 21.4707 25.2889 22.0861C25.9043 22.7014 26.25 23.536 26.25 24.4062Z" fill="#CC7400"/>
<path d="M19.6875 18.3125H21.5625V19.25H19.6875V18.3125Z" fill="black"/>
<path d="M5.15625 23.9375H6.09375V24.875H5.15625V23.9375Z" fill="black"/>
<path d="M22.5 23.9375H23.4375V24.875H22.5V23.9375Z" fill="black"/>
<path d="M28.7391 16.238L26.4595 12.0192C26.339 11.7961 26.1603 11.6097 25.9424 11.4798C25.7246 11.3499 25.4757 11.2814 25.222 11.2814H18.8067L3.97594 4.36922C3.92023 4.3431 3.85989 4.32828 3.79842 4.32563C3.73695 4.32297 3.67557 4.33253 3.61781 4.35375C3.55991 4.37476 3.50672 4.40698 3.46127 4.44856C3.41583 4.49015 3.37903 4.54028 3.35297 4.59609L2.56078 6.29766C2.53456 6.35356 2.51965 6.41409 2.51689 6.47577C2.51413 6.53745 2.52358 6.59907 2.54471 6.65709C2.56583 6.7151 2.59821 6.76838 2.63998 6.81384C2.68176 6.85931 2.7321 6.89608 2.78813 6.92203L2.8125 6.93188V9.40641C2.8125 9.53073 2.86189 9.64996 2.94979 9.73786C3.0377 9.82577 3.15693 9.87516 3.28125 9.87516C3.37396 9.87516 3.46459 9.90265 3.54167 9.95416C3.61876 10.0057 3.67884 10.0789 3.71432 10.1645C3.7498 10.2502 3.75908 10.3444 3.74099 10.4354C3.72291 10.5263 3.67826 10.6098 3.61271 10.6754C3.54715 10.7409 3.46363 10.7856 3.3727 10.8036C3.28177 10.8217 3.18752 10.8125 3.10187 10.777C3.01621 10.7415 2.94301 10.6814 2.8915 10.6043C2.83999 10.5272 2.8125 10.4366 2.8125 10.3439H1.875C1.87505 10.6017 1.94596 10.8545 2.07999 11.0748C2.21403 11.295 2.40601 11.4741 2.63497 11.5926C2.86394 11.7111 3.12106 11.7643 3.37825 11.7465C3.63543 11.7288 3.88278 11.6406 4.09326 11.4918C4.30374 11.3429 4.46924 11.139 4.57169 10.9025C4.67414 10.6659 4.70959 10.4057 4.67416 10.1504C4.63873 9.89502 4.53378 9.65432 4.3708 9.45458C4.20781 9.25484 3.99306 9.10375 3.75 9.01781V7.36875L15.9375 13.0495V19.7189H1.40625C1.28193 19.7189 1.1627 19.7683 1.07479 19.8562C0.986886 19.9441 0.9375 20.0633 0.9375 20.1877V23.9377C0.9375 24.1863 1.03627 24.4248 1.21209 24.6006C1.3879 24.7764 1.62636 24.8752 1.875 24.8752H2.85469C2.96486 25.5302 3.3036 26.1251 3.81077 26.5541C4.31794 26.9831 4.96073 27.2185 5.625 27.2185C6.28927 27.2185 6.93206 26.9831 7.43923 26.5541C7.9464 26.1251 8.28514 25.5302 8.39531 24.8752H20.1984C20.3086 25.5302 20.6474 26.1251 21.1545 26.5541C21.6617 26.9831 22.3045 27.2185 22.9688 27.2185C23.633 27.2185 24.2758 26.9831 24.783 26.5541C25.2901 26.1251 25.6289 25.5302 25.7391 24.8752H27.6562C28.0292 24.8752 28.3869 24.727 28.6506 24.4633C28.9143 24.1996 29.0625 23.8419 29.0625 23.4689V17.4258C29.0634 17.008 28.9517 16.5976 28.7391 16.238ZM25.6345 12.465L27.7814 16.4377H20.625V12.2189H25.222C25.3066 12.2189 25.3896 12.2418 25.4622 12.2851C25.5348 12.3284 25.5944 12.3906 25.6345 12.465ZM4.005 5.41688L17.8125 11.8523V12.8897L3.60938 6.26859L4.005 5.41688ZM16.875 13.4869L17.8125 13.9238V19.7189H16.875V13.4869ZM5.625 26.2814C5.25416 26.2814 4.89165 26.1714 4.58331 25.9654C4.27496 25.7594 4.03464 25.4666 3.89273 25.1239C3.75081 24.7813 3.71368 24.4043 3.78603 24.0406C3.85837 23.6769 4.03695 23.3428 4.29917 23.0806C4.5614 22.8184 4.89549 22.6398 5.25921 22.5674C5.62292 22.4951 5.99992 22.5322 6.34253 22.6741C6.68514 22.816 6.97798 23.0564 7.18401 23.3647C7.39003 23.6731 7.5 24.0356 7.5 24.4064C7.5 24.9037 7.30246 25.3806 6.95083 25.7322C6.59919 26.0839 6.12228 26.2814 5.625 26.2814ZM5.625 21.5939C4.96099 21.5951 4.31879 21.831 3.81186 22.2599C3.30493 22.6888 2.96591 23.283 2.85469 23.9377H1.875V20.6564H17.8125V23.9377H8.39531C8.28409 23.283 7.94507 22.6888 7.43814 22.2599C6.93121 21.831 6.28901 21.5951 5.625 21.5939ZM22.9688 26.2814C22.5979 26.2814 22.2354 26.1714 21.9271 25.9654C21.6187 25.7594 21.3784 25.4666 21.2365 25.1239C21.0946 24.7813 21.0574 24.4043 21.1298 24.0406C21.2021 23.6769 21.3807 23.3428 21.6429 23.0806C21.9051 22.8184 22.2392 22.6398 22.603 22.5674C22.9667 22.4951 23.3437 22.5322 23.6863 22.6741C24.0289 22.816 24.3217 23.0564 24.5278 23.3647C24.7338 23.6731 24.8438 24.0356 24.8438 24.4064C24.8438 24.9037 24.6462 25.3806 24.2946 25.7322C23.9429 26.0839 23.466 26.2814 22.9688 26.2814ZM27.6562 23.9377H25.7391C25.6289 23.2826 25.2901 22.6877 24.783 22.2587C24.2758 21.8298 23.633 21.5944 22.9688 21.5944C22.3045 21.5944 21.6617 21.8298 21.1545 22.2587C20.6474 22.6877 20.3086 23.2826 20.1984 23.9377H18.75V12.2189H19.6875V16.9064C19.6875 17.0307 19.7369 17.15 19.8248 17.2379C19.9127 17.3258 20.0319 17.3752 20.1562 17.3752H28.118C28.118 17.392 28.125 17.4084 28.125 17.4258V18.3127H26.25C26.0014 18.3127 25.7629 18.4114 25.5871 18.5872C25.4113 18.7631 25.3125 19.0015 25.3125 19.2502V20.1877C25.3125 20.4363 25.4113 20.6748 25.5871 20.8506C25.7629 21.0264 26.0014 21.1252 26.25 21.1252H28.125V22.0627H26.7188V23.0002H28.125V23.4689C28.125 23.5932 28.0756 23.7125 27.9877 23.8004C27.8998 23.8883 27.7806 23.9377 27.6562 23.9377ZM28.125 19.2502V20.1877H26.25V19.2502H28.125Z" fill="black"/>
<path d="M5.07 18.7813H10.8675C10.963 19.0553 11.1413 19.2928 11.3778 19.4608C11.6144 19.6289 11.8973 19.7192 12.1875 19.7192C12.4777 19.7192 12.7606 19.6289 12.9972 19.4608C13.2337 19.2928 13.412 19.0553 13.5075 18.7813H14.5312C14.6556 18.7813 14.7748 18.7319 14.8627 18.644C14.9506 18.5561 15 18.4368 15 18.3125V16.4375C15.0001 16.3135 14.951 16.1945 14.8636 16.1066L13.9303 15.1691C13.8867 15.1253 13.8349 15.0907 13.7779 15.067C13.7209 15.0434 13.6597 15.0312 13.598 15.0313H12.8297L9.68016 12.3317C9.59519 12.2588 9.48695 12.2188 9.375 12.2188H5.26688C5.00556 12.2178 4.74923 12.2902 4.52693 12.4275C4.30464 12.5649 4.12529 12.7618 4.00922 12.9959L2.99156 15.0313H1.875C1.62636 15.0313 1.3879 15.13 1.21209 15.3058C1.03627 15.4817 0.9375 15.7201 0.9375 15.9688V18.3125C0.9375 18.4368 0.986886 18.5561 1.07479 18.644C1.1627 18.7319 1.28193 18.7813 1.40625 18.7813H2.43C2.52546 19.0553 2.70382 19.2928 2.94035 19.4608C3.17688 19.6289 3.45984 19.7192 3.75 19.7192C4.04016 19.7192 4.32312 19.6289 4.55965 19.4608C4.79618 19.2928 4.97454 19.0553 5.07 18.7813ZM12.1875 18.7813C12.0948 18.7813 12.0042 18.7538 11.9271 18.7023C11.85 18.6508 11.7899 18.5775 11.7544 18.4919C11.719 18.4062 11.7097 18.312 11.7278 18.2211C11.7458 18.1301 11.7905 18.0466 11.856 17.9811C11.9216 17.9155 12.0051 17.8709 12.0961 17.8528C12.187 17.8347 12.2812 17.844 12.3669 17.8794C12.4525 17.9149 12.5257 17.975 12.5773 18.0521C12.6288 18.1292 12.6562 18.2198 12.6562 18.3125C12.6562 18.4368 12.6069 18.5561 12.519 18.644C12.431 18.7319 12.3118 18.7813 12.1875 18.7813ZM11.3906 15.0313H7.96875V13.1563H9.20156L11.3906 15.0313ZM4.84781 13.4155C4.88645 13.3374 4.9462 13.2718 5.02027 13.2259C5.09435 13.1801 5.17978 13.156 5.26688 13.1563H7.03125V15.0313H4.03969L4.84781 13.4155ZM1.875 15.9688H13.4034L14.0625 16.6311V17.8438H13.5075C13.412 17.5698 13.2337 17.3322 12.9972 17.1642C12.7606 16.9961 12.4777 16.9058 12.1875 16.9058C11.8973 16.9058 11.6144 16.9961 11.3778 17.1642C11.1413 17.3322 10.963 17.5698 10.8675 17.8438H5.07C4.97454 17.5698 4.79618 17.3322 4.55965 17.1642C4.32312 16.9961 4.04016 16.9058 3.75 16.9058C3.45984 16.9058 3.17688 16.9961 2.94035 17.1642C2.70382 17.3322 2.52546 17.5698 2.43 17.8438H1.875V15.9688ZM3.75 18.7813C3.65729 18.7813 3.56666 18.7538 3.48958 18.7023C3.41249 18.6508 3.35241 18.5775 3.31693 18.4919C3.28145 18.4062 3.27217 18.312 3.29026 18.2211C3.30834 18.1301 3.35299 18.0466 3.41854 17.9811C3.4841 17.9155 3.56762 17.8709 3.65855 17.8528C3.74948 17.8347 3.84373 17.844 3.92938 17.8794C4.01504 17.9149 4.08824 17.975 4.13975 18.0521C4.19126 18.1292 4.21875 18.2198 4.21875 18.3125C4.21875 18.4368 4.16936 18.5561 4.08146 18.644C3.99355 18.7319 3.87432 18.7813 3.75 18.7813Z" fill="black"/>
</svg>
