<svg width="30" height="31" viewBox="0 0 30 31" fill="none" xmlns="http://www.w3.org/2000/svg">
<path d="M28.7308 22.6646H1.089C0.729179 22.6646 0.4375 22.3729 0.4375 22.0131V19.834H29.5609V21.8345C29.5609 22.2929 29.1893 22.6646 28.7308 22.6646Z" fill="#399AEA"/>
<path d="M28.731 22.6646H21.1074V11.1826H25.9385C26.1902 11.1826 26.4314 11.2834 26.6082 11.4625L29.2895 14.1768C29.4635 14.353 29.5611 14.5907 29.5611 14.8384V21.8345C29.5611 22.2929 29.1895 22.6646 28.731 22.6646Z" fill="#61AFF6"/>
<path d="M29.2895 14.1768L26.6082 11.4625C26.4314 11.2834 26.1902 11.1826 25.9385 11.1826H22.6904C22.9421 11.1826 23.1833 11.2834 23.3602 11.4625L26.0414 14.1768C26.2154 14.353 26.313 14.5907 26.313 14.8384V22.6646H28.731C29.1895 22.6646 29.5611 22.293 29.5611 21.8345V14.8383C29.5611 14.5907 29.4635 14.353 29.2895 14.1768Z" fill="#399AEA"/>
<path d="M22.7227 16.8733V13.3058C22.7227 13.091 22.8967 12.917 23.1114 12.917H25.4954C25.5993 12.917 25.6989 12.9586 25.772 13.0325L27.8349 15.1209C27.9068 15.1937 27.9471 15.2919 27.9471 15.3942V16.8733C27.9471 17.088 27.773 17.2621 27.5583 17.2621H23.1115C22.8967 17.2621 22.7227 17.088 22.7227 16.8733Z" fill="#33D8DD"/>
<path d="M25.1414 24.937C26.5505 24.937 27.6929 23.7947 27.6929 22.3855C27.6929 20.9763 26.5505 19.834 25.1414 19.834C23.7322 19.834 22.5898 20.9763 22.5898 22.3855C22.5898 23.7947 23.7322 24.937 25.1414 24.937Z" fill="#3D6687"/>
<path d="M25.143 23.371C25.6874 23.371 26.1288 22.9296 26.1288 22.3852C26.1288 21.8408 25.6874 21.3994 25.143 21.3994C24.5986 21.3994 24.1572 21.8408 24.1572 22.3852C24.1572 22.9296 24.5986 23.371 25.143 23.371Z" fill="#CCCBCA"/>
<path d="M0.4375 21.0429H21.1072V6.52894C21.1072 6.27184 20.8988 6.06348 20.6418 6.06348H0.902968C0.645859 6.06348 0.4375 6.27189 0.4375 6.52894V21.0429Z" fill="#F8BF0D"/>
<path d="M20.6419 6.06348H17.8594V21.0429H21.1075V6.529C21.1074 6.27189 20.899 6.06348 20.6419 6.06348Z" fill="#EDA558"/>
<path d="M5.54175 24.937C6.95092 24.937 8.09327 23.7947 8.09327 22.3855C8.09327 20.9763 6.95092 19.834 5.54175 19.834C4.13259 19.834 2.99023 20.9763 2.99023 22.3855C2.99023 23.7947 4.13259 24.937 5.54175 24.937Z" fill="#3D6687"/>
<path d="M5.54144 23.371C6.08587 23.371 6.52722 22.9296 6.52722 22.3852C6.52722 21.8408 6.08587 21.3994 5.54144 21.3994C4.99701 21.3994 4.55566 21.8408 4.55566 22.3852C4.55566 22.9296 4.99701 23.371 5.54144 23.371Z" fill="#CCCBCA"/>
<path d="M12.7385 11.4161H8.58924C8.39594 11.4161 8.23926 11.2594 8.23926 11.0661V6.06348H13.0885V11.0661C13.0885 11.2594 12.9318 11.4161 12.7385 11.4161Z" fill="#FF4C4C"/>
<path d="M18.7981 16.5804C19.0401 16.5804 19.2363 16.3843 19.2363 16.1423C19.2363 15.9002 19.0401 15.7041 18.7981 15.7041H16.9245C16.6825 15.7041 16.4863 15.9003 16.4863 16.1423C16.4863 16.3843 16.6825 16.5804 16.9245 16.5804H18.7981Z" fill="#333333"/>
<path d="M14.2009 16.5804H14.8844C15.1263 16.5804 15.3225 16.3843 15.3225 16.1423C15.3225 15.9002 15.1263 15.7041 14.8844 15.7041H14.2009C13.9589 15.7041 13.7627 15.9003 13.7627 16.1423C13.7627 16.3843 13.9589 16.5804 14.2009 16.5804Z" fill="#333333"/>
<path d="M14.2009 19.1127H18.7969C19.0389 19.1127 19.2351 18.9165 19.2351 18.6745C19.2351 18.4325 19.0389 18.2363 18.7969 18.2363H14.2009C13.9589 18.2363 13.7627 18.4325 13.7627 18.6745C13.7627 18.9165 13.9589 19.1127 14.2009 19.1127Z" fill="#333333"/>
<path d="M25.1428 20.9609C24.3575 20.9609 23.7188 21.5997 23.7188 22.3849C23.7188 23.1702 24.3575 23.8089 25.1428 23.8089C25.9279 23.8089 26.5667 23.1702 26.5667 22.3849C26.5667 21.5997 25.9279 20.9609 25.1428 20.9609ZM25.1428 22.9326C24.8408 22.9326 24.5951 22.6869 24.5951 22.3849C24.5951 22.083 24.8408 21.8373 25.1428 21.8373C25.4447 21.8373 25.6904 22.083 25.6904 22.3849C25.6904 22.6869 25.4447 22.9326 25.1428 22.9326Z" fill="#333333"/>
<path d="M5.54211 20.9609C4.75695 20.9609 4.11816 21.5997 4.11816 22.3849C4.11816 23.1702 4.75695 23.8089 5.54211 23.8089C6.32732 23.8089 6.96611 23.1702 6.96611 22.3849C6.96611 21.5997 6.32732 20.9609 5.54211 20.9609ZM5.54211 22.9326C5.24017 22.9326 4.99449 22.6869 4.99449 22.3849C4.99449 22.083 5.24012 21.8373 5.54211 21.8373C5.8441 21.8373 6.08972 22.083 6.08972 22.3849C6.08972 22.6869 5.8441 22.9326 5.54211 22.9326Z" fill="#333333"/>
<path d="M26.0824 12.7253C25.9281 12.5691 25.7136 12.4795 25.4941 12.4795H23.1102C22.6542 12.4795 22.2832 12.8504 22.2832 13.3065V16.874C22.2832 17.33 22.6542 17.701 23.1102 17.701H27.557C28.013 17.701 28.384 17.33 28.384 16.874V15.3949C28.384 15.176 28.2993 14.9697 28.1454 14.8137L26.0824 12.7253ZM27.5076 16.8246H23.1596V13.3559H25.4735L27.5076 15.4151V16.8246Z" fill="#333333"/>
<path d="M29.9999 21.8328V14.8385C29.9999 14.4732 29.8585 14.1289 29.6018 13.869L26.9206 11.1547C26.6632 10.8941 26.3054 10.7447 25.9391 10.7447H21.5462V6.52961C21.5462 6.03133 21.1408 5.62598 20.6425 5.62598H13.0879H8.23868H0.90369C0.405409 5.62592 0 6.03127 0 6.52955V7.6863C0 7.92835 0.196172 8.12447 0.438163 8.12447C0.680155 8.12447 0.876327 7.9283 0.876327 7.6863V6.52955C0.876327 6.51449 0.888573 6.5023 0.903631 6.5023H7.8004V11.0667C7.8004 11.5013 8.15395 11.8548 8.5886 11.8548H12.7379C13.1725 11.8548 13.526 11.5013 13.526 11.0667V6.5023H20.6424C20.6575 6.5023 20.6697 6.51449 20.6697 6.52955V11.1828V20.6053H7.94319C7.50543 20.0131 6.87526 19.6119 6.16639 19.4621C6.15216 19.4591 6.13792 19.4561 6.12356 19.4532C6.09022 19.4466 6.05671 19.4406 6.02302 19.4352C5.99958 19.4314 5.97597 19.4281 5.95235 19.4248C5.92446 19.421 5.89663 19.4172 5.86856 19.4142C5.83634 19.4107 5.80388 19.4081 5.77136 19.4056C5.74997 19.404 5.72876 19.4019 5.70725 19.4008C5.65229 19.3977 5.59698 19.3959 5.54126 19.3959C5.48554 19.3959 5.43022 19.3977 5.37526 19.4008C5.35382 19.4019 5.33261 19.404 5.31122 19.4056C5.2787 19.4081 5.24618 19.4107 5.21395 19.4142C5.18595 19.4172 5.15811 19.421 5.13028 19.4248C5.10661 19.4281 5.08294 19.4315 5.05944 19.4353C5.02581 19.4407 4.99241 19.4467 4.95907 19.4533C4.94466 19.4561 4.93036 19.4591 4.91601 19.4622C4.2072 19.612 3.57708 20.0132 3.13939 20.6053H0.876385V9.7604C0.876385 9.51835 0.680214 9.32224 0.438222 9.32224C0.19623 9.32224 0 9.51835 0 9.7604V21.0436V22.0132C0 22.6141 0.488847 23.1029 1.08972 23.1029H2.63917C2.96138 24.4061 4.13999 25.3754 5.54132 25.3754C6.94264 25.3754 8.12131 24.4061 8.44352 23.1029H21.108H22.2406C22.5628 24.4061 23.7415 25.3754 25.1428 25.3754C26.5441 25.3754 27.7228 24.4061 28.045 23.1029H28.7316C29.4299 23.1029 29.9981 22.5356 29.9998 21.8378C29.9998 21.8367 30 21.8356 30 21.8346C29.9999 21.834 29.9999 21.8334 29.9999 21.8328ZM12.6497 10.9784H8.67684V6.50224H12.6497V10.9784ZM2.68962 21.4876C2.6721 21.5431 2.65628 21.5994 2.64199 21.6563C2.63935 21.6667 2.63724 21.6773 2.63472 21.6878C2.62365 21.734 2.61357 21.7805 2.60466 21.8275C2.60167 21.8434 2.59886 21.8593 2.59611 21.8752C2.58861 21.9185 2.5821 21.9622 2.57654 22.0062C2.57455 22.0216 2.57238 22.0371 2.57062 22.0526C2.56464 22.1066 2.55984 22.1608 2.55679 22.2155C2.55656 22.2192 2.55603 22.2228 2.55585 22.2265H1.08972C0.972127 22.2265 0.876385 22.1308 0.876385 22.0132V21.4817H2.69121C2.69062 21.4837 2.69021 21.4856 2.68962 21.4876ZM7.64178 22.6166C7.52635 23.6736 6.62852 24.499 5.54126 24.499C4.45405 24.499 3.55622 23.6736 3.44079 22.6166C3.43224 22.5381 3.4279 22.4604 3.4279 22.3856C3.4279 22.3412 3.42972 22.297 3.43253 22.2529C3.43329 22.2409 3.43429 22.2291 3.43523 22.2172C3.43804 22.1822 3.44161 22.1473 3.44613 22.1126C3.44742 22.1027 3.44847 22.0929 3.44988 22.0831C3.4562 22.0392 3.4637 21.9955 3.47279 21.9521C3.47378 21.9472 3.47507 21.9425 3.47613 21.9377C3.48433 21.8997 3.49382 21.8619 3.50413 21.8245C3.5073 21.8131 3.51052 21.8017 3.51386 21.7904C3.52411 21.7555 3.53531 21.7208 3.54732 21.6865C3.54995 21.679 3.5523 21.6713 3.55499 21.6638C3.56906 21.6251 3.58458 21.587 3.60093 21.5491C3.60714 21.5347 3.61376 21.5206 3.62033 21.5063C3.63169 21.4815 3.64365 21.457 3.65595 21.4326C3.66374 21.4172 3.67142 21.4017 3.67956 21.3866C3.69743 21.3533 3.71618 21.3205 3.73587 21.2882C3.74706 21.2698 3.75896 21.2518 3.77073 21.2339C3.78011 21.2194 3.7896 21.205 3.79927 21.1909C3.81357 21.1702 3.8281 21.1496 3.84304 21.1294C3.84825 21.1224 3.85365 21.1154 3.85892 21.1085C4.16056 20.7121 4.59866 20.4252 5.10263 20.3184C5.10749 20.3174 5.1123 20.3161 5.11722 20.3151C5.13819 20.3108 5.15946 20.3074 5.18067 20.3037C5.20106 20.3003 5.22145 20.2968 5.24202 20.2939C5.25989 20.2914 5.27788 20.2891 5.29593 20.287C5.32177 20.2841 5.34778 20.2816 5.37386 20.2796C5.38827 20.2785 5.40263 20.2771 5.4171 20.2763C5.45829 20.2739 5.4996 20.2724 5.54126 20.2724C5.58286 20.2724 5.62423 20.274 5.66542 20.2763C5.67989 20.2771 5.69425 20.2785 5.70866 20.2796C5.73474 20.2817 5.76069 20.2841 5.78659 20.287C5.80464 20.2892 5.82263 20.2914 5.8405 20.2939C5.86106 20.2968 5.88139 20.3002 5.90179 20.3037C5.923 20.3074 5.94427 20.3108 5.96524 20.3151C5.97005 20.3161 5.97479 20.3173 5.9796 20.3184C6.48385 20.4252 6.92214 20.7123 7.22383 21.1089C7.22893 21.1157 7.23421 21.1224 7.23924 21.1292C7.25436 21.1496 7.26895 21.1703 7.28337 21.1912C7.29292 21.2051 7.30223 21.2193 7.31149 21.2335C7.32338 21.2517 7.33534 21.2698 7.3467 21.2883C7.36639 21.3206 7.38508 21.3534 7.40295 21.3866C7.41116 21.4018 7.41883 21.4173 7.42668 21.4328C7.43899 21.4571 7.45088 21.4815 7.46219 21.5063C7.46876 21.5206 7.47543 21.5348 7.48165 21.5493C7.49793 21.5871 7.51346 21.6252 7.52752 21.6638C7.53028 21.6714 7.53262 21.6791 7.53526 21.6867C7.54727 21.7209 7.5584 21.7555 7.56866 21.7904C7.572 21.8017 7.57522 21.8132 7.57838 21.8246C7.5887 21.862 7.59813 21.8997 7.60633 21.9377C7.60739 21.9425 7.60868 21.9473 7.60967 21.9522C7.61875 21.9955 7.62626 22.0392 7.63258 22.0832C7.63399 22.093 7.63504 22.1029 7.63633 22.1127C7.64084 22.1474 7.64442 22.1823 7.64723 22.2172C7.64817 22.2291 7.64922 22.241 7.64993 22.2529C7.65268 22.297 7.65456 22.3412 7.65456 22.3856C7.65461 22.4604 7.65034 22.538 7.64178 22.6166ZM20.6698 22.2266H8.52678C8.5266 22.2229 8.52608 22.2192 8.52584 22.2155C8.52274 22.1608 8.51799 22.1066 8.51202 22.0527C8.51026 22.0372 8.50809 22.0218 8.5061 22.0062C8.50047 21.9622 8.49403 21.9186 8.48653 21.8752C8.48377 21.8593 8.48102 21.8434 8.47797 21.8276C8.46907 21.7806 8.45899 21.734 8.44791 21.6878C8.44539 21.6774 8.44323 21.6668 8.44065 21.6563C8.42635 21.5995 8.41053 21.5432 8.39301 21.4877C8.39243 21.4858 8.39196 21.4838 8.39137 21.4818H20.6698V22.2266ZM27.2432 22.6167C27.1277 23.6737 26.23 24.499 25.1428 24.499C24.0555 24.499 23.1577 23.6736 23.0422 22.6166C23.0337 22.5382 23.0294 22.4605 23.0294 22.3857C23.0294 21.2204 23.9774 20.2723 25.1427 20.2723C26.308 20.2723 27.2561 21.2204 27.2561 22.3857C27.2561 22.4604 27.2518 22.5382 27.2432 22.6167ZM29.1235 21.8346C29.1235 22.0508 28.9477 22.2266 28.7316 22.2266H28.1283C28.1259 22.1821 28.1223 22.1381 28.1181 22.0942C28.1176 22.0896 28.1175 22.0849 28.117 22.0802C28.112 22.0307 28.1057 21.9816 28.0983 21.9329C28.0962 21.9189 28.0932 21.9051 28.0909 21.8912C28.0851 21.8566 28.0794 21.8221 28.0724 21.788C28.0689 21.7709 28.0647 21.7541 28.0608 21.737C28.054 21.7064 28.0474 21.6757 28.0397 21.6455C28.035 21.6271 28.0296 21.6092 28.0245 21.591C28.0167 21.5624 28.0089 21.5339 28.0003 21.5057C27.9945 21.4869 27.988 21.4685 27.9818 21.45C27.9728 21.4228 27.964 21.3955 27.9543 21.3686C27.9475 21.3499 27.94 21.3317 27.9329 21.3131C27.9227 21.2868 27.9127 21.2605 27.9018 21.2346C27.8941 21.2161 27.8858 21.198 27.8776 21.1797C27.8664 21.1543 27.8552 21.1289 27.8433 21.1038C27.8346 21.0856 27.8254 21.0677 27.8163 21.0496C27.804 21.0251 27.7917 21.0006 27.7788 20.9765C27.7692 20.9585 27.759 20.9409 27.749 20.9232C27.7357 20.8995 27.7223 20.8759 27.7084 20.8527C27.6979 20.8352 27.687 20.818 27.6761 20.8007C27.6617 20.7778 27.6473 20.755 27.6323 20.7326C27.621 20.7156 27.6093 20.6988 27.5976 20.6821C27.5823 20.66 27.5668 20.6381 27.551 20.6165C27.5388 20.6 27.5262 20.5837 27.5138 20.5674C27.4975 20.5463 27.4811 20.5252 27.4643 20.5045C27.4513 20.4885 27.4381 20.4728 27.4247 20.457C27.4075 20.4367 27.3902 20.4167 27.3725 20.3968C27.3587 20.3814 27.3447 20.3661 27.3306 20.351C27.3126 20.3316 27.2944 20.3125 27.2759 20.2936C27.2613 20.2788 27.2466 20.2641 27.2317 20.2496C27.2129 20.2311 27.1939 20.213 27.1746 20.1951C27.1593 20.1808 27.1438 20.1668 27.1282 20.1529C27.1086 20.1355 27.0887 20.1184 27.0687 20.1014C27.0526 20.0879 27.0365 20.0745 27.0202 20.0612C26.9998 20.0448 26.9792 20.0286 26.9585 20.0127C26.9418 19.9999 26.9249 19.9872 26.908 19.9747C26.8869 19.9592 26.8655 19.9441 26.844 19.9292C26.8266 19.9171 26.8092 19.9051 26.7916 19.8934C26.7699 19.8789 26.7477 19.8649 26.7255 19.851C26.7075 19.8397 26.6896 19.8285 26.6714 19.8176C26.6489 19.8042 26.6261 19.7912 26.6033 19.7784C26.5847 19.768 26.5662 19.7575 26.5474 19.7474C26.5242 19.735 26.5008 19.7232 26.4773 19.7114C26.4582 19.7019 26.4392 19.6922 26.4199 19.6831C26.3961 19.6718 26.372 19.6611 26.3479 19.6505C26.3283 19.6418 26.3088 19.633 26.289 19.6248C26.2646 19.6146 26.2399 19.6051 26.2151 19.5956C26.1951 19.5878 26.1751 19.5799 26.1549 19.5726C26.1298 19.5636 26.1044 19.5553 26.079 19.5469C26.0587 19.5401 26.0384 19.5332 26.0179 19.5268C25.9921 19.5189 25.9659 19.5118 25.9398 19.5046C25.9192 19.499 25.8987 19.4929 25.878 19.4876C25.8514 19.4809 25.8244 19.475 25.7975 19.469C25.7769 19.4644 25.7564 19.4593 25.7356 19.4551C25.7078 19.4495 25.6797 19.4449 25.6516 19.4401C25.6313 19.4366 25.6111 19.4326 25.5906 19.4295C25.561 19.4251 25.5311 19.4217 25.5013 19.4182C25.482 19.4159 25.4629 19.413 25.4434 19.411C25.4104 19.4077 25.377 19.4056 25.3437 19.4034C25.3272 19.4023 25.3107 19.4006 25.2941 19.3997C25.244 19.3972 25.1936 19.3959 25.1429 19.3959C25.0922 19.3959 25.0418 19.3972 24.9917 19.3997C24.9751 19.4005 24.9586 19.4023 24.942 19.4034C24.9087 19.4056 24.8753 19.4077 24.8424 19.411C24.823 19.4129 24.8038 19.4158 24.7845 19.4182C24.7546 19.4217 24.7247 19.4251 24.6952 19.4295C24.6747 19.4326 24.6545 19.4366 24.6341 19.4401C24.6061 19.4449 24.578 19.4495 24.5502 19.4551C24.5293 19.4593 24.5088 19.4644 24.4882 19.469C24.4613 19.475 24.4344 19.4809 24.4078 19.4876C24.387 19.4929 24.3665 19.4989 24.3459 19.5046C24.3198 19.5118 24.2936 19.5189 24.2678 19.5268C24.2473 19.5332 24.2271 19.5401 24.2067 19.5469C24.1814 19.5553 24.1559 19.5636 24.1309 19.5726C24.1106 19.5799 24.0907 19.5878 24.0706 19.5956C24.0459 19.6051 24.0212 19.6146 23.9968 19.6248C23.977 19.633 23.9575 19.6418 23.938 19.6505C23.9138 19.6611 23.8897 19.6718 23.8659 19.6831C23.8466 19.6923 23.8276 19.7019 23.8086 19.7114C23.785 19.7232 23.7615 19.735 23.7383 19.7475C23.7196 19.7575 23.7011 19.768 23.6825 19.7784C23.6596 19.7912 23.6369 19.8042 23.6144 19.8176C23.5961 19.8285 23.5781 19.8398 23.5601 19.851C23.5379 19.8649 23.5159 19.8789 23.4941 19.8934C23.4765 19.9051 23.4591 19.9171 23.4417 19.9292C23.4202 19.9442 23.3988 19.9593 23.3777 19.9747C23.3608 19.9872 23.344 19.9999 23.3273 20.0127C23.3065 20.0287 23.2858 20.0448 23.2655 20.0613C23.2492 20.0745 23.2331 20.0879 23.2171 20.1014C23.197 20.1184 23.1771 20.1356 23.1574 20.1531C23.1419 20.1669 23.1264 20.1809 23.1112 20.1951C23.0919 20.213 23.0728 20.2313 23.054 20.2497C23.0391 20.2642 23.0244 20.2789 23.0098 20.2937C22.9913 20.3126 22.9731 20.3317 22.9551 20.3511C22.941 20.3663 22.9269 20.3815 22.9132 20.397C22.8955 20.4167 22.8782 20.4368 22.8611 20.4571C22.8477 20.4728 22.8345 20.4886 22.8214 20.5047C22.8046 20.5253 22.7882 20.5464 22.7719 20.5675C22.7594 20.5838 22.7469 20.6001 22.7347 20.6166C22.7189 20.6382 22.7035 20.6601 22.6881 20.6821C22.6764 20.699 22.6647 20.7157 22.6534 20.7327C22.6384 20.7551 22.624 20.7779 22.6096 20.8008C22.5988 20.8181 22.5878 20.8353 22.5773 20.8528C22.5634 20.8761 22.5501 20.8997 22.5367 20.9233C22.5267 20.941 22.5166 20.9586 22.5069 20.9766C22.494 21.0007 22.4817 21.0252 22.4694 21.0498C22.4603 21.0678 22.4511 21.0857 22.4424 21.104C22.4305 21.129 22.4193 21.1543 22.4081 21.1798C22.4 21.1981 22.3916 21.2162 22.3839 21.2347C22.373 21.2606 22.363 21.2869 22.3528 21.3133C22.3457 21.3317 22.3382 21.35 22.3314 21.3687C22.3217 21.3956 22.3128 21.423 22.3038 21.4503C22.2977 21.4688 22.2912 21.4871 22.2854 21.5057C22.2767 21.534 22.269 21.5627 22.2611 21.5913C22.2561 21.6094 22.2506 21.6274 22.246 21.6456C22.2382 21.6758 22.2316 21.7065 22.2248 21.7371C22.221 21.7541 22.2167 21.7709 22.2132 21.7881C22.2062 21.8222 22.2005 21.8568 22.1947 21.8913C22.1924 21.9053 22.1895 21.9191 22.1874 21.9331C22.1799 21.9817 22.1736 22.0308 22.1686 22.0802C22.168 22.086 22.1678 22.0919 22.1673 22.0977C22.1632 22.1405 22.1596 22.1834 22.1573 22.2267H21.5462V21.0436V11.621H25.9391C26.0728 11.621 26.2033 11.6755 26.2971 11.7705L28.9783 14.4849C29.0719 14.5797 29.1235 14.7053 29.1235 14.8385V21.8346Z" fill="#333333"/>
</svg>
