<svg width="80" height="27" viewBox="0 0 80 27" fill="none" xmlns="http://www.w3.org/2000/svg">
<path d="M33.074 15.2368H33.5052C34.0289 15.2368 34.455 15.6629 34.455 16.1867C34.455 16.7105 34.0289 17.1365 33.5052 17.1365H32.7951L32.7166 18.6459C32.6984 18.9931 32.8186 19.3214 33.0546 19.5701C33.2907 19.8186 33.6115 19.9554 33.9586 19.9554H35.3702L35.6319 13.22C35.662 12.4493 35.8674 11.6762 36.2425 10.9223L36.282 10.8428L36.2367 10.8764C34.6954 12.0243 33.5595 13.5968 33.074 15.2368Z" fill="#DBCA0B"/>
<path d="M33.7195 16.1872C33.7195 16.0689 33.6233 15.9727 33.5051 15.9727H25.8652C25.9028 16.1144 25.9354 16.2575 25.9634 16.4017H33.505C33.6233 16.4017 33.7195 16.3055 33.7195 16.1872Z" fill="#FFEC6B"/>
<path d="M24.1031 5.66792C24.1031 5.87103 23.9385 6.03561 23.7354 6.03561H20.66V11.2251C21.458 11.3596 22.2265 11.6383 22.923 12.0569C23.7793 12.5713 24.8496 12.5927 25.7161 12.1123L26.0853 11.9076L24.5674 5.75606C24.5403 5.64634 24.5652 5.53022 24.635 5.4413C24.7046 5.35222 24.8115 5.30028 24.9244 5.30028H25.3207C25.4457 5.30028 25.5474 5.19856 25.5474 5.0735C25.5474 4.94844 25.4457 4.84668 25.3207 4.84668H17.1858C17.0607 4.84668 16.959 4.94844 16.959 5.0735C16.959 5.19856 17.0607 5.30028 17.1858 5.30028H23.7354C23.9385 5.30022 24.1031 5.4648 24.1031 5.66792Z" fill="#FFF296"/>
<path d="M29.2622 18.2705C28.2194 18.2705 27.3711 19.1188 27.3711 20.1615C27.3711 21.2043 28.2195 22.0525 29.2622 22.0525C30.3049 22.0525 31.1531 21.2042 31.1531 20.1615C31.1531 19.1188 30.3049 18.2705 29.2622 18.2705ZM29.2622 21.5302C28.5074 21.5302 27.8934 20.9162 27.8934 20.1615C27.8934 19.4069 28.5074 18.7929 29.2622 18.7929C29.4652 18.7929 29.6299 18.9574 29.6299 19.1606C29.6299 19.3637 29.4652 19.5283 29.2622 19.5283C28.9129 19.5283 28.6288 19.8124 28.6288 20.1616C28.6288 20.5107 28.9129 20.7948 29.2622 20.7948C29.6112 20.7948 29.8954 20.5107 29.8954 20.1616C29.8954 19.9585 30.0601 19.7939 30.263 19.7939C30.466 19.7939 30.6307 19.9585 30.6307 20.1616C30.6307 20.9162 30.0167 21.5302 29.2622 21.5302Z" fill="#A3A3A3"/>
<path d="M19.3109 13.4287C16.9334 13.4287 14.999 15.3631 14.999 17.7406C14.999 20.1182 16.9334 22.0525 19.3109 22.0525C21.6886 22.0525 23.6229 20.1182 23.6229 17.7406C23.6229 15.363 21.6886 13.4287 19.3109 13.4287ZM19.3109 20.341C17.8771 20.341 16.7106 19.1745 16.7106 17.7406C16.7106 16.3067 17.8771 15.1401 19.3109 15.1401C20.7448 15.1401 21.9113 16.3067 21.9113 17.7406C21.9113 19.1745 20.7448 20.341 19.3109 20.341Z" fill="#A3A3A3"/>
<path d="M19.3112 15.875C18.2829 15.875 17.4463 16.7116 17.4463 17.74C17.4463 18.7684 18.2829 19.6051 19.3112 19.6051C20.3395 19.6051 21.1762 18.7684 21.1762 17.74C21.1762 16.7117 20.3396 15.875 19.3112 15.875ZM19.3112 19.057C18.585 19.057 17.9943 18.4662 17.9943 17.74C17.9943 17.5369 18.1588 17.3723 18.362 17.3723C18.5651 17.3723 18.7297 17.5369 18.7297 17.74C18.7297 18.0607 18.9905 18.3216 19.3112 18.3216C19.6318 18.3216 19.8927 18.0607 19.8927 17.74C19.8927 17.4194 19.6318 17.1586 19.3112 17.1586C19.1081 17.1586 18.9435 16.994 18.9435 16.7909C18.9435 16.5878 19.1081 16.4232 19.3112 16.4232C20.0373 16.4232 20.6281 17.0139 20.6281 17.74C20.6281 18.4662 20.0373 19.057 19.3112 19.057Z" fill="#DBCA0B"/>
<path d="M29.2623 17.535C29.6766 17.535 30.0674 17.6341 30.4162 17.8057L30.4954 17.1367H26.063C26.0759 17.3043 26.0843 17.4726 26.0843 17.6416C26.0843 17.8448 25.9196 18.0093 25.7166 18.0093C25.5135 18.0093 25.3489 17.8448 25.3489 17.6416C25.3489 16.5935 25.0654 15.5672 24.5289 14.6735C24.4245 14.4995 24.4808 14.2736 24.655 14.169C24.8289 14.0644 25.0551 14.121 25.1595 14.2951C25.3403 14.5964 25.4924 14.9123 25.6214 15.2369H30.7204L30.8683 13.9865L26.5441 12.4941L26.0723 12.7557C24.977 13.3635 23.625 13.3373 22.5438 12.6875C21.6496 12.1502 20.6225 11.8662 19.5735 11.8662C18.2422 11.8662 16.9913 12.3064 15.9562 13.1392C15.7861 13.276 15.6825 13.4783 15.6718 13.6941C15.664 13.8524 15.7055 14.003 15.7894 14.1315C16.6996 13.2431 17.9416 12.6931 19.3109 12.6931C22.0941 12.6931 24.3583 14.9573 24.3583 17.7403C24.3583 18.1966 24.292 18.6366 24.1779 19.0573H26.8825C27.3006 18.1599 28.2088 17.535 29.2623 17.535Z" fill="#19B041"/>
<path d="M30.2234 12.985L30.3747 12.4144C30.4219 12.2375 30.3235 12.0511 30.1509 11.99L26.5479 10.7129L26.8185 11.8098L30.2234 12.985Z" fill="#A3A3A3"/>
<path d="M19.9247 11.1428V6.03613H18.3263L17.4551 11.4883C18.1333 11.2549 18.8496 11.131 19.574 11.131C19.6912 11.131 19.808 11.1366 19.9247 11.1428Z" fill="#DBCA0B"/>
<path d="M30.2631 19.793C30.0601 19.793 29.8955 19.9576 29.8955 20.1607C29.8955 20.5098 29.6113 20.7939 29.2623 20.7939C28.9131 20.7939 28.6289 20.5098 28.6289 20.1607C28.6289 19.8115 28.913 19.5274 29.2623 19.5274C29.4653 19.5274 29.63 19.3628 29.63 19.1597C29.63 18.9566 29.4653 18.792 29.2623 18.792C28.5076 18.792 27.8936 19.406 27.8936 20.1606C27.8936 20.9153 28.5076 21.5293 29.2623 21.5293C30.0168 21.5293 30.6308 20.9153 30.6308 20.1606C30.6308 19.9576 30.4662 19.793 30.2631 19.793Z" fill="#333333"/>
<path d="M19.3112 15.1396C17.8775 15.1396 16.7109 16.3062 16.7109 17.7401C16.7109 19.174 17.8774 20.3405 19.3112 20.3405C20.7451 20.3405 21.9116 19.174 21.9116 17.7401C21.9116 16.3062 20.7451 15.1396 19.3112 15.1396ZM19.3112 19.6051C18.283 19.6051 17.4464 18.7685 17.4464 17.7401C17.4464 16.7117 18.283 15.875 19.3112 15.875C20.3396 15.875 21.1763 16.7117 21.1763 17.7401C21.1763 18.7685 20.3397 19.6051 19.3112 19.6051Z" fill="#333333"/>
<path d="M19.311 16.4229C19.1079 16.4229 18.9433 16.5874 18.9433 16.7905C18.9433 16.9937 19.1079 17.1582 19.311 17.1582C19.6316 17.1582 19.8926 17.4191 19.8926 17.7397C19.8926 18.0604 19.6316 18.3213 19.311 18.3213C18.9904 18.3213 18.7295 18.0604 18.7295 17.7397C18.7295 17.5366 18.5649 17.372 18.3618 17.372C18.1587 17.372 17.9941 17.5366 17.9941 17.7397C17.9941 18.4658 18.5848 19.0567 19.311 19.0567C20.0371 19.0567 20.6279 18.4658 20.6279 17.7397C20.6279 17.0135 20.0372 16.4229 19.311 16.4229Z" fill="#333333"/>
<path d="M37.0765 9.33452L35.7977 10.2865C34.066 11.5759 32.8063 13.3709 32.3121 15.2367H31.4607L31.6334 13.7785C31.6538 13.6069 31.5518 13.4441 31.3883 13.3877L30.9203 13.2262L31.0854 12.6037C31.2298 12.0593 30.9272 11.4855 30.3962 11.2974L26.3366 9.85847L25.3927 6.03299C25.8894 5.99591 26.2822 5.5797 26.2822 5.07354C26.2822 4.54293 25.8507 4.11133 25.3202 4.11133H17.1853C16.6548 4.11133 16.2231 4.54293 16.2231 5.07354C16.2231 5.60409 16.6548 6.03574 17.1853 6.03574H17.581L16.6554 11.8282C16.2459 12.0333 15.8547 12.2767 15.4952 12.566C15.1616 12.8344 14.9582 13.2323 14.9374 13.6577C14.9187 14.0376 15.0491 14.4083 15.2961 14.6939C14.6513 15.5417 14.2637 16.5953 14.2637 17.7402C14.2637 20.5233 16.5279 22.7875 19.3109 22.7875C21.363 22.7875 23.1295 21.5547 23.9178 19.7925H26.6648C26.6477 19.9133 26.6358 20.0357 26.6358 20.1612C26.6358 21.6093 27.814 22.7875 29.2623 22.7875C30.7103 22.7875 31.8885 21.6093 31.8885 20.1612C31.8885 19.4279 31.5857 18.7646 31.0994 18.2876L31.2357 17.1364H32.0587L31.9821 18.6076C31.9534 19.1583 32.1449 19.6799 32.5212 20.0764C32.8973 20.4726 33.4076 20.6908 33.9585 20.6908H36.3889C36.5919 20.6908 36.7566 20.5262 36.7566 20.3231C36.7566 20.12 36.5919 19.9554 36.3889 19.9554H36.106L36.3667 13.2486C36.3925 12.5825 36.5723 11.91 36.9007 11.2498L37.6251 9.79321C37.701 9.64085 37.6622 9.45636 37.5317 9.34736C37.4015 9.23832 37.2131 9.23291 37.0765 9.33452ZM30.1507 11.9906C30.3232 12.0516 30.4216 12.2381 30.3745 12.4151L30.2231 12.9856L26.8182 11.8105L26.5476 10.7136L30.1507 11.9906ZM17.1853 5.30036C17.0602 5.30036 16.9585 5.19865 16.9585 5.07359C16.9585 4.94853 17.0602 4.84676 17.1853 4.84676H25.3202C25.4452 4.84676 25.5469 4.94853 25.5469 5.07359C25.5469 5.19865 25.4452 5.30036 25.3202 5.30036H24.9239C24.8109 5.30036 24.7041 5.35231 24.6345 5.44138C24.5647 5.5303 24.5398 5.64642 24.5668 5.75614L26.0848 11.9077L25.7156 12.1124C24.8491 12.5927 23.7788 12.5715 22.9225 12.057C22.226 11.6384 21.4575 11.3597 20.6595 11.2251V6.03569H23.7348C23.938 6.03569 24.1025 5.87111 24.1025 5.668C24.1025 5.46489 23.938 5.30031 23.7348 5.30031L17.1853 5.30036ZM18.3258 6.03574H19.9242V11.1425C19.8075 11.1362 19.6908 11.1306 19.5735 11.1306C18.8491 11.1306 18.1328 11.2545 17.4546 11.4879L18.3258 6.03574ZM19.3109 22.0522C16.9334 22.0522 14.999 20.1178 14.999 17.7402C14.999 15.3626 16.9334 13.4283 19.3109 13.4283C21.6885 13.4283 23.6228 15.3627 23.6228 17.7402C23.6228 20.1178 21.6885 22.0522 19.3109 22.0522ZM24.1779 19.0571C24.292 18.6364 24.3583 18.1964 24.3583 17.7402C24.3583 14.9571 22.0941 12.6929 19.3109 12.6929C17.9416 12.6929 16.6996 13.2429 15.7894 14.1314C15.7056 14.0028 15.6641 13.8522 15.6718 13.6939C15.6825 13.4781 15.7861 13.2759 15.9562 13.139C16.9913 12.3062 18.2422 11.866 19.5735 11.866C20.6226 11.866 21.6496 12.1501 22.5438 12.6873C23.625 13.3371 24.977 13.3633 26.0724 12.7555L26.5441 12.4939L30.8683 13.9863L30.7204 15.2367H25.6214C25.4924 14.9121 25.3403 14.5962 25.1595 14.2949C25.0551 14.1209 24.8289 14.0642 24.655 14.1689C24.4808 14.2734 24.4245 14.4993 24.5289 14.6734C25.0654 15.567 25.3489 16.5933 25.3489 17.6415C25.3489 17.8446 25.5135 18.0092 25.7166 18.0092C25.9196 18.0092 26.0843 17.8446 26.0843 17.6415C26.0843 17.4724 26.0759 17.3041 26.063 17.1365H30.4954L30.4162 17.8055C30.0673 17.6339 29.6766 17.5348 29.2623 17.5348C28.2087 17.5348 27.3005 18.1598 26.8825 19.0572H24.1779V19.0571ZM31.1532 20.1612C31.1532 21.2039 30.3051 22.0522 29.2623 22.0522C28.2196 22.0522 27.3713 21.2039 27.3713 20.1612C27.3713 19.1184 28.2196 18.2701 29.2623 18.2701C30.305 18.2701 31.1532 19.1184 31.1532 20.1612ZM25.9635 16.4011C25.9356 16.2569 25.9029 16.1139 25.8653 15.9721H33.5051C33.6234 15.9721 33.7196 16.0683 33.7196 16.1866C33.7196 16.3048 33.6234 16.4011 33.5051 16.4011H25.9635ZM36.2425 10.9222C35.8673 11.6762 35.662 12.4492 35.6318 13.2199L35.3702 19.9554H33.9585C33.6115 19.9554 33.2907 19.8186 33.0546 19.5701C32.8186 19.3214 32.6984 18.9931 32.7166 18.6458L32.7951 17.1364H33.5051C34.0289 17.1364 34.455 16.7104 34.455 16.1866C34.455 15.6629 34.0289 15.2367 33.5051 15.2367H33.074C33.5594 13.5968 34.6954 12.0243 36.2367 10.8764L36.2819 10.8428L36.2425 10.9222Z" fill="#333333"/>
<g clip-path="url(#clip0_15_5633)">
<path d="M56.8437 17.5625V21.2187H47.9062C47.9062 20.68 47.6922 20.1634 47.3113 19.7824C46.9304 19.4015 46.4137 19.1875 45.875 19.1875C45.3363 19.1875 44.8196 19.4015 44.4387 19.7824C44.0578 20.1634 43.8437 20.68 43.8437 21.2187H42.625C42.5173 21.2187 42.4139 21.1759 42.3377 21.0998C42.2616 21.0236 42.2188 20.9202 42.2188 20.8125V17.5625H56.8437Z" fill="#CC7400"/>
<path d="M44.25 16.75C44.6987 16.75 45.0625 16.3862 45.0625 15.9375C45.0625 15.4888 44.6987 15.125 44.25 15.125C43.8013 15.125 43.4375 15.4888 43.4375 15.9375C43.4375 16.3862 43.8013 16.75 44.25 16.75Z" fill="#57565C"/>
<path d="M51.5625 16.75C52.0112 16.75 52.375 16.3862 52.375 15.9375C52.375 15.4888 52.0112 15.125 51.5625 15.125C51.1138 15.125 50.75 15.4888 50.75 15.9375C50.75 16.3862 51.1138 16.75 51.5625 16.75Z" fill="#57565C"/>
<path d="M47.5 11.0625V13.5H43.8438L44.8391 11.5134C44.9063 11.3781 45.01 11.2642 45.1385 11.1845C45.267 11.1048 45.4151 11.0626 45.5662 11.0625H47.5Z" fill="#D1D3D4"/>
<path d="M51.9687 13.5H47.5V11.0625H49.125L51.9687 13.5Z" fill="#E6E7E8"/>
<path d="M60.9062 23.25C62.0281 23.25 62.9375 22.3406 62.9375 21.2187C62.9375 20.0969 62.0281 19.1875 60.9062 19.1875C59.7844 19.1875 58.875 20.0969 58.875 21.2187C58.875 22.3406 59.7844 23.25 60.9062 23.25Z" fill="#57565C"/>
<path d="M63.3437 16.75V17.5625C63.3437 17.6702 63.3865 17.7736 63.4627 17.8498C63.5389 17.9259 63.6423 17.9687 63.75 17.9687H65.7812V20.4062C65.7806 20.6215 65.6948 20.8278 65.5426 20.9801C65.3903 21.1323 65.184 21.2181 64.9687 21.2187H62.9375C62.9375 20.68 62.7235 20.1634 62.3426 19.7824C61.9616 19.4015 61.445 19.1875 60.9062 19.1875C60.3675 19.1875 59.8509 19.4015 59.4699 19.7824C59.089 20.1634 58.875 20.68 58.875 21.2187H56.8438V10.25H58.4687V14.7187H65.7162C65.7603 14.865 65.7822 15.017 65.7812 15.1697V16.3437H63.75C63.6423 16.3437 63.5389 16.3866 63.4627 16.4627C63.3865 16.5389 63.3437 16.6423 63.3437 16.75Z" fill="#EE8700"/>
<path d="M65.7812 16.3438V17.9687H63.75C63.6423 17.9687 63.5389 17.9259 63.4627 17.8498C63.3866 17.7736 63.3438 17.6702 63.3438 17.5625V16.75C63.3438 16.6423 63.3866 16.5389 63.4627 16.4627C63.5389 16.3866 63.6423 16.3438 63.75 16.3438H65.7812Z" fill="#E6E7E8"/>
<path d="M65.7162 14.7187H58.4688V10.25H62.8603C63.0069 10.25 63.1507 10.2896 63.2766 10.3647C63.4025 10.4398 63.5057 10.5476 63.5753 10.6766L65.5497 14.3328C65.6226 14.4532 65.6786 14.5831 65.7162 14.7187Z" fill="#E6E7E8"/>
<path d="M56.8437 11.8748V17.5623H55.2188V11.1191L56.8437 11.8748Z" fill="#787680"/>
<path d="M57.2095 10.2504H56.8438V11.8754L55.2188 11.1198L43.8438 5.81418L43.5879 5.69637L44.2745 4.22168L57.2095 10.2504Z" fill="#898890"/>
<path d="M56.8437 11.8748V12.6873L55.2188 11.9316V11.1191L56.8437 11.8748Z" fill="#57565C"/>
<path d="M48.7187 21.2187H47.9062C47.9062 20.68 47.6922 20.1634 47.3113 19.7824C46.9304 19.4015 46.4137 19.1875 45.875 19.1875C45.3363 19.1875 44.8196 19.4015 44.4387 19.7824C44.0578 20.1634 43.8437 20.68 43.8437 21.2187H43.0312C43.0313 20.4645 43.3309 19.7412 43.8642 19.2079C44.3975 18.6746 45.1208 18.375 45.875 18.375C46.6292 18.375 47.3525 18.6746 47.8858 19.2079C48.4191 19.7412 48.7187 20.4645 48.7187 21.2187Z" fill="#AA6100"/>
<path d="M45.875 23.25C46.9968 23.25 47.9062 22.3406 47.9062 21.2187C47.9062 20.0969 46.9968 19.1875 45.875 19.1875C44.7532 19.1875 43.8438 20.0969 43.8438 21.2187C43.8438 22.3406 44.7532 23.25 45.875 23.25Z" fill="#57565C"/>
<path d="M53.5937 14.3125V15.9375H52.375C52.375 15.722 52.2894 15.5153 52.137 15.363C51.9846 15.2106 51.778 15.125 51.5625 15.125C51.347 15.125 51.1403 15.2106 50.988 15.363C50.8356 15.5153 50.75 15.722 50.75 15.9375H45.0625C45.0625 15.722 44.9769 15.5153 44.8245 15.363C44.6722 15.2106 44.4655 15.125 44.25 15.125C44.0345 15.125 43.8278 15.2106 43.6755 15.363C43.5231 15.5153 43.4375 15.722 43.4375 15.9375H42.2188V13.9062C42.2188 13.7985 42.2616 13.6952 42.3377 13.619C42.4139 13.5428 42.5173 13.5 42.625 13.5H52.7853L53.5937 14.3125Z" fill="#3D9AE2"/>
<path d="M45.4687 15.9375H45.0625C45.0625 15.722 44.9769 15.5153 44.8245 15.363C44.6722 15.2106 44.4655 15.125 44.25 15.125C44.0345 15.125 43.8278 15.2106 43.6755 15.363C43.5231 15.5153 43.4375 15.722 43.4375 15.9375H43.0312C43.0312 15.6143 43.1597 15.3043 43.3882 15.0757C43.6168 14.8472 43.9268 14.7188 44.25 14.7188C44.5732 14.7188 44.8832 14.8472 45.1118 15.0757C45.3403 15.3043 45.4687 15.6143 45.4687 15.9375Z" fill="#1E81CE"/>
<path d="M52.7812 15.9375H52.375C52.375 15.722 52.2894 15.5153 52.137 15.363C51.9847 15.2106 51.778 15.125 51.5625 15.125C51.347 15.125 51.1403 15.2106 50.988 15.363C50.8356 15.5153 50.75 15.722 50.75 15.9375H50.3438C50.3438 15.6143 50.4722 15.3043 50.7007 15.0757C50.9293 14.8472 51.2393 14.7188 51.5625 14.7188C51.8857 14.7188 52.1957 14.8472 52.4243 15.0757C52.6528 15.3043 52.7812 15.6143 52.7812 15.9375Z" fill="#1E81CE"/>
<path d="M63.75 21.2187H62.9375C62.9375 20.68 62.7235 20.1634 62.3426 19.7824C61.9616 19.4015 61.445 19.1875 60.9062 19.1875C60.3675 19.1875 59.8509 19.4015 59.4699 19.7824C59.089 20.1634 58.875 20.68 58.875 21.2187H58.0625C58.0625 20.4645 58.3621 19.7412 58.8954 19.2079C59.4287 18.6746 60.152 18.375 60.9062 18.375C61.6605 18.375 62.3838 18.6746 62.9171 19.2079C63.4504 19.7412 63.75 20.4645 63.75 21.2187Z" fill="#CC7400"/>
<path d="M58.0625 15.9375H59.6875V16.75H58.0625V15.9375Z" fill="black"/>
<path d="M45.4688 20.8125H46.2812V21.625H45.4688V20.8125Z" fill="black"/>
<path d="M60.5 20.8125H61.3125V21.625H60.5V20.8125Z" fill="black"/>
<path d="M65.9072 14.1398L63.9316 10.4836C63.8271 10.2902 63.6723 10.1286 63.4835 10.0161C63.2946 9.90351 63.0789 9.8441 62.8591 9.84415H57.2992L44.4458 3.85358C44.3975 3.83095 44.3452 3.81811 44.292 3.81581C44.2387 3.8135 44.1855 3.82179 44.1354 3.84018C44.0853 3.85839 44.0392 3.88631 43.9998 3.92235C43.9604 3.95839 43.9285 4.00184 43.9059 4.05021L43.2193 5.5249C43.1966 5.57334 43.1837 5.6258 43.1813 5.67926C43.1789 5.73272 43.1871 5.78612 43.2054 5.8364C43.2237 5.88668 43.2518 5.93285 43.288 5.97226C43.3242 6.01166 43.3678 6.04353 43.4164 6.06602L43.4375 6.07455V8.21915C43.4375 8.32689 43.4803 8.43022 43.5565 8.50641C43.6327 8.5826 43.736 8.6254 43.8438 8.6254C43.9241 8.6254 44.0026 8.64922 44.0695 8.69386C44.1363 8.7385 44.1883 8.80195 44.2191 8.87618C44.2498 8.95041 44.2579 9.0321 44.2422 9.1109C44.2265 9.18971 44.1878 9.26209 44.131 9.31891C44.0742 9.37572 44.0018 9.41441 43.923 9.43009C43.8442 9.44577 43.7625 9.43772 43.6883 9.40697C43.6141 9.37622 43.5506 9.32415 43.506 9.25735C43.4613 9.19054 43.4375 9.11199 43.4375 9.03165H42.625C42.625 9.25507 42.6865 9.47419 42.8027 9.66504C42.9188 9.8559 43.0852 10.0112 43.2836 10.1138C43.4821 10.2165 43.7049 10.2627 43.9278 10.2473C44.1507 10.2319 44.3651 10.1555 44.5475 10.0265C44.7299 9.89744 44.8733 9.72076 44.9621 9.51574C45.0509 9.31071 45.0816 9.08522 45.0509 8.86392C45.0202 8.64261 44.9293 8.434 44.788 8.2609C44.6468 8.08779 44.4606 7.95684 44.25 7.88236V6.45318L54.8125 11.3765V17.1566H42.2188C42.111 17.1566 42.0077 17.1994 41.9315 17.2756C41.8553 17.3518 41.8125 17.4552 41.8125 17.5629V20.8129C41.8125 21.0284 41.8981 21.235 42.0505 21.3874C42.2028 21.5398 42.4095 21.6254 42.625 21.6254H43.4741C43.5695 22.1931 43.8631 22.7087 44.3027 23.0805C44.7422 23.4522 45.2993 23.6563 45.875 23.6563C46.4507 23.6563 47.0078 23.4522 47.4473 23.0805C47.8869 22.7087 48.1805 22.1931 48.2759 21.6254H58.5053C58.6008 22.1931 58.8944 22.7087 59.3339 23.0805C59.7735 23.4522 60.3305 23.6563 60.9062 23.6563C61.482 23.6563 62.039 23.4522 62.4786 23.0805C62.9181 22.7087 63.2117 22.1931 63.3072 21.6254H64.9688C65.292 21.6254 65.602 21.497 65.8305 21.2684C66.0591 21.0399 66.1875 20.7299 66.1875 20.4066V15.1693C66.1883 14.8072 66.0914 14.4516 65.9072 14.1398ZM63.2166 10.8699L65.0772 14.3129H58.875V10.6566H62.8591C62.9324 10.6566 63.0043 10.6765 63.0672 10.714C63.1302 10.7516 63.1818 10.8054 63.2166 10.8699ZM44.471 4.76155L56.4375 10.339V11.238L44.1281 5.49971L44.471 4.76155ZM55.625 11.7556L56.4375 12.1342V17.1566H55.625V11.7556ZM45.875 22.8441C45.5536 22.8441 45.2394 22.7488 44.9722 22.5703C44.705 22.3917 44.4967 22.1379 44.3737 21.841C44.2507 21.5441 44.2185 21.2173 44.2812 20.9021C44.3439 20.5869 44.4987 20.2974 44.726 20.0701C44.9532 19.8428 45.2428 19.6881 45.558 19.6254C45.8732 19.5627 46.1999 19.5948 46.4969 19.7178C46.7938 19.8408 47.0476 20.0491 47.2261 20.3163C47.4047 20.5836 47.5 20.8978 47.5 21.2191C47.5 21.6501 47.3288 22.0634 47.024 22.3682C46.7193 22.6729 46.306 22.8441 45.875 22.8441ZM45.875 18.7816C45.2995 18.7827 44.743 18.9872 44.3036 19.3588C43.8643 19.7305 43.5705 20.2456 43.4741 20.8129H42.625V17.9691H56.4375V20.8129H48.2759C48.1795 20.2456 47.8857 19.7305 47.4464 19.3588C47.007 18.9872 46.4505 18.7827 45.875 18.7816ZM60.9062 22.8441C60.5849 22.8441 60.2707 22.7488 60.0034 22.5703C59.7362 22.3917 59.5279 22.1379 59.4049 21.841C59.282 21.5441 59.2498 21.2173 59.3125 20.9021C59.3752 20.5869 59.5299 20.2974 59.7572 20.0701C59.9845 19.8428 60.274 19.6881 60.5892 19.6254C60.9044 19.5627 61.2312 19.5948 61.5281 19.7178C61.825 19.8408 62.0788 20.0491 62.2574 20.3163C62.4359 20.5836 62.5312 20.8978 62.5312 21.2191C62.5312 21.6501 62.36 22.0634 62.0553 22.3682C61.7506 22.6729 61.3372 22.8441 60.9062 22.8441ZM64.9688 20.8129H63.3072C63.2117 20.2452 62.9181 19.7296 62.4786 19.3578C62.039 18.986 61.482 18.782 60.9062 18.782C60.3305 18.782 59.7735 18.986 59.3339 19.3578C58.8944 19.7296 58.6008 20.2452 58.5053 20.8129H57.25V10.6566H58.0625V14.7191C58.0625 14.8269 58.1053 14.9302 58.1815 15.0064C58.2577 15.0826 58.361 15.1254 58.4688 15.1254H65.3689C65.3689 15.14 65.375 15.1542 65.375 15.1693V15.9379H63.75C63.5345 15.9379 63.3278 16.0235 63.1755 16.1759C63.0231 16.3282 62.9375 16.5349 62.9375 16.7504V17.5629C62.9375 17.7784 63.0231 17.985 63.1755 18.1374C63.3278 18.2898 63.5345 18.3754 63.75 18.3754H65.375V19.1879H64.1562V20.0004H65.375V20.4066C65.375 20.5144 65.3322 20.6177 65.256 20.6939C65.1798 20.7701 65.0765 20.8129 64.9688 20.8129ZM65.375 16.7504V17.5629H63.75V16.7504H65.375Z" fill="black"/>
<path d="M45.394 16.3438H50.4185C50.5012 16.5812 50.6558 16.7871 50.8608 16.9327C51.0658 17.0784 51.311 17.1566 51.5625 17.1566C51.814 17.1566 52.0592 17.0784 52.2642 16.9327C52.4692 16.7871 52.6238 16.5812 52.7065 16.3438H53.5937C53.7015 16.3438 53.8048 16.301 53.881 16.2248C53.9572 16.1486 54 16.0453 54 15.9375V14.3125C54.0001 14.205 53.9576 14.1019 53.8818 14.0257L53.0729 13.2132C53.0352 13.1753 52.9903 13.1452 52.9408 13.1247C52.8914 13.1042 52.8384 13.0937 52.7849 13.0938H52.1191L49.3895 10.7542C49.3158 10.691 49.222 10.6563 49.125 10.6563H45.5646C45.3382 10.6555 45.116 10.7182 44.9233 10.8372C44.7307 10.9563 44.5752 11.1269 44.4747 11.3298L43.5927 13.0938H42.625C42.4095 13.0938 42.2028 13.1794 42.0505 13.3317C41.8981 13.4841 41.8125 13.6908 41.8125 13.9063V15.9375C41.8125 16.0453 41.8553 16.1486 41.9315 16.2248C42.0077 16.301 42.111 16.3438 42.2187 16.3438H43.106C43.1887 16.5812 43.3433 16.7871 43.5483 16.9327C43.7533 17.0784 43.9985 17.1566 44.25 17.1566C44.5015 17.1566 44.7467 17.0784 44.9517 16.9327C45.1567 16.7871 45.3113 16.5812 45.394 16.3438ZM51.5625 16.3438C51.4822 16.3438 51.4036 16.3199 51.3368 16.2753C51.27 16.2307 51.2179 16.1672 51.1872 16.093C51.1564 16.0187 51.1484 15.9371 51.1641 15.8583C51.1797 15.7794 51.2184 15.7071 51.2752 15.6502C51.3321 15.5934 51.4044 15.5547 51.4832 15.5391C51.562 15.5234 51.6437 15.5314 51.718 15.5622C51.7922 15.5929 51.8556 15.645 51.9003 15.7118C51.9449 15.7786 51.9687 15.8572 51.9687 15.9375C51.9687 16.0453 51.9259 16.1486 51.8498 16.2248C51.7736 16.301 51.6702 16.3438 51.5625 16.3438ZM50.8719 13.0938H47.9062V11.4688H48.9747L50.8719 13.0938ZM45.2014 11.6934C45.2349 11.6258 45.2867 11.5689 45.3509 11.5291C45.4151 11.4894 45.4891 11.4685 45.5646 11.4688H47.0937V13.0938H44.5011L45.2014 11.6934ZM42.625 13.9063H52.6163L53.1875 14.4803V15.5313H52.7065C52.6238 15.2938 52.4692 15.0879 52.2642 14.9423C52.0592 14.7966 51.814 14.7184 51.5625 14.7184C51.311 14.7184 51.0658 14.7966 50.8608 14.9423C50.6558 15.0879 50.5012 15.2938 50.4185 15.5313H45.394C45.3113 15.2938 45.1567 15.0879 44.9517 14.9423C44.7467 14.7966 44.5015 14.7184 44.25 14.7184C43.9985 14.7184 43.7533 14.7966 43.5483 14.9423C43.3433 15.0879 43.1887 15.2938 43.106 15.5313H42.625V13.9063ZM44.25 16.3438C44.1697 16.3438 44.0911 16.3199 44.0243 16.2753C43.9575 16.2307 43.9054 16.1672 43.8747 16.093C43.8439 16.0187 43.8359 15.9371 43.8516 15.8583C43.8672 15.7794 43.9059 15.7071 43.9627 15.6502C44.0196 15.5934 44.0919 15.5547 44.1707 15.5391C44.2495 15.5234 44.3312 15.5314 44.4055 15.5622C44.4797 15.5929 44.5431 15.645 44.5878 15.7118C44.6324 15.7786 44.6562 15.8572 44.6562 15.9375C44.6562 16.0453 44.6134 16.1486 44.5373 16.2248C44.4611 16.301 44.3577 16.3438 44.25 16.3438Z" fill="black"/>
</g>
<defs>
<clipPath id="clip0_15_5633">
<rect width="26" height="26" fill="white" transform="translate(41 0.5)"/>
</clipPath>
</defs>
</svg>
