<svg width="80" height="46" viewBox="0 0 80 46" fill="none" xmlns="http://www.w3.org/2000/svg">
<path d="M75.7007 38.0411H3.8066C2.35207 38.0411 1.17285 36.8619 1.17285 35.4074V4.06442C1.17285 2.60988 2.35207 1.43066 3.8066 1.43066H73.055C73.6624 1.43062 74.2509 1.64139 74.7201 2.02698C75.1893 2.41256 75.5102 2.94906 75.6279 3.54488L78.7775 19.4841C78.8107 19.6516 78.8272 19.8218 78.8272 19.9925V34.9144C78.8274 36.6411 77.4275 38.0411 75.7007 38.0411Z" fill="#E8EB6B"/>
<path opacity="0.419608" d="M78.7775 19.4841L75.6279 3.54488C75.5101 2.94906 75.1892 2.41258 74.72 2.027C74.2507 1.64142 73.6622 1.43065 73.0549 1.43066H69.3991L71.5583 12.3575C71.5741 12.4375 71.5821 12.5188 71.5821 12.6004V29.0264C71.5821 29.9964 70.7957 30.7829 69.8257 30.7829H1.17285V35.4072C1.17285 36.8618 2.35207 38.041 3.8066 38.041H75.7007C77.4275 38.041 78.8274 36.6411 78.8274 34.9143V19.9924C78.8273 19.8217 78.8106 19.6515 78.7775 19.4841Z" fill="#BCAE0F"/>
<path d="M15.1326 44.5685C18.738 44.5685 21.6607 41.6457 21.6607 38.0403C21.6607 34.4349 18.738 31.5122 15.1326 31.5122C11.5272 31.5122 8.60449 34.4349 8.60449 38.0403C8.60449 41.6457 11.5272 44.5685 15.1326 44.5685Z" fill="#35495D"/>
<path d="M64.867 44.5685C68.4724 44.5685 71.3951 41.6457 71.3951 38.0403C71.3951 34.4349 68.4724 31.5122 64.867 31.5122C61.2616 31.5122 58.3389 34.4349 58.3389 38.0403C58.3389 41.6457 61.2616 44.5685 64.867 44.5685Z" fill="#35495D"/>
<path d="M64.1401 44.5277C64.3814 44.5549 64.624 44.5686 64.8668 44.5689C68.4721 44.5689 71.3949 41.6461 71.3949 38.0408C71.3949 34.4354 68.4721 31.5127 64.8668 31.5127C64.6204 31.5127 64.3777 31.5275 64.1384 31.5541L64.1401 44.5277ZM14.406 44.5277C14.6473 44.5549 14.8899 44.5686 15.1327 44.5689C18.738 44.5689 21.6609 41.6461 21.6609 38.0408C21.6609 34.4354 18.738 31.5127 15.1327 31.5127C14.8863 31.5127 14.6437 31.5275 14.4043 31.5541L14.406 44.5277Z" fill="#2A3A4C"/>
<path d="M64.8668 40.8698C66.4296 40.8698 67.6965 39.6029 67.6965 38.0401C67.6965 36.4773 66.4296 35.2104 64.8668 35.2104C63.304 35.2104 62.0371 36.4773 62.0371 38.0401C62.0371 39.6029 63.304 40.8698 64.8668 40.8698Z" fill="#CADDEA"/>
<path d="M78.8272 19.9921C78.8272 19.8215 78.8105 19.6512 78.7776 19.4837L76.1497 6.18555H59.3241C59.0853 6.18555 58.8563 6.2804 58.6875 6.44924C58.5187 6.61808 58.4238 6.84708 58.4238 7.08586V19.7351C58.4238 20.5535 58.8097 21.3251 59.4693 21.8096C61.3355 23.1805 66.2986 25.481 78.8272 25.917V19.9921ZM26.6933 20.778H7.06207C6.97043 20.778 6.87969 20.76 6.79503 20.7249C6.71037 20.6899 6.63344 20.6385 6.56864 20.5737C6.50384 20.5089 6.45244 20.4319 6.41738 20.3473C6.38231 20.2626 6.36426 20.1719 6.36426 20.0802V6.88336C6.36426 6.69829 6.43778 6.5208 6.56864 6.38993C6.69951 6.25907 6.877 6.18555 7.06207 6.18555H26.6933C26.8784 6.18555 27.0559 6.25907 27.1868 6.38993C27.3176 6.5208 27.3911 6.69829 27.3911 6.88336V20.0802C27.3911 20.4655 27.0786 20.778 26.6933 20.778ZM52.4372 20.778H32.806C32.7143 20.778 32.6236 20.76 32.5389 20.7249C32.4543 20.6899 32.3774 20.6385 32.3126 20.5737C32.2478 20.5089 32.1964 20.4319 32.1613 20.3473C32.1262 20.2626 32.1082 20.1719 32.1082 20.0802V6.88336C32.1082 6.69829 32.1817 6.5208 32.3126 6.38993C32.4434 6.25907 32.6209 6.18555 32.806 6.18555H52.4372C52.6223 6.18555 52.7998 6.25907 52.9307 6.38993C53.0615 6.5208 53.135 6.69829 53.135 6.88336V20.0802C53.135 20.4655 52.8225 20.778 52.4372 20.778Z" fill="#B5E7FE"/>
<path d="M77.9498 15.2952L76.1496 6.18555H70.3389L71.5584 12.3573C71.5742 12.4373 71.5821 12.5185 71.5821 12.6001V25.3851C73.6601 25.6334 76.0586 25.8209 78.8271 25.9171V19.9923C78.8271 19.8216 78.8104 19.6513 78.7773 19.4838L77.9498 15.2952Z" fill="#9AD8ED"/>
<path d="M15.1324 40.8698C16.6952 40.8698 17.9621 39.6029 17.9621 38.0401C17.9621 36.4773 16.6952 35.2104 15.1324 35.2104C13.5696 35.2104 12.3027 36.4773 12.3027 38.0401C12.3027 39.6029 13.5696 40.8698 15.1324 40.8698Z" fill="#CADDEA"/>
<path d="M58.4238 28.8642H60.4843C60.6383 28.8642 60.7908 28.8339 60.9331 28.7749C61.0754 28.716 61.2047 28.6296 61.3136 28.5207C61.4225 28.4118 61.5089 28.2825 61.5678 28.1402C61.6268 27.9979 61.6571 27.8454 61.6571 27.6914C61.6571 27.5373 61.6268 27.3848 61.5678 27.2425C61.5089 27.1002 61.4225 26.9709 61.3136 26.862C61.2047 26.7531 61.0754 26.6667 60.9331 26.6078C60.7908 26.5489 60.6383 26.5185 60.4843 26.5186H58.4238C58.1127 26.5186 57.8144 26.6421 57.5945 26.8621C57.3745 27.082 57.251 27.3803 57.251 27.6914C57.251 28.0024 57.3745 28.3007 57.5945 28.5207C57.8144 28.7406 58.1127 28.8642 58.4238 28.8642Z" fill="black"/>
<path d="M79.9963 19.8442C79.9888 19.6468 79.9659 19.4503 79.9278 19.2565L77.3002 5.95843C77.3 5.95798 77.2999 5.9575 77.2999 5.95702L76.7783 3.31749C76.428 1.54469 74.862 0.257813 73.0549 0.257813H3.8064C1.7075 0.257656 0 1.96531 0 4.06437V35.4073C0 37.5062 1.7075 39.2137 3.8064 39.2137H7.52124C8.08764 42.9054 11.2853 45.7419 15.1329 45.7419C18.9806 45.7419 22.1782 42.9055 22.7446 39.2137H25.765C26.076 39.2137 26.3743 39.0901 26.5943 38.8702C26.8142 38.6502 26.9378 38.3519 26.9378 38.0409C26.9378 37.7298 26.8142 37.4315 26.5943 37.2116C26.3743 36.9916 26.076 36.8681 25.765 36.8681H22.7445C22.1781 33.1765 18.9804 30.3399 15.1328 30.3399C11.2851 30.3399 8.08748 33.1763 7.52108 36.8681H3.8064C3.00078 36.8681 2.34546 36.2126 2.34546 35.4071V4.06437C2.34546 3.25874 3.00078 2.60328 3.8064 2.60328H73.0547C73.3903 2.60396 73.7153 2.72074 73.9746 2.9338C74.2339 3.14686 74.4115 3.44308 74.4772 3.77218L74.7224 5.01312H59.324C58.1808 5.01312 57.2508 5.94311 57.2508 7.08624V19.7354C57.2508 20.9254 57.8205 22.0543 58.7747 22.7551C61.0718 24.4426 66.2075 26.5279 77.6542 27.0442V34.9143C77.6542 35.9918 76.7777 36.8684 75.7002 36.8684H72.4785C71.9119 33.1768 68.7144 30.3403 64.8666 30.3403C61.0189 30.3403 57.8215 33.1767 57.2549 36.8684H31.222C30.9109 36.8684 30.6126 36.9919 30.3927 37.2119C30.1727 37.4318 30.0492 37.7301 30.0492 38.0412C30.0492 38.3522 30.1727 38.6505 30.3927 38.8705C30.6126 39.0904 30.9109 39.214 31.222 39.214H57.2552C57.8216 42.9057 61.0193 45.7423 64.8669 45.7423C68.7147 45.7423 71.9122 42.9059 72.4788 39.214H75.7005C78.0713 39.214 80 37.2852 80 34.9145V19.9926C79.9996 19.9431 79.9984 19.8936 79.9963 19.8442ZM15.1329 32.6856C18.0859 32.6856 20.4882 35.0879 20.4882 38.0409C20.4882 40.9938 18.0859 43.3963 15.1329 43.3963C12.18 43.3963 9.77764 40.9938 9.77764 38.0409C9.77764 35.0879 12.18 32.6856 15.1329 32.6856ZM64.8669 43.3962C61.9139 43.3962 59.5116 40.9937 59.5116 38.0407C59.5116 35.0877 61.9139 32.6854 64.8669 32.6854C67.8199 32.6854 70.2224 35.0877 70.2224 38.0407C70.2222 40.9937 67.8199 43.3962 64.8669 43.3962ZM77.6544 24.696C66.2943 24.1723 61.8289 22.0882 60.1635 20.8646C59.8085 20.6039 59.5964 20.1817 59.5964 19.7353V7.35858H75.1858L77.6267 19.7118C77.6311 19.7339 77.6333 19.7564 77.6366 19.7787C77.6463 19.8439 77.6525 19.9096 77.6533 19.9754C77.6533 19.9812 77.6541 19.9868 77.6541 19.9925V24.696H77.6544Z" fill="black"/>
<path d="M26.6931 5.0127H7.06187C6.03047 5.0127 5.19141 5.85176 5.19141 6.88317V20.08C5.19141 21.1114 6.03047 21.9505 7.06187 21.9505H26.6931C27.7245 21.9505 28.5636 21.1114 28.5636 20.08V6.88317C28.5636 5.85192 27.7245 5.0127 26.6931 5.0127ZM15.7047 19.6052H7.53687V7.35832H15.7047V19.6052ZM26.2181 19.6052H18.0503V7.35832H26.2181V19.6052ZM32.8056 21.9507H52.437C53.4684 21.9507 54.3075 21.1116 54.3075 20.0802V6.88332C54.3075 5.85191 53.4684 5.01285 52.437 5.01285H32.8056C31.7742 5.01285 30.9352 5.85191 30.9352 6.88332V20.0802C30.9352 21.1116 31.7742 21.9507 32.8056 21.9507ZM33.2806 7.35832H41.4484V9.70332C41.4484 9.85734 41.4787 10.0099 41.5377 10.1522C41.5966 10.2945 41.683 10.4238 41.7919 10.5327C41.9008 10.6416 42.0301 10.728 42.1724 10.7869C42.3147 10.8458 42.4672 10.8762 42.6213 10.8761C42.7753 10.8762 42.9278 10.8458 43.0701 10.7869C43.2124 10.728 43.3417 10.6416 43.4506 10.5327C43.5595 10.4238 43.6459 10.2945 43.7048 10.1522C43.7638 10.0099 43.7941 9.85734 43.7941 9.70332V7.35832H51.962V19.6052H43.7941V15.1604C43.7941 15.0063 43.7638 14.8538 43.7048 14.7115C43.6459 14.5692 43.5595 14.4399 43.4506 14.331C43.3417 14.2221 43.2124 14.1357 43.0701 14.0768C42.9278 14.0178 42.7753 13.9875 42.6213 13.9875C42.4672 13.9875 42.3147 14.0178 42.1724 14.0768C42.0301 14.1357 41.9008 14.2221 41.7919 14.331C41.683 14.4399 41.5966 14.5692 41.5377 14.7115C41.4787 14.8538 41.4484 15.0063 41.4484 15.1604V19.6052H33.2806V7.35832Z" fill="black"/>
<path d="M64.8668 40.8698C66.4296 40.8698 67.6965 39.6029 67.6965 38.0401C67.6965 36.4773 66.4296 35.2104 64.8668 35.2104C63.304 35.2104 62.0371 36.4773 62.0371 38.0401C62.0371 39.6029 63.304 40.8698 64.8668 40.8698Z" stroke="black" stroke-width="4.21874" stroke-miterlimit="10" stroke-linecap="round" stroke-linejoin="round"/>
<path d="M15.1324 40.8698C16.6952 40.8698 17.9621 39.6029 17.9621 38.0401C17.9621 36.4773 16.6952 35.2104 15.1324 35.2104C13.5696 35.2104 12.3027 36.4773 12.3027 38.0401C12.3027 39.6029 13.5696 40.8698 15.1324 40.8698Z" stroke="black" stroke-width="4.21874" stroke-miterlimit="10" stroke-linecap="round" stroke-linejoin="round"/>
</svg>
