<svg width="240" height="241" viewBox="0 0 240 241" fill="none" xmlns="http://www.w3.org/2000/svg">
<rect width="240" height="240" transform="translate(0 0.0336914)" fill="#6FBADA"/>
<rect width="48" height="48" transform="translate(19.0908 13.2153)" fill="white"/>
<path d="M32.3235 53.8008C32.3017 53.4081 32.2363 52.9281 32.1272 52.3608C32.0399 51.8153 31.9308 51.2808 31.7999 50.7572C31.6908 50.2335 31.5599 49.8081 31.4072 49.4808H33.3054C33.7199 49.4808 34.0145 49.4262 34.189 49.3172C34.3635 49.1862 34.4508 48.9135 34.4508 48.499V47.5499C33.2726 47.6372 32.1599 47.7135 31.1126 47.779C30.0872 47.8444 29.2363 47.8881 28.5599 47.9099L28.1017 43.8517C28.7126 43.8517 29.5854 43.8299 30.7199 43.7862C31.8763 43.7208 33.1199 43.6444 34.4508 43.5571V41.9862L35.9235 41.9535L36.8726 40.939H34.3199C32.9235 41.9208 31.4181 42.8044 29.8035 43.5899C29.5854 43.1971 29.2581 42.6844 28.8217 42.0517C28.4072 41.3972 27.949 40.8299 27.4472 40.3499C28.0145 40.1099 28.5599 39.8481 29.0835 39.5644C29.629 39.2808 30.1417 38.9971 30.6217 38.7135V37.3062H32.6508C33.0217 37.0444 33.3708 36.7717 33.6981 36.4881C34.0472 36.2044 34.3745 35.9208 34.6799 35.6372H28.2981V32.0044H33.109V30.3026H29.2472V26.7353H33.109V23.6917H37.5926V26.7353H39.8508V29.0917C40.2435 28.4153 40.6035 27.739 40.9308 27.0626C41.2799 26.3644 41.5963 25.6662 41.8799 24.9681L45.8726 26.6371C44.9781 28.579 43.9635 30.3681 42.829 32.0044H43.8435V33.8044C44.6945 32.1899 45.3926 30.4772 45.9381 28.6662C46.5054 26.8553 46.8763 25.1535 47.0508 23.5608L51.5017 24.2153C51.349 25.1753 51.1417 26.1572 50.8799 27.1608C50.6181 28.1644 50.3235 29.1571 49.9963 30.139H58.2435V34.1317H56.6399C56.4435 36.2481 56.0726 38.2335 55.5272 40.0881C54.9817 41.9426 54.2399 43.6444 53.3017 45.1935C54.109 46.1099 55.0035 46.9717 55.9854 47.779C56.9672 48.5862 58.0254 49.339 59.1599 50.0372C58.789 50.4081 58.3854 50.8226 57.949 51.2808C57.5345 51.7608 57.1526 52.219 56.8035 52.6553C56.4763 53.0917 56.2472 53.4408 56.1163 53.7026C55.0472 53.0044 54.0435 52.2408 53.1054 51.4117C52.1672 50.6044 51.3163 49.7317 50.5526 48.7935C49.549 49.7972 48.4035 50.7135 47.1163 51.5426C45.829 52.3717 44.3999 53.0808 42.829 53.6699C42.6108 53.1026 42.2945 52.4699 41.8799 51.7717C41.4872 51.0735 41.0181 50.419 40.4726 49.8081C42.109 49.3281 43.549 48.6953 44.7926 47.9099C46.0581 47.1026 47.149 46.1753 48.0654 45.1281C47.0181 43.2299 46.2326 41.2008 45.709 39.0408C45.5563 39.2808 45.3926 39.5208 45.2181 39.7608C45.0435 40.0008 44.869 40.2299 44.6945 40.4481C44.2363 40.0335 43.7345 39.6408 43.189 39.2699C42.6872 39.8153 42.0763 40.459 41.3563 41.2008C40.6581 41.9426 40.0035 42.6081 39.3926 43.1972C41.7272 43.0008 43.4835 42.8262 44.6617 42.6735V46.339C44.0072 46.4917 43.1672 46.6335 42.1417 46.7644C41.1163 46.8953 40.0145 47.0262 38.8363 47.1572V50.3644C38.8363 51.5862 38.4763 52.459 37.7563 52.9826C37.0581 53.5281 35.9999 53.8008 34.5817 53.8008H32.3235ZM50.5854 41.0371C51.0435 39.9899 51.4035 38.8881 51.6654 37.7317C51.9272 36.5535 52.1017 35.3535 52.189 34.1317H48.9817C49.0254 35.3972 49.1781 36.6081 49.4399 37.7644C49.7235 38.9208 50.1054 40.0117 50.5854 41.0371ZM38.5745 37.3062H41.5854C41.8035 37.0444 42.0108 36.7717 42.2072 36.4881C42.4035 36.2044 42.5999 35.9208 42.7963 35.6372H40.1126C39.8726 35.9208 39.6217 36.2044 39.3599 36.4881C39.0981 36.7717 38.8363 37.0444 38.5745 37.3062ZM37.5926 32.0044H37.9199C38.3126 31.4808 38.7163 30.9135 39.1308 30.3026H37.5926V32.0044Z" fill="#6FBADA"/>
<rect width="48" height="48" transform="translate(70.3633 13.2153)" fill="white"/>
<path d="M97.1778 54.0953C97.1342 53.419 97.0142 52.6553 96.8178 51.8044C96.6215 50.9535 96.4033 50.2553 96.1633 49.7099H98.2906C98.7924 49.7099 99.1306 49.6444 99.3051 49.5135C99.4796 49.3608 99.5669 49.0662 99.5669 48.6299V48.4335H88.996V53.9317H84.1196V36.1608H104.476V50.1353C104.476 51.5099 104.083 52.5135 103.298 53.1462C102.512 53.779 101.312 54.0953 99.6978 54.0953H97.1778ZM106.309 37.4699C105.48 36.5753 104.432 35.5935 103.167 34.5244C102.011 34.6117 100.636 34.7099 99.0433 34.819C97.4506 34.9281 95.7706 35.0371 94.0033 35.1462C92.2578 35.2553 90.5342 35.3535 88.8324 35.4408C87.1306 35.5062 85.5706 35.5717 84.1524 35.6372C82.756 35.6808 81.6106 35.7135 80.716 35.7353L79.9633 31.4808C80.9451 31.4808 82.0142 31.4808 83.1706 31.4808C84.3487 31.459 85.5487 31.4371 86.7706 31.4153C87.0106 31.0662 87.2396 30.7062 87.4578 30.3353C87.676 29.9644 87.8942 29.6044 88.1124 29.2553H79.5378V25.5899H91.7451V23.3972H96.7196V25.5899H109.156V29.2553H103.494C104.585 29.9535 105.676 30.7281 106.767 31.579C107.858 32.4299 108.796 33.2371 109.581 34.0008C109.254 34.2844 108.883 34.6444 108.469 35.0808C108.054 35.4953 107.651 35.9208 107.258 36.3571C106.887 36.7935 106.571 37.1644 106.309 37.4699ZM88.996 45.0953H99.5669V44.1135H88.996V45.0953ZM88.996 40.7753H99.5669V39.7935H88.996V40.7753ZM92.5306 31.2844C93.6215 31.2408 94.6796 31.2081 95.7051 31.1862C96.7306 31.1426 97.6796 31.1099 98.5524 31.0881C98.356 30.9571 98.1596 30.8371 97.9633 30.7281C97.7669 30.5971 97.5815 30.4881 97.4069 30.4008L98.6833 29.2553H93.8396C93.6433 29.5608 93.436 29.8881 93.2178 30.2371C92.9996 30.5862 92.7706 30.9353 92.5306 31.2844Z" fill="#6FBADA"/>
<rect width="48" height="48" transform="translate(121.637 13.2153)" fill="white"/>
<path d="M145.08 54.0953C144.666 53.7899 144.153 53.4626 143.542 53.1135C142.953 52.7862 142.375 52.5026 141.808 52.2626V52.9499H131.957V43.2953H141.808V50.6917C142.702 49.1208 143.291 47.3535 143.575 45.3899C143.88 43.4262 144.033 41.0481 144.033 38.2553V23.9862H148.353V38.2553C148.353 40.5681 148.266 42.6735 148.091 44.5717C147.939 46.4481 147.622 48.1717 147.142 49.7426C146.684 51.2917 145.997 52.7426 145.08 54.0953ZM155.226 53.4081V23.9862H159.546V53.4081H155.226ZM149.695 49.2844V26.0481H153.917V49.2844H149.695ZM130.615 32.7572V29.1571H142.822V32.7572H130.615ZM132.219 28.1099V24.379H141.415V28.1099H132.219ZM132.186 37.4699V33.8044H141.415V37.4699H132.186ZM132.186 42.1499V38.5172H141.415V42.1499H132.186ZM135.949 49.3499H137.782V46.9281H135.949V49.3499Z" fill="#6FBADA"/>
<rect width="48" height="48" transform="translate(172.909 13.2153)" fill="white"/>
<path d="M186.273 53.6372V44.3426C186.142 45.0408 185.978 45.7826 185.782 46.5681C185.586 47.3317 185.378 48.0517 185.16 48.7281C184.942 49.4044 184.735 49.9717 184.538 50.4299C183.993 50.1899 183.382 49.9935 182.706 49.8408C182.051 49.6662 181.44 49.5353 180.873 49.4481C181.178 48.859 181.473 48.139 181.756 47.2881C182.04 46.4153 182.291 45.5099 182.509 44.5717C182.749 43.6335 182.913 42.7826 183 42.019L186.273 42.6735V40.7099C185.531 40.7972 184.811 40.8844 184.113 40.9717C183.415 41.059 182.782 41.1353 182.215 41.2008L181.658 37.1426C181.942 37.1426 182.247 37.1426 182.575 37.1426C182.924 37.1208 183.273 37.099 183.622 37.0772C183.971 36.6844 184.331 36.2481 184.702 35.7681C185.073 35.2662 185.455 34.7426 185.847 34.1971C185.171 33.6953 184.429 33.1717 183.622 32.6262C182.836 32.059 182.062 31.5571 181.298 31.1208L183.458 27.8808C183.611 27.9681 183.764 28.0553 183.916 28.1426C184.069 28.2299 184.222 28.3281 184.375 28.4371C184.658 27.9571 184.953 27.4226 185.258 26.8335C185.586 26.2226 185.88 25.6335 186.142 25.0662C186.404 24.499 186.611 24.019 186.764 23.6262L190.495 25.099C190.015 25.9717 189.491 26.8881 188.924 27.8481C188.356 28.7862 187.833 29.6262 187.353 30.3681C187.484 30.4553 187.615 30.5535 187.746 30.6626C187.876 30.7499 187.996 30.8372 188.106 30.9244C188.607 30.139 189.066 29.4081 189.48 28.7317C189.895 28.0335 190.211 27.4444 190.429 26.9644L193.276 28.3062V26.1462H200.804V23.8226H204.927V26.1462H211.964V29.7135H204.927V30.7608H211.178V42.6408H205.844C206.869 43.8844 208.058 45.0299 209.411 46.0772C210.764 47.1244 212.04 47.9972 213.24 48.6953C212.76 49.0662 212.291 49.5462 211.833 50.1353C211.375 50.7026 210.982 51.259 210.655 51.8044C209.738 51.1935 208.778 50.4735 207.775 49.6444C206.771 48.7935 205.822 47.8662 204.927 46.8626V53.5717H200.804V47.0262C199.866 48.0953 198.851 49.1099 197.76 50.0699C196.669 51.0081 195.611 51.7935 194.586 52.4262C194.302 51.9244 193.909 51.3899 193.407 50.8226C192.927 50.2335 192.458 49.7426 192 49.3499C192.829 48.9353 193.713 48.379 194.651 47.6808C195.589 46.9826 196.506 46.2081 197.4 45.3572C198.295 44.4844 199.069 43.579 199.724 42.6408H194.684V40.219C194.291 40.3717 193.898 40.5462 193.506 40.7426C193.135 40.939 192.786 41.1462 192.458 41.3644C192.349 40.9281 192.196 40.4372 192 39.8917C191.738 39.9135 191.466 39.9571 191.182 40.0226C190.92 40.0662 190.636 40.1099 190.331 40.1535V42.1171L193.636 41.299C193.746 41.8008 193.898 42.4117 194.095 43.1317C194.313 43.8299 194.531 44.5281 194.749 45.2262C194.967 45.9026 195.164 46.4808 195.338 46.9608C194.662 47.1135 194.029 47.3099 193.44 47.5499C192.851 47.7681 192.273 48.0408 191.706 48.3681C191.596 47.9753 191.455 47.4735 191.28 46.8626C191.127 46.2299 190.964 45.5644 190.789 44.8662C190.615 44.1462 190.462 43.4808 190.331 42.8699V53.6372H186.273ZM188.596 36.7826C188.946 36.739 189.295 36.7062 189.644 36.6844C189.993 36.6408 190.32 36.6081 190.626 36.5862C190.516 36.3244 190.396 36.0735 190.266 35.8335C190.156 35.5935 190.047 35.3753 189.938 35.179L193.244 33.6081C193.484 34.0008 193.724 34.4481 193.964 34.9499C194.226 35.4299 194.466 35.9208 194.684 36.4226V30.7608H200.804V29.7135H193.506C192.873 30.739 192.109 31.8953 191.215 33.1826C190.32 34.4481 189.447 35.6481 188.596 36.7826ZM204.927 35.2117H207.186V33.9026H204.927V35.2117ZM204.927 39.4662H207.186V38.1899H204.927V39.4662ZM198.676 35.2117H200.804V33.9026H198.676V35.2117ZM198.676 39.4662H200.804V38.1899H198.676V39.4662Z" fill="#6FBADA"/>
<rect width="48" height="48" transform="translate(19.0908 64.4883)" fill="white"/>
<path d="M32.6508 104.91V94.4701C32.5635 95.2119 32.4108 96.0519 32.1926 96.9901C31.9745 97.9065 31.7345 98.7901 31.4726 99.641C31.2108 100.492 30.949 101.19 30.6872 101.736C30.1635 101.496 29.5635 101.299 28.8872 101.146C28.2108 100.972 27.6108 100.841 27.0872 100.754C27.3926 100.186 27.6872 99.4665 27.9708 98.5937C28.2545 97.721 28.5054 96.8265 28.7235 95.9101C28.9635 94.9719 29.1272 94.121 29.2145 93.3574L32.6508 94.0119V91.8192C31.8435 91.9065 31.069 92.0046 30.3272 92.1137C29.6072 92.201 28.9635 92.2665 28.3963 92.3101L27.8726 88.2192C28.549 88.2192 29.2908 88.1865 30.0981 88.121C30.4254 87.7283 30.7745 87.281 31.1454 86.7792C31.5381 86.2774 31.9199 85.7428 32.2908 85.1756C31.5708 84.6737 30.7635 84.1501 29.869 83.6046C28.9963 83.0592 28.1672 82.5901 27.3817 82.1974L29.3781 78.8265C29.5526 78.9137 29.7272 79.0119 29.9017 79.121C30.0981 79.2083 30.2945 79.3065 30.4908 79.4156C30.7526 78.9137 31.0254 78.3792 31.309 77.8119C31.6145 77.2228 31.8981 76.6556 32.1599 76.1101C32.4217 75.5428 32.6181 75.0628 32.749 74.6701L36.5781 76.0774C36.1417 76.9283 35.6508 77.8228 35.1054 78.761C34.5817 79.6992 34.0799 80.5501 33.5999 81.3137C33.7526 81.401 33.8945 81.4992 34.0254 81.6083C34.1781 81.6956 34.3199 81.7828 34.4508 81.8701C34.9526 81.041 35.4108 80.2665 35.8254 79.5465C36.2399 78.8046 36.5672 78.1937 36.8072 77.7137L40.5054 79.4156C40.1126 80.1356 39.6108 80.9756 38.9999 81.9356C38.389 82.8956 37.7345 83.8883 37.0363 84.9137C36.3599 85.9174 35.6945 86.8774 35.0399 87.7937C35.3454 87.7501 35.6508 87.7174 35.9563 87.6956C36.2835 87.6737 36.589 87.6519 36.8726 87.6301C36.7854 87.3465 36.6872 87.0956 36.5781 86.8774C36.469 86.6374 36.3599 86.4083 36.2508 86.1901L39.6545 84.6519C39.7199 84.761 39.7854 84.881 39.8508 85.0119C39.9163 85.1428 39.9926 85.2846 40.0799 85.4374C41.1272 84.6737 42.1308 83.6919 43.0908 82.4919C44.0508 81.2701 44.8799 79.9937 45.5781 78.6628C46.2981 77.3101 46.8217 76.0556 47.149 74.8992L51.1417 75.3901C51.3817 76.241 51.8072 77.1792 52.4181 78.2046C53.0508 79.2083 53.7817 80.2119 54.6108 81.2156C55.4399 82.1974 56.2799 83.0701 57.1308 83.8337C57.9817 84.5974 58.7563 85.1646 59.4545 85.5356C58.7345 86.0156 58.0799 86.5828 57.4908 87.2374C56.9235 87.8701 56.4872 88.4592 56.1817 89.0046C55.9199 88.8301 55.6581 88.6337 55.3963 88.4156C55.1345 88.1756 54.8726 87.9356 54.6108 87.6956V89.7246H44.1381V87.5319C43.6799 88.0556 43.2435 88.4919 42.829 88.841C42.5454 88.4701 42.2072 88.0883 41.8145 87.6956C41.4435 87.3028 41.0399 86.9319 40.6035 86.5828C40.9526 87.3465 41.269 88.121 41.5526 88.9065C41.8363 89.6919 42.0545 90.3574 42.2072 90.9028C41.6399 91.0992 41.0072 91.3392 40.309 91.6228C39.6326 91.8846 39.0217 92.1683 38.4763 92.4737C38.4326 92.2556 38.3781 92.0265 38.3126 91.7865C38.2472 91.5246 38.1708 91.2519 38.0835 90.9683C37.8872 90.9901 37.6799 91.0228 37.4617 91.0665C37.2654 91.1101 37.0472 91.1537 36.8072 91.1974V93.521L40.2108 92.7028C40.2763 93.0519 40.3854 93.5319 40.5381 94.1428C40.7126 94.7537 40.8981 95.3974 41.0945 96.0737C41.2908 96.7501 41.4763 97.3937 41.6508 98.0046C41.8254 98.5937 41.9781 99.0519 42.109 99.3792C41.5417 99.5319 40.9199 99.7392 40.2435 100.001C39.5672 100.241 38.9672 100.514 38.4435 100.819C38.3345 100.426 38.1708 99.8483 37.9526 99.0846C37.7563 98.2992 37.549 97.4701 37.3308 96.5974C37.1345 95.7028 36.9599 94.9174 36.8072 94.241V104.91H32.6508ZM42.829 104.157V91.9501H56.3781V104.157H42.829ZM47.509 100.263H51.6654V95.8774H47.509V100.263ZM45.6108 85.8301H52.7781C52.0363 85.001 51.349 84.1392 50.7163 83.2446C50.0835 82.3283 49.549 81.4337 49.1126 80.561C48.7854 81.2592 48.3054 82.0883 47.6726 83.0483C47.0399 84.0083 46.3526 84.9356 45.6108 85.8301Z" fill="#6FBADA"/>
<rect width="48" height="48" transform="translate(70.3633 64.4883)" fill="white"/>
<path d="M97.6033 104.845C97.5815 104.408 97.5051 103.874 97.3742 103.241C97.2651 102.63 97.1342 102.019 96.9815 101.408C96.8287 100.797 96.6651 100.317 96.4906 99.9683H99.3051C99.7415 99.9683 100.058 99.9028 100.254 99.7719C100.472 99.6192 100.581 99.3246 100.581 98.8883V86.6483H89.5851V82.1319H100.581V75.161H105.523V82.1319H109.385V86.6483H105.523V101.048C105.523 102.379 105.131 103.339 104.345 103.928C103.56 104.539 102.381 104.845 100.811 104.845H97.6033ZM83.7596 104.877V89.3646C83.0178 90.2374 82.2651 91.0228 81.5015 91.721C81.1087 91.2192 80.5742 90.7065 79.8978 90.1828C79.2433 89.6374 78.6106 89.1901 77.9996 88.841C78.676 88.2519 79.3742 87.521 80.0942 86.6483C80.836 85.7537 81.556 84.7828 82.2542 83.7356C82.9742 82.6883 83.6396 81.6192 84.2506 80.5283C84.8615 79.4374 85.3851 78.3901 85.8215 77.3865C86.2578 76.3828 86.5633 75.4883 86.7378 74.7028L91.1233 76.2083C90.4906 78.2592 89.6287 80.2883 88.5378 82.2956V104.877H83.7596ZM95.116 97.481C94.8324 96.8265 94.4178 96.0737 93.8724 95.2228C93.3269 94.3719 92.7487 93.5537 92.1378 92.7683C91.5269 91.961 90.9924 91.3392 90.5342 90.9028L94.5269 88.3174C95.116 88.841 95.716 89.4737 96.3269 90.2156C96.9378 90.9574 97.5051 91.721 98.0287 92.5065C98.5742 93.2919 99.0106 94.0337 99.3378 94.7319C98.9451 94.9065 98.476 95.1574 97.9306 95.4846C97.3851 95.8119 96.8506 96.161 96.3269 96.5319C95.8251 96.881 95.4215 97.1974 95.116 97.481Z" fill="#6FBADA"/>
<rect width="48" height="48" transform="translate(121.637 64.4883)" fill="white"/>
<path d="M137.782 104.976V94.6337H136.375V103.274H131.891V90.3465H137.782V88.9065H130.582V84.7174H133.691C133.146 84.4556 132.546 84.2046 131.891 83.9646C131.237 83.7246 130.626 83.5501 130.059 83.441C130.32 83.0701 130.604 82.5574 130.909 81.9028C131.215 81.2265 131.509 80.5065 131.793 79.7428C132.099 78.9792 132.36 78.2374 132.579 77.5174C132.797 76.7756 132.939 76.1537 133.004 75.6519L137.389 76.5028C137.324 76.8083 137.237 77.1465 137.128 77.5174C137.04 77.8665 136.942 78.2374 136.833 78.6301H137.782V75.2265H142.135V78.6301H147.699V82.8519H142.135V84.7174H148.517V88.9065H142.135V90.3465H148.222V99.641C148.222 100.841 147.84 101.703 147.077 102.226C146.335 102.75 145.255 103.012 143.837 103.012H142.789C142.746 102.532 142.659 101.932 142.528 101.212C142.419 100.47 142.288 99.8156 142.135 99.2483V104.976H137.782ZM152.869 104.845C152.848 104.43 152.782 103.928 152.673 103.339C152.586 102.772 152.466 102.205 152.313 101.637C152.182 101.07 152.04 100.612 151.888 100.263H153.917C154.353 100.263 154.659 100.197 154.833 100.066C155.029 99.9356 155.128 99.6628 155.128 99.2483V75.1937H159.775V101.212C159.775 102.499 159.393 103.426 158.629 103.994C157.888 104.561 156.764 104.845 155.259 104.845H152.869ZM149.204 97.0556V78.761H153.557V97.0556H149.204ZM142.135 98.561H143.019C143.499 98.561 143.739 98.3101 143.739 97.8083V94.6337H142.135V98.561ZM134.248 84.7174H137.782V82.8519H135.197C135.044 83.201 134.88 83.5392 134.706 83.8665C134.553 84.1719 134.4 84.4556 134.248 84.7174Z" fill="#6FBADA"/>
<rect width="48" height="48" transform="translate(172.909 64.4883)" fill="white"/>
<path d="M184.898 104.386C184.506 104.146 184.047 103.906 183.524 103.666C183 103.426 182.476 103.208 181.953 103.012C181.451 102.837 181.015 102.696 180.644 102.586C181.451 101.321 182.095 100.001 182.575 98.6265C183.055 97.2301 183.404 95.6483 183.622 93.881C183.862 92.1137 183.982 90.0519 183.982 87.6956V77.1246H194.716V74.7683H200.018V77.1246H211.767V80.9865H205.778V82.2628H211.44V85.9937H205.778V90.6083H192.196V85.9937H188.596V87.4337C188.596 89.5719 188.476 91.6774 188.236 93.7501C188.018 95.8228 187.636 97.7646 187.091 99.5756C186.567 101.386 185.836 102.99 184.898 104.386ZM189.284 105.106C189.131 104.539 188.858 103.841 188.466 103.012C188.095 102.183 187.68 101.463 187.222 100.852C188.575 100.721 189.916 100.514 191.247 100.23C192.578 99.9465 193.866 99.5974 195.109 99.1828C194.542 98.5719 194.029 97.9392 193.571 97.2846C193.113 96.6301 192.72 95.9319 192.393 95.1901H189.578V91.5574H207.284L209.182 93.6192C208.549 94.7101 207.786 95.7356 206.891 96.6956C206.018 97.6556 205.036 98.5501 203.946 99.3792C206.433 100.186 209.04 100.59 211.767 100.59C211.527 100.874 211.266 101.299 210.982 101.866C210.72 102.434 210.469 103.012 210.229 103.601C210.011 104.19 209.847 104.67 209.738 105.041C207.622 104.866 205.691 104.539 203.946 104.059C202.2 103.601 200.629 103.001 199.233 102.259C196.047 103.786 192.731 104.736 189.284 105.106ZM199.462 97.1865C199.986 96.881 200.487 96.5646 200.967 96.2374C201.447 95.8883 201.895 95.5392 202.309 95.1901H197.269C197.575 95.561 197.913 95.9101 198.284 96.2374C198.655 96.5646 199.047 96.881 199.462 97.1865ZM196.942 87.3028H201.066V85.9937H196.942V87.3028ZM196.942 82.2628H201.066V80.9865H196.942V82.2628ZM188.596 82.2628H192.196V80.9865H188.596V82.2628Z" fill="#6FBADA"/>
<path d="M21.9006 142.437V137.565C21.8599 137.911 21.7886 138.303 21.6868 138.741C21.585 139.168 21.473 139.581 21.3508 139.978C21.2286 140.375 21.1065 140.701 20.9843 140.955C20.7399 140.843 20.4599 140.752 20.1443 140.68C19.8286 140.599 19.5486 140.538 19.3043 140.497C19.4468 140.232 19.5843 139.896 19.7166 139.489C19.849 139.082 19.9661 138.664 20.0679 138.237C20.1799 137.799 20.2563 137.402 20.297 137.046L21.9006 137.351V136.328C21.5239 136.368 21.1625 136.414 20.8163 136.465C20.4803 136.506 20.1799 136.536 19.9152 136.557L19.6708 134.648C19.9865 134.648 20.3326 134.632 20.7094 134.602C20.8621 134.419 21.025 134.21 21.1981 133.976C21.3814 133.742 21.5595 133.492 21.7326 133.227C21.3966 132.993 21.0199 132.749 20.6025 132.494C20.1952 132.24 19.8083 132.021 19.4417 131.838L20.3734 130.264C20.4548 130.305 20.5363 130.351 20.6177 130.402C20.7094 130.443 20.801 130.488 20.8926 130.539C21.0148 130.305 21.1421 130.056 21.2745 129.791C21.417 129.516 21.5494 129.251 21.6715 128.997C21.7937 128.732 21.8854 128.508 21.9465 128.325L23.7334 128.982C23.5297 129.379 23.3006 129.796 23.0461 130.234C22.8017 130.672 22.5675 131.069 22.3435 131.425C22.4148 131.466 22.481 131.512 22.5421 131.563C22.6134 131.603 22.6795 131.644 22.7406 131.685C22.9748 131.298 23.1886 130.936 23.3821 130.6C23.5755 130.254 23.7283 129.969 23.8403 129.745L25.5661 130.539C25.3828 130.875 25.1486 131.267 24.8635 131.715C24.5785 132.163 24.273 132.627 23.9472 133.105C23.6315 133.574 23.321 134.022 23.0155 134.449C23.1581 134.429 23.3006 134.414 23.4432 134.403C23.5959 134.393 23.7385 134.383 23.8708 134.373C23.8301 134.24 23.7843 134.123 23.7334 134.022C23.6825 133.91 23.6315 133.803 23.5806 133.701L25.169 132.983C25.1995 133.034 25.2301 133.09 25.2606 133.151C25.2912 133.212 25.3268 133.278 25.3675 133.35C25.8563 132.993 26.3246 132.535 26.7726 131.975C27.2206 131.405 27.6075 130.809 27.9334 130.188C28.2694 129.557 28.5137 128.971 28.6665 128.432L30.5297 128.661C30.6417 129.058 30.8403 129.496 31.1254 129.974C31.4206 130.443 31.7617 130.911 32.1486 131.379C32.5355 131.838 32.9275 132.245 33.3246 132.601C33.7217 132.958 34.0832 133.222 34.409 133.395C34.073 133.619 33.7675 133.884 33.4926 134.19C33.2279 134.485 33.0243 134.76 32.8817 135.014C32.7595 134.933 32.6374 134.841 32.5152 134.739C32.393 134.627 32.2708 134.515 32.1486 134.403V135.35H27.2614V134.327C27.0475 134.571 26.8439 134.775 26.6505 134.938C26.5181 134.765 26.3603 134.587 26.177 134.403C26.0039 134.22 25.8155 134.047 25.6119 133.884C25.7748 134.24 25.9225 134.602 26.0548 134.968C26.1872 135.335 26.289 135.646 26.3603 135.9C26.0955 135.992 25.8003 136.104 25.4745 136.236C25.1588 136.358 24.8737 136.491 24.6192 136.633C24.5988 136.531 24.5734 136.424 24.5428 136.312C24.5123 136.19 24.4766 136.063 24.4359 135.931C24.3443 135.941 24.2475 135.956 24.1457 135.976C24.0541 135.997 23.9523 136.017 23.8403 136.038V137.122L25.4286 136.74C25.4592 136.903 25.5101 137.127 25.5814 137.412C25.6628 137.697 25.7494 137.998 25.841 138.313C25.9326 138.629 26.0192 138.929 26.1006 139.214C26.1821 139.489 26.2534 139.703 26.3145 139.856C26.0497 139.927 25.7595 140.024 25.4439 140.146C25.1283 140.258 24.8483 140.385 24.6039 140.528C24.553 140.344 24.4766 140.075 24.3748 139.718C24.2832 139.352 24.1865 138.965 24.0846 138.558C23.993 138.14 23.9115 137.774 23.8403 137.458V142.437H21.9006ZM26.6505 142.086V136.389H32.9734V142.086H26.6505ZM28.8345 140.268H30.7741V138.222H28.8345V140.268ZM27.9486 133.533H31.2934C30.9472 133.146 30.6265 132.744 30.3312 132.326C30.0359 131.899 29.7865 131.481 29.5828 131.074C29.4301 131.4 29.2061 131.787 28.9108 132.235C28.6155 132.683 28.2948 133.115 27.9486 133.533ZM43.5574 142.406C43.5472 142.203 43.5115 141.953 43.4505 141.658C43.3995 141.373 43.3385 141.088 43.2672 140.803C43.1959 140.518 43.1195 140.294 43.0381 140.131H44.3515C44.5552 140.131 44.7028 140.1 44.7945 140.039C44.8963 139.968 44.9472 139.83 44.9472 139.627V133.915H39.8155V131.807H44.9472V128.554H47.2534V131.807H49.0555V133.915H47.2534V140.635C47.2534 141.256 47.0701 141.704 46.7035 141.979C46.337 142.264 45.7872 142.406 45.0541 142.406H43.5574ZM37.097 142.422V135.182C36.7508 135.59 36.3995 135.956 36.0432 136.282C35.8599 136.048 35.6105 135.808 35.2948 135.564C34.9894 135.31 34.6941 135.101 34.409 134.938C34.7246 134.663 35.0505 134.322 35.3865 133.915C35.7326 133.497 36.0686 133.044 36.3945 132.555C36.7305 132.067 37.041 131.568 37.3261 131.059C37.6112 130.55 37.8555 130.061 38.0592 129.592C38.2628 129.124 38.4054 128.707 38.4868 128.34L40.5334 129.043C40.2381 130 39.8359 130.947 39.3268 131.883V142.422H37.097ZM42.3966 138.97C42.2643 138.664 42.0708 138.313 41.8163 137.916C41.5617 137.519 41.2919 137.137 41.0068 136.771C40.7217 136.394 40.4723 136.104 40.2585 135.9L42.1217 134.694C42.3966 134.938 42.6766 135.233 42.9617 135.579C43.2468 135.926 43.5115 136.282 43.7559 136.648C44.0105 137.015 44.2141 137.361 44.3668 137.687C44.1835 137.768 43.9646 137.886 43.7101 138.038C43.4555 138.191 43.2061 138.354 42.9617 138.527C42.7275 138.69 42.5392 138.838 42.3966 138.97ZM59.4563 142.406C59.4359 142.203 59.4003 141.948 59.3494 141.643C59.3086 141.347 59.2526 141.057 59.1814 140.772C59.1203 140.487 59.049 140.258 58.9675 140.085H60.2505C60.4643 140.085 60.617 140.054 60.7086 139.993C60.8105 139.922 60.8614 139.784 60.8614 139.581V134.296H57.761V132.922H57.089C56.977 133.604 56.7937 134.296 56.5392 134.999C56.2846 135.702 55.9792 136.389 55.6228 137.061C56.5392 138.171 57.313 139.265 57.9443 140.344C57.7406 140.426 57.5115 140.543 57.257 140.696C57.0126 140.848 56.7734 141.006 56.5392 141.169C56.3152 141.332 56.1319 141.485 55.9894 141.627C55.5821 140.803 55.0475 139.937 54.3857 139.031C53.9377 139.632 53.449 140.197 52.9195 140.726C52.4003 141.246 51.8454 141.709 51.2548 142.116C51.0614 141.831 50.8221 141.551 50.537 141.276C50.2621 140.991 49.977 140.757 49.6817 140.574C50.2825 140.217 50.8679 139.759 51.4381 139.199C52.0185 138.639 52.5428 138.003 53.0112 137.29C52.6039 136.811 52.1814 136.358 51.7435 135.931C51.3159 135.493 50.8883 135.091 50.4606 134.724L51.8963 133.395C52.6192 133.935 53.3472 134.587 54.0803 135.35C54.2534 134.963 54.4061 134.571 54.5385 134.174C54.6708 133.767 54.7777 133.35 54.8592 132.922H50.3079V130.967H53.1181V128.462H55.5923V130.967H58.1428V132.342H60.8614V128.6H63.1675V132.342H64.6185V134.296H63.1675V140.604C63.1675 141.246 62.9792 141.704 62.6025 141.979C62.2359 142.264 61.6759 142.406 60.9225 142.406H59.4563ZM58.5705 138.787C58.4686 138.532 58.3057 138.216 58.0817 137.84C57.8577 137.463 57.6134 137.086 57.3486 136.71C57.0941 136.323 56.8497 136.002 56.6155 135.747L58.3108 134.571C58.5857 134.867 58.8555 135.192 59.1203 135.549C59.3952 135.895 59.6497 136.246 59.8839 136.603C60.1181 136.949 60.3065 137.27 60.449 137.565C60.1435 137.697 59.8177 137.875 59.4715 138.099C59.1355 138.313 58.8352 138.542 58.5705 138.787ZM71.0788 142.651C71.0585 142.437 71.0177 142.157 70.9566 141.811C70.9057 141.475 70.8446 141.179 70.7734 140.925C70.0301 141.23 69.2563 141.51 68.4519 141.765C67.6475 142.019 66.9297 142.203 66.2985 142.315C66.2272 142.04 66.1203 141.739 65.9777 141.414C65.8352 141.088 65.6825 140.818 65.5195 140.604C66.049 140.523 66.6243 140.406 67.2454 140.253C67.8766 140.1 68.513 139.922 69.1545 139.718C69.7959 139.504 70.4068 139.275 70.9872 139.031C71.5777 138.776 72.097 138.507 72.545 138.222C72.5246 138.15 72.4992 138.079 72.4686 138.008C72.4483 137.936 72.4228 137.865 72.3923 137.794C72.0257 138.018 71.593 138.247 71.0941 138.481C70.5952 138.715 70.0708 138.939 69.521 139.153C68.9814 139.357 68.4468 139.54 67.9174 139.703C67.3981 139.866 66.9297 139.993 66.5123 140.085C66.441 139.8 66.329 139.51 66.1763 139.214C66.0337 138.909 65.881 138.664 65.7181 138.481C66.1254 138.41 66.5886 138.308 67.1079 138.176C67.6374 138.043 68.177 137.891 68.7268 137.718C69.2868 137.534 69.8214 137.341 70.3305 137.137C70.8497 136.934 71.3028 136.725 71.6897 136.511C71.649 136.46 71.6083 136.404 71.5675 136.343C71.5268 136.282 71.4861 136.226 71.4454 136.175C70.7326 136.542 69.9486 136.883 69.0934 137.198C68.2483 137.514 67.4235 137.758 66.6192 137.931C66.5479 137.687 66.4308 137.407 66.2679 137.091C66.1152 136.776 65.9574 136.516 65.7945 136.312C66.3646 136.231 66.9959 136.094 67.6883 135.9C68.3908 135.707 69.0679 135.483 69.7195 135.228H67.337V133.288C67.0825 133.512 66.8432 133.701 66.6192 133.854C66.3952 133.548 66.1508 133.278 65.8861 133.044C65.6315 132.8 65.3566 132.591 65.0614 132.418C65.6519 132.051 66.1915 131.619 66.6803 131.12C67.169 130.611 67.5915 130.102 67.9479 129.592C68.3145 129.083 68.5894 128.646 68.7726 128.279L71.1094 128.661C70.9974 128.875 70.8854 129.063 70.7734 129.226H76.1799L76.5312 129.669C76.3377 129.944 76.1239 130.229 75.8897 130.524C75.6555 130.819 75.4214 131.099 75.1872 131.364H78.5472V135.228H77.6308L78.6541 136.099C78.2265 136.424 77.7886 136.725 77.3406 137C76.9028 137.264 76.4599 137.509 76.0119 137.733C76.5923 138.283 77.2235 138.807 77.9057 139.306C78.5981 139.805 79.2395 140.202 79.8301 140.497C79.5552 140.68 79.2803 140.925 79.0054 141.23C78.7305 141.526 78.4912 141.821 78.2875 142.116C77.697 141.76 77.1065 141.317 76.5159 140.787C75.9254 140.258 75.3755 139.667 74.8665 139.016C74.8766 139.097 74.8817 139.179 74.8817 139.26C74.8919 139.331 74.897 139.408 74.897 139.489C74.897 140.558 74.6323 141.352 74.1028 141.872C73.5734 142.391 72.8555 142.651 71.9494 142.651H71.0788ZM74.1792 136.847C74.5763 136.643 74.9683 136.404 75.3552 136.129C75.7421 135.854 76.1239 135.554 76.5006 135.228H73.0185C73.4868 135.727 73.8737 136.267 74.1792 136.847ZM69.2461 131.364H72.4686C72.5399 131.283 72.6112 131.196 72.6825 131.104C72.7639 131.003 72.8403 130.901 72.9115 130.799H69.7043C69.633 130.901 69.5566 130.998 69.4752 131.089C69.4039 131.181 69.3275 131.272 69.2461 131.364ZM74.0417 133.624H76.3021V132.968H74.0417V133.624ZM69.5821 133.624H71.7355V132.968H69.5821V133.624ZM71.4148 140.635H71.7203C72.0155 140.635 72.2497 140.589 72.4228 140.497C72.5959 140.395 72.7079 140.217 72.7588 139.963C72.3719 140.197 71.9239 140.421 71.4148 140.635ZM88.2301 142.574C88.0774 142.34 87.889 142.101 87.665 141.856C87.4512 141.612 87.2425 141.403 87.0388 141.23V142.131H82.0446V138.451C81.953 138.491 81.8614 138.537 81.7697 138.588C81.6781 138.629 81.5865 138.67 81.4948 138.71C81.4235 138.568 81.3217 138.4 81.1894 138.206C81.0672 138.013 80.9348 137.824 80.7923 137.641C80.6497 137.458 80.5123 137.315 80.3799 137.214C80.8381 137.051 81.3014 136.827 81.7697 136.542C82.2483 136.256 82.6912 135.946 83.0985 135.61C83.0272 135.528 82.9508 135.442 82.8694 135.35C82.7879 135.259 82.7065 135.167 82.625 135.075C82.4926 135.198 82.3603 135.315 82.2279 135.427C82.1057 135.539 81.9785 135.64 81.8461 135.732C81.6832 135.528 81.4795 135.315 81.2352 135.091C81.001 134.867 80.7617 134.688 80.5174 134.556C80.8737 134.332 81.2352 134.037 81.6017 133.67C81.9785 133.294 82.3145 132.891 82.6097 132.464C82.9152 132.036 83.1341 131.624 83.2665 131.227L85.0381 131.822C84.9974 131.904 84.9515 131.99 84.9006 132.082C84.8599 132.174 84.8141 132.26 84.7632 132.342H86.1225V131.181H82.6403V132.403H80.9145V129.577H83.3734V128.447H85.481V129.577H87.8788V132.403H86.993L87.4817 132.846C87.2577 133.324 86.9981 133.787 86.7028 134.235C86.4177 134.673 86.1072 135.096 85.7712 135.503C86.5755 135.992 87.3901 136.363 88.2148 136.618V131.41H90.0017C90.0526 131.278 90.0985 131.14 90.1392 130.998C90.1799 130.845 90.2206 130.702 90.2614 130.57H88.0774V128.829H94.9195V130.57H92.4301C92.3894 130.702 92.3435 130.84 92.2926 130.982C92.2519 131.125 92.2061 131.267 92.1552 131.41H94.4766V139.275H93.0105C93.2345 139.499 93.489 139.734 93.7741 139.978C94.0592 140.222 94.3494 140.446 94.6446 140.65C94.9501 140.843 95.2352 141.001 95.4999 141.123C95.2759 141.286 95.0417 141.505 94.7974 141.78C94.553 142.065 94.3494 142.33 94.1865 142.574C93.6672 142.269 93.1428 141.887 92.6134 141.429C92.0941 140.981 91.6461 140.518 91.2694 140.039L92.2621 139.275H90.1392L91.1319 140.039C90.7552 140.518 90.3072 140.981 89.7879 141.429C89.2686 141.887 88.7494 142.269 88.2301 142.574ZM87.0388 141.062C87.4257 140.879 87.8381 140.614 88.2759 140.268C88.7137 139.922 89.0905 139.591 89.4061 139.275H88.2148V137.107C87.9094 137.524 87.6803 137.916 87.5275 138.283C87.4461 138.252 87.3646 138.227 87.2832 138.206C87.2017 138.176 87.1203 138.15 87.0388 138.13V141.062ZM83.8774 140.574H85.2061V139.184H83.8774V140.574ZM90.2155 137.626H92.4759V137H90.2155V137.626ZM90.2155 135.61H92.4759V135.03H90.2155V135.61ZM90.2155 133.64H92.4759V133.059H90.2155V133.64ZM83.4345 137.626H85.817C85.3486 137.392 84.9006 137.122 84.473 136.816C84.3101 136.949 84.1421 137.086 83.969 137.229C83.7959 137.361 83.6177 137.494 83.4345 137.626ZM84.3661 134.434C84.4679 134.322 84.5595 134.21 84.641 134.098C84.7225 133.986 84.7988 133.879 84.8701 133.777H83.801L83.7857 133.808C83.9486 134.022 84.1421 134.23 84.3661 134.434ZM98.0657 141.841C97.9435 141.719 97.7654 141.582 97.5312 141.429C97.297 141.276 97.0526 141.134 96.7981 141.001C96.5537 140.859 96.3399 140.762 96.1566 140.711C96.7879 140.019 97.3835 139.143 97.9435 138.084C98.5035 137.015 98.9872 135.895 99.3945 134.724C98.9057 134.785 98.4323 134.856 97.9741 134.938C97.5261 135.009 97.1443 135.091 96.8286 135.182C96.8185 135.009 96.7879 134.79 96.737 134.526C96.6963 134.251 96.6454 133.986 96.5843 133.731C96.5334 133.467 96.4774 133.263 96.4163 133.12C96.6403 133.1 96.9406 133.075 97.3174 133.044C97.6941 133.014 98.1115 132.983 98.5697 132.952C99.0381 132.912 99.5065 132.876 99.9748 132.846C100.148 132.224 100.285 131.619 100.387 131.028C100.499 130.438 100.576 129.878 100.616 129.348L102.846 129.745C102.724 130.662 102.515 131.644 102.22 132.693C102.383 132.683 102.525 132.678 102.648 132.678C102.78 132.678 102.897 132.678 102.999 132.678C103.426 132.678 103.808 132.744 104.144 132.876C104.49 133.008 104.765 133.238 104.969 133.563C105.183 133.889 105.31 134.342 105.351 134.923C105.402 135.493 105.346 136.221 105.183 137.107C105.02 138.033 104.842 138.797 104.648 139.398C104.455 139.988 104.226 140.451 103.961 140.787C103.706 141.113 103.401 141.342 103.045 141.475C102.688 141.607 102.266 141.673 101.777 141.673C101.166 141.673 100.632 141.582 100.173 141.398C100.184 141.205 100.184 140.981 100.173 140.726C100.173 140.462 100.163 140.202 100.143 139.947C100.122 139.683 100.087 139.459 100.036 139.275C100.27 139.347 100.53 139.408 100.815 139.459C101.1 139.51 101.344 139.535 101.548 139.535C101.701 139.535 101.838 139.504 101.96 139.443C102.093 139.382 102.22 139.26 102.342 139.077C102.464 138.894 102.586 138.614 102.709 138.237C102.831 137.86 102.953 137.351 103.075 136.71C103.208 136.068 103.258 135.595 103.228 135.289C103.208 134.974 103.126 134.765 102.984 134.663C102.841 134.561 102.653 134.51 102.418 134.51C102.317 134.51 102.2 134.51 102.067 134.51C101.935 134.51 101.792 134.515 101.64 134.526C101.324 135.472 100.962 136.404 100.555 137.32C100.158 138.227 99.7457 139.072 99.3181 139.856C98.8905 140.63 98.473 141.291 98.0657 141.841ZM108.94 137.962C108.787 137.687 108.568 137.356 108.283 136.969C108.008 136.572 107.698 136.175 107.352 135.778C107.016 135.371 106.69 135.004 106.374 134.678C106.058 134.342 105.794 134.093 105.58 133.93L107.26 132.54C107.474 132.723 107.744 132.978 108.069 133.304C108.395 133.63 108.731 133.981 109.077 134.358C109.424 134.734 109.744 135.106 110.04 135.472C110.345 135.839 110.584 136.16 110.757 136.435L108.94 137.962ZM117.157 142.33C117.116 142.126 117.04 141.882 116.928 141.597C116.826 141.322 116.698 141.047 116.546 140.772C116.403 140.487 116.25 140.253 116.088 140.07C117.706 140.141 118.949 139.978 119.814 139.581C120.69 139.184 121.128 138.614 121.128 137.87C121.128 137.494 120.97 137.188 120.654 136.954C120.338 136.72 119.911 136.603 119.371 136.603C118.923 136.603 118.445 136.664 117.936 136.786C117.437 136.908 116.963 137.122 116.515 137.427C116.067 137.723 115.696 138.13 115.4 138.649L113.384 137.779C113.588 137.412 113.761 136.964 113.904 136.435C114.046 135.895 114.163 135.335 114.255 134.755C114.357 134.174 114.423 133.624 114.453 133.105C114.484 132.586 114.484 132.158 114.453 131.822L116.821 132.112C116.831 132.601 116.795 133.146 116.714 133.747C116.632 134.347 116.51 134.948 116.347 135.549C116.866 135.233 117.396 134.994 117.936 134.831C118.485 134.658 118.994 134.571 119.463 134.571C120.298 134.571 121.026 134.719 121.647 135.014C122.278 135.299 122.767 135.696 123.113 136.206C123.459 136.704 123.632 137.275 123.632 137.916C123.632 138.71 123.403 139.433 122.945 140.085C122.487 140.736 121.779 141.261 120.822 141.658C119.865 142.065 118.643 142.289 117.157 142.33ZM119.677 132.51C119.32 132.235 118.882 131.955 118.363 131.67C117.854 131.384 117.33 131.135 116.79 130.921C116.261 130.707 115.792 130.565 115.385 130.494L116.515 128.554C116.79 128.625 117.121 128.737 117.508 128.89C117.895 129.032 118.297 129.2 118.714 129.394C119.132 129.577 119.524 129.766 119.89 129.959C120.257 130.152 120.562 130.331 120.807 130.494L119.677 132.51Z" fill="white"/>
<path d="M28.8828 200.616V198.463C28.4246 198.57 27.8825 198.684 27.2563 198.806C26.6301 198.928 25.981 199.043 25.309 199.15C24.6523 199.272 24.0337 199.379 23.4534 199.471C22.8883 199.578 22.4301 199.654 22.0788 199.7L21.5977 196.951C21.8115 196.951 22.0712 196.935 22.3766 196.905C22.6974 196.874 23.041 196.844 23.4075 196.813V189.94H21.6665V187.604H42.697V189.94H32.113V197.89C33.0905 197.462 34.0221 196.897 34.9079 196.195C34.5261 195.691 34.1901 195.156 33.8999 194.591C33.625 194.011 33.4112 193.415 33.2585 192.804H32.5025V190.444H40.5894L41.941 191.59C41.6203 192.43 41.2155 193.247 40.7268 194.041C40.2534 194.82 39.7188 195.568 39.1232 196.286C39.7494 196.699 40.3832 197.05 41.0246 197.34C41.6661 197.63 42.2541 197.844 42.7886 197.982C42.4068 198.348 42.0555 198.783 41.7348 199.287C41.4294 199.791 41.1926 200.234 41.0246 200.616C40.4137 200.433 39.7646 200.15 39.0774 199.768C38.3901 199.387 37.7105 198.921 37.0385 198.371C35.9694 199.272 34.8468 200.02 33.6708 200.616C33.4875 200.311 33.2508 199.975 32.9606 199.608C32.6705 199.242 32.3879 198.913 32.113 198.623V200.616H28.8828ZM24.7134 186.939V179.883H39.673V186.939H24.7134ZM27.8748 184.992H36.5115V184.305H27.8748V184.992ZM27.8748 182.472H36.5115V181.854H27.8748V182.472ZM26.6377 196.401C27.493 196.279 28.2414 196.172 28.8828 196.08V195.301H26.6377V196.401ZM26.6377 193.423H28.8828V192.621H26.6377V193.423ZM26.6377 190.742H28.8828V189.94H26.6377V190.742ZM36.9468 194.27C37.3592 193.797 37.7181 193.308 38.0235 192.804H36.1221C36.3206 193.308 36.5955 193.797 36.9468 194.27ZM23.293 225.776C23.1403 225.44 22.9417 225.074 22.6974 224.677C22.453 224.295 22.1934 223.928 21.9185 223.577C21.6435 223.211 21.3839 222.92 21.1395 222.707C23.6748 221.806 25.7214 220.538 27.2792 218.904C28.8523 217.27 29.8297 215.414 30.2115 213.337H21.9185V210.084H30.3948V204.723H33.9686V210.084H42.445V213.337H34.1519C34.4268 214.696 34.9766 215.979 35.8014 217.186C36.6261 218.392 37.6646 219.461 38.917 220.393C40.1846 221.324 41.6126 222.073 43.201 222.638C42.9414 222.898 42.6665 223.211 42.3763 223.577C42.0861 223.944 41.8188 224.318 41.5745 224.7C41.3301 225.097 41.1392 225.456 41.0017 225.776C39.8105 225.242 38.6421 224.57 37.4966 223.76C36.3512 222.951 35.3126 222.027 34.381 220.988C33.4646 219.935 32.7239 218.797 32.1588 217.575C31.5937 218.797 30.8377 219.927 29.8908 220.966C28.9439 222.004 27.8977 222.928 26.7523 223.738C25.6068 224.547 24.4537 225.227 23.293 225.776Z" fill="#EEFE35"/>
<path d="M54.9824 225.852V216.408L82.2605 182.274C83.3152 180.9 84.0343 179.622 84.4178 178.439C84.6735 177.32 84.8013 176.266 84.8013 175.275C84.8013 172.654 83.9863 170.369 82.3564 168.42C80.6625 166.47 78.2654 165.463 75.1653 165.399C72.4167 165.399 70.1316 166.278 68.3098 168.036C66.4242 169.794 65.3056 172.271 64.954 175.467H54.9824C55.2381 169.65 57.1877 164.84 60.8311 161.037C64.5066 157.329 69.0289 155.444 74.3983 155.38C80.4068 155.444 85.2807 157.361 89.0201 161.133C92.8233 164.872 94.7569 169.618 94.8208 175.371C94.8208 179.973 93.4146 184.064 90.6021 187.644L68.1181 215.833H94.8208V225.852H54.9824ZM132.358 205.717V176.09C132.166 169.091 128.89 165.527 122.53 165.399C116.138 165.527 112.878 169.091 112.751 176.09V205.717C112.878 212.78 116.138 216.344 122.53 216.408C128.89 216.344 132.166 212.78 132.358 205.717ZM102.731 206.292V175.467C102.795 169.011 104.856 164.041 108.915 160.557C112.719 157.106 117.257 155.38 122.53 155.38C127.964 155.38 132.582 157.106 136.385 160.557C140.252 164.041 142.25 169.011 142.378 175.467V206.292C142.25 212.716 140.252 217.67 136.385 221.154C132.582 224.606 127.964 226.363 122.53 226.427C117.257 226.363 112.719 224.606 108.915 221.154C104.856 217.67 102.795 212.716 102.731 206.292Z" fill="#EEFE35"/>
<path d="M157.451 215.971C156.351 215.971 155.466 215.59 154.794 214.826C154.122 214.062 153.786 213.031 153.786 211.733C153.786 210.45 154.122 209.435 154.794 208.686C155.466 207.923 156.351 207.541 157.451 207.541C158.535 207.541 159.414 207.923 160.086 208.686C160.773 209.435 161.117 210.45 161.117 211.733C161.117 213.031 160.773 214.062 160.086 214.826C159.414 215.59 158.535 215.971 157.451 215.971ZM166.019 224.104C164.935 224.104 164.049 223.73 163.362 222.982C162.69 222.233 162.354 221.21 162.354 219.912C162.354 218.614 162.69 217.59 163.362 216.842C164.049 216.078 164.935 215.696 166.019 215.696C167.119 215.696 168.005 216.078 168.677 216.842C169.349 217.59 169.685 218.614 169.685 219.912C169.685 221.21 169.349 222.233 168.677 222.982C168.005 223.73 167.119 224.104 166.019 224.104ZM156.558 224.379L155.275 223.463L166.958 207.243L168.218 208.159L156.558 224.379ZM166.019 222.019C167.073 222.019 167.6 221.317 167.6 219.912C167.6 218.507 167.073 217.804 166.019 217.804C164.965 217.804 164.438 218.507 164.438 219.912C164.438 221.317 164.965 222.019 166.019 222.019ZM157.451 213.864C158.49 213.864 159.009 213.154 159.009 211.733C159.009 210.343 158.49 209.648 157.451 209.648C156.397 209.648 155.87 210.343 155.87 211.733C155.87 213.154 156.397 213.864 157.451 213.864Z" fill="#EEFE35"/>
<path d="M181.51 225.547V218.239C181.449 218.759 181.342 219.347 181.189 220.003C181.036 220.645 180.868 221.263 180.685 221.859C180.502 222.455 180.319 222.943 180.135 223.325C179.769 223.157 179.349 223.02 178.875 222.913C178.402 222.791 177.982 222.699 177.615 222.638C177.829 222.241 178.035 221.737 178.234 221.126C178.432 220.515 178.608 219.889 178.761 219.247C178.929 218.591 179.043 217.995 179.104 217.46L181.51 217.919V216.384C180.945 216.445 180.403 216.514 179.883 216.59C179.379 216.651 178.929 216.697 178.532 216.727L178.165 213.864C178.639 213.864 179.158 213.841 179.723 213.795C179.952 213.52 180.196 213.207 180.456 212.856C180.731 212.504 180.998 212.13 181.258 211.733C180.754 211.382 180.189 211.015 179.563 210.634C178.952 210.252 178.371 209.923 177.822 209.648L179.219 207.289C179.341 207.35 179.463 207.419 179.586 207.495C179.723 207.556 179.86 207.625 179.998 207.701C180.181 207.35 180.372 206.976 180.571 206.579C180.784 206.166 180.983 205.769 181.166 205.387C181.35 204.99 181.487 204.654 181.579 204.379L184.259 205.364C183.954 205.96 183.61 206.586 183.228 207.243C182.862 207.9 182.51 208.495 182.174 209.03C182.281 209.091 182.38 209.16 182.472 209.236C182.579 209.297 182.678 209.358 182.77 209.419C183.121 208.839 183.442 208.297 183.732 207.793C184.022 207.274 184.251 206.846 184.419 206.51L187.008 207.701C186.733 208.205 186.382 208.793 185.954 209.465C185.527 210.137 185.068 210.832 184.58 211.55C184.106 212.252 183.64 212.924 183.182 213.566C183.396 213.535 183.61 213.512 183.824 213.497C184.053 213.482 184.267 213.467 184.465 213.451C184.404 213.253 184.335 213.077 184.259 212.924C184.183 212.756 184.106 212.596 184.03 212.443L186.412 211.367C186.458 211.443 186.504 211.527 186.55 211.619C186.596 211.71 186.649 211.81 186.71 211.916C187.443 211.382 188.146 210.695 188.818 209.855C189.49 208.999 190.07 208.106 190.559 207.174C191.063 206.227 191.43 205.349 191.659 204.54L194.454 204.883C194.622 205.479 194.919 206.136 195.347 206.854C195.79 207.556 196.302 208.259 196.882 208.961C197.462 209.648 198.05 210.259 198.646 210.794C199.242 211.328 199.784 211.726 200.272 211.985C199.768 212.321 199.31 212.718 198.898 213.176C198.501 213.619 198.195 214.032 197.982 214.414C197.798 214.291 197.615 214.154 197.432 214.001C197.248 213.833 197.065 213.665 196.882 213.497V214.918H189.551V213.383C189.23 213.749 188.925 214.055 188.635 214.299C188.436 214.039 188.199 213.772 187.924 213.497C187.665 213.222 187.382 212.963 187.077 212.718C187.321 213.253 187.543 213.795 187.741 214.345C187.94 214.895 188.092 215.36 188.199 215.742C187.802 215.88 187.359 216.048 186.871 216.246C186.397 216.43 185.97 216.628 185.588 216.842C185.557 216.689 185.519 216.529 185.473 216.361C185.427 216.178 185.374 215.987 185.313 215.788C185.175 215.803 185.03 215.826 184.878 215.857C184.74 215.887 184.587 215.918 184.419 215.948V217.575L186.802 217.002C186.848 217.247 186.924 217.583 187.031 218.01C187.153 218.438 187.283 218.888 187.42 219.362C187.558 219.835 187.688 220.286 187.81 220.714C187.932 221.126 188.039 221.447 188.131 221.676C187.734 221.783 187.298 221.928 186.825 222.111C186.351 222.279 185.931 222.47 185.565 222.684C185.488 222.409 185.374 222.004 185.221 221.47C185.084 220.92 184.939 220.339 184.786 219.728C184.648 219.102 184.526 218.552 184.419 218.079V225.547H181.51ZM188.635 225.02V216.475H198.119V225.02H188.635ZM191.911 222.294H194.82V219.224H191.911V222.294ZM190.582 212.191H195.599C195.08 211.611 194.599 211.008 194.156 210.382C193.713 209.74 193.339 209.114 193.033 208.503C192.804 208.992 192.468 209.572 192.025 210.244C191.582 210.916 191.101 211.565 190.582 212.191ZM213.995 225.502C213.98 225.196 213.926 224.822 213.835 224.379C213.758 223.951 213.667 223.524 213.56 223.096C213.453 222.668 213.338 222.332 213.216 222.088H215.186C215.492 222.088 215.713 222.042 215.851 221.951C216.003 221.844 216.08 221.638 216.08 221.332V212.764H208.382V209.603H216.08V204.723H219.539V209.603H222.242V212.764H219.539V222.844C219.539 223.776 219.264 224.448 218.714 224.86C218.164 225.288 217.34 225.502 216.24 225.502H213.995ZM204.304 225.524V214.666C203.785 215.276 203.258 215.826 202.724 216.315C202.449 215.964 202.075 215.605 201.601 215.238C201.143 214.856 200.7 214.543 200.272 214.299C200.746 213.887 201.235 213.375 201.739 212.764C202.258 212.138 202.762 211.458 203.251 210.725C203.755 209.992 204.22 209.244 204.648 208.48C205.076 207.716 205.442 206.983 205.748 206.281C206.053 205.578 206.267 204.952 206.389 204.402L209.459 205.456C209.016 206.892 208.413 208.312 207.649 209.717V225.524H204.304ZM212.254 220.347C212.055 219.889 211.765 219.362 211.383 218.766C211.002 218.171 210.597 217.598 210.169 217.048C209.742 216.483 209.367 216.048 209.047 215.742L211.842 213.932C212.254 214.299 212.674 214.742 213.102 215.261C213.529 215.78 213.926 216.315 214.293 216.865C214.675 217.415 214.98 217.934 215.209 218.423C214.934 218.545 214.606 218.72 214.224 218.95C213.842 219.179 213.468 219.423 213.102 219.683C212.75 219.927 212.468 220.148 212.254 220.347Z" fill="#EEFE35"/>
</svg>
