<svg width="80" height="81" viewBox="0 0 80 81" fill="none" xmlns="http://www.w3.org/2000/svg">
<g clip-path="url(#clip0_15_4242)">
<path d="M2.54492 52.0194V56.3032C2.54492 56.8215 2.96508 57.2418 3.48352 57.2418H58.624C58.624 57.2418 65.9126 50.8143 65.9126 43.6632C65.9126 36.5121 61.268 31.5511 61.268 31.5511H55.7229L57.1076 36.9051C58.6007 42.6782 54.2421 48.3074 48.2791 48.3074H42.6063C39.6926 48.3074 37.3343 45.9379 37.348 43.0241L37.3596 40.5765C37.3596 38.2026 35.4374 36.2783 33.0663 36.2783H18.2762C9.58805 36.2783 2.54492 43.3258 2.54492 52.0194Z" fill="#FFD15B"/>
<path d="M32.6722 40.5766L32.6606 43.0243C32.6467 45.938 35.005 48.3075 37.9189 48.3075H42.6064C39.6927 48.3075 37.3344 45.938 37.3481 43.0243L37.3597 40.5766C37.3597 38.2027 35.4375 36.2783 33.0664 36.2783H28.3789C30.75 36.2783 32.6722 38.2027 32.6722 40.5766Z" fill="#FDB441"/>
<path d="M61.2671 31.5511H57.5696C57.5696 31.5511 61.2241 36.5121 61.2241 43.6632C61.2241 50.8143 53.9355 57.2418 53.9355 57.2418H58.623C58.623 57.2418 65.9116 50.8143 65.9116 43.6632C65.9116 36.5121 61.2671 31.5511 61.2671 31.5511Z" fill="#FDB441"/>
<path d="M17.4668 67.9473C22.7308 67.9473 26.998 63.68 26.998 58.416C26.998 53.1521 22.7308 48.8848 17.4668 48.8848C12.2028 48.8848 7.93555 53.1521 7.93555 58.416C7.93555 63.68 12.2028 67.9473 17.4668 67.9473Z" fill="#7A6D79"/>
<path d="M66.4258 67.9473C71.6897 67.9473 75.957 63.68 75.957 58.416C75.957 53.1521 71.6897 48.8848 66.4258 48.8848C61.1618 48.8848 56.8945 53.1521 56.8945 58.416C56.8945 63.68 61.1618 67.9473 66.4258 67.9473Z" fill="#7A6D79"/>
<path d="M17.4673 61.6803C19.2701 61.6803 20.7316 60.2189 20.7316 58.4161C20.7316 56.6133 19.2701 55.1519 17.4673 55.1519C15.6646 55.1519 14.2031 56.6133 14.2031 58.4161C14.2031 60.2189 15.6646 61.6803 17.4673 61.6803Z" fill="#9FACBA"/>
<path d="M66.4263 61.6803C68.2291 61.6803 69.6905 60.2189 69.6905 58.4161C69.6905 56.6133 68.2291 55.1519 66.4263 55.1519C64.6235 55.1519 63.1621 56.6133 63.1621 58.4161C63.1621 60.2189 64.6235 61.6803 66.4263 61.6803Z" fill="#9FACBA"/>
<path d="M5.63244 57.2418H29.2996C29.6223 57.2418 29.8821 56.9723 29.8671 56.6498C29.5582 50.0633 24.1242 44.8179 17.466 44.8179C10.8081 44.8179 5.37385 50.0633 5.0651 56.6498C5.04978 56.9723 5.30978 57.2418 5.63244 57.2418Z" fill="#BD80E1"/>
<path d="M17.4668 44.8179C16.6654 44.8179 15.8823 44.8957 15.123 45.0408C20.6707 46.1019 24.9087 50.8562 25.1804 56.6498C25.1955 56.9723 24.9355 57.2419 24.6129 57.2419H29.3004C29.623 57.2419 29.883 56.9724 29.8679 56.6498C29.559 50.0632 24.1248 44.8179 17.4668 44.8179Z" fill="#AF66DA"/>
<path d="M13.2478 36.3021H35.4113C36.7066 36.3021 37.7567 35.252 37.7567 33.9567C37.7567 32.6614 36.7066 31.6112 35.4113 31.6112H13.2478C11.9525 31.6112 10.9023 32.6614 10.9023 33.9567C10.9023 35.252 11.9525 36.3021 13.2478 36.3021Z" fill="#918291"/>
<path d="M35.4121 31.6112H30.7246C32.0199 31.6112 33.0701 32.6614 33.0701 33.9567C33.0701 35.2521 32.0199 36.3021 30.7246 36.3021H35.4121C36.7074 36.3021 37.7576 35.2521 37.7576 33.9567C37.7576 32.6614 36.7074 31.6112 35.4121 31.6112Z" fill="#7A6D79"/>
<path d="M55.541 31.5512H67.219C68.0285 31.5512 68.6848 30.895 68.6848 30.0854V26.5429C68.6848 25.7334 68.0285 25.0771 67.219 25.0771H60.9295C57.9535 25.0771 55.541 27.4896 55.541 30.4656V31.5512Z" fill="#BD80E1"/>
<path d="M64.4689 31.5512H67.2195C68.0289 31.5512 68.685 30.8951 68.685 30.0857V26.5432C68.685 25.7336 68.0286 25.0771 67.2189 25.0771H64.4688V31.5512H64.4689Z" fill="#FFD15B"/>
<path d="M52.9688 19.8223C54.6946 19.8223 56.0938 18.4232 56.0938 16.6973C56.0938 14.9714 54.6946 13.5723 52.9688 13.5723C51.2429 13.5723 49.8438 14.9714 49.8438 16.6973C49.8438 18.4232 51.2429 19.8223 52.9688 19.8223Z" fill="#BD80E1"/>
<path d="M21.3248 31.6084H3.83141C2.36266 31.6084 1.17188 30.4176 1.17188 28.9489V20.6709H23.9844V28.9489C23.9844 30.4176 22.7936 31.6084 21.3248 31.6084Z" fill="#EB5569"/>
<path d="M19.2963 20.6709V28.9489C19.2963 30.4176 18.1055 31.6084 16.6367 31.6084H21.3242C22.793 31.6084 23.9838 30.4176 23.9838 28.9489V20.6709H19.2963Z" fill="#E53950"/>
<path d="M23.9844 20.6709H1.17188V18.0179C1.17188 16.5492 2.36266 15.3584 3.83141 15.3584H21.3248C22.7936 15.3584 23.9844 16.5492 23.9844 18.0179V20.6709Z" fill="#F9F3F1"/>
<path d="M21.3242 15.3584H16.6367C18.1055 15.3584 19.2963 16.5492 19.2963 18.0179V20.6709H23.9838V18.0179C23.9838 16.549 22.793 15.3584 21.3242 15.3584Z" fill="#EFE2DD"/>
<path d="M54.6051 57.2418H78.2605C78.583 57.2418 78.8429 56.9723 78.8277 56.6498C78.519 50.0633 73.0876 44.8179 66.4327 44.8179C59.778 44.8179 54.3465 50.0633 54.0377 56.6498C54.0227 56.9723 54.2826 57.2418 54.6051 57.2418Z" fill="#BD80E1"/>
<path d="M66.4316 44.8179C65.6302 44.8179 64.8471 44.8957 64.0879 45.041C69.6323 46.1026 73.8676 50.8565 74.1391 56.6496C74.1543 56.9721 73.8945 57.2418 73.572 57.2418H78.2595C78.582 57.2418 78.8418 56.9723 78.8266 56.6496C78.5181 50.0632 73.0865 44.8179 66.4316 44.8179Z" fill="#AF66DA"/>
<path d="M59.4883 57.2379H73.3753C73.3753 53.4404 70.267 50.3629 66.4317 50.3629C62.5966 50.3629 59.4883 53.4406 59.4883 57.2379Z" fill="#FFD15B"/>
<path d="M10.5918 57.2379H24.3418C24.3418 53.4404 21.2641 50.3629 17.4668 50.3629C13.6695 50.3629 10.5918 53.4406 10.5918 57.2379Z" fill="#FFD15B"/>
<path d="M7.98633 57.4265C7.95273 57.7518 7.93555 58.0818 7.93555 58.416C7.93555 63.68 12.2029 67.9473 17.4668 67.9473C22.7307 67.9473 26.998 63.68 26.998 58.416C26.998 58.1353 26.9859 57.8573 26.9621 57.5826" stroke="black" stroke-width="4.21875" stroke-miterlimit="10" stroke-linecap="round" stroke-linejoin="round"/>
<path d="M56.9305 57.583C56.9067 57.8575 56.8945 58.1354 56.8945 58.416C56.8945 63.6799 61.1619 67.9472 66.4258 67.9472C71.6897 67.9472 75.957 63.6799 75.957 58.416C75.957 58.1538 75.9464 57.8941 75.9256 57.6372" stroke="black" stroke-width="4.21875" stroke-miterlimit="10" stroke-linecap="round" stroke-linejoin="round"/>
<path d="M14.3192 57.55C14.2434 57.8257 14.2031 58.1162 14.2031 58.4161C14.2031 60.2189 15.6645 61.6803 17.4673 61.6803C19.2702 61.6803 20.7314 60.2189 20.7314 58.4161C20.7314 58.1123 20.6898 57.8182 20.6123 57.5392" stroke="black" stroke-width="4.21875" stroke-miterlimit="10" stroke-linecap="round" stroke-linejoin="round"/>
<path d="M63.2974 57.4832C63.2095 57.7788 63.1621 58.0919 63.1621 58.416C63.1621 60.2188 64.6235 61.6802 66.4263 61.6802C68.2291 61.6802 69.6905 60.2188 69.6905 58.416C69.6905 58.0791 69.6395 57.7541 69.5448 57.4485" stroke="black" stroke-width="4.21875" stroke-miterlimit="10" stroke-linecap="round" stroke-linejoin="round"/>
<path d="M5.63244 57.2418H29.2996C29.6223 57.2418 29.8821 56.9723 29.8671 56.6498C29.5582 50.0633 24.1242 44.8179 17.466 44.8179C10.8081 44.8179 5.37385 50.0633 5.0651 56.6498C5.04978 56.9723 5.30978 57.2418 5.63244 57.2418Z" stroke="black" stroke-width="4.21875" stroke-miterlimit="10" stroke-linecap="round" stroke-linejoin="round"/>
<path d="M45.6953 57.2418H58.6239" stroke="black" stroke-width="4.21875" stroke-miterlimit="10" stroke-linecap="round" stroke-linejoin="round"/>
<path d="M65.8874 44.3965C65.904 44.153 65.9126 43.9085 65.9126 43.6632C65.9126 36.5121 61.268 31.5511 61.268 31.5511H55.723L57.1077 36.9051C58.6009 42.6782 54.2423 48.3074 48.2793 48.3074H42.6065C39.6927 48.3074 37.3345 45.9379 37.3482 43.0241L37.3598 40.5765C37.3598 38.2026 35.4376 36.2783 33.0665 36.2783H18.2763C9.5882 36.2783 2.54492 43.3258 2.54492 52.0194V56.3032C2.54492 56.8215 2.96508 57.2418 3.48352 57.2418H40.4193" stroke="black" stroke-width="4.21875" stroke-miterlimit="10" stroke-linecap="round" stroke-linejoin="round"/>
<path d="M13.2478 36.3021H35.4113C36.7066 36.3021 37.7567 35.252 37.7567 33.9567C37.7567 32.6614 36.7066 31.6112 35.4113 31.6112H13.2478C11.9525 31.6112 10.9023 32.6614 10.9023 33.9567C10.9023 35.252 11.9525 36.3021 13.2478 36.3021Z" stroke="black" stroke-width="4.21875" stroke-miterlimit="10" stroke-linecap="round" stroke-linejoin="round"/>
<path d="M55.541 31.5512H67.219C68.0285 31.5512 68.6848 30.895 68.6848 30.0854V26.5429C68.6848 25.7334 68.0285 25.0771 67.219 25.0771H60.9295C57.9535 25.0771 55.541 27.4896 55.541 30.4656V31.5512Z" stroke="black" stroke-width="4.21875" stroke-miterlimit="10" stroke-linecap="round" stroke-linejoin="round"/>
<path d="M64.4689 31.5512H67.2195C68.0289 31.5512 68.685 30.8951 68.685 30.0857V26.5432C68.685 25.7336 68.0286 25.0771 67.2189 25.0771H64.4688V31.5512H64.4689Z" stroke="black" stroke-width="4.21875" stroke-miterlimit="10" stroke-linecap="round" stroke-linejoin="round"/>
<path d="M61.2052 31.5511H51.5898" stroke="black" stroke-width="4.21875" stroke-miterlimit="10" stroke-linecap="round" stroke-linejoin="round"/>
<path d="M60.0559 25.0771L59.5517 21.0395C59.4422 20.162 58.9431 19.3807 58.1931 18.9121L56.3984 17.791" stroke="black" stroke-width="4.21875" stroke-miterlimit="10" stroke-linecap="round" stroke-linejoin="round"/>
<path d="M52.9688 19.8223C54.6946 19.8223 56.0938 18.4232 56.0938 16.6973C56.0938 14.9714 54.6946 13.5723 52.9688 13.5723C51.2429 13.5723 49.8438 14.9714 49.8438 16.6973C49.8438 18.4232 51.2429 19.8223 52.9688 19.8223Z" stroke="black" stroke-width="4.21875" stroke-miterlimit="10" stroke-linecap="round" stroke-linejoin="round"/>
<path d="M21.3248 31.6084H3.83141C2.36266 31.6084 1.17188 30.4176 1.17188 28.9489V20.6709H23.9844V28.9489C23.9844 30.4176 22.7936 31.6084 21.3248 31.6084Z" stroke="black" stroke-width="4.21875" stroke-miterlimit="10" stroke-linecap="round" stroke-linejoin="round"/>
<path d="M12.9167 15.3584H21.3248C22.7936 15.3584 23.9844 16.5492 23.9844 18.0179V20.6709H1.17188V18.0179C1.17188 16.5492 2.36266 15.3584 3.83141 15.3584H7.29172" stroke="black" stroke-width="4.21875" stroke-miterlimit="10" stroke-linecap="round" stroke-linejoin="round"/>
<path d="M29.8696 42.0528H25.7154C23.6918 42.0528 21.832 40.9409 20.874 39.1584L13.6855 25.7826" stroke="black" stroke-width="4.21875" stroke-miterlimit="10" stroke-linecap="round" stroke-linejoin="round"/>
<path d="M54.6051 57.2418H78.2605C78.583 57.2418 78.8429 56.9723 78.8277 56.6498C78.519 50.0633 73.0876 44.8179 66.4327 44.8179C59.778 44.8179 54.3465 50.0633 54.0377 56.6498C54.0227 56.9723 54.2826 57.2418 54.6051 57.2418Z" stroke="black" stroke-width="4.21875" stroke-miterlimit="10" stroke-linecap="round" stroke-linejoin="round"/>
<path d="M59.4883 57.2379H73.3753C73.3753 53.4404 70.267 50.3629 66.4317 50.3629C62.5966 50.3629 59.4883 53.4406 59.4883 57.2379Z" stroke="black" stroke-width="4.21875" stroke-miterlimit="10" stroke-linecap="round" stroke-linejoin="round"/>
<path d="M10.5918 57.2379H24.3418C24.3418 53.4404 21.2641 50.3629 17.4668 50.3629C13.6695 50.3629 10.5918 53.4406 10.5918 57.2379Z" stroke="black" stroke-width="4.21875" stroke-miterlimit="10" stroke-linecap="round" stroke-linejoin="round"/>
</g>
<defs>
<clipPath id="clip0_15_4242">
<rect width="80" height="80" fill="white" transform="translate(0 0.759766)"/>
</clipPath>
</defs>
</svg>
