<svg width="80" height="27" viewBox="0 0 80 27" fill="none" xmlns="http://www.w3.org/2000/svg">
<path d="M19.3746 6.65234H15.0413H14.163C13.7472 6.65234 13.4102 6.98943 13.4102 7.40523V17.4432C13.4102 17.8591 13.7472 18.1962 14.163 18.1962H15.0413H17.1752C17.1736 18.1607 17.1725 18.1252 17.1725 18.0893C17.1725 16.8419 18.1837 15.8308 19.4311 15.8308C20.6784 15.8308 21.6895 16.8419 21.6895 18.0893C21.6895 18.1252 21.6884 18.1607 21.6868 18.1962H30.859C30.8573 18.1607 30.8562 18.1252 30.8562 18.0893C30.8562 16.8419 31.8673 15.8308 33.1146 15.8308C34.362 15.8308 35.3732 16.8419 35.3732 18.0893C35.3732 18.1252 35.372 18.1607 35.3705 18.1962H36.9578H37.8362C38.252 18.1962 38.589 17.8591 38.589 17.4432V9.29342C38.5884 7.83458 37.4057 6.65234 35.9468 6.65234H32.8641H20.7431" fill="#FF5357"/>
<path d="M14.8919 17.4432V7.40523C14.8919 6.98938 15.229 6.65234 15.6447 6.65234H15.4466H14.5683C14.1525 6.65234 13.8154 6.98943 13.8154 7.40523V17.4432C13.8154 17.8591 14.1525 18.1962 14.5683 18.1962H15.4466H15.6447C15.229 18.1961 14.8919 17.8591 14.8919 17.4432Z" fill="#ED3A47"/>
<path d="M33.1149 20.3479C34.3622 20.3479 35.3733 19.3368 35.3733 18.0895C35.3733 16.8422 34.3622 15.8311 33.1149 15.8311C31.8676 15.8311 30.8564 16.8422 30.8564 18.0895C30.8564 19.3368 31.8676 20.3479 33.1149 20.3479Z" fill="#5B5E5E"/>
<path d="M19.4313 20.3479C20.6786 20.3479 21.6897 19.3368 21.6897 18.0895C21.6897 16.8422 20.6786 15.8311 19.4313 15.8311C18.184 15.8311 17.1729 16.8422 17.1729 18.0895C17.1729 19.3368 18.184 20.3479 19.4313 20.3479Z" fill="#5B5E5E"/>
<path d="M33.1156 18.8649C33.544 18.8649 33.8913 18.5176 33.8913 18.0892C33.8913 17.6608 33.544 17.3135 33.1156 17.3135C32.6872 17.3135 32.3398 17.6608 32.3398 18.0892C32.3398 18.5176 32.6872 18.8649 33.1156 18.8649Z" fill="#E6E9ED"/>
<path d="M19.432 18.8649C19.8604 18.8649 20.2077 18.5176 20.2077 18.0892C20.2077 17.6608 19.8604 17.3135 19.432 17.3135C19.0036 17.3135 18.6562 17.6608 18.6562 18.0892C18.6562 18.5176 19.0036 18.8649 19.432 18.8649Z" fill="#E6E9ED"/>
<path d="M29.4085 8.53516H23.1768V18.1967H29.4085V8.53516Z" fill="#97D3EE"/>
<path d="M26.2928 8.53516H23.1768V18.1967H26.2928V8.53516Z" fill="#52B2CC"/>
<path d="M29.4085 13.7939H23.1768V18.0891H29.4085V13.7939Z" fill="#EF4556"/>
<path d="M26.2928 13.7939H23.1768V18.0891H26.2928V13.7939Z" fill="#E23740"/>
<path d="M35.6321 13.7943H38.5897V9.10547H33.1152V13.7943H34.2637" fill="#97D3EE"/>
<path d="M33.1144 9.10547H29.4082V13.7942H33.1144V9.10547Z" fill="#52B2CC"/>
<path d="M23.1379 9.10547H19.4316V13.7942H23.1379V9.10547Z" fill="#97D3EE"/>
<path d="M19.4324 9.10547H15.7256V13.7942H19.4324V9.10547Z" fill="#52B2CC"/>
<path d="M13.4102 16.6284V15.1035H14.2056C14.6267 15.1035 14.9681 15.4449 14.9681 15.866C14.9681 16.2871 14.6268 16.6285 14.2056 16.6285H13.4102V16.6284Z" fill="#F98B38"/>
<path d="M38.5897 16.6284V15.1035H37.4178C36.9967 15.1035 36.6553 15.4449 36.6553 15.866C36.6553 16.2871 36.9966 16.6285 37.4178 16.6285H38.5897V16.6284Z" fill="#97D3EE"/>
<path d="M18.6078 18.0895C18.6078 17.0277 19.3407 16.1375 20.328 15.8961C20.1554 15.8539 19.9753 15.8311 19.7898 15.8311C18.5424 15.8311 17.5312 16.8422 17.5312 18.0896C17.5312 19.3368 18.5424 20.3481 19.7898 20.3481C19.9753 20.3481 20.1554 20.3252 20.328 20.283C19.3407 20.0415 18.6078 19.1513 18.6078 18.0895Z" fill="#424444"/>
<path d="M32.3382 18.0895C32.3382 17.0277 33.0711 16.1375 34.0584 15.8961C33.8859 15.8539 33.7058 15.8311 33.5202 15.8311C32.2729 15.8311 31.2617 16.8422 31.2617 18.0896C31.2617 19.3368 32.2729 20.3481 33.5202 20.3481C33.7058 20.3481 33.8859 20.3252 34.0584 20.283C33.0711 20.0415 32.3382 19.1513 32.3382 18.0895Z" fill="#424444"/>
<path d="M37.8343 15.8308C37.8343 15.4098 38.1757 15.0684 38.5969 15.0684H37.5203C37.0993 15.0684 36.7578 15.4097 36.7578 15.8308C36.7578 16.2519 37.0992 16.5933 37.5203 16.5933H38.5969C38.1758 16.5933 37.8343 16.252 37.8343 15.8308Z" fill="#6CC6E4"/>
<path d="M38.9853 8.99813C38.8355 7.45372 37.53 6.24219 35.9472 6.24219H20.7435C20.5167 6.24219 20.333 6.42602 20.333 6.6527C20.333 6.87939 20.5167 7.06322 20.7435 7.06322H35.9472C36.9698 7.06322 37.8336 7.75511 38.0963 8.69502H33.1151H33.115H29.8193V8.53486C29.8193 8.30812 29.6356 8.12434 29.4088 8.12434H23.1767C22.95 8.12434 22.7662 8.30817 22.7662 8.53486V8.69502H19.4314H15.7249C15.4981 8.69502 15.3144 8.87885 15.3144 9.10553V13.7944C15.3144 14.0211 15.4981 14.2049 15.7249 14.2049H19.4314H22.7662V17.786H22.0833C22.081 17.7658 22.0777 17.7458 22.0749 17.7257C22.0726 17.7083 22.0705 17.6907 22.0678 17.6734C22.0635 17.6462 22.0584 17.6193 22.0533 17.5924C22.0504 17.5772 22.0479 17.5617 22.0447 17.5466C22.0379 17.5135 22.0301 17.4808 22.022 17.4482C22.0198 17.4395 22.0181 17.4306 22.0158 17.4219C22.0052 17.3809 21.9935 17.3402 21.9811 17.2999C21.9772 17.2874 21.9727 17.2752 21.9687 17.2628C21.9596 17.2351 21.9505 17.2074 21.9406 17.18C21.9349 17.1643 21.9286 17.1489 21.9226 17.1333C21.9135 17.1097 21.9044 17.0861 21.8947 17.0628C21.8878 17.0462 21.8802 17.0298 21.8729 17.0133C21.8633 16.9915 21.8537 16.9698 21.8435 16.9483C21.8355 16.9315 21.8271 16.915 21.8188 16.8984C21.8083 16.8777 21.7979 16.857 21.7871 16.8366C21.7781 16.82 21.7689 16.8035 21.7597 16.7871C21.7486 16.7673 21.7373 16.7475 21.7257 16.728C21.716 16.7116 21.706 16.6955 21.6959 16.6793C21.684 16.6602 21.6718 16.6413 21.6594 16.6225C21.6489 16.6066 21.6383 16.5908 21.6275 16.5752C21.6146 16.5567 21.6015 16.5383 21.5882 16.5201C21.577 16.5049 21.5658 16.4897 21.5544 16.4746C21.5406 16.4566 21.5266 16.4388 21.5124 16.4212C21.5007 16.4066 21.489 16.3919 21.4768 16.3776C21.4622 16.3601 21.4471 16.3429 21.432 16.3258C21.4198 16.3119 21.4076 16.298 21.3951 16.2844C21.3792 16.267 21.3629 16.2502 21.3465 16.2334C21.3342 16.2206 21.322 16.2077 21.3093 16.1952C21.2917 16.1778 21.2736 16.1609 21.2556 16.144C21.2436 16.1326 21.2317 16.121 21.2195 16.1099C21.1986 16.091 21.1771 16.0728 21.1556 16.0545C21.1456 16.046 21.1359 16.0373 21.1258 16.029C21.0941 16.0028 21.0617 15.9774 21.0288 15.9527C21.021 15.9469 21.0129 15.9414 21.0051 15.9358C20.9795 15.917 20.9539 15.8984 20.9276 15.8807C20.9148 15.872 20.9016 15.8637 20.8885 15.8553C20.8669 15.8411 20.8452 15.8269 20.8231 15.8133C20.8084 15.8042 20.7933 15.7957 20.7784 15.787C20.7574 15.7747 20.7365 15.7624 20.7152 15.7507C20.6994 15.742 20.6833 15.7337 20.6673 15.7253C20.6464 15.7143 20.6255 15.7034 20.6043 15.693C20.5877 15.6848 20.5709 15.677 20.5541 15.6692C20.5329 15.6594 20.5118 15.6496 20.4903 15.6403C20.4731 15.6328 20.4558 15.6257 20.4384 15.6186C20.4168 15.6098 20.3953 15.6012 20.3734 15.5929C20.3557 15.5862 20.338 15.5798 20.3202 15.5735C20.2982 15.5657 20.276 15.5582 20.2538 15.551C20.2358 15.5451 20.2177 15.5395 20.1995 15.5339C20.177 15.5271 20.1542 15.5207 20.1315 15.5145C20.1132 15.5095 20.095 15.5046 20.0766 15.5C20.0533 15.4943 20.0298 15.489 20.0064 15.4838C19.9881 15.4798 19.9699 15.4756 19.9514 15.472C19.9273 15.4671 19.9028 15.463 19.8784 15.4589C19.8603 15.4558 19.8424 15.4525 19.8242 15.4498C19.7985 15.4461 19.7726 15.443 19.7467 15.44C19.7295 15.4379 19.7124 15.4356 19.6951 15.4338C19.6661 15.431 19.6369 15.4291 19.6077 15.4271C19.5932 15.4262 19.5788 15.4248 19.5642 15.4241C19.5202 15.4219 19.4761 15.4207 19.4316 15.4207C19.3872 15.4207 19.3429 15.4219 19.299 15.4241C19.2844 15.4248 19.27 15.4262 19.2554 15.4271C19.2262 15.4291 19.197 15.4309 19.1681 15.4338C19.1507 15.4355 19.1336 15.4379 19.1163 15.44C19.0905 15.443 19.0646 15.4461 19.039 15.4498C19.0208 15.4525 19.0027 15.4558 18.9846 15.4589C18.9602 15.463 18.936 15.4672 18.9118 15.472C18.8933 15.4756 18.875 15.4798 18.8565 15.4839C18.8332 15.489 18.8098 15.4943 18.7867 15.5C18.7682 15.5046 18.7498 15.5096 18.7314 15.5146C18.7088 15.5208 18.6862 15.5271 18.6637 15.5338C18.6454 15.5394 18.6272 15.5451 18.609 15.551C18.5869 15.5581 18.565 15.5656 18.5431 15.5733C18.5251 15.5797 18.5072 15.5862 18.4893 15.593C18.4677 15.6012 18.4463 15.6097 18.425 15.6184C18.4074 15.6255 18.3898 15.6328 18.3724 15.6403C18.3512 15.6495 18.3302 15.6591 18.3093 15.6689C18.2923 15.6768 18.2752 15.6847 18.2584 15.6929C18.2375 15.7032 18.2169 15.714 18.1963 15.7248C18.18 15.7333 18.1636 15.7418 18.1475 15.7507C18.1266 15.7621 18.1061 15.7743 18.0856 15.7864C18.0703 15.7953 18.0549 15.804 18.0398 15.8133C18.0182 15.8265 17.9972 15.8403 17.9761 15.8541C17.9625 15.863 17.9487 15.8716 17.9353 15.8807C17.9102 15.8977 17.8858 15.9154 17.8614 15.9333C17.8524 15.9398 17.8431 15.9461 17.8342 15.9528C17.8014 15.9773 17.7691 16.0027 17.7376 16.0287C17.7267 16.0377 17.7163 16.0472 17.7055 16.0563C17.6848 16.0739 17.664 16.0915 17.6438 16.1097C17.6311 16.1212 17.6188 16.1332 17.6064 16.145C17.5888 16.1615 17.5711 16.1779 17.554 16.1949C17.5411 16.2077 17.5285 16.221 17.5159 16.2341C17.4998 16.2507 17.4837 16.2672 17.4681 16.2842C17.4554 16.298 17.443 16.3121 17.4306 16.3262C17.4157 16.3431 17.4008 16.36 17.3863 16.3773C17.3741 16.3919 17.3622 16.4067 17.3503 16.4216C17.3363 16.439 17.3223 16.4565 17.3088 16.4743C17.2972 16.4895 17.2859 16.5049 17.2746 16.5204C17.2615 16.5384 17.2485 16.5566 17.2358 16.575C17.2248 16.5908 17.2141 16.6067 17.2036 16.6227C17.1912 16.6414 17.1792 16.6602 17.1673 16.6791C17.1571 16.6954 17.147 16.7117 17.1372 16.7282C17.1257 16.7475 17.1145 16.7671 17.1035 16.7868C17.0941 16.8034 17.0848 16.82 17.0758 16.8369C17.065 16.8571 17.0547 16.8775 17.0444 16.898C17.036 16.9148 17.0275 16.9316 17.0194 16.9485C17.0093 16.9698 16.9997 16.9914 16.9901 17.013C16.9827 17.0297 16.9752 17.0462 16.9682 17.063C16.9585 17.086 16.9497 17.1094 16.9407 17.1327C16.9345 17.1486 16.9281 17.1642 16.9223 17.1802C16.9124 17.2074 16.9034 17.2348 16.8945 17.2623C16.8903 17.2749 16.8858 17.2873 16.8819 17.3C16.8694 17.3403 16.8578 17.3809 16.8472 17.4219C16.8448 17.431 16.843 17.4402 16.8408 17.4493C16.8328 17.4816 16.8251 17.5139 16.8183 17.5466C16.8151 17.5619 16.8126 17.5774 16.8097 17.5928C16.8046 17.6196 16.7995 17.6464 16.7952 17.6735C16.7925 17.6908 16.7904 17.7083 16.7881 17.7257C16.7853 17.7458 16.782 17.7658 16.7797 17.7861H14.1634C13.9746 17.7861 13.8211 17.6325 13.8211 17.4436V17.0388H14.2061C14.8528 17.0388 15.379 16.5126 15.379 15.8658C15.379 15.219 14.8529 14.6928 14.2061 14.6928H13.8211V7.40563C13.8211 7.21683 13.9747 7.06327 14.1634 7.06327H19.3751C19.6019 7.06327 19.7856 6.87944 19.7856 6.65275C19.7856 6.42607 19.6019 6.24224 19.3751 6.24224H14.1634C13.5219 6.24219 13 6.76412 13 7.40563V15.1033V16.6282V17.4435C13 18.0851 13.5219 18.607 14.1634 18.607H16.8132C17.0548 19.8319 18.1368 20.7587 19.4314 20.7587C20.726 20.7587 21.8079 19.8319 22.0496 18.607H23.1767H29.4088H30.4968C30.7385 19.8319 31.8204 20.7587 33.115 20.7587C34.4097 20.7587 35.4916 19.8319 35.7333 18.607H37.8366C38.4781 18.607 39 18.0851 39 17.4435V16.6282V15.1033V13.7944V9.29363V9.10553C38.9999 9.06831 38.9945 9.03241 38.9853 8.99813ZM14.206 15.5139C14.4 15.5139 14.558 15.6717 14.558 15.8658C14.558 16.0599 14.4 16.2178 14.206 16.2178H13.821V15.5139H14.206V15.5139ZM32.7045 9.5161V13.3838H29.8192V9.5161H32.7045ZM23.5873 14.2049H28.9982V17.6792H23.5873V14.2049ZM28.9982 9.10558V13.3838H26.7033V8.94542H28.9982V9.10558H28.9982ZM25.8823 8.94542V13.3838H23.5873V8.94542H25.8823ZM16.1355 9.5161H19.0209V13.3838H16.1355V9.5161ZM22.7272 13.3839H19.842V9.51615H22.7272V13.3839ZM19.4314 19.9377C18.4421 19.9377 17.632 19.1562 17.5856 18.1781C17.5843 18.1487 17.5834 18.1193 17.5834 18.0897C17.5834 17.0707 18.4125 16.2417 19.4314 16.2417C20.4504 16.2417 21.2794 17.0707 21.2794 18.0897C21.2794 18.1193 21.2784 18.1487 21.2771 18.1781C21.2308 19.1561 20.4207 19.9377 19.4314 19.9377ZM33.115 19.9377C32.1263 19.9377 31.3166 19.1571 31.2694 18.1799C31.2693 18.1789 31.2694 18.1779 31.2694 18.1769C31.268 18.1479 31.2671 18.1189 31.2671 18.0897C31.2671 17.0707 32.0961 16.2417 33.115 16.2417C34.134 16.2417 34.9631 17.0707 34.9631 18.0897C34.963 19.1086 34.134 19.9377 33.115 19.9377ZM37.8366 17.786H35.7669C35.7646 17.7658 35.7613 17.7458 35.7585 17.7257C35.7562 17.7083 35.7541 17.6907 35.7514 17.6734C35.7471 17.6463 35.742 17.6196 35.7369 17.5927C35.734 17.5774 35.7315 17.5618 35.7283 17.5465C35.7215 17.5139 35.7138 17.4815 35.7058 17.4493C35.7036 17.4402 35.7017 17.4309 35.6994 17.4219C35.6888 17.3808 35.6772 17.3402 35.6647 17.3C35.6608 17.2873 35.6563 17.2749 35.6522 17.2623C35.6432 17.2348 35.6342 17.2073 35.6243 17.1802C35.6185 17.1642 35.6121 17.1485 35.6059 17.1326C35.597 17.1093 35.5881 17.0859 35.5784 17.0629C35.5714 17.0461 35.5638 17.0296 35.5565 17.013C35.5469 16.9913 35.5374 16.9698 35.5272 16.9485C35.5191 16.9315 35.5106 16.9148 35.5022 16.898C35.4919 16.8775 35.4816 16.857 35.4708 16.8368C35.4618 16.82 35.4525 16.8033 35.4431 16.7867C35.4321 16.7671 35.421 16.7475 35.4095 16.7282C35.3996 16.7117 35.3895 16.6953 35.3793 16.679C35.3675 16.66 35.3554 16.6413 35.3432 16.6227C35.3326 16.6066 35.3219 16.5907 35.3109 16.5749C35.2982 16.5566 35.2852 16.5384 35.2721 16.5203C35.2608 16.5049 35.2495 16.4895 35.2379 16.4742C35.2243 16.4565 35.2104 16.4389 35.1964 16.4215C35.1845 16.4067 35.1726 16.3919 35.1604 16.3772C35.1459 16.3599 35.131 16.343 35.1161 16.3262C35.1037 16.312 35.0914 16.2979 35.0786 16.2841C35.063 16.2671 35.047 16.2506 35.031 16.2341C35.0183 16.2209 35.0057 16.2076 34.9928 16.1948C34.9757 16.1779 34.9582 16.1616 34.9407 16.1451C34.9281 16.1332 34.9157 16.1212 34.9029 16.1095C34.8828 16.0914 34.8623 16.074 34.8417 16.0565C34.8308 16.0473 34.8203 16.0376 34.8092 16.0285C34.7777 16.0025 34.7455 15.9772 34.7127 15.9526C34.7037 15.9459 34.6944 15.9397 34.6854 15.9331C34.661 15.9153 34.6366 15.8975 34.6115 15.8806C34.5981 15.8714 34.5843 15.8629 34.5707 15.854C34.5496 15.8402 34.5286 15.8264 34.507 15.8132C34.492 15.8039 34.4765 15.7951 34.4612 15.7862C34.4407 15.7742 34.4202 15.7621 34.3993 15.7505C34.3832 15.7416 34.3668 15.7332 34.3505 15.7247C34.3299 15.7139 34.3092 15.7031 34.2884 15.6928C34.2715 15.6845 34.2545 15.6766 34.2373 15.6687C34.2164 15.659 34.1955 15.6494 34.1743 15.6402C34.1569 15.6326 34.1393 15.6254 34.1218 15.6182C34.1005 15.6095 34.079 15.6009 34.0574 15.5928C34.0396 15.586 34.0217 15.5795 34.0037 15.5731C33.9819 15.5654 33.9599 15.5579 33.9377 15.5508C33.9196 15.5449 33.9014 15.5391 33.8831 15.5337C33.8606 15.5269 33.838 15.5205 33.8153 15.5144C33.797 15.5094 33.7787 15.5044 33.7602 15.4998C33.7371 15.4941 33.7137 15.4888 33.6903 15.4836C33.6719 15.4796 33.6536 15.4754 33.635 15.4718C33.6109 15.467 33.5866 15.4628 33.5622 15.4587C33.5441 15.4557 33.526 15.4524 33.5078 15.4496C33.4822 15.4459 33.4563 15.4428 33.4305 15.4398C33.4132 15.4377 33.3961 15.4354 33.3787 15.4336C33.3498 15.4308 33.3205 15.4289 33.2914 15.4269C33.2768 15.426 33.2624 15.4246 33.2479 15.4239C33.2039 15.4217 33.1598 15.4205 33.1153 15.4205C33.0708 15.4205 33.0266 15.4217 32.9827 15.4239C32.9681 15.4246 32.9537 15.426 32.9392 15.4269C32.9099 15.4289 32.8807 15.4307 32.8518 15.4336C32.8345 15.4353 32.8174 15.4377 32.8002 15.4398C32.7743 15.4428 32.7483 15.4459 32.7227 15.4496C32.7045 15.4523 32.6865 15.4556 32.6685 15.4587C32.644 15.4628 32.6197 15.4669 32.5954 15.4718C32.577 15.4754 32.5588 15.4795 32.5405 15.4836C32.5169 15.4888 32.4935 15.4941 32.4703 15.4998C32.4519 15.5045 32.4336 15.5094 32.4154 15.5143C32.3926 15.5206 32.3699 15.5269 32.3473 15.5337C32.3291 15.5392 32.3111 15.5449 32.2931 15.5508C32.2708 15.558 32.2487 15.5655 32.2267 15.5733C32.2089 15.5796 32.1911 15.586 32.1734 15.5928C32.1517 15.6011 32.13 15.6096 32.1085 15.6185C32.0912 15.6256 32.0739 15.6327 32.0566 15.6402C32.0352 15.6494 32.0139 15.6592 31.9928 15.669C31.976 15.6769 31.9592 15.6846 31.9426 15.6928C31.9214 15.7032 31.9005 15.7141 31.8796 15.7252C31.8636 15.7336 31.8475 15.7418 31.8317 15.7505C31.8104 15.7623 31.7895 15.7746 31.7685 15.7869C31.7536 15.7956 31.7386 15.8041 31.7238 15.8131C31.7017 15.8267 31.6801 15.8409 31.6584 15.8551C31.6453 15.8636 31.6322 15.8718 31.6193 15.8805C31.5932 15.8982 31.5677 15.9167 31.5422 15.9353C31.5343 15.9412 31.526 15.9467 31.5181 15.9526C31.4852 15.9773 31.4529 16.0027 31.4211 16.0289C31.411 16.0372 31.4014 16.046 31.3914 16.0544C31.3698 16.0727 31.3483 16.0909 31.3274 16.1098C31.3152 16.121 31.3033 16.1325 31.2913 16.1439C31.2732 16.1608 31.2552 16.1776 31.2376 16.1951C31.2249 16.2076 31.2128 16.2205 31.2004 16.2333C31.184 16.2501 31.1676 16.267 31.1518 16.2843C31.1392 16.2979 31.1271 16.3118 31.1149 16.3256C31.0998 16.3428 31.0847 16.3599 31.07 16.3774C31.0579 16.3919 31.0461 16.4065 31.0343 16.4212C31.0202 16.4388 31.0062 16.4565 30.9925 16.4744C30.981 16.4894 30.9697 16.5047 30.9586 16.52C30.9453 16.5382 30.9322 16.5566 30.9194 16.575C30.9086 16.5907 30.8979 16.6065 30.8875 16.6223C30.875 16.6411 30.8629 16.6601 30.8509 16.6792C30.8409 16.6953 30.8308 16.7115 30.8211 16.7278C30.8095 16.7473 30.7983 16.767 30.7872 16.7867C30.7779 16.8033 30.7686 16.8198 30.7597 16.8366C30.7489 16.8569 30.7386 16.8774 30.7283 16.8979C30.7199 16.9147 30.7114 16.9313 30.7034 16.9482C30.6933 16.9696 30.6837 16.9912 30.6741 17.0129C30.6668 17.0295 30.6592 17.0459 30.6521 17.0627C30.6424 17.0858 30.6336 17.1093 30.6245 17.1328C30.6184 17.1485 30.612 17.1641 30.6063 17.18C30.5964 17.207 30.5875 17.2345 30.5786 17.2619C30.5744 17.2746 30.5698 17.2871 30.5659 17.2999C30.5534 17.3401 30.5418 17.3807 30.5312 17.4217C30.5289 17.4308 30.5271 17.44 30.5248 17.4491C30.5169 17.4814 30.5091 17.5137 30.5023 17.5464C30.4991 17.5618 30.4966 17.5774 30.4937 17.5928C30.4887 17.6196 30.4835 17.6463 30.4793 17.6732C30.4766 17.6907 30.4745 17.7084 30.4721 17.7259C30.4694 17.7458 30.4662 17.7658 30.4638 17.7859H29.8199V14.2049H33.1156H33.1157H34.264C34.4908 14.2049 34.6746 14.0211 34.6746 13.7944C34.6746 13.5677 34.4908 13.3839 34.264 13.3839H33.5262V9.51615H38.1791V13.3839H35.632C35.4053 13.3839 35.2215 13.5677 35.2215 13.7944C35.2215 14.0211 35.4053 14.2049 35.632 14.2049H38.1791V14.6928H37.4178C36.771 14.6928 36.2448 15.219 36.2448 15.8658C36.2448 16.5126 36.771 17.0388 37.4178 17.0388H38.1791V17.4436C38.1789 17.6325 38.0253 17.786 37.8366 17.786ZM38.1789 16.2177H37.4176C37.2235 16.2177 37.0656 16.0598 37.0656 15.8657C37.0656 15.6716 37.2235 15.5138 37.4176 15.5138H38.1789V16.2177Z" fill="#231F20"/>
<path d="M19.4314 16.9033C18.7773 16.9033 18.2451 17.4355 18.2451 18.0896C18.2451 18.7437 18.7773 19.2758 19.4314 19.2758C20.0855 19.2758 20.6176 18.7437 20.6176 18.0896C20.6176 17.4355 20.0855 16.9033 19.4314 16.9033ZM19.4314 18.4548C19.23 18.4548 19.0661 18.291 19.0661 18.0896C19.0661 17.8882 19.23 17.7244 19.4314 17.7244C19.6328 17.7244 19.7966 17.8882 19.7966 18.0896C19.7966 18.291 19.6328 18.4548 19.4314 18.4548Z" fill="#231F20"/>
<path d="M33.115 16.9033C32.4608 16.9033 31.9287 17.4355 31.9287 18.0896C31.9287 18.7437 32.4608 19.2758 33.115 19.2758C33.7691 19.2758 34.3012 18.7437 34.3012 18.0896C34.3012 17.4355 33.7691 16.9033 33.115 16.9033ZM33.115 18.4548C32.9136 18.4548 32.7497 18.291 32.7497 18.0896C32.7497 17.8882 32.9136 17.7244 33.115 17.7244C33.3164 17.7244 33.4802 17.8882 33.4802 18.0896C33.4802 18.291 33.3164 18.4548 33.115 18.4548Z" fill="#231F20"/>
<path d="M56.8438 17.5625V21.2188H47.9062C47.9062 20.68 47.6922 20.1634 47.3113 19.7824C46.9304 19.4015 46.4137 19.1875 45.875 19.1875C45.3363 19.1875 44.8196 19.4015 44.4387 19.7824C44.0578 20.1634 43.8438 20.68 43.8438 21.2188H42.625C42.5173 21.2188 42.4139 21.1759 42.3377 21.0998C42.2616 21.0236 42.2188 20.9202 42.2188 20.8125V17.5625H56.8438Z" fill="#CC7400"/>
<path d="M44.25 16.75C44.6987 16.75 45.0625 16.3862 45.0625 15.9375C45.0625 15.4888 44.6987 15.125 44.25 15.125C43.8013 15.125 43.4375 15.4888 43.4375 15.9375C43.4375 16.3862 43.8013 16.75 44.25 16.75Z" fill="#57565C"/>
<path d="M51.5625 16.75C52.0112 16.75 52.375 16.3862 52.375 15.9375C52.375 15.4888 52.0112 15.125 51.5625 15.125C51.1138 15.125 50.75 15.4888 50.75 15.9375C50.75 16.3862 51.1138 16.75 51.5625 16.75Z" fill="#57565C"/>
<path d="M47.5 11.0625V13.5H43.8438L44.8391 11.5134C44.9063 11.3781 45.01 11.2642 45.1385 11.1845C45.267 11.1048 45.4151 11.0626 45.5662 11.0625H47.5Z" fill="#D1D3D4"/>
<path d="M51.9688 13.5H47.5V11.0625H49.125L51.9688 13.5Z" fill="#E6E7E8"/>
<path d="M60.9062 23.25C62.0281 23.25 62.9375 22.3406 62.9375 21.2188C62.9375 20.0969 62.0281 19.1875 60.9062 19.1875C59.7844 19.1875 58.875 20.0969 58.875 21.2188C58.875 22.3406 59.7844 23.25 60.9062 23.25Z" fill="#57565C"/>
<path d="M63.3438 16.75V17.5625C63.3438 17.6702 63.3866 17.7736 63.4627 17.8498C63.5389 17.9259 63.6423 17.9688 63.75 17.9688H65.7812V20.4062C65.7806 20.6215 65.6948 20.8278 65.5426 20.9801C65.3903 21.1323 65.184 21.2181 64.9688 21.2188H62.9375C62.9375 20.68 62.7235 20.1634 62.3426 19.7824C61.9616 19.4015 61.445 19.1875 60.9062 19.1875C60.3675 19.1875 59.8509 19.4015 59.4699 19.7824C59.089 20.1634 58.875 20.68 58.875 21.2188H56.8438V10.25H58.4688V14.7188H65.7163C65.7603 14.865 65.7822 15.017 65.7812 15.1697V16.3438H63.75C63.6423 16.3438 63.5389 16.3866 63.4627 16.4627C63.3866 16.5389 63.3438 16.6423 63.3438 16.75Z" fill="#EE8700"/>
<path d="M65.7812 16.3438V17.9688H63.75C63.6423 17.9688 63.5389 17.9259 63.4627 17.8498C63.3866 17.7736 63.3438 17.6702 63.3438 17.5625V16.75C63.3438 16.6423 63.3866 16.5389 63.4627 16.4627C63.5389 16.3866 63.6423 16.3438 63.75 16.3438H65.7812Z" fill="#E6E7E8"/>
<path d="M65.7162 14.7188H58.4688V10.25H62.8603C63.0069 10.25 63.1507 10.2896 63.2766 10.3647C63.4025 10.4398 63.5057 10.5476 63.5753 10.6766L65.5497 14.3328C65.6226 14.4532 65.6786 14.5831 65.7162 14.7188Z" fill="#E6E7E8"/>
<path d="M56.8438 11.8748V17.5623H55.2188V11.1191L56.8438 11.8748Z" fill="#787680"/>
<path d="M57.2095 10.2504H56.8438V11.8754L55.2188 11.1198L43.8438 5.81418L43.5879 5.69637L44.2745 4.22168L57.2095 10.2504Z" fill="#898890"/>
<path d="M56.8438 11.8748V12.6873L55.2188 11.9316V11.1191L56.8438 11.8748Z" fill="#57565C"/>
<path d="M48.7188 21.2188H47.9062C47.9062 20.68 47.6922 20.1634 47.3113 19.7824C46.9304 19.4015 46.4137 19.1875 45.875 19.1875C45.3363 19.1875 44.8196 19.4015 44.4387 19.7824C44.0578 20.1634 43.8438 20.68 43.8438 21.2188H43.0312C43.0313 20.4645 43.3309 19.7412 43.8642 19.2079C44.3975 18.6746 45.1208 18.375 45.875 18.375C46.6292 18.375 47.3525 18.6746 47.8858 19.2079C48.4191 19.7412 48.7188 20.4645 48.7188 21.2188Z" fill="#AA6100"/>
<path d="M45.875 23.25C46.9968 23.25 47.9062 22.3406 47.9062 21.2188C47.9062 20.0969 46.9968 19.1875 45.875 19.1875C44.7532 19.1875 43.8438 20.0969 43.8438 21.2188C43.8438 22.3406 44.7532 23.25 45.875 23.25Z" fill="#57565C"/>
<path d="M53.5938 14.3125V15.9375H52.375C52.375 15.722 52.2894 15.5153 52.137 15.363C51.9847 15.2106 51.778 15.125 51.5625 15.125C51.347 15.125 51.1403 15.2106 50.988 15.363C50.8356 15.5153 50.75 15.722 50.75 15.9375H45.0625C45.0625 15.722 44.9769 15.5153 44.8245 15.363C44.6722 15.2106 44.4655 15.125 44.25 15.125C44.0345 15.125 43.8278 15.2106 43.6755 15.363C43.5231 15.5153 43.4375 15.722 43.4375 15.9375H42.2188V13.9062C42.2188 13.7985 42.2616 13.6952 42.3377 13.619C42.4139 13.5428 42.5173 13.5 42.625 13.5H52.7853L53.5938 14.3125Z" fill="#3D9AE2"/>
<path d="M45.4688 15.9375H45.0625C45.0625 15.722 44.9769 15.5153 44.8245 15.363C44.6722 15.2106 44.4655 15.125 44.25 15.125C44.0345 15.125 43.8278 15.2106 43.6755 15.363C43.5231 15.5153 43.4375 15.722 43.4375 15.9375H43.0312C43.0312 15.6143 43.1597 15.3043 43.3882 15.0757C43.6168 14.8472 43.9268 14.7188 44.25 14.7188C44.5732 14.7188 44.8832 14.8472 45.1118 15.0757C45.3403 15.3043 45.4688 15.6143 45.4688 15.9375Z" fill="#1E81CE"/>
<path d="M52.7812 15.9375H52.375C52.375 15.722 52.2894 15.5153 52.137 15.363C51.9847 15.2106 51.778 15.125 51.5625 15.125C51.347 15.125 51.1403 15.2106 50.988 15.363C50.8356 15.5153 50.75 15.722 50.75 15.9375H50.3438C50.3438 15.6143 50.4722 15.3043 50.7007 15.0757C50.9293 14.8472 51.2393 14.7188 51.5625 14.7188C51.8857 14.7188 52.1957 14.8472 52.4243 15.0757C52.6528 15.3043 52.7812 15.6143 52.7812 15.9375Z" fill="#1E81CE"/>
<path d="M63.75 21.2188H62.9375C62.9375 20.68 62.7235 20.1634 62.3426 19.7824C61.9616 19.4015 61.445 19.1875 60.9062 19.1875C60.3675 19.1875 59.8509 19.4015 59.4699 19.7824C59.089 20.1634 58.875 20.68 58.875 21.2188H58.0625C58.0625 20.4645 58.3621 19.7412 58.8954 19.2079C59.4287 18.6746 60.152 18.375 60.9062 18.375C61.6605 18.375 62.3838 18.6746 62.9171 19.2079C63.4504 19.7412 63.75 20.4645 63.75 21.2188Z" fill="#CC7400"/>
<path d="M58.0625 15.9375H59.6875V16.75H58.0625V15.9375Z" fill="black"/>
<path d="M45.4688 20.8125H46.2812V21.625H45.4688V20.8125Z" fill="black"/>
<path d="M60.5 20.8125H61.3125V21.625H60.5V20.8125Z" fill="black"/>
<path d="M65.9072 14.1398L63.9316 10.4836C63.8271 10.2902 63.6723 10.1287 63.4835 10.0161C63.2946 9.90351 63.0789 9.8441 62.8591 9.84415H57.2992L44.4458 3.85358C44.3975 3.83095 44.3452 3.81811 44.292 3.81581C44.2387 3.8135 44.1855 3.82179 44.1354 3.84018C44.0853 3.85839 44.0392 3.88631 43.9998 3.92235C43.9604 3.95839 43.9285 4.00184 43.9059 4.05021L43.2193 5.5249C43.1966 5.57334 43.1837 5.6258 43.1813 5.67926C43.1789 5.73272 43.1871 5.78612 43.2054 5.8364C43.2237 5.88668 43.2518 5.93285 43.288 5.97226C43.3242 6.01166 43.3678 6.04353 43.4164 6.06602L43.4375 6.07455V8.21915C43.4375 8.32689 43.4803 8.43022 43.5565 8.50641C43.6327 8.5826 43.736 8.6254 43.8438 8.6254C43.9241 8.6254 44.0026 8.64922 44.0695 8.69386C44.1363 8.7385 44.1883 8.80195 44.2191 8.87618C44.2498 8.95041 44.2579 9.0321 44.2422 9.1109C44.2265 9.18971 44.1878 9.26209 44.131 9.31891C44.0742 9.37572 44.0018 9.41442 43.923 9.43009C43.8442 9.44577 43.7625 9.43772 43.6883 9.40697C43.6141 9.37622 43.5506 9.32415 43.506 9.25735C43.4613 9.19054 43.4375 9.112 43.4375 9.03165H42.625C42.625 9.25507 42.6865 9.47419 42.8027 9.66504C42.9188 9.8559 43.0852 10.0112 43.2836 10.1138C43.4821 10.2165 43.7049 10.2627 43.9278 10.2473C44.1507 10.2319 44.3651 10.1555 44.5475 10.0265C44.7299 9.89744 44.8733 9.72077 44.9621 9.51574C45.0509 9.31071 45.0816 9.08522 45.0509 8.86392C45.0202 8.64261 44.9293 8.43401 44.788 8.2609C44.6468 8.08779 44.4606 7.95684 44.25 7.88237V6.45318L54.8125 11.3765V17.1566H42.2188C42.111 17.1566 42.0077 17.1994 41.9315 17.2756C41.8553 17.3518 41.8125 17.4552 41.8125 17.5629V20.8129C41.8125 21.0284 41.8981 21.235 42.0505 21.3874C42.2028 21.5398 42.4095 21.6254 42.625 21.6254H43.4741C43.5695 22.1931 43.8631 22.7087 44.3027 23.0805C44.7422 23.4522 45.2993 23.6563 45.875 23.6563C46.4507 23.6563 47.0078 23.4522 47.4473 23.0805C47.8869 22.7087 48.1805 22.1931 48.2759 21.6254H58.5053C58.6008 22.1931 58.8944 22.7087 59.3339 23.0805C59.7735 23.4522 60.3305 23.6563 60.9063 23.6563C61.482 23.6563 62.039 23.4522 62.4786 23.0805C62.9181 22.7087 63.2117 22.1931 63.3072 21.6254H64.9688C65.292 21.6254 65.602 21.497 65.8305 21.2684C66.0591 21.0399 66.1875 20.7299 66.1875 20.4066V15.1693C66.1883 14.8072 66.0914 14.4516 65.9072 14.1398ZM63.2166 10.8699L65.0772 14.3129H58.875V10.6566H62.8591C62.9324 10.6566 63.0043 10.6765 63.0672 10.714C63.1302 10.7516 63.1818 10.8054 63.2166 10.8699ZM44.471 4.76155L56.4375 10.339V11.238L44.1281 5.49971L44.471 4.76155ZM55.625 11.7556L56.4375 12.1342V17.1566H55.625V11.7556ZM45.875 22.8441C45.5536 22.8441 45.2394 22.7488 44.9722 22.5703C44.705 22.3917 44.4967 22.1379 44.3737 21.841C44.2507 21.5441 44.2185 21.2173 44.2812 20.9021C44.3439 20.5869 44.4987 20.2974 44.726 20.0701C44.9532 19.8428 45.2428 19.6881 45.558 19.6254C45.8732 19.5627 46.1999 19.5949 46.4969 19.7178C46.7938 19.8408 47.0476 20.0491 47.2261 20.3163C47.4047 20.5836 47.5 20.8978 47.5 21.2191C47.5 21.6501 47.3288 22.0634 47.024 22.3682C46.7193 22.6729 46.306 22.8441 45.875 22.8441ZM45.875 18.7816C45.2995 18.7827 44.743 18.9872 44.3036 19.3588C43.8643 19.7305 43.5705 20.2456 43.4741 20.8129H42.625V17.9691H56.4375V20.8129H48.2759C48.1795 20.2456 47.8857 19.7305 47.4464 19.3588C47.0071 18.9872 46.4505 18.7827 45.875 18.7816ZM60.9063 22.8441C60.5849 22.8441 60.2707 22.7488 60.0034 22.5703C59.7362 22.3917 59.5279 22.1379 59.4049 21.841C59.282 21.5441 59.2498 21.2173 59.3125 20.9021C59.3752 20.5869 59.5299 20.2974 59.7572 20.0701C59.9845 19.8428 60.274 19.6881 60.5892 19.6254C60.9044 19.5627 61.2312 19.5949 61.5281 19.7178C61.825 19.8408 62.0788 20.0491 62.2574 20.3163C62.4359 20.5836 62.5313 20.8978 62.5313 21.2191C62.5313 21.6501 62.36 22.0634 62.0553 22.3682C61.7506 22.6729 61.3372 22.8441 60.9063 22.8441ZM64.9688 20.8129H63.3072C63.2117 20.2452 62.9181 19.7296 62.4786 19.3578C62.039 18.986 61.482 18.782 60.9063 18.782C60.3305 18.782 59.7735 18.986 59.3339 19.3578C58.8944 19.7296 58.6008 20.2452 58.5053 20.8129H57.25V10.6566H58.0625V14.7191C58.0625 14.8269 58.1053 14.9302 58.1815 15.0064C58.2577 15.0826 58.361 15.1254 58.4688 15.1254H65.3689C65.3689 15.14 65.375 15.1542 65.375 15.1693V15.9379H63.75C63.5345 15.9379 63.3279 16.0235 63.1755 16.1759C63.0231 16.3282 62.9375 16.5349 62.9375 16.7504V17.5629C62.9375 17.7784 63.0231 17.985 63.1755 18.1374C63.3279 18.2898 63.5345 18.3754 63.75 18.3754H65.375V19.1879H64.1563V20.0004H65.375V20.4066C65.375 20.5144 65.3322 20.6177 65.256 20.6939C65.1798 20.7701 65.0765 20.8129 64.9688 20.8129ZM65.375 16.7504V17.5629H63.75V16.7504H65.375Z" fill="black"/>
<path d="M45.394 16.3438H50.4185C50.5012 16.5812 50.6558 16.7871 50.8608 16.9327C51.0658 17.0784 51.311 17.1566 51.5625 17.1566C51.814 17.1566 52.0592 17.0784 52.2642 16.9327C52.4692 16.7871 52.6238 16.5812 52.7065 16.3438H53.5938C53.7015 16.3438 53.8048 16.301 53.881 16.2248C53.9572 16.1486 54 16.0453 54 15.9375V14.3125C54.0001 14.205 53.9576 14.1019 53.8818 14.0257L53.0729 13.2132C53.0352 13.1753 52.9903 13.1452 52.9408 13.1247C52.8914 13.1042 52.8384 13.0937 52.7849 13.0938H52.1191L49.3895 10.7542C49.3158 10.691 49.222 10.6563 49.125 10.6563H45.5646C45.3382 10.6555 45.116 10.7182 44.9233 10.8372C44.7307 10.9563 44.5752 11.1269 44.4747 11.3298L43.5927 13.0938H42.625C42.4095 13.0938 42.2028 13.1794 42.0505 13.3317C41.8981 13.4841 41.8125 13.6908 41.8125 13.9063V15.9375C41.8125 16.0453 41.8553 16.1486 41.9315 16.2248C42.0077 16.301 42.111 16.3438 42.2188 16.3438H43.106C43.1887 16.5812 43.3433 16.7871 43.5483 16.9327C43.7533 17.0784 43.9985 17.1566 44.25 17.1566C44.5015 17.1566 44.7467 17.0784 44.9517 16.9327C45.1567 16.7871 45.3113 16.5812 45.394 16.3438ZM51.5625 16.3438C51.4822 16.3438 51.4036 16.3199 51.3368 16.2753C51.27 16.2307 51.2179 16.1672 51.1872 16.093C51.1564 16.0187 51.1484 15.9371 51.1641 15.8583C51.1797 15.7794 51.2184 15.7071 51.2752 15.6502C51.3321 15.5934 51.4044 15.5547 51.4832 15.5391C51.562 15.5234 51.6437 15.5314 51.718 15.5622C51.7922 15.5929 51.8556 15.645 51.9003 15.7118C51.9449 15.7786 51.9688 15.8572 51.9688 15.9375C51.9688 16.0453 51.9259 16.1486 51.8498 16.2248C51.7736 16.301 51.6702 16.3438 51.5625 16.3438ZM50.8719 13.0938H47.9062V11.4688H48.9747L50.8719 13.0938ZM45.2014 11.6934C45.2349 11.6258 45.2867 11.5689 45.3509 11.5291C45.4151 11.4894 45.4891 11.4685 45.5646 11.4688H47.0938V13.0938H44.5011L45.2014 11.6934ZM42.625 13.9063H52.6163L53.1875 14.4803V15.5313H52.7065C52.6238 15.2938 52.4692 15.0879 52.2642 14.9423C52.0592 14.7966 51.814 14.7184 51.5625 14.7184C51.311 14.7184 51.0658 14.7966 50.8608 14.9423C50.6558 15.0879 50.5012 15.2938 50.4185 15.5313H45.394C45.3113 15.2938 45.1567 15.0879 44.9517 14.9423C44.7467 14.7966 44.5015 14.7184 44.25 14.7184C43.9985 14.7184 43.7533 14.7966 43.5483 14.9423C43.3433 15.0879 43.1887 15.2938 43.106 15.5313H42.625V13.9063ZM44.25 16.3438C44.1697 16.3438 44.0911 16.3199 44.0243 16.2753C43.9575 16.2307 43.9054 16.1672 43.8747 16.093C43.8439 16.0187 43.8359 15.9371 43.8516 15.8583C43.8672 15.7794 43.9059 15.7071 43.9627 15.6502C44.0196 15.5934 44.0919 15.5547 44.1707 15.5391C44.2495 15.5234 44.3312 15.5314 44.4055 15.5622C44.4797 15.5929 44.5431 15.645 44.5878 15.7118C44.6324 15.7786 44.6562 15.8572 44.6562 15.9375C44.6562 16.0453 44.6134 16.1486 44.5373 16.2248C44.4611 16.301 44.3577 16.3438 44.25 16.3438Z" fill="black"/>
</svg>
