<svg width="128" height="128" viewBox="0 0 128 128" fill="none" xmlns="http://www.w3.org/2000/svg">
<path d="M64.001 128C99.3477 128 128.002 99.3462 128.002 64C128.002 28.6538 99.3477 0 64.001 0C28.6542 0 0 28.6538 0 64C0 99.3462 28.6542 128 64.001 128Z" fill="#D6E3F0"/>
<mask id="mask0_10_36150" style="mask-type:luminance" maskUnits="userSpaceOnUse" x="0" y="0" width="129" height="128">
<path d="M64.001 128C99.3477 128 128.002 99.3462 128.002 64C128.002 28.6538 99.3477 0 64.001 0C28.6542 0 0 28.6538 0 64C0 99.3462 28.6542 128 64.001 128Z" fill="white"/>
</mask>
<g mask="url(#mask0_10_36150)">
<path d="M107.954 139.735H20.0448C19.5559 139.735 19.1158 139.49 18.8714 139.099C18.578 138.708 18.5291 138.219 18.6758 137.779C22.3917 127.365 26.6454 117.049 31.2902 107.124C32.5125 104.483 34.9083 102.723 37.6952 102.332C37.7441 102.332 37.8419 102.332 37.8908 102.332H55.59V96.9051C47.1315 93.9227 40.7266 86.6377 38.8197 77.886C38.6242 77.886 38.4286 77.886 38.233 77.886C32.6592 77.886 28.3077 71.1389 28.3077 65.3207C28.3077 61.1649 30.5568 58.3291 34.566 57.2535C32.757 49.7241 33.2459 40.8257 33.2459 40.4345C33.2459 40.2878 33.2948 40.1412 33.3437 39.9945C33.7837 33.6874 35.935 25.229 43.3668 19.5575C51.483 13.3971 63.9508 12.077 80.4277 15.5973C83.1168 16.2329 85.2681 18.0419 86.7838 20.8776C91.5264 22.7355 94.9 26.2558 96.5624 31.1939C98.7626 37.6477 98.0781 46.595 94.5578 57.6935C97.7847 59.0136 99.5449 61.7027 99.5449 65.3207C99.5449 68.1076 98.5181 71.1878 96.8069 73.5835C94.8511 76.3215 92.3087 77.8371 89.7174 77.886C89.2773 79.8906 88.6417 81.7974 87.7617 83.6064C87.4194 84.3398 86.9794 85.1221 86.5393 85.8066C86.0993 86.54 85.6104 87.2244 85.1214 87.9089C84.6325 88.5934 84.0947 89.229 83.508 89.8157C82.9701 90.4513 82.3345 91.038 81.7478 91.5759C78.912 94.1671 75.4895 96.1228 71.8225 97.2474V102.283H90.0596C90.1085 102.283 90.2063 102.283 90.2552 102.283C93.0421 102.674 95.4379 104.435 96.6602 107.075C101.305 117 105.559 127.267 109.275 137.73C109.421 138.17 109.372 138.659 109.079 139.05C108.835 139.49 108.395 139.735 107.954 139.735ZM22.0983 136.85H105.901C102.381 127.169 98.4203 117.635 94.0688 108.395C93.2866 106.684 91.722 105.51 89.9618 105.266H70.4046C69.6223 105.266 68.9378 104.63 68.9378 103.799V96.2206C68.9378 95.5361 69.3779 94.9983 70.0135 94.8027C73.6316 93.8738 77.0541 92.0648 79.841 89.5224C80.3788 89.0335 80.9166 88.4956 81.4056 87.9578C81.8945 87.42 82.3834 86.8333 82.8234 86.2466C83.2635 85.6599 83.7035 85.0243 84.0947 84.3887C84.4858 83.7531 84.8281 83.0686 85.1703 82.433C86.0993 80.4773 86.7838 78.3749 87.1261 76.1748C87.2727 75.3925 87.9572 74.8547 88.7395 75.0014C89.0329 75.0503 89.3751 75.0503 89.6685 75.0503C92.7487 75.0503 96.7091 70.5033 96.7091 65.3696C96.7091 62.5338 95.2912 60.7737 92.4065 60.0403C92.0154 59.9425 91.6731 59.6981 91.4775 59.3558C91.2819 59.0136 91.233 58.5736 91.3797 58.1824C99.3493 34.0785 92.4554 25.9624 85.2681 23.42C84.9258 23.2733 84.6325 23.0289 84.4369 22.6866C83.2635 20.2909 81.6989 18.873 79.7432 18.3841C64.1463 15.0594 52.4609 16.184 45.078 21.8555C38.3308 26.9892 36.4729 34.9097 36.1795 40.679C36.1795 40.8257 36.1306 40.9724 36.0817 41.0701C35.9839 43.1725 35.8372 51.6309 37.6952 57.9869C37.793 58.378 37.7441 58.818 37.4996 59.1603C37.2551 59.5025 36.9129 59.747 36.4729 59.7959C32.9037 60.2848 31.1435 62.1427 31.1435 65.3207C31.1435 67.5209 31.9747 69.9655 33.3437 71.9212C34.7127 73.8769 36.4729 75.0014 38.1841 75.0014C38.673 75.0014 39.162 74.9525 39.602 74.8547C39.9932 74.7569 40.3843 74.8547 40.7266 75.0503C41.0688 75.2947 41.2644 75.637 41.3622 76.0281C42.7312 84.682 49.0384 91.9181 57.3991 94.4605C57.9858 94.6561 58.4258 95.1939 58.4258 95.8295V103.75C58.4258 104.532 57.7902 105.217 56.959 105.217H37.8908C36.1306 105.51 34.6149 106.684 33.7837 108.346C29.5789 117.587 25.6186 127.169 22.0983 136.85Z" fill="white"/>
</g>
<mask id="mask1_10_36150" style="mask-type:luminance" maskUnits="userSpaceOnUse" x="0" y="0" width="129" height="128">
<path d="M64.001 128C99.3477 128 128.002 99.3462 128.002 64C128.002 28.6538 99.3477 0 64.001 0C28.6542 0 0 28.6538 0 64C0 99.3462 28.6542 128 64.001 128Z" fill="white"/>
</mask>
<g mask="url(#mask1_10_36150)">
<path d="M70.459 84.2908H57.0625V107.466H70.459V84.2908Z" fill="#F9C9AA"/>
<path d="M97.2523 116.804C97.2523 109.666 91.3852 103.798 84.2468 103.798H43.7634C36.625 103.798 30.7578 109.666 30.7578 116.804V138.268H97.2523V116.804Z" fill="#001E4D"/>
<path d="M34.7184 40.5324C34.7184 40.5324 33.9361 54.1734 37.603 61.7028C40.0477 66.6898 43.2257 49.9686 43.2257 49.9686L34.7184 40.5324Z" fill="#3E3A39"/>
<path d="M73.2961 103.798H54.7168L55.8902 138.268H72.0738L73.2961 103.798Z" fill="white"/>
<path d="M77.5002 21.0245C77.5002 21.0245 106.494 17.6998 92.7059 58.916C90.5546 62.6318 71.4863 61.6051 71.4863 61.6051L77.5002 21.0245Z" fill="#3E3A39"/>
<path d="M44.2495 73.8277C42.7338 75.4901 40.5825 76.4679 38.2357 76.4679C33.542 76.4679 29.7773 70.3564 29.7773 65.3693C29.7773 60.3334 33.5909 58.28 38.2357 58.28C40.4359 58.28 42.4404 59.16 43.9072 60.6268L44.2495 73.8277Z" fill="#F9D6BE"/>
<path d="M83.707 73.8277C85.2227 75.4901 87.3739 76.4679 89.7208 76.4679C94.4144 76.4679 98.1791 70.3564 98.1791 65.3693C98.1791 60.3334 94.3655 58.28 89.7208 58.28C87.5206 58.28 85.516 59.16 84.0493 60.6268L83.707 73.8277Z" fill="#F9C9AA"/>
<path d="M39.7031 44.1993V72.3612C39.7031 85.9533 50.7041 97.0029 64.3452 97.0029C77.9375 97.0029 88.9873 86.0022 88.9873 72.3612V44.1993H39.7031Z" fill="#F9D6BE"/>
<path d="M55.9369 61.5555C55.9369 64.2935 54.3723 66.5425 52.4655 66.5425C50.5587 66.5425 48.9941 64.2935 48.9941 61.5555C48.9941 58.8175 50.5587 56.5685 52.4655 56.5685C54.3723 56.5685 55.9369 58.8175 55.9369 61.5555Z" fill="#3E3A39"/>
<path d="M88.9388 72.3612V44.1993H63.1232C63.1232 44.1993 63.1232 62.9739 63.1232 63.4139C63.1232 63.854 62.8788 64.3429 62.8788 64.3429L56.9627 75.3925C56.9627 75.3925 56.0827 76.5171 57.3539 76.5171C58.4295 76.5171 61.7054 76.5171 62.781 76.5171C63.1233 76.5171 63.1232 76.8593 63.1232 76.8593V96.954C63.5144 96.954 63.9055 97.0029 64.3456 97.0029C77.8889 96.954 88.9388 85.9533 88.9388 72.3612Z" fill="#F9C9AA"/>
<path d="M79.3079 61.5555C79.3079 64.2935 77.7434 66.5425 75.8366 66.5425C73.9298 66.5425 72.3652 64.2935 72.3652 61.5555C72.3652 58.8175 73.9298 56.5685 75.8366 56.5685C77.7434 56.5685 79.3079 58.8175 79.3079 61.5555Z" fill="#3E3A39"/>
<path d="M56.082 83.0187L72.5101 80.4274C72.5101 80.4274 72.5101 87.9568 63.8071 89.1302C57.011 90.0592 56.082 83.0187 56.082 83.0187Z" fill="#A0174D"/>
<path d="M72.509 80.4274C72.509 80.4274 72.3134 82.2364 72.1179 82.5787C71.8734 83.0676 65.2729 84.9744 59.0147 84.8277C57.1079 84.7788 56.7168 82.872 56.7168 82.872L72.509 80.4274Z" fill="white"/>
<path d="M57.3052 54.8571C57.2074 54.8571 57.1585 54.8571 57.0607 54.8082C53.1982 53.3904 49.8736 54.026 47.7223 54.8082C47.3801 54.9549 46.9889 54.7593 46.8422 54.4171C46.6956 54.0748 46.8911 53.6837 47.2334 53.537C49.5802 52.7059 53.2471 52.0214 57.4519 53.537C57.7941 53.6837 57.9897 54.0259 57.843 54.4171C57.843 54.7104 57.5496 54.8571 57.3052 54.8571Z" fill="#3E3A39"/>
<path d="M80.7232 54.8571C80.6254 54.8571 80.5765 54.8571 80.4787 54.8082C76.6162 53.3904 73.2915 54.026 71.1403 54.8082C70.798 54.9549 70.4069 54.7593 70.2602 54.4171C70.1135 54.0748 70.3091 53.6837 70.6514 53.537C72.9982 52.7059 76.6651 52.0214 80.8698 53.537C81.2121 53.6837 81.4076 54.0259 81.261 54.4171C81.261 54.7104 81.0165 54.8571 80.7232 54.8571Z" fill="#3E3A39"/>
<path d="M88.0119 45.0788C88.0119 45.0788 49.3375 39.0161 41.4658 51.2881C35.3541 51.4348 34.9141 46.6922 34.9141 46.6922C35.0608 46.6922 28.6558 6.01385 80.189 17.0635C91.19 19.7037 88.0119 45.0788 88.0119 45.0788Z" fill="#3E3A39"/>
<path d="M42.6885 46.4967C42.6885 46.4967 40.6351 55.9329 40.684 66.5425C40.684 68.4982 39.7061 67.3737 39.7061 67.3737V58.3286L38.9238 58.2797L39.7061 44.1498H44.742L42.6885 46.4967Z" fill="#3E3A39"/>
<path d="M85.9578 46.4967C85.9578 46.4967 88.0112 55.9329 87.9624 66.5425C87.9624 68.4982 88.9402 67.3737 88.9402 67.3737V58.3286L89.7225 58.2797L90.5048 44.1498H83.9043L85.9578 46.4967Z" fill="#3E3A39"/>
<path d="M44.6948 113.48C45.7215 111.231 45.4771 108.738 44.2547 106.782L47.0905 108.102V103.848H37.9475C35.7473 104.142 33.6938 105.608 32.6671 107.809C27.9733 117.783 23.7685 127.952 20.1016 138.317H34.3294C37.4097 129.859 40.8811 121.596 44.6948 113.48Z" fill="#001E4D"/>
<path d="M95.3961 107.759C94.3205 105.51 92.3158 104.092 90.1157 103.799H80.9727V108.052L83.8084 106.732C82.5372 108.639 82.2928 111.181 83.3684 113.43C87.1821 121.546 90.6535 129.858 93.7826 138.268H107.962C104.246 127.902 100.09 117.733 95.3961 107.759Z" fill="#001E4D"/>
<path d="M78.2342 53.6348C71.5358 53.6348 66.0598 56.1283 65.522 62.4354H62.6373C62.1483 56.1283 56.6234 53.6348 49.9251 53.6348C42.8845 53.6348 37.2129 56.3727 37.2129 63.4132C37.2129 70.4537 42.9334 76.1252 49.9251 76.1252C56.819 76.1252 62.4417 70.6004 62.6373 63.7555H65.4242C65.6197 70.6004 71.2424 76.1252 78.1364 76.1252C85.177 76.1252 90.8485 70.4048 90.8485 63.4132C90.9463 56.3727 85.2747 53.6348 78.2342 53.6348ZM49.974 74.5607C43.8135 74.5607 38.7775 69.5248 38.7775 63.3643C38.7775 56.1772 45.7692 55.1504 49.974 55.1504C54.1788 55.1504 61.1705 56.2261 61.1705 63.3643C61.1705 69.5737 56.1345 74.5607 49.974 74.5607ZM78.2342 74.5607C72.0736 74.5607 67.0376 69.5248 67.0376 63.3643C67.0376 56.1772 74.0294 55.1504 78.2342 55.1504C82.439 55.1504 89.4306 56.2261 89.4306 63.3643C89.4306 69.5737 84.3947 74.5607 78.2342 74.5607Z" fill="black"/>
<g opacity="0.24">
<path d="M50.7567 62.9251C53.3969 66.8365 53.3969 71.3835 50.8545 73.0947C48.2632 74.806 44.0584 73.0458 41.4671 69.1833C38.827 65.272 38.827 60.725 41.3694 59.0137C43.9118 57.2536 48.1165 59.0137 50.7567 62.9251Z" fill="white"/>
</g>
<g opacity="0.24">
<path d="M79.0145 62.9251C81.6547 66.8365 81.6547 71.3835 79.1123 73.0947C76.521 74.806 72.3162 73.0458 69.725 69.1833C67.0848 65.272 67.0848 60.725 69.6272 59.0137C72.1696 57.2536 76.3743 59.0137 79.0145 62.9251Z" fill="white"/>
</g>
<path d="M41.5156 43.2704C41.5156 43.2704 41.0756 47.3285 40.1955 49.0886C39.3155 50.7998 42.0046 50.6531 43.8625 49.0886C45.7204 47.524 48.9962 44.0038 49.3873 41.9503C49.3873 41.1191 41.5156 43.2704 41.5156 43.2704Z" fill="#3E3A39"/>
<path d="M47.4317 43.2704C47.4317 43.2704 46.9916 47.3285 46.1116 49.0886C45.2315 50.7998 47.9206 50.6531 49.7785 49.0886C51.6364 47.524 54.9122 44.0038 55.3033 41.9503C55.3033 41.1191 47.4317 43.2704 47.4317 43.2704Z" fill="#3E3A39"/>
<path d="M53.3477 43.2704C53.3477 43.2704 52.9076 47.3285 52.0276 49.0886C51.1475 50.7998 53.8366 50.6531 55.6945 49.0886C57.5524 47.524 60.8282 44.0038 61.2193 41.9503C61.2193 41.1191 53.3477 43.2704 53.3477 43.2704Z" fill="#3E3A39"/>
<path d="M59.2617 43.2704C59.2617 43.2704 58.8217 47.3285 57.9416 49.0886C57.0616 50.7998 59.7507 50.6531 61.6086 49.0886C63.4665 47.524 66.7422 44.0038 67.1334 41.9503C67.1334 41.1191 59.2617 43.2704 59.2617 43.2704Z" fill="#3E3A39"/>
<path d="M65.1778 43.2704C65.1778 43.2704 64.7377 47.3285 63.8577 49.0886C62.9776 50.7998 65.6667 50.6531 67.5246 49.0886C69.3825 47.524 72.6583 44.0038 73.0494 41.9503C73.0494 41.1191 65.1778 43.2704 65.1778 43.2704Z" fill="#3E3A39"/>
<path d="M71.0938 43.2704C71.0938 43.2704 70.6537 47.3285 69.7737 49.0886C68.8936 50.7998 71.5827 50.6531 73.4406 49.0886C75.2985 47.524 78.5743 44.0038 78.9654 41.9503C78.9654 41.1191 71.0938 43.2704 71.0938 43.2704Z" fill="#3E3A39"/>
<path d="M77.0098 43.2704C77.0098 43.2704 76.5698 47.3285 75.6897 49.0886C74.8096 50.7998 77.4987 50.6531 79.3566 49.0886C81.2145 47.524 84.4903 44.0038 84.8814 41.9503C84.8814 41.1191 77.0098 43.2704 77.0098 43.2704Z" fill="#3E3A39"/>
<path d="M82.9258 43.2704C82.9258 43.2704 82.4858 47.3285 81.6057 49.0886C80.7256 50.7998 83.4147 50.6531 85.2726 49.0886C87.1305 47.524 90.4063 44.0038 90.7975 41.9503C90.7975 41.1191 82.9258 43.2704 82.9258 43.2704Z" fill="#3E3A39"/>
<path d="M63.7607 110.497C67.4601 110.497 70.459 107.498 70.459 103.798C70.459 100.099 67.4601 97.1 63.7607 97.1C60.0614 97.1 57.0625 100.099 57.0625 103.798C57.0625 107.498 60.0614 110.497 63.7607 110.497Z" fill="#F9C9AA"/>
</g>
</svg>
