<svg width="30" height="31" viewBox="0 0 30 31" fill="none" xmlns="http://www.w3.org/2000/svg">
<path d="M23.1625 17.5046H23.66C24.2643 17.5046 24.7559 17.9963 24.7559 18.6006C24.7559 19.205 24.2643 19.6965 23.66 19.6965H22.8407L22.7501 21.4382C22.7291 21.8388 22.8678 22.2176 23.1401 22.5046C23.4125 22.7913 23.7826 22.9491 24.1831 22.9491H25.8119L26.1138 15.1775C26.1486 14.2882 26.3856 13.3962 26.8184 12.5263L26.864 12.4346L26.8118 12.4734C25.0333 13.7979 23.7226 15.6123 23.1625 17.5046Z" fill="#DBCA0B"/>
<path d="M23.9074 18.6C23.9074 18.4636 23.7964 18.3525 23.6599 18.3525H14.8447C14.888 18.5161 14.9257 18.6812 14.9579 18.8475H23.6599C23.7963 18.8475 23.9074 18.7365 23.9074 18.6Z" fill="#FFEC6B"/>
<path d="M12.8105 6.4632C12.8105 6.69756 12.6206 6.88747 12.3863 6.88747H8.83782V12.8753C9.75858 13.0306 10.6453 13.3521 11.449 13.8351C12.437 14.4287 13.6719 14.4533 14.6718 13.8991L15.0978 13.6628L13.3463 6.5649C13.3151 6.4383 13.3438 6.30432 13.4243 6.20172C13.5047 6.09894 13.6279 6.039 13.7583 6.039H14.2156C14.3597 6.039 14.4771 5.92164 14.4771 5.77734C14.4771 5.63304 14.3597 5.51562 14.2156 5.51562H4.8291C4.68474 5.51562 4.56738 5.63304 4.56738 5.77734C4.56738 5.92164 4.68474 6.039 4.8291 6.039H12.3863C12.6206 6.03895 12.8105 6.22885 12.8105 6.4632Z" fill="#FFF296"/>
<path d="M18.7641 21.0039C17.5609 21.0039 16.582 21.9827 16.582 23.1859C16.582 24.389 17.5609 25.3678 18.7641 25.3678C19.9672 25.3678 20.9458 24.389 20.9458 23.1859C20.9458 21.9827 19.9672 21.0039 18.7641 21.0039ZM18.7641 24.7651C17.8932 24.7651 17.1847 24.0566 17.1847 23.1859C17.1847 22.3151 17.8932 21.6067 18.7641 21.6067C18.9983 21.6067 19.1883 21.7965 19.1883 22.0309C19.1883 22.2653 18.9983 22.4552 18.7641 22.4552C18.3611 22.4552 18.0332 22.783 18.0332 23.1859C18.0332 23.5888 18.361 23.9166 18.7641 23.9166C19.1668 23.9166 19.4947 23.5887 19.4947 23.1859C19.4947 22.9516 19.6847 22.7617 19.9189 22.7617C20.1531 22.7617 20.3431 22.9516 20.3431 23.1859C20.3431 24.0566 19.6347 24.7651 18.7641 24.7651Z" fill="#A3A3A3"/>
<path d="M7.2819 15.417C4.53858 15.417 2.30664 17.6489 2.30664 20.3922C2.30664 23.1356 4.53858 25.3676 7.2819 25.3676C10.0253 25.3676 12.2572 23.1356 12.2572 20.3922C12.2572 17.6489 10.0253 15.417 7.2819 15.417ZM7.2819 23.3927C5.62752 23.3927 4.28154 22.0467 4.28154 20.3922C4.28154 18.7377 5.62746 17.3917 7.2819 17.3917C8.9364 17.3917 10.2823 18.7377 10.2823 20.3922C10.2823 22.0467 8.9364 23.3927 7.2819 23.3927Z" fill="#A3A3A3"/>
<path d="M7.28166 18.2402C6.09522 18.2402 5.12988 19.2056 5.12988 20.3922C5.12988 21.5788 6.09522 22.5442 7.28166 22.5442C8.46822 22.5442 9.43362 21.5788 9.43362 20.3922C9.43362 19.2056 8.46828 18.2402 7.28166 18.2402ZM7.28166 21.9118C6.44376 21.9118 5.76222 21.23 5.76222 20.3922C5.76222 20.1578 5.95206 19.9679 6.18648 19.9679C6.42084 19.9679 6.61074 20.1578 6.61074 20.3922C6.61074 20.7622 6.9117 21.0632 7.28166 21.0632C7.65162 21.0632 7.9527 20.7622 7.9527 20.3922C7.9527 20.0222 7.65162 19.7213 7.28166 19.7213C7.0473 19.7213 6.8574 19.5314 6.8574 19.297C6.8574 19.0627 7.0473 18.8728 7.28166 18.8728C8.1195 18.8728 8.80122 19.5543 8.80122 20.3922C8.80122 21.23 8.11956 21.9118 7.28166 21.9118Z" fill="#DBCA0B"/>
<path d="M18.7645 20.1552C19.2425 20.1552 19.6933 20.2695 20.0959 20.4675L20.1872 19.6956H15.0729C15.0878 19.889 15.0975 20.0832 15.0975 20.2782C15.0975 20.5126 14.9075 20.7025 14.6732 20.7025C14.4389 20.7025 14.249 20.5126 14.249 20.2782C14.249 19.0688 13.9218 17.8846 13.3028 16.8535C13.1823 16.6527 13.2473 16.392 13.4483 16.2714C13.649 16.1506 13.91 16.216 14.0304 16.4168C14.2391 16.7644 14.4146 17.1289 14.5634 17.5035H20.4469L20.6175 16.0608L15.6281 14.3387L15.0837 14.6406C13.8199 15.3419 12.2599 15.3117 11.0123 14.5619C9.98058 13.942 8.79546 13.6143 7.58502 13.6143C6.0489 13.6143 4.60554 14.1222 3.41124 15.0831C3.21498 15.241 3.0954 15.4744 3.0831 15.7234C3.0741 15.906 3.12198 16.0798 3.21876 16.2281C4.269 15.203 5.70204 14.5684 7.28208 14.5684C10.4934 14.5684 13.1059 17.1809 13.1059 20.3921C13.1059 20.9185 13.0294 21.4263 12.8978 21.9117H16.0184C16.5009 20.8762 17.5488 20.1552 18.7645 20.1552Z" fill="#19B041"/>
<path d="M19.8729 14.9069L20.0475 14.2485C20.1019 14.0444 19.9884 13.8292 19.7892 13.7587L15.6318 12.2852L15.9441 13.5509L19.8729 14.9069Z" fill="#A3A3A3"/>
<path d="M7.98917 12.7801V6.8877H6.14489L5.13965 13.1786C5.92217 12.9093 6.74873 12.7664 7.58453 12.7664C7.71983 12.7664 7.85459 12.7729 7.98917 12.7801Z" fill="#DBCA0B"/>
<path d="M19.9187 22.7614C19.6845 22.7614 19.4945 22.9513 19.4945 23.1857C19.4945 23.5885 19.1666 23.9164 18.7639 23.9164C18.3609 23.9164 18.033 23.5885 18.033 23.1857C18.033 22.7828 18.3609 22.455 18.7639 22.455C18.9981 22.455 19.1881 22.2651 19.1881 22.0307C19.1881 21.7963 18.9981 21.6064 18.7639 21.6064C17.893 21.6064 17.1846 22.3149 17.1846 23.1856C17.1846 24.0564 17.893 24.7648 18.7639 24.7648C19.6345 24.7648 20.343 24.0564 20.343 23.1856C20.343 22.9513 20.153 22.7614 19.9187 22.7614Z" fill="#333333"/>
<path d="M7.28259 17.3916C5.62821 17.3916 4.28223 18.7376 4.28223 20.3921C4.28223 22.0466 5.62815 23.3926 7.28259 23.3926C8.93709 23.3926 10.283 22.0466 10.283 20.3921C10.283 18.7376 8.93709 17.3916 7.28259 17.3916ZM7.28259 22.544C6.09615 22.544 5.13081 21.5787 5.13081 20.3921C5.13081 19.2055 6.09615 18.2401 7.28259 18.2401C8.46915 18.2401 9.43455 19.2055 9.43455 20.3921C9.43455 21.5787 8.46921 22.544 7.28259 22.544Z" fill="#333333"/>
<path d="M7.28116 18.873C7.0468 18.873 6.8569 19.0629 6.8569 19.2973C6.8569 19.5317 7.0468 19.7216 7.28116 19.7216C7.65112 19.7216 7.9522 20.0225 7.9522 20.3925C7.9522 20.7625 7.65112 21.0635 7.28116 21.0635C6.9112 21.0635 6.61024 20.7625 6.61024 20.3925C6.61024 20.1581 6.42034 19.9682 6.18598 19.9682C5.95162 19.9682 5.76172 20.1581 5.76172 20.3925C5.76172 21.2303 6.44326 21.912 7.28116 21.912C8.119 21.912 8.80072 21.2303 8.80072 20.3925C8.80072 19.5546 8.11906 18.873 7.28116 18.873Z" fill="#333333"/>
<path d="M27.7805 10.6938L26.305 11.7922C24.3069 13.2799 22.8533 15.3511 22.2831 17.5039H21.3008L21.5 15.8214C21.5235 15.6234 21.4058 15.4356 21.2171 15.3705L20.6772 15.1842L20.8677 14.4658C21.0343 13.8378 20.6851 13.1757 20.0725 12.9586L15.3883 11.2983L14.2992 6.88429C14.8723 6.84151 15.3256 6.36127 15.3256 5.77723C15.3256 5.16499 14.8276 4.66699 14.2155 4.66699H4.82917C4.21699 4.66699 3.71893 5.16499 3.71893 5.77723C3.71893 6.38941 4.21699 6.88747 4.82917 6.88747H5.28571L4.21771 13.5711C3.74515 13.8078 3.29383 14.0886 2.87899 14.4223C2.49409 14.7321 2.25943 15.1912 2.23537 15.6821C2.21377 16.1204 2.36431 16.5481 2.64931 16.8777C1.90525 17.8558 1.45801 19.0716 1.45801 20.3926C1.45801 23.6039 4.07053 26.2164 7.28173 26.2164C9.64951 26.2164 11.6878 24.794 12.5974 22.7607H15.767C15.7472 22.9 15.7336 23.0413 15.7336 23.1861C15.7336 24.8569 17.093 26.2165 18.7641 26.2165C20.4349 26.2165 21.7944 24.8569 21.7944 23.1861C21.7944 22.3399 21.445 21.5746 20.8838 21.0243L21.0411 19.696H21.9907L21.9024 21.3934C21.8693 22.0289 22.0902 22.6307 22.5244 23.0883C22.9583 23.5454 23.5472 23.7972 24.1828 23.7972H26.9872C27.2214 23.7972 27.4114 23.6073 27.4114 23.3729C27.4114 23.1385 27.2213 22.9486 26.9872 22.9486H26.6607L26.9615 15.21C26.9913 14.4414 27.1987 13.6655 27.5777 12.9037L28.4135 11.223C28.5011 11.0472 28.4563 10.8343 28.3058 10.7086C28.1555 10.5828 27.9382 10.5765 27.7805 10.6938ZM19.7891 13.7584C19.9883 13.8289 20.1018 14.044 20.0474 14.2482L19.8728 14.9066L15.944 13.5507L15.6317 12.285L19.7891 13.7584ZM4.82917 6.03895C4.68481 6.03895 4.56745 5.92159 4.56745 5.77729C4.56745 5.63299 4.68481 5.51557 4.82917 5.51557H14.2156C14.3597 5.51557 14.4771 5.63299 14.4771 5.77729C14.4771 5.92159 14.3597 6.03895 14.2156 6.03895H13.7583C13.6279 6.03895 13.5047 6.09889 13.4243 6.20167C13.3438 6.30427 13.3151 6.43825 13.3463 6.56485L15.0978 13.6628L14.6718 13.899C13.6719 14.4532 12.437 14.4287 11.449 13.8351C10.6453 13.3521 9.75859 13.0305 8.83783 12.8752V6.88741H12.3863C12.6206 6.88741 12.8105 6.69751 12.8105 6.46315C12.8105 6.22879 12.6206 6.03889 12.3863 6.03889L4.82917 6.03895ZM6.14509 6.88747H7.98937V12.7798C7.85479 12.7726 7.72003 12.7662 7.58473 12.7662C6.74893 12.7662 5.92237 12.9091 5.13985 13.1784L6.14509 6.88747ZM7.28173 25.368C4.53841 25.368 2.30647 23.136 2.30647 20.3926C2.30647 17.6493 4.53841 15.4174 7.28173 15.4174C10.0252 15.4174 12.257 17.6493 12.257 20.3926C12.257 23.136 10.0252 25.368 7.28173 25.368ZM12.8975 21.9121C13.0291 21.4267 13.1056 20.919 13.1056 20.3926C13.1056 17.1814 10.4931 14.5689 7.28179 14.5689C5.70175 14.5689 4.26871 15.2035 3.21847 16.2286C3.12175 16.0803 3.07387 15.9065 3.08281 15.7239C3.09511 15.4749 3.21469 15.2415 3.41095 15.0836C4.60531 14.1226 6.04861 13.6147 7.58473 13.6147C8.79523 13.6147 9.98029 13.9425 11.012 14.5624C12.2596 15.3121 13.8196 15.3424 15.0834 14.6411L15.6278 14.3392L20.6172 16.0612L20.4466 17.504H14.5631C14.4143 17.1294 14.2388 16.7649 14.0301 16.4173C13.9097 16.2165 13.6487 16.1511 13.448 16.2718C13.247 16.3924 13.182 16.6531 13.3025 16.854C13.9215 17.8851 14.2487 19.0693 14.2487 20.2787C14.2487 20.5131 14.4386 20.703 14.6729 20.703C14.9072 20.703 15.0972 20.5131 15.0972 20.2787C15.0972 20.0836 15.0875 19.8895 15.0726 19.696H20.1869L20.0955 20.468C19.693 20.27 19.2422 20.1556 18.7641 20.1556C17.5484 20.1556 16.5005 20.8767 16.0181 21.9122H12.8975V21.9121ZM20.9459 23.1861C20.9459 24.3892 19.9673 25.368 18.7642 25.368C17.561 25.368 16.5821 24.3892 16.5821 23.1861C16.5821 21.9829 17.561 21.0041 18.7642 21.0041C19.9673 21.0041 20.9459 21.9829 20.9459 23.1861ZM14.9578 18.8475C14.9256 18.6811 14.8879 18.5161 14.8445 18.3525H23.6597C23.7961 18.3525 23.9071 18.4635 23.9071 18.6C23.9071 18.7364 23.7961 18.8475 23.6597 18.8475H14.9578ZM26.8181 12.5257C26.3853 13.3957 26.1484 14.2876 26.1136 15.1769L25.8116 22.9486H24.1828C23.7824 22.9486 23.4122 22.7907 23.1398 22.504C22.8675 22.2171 22.7288 21.8382 22.7498 21.4376L22.8404 19.696H23.6597C24.264 19.696 24.7556 19.2043 24.7556 18.6C24.7556 17.9957 24.264 17.504 23.6597 17.504H23.1622C23.7223 15.6117 25.033 13.7973 26.8115 12.4729L26.8637 12.4341L26.8181 12.5257Z" fill="#333333"/>
</svg>
