<svg width="80" height="80" viewBox="0 0 80 80" fill="none" xmlns="http://www.w3.org/2000/svg">
<path d="M76.3249 38.748L74.2372 32.4854H66.3047V38.748C66.3047 39.4397 66.8655 40.0005 67.5572 40.0005H77.5774L76.3249 38.748Z" fill="#5D5360"/>
<path d="M74.2372 32.4854H66.3047V36.2429H75.4897L74.2372 32.4854Z" fill="#4B3F4E"/>
<path d="M66.3158 53.8579H66.3033C65.6561 53.8579 65.1377 54.3826 65.1377 55.0298C65.1377 55.677 65.6686 56.2017 66.3158 56.2017C66.963 56.2017 67.4877 55.677 67.4877 55.0298C67.4877 54.3826 66.963 53.8579 66.3158 53.8579Z" fill="#333333"/>
<path d="M78.0944 40.5187L76.3232 38.7473L72.5657 27.4746H61.293V53.7776L77.5757 53.7783C78.2674 53.7783 78.8282 53.2175 78.8282 52.5258V42.2901C78.8282 41.6257 78.5643 40.9885 78.0944 40.5187Z" fill="#DBD9DC"/>
<path d="M2.42438 19.96H60.0404C60.7322 19.96 61.2929 20.5207 61.2929 21.2125V50.0205H2.42438C1.73266 50.0205 1.17188 49.4597 1.17188 48.768V21.2123C1.17188 20.5206 1.73266 19.96 2.42438 19.96Z" fill="#3A7C97"/>
<path d="M61.2929 50.0203H2.42438C1.73266 50.0203 1.17188 49.4595 1.17188 48.7678V45.0103H61.2929V50.0203Z" fill="#7DA5D7"/>
<path d="M66.3013 55.0305H6.18024C5.48852 55.0305 4.92773 54.4697 4.92773 53.778V50.0205H66.3013V55.0305Z" fill="#6F6571"/>
<path d="M66.3024 60.0393C69.069 60.0393 71.3117 57.7965 71.3117 55.0299C71.3117 52.2633 69.069 50.0205 66.3024 50.0205C63.5357 50.0205 61.293 52.2633 61.293 55.0299C61.293 57.7965 63.5357 60.0393 66.3024 60.0393Z" fill="#4B3F4E"/>
<path d="M24.9674 60.0393C27.734 60.0393 29.9768 57.7965 29.9768 55.0299C29.9768 52.2633 27.734 50.0205 24.9674 50.0205C22.2008 50.0205 19.958 52.2633 19.958 55.0299C19.958 57.7965 22.2008 60.0393 24.9674 60.0393Z" fill="#4B3F4E"/>
<path d="M14.9479 60.0393C17.7145 60.0393 19.9572 57.7965 19.9572 55.0299C19.9572 52.2633 17.7145 50.0205 14.9479 50.0205C12.1813 50.0205 9.93848 52.2633 9.93848 55.0299C9.93848 57.7965 12.1813 60.0393 14.9479 60.0393Z" fill="#4B3F4E"/>
<path d="M14.9623 53.8589H14.9497C14.3025 53.8589 13.7842 54.3836 13.7842 55.0308C13.7842 55.678 14.3151 56.2026 14.9623 56.2026C15.6095 56.2026 16.1342 55.678 16.1342 55.0308C16.1342 54.3836 15.6095 53.8589 14.9623 53.8589Z" fill="#333333"/>
<path d="M24.9818 53.8589H24.9693C24.3222 53.8589 23.8037 54.3836 23.8037 55.0308C23.8037 55.678 24.3346 56.2026 24.9818 56.2026C25.629 56.2026 26.1537 55.678 26.1537 55.0308C26.1537 54.3836 25.629 53.8589 24.9818 53.8589Z" fill="#333333"/>
<path d="M78.9231 39.6895L77.3475 38.1139L74.1733 28.5911C74.6469 28.4406 74.9902 27.9976 74.9902 27.4743C74.9902 26.8271 74.4655 26.3025 73.8183 26.3025H62.465V21.212C62.465 19.8751 61.3775 18.7876 60.0406 18.7876H2.42438C1.0875 18.7878 0 19.8754 0 21.212V48.7673C0 50.1042 1.0875 51.1917 2.42438 51.1917H3.75751V53.7767C3.75751 55.1136 4.84501 56.2011 6.18189 56.2011H8.88049C9.42986 59.0511 11.9416 61.2111 14.9496 61.2111C17.0093 61.2111 18.8357 60.1977 19.9596 58.6442C21.0836 60.1977 22.91 61.2111 24.9697 61.2111C27.9777 61.2111 30.4896 59.0511 31.0388 56.2011H60.2339C60.7833 59.0511 63.295 61.2111 66.303 61.2111C69.7117 61.2111 72.4848 58.4378 72.4848 55.0292C72.4848 55.0024 72.4831 54.9759 72.4828 54.9492H77.5756C78.9125 54.9492 80 53.8617 80 52.5248V42.2892C80.0002 41.3072 79.6177 40.3839 78.9231 39.6895ZM8.88049 53.8575H6.18189C6.13736 53.8575 6.10126 53.8214 6.10126 53.7769V51.1919H10.1083C9.50205 51.9553 9.07189 52.8641 8.88049 53.8575ZM14.9496 58.8678C12.8332 58.8678 11.1114 57.146 11.1114 55.0297C11.1114 52.9214 12.8203 51.2052 14.9257 51.192H14.9738C17.0791 51.205 18.788 52.9213 18.788 55.0297C18.7879 57.1458 17.066 58.8678 14.9496 58.8678ZM24.9699 58.8678C22.8535 58.8678 21.1316 57.146 21.1316 55.0297C21.1316 52.9214 22.8405 51.2052 24.9458 51.192H24.994C27.0993 51.205 28.8082 52.9213 28.8082 55.0297C28.808 57.1458 27.0863 58.8678 24.9699 58.8678ZM60.234 53.8575H31.039C30.8476 52.8641 30.4174 51.9552 29.811 51.1917H52.5253C53.1725 51.1917 53.6971 50.667 53.6971 50.0198C53.6971 49.3727 53.1725 48.848 52.5253 48.848H2.42438C2.37985 48.848 2.34376 48.8119 2.34376 48.7673V21.212C2.34376 21.1674 2.37985 21.1314 2.42438 21.1314H60.0404C60.085 21.1314 60.1211 21.1674 60.1211 21.212V48.8481H57.5359C56.8887 48.8481 56.364 49.3728 56.364 50.02C56.364 50.6672 56.8887 51.1919 57.5359 51.1919H61.4618C60.8554 51.9553 60.4254 52.8641 60.234 53.8575ZM75.1148 38.8275H67.5556C67.5111 38.8275 67.475 38.7914 67.475 38.7469V33.6561H73.3911L75.1148 38.8275ZM66.3031 58.8678C64.1867 58.8678 62.465 57.146 62.465 55.0297C62.465 52.9214 64.1739 51.2052 66.2792 51.192H66.3033C66.3059 51.192 66.3086 51.1917 66.3114 51.1916C68.424 51.1959 70.1416 52.9159 70.1416 55.0295C70.1412 57.1458 68.4195 58.8678 66.3031 58.8678ZM77.6564 45.0906H76.3233C75.6761 45.0906 75.1514 45.6153 75.1514 46.2625C75.1514 46.9097 75.6761 47.4344 76.3233 47.4344H77.6564V52.5252C77.6564 52.5697 77.6203 52.6058 77.5758 52.6058H71.9895C71.045 50.3984 68.852 48.8477 66.3031 48.8477C66.295 48.8477 66.2872 48.8483 66.279 48.8483H62.465V28.7271V28.7265C62.465 28.682 62.5011 28.6459 62.5456 28.6459H71.7211L72.6098 31.3122H66.3031C65.6559 31.3122 65.1312 31.8368 65.1312 32.484V38.7467C65.1312 40.0836 66.2187 41.1711 67.5556 41.1711H77.0903L77.2659 41.3467C77.5177 41.5986 77.6564 41.9333 77.6564 42.2894V45.0906Z" fill="#333333"/>
<path d="M6.17969 46.1826H56.2806C56.9278 46.1826 57.4525 45.6579 57.4525 45.0107C57.4525 44.3636 56.9278 43.8389 56.2806 43.8389H6.17969C5.5325 43.8389 5.00781 44.3636 5.00781 45.0107C5.00781 45.6579 5.5325 46.1826 6.17969 46.1826Z" fill="#333333"/>
</svg>
