<svg width="30" height="29" viewBox="0 0 30 29" fill="none" xmlns="http://www.w3.org/2000/svg">
<g clip-path="url(#clip0_15_2110)">
<path d="M7.70303 6.95801H2.93038H1.96296C1.505 6.95801 1.13379 7.32927 1.13379 7.78723V18.8431C1.13379 19.3012 1.50505 19.6724 1.96296 19.6724H2.93038H5.28063C5.27889 19.6333 5.27766 19.5942 5.27766 19.5547C5.27766 18.1808 6.39135 17.0671 7.76522 17.0671C9.13898 17.0671 10.2527 18.1808 10.2527 19.5547C10.2527 19.5942 10.2514 19.6333 10.2497 19.6724H20.3519C20.35 19.6333 20.3488 19.5942 20.3488 19.5547C20.3488 18.1808 21.4625 17.0671 22.8363 17.0671C24.2101 17.0671 25.3238 18.1808 25.3238 19.5547C25.3238 19.5942 25.3226 19.6333 25.3208 19.6724H27.0692H28.0366C28.4946 19.6724 28.8658 19.3012 28.8658 18.8431V9.86689C28.865 8.26012 27.5624 6.95801 25.9556 6.95801H22.5603H9.21023" fill="#FF5357"/>
<path d="M2.76569 18.8431V7.78723C2.76569 7.32922 3.13695 6.95801 3.59486 6.95801H3.37667H2.40924C1.95129 6.95801 1.58008 7.32927 1.58008 7.78723V18.8431C1.58008 19.3012 1.95134 19.6724 2.40924 19.6724H3.37667H3.59486C3.13695 19.6723 2.76569 19.3011 2.76569 18.8431Z" fill="#ED3A47"/>
<path d="M22.8371 22.0423C24.2108 22.0423 25.3245 20.9286 25.3245 19.5548C25.3245 18.181 24.2108 17.0674 22.8371 17.0674C21.4633 17.0674 20.3496 18.181 20.3496 19.5548C20.3496 20.9286 21.4633 22.0423 22.8371 22.0423Z" fill="#5B5E5E"/>
<path d="M7.76576 22.0423C9.13954 22.0423 10.2532 20.9286 10.2532 19.5548C10.2532 18.181 9.13954 17.0674 7.76576 17.0674C6.39199 17.0674 5.27832 18.181 5.27832 19.5548C5.27832 20.9286 6.39199 22.0423 7.76576 22.0423Z" fill="#5B5E5E"/>
<path d="M22.8378 20.409C23.3097 20.409 23.6922 20.0265 23.6922 19.5546C23.6922 19.0827 23.3097 18.7002 22.8378 18.7002C22.3659 18.7002 21.9834 19.0827 21.9834 19.5546C21.9834 20.0265 22.3659 20.409 22.8378 20.409Z" fill="#E6E9ED"/>
<path d="M7.7665 20.409C8.23837 20.409 8.62089 20.0265 8.62089 19.5546C8.62089 19.0827 8.23837 18.7002 7.7665 18.7002C7.29463 18.7002 6.91211 19.0827 6.91211 19.5546C6.91211 20.0265 7.29463 20.409 7.7665 20.409Z" fill="#E6E9ED"/>
<path d="M18.7543 9.03125H11.8906V19.6725H18.7543V9.03125Z" fill="#97D3EE"/>
<path d="M15.3226 9.03125H11.8906V19.6725H15.3226V9.03125Z" fill="#52B2CC"/>
<path d="M18.7543 14.8242H11.8906V19.5549H18.7543V14.8242Z" fill="#EF4556"/>
<path d="M15.3226 14.8242H11.8906V19.5549H15.3226V14.8242Z" fill="#E23740"/>
<path d="M25.608 14.8234H28.8655V9.65918H22.8359V14.8234H24.1009" fill="#97D3EE"/>
<path d="M22.8359 9.65918H18.7539V14.8233H22.8359V9.65918Z" fill="#52B2CC"/>
<path d="M11.8476 9.65918H7.76562V14.8233H11.8476V9.65918Z" fill="#97D3EE"/>
<path d="M7.76623 9.65918H3.68359V14.8233H7.76623V9.65918Z" fill="#52B2CC"/>
<path d="M1.13379 17.9452V16.2656H2.00994C2.47371 16.2656 2.84973 16.6416 2.84973 17.1054C2.84973 17.5692 2.47377 17.9452 2.00994 17.9452H1.13379V17.9452Z" fill="#F98B38"/>
<path d="M28.8659 17.9452V16.2656H27.5751C27.1114 16.2656 26.7354 16.6416 26.7354 17.1054C26.7354 17.5692 27.1113 17.9452 27.5751 17.9452H28.8659V17.9452Z" fill="#97D3EE"/>
<path d="M6.85852 19.5549C6.85852 18.3854 7.66576 17.4049 8.75316 17.139C8.56311 17.0926 8.36472 17.0674 8.16041 17.0674C6.78654 17.0674 5.67285 18.1811 5.67285 19.5549C5.67285 20.9286 6.78654 22.0425 8.16041 22.0425C8.36472 22.0425 8.56311 22.0173 8.75316 21.9708C7.66576 21.7048 6.85852 20.7243 6.85852 19.5549Z" fill="#424444"/>
<path d="M21.9816 19.5549C21.9816 18.3854 22.7888 17.4049 23.8762 17.139C23.6862 17.0926 23.4878 17.0674 23.2834 17.0674C21.9096 17.0674 20.7959 18.1811 20.7959 19.5549C20.7959 20.9286 21.9096 22.0425 23.2834 22.0425C23.4878 22.0425 23.6862 22.0173 23.8762 21.9708C22.7888 21.7048 21.9816 20.7243 21.9816 19.5549Z" fill="#424444"/>
<path d="M28.0343 17.0673C28.0343 16.6036 28.4103 16.2275 28.8741 16.2275H27.6885C27.2247 16.2275 26.8486 16.6035 26.8486 17.0673C26.8486 17.5311 27.2247 17.9071 27.6885 17.9071H28.8741C28.4104 17.9071 28.0343 17.5312 28.0343 17.0673Z" fill="#6CC6E4"/>
<path d="M29.3018 9.54125C29.1368 7.84024 27.699 6.50586 25.9557 6.50586H9.21028C8.9605 6.50586 8.75814 6.70833 8.75814 6.958C8.75814 7.20767 8.9605 7.41014 9.21028 7.41014H25.9557C27.082 7.41014 28.0333 8.17219 28.3227 9.2074H22.8364H22.8363H19.2064V9.031C19.2064 8.78127 19.004 8.57886 18.7542 8.57886H11.8903C11.6405 8.57886 11.4382 8.78133 11.4382 9.031V9.2074H7.76521H3.68286C3.43308 9.2074 3.23072 9.40987 3.23072 9.65954V14.8238C3.23072 15.0735 3.43308 15.276 3.68286 15.276H7.76521H11.4382V19.2202H10.6859C10.6834 19.1979 10.6799 19.176 10.6768 19.1538C10.6741 19.1346 10.6719 19.1153 10.6689 19.0962C10.6642 19.0662 10.6585 19.0367 10.6529 19.007C10.6497 18.9902 10.647 18.9732 10.6435 18.9565C10.6359 18.9201 10.6273 18.884 10.6184 18.8481C10.6161 18.8385 10.6141 18.8288 10.6116 18.8192C10.5999 18.774 10.5871 18.7292 10.5734 18.6849C10.5691 18.671 10.5642 18.6576 10.5597 18.6439C10.5498 18.6134 10.5397 18.5829 10.5288 18.5528C10.5225 18.5355 10.5156 18.5185 10.5089 18.5013C10.4989 18.4753 10.489 18.4493 10.4783 18.4237C10.4706 18.4054 10.4623 18.3873 10.4543 18.3692C10.4437 18.3452 10.4331 18.3212 10.4218 18.2975C10.4131 18.279 10.4038 18.2608 10.3946 18.2426C10.3831 18.2198 10.3717 18.197 10.3597 18.1745C10.3499 18.1562 10.3397 18.1381 10.3296 18.12C10.3173 18.0982 10.3049 18.0764 10.2921 18.0549C10.2814 18.0369 10.2704 18.0191 10.2593 18.0013C10.2462 17.9803 10.2328 17.9594 10.2191 17.9387C10.2075 17.9212 10.1958 17.9038 10.1839 17.8867C10.1698 17.8663 10.1553 17.846 10.1407 17.826C10.1284 17.8091 10.116 17.7924 10.1034 17.7758C10.0883 17.756 10.0728 17.7364 10.0572 17.717C10.0443 17.7009 10.0314 17.6848 10.018 17.669C10.0019 17.6497 9.98525 17.6308 9.96859 17.6119C9.95516 17.5966 9.94174 17.5813 9.92804 17.5663C9.91047 17.5472 9.89252 17.5287 9.87451 17.5101C9.86086 17.4961 9.84744 17.4818 9.83352 17.4681C9.81416 17.4489 9.7942 17.4303 9.7744 17.4117C9.76108 17.3992 9.74805 17.3864 9.73457 17.3742C9.71153 17.3533 9.68787 17.3332 9.66416 17.3132C9.6532 17.3038 9.64251 17.2941 9.63138 17.285C9.59643 17.2562 9.5608 17.2282 9.5245 17.201C9.51594 17.1946 9.50705 17.1886 9.49844 17.1823C9.4703 17.1617 9.442 17.1412 9.41314 17.1217C9.39899 17.1121 9.38445 17.103 9.37008 17.0937C9.34619 17.0781 9.32231 17.0624 9.29798 17.0474C9.28176 17.0375 9.26521 17.0281 9.24876 17.0185C9.22566 17.0049 9.20262 16.9914 9.17919 16.9785C9.16174 16.9689 9.14406 16.9598 9.12644 16.9506C9.1034 16.9385 9.08036 16.9265 9.05698 16.9149C9.03869 16.9059 9.02018 16.8974 9.00172 16.8888C8.9784 16.8779 8.95507 16.8672 8.93142 16.8569C8.91251 16.8487 8.89344 16.8408 8.87431 16.8331C8.85054 16.8233 8.82677 16.8139 8.80266 16.8048C8.7832 16.7974 8.76368 16.7903 8.74405 16.7833C8.71983 16.7748 8.69539 16.7665 8.67095 16.7586C8.65109 16.7521 8.63124 16.7459 8.61121 16.7398C8.58638 16.7323 8.56127 16.7252 8.53621 16.7184C8.51613 16.7129 8.49605 16.7075 8.47581 16.7025C8.45019 16.6961 8.42429 16.6903 8.39846 16.6846C8.37832 16.6801 8.35824 16.6756 8.33794 16.6715C8.31132 16.6662 8.28441 16.6617 8.25751 16.6571C8.2376 16.6537 8.2178 16.6501 8.19778 16.6471C8.16948 16.643 8.14095 16.6396 8.11243 16.6363C8.09352 16.6341 8.07462 16.6314 8.0556 16.6295C8.02372 16.6264 7.99151 16.6243 7.95935 16.6221C7.94335 16.6211 7.92752 16.6196 7.91141 16.6188C7.86298 16.6164 7.81437 16.615 7.76538 16.615C7.71644 16.615 7.66773 16.6164 7.61935 16.6188C7.60324 16.6196 7.58741 16.6211 7.57136 16.6221C7.5392 16.6243 7.50704 16.6263 7.47516 16.6295C7.45603 16.6314 7.43718 16.6341 7.41816 16.6363C7.3897 16.6396 7.36117 16.643 7.33298 16.6471C7.3129 16.6501 7.29299 16.6537 7.27308 16.6572C7.24623 16.6617 7.2195 16.6663 7.19288 16.6715C7.17252 16.6756 7.15233 16.6801 7.13203 16.6846C7.1063 16.6903 7.08051 16.6961 7.05507 16.7024C7.03471 16.7075 7.01452 16.713 6.99421 16.7185C6.96927 16.7253 6.94438 16.7323 6.91966 16.7396C6.89947 16.7457 6.87944 16.7521 6.85942 16.7586C6.83509 16.7664 6.81087 16.7747 6.78682 16.7832C6.76697 16.7902 6.74723 16.7974 6.72754 16.8048C6.70371 16.8138 6.68016 16.8232 6.65667 16.8328C6.63732 16.8407 6.61797 16.8487 6.59879 16.8569C6.57541 16.8671 6.55231 16.8777 6.52926 16.8884C6.51053 16.8971 6.49179 16.9059 6.47328 16.9149C6.45024 16.9262 6.42753 16.9381 6.40482 16.95C6.38687 16.9594 6.3688 16.9687 6.35113 16.9785C6.32808 16.9911 6.30549 17.0045 6.28289 17.0178C6.26606 17.0277 6.24905 17.0373 6.23244 17.0475C6.20873 17.062 6.18552 17.0772 6.16231 17.0925C6.14737 17.1022 6.1321 17.1117 6.11734 17.1217C6.08976 17.1404 6.06286 17.16 6.03602 17.1796C6.02606 17.1868 6.01582 17.1937 6.00598 17.2011C5.96985 17.2281 5.93433 17.2561 5.8996 17.2847C5.88763 17.2946 5.87617 17.305 5.86425 17.3151C5.84149 17.3345 5.81856 17.3539 5.79635 17.374C5.78232 17.3866 5.76878 17.3999 5.75508 17.4128C5.73573 17.431 5.71626 17.4491 5.69736 17.4678C5.68315 17.4819 5.66934 17.4965 5.65541 17.5109C5.63774 17.5292 5.62001 17.5474 5.60278 17.5661C5.5888 17.5813 5.57515 17.5969 5.5615 17.6124C5.54512 17.631 5.52873 17.6496 5.51273 17.6687C5.49925 17.6848 5.48616 17.7011 5.47302 17.7174C5.45758 17.7367 5.44226 17.7559 5.42738 17.7755C5.41457 17.7923 5.4021 17.8092 5.38969 17.8263C5.3752 17.8461 5.36094 17.8661 5.34695 17.8864C5.33487 17.9038 5.32307 17.9213 5.31144 17.939C5.29785 17.9595 5.28459 17.9802 5.2715 18.0011C5.26032 18.019 5.24919 18.037 5.23834 18.0552C5.2257 18.0764 5.21339 18.098 5.2012 18.1197C5.19091 18.138 5.18062 18.1563 5.17072 18.1748C5.15886 18.1971 5.14751 18.2196 5.13615 18.2422C5.12687 18.2607 5.11747 18.2791 5.10858 18.2978C5.09745 18.3212 5.08693 18.3451 5.07636 18.3688C5.0682 18.3872 5.05992 18.4054 5.0522 18.4239C5.04157 18.4492 5.03179 18.4749 5.02189 18.5006C5.01512 18.5181 5.00807 18.5353 5.00164 18.553C4.99079 18.5829 4.98089 18.6131 4.97099 18.6434C4.96646 18.6573 4.96143 18.671 4.95712 18.685C4.94336 18.7293 4.93061 18.7741 4.91892 18.8192C4.91635 18.8292 4.91433 18.8394 4.91187 18.8494C4.90309 18.8849 4.89459 18.9205 4.8871 18.9565C4.88357 18.9733 4.88083 18.9905 4.87764 19.0074C4.87205 19.0369 4.86646 19.0664 4.8617 19.0963C4.85868 19.1153 4.85639 19.1346 4.85382 19.1538C4.8508 19.176 4.84716 19.198 4.84464 19.2203H1.963C1.75511 19.2203 1.58598 19.0511 1.58598 18.8431V18.3973H2.00999C2.72231 18.3973 3.30192 17.8177 3.30192 17.1053C3.30192 16.3929 2.72237 15.8134 2.00999 15.8134H1.58598V7.78728C1.58598 7.57933 1.75517 7.4102 1.963 7.4102H7.70313C7.95291 7.4102 8.15527 7.20773 8.15527 6.95806C8.15527 6.70838 7.95291 6.50592 7.70313 6.50592H1.963C1.25644 6.50586 0.681641 7.08071 0.681641 7.78728V16.2655V17.945V18.843C0.681641 19.5496 1.25644 20.1245 1.963 20.1245H4.88145C5.14762 21.4735 6.33927 22.4943 7.76521 22.4943C9.1911 22.4943 10.3827 21.4736 10.6489 20.1245H11.8903H18.7542H19.9526C20.2188 21.4735 21.4104 22.4943 22.8363 22.4943C24.2622 22.4943 25.4539 21.4736 25.7201 20.1245H28.0366C28.7432 20.1245 29.318 19.5496 29.318 18.843V17.945V16.2655V14.8238V9.86671V9.65954C29.3179 9.61855 29.312 9.57901 29.3018 9.54125ZM2.00993 16.7177C2.22364 16.7177 2.39758 16.8916 2.39758 17.1053C2.39758 17.3191 2.22364 17.493 2.00993 17.493H1.58592V16.7177H2.00993V16.7177ZM22.3841 10.1117V14.3717H19.2063V10.1117H22.3841ZM12.3425 15.276H18.3021V19.1025H12.3425V15.276ZM18.302 9.6596V14.3717H15.7745V9.4832H18.3021V9.6596H18.302ZM14.8702 9.4832V14.3717H12.3425V9.4832H14.8702ZM4.13506 10.1117H7.31307V14.3717H4.13506V10.1117ZM11.3952 14.3717H8.21741V10.1118H11.3952V14.3717ZM7.76521 21.59C6.67558 21.59 5.78332 20.7293 5.73226 19.6521C5.7308 19.6197 5.7298 19.5873 5.7298 19.5547C5.7298 18.4324 6.64292 17.5193 7.76521 17.5193C8.88745 17.5193 9.80052 18.4324 9.80052 19.5547C9.80052 19.5873 9.79951 19.6197 9.79805 19.6521C9.74699 20.7293 8.85479 21.59 7.76521 21.59ZM22.8362 21.59C21.7473 21.59 20.8555 20.7303 20.8035 19.6541C20.8035 19.6529 20.8036 19.6518 20.8035 19.6507C20.802 19.6188 20.801 19.5869 20.801 19.5547C20.801 18.4324 21.7141 17.5193 22.8363 17.5193C23.9586 17.5193 24.8717 18.4324 24.8717 19.5547C24.8717 20.6769 23.9586 21.59 22.8362 21.59ZM28.0366 19.2202H25.757C25.7545 19.1979 25.7509 19.176 25.7479 19.1538C25.7452 19.1346 25.7429 19.1153 25.74 19.0962C25.7353 19.0663 25.7297 19.0369 25.724 19.0073C25.7208 18.9904 25.7181 18.9733 25.7146 18.9564C25.7071 18.9205 25.6986 18.8848 25.6898 18.8493C25.6873 18.8393 25.6853 18.8291 25.6828 18.8191C25.6711 18.7739 25.6583 18.7292 25.6446 18.6849C25.6402 18.6709 25.6352 18.6573 25.6307 18.6434C25.6208 18.6131 25.6109 18.5828 25.6 18.553C25.5937 18.5353 25.5866 18.5181 25.5798 18.5006C25.5699 18.4749 25.5601 18.4492 25.5495 18.4238C25.5418 18.4053 25.5334 18.3871 25.5253 18.3688C25.5147 18.345 25.5043 18.3212 25.4931 18.2978C25.4842 18.279 25.4748 18.2606 25.4655 18.2421C25.4542 18.2196 25.4429 18.197 25.431 18.1748C25.4211 18.1562 25.4108 18.1379 25.4005 18.1196C25.3883 18.098 25.3762 18.0764 25.3634 18.0552C25.3526 18.037 25.3414 18.0189 25.3302 18.0009C25.3171 17.9801 25.3039 17.9594 25.2904 17.9389C25.2787 17.9212 25.2669 17.9037 25.2548 17.8863C25.2409 17.8661 25.2265 17.8461 25.2121 17.8262C25.1997 17.8092 25.1872 17.7922 25.1744 17.7754C25.1595 17.7558 25.1442 17.7366 25.1288 17.7174C25.1156 17.701 25.1025 17.6847 25.0891 17.6686C25.0731 17.6495 25.0567 17.6309 25.0403 17.6123C25.0266 17.5968 25.0131 17.5812 24.999 17.566C24.9818 17.5473 24.9642 17.5291 24.9466 17.5109C24.9326 17.4964 24.9187 17.4818 24.9044 17.4676C24.8857 17.449 24.8663 17.4311 24.847 17.4129C24.8332 17.3999 24.8195 17.3865 24.8054 17.3737C24.7833 17.3538 24.7607 17.3346 24.7381 17.3153C24.7261 17.3052 24.7144 17.2945 24.7023 17.2845C24.6675 17.2558 24.6321 17.228 24.5959 17.2009C24.5861 17.1935 24.5758 17.1867 24.5659 17.1794C24.539 17.1599 24.5121 17.1402 24.4846 17.1215C24.4698 17.1115 24.4545 17.1021 24.4396 17.0923C24.4163 17.0771 24.3932 17.0619 24.3695 17.0473C24.3528 17.0371 24.3358 17.0275 24.319 17.0176C24.2964 17.0044 24.2738 16.9911 24.2508 16.9783C24.233 16.9685 24.215 16.9592 24.197 16.9498C24.1744 16.938 24.1516 16.9261 24.1286 16.9148C24.1101 16.9057 24.0913 16.8969 24.0724 16.8882C24.0494 16.8775 24.0263 16.8669 24.003 16.8568C23.9838 16.8484 23.9645 16.8405 23.9451 16.8326C23.9217 16.823 23.898 16.8135 23.8743 16.8046C23.8546 16.7971 23.8349 16.7899 23.8151 16.7829C23.791 16.7744 23.7668 16.7662 23.7424 16.7583C23.7225 16.7518 23.7024 16.7455 23.6822 16.7395C23.6575 16.732 23.6326 16.725 23.6076 16.7182C23.5874 16.7127 23.5673 16.7073 23.547 16.7022C23.5214 16.6959 23.4957 16.69 23.4699 16.6844C23.4496 16.6799 23.4294 16.6753 23.409 16.6713C23.3825 16.666 23.3557 16.6615 23.3288 16.6569C23.3089 16.6536 23.289 16.6499 23.2689 16.6469C23.2407 16.6428 23.2122 16.6394 23.1837 16.6361C23.1647 16.6338 23.1459 16.6312 23.1267 16.6293C23.0949 16.6262 23.0627 16.624 23.0305 16.6219C23.0145 16.6209 22.9987 16.6193 22.9826 16.6186C22.9342 16.6162 22.8856 16.6148 22.8366 16.6148C22.7876 16.6148 22.7389 16.6162 22.6905 16.6186C22.6745 16.6193 22.6587 16.6209 22.6426 16.6219C22.6104 16.624 22.5782 16.6261 22.5464 16.6293C22.5273 16.6311 22.5085 16.6338 22.4895 16.6361C22.461 16.6394 22.4324 16.6428 22.4042 16.6469C22.3842 16.6499 22.3644 16.6535 22.3444 16.6569C22.3175 16.6615 22.2907 16.666 22.264 16.6713C22.2438 16.6753 22.2236 16.6799 22.2035 16.6843C22.1776 16.69 22.1518 16.6959 22.1262 16.7022C22.1059 16.7073 22.0858 16.7127 22.0657 16.7182C22.0406 16.7251 22.0156 16.732 21.9907 16.7395C21.9707 16.7456 21.9508 16.7519 21.931 16.7583C21.9065 16.7663 21.8821 16.7746 21.8579 16.7831C21.8383 16.79 21.8187 16.7971 21.7992 16.8046C21.7752 16.8137 21.7514 16.8232 21.7278 16.8329C21.7086 16.8407 21.6896 16.8485 21.6706 16.8568C21.6469 16.867 21.6236 16.8777 21.6003 16.8886C21.5818 16.8972 21.5633 16.9058 21.545 16.9148C21.5217 16.9262 21.4986 16.9383 21.4756 16.9504C21.458 16.9597 21.4402 16.9687 21.4228 16.9783C21.3994 16.9913 21.3764 17.0048 21.3533 17.0184C21.3369 17.028 21.3203 17.0374 21.304 17.0473C21.2797 17.0622 21.2559 17.0779 21.2319 17.0935C21.2176 17.1029 21.2031 17.1119 21.1889 17.1215C21.1601 17.141 21.132 17.1613 21.104 17.1819C21.0952 17.1883 21.0862 17.1944 21.0775 17.2009C21.0412 17.2281 21.0056 17.2561 20.9706 17.2849C20.9595 17.2941 20.9489 17.3038 20.9379 17.313C20.9141 17.3331 20.8905 17.3533 20.8674 17.3741C20.854 17.3863 20.8409 17.3991 20.8276 17.4115C20.8077 17.4302 20.7879 17.4487 20.7685 17.468C20.7546 17.4818 20.7412 17.496 20.7275 17.51C20.7095 17.5286 20.6914 17.5472 20.674 17.5662C20.6602 17.5812 20.6469 17.5965 20.6333 17.6118C20.6167 17.6306 20.6001 17.6495 20.5839 17.6688C20.5706 17.6847 20.5576 17.7008 20.5446 17.717C20.5291 17.7364 20.5136 17.7558 20.4985 17.7756C20.4859 17.7921 20.4735 17.809 20.4612 17.8259C20.4466 17.8459 20.4322 17.8661 20.418 17.8864C20.4061 17.9037 20.3944 17.9211 20.3829 17.9385C20.3692 17.9592 20.3558 17.9801 20.3426 18.0012C20.3316 18.0189 20.3205 18.0367 20.3098 18.0547C20.297 18.0762 20.2847 18.0979 20.2725 18.1196C20.2622 18.1379 20.252 18.156 20.2421 18.1745C20.2302 18.1969 20.2189 18.2195 20.2075 18.242C20.1983 18.2605 20.189 18.2789 20.1801 18.2975C20.169 18.321 20.1584 18.3448 20.1478 18.3687C20.1398 18.387 20.1315 18.4051 20.1237 18.4236C20.113 18.449 20.1032 18.4749 20.0933 18.5007C20.0865 18.5181 20.0795 18.5352 20.0732 18.5527C20.0623 18.5825 20.0525 18.6128 20.0426 18.643C20.0381 18.6569 20.033 18.6707 20.0287 18.6848C20.0149 18.7291 20.0021 18.7738 19.9905 18.819C19.9879 18.829 19.9859 18.8392 19.9835 18.8492C19.9747 18.8847 19.9662 18.9203 19.9587 18.9563C19.9552 18.9732 19.9524 18.9904 19.9492 19.0075C19.9436 19.0369 19.9379 19.0663 19.9334 19.096C19.9303 19.1152 19.928 19.1347 19.9254 19.154C19.9224 19.176 19.9189 19.1979 19.9163 19.22H19.207V15.276H22.837H22.8371H24.1018C24.3516 15.276 24.554 15.0735 24.554 14.8239C24.554 14.5741 24.3516 14.3717 24.1018 14.3717H23.2892V10.1118H28.4139V14.3717H25.6085C25.3588 14.3717 25.1564 14.5742 25.1564 14.8239C25.1564 15.0736 25.3588 15.276 25.6085 15.276H28.4139V15.8133H27.5753C26.863 15.8133 26.2834 16.3929 26.2834 17.1053C26.2834 17.8177 26.8629 18.3972 27.5753 18.3972H28.4139V18.8431C28.4137 19.0511 28.2445 19.2202 28.0366 19.2202ZM28.4137 17.4929H27.5751C27.3614 17.4929 27.1875 17.319 27.1875 17.1052C27.1875 16.8914 27.3614 16.7176 27.5751 16.7176H28.4137V17.4929Z" fill="#231F20"/>
<path d="M7.76552 18.248C7.04508 18.248 6.45898 18.8341 6.45898 19.5546C6.45898 20.275 7.04508 20.8611 7.76552 20.8611C8.48595 20.8611 9.07205 20.275 9.07205 19.5546C9.07205 18.8341 8.48595 18.248 7.76552 18.248ZM7.76552 19.9568C7.5437 19.9568 7.36327 19.7764 7.36327 19.5546C7.36327 19.3328 7.5437 19.1523 7.76552 19.1523C7.98734 19.1523 8.16777 19.3328 8.16777 19.5546C8.16777 19.7764 7.98734 19.9568 7.76552 19.9568Z" fill="#231F20"/>
<path d="M22.8368 18.248C22.1164 18.248 21.5303 18.8341 21.5303 19.5546C21.5303 20.275 22.1164 20.8611 22.8368 20.8611C23.5572 20.8611 24.1433 20.275 24.1433 19.5546C24.1433 18.8341 23.5572 18.248 22.8368 18.248ZM22.8368 19.9568C22.615 19.9568 22.4346 19.7764 22.4346 19.5546C22.4346 19.3328 22.615 19.1523 22.8368 19.1523C23.0586 19.1523 23.2391 19.3328 23.2391 19.5546C23.2391 19.7764 23.0586 19.9568 22.8368 19.9568Z" fill="#231F20"/>
</g>
<defs>
<clipPath id="clip0_15_2110">
<rect width="28.6364" height="28.6364" fill="white" transform="translate(0.681641 0.181641)"/>
</clipPath>
</defs>
</svg>
