<svg width="128" height="128" viewBox="0 0 128 128" fill="none" xmlns="http://www.w3.org/2000/svg">
<path d="M64.001 128C99.3477 128 128.002 99.3462 128.002 64C128.002 28.6538 99.3477 0 64.001 0C28.6542 0 0 28.6538 0 64C0 99.3462 28.6542 128 64.001 128Z" fill="#D6E3F0"/>
<mask id="mask0_10_36246" style="mask-type:luminance" maskUnits="userSpaceOnUse" x="0" y="0" width="129" height="128">
<path d="M64.001 128C99.3477 128 128.002 99.3462 128.002 64C128.002 28.6538 99.3477 0 64.001 0C28.6542 0 0 28.6538 0 64C0 99.3462 28.6542 128 64.001 128Z" fill="white"/>
</mask>
<g mask="url(#mask0_10_36246)">
<path d="M108.493 139.734H16.5254L17.2099 137.827C20.9257 127.413 25.1795 117.097 29.8243 107.172C31.0466 104.532 33.4424 102.772 36.2293 102.38H36.4249H54.1241V96.9534C49.9682 95.4866 46.2523 92.9931 43.3188 89.6684C41.3142 89.6684 39.8474 88.935 38.8695 88.3483C38.5273 89.2284 37.9405 90.2551 36.8649 90.6462C35.6426 91.0863 34.2247 90.6951 32.5134 89.4239C32.3178 89.2773 32.1712 89.2284 32.0734 89.1795C31.6333 89.4728 31.0466 91.4285 30.9488 93.0909V93.3353L30.851 93.5309C30.0199 95.6333 28.602 98.0779 26.6463 97.6378C24.5927 97.1978 22.8815 94.7532 24.4949 70.6493C26.4018 42.5363 30.851 31.3399 33.2957 27.1352C40.7274 12.9564 56.0798 11.783 62.387 11.9297C68.6942 11.783 84.0467 12.9564 91.4784 27.1352C93.9719 31.291 98.3723 42.4874 100.279 70.6493C101.942 94.8021 100.23 97.1978 98.1278 97.6378C96.1721 98.0779 94.7542 95.6333 93.923 93.5309L93.8253 93.3353V93.0909C93.7275 91.3796 93.1897 89.4728 92.7007 89.1795C92.6518 89.1795 92.5051 89.2773 92.2607 89.4239C90.5494 90.6951 89.0826 91.0863 87.9092 90.6462C86.7847 90.2551 86.1979 89.2772 85.9046 88.3483C85.0734 88.8372 83.9 89.4728 82.3354 89.6195C81.9443 90.0595 81.602 90.4507 81.2109 90.8418C80.9175 91.1352 80.6242 91.4285 80.3308 91.7219C79.6952 92.2597 79.0596 92.7975 78.3751 93.3353C75.9304 95.1443 73.2413 96.5133 70.3566 97.3934V102.429H88.7893C91.5762 102.82 93.9719 104.581 95.1943 107.221C99.8391 117.146 104.093 127.413 107.809 137.876L108.493 139.734ZM20.6324 136.801H104.435C100.915 127.12 96.9544 117.586 92.6029 108.345C91.8206 106.634 90.2561 105.461 88.4959 105.216H67.4719V95.0465L68.5476 94.7532C71.4811 94.0198 74.2192 92.6997 76.6638 90.8907C77.2505 90.4507 77.8372 89.9618 78.3751 89.4728C78.6684 89.2284 78.9129 88.9839 79.1573 88.6905C79.5974 88.2505 80.0374 87.7616 80.5263 87.2238L80.9664 86.7349H81.602C83.0199 86.686 83.9978 86.0504 84.78 85.5615C85.4645 85.1214 86.2468 84.6325 87.1758 84.9747C87.567 85.1214 88.1048 85.5126 88.3492 86.4415C88.5937 87.4683 88.7893 87.7616 88.8871 87.8594C88.8871 87.8594 89.3271 87.9083 90.5494 87.0282C91.9673 86.0015 93.1408 86.1481 93.8742 86.4904C96.0255 87.5171 96.5633 91.1841 96.661 92.6019C96.9055 93.1397 97.15 93.6776 97.3944 94.1176C97.8345 92.2597 98.4212 86.8327 97.2967 70.796C95.341 42.1451 90.745 31.731 88.8382 28.553L88.7893 28.5042C82.0909 15.6944 68.0097 14.6676 62.2893 14.8143H62.2404H62.1915C56.471 14.6676 42.3898 15.6944 35.6915 28.5042L35.6426 28.553C33.7357 31.731 29.1887 42.1451 27.1841 70.796C26.1084 86.8327 26.6462 92.2597 27.0863 94.1176C27.3307 93.6776 27.6241 93.1398 27.8197 92.6508C27.9175 91.233 28.4553 87.566 30.6066 86.5393C31.34 86.1971 32.5134 86.0015 33.9313 87.0771C35.1536 87.9572 35.6426 87.9083 35.6426 87.9083C35.7403 87.8594 35.887 87.5171 36.1804 86.4904C36.4249 85.5614 36.9627 85.1703 37.3538 85.0236C38.2828 84.6325 39.0651 85.1703 39.7496 85.6103C40.5808 86.1482 41.6564 86.8327 43.2699 86.7838C43.3677 86.7838 43.4655 86.7838 43.5143 86.7838L44.2966 86.686L44.7856 87.2727C47.6702 90.744 51.435 93.2375 55.7376 94.5576L56.7643 94.851V105.265H36.2782C34.518 105.558 33.0023 106.732 32.1712 108.394C28.0641 117.586 24.1038 127.12 20.6324 136.801Z" fill="white"/>
</g>
<mask id="mask1_10_36246" style="mask-type:luminance" maskUnits="userSpaceOnUse" x="0" y="0" width="129" height="128">
<path d="M64.001 128C99.3477 128 128.002 99.3462 128.002 64C128.002 28.6538 99.3477 0 64.001 0C28.6542 0 0 28.6538 0 64C0 99.3462 28.6542 128 64.001 128Z" fill="white"/>
</mask>
<g mask="url(#mask1_10_36246)">
<path d="M35.7412 26.1584C35.7412 26.1584 28.505 32.6121 25.9137 70.6992C23.3224 108.786 29.434 92.9452 29.434 92.9452C29.434 92.9452 29.874 85.7091 33.2477 88.2027C36.6213 90.6473 37.3058 88.496 37.7458 86.8337C38.1858 85.1224 39.6526 88.3493 43.5152 88.2027C47.3777 88.056 45.5198 83.3623 48.0133 82.6289C50.458 81.8956 62.2412 66.4945 62.0456 64.0499C61.8501 61.6542 62.0456 21.1224 62.0456 21.1224L35.7412 26.1584Z" fill="#562800"/>
<path d="M64.9801 13.5442C64.9801 13.5442 23.7144 7.87266 31.6839 58.3784C36.0354 73.0461 39.2623 76.5174 39.2623 76.5174L65.3712 49.4311L64.9801 13.5442Z" fill="#562800"/>
<path d="M89.0373 26.1584C89.0373 26.1584 96.2735 32.6121 98.8648 70.6992C101.456 108.786 95.3445 92.9452 95.3445 92.9452C95.3445 92.9452 94.9045 85.7091 91.5309 88.2027C88.1572 90.6473 87.4728 88.496 87.0327 86.8337C86.5927 85.1224 85.1259 88.3493 81.2633 88.2027C77.4008 88.056 79.2587 83.3623 76.7652 82.6289C74.3205 81.8956 62.5373 66.4945 62.7329 64.0499C62.9284 61.6542 62.7329 21.1224 62.7329 21.1224L89.0373 26.1584Z" fill="#562800"/>
<path d="M59.7993 13.5443C59.7993 13.5443 101.065 7.87278 93.0955 58.3785C88.744 73.0462 85.5171 76.5176 85.5171 76.5176L59.4082 49.4312L59.7993 13.5443Z" fill="#562800"/>
<path d="M68.9395 84.2904H55.543V107.465H68.9395V84.2904Z" fill="#F9C9AA"/>
<path d="M95.7328 116.804C95.7328 109.666 89.8656 103.799 82.7272 103.799H42.2438C35.1054 103.799 29.2383 109.666 29.2383 116.804V138.268H95.7328V116.804Z" fill="#EFEFEF"/>
<path d="M42.7319 73.8283C41.2162 75.4906 39.065 76.4685 36.7181 76.4685C32.0245 76.4685 28.2598 70.3569 28.2598 65.3699C28.2598 60.334 32.0734 58.2805 36.7181 58.2805C38.9183 58.2805 40.9228 59.1606 42.3896 60.6274L42.7319 73.8283Z" fill="#F9D6BE"/>
<path d="M82.2402 73.8283C83.7559 75.4906 85.9072 76.4685 88.254 76.4685C92.9477 76.4685 96.7124 70.3569 96.7124 65.3699C96.7124 60.334 92.8988 58.2805 88.254 58.2805C86.0539 58.2805 84.0493 59.1606 82.5825 60.6274L82.2402 73.8283Z" fill="#F9C9AA"/>
<path d="M38.1895 44.1506V72.3125C38.1895 85.9046 49.1904 96.9543 62.8315 96.9543C76.4238 96.9543 87.4736 85.9535 87.4736 72.3125V46.3507L62.2937 29.4829L38.1895 44.1506Z" fill="#F9D6BE"/>
<path d="M87.4212 72.3611V44.1992L69.3308 34.3718H61.6057C61.6057 34.3718 61.6057 62.9738 61.6057 63.4138C61.6057 63.8539 61.3612 64.3428 61.3612 64.3428L55.4452 75.3436C55.4452 75.3436 54.5651 76.4681 55.8363 76.4681C56.9119 76.4681 60.1878 76.4681 61.2634 76.4681C61.6057 76.4681 61.6057 76.8103 61.6057 76.8103V96.905C61.9968 96.905 62.388 96.9539 62.828 96.9539C76.4203 96.9539 87.4212 85.9532 87.4212 72.3611Z" fill="#F9C9AA"/>
<path d="M54.5703 82.9713L70.9984 80.38C70.9984 80.38 70.9984 87.9094 62.2954 89.0828C55.4993 90.0607 54.5703 82.9713 54.5703 82.9713Z" fill="#A0174D"/>
<path d="M71.0461 80.4286C71.0461 80.4286 70.8505 82.2376 70.655 82.5798C70.4105 83.0688 63.81 84.9756 57.5518 84.8289C55.645 84.78 55.2539 82.8732 55.2539 82.8732L71.0461 80.4286Z" fill="white"/>
<path d="M55.7897 53.8316C55.7408 53.8316 55.6919 53.8316 55.643 53.8316C51.6827 52.4137 48.2603 53.0493 46.109 53.8316C45.9134 53.8805 45.7179 53.7827 45.669 53.636C45.6201 53.4405 45.7179 53.2449 45.8645 53.196C48.1625 52.3649 51.7316 51.6804 55.8875 53.196C56.083 53.2449 56.1808 53.4894 56.083 53.636C56.083 53.7338 55.9364 53.8316 55.7897 53.8316Z" fill="#301200"/>
<path d="M79.2096 53.8316C79.1607 53.8316 79.1118 53.8316 79.0629 53.8316C75.1026 52.4137 71.6802 53.0493 69.5289 53.8316C69.3333 53.8805 69.1378 53.7827 69.0889 53.636C69.04 53.4405 69.1378 53.2449 69.2844 53.196C71.5824 52.3649 75.1515 51.6804 79.3074 53.196C79.5029 53.2449 79.6007 53.4894 79.5029 53.636C79.5029 53.7338 79.3563 53.8316 79.2096 53.8316Z" fill="#301200"/>
<path d="M41.169 46.4977C41.169 46.4977 40.729 49.5779 39.1644 60.4809C38.8711 62.4366 38.1866 67.3747 38.1866 67.3747V58.3296L37.4043 58.2807L38.1866 44.1509L41.0223 43.0264L41.169 46.4977Z" fill="#40220F"/>
<path d="M84.1957 45.4215C84.1957 45.4215 84.929 49.5773 86.4936 60.4803C86.787 62.436 87.4714 67.3741 87.4714 67.3741V58.329L88.2537 58.2801L87.4714 44.1503H82.4355L84.1957 45.4215Z" fill="#40220F"/>
<path d="M43.1752 113.431C44.202 111.182 43.9575 108.689 42.7352 106.733L45.571 108.053V103.799H36.428C34.2278 104.093 32.1743 105.559 31.1475 107.76C26.4538 117.734 22.249 127.903 18.582 138.268H32.8099C35.8902 129.859 39.3616 121.596 43.1752 113.431Z" fill="#EFEFEF"/>
<path d="M93.8766 107.76C92.8009 105.511 90.7963 104.093 88.5961 103.799H79.4531V108.053L82.2889 106.733C81.0177 108.64 80.7732 111.182 81.8489 113.431C85.6625 121.547 89.1339 129.859 92.2631 138.268H106.491C102.775 127.903 98.5703 117.734 93.8766 107.76Z" fill="#EFEFEF"/>
<path d="M50.9459 56.5692C50.3592 56.5692 49.8703 56.7647 49.3814 57.107C48.4525 56.7647 47.8169 55.9336 47.8169 55.9336C47.8169 55.9336 47.5724 55.7869 47.5724 56.178C47.5724 56.4714 47.768 57.7426 48.1591 58.5248C47.7191 59.356 47.4746 60.3828 47.4746 61.5073C47.4746 64.2453 49.0392 66.4943 50.9459 66.4943C52.8527 66.4943 54.4173 64.2453 54.4173 61.5073C54.4173 58.8182 52.8527 56.5692 50.9459 56.5692Z" fill="#301200"/>
<path d="M74.3191 56.5692C73.7813 56.5692 73.2923 56.7158 72.8523 57.0092C72.0211 56.6181 71.4833 55.9336 71.4833 55.9336C71.4833 55.9336 71.2388 55.7869 71.2388 56.178C71.2388 56.4225 71.3855 57.4492 71.6789 58.2315C71.1411 59.1116 70.7988 60.285 70.7988 61.5073C70.7988 64.2453 72.3634 66.4943 74.2702 66.4943C76.177 66.4943 77.7415 64.2453 77.7415 61.5073C77.7904 58.8182 76.2748 56.5692 74.3191 56.5692Z" fill="#301200"/>
<path d="M68.9395 103.799C68.9395 103.799 65.957 110.497 62.2412 110.497C58.5254 110.497 55.543 103.799 55.543 103.799C55.543 100.083 58.5254 97.1006 62.2412 97.1006C65.957 97.1006 68.9395 100.083 68.9395 103.799Z" fill="#F9C9AA"/>
<path d="M37.6985 75.0985C37.6985 76.1741 36.8184 77.0542 35.7428 77.0542C34.6672 77.0542 33.7871 76.1741 33.7871 75.0985C33.7871 74.0229 34.6672 73.1428 35.7428 73.1428C36.8184 73.1428 37.6985 74.0229 37.6985 75.0985Z" fill="#8FC31F"/>
<path d="M92.5579 75.0985C92.5579 76.1741 91.6778 77.0542 90.6022 77.0542C89.5265 77.0542 88.6465 76.1741 88.6465 75.0985C88.6465 74.0229 89.5265 73.1428 90.6022 73.1428C91.6778 73.1428 92.5579 74.0229 92.5579 75.0985Z" fill="#8FC31F"/>
<path d="M38.1844 58.3297C38.1844 58.3297 38.0867 36.0348 61.6042 36.0348C85.1217 36.0348 87.4197 58.3297 87.4197 58.3297L90.0599 58.4275C90.0599 58.4275 93.7758 24.3007 61.1153 24.3007C28.4547 24.3007 35.642 58.3297 35.642 58.3297H38.1844Z" fill="#9DD1A6"/>
</g>
</svg>
