<svg width="128" height="128" viewBox="0 0 128 128" fill="none" xmlns="http://www.w3.org/2000/svg">
<path d="M64 128C99.3462 128 128 99.3462 128 64C128 28.6538 99.3462 0 64 0C28.6538 0 0 28.6538 0 64C0 99.3462 28.6538 128 64 128Z" fill="#D6E3F0"/>
<mask id="mask0_10_36222" style="mask-type:luminance" maskUnits="userSpaceOnUse" x="0" y="0" width="129" height="128">
<path d="M64.0019 128C99.3482 128 128.002 99.3462 128.002 64C128.002 28.6538 99.3482 0 64.0019 0C28.6557 0 0.00195312 28.6538 0.00195312 64C0.00195312 99.3462 28.6557 128 64.0019 128Z" fill="white"/>
</mask>
<g mask="url(#mask0_10_36222)">
<path d="M109.277 139.734H17.2617L17.9462 137.827C21.662 127.413 25.9157 117.097 30.5604 107.172C31.7827 104.532 34.1784 102.772 36.9653 102.38H37.1609H54.8599V96.9534C53.6376 96.5134 52.4153 95.9755 51.2419 95.3399C44.837 97.8823 40.0944 98.1757 37.112 96.2689C35.0096 94.8999 33.8851 92.602 33.7384 89.2773C33.5917 85.4637 32.7606 85.0237 32.7117 84.9748C32.2228 84.7303 30.5115 85.757 29.6315 86.3438C27.8224 87.4683 25.9645 88.6417 24.2533 87.7127C22.591 86.8327 22.3465 84.5348 22.2976 82.628C22.1998 76.9564 23.4221 73.8273 24.7422 70.5026C26.3068 66.5913 27.8713 62.5332 27.578 53.3903C26.8446 30.7532 41.659 24.0061 42.8813 23.4683C43.3213 23.2238 45.9126 22.0015 49.5306 21.7571C53.2464 18.8724 59.8958 16.1833 67.1807 17.7479C72.8034 18.9213 77.3014 20.4859 80.9684 22.5393C82.3373 22.9305 83.2663 23.3705 83.5108 23.5172C84.7331 24.055 99.5963 30.8021 98.814 53.4393C98.5207 62.631 100.085 66.6402 101.65 70.5516C102.97 73.8762 104.192 77.0053 104.094 82.6768C104.046 84.5836 103.801 86.8816 102.139 87.7616C100.427 88.6906 98.5696 87.5172 96.7606 86.3926C95.8316 85.8059 94.1693 84.7792 93.6804 85.0237C93.6315 85.0237 92.8003 85.5126 92.6536 89.3262C92.507 92.602 91.3824 94.9488 89.28 96.2689C86.3465 98.1757 81.7018 97.9312 75.5413 95.5355C74.1235 96.2689 72.6078 96.9045 71.0921 97.3445V102.38H89.5245C92.3114 102.772 94.7071 104.532 95.9294 107.172C100.574 117.097 104.828 127.364 108.544 137.827L109.277 139.734ZM21.3687 136.801H105.17C101.65 127.12 97.6895 117.586 93.3381 108.345C92.5558 106.634 90.9913 105.461 89.2312 105.216H68.2075V95.0466L69.2831 94.7532C71.1899 94.2643 72.9989 93.5309 74.759 92.5531L75.3457 92.2108L75.9814 92.4553C81.4084 94.6554 85.6131 95.0955 87.7155 93.7265C88.9867 92.8953 89.6712 91.3796 89.769 89.0817C89.9156 85.2681 90.6979 83.2146 92.3114 82.3346C94.2671 81.3078 96.4183 82.6279 98.2762 83.8013C99.0096 84.2903 100.232 85.0237 100.721 85.0726C100.819 84.9259 101.112 84.3392 101.161 82.4812C101.259 77.3965 100.183 74.6585 98.9118 71.4805C97.3473 67.4713 95.5383 62.9732 95.8805 53.1948C96.565 32.1711 82.8752 26.2551 82.2885 26.0596L82.1418 26.0107C82.1418 26.0107 81.2617 25.5707 79.8927 25.1795L79.7461 25.1306L79.5994 25.0328C76.1769 23.0771 71.8744 21.6104 66.4963 20.4858C59.5047 19.0191 53.3931 22.1482 50.8996 24.2017L50.5085 24.495H50.0196C46.4993 24.6417 44.0547 25.9129 44.0547 25.9129L43.908 25.9618C43.3213 26.2062 29.6315 32.0733 30.316 53.097C30.6582 62.8755 28.8492 67.3736 27.2846 71.3827C26.0134 74.5607 24.9378 77.2987 25.0356 82.3835C25.0845 84.1925 25.3778 84.7792 25.4756 84.9748C25.9645 84.9748 27.1868 84.1925 27.9202 83.7036C29.827 82.5301 31.9294 81.2101 33.8851 82.2368C35.4985 83.068 36.2808 85.1703 36.4275 88.9839C36.5253 91.2819 37.2098 92.7975 38.481 93.6287C40.6811 95.0466 44.9837 94.5088 50.6063 92.2108L51.2419 91.9175L51.8774 92.2597C53.3931 93.0909 54.9577 93.7754 56.5222 94.3132L57.549 94.6066V105.021H37.0631C35.303 105.314 33.7873 106.487 32.9561 108.15C28.8492 117.586 24.8889 127.12 21.3687 136.801Z" fill="white"/>
</g>
<mask id="mask1_10_36222" style="mask-type:luminance" maskUnits="userSpaceOnUse" x="0" y="0" width="129" height="128">
<path d="M64.0019 128C99.3482 128 128.002 99.3462 128.002 64C128.002 28.6538 99.3482 0 64.0019 0C28.6557 0 0.00195312 28.6538 0.00195312 64C0.00195312 99.3462 28.6557 128 64.0019 128Z" fill="white"/>
</mask>
<g mask="url(#mask1_10_36222)">
<path d="M43.5169 24.7885C43.5169 24.7885 28.3114 30.949 29.0448 53.3416C29.6315 70.5517 23.5688 70.6984 23.7644 82.6281C24.0089 94.5578 34.5696 74.4142 35.2052 89.2286C35.8408 104.043 58.6735 90.1086 58.6735 90.1086L63.9539 95.9268C63.9539 95.9268 73.1456 40.0918 63.9539 29.5311C54.7132 18.9215 43.5169 24.7885 43.5169 24.7885Z" fill="#7C3F25"/>
<path d="M82.9245 24.7882C82.9245 24.7882 98.13 30.9486 97.3966 53.3413C96.8099 70.5514 102.873 70.6981 102.677 82.6278C102.432 94.5575 91.8717 74.4139 91.2362 89.2282C90.6006 104.043 67.7679 90.1083 67.7679 90.1083L62.5364 95.8776C62.5364 95.8776 53.3446 40.0426 62.5364 29.4819C71.7281 18.9211 82.9245 24.7882 82.9245 24.7882Z" fill="#7C3F25"/>
<path d="M69.7227 84.2905H56.3262V107.465H69.7227V84.2905Z" fill="#F9C9AA"/>
<path d="M96.515 116.805C96.515 109.667 90.6479 103.8 83.5096 103.8H43.0268C35.8886 103.8 30.0215 109.667 30.0215 116.805V138.269H96.515V116.805Z" fill="#001E4D"/>
<path d="M33.9821 40.5322C33.9821 40.5322 33.1998 54.1732 36.8667 61.7026C39.3113 66.6896 42.4893 49.9684 42.4893 49.9684L33.9821 40.5322Z" fill="#7C3F25"/>
<path d="M72.5576 103.8H53.9785L55.1519 138.269H71.3353L72.5576 103.8Z" fill="white"/>
<path d="M43.517 73.8274C42.0014 75.4898 39.8501 76.4676 37.5033 76.4676C32.8096 76.4676 29.0449 70.3561 29.0449 65.369C29.0449 60.3331 32.8585 58.2797 37.5033 58.2797C39.7034 58.2797 41.708 59.1597 43.1748 60.6265L43.517 73.8274Z" fill="#F9D6BE"/>
<path d="M82.9727 73.8274C84.4883 75.4898 86.6396 76.4676 88.9864 76.4676C93.6801 76.4676 97.4448 70.3561 97.4448 65.369C97.4448 60.3331 93.6312 58.2797 88.9864 58.2797C86.7862 58.2797 84.7816 59.1597 83.3149 60.6265L82.9727 73.8274Z" fill="#F9C9AA"/>
<path d="M38.9199 34.7623V72.3605C38.9199 85.9526 49.9207 97.0022 63.5616 97.0022C77.1537 97.0022 88.2033 86.0014 88.2033 72.3605V34.7623H38.9199Z" fill="#F9D6BE"/>
<path d="M88.204 72.3602V33.4908H62.3888C62.3888 33.4908 62.3888 62.9729 62.3888 63.4129C62.3888 63.8529 62.1444 64.3419 62.1444 64.3419L56.1795 75.3426C56.1795 75.3426 55.2995 76.4671 56.5707 76.4671C57.6463 76.4671 60.9221 76.4671 61.9977 76.4671C62.34 76.4671 62.34 76.8094 62.34 76.8094V96.9041C62.7311 96.9041 63.1222 96.953 63.5623 96.953C77.1543 96.953 88.204 85.9523 88.204 72.3602Z" fill="#F9C9AA"/>
<path d="M55.3496 82.9701L71.7774 80.3788C71.7774 80.3788 71.7774 87.9082 63.0746 89.0816C56.2786 90.0594 55.3496 82.9701 55.3496 82.9701Z" fill="#A0174D"/>
<path d="M71.7766 80.4274C71.7766 80.4274 71.581 82.2364 71.3854 82.5786C71.141 83.0675 64.5405 84.9744 58.2823 84.8277C56.3755 84.7788 55.9844 82.872 55.9844 82.872L71.7766 80.4274Z" fill="white"/>
<path d="M56.569 53.8304C56.5201 53.8304 56.4712 53.8304 56.4223 53.8304C52.462 52.4125 49.0396 53.0481 46.8883 53.8304C46.6927 53.8793 46.4972 53.7815 46.4483 53.6348C46.3994 53.4392 46.4972 53.2437 46.6438 53.1948C48.9418 52.3636 52.5109 51.6791 56.6667 53.1948C56.8623 53.2437 56.9601 53.4881 56.8623 53.6348C56.8134 53.7326 56.7156 53.8304 56.569 53.8304Z" fill="#7C3F25"/>
<path d="M79.9889 53.8304C79.94 53.8304 79.8911 53.8304 79.8422 53.8304C75.8819 52.4125 72.4595 53.0481 70.3082 53.8304C70.1126 53.8793 69.9171 53.7815 69.8682 53.6348C69.8193 53.4392 69.9171 53.2437 70.0638 53.1948C72.3617 52.3636 75.9308 51.6791 80.0867 53.1948C80.2822 53.2437 80.38 53.4881 80.2822 53.6348C80.2822 53.7326 80.1356 53.8304 79.9889 53.8304Z" fill="#7C3F25"/>
<path d="M41.9522 46.4972C41.9522 46.4972 41.5122 49.5774 39.9476 60.4804C39.6543 62.4361 38.9698 67.3742 38.9698 67.3742V58.3292L38.1875 58.2802L38.9698 44.1504H44.0057L41.9522 46.4972Z" fill="#7C3F25"/>
<path d="M85.1726 46.4972C85.1726 46.4972 85.6126 49.5774 87.1772 60.4804C87.4705 62.4361 88.155 67.3742 88.155 67.3742V58.3292L88.9373 58.2802L88.155 44.1504H83.1191L85.1726 46.4972Z" fill="#7C3F25"/>
<path d="M43.9581 113.431C44.9848 111.182 44.7403 108.689 43.518 106.733L46.3538 108.053V103.8H37.2109C35.0108 104.093 32.9573 105.56 31.9306 107.76C27.2369 117.734 23.0322 127.904 19.3652 138.269H33.5929C36.6242 129.859 40.0956 121.596 43.9581 113.431Z" fill="#001E4D"/>
<path d="M94.6596 107.76C93.5839 105.511 91.5793 104.093 89.3792 103.8H80.2363V108.053L83.0721 106.733C81.8009 108.64 81.5564 111.182 82.6321 113.431C86.4457 121.548 89.917 129.859 93.0461 138.269H107.274C103.509 127.904 99.3532 117.734 94.6596 107.76Z" fill="#001E4D"/>
<path d="M51.6803 56.5684C51.0936 56.5684 50.6047 56.764 50.1158 57.1063C49.1868 56.764 48.5512 55.9328 48.5512 55.9328C48.5512 55.9328 48.3068 55.7861 48.3068 56.1773C48.3068 56.4706 48.5024 57.7418 48.8935 58.5241C48.4535 59.3553 48.209 60.382 48.209 61.5066C48.209 64.2445 49.7735 66.4936 51.6803 66.4936C53.5871 66.4936 55.1517 64.2445 55.1517 61.5066C55.1517 58.8175 53.636 56.5684 51.6803 56.5684Z" fill="#481C05"/>
<path d="M75.1003 56.5684C74.5625 56.5684 74.0736 56.7151 73.6335 57.0085C72.8024 56.6173 72.2646 55.9328 72.2646 55.9328C72.2646 55.9328 72.0201 55.7861 72.0201 56.1773C72.0201 56.4217 72.1668 57.4485 72.4601 58.2308C71.9223 59.1108 71.5801 60.2842 71.5801 61.5066C71.5801 64.2445 73.1446 66.4936 75.0514 66.4936C76.9582 66.4936 78.5228 64.2445 78.5228 61.5066C78.5717 58.8175 77.0071 56.5684 75.1003 56.5684Z" fill="#481C05"/>
<path d="M56.0333 37.9402C56.0333 37.9402 62.2427 33.0998 69.7232 37.9402C77.2037 42.7805 82.973 56.7148 88.2045 57.5949C92.3114 57.9371 92.507 38.1358 89.329 32.562C86.0043 26.695 79.9906 21.9035 66.8874 19.1655C57.1579 17.1121 48.944 23.2236 48.3084 25.2771C47.7705 27.2817 56.0333 37.9402 56.0333 37.9402Z" fill="#7C3F25"/>
<path d="M56.0328 37.9403C56.0328 37.9403 43.9075 36.3268 38.9694 58.3284L33.9824 40.5316C33.9824 40.5316 41.2674 25.8639 58.6241 30.3131C58.7219 30.3131 56.0328 37.9403 56.0328 37.9403Z" fill="#7C3F25"/>
<path d="M76.7631 53.5361C70.5049 53.5361 65.4201 55.8341 64.9311 61.75H62.2421C61.7531 55.883 56.6683 53.5361 50.4101 53.5361C43.8585 53.5361 38.5293 56.0785 38.5293 62.6301C38.5293 69.1816 43.8585 74.5109 50.4101 74.5109C56.8639 74.5109 62.0954 69.3772 62.2421 62.9723H64.8333C65.0289 69.3772 70.2604 74.5109 76.6653 74.5109C83.2168 74.5109 88.5461 69.1816 88.5461 62.6301C88.6439 56.1274 83.3146 53.5361 76.7631 53.5361ZM50.459 73.093C44.6897 73.093 40.045 68.3994 40.045 62.679C40.045 55.9807 46.5965 55.0029 50.459 55.0029C54.3704 55.0029 60.8731 55.9807 60.8731 62.679C60.8731 68.3994 56.1794 73.093 50.459 73.093ZM76.7631 73.093C70.9938 73.093 66.349 68.3994 66.349 62.679C66.349 55.9807 72.9006 55.0029 76.7631 55.0029C80.6744 55.0029 87.1771 55.9807 87.1771 62.679C87.1771 68.3994 82.5324 73.093 76.7631 73.093Z" fill="#6A3906"/>
<g opacity="0.24">
<path d="M51.1922 62.2389C53.6368 65.857 53.6857 70.1106 51.29 71.724C48.8943 73.3375 44.9829 71.724 42.5383 68.0571C40.0937 64.4391 40.0448 60.1855 42.4405 58.572C44.8362 56.9586 48.7476 58.572 51.1922 62.2389Z" fill="white"/>
</g>
<g opacity="0.24">
<path d="M77.4969 62.2389C79.9415 65.857 79.9904 70.1106 77.5947 71.724C75.1989 73.3375 71.2876 71.724 68.843 68.0571C66.3983 64.4391 66.3494 60.1855 68.7452 58.572C71.1409 56.9586 75.0523 58.572 77.4969 62.2389Z" fill="white"/>
</g>
<path d="M69.6738 103.799C69.6738 103.799 66.6914 110.497 62.9756 110.497C59.2598 110.497 56.2773 103.799 56.2773 103.799C56.2773 100.083 59.2598 97.1007 62.9756 97.1007C66.6914 97.1007 69.6738 100.083 69.6738 103.799Z" fill="#F9C9AA"/>
<path d="M38.0872 75.0992C38.0872 76.1749 37.2071 77.0549 36.1315 77.0549C35.0558 77.0549 34.1758 76.1749 34.1758 75.0992C34.1758 74.0236 35.0558 73.1436 36.1315 73.1436C37.2071 73.1436 38.0872 74.0236 38.0872 75.0992Z" fill="#EA5514"/>
<path d="M92.9465 75.0992C92.9465 76.1749 92.0665 77.0549 90.9908 77.0549C89.9152 77.0549 89.0352 76.1749 89.0352 75.0992C89.0352 74.0236 89.9152 73.1436 90.9908 73.1436C92.0665 73.1436 92.9465 74.0236 92.9465 75.0992Z" fill="#EA5514"/>
</g>
</svg>
