<svg width="30" height="31" viewBox="0 0 30 31" fill="none" xmlns="http://www.w3.org/2000/svg">
<path d="M28.3874 21.1401H1.42711C0.88166 21.1401 0.439453 20.6979 0.439453 20.1524V8.39879C0.439453 7.85334 0.88166 7.41113 1.42711 7.41113H27.3953C27.623 7.41112 27.8437 7.49016 28.0197 7.63475C28.1956 7.77935 28.3159 7.98053 28.3601 8.20396L29.5412 14.1812C29.5536 14.244 29.5598 14.3078 29.5598 14.3718V19.9675C29.5599 20.6151 29.035 21.1401 28.3874 21.1401Z" fill="#E8EB6B"/>
<path opacity="0.419608" d="M29.5412 14.1812L28.3601 8.20396C28.3159 7.98053 28.1956 7.77935 28.0196 7.63476C27.8437 7.49017 27.623 7.41113 27.3952 7.41113H26.0243L26.834 11.5087C26.8399 11.5387 26.8429 11.5692 26.8429 11.5998V17.7596C26.8429 18.1233 26.548 18.4182 26.1843 18.4182H0.439453V20.1523C0.439453 20.6978 0.88166 21.14 1.42711 21.14H28.3874C29.035 21.14 29.5599 20.6151 29.5599 19.9675V14.3718C29.5599 14.3078 29.5536 14.244 29.5412 14.1812Z" fill="#BCAE0F"/>
<path d="M5.67461 23.5885C7.02663 23.5885 8.12266 22.4924 8.12266 21.1404C8.12266 19.7884 7.02663 18.6924 5.67461 18.6924C4.32259 18.6924 3.22656 19.7884 3.22656 21.1404C3.22656 22.4924 4.32259 23.5885 5.67461 23.5885Z" fill="#35495D"/>
<path d="M24.325 23.5885C25.677 23.5885 26.773 22.4924 26.773 21.1404C26.773 19.7884 25.677 18.6924 24.325 18.6924C22.973 18.6924 21.877 19.7884 21.877 21.1404C21.877 22.4924 22.973 23.5885 24.325 23.5885Z" fill="#35495D"/>
<path d="M24.0523 23.573C24.1428 23.5832 24.2337 23.5884 24.3248 23.5885C25.6768 23.5885 26.7729 22.4924 26.7729 21.1404C26.7729 19.7884 25.6768 18.6924 24.3248 18.6924C24.2324 18.6924 24.1414 18.698 24.0516 18.7079L24.0523 23.573ZM5.40201 23.573C5.4925 23.5832 5.58347 23.5884 5.67453 23.5885C7.02652 23.5885 8.12258 22.4924 8.12258 21.1404C8.12258 19.7884 7.02652 18.6924 5.67453 18.6924C5.58213 18.6924 5.49113 18.698 5.40137 18.7079L5.40201 23.573Z" fill="#2A3A4C"/>
<path d="M24.3248 22.2014C24.9109 22.2014 25.3859 21.7263 25.3859 21.1402C25.3859 20.5542 24.9109 20.0791 24.3248 20.0791C23.7388 20.0791 23.2637 20.5542 23.2637 21.1402C23.2637 21.7263 23.7388 22.2014 24.3248 22.2014Z" fill="#CADDEA"/>
<path d="M29.5603 14.3718C29.5603 14.3078 29.5541 14.2439 29.5417 14.1811L28.5563 9.19434H22.2467C22.1571 9.19434 22.0712 9.22991 22.0079 9.29322C21.9446 9.35654 21.909 9.44241 21.909 9.53195V14.2754C21.909 14.5823 22.0538 14.8717 22.3011 15.0534C23.0009 15.5675 24.8621 16.4301 29.5603 16.5936V14.3718ZM10.0101 14.6665H2.6484C2.61403 14.6665 2.58001 14.6598 2.54826 14.6466C2.51651 14.6335 2.48766 14.6142 2.46336 14.5899C2.43906 14.5656 2.41979 14.5367 2.40664 14.505C2.39349 14.4732 2.38672 14.4392 2.38672 14.4048V9.45601C2.38672 9.38661 2.41429 9.32005 2.46336 9.27098C2.51244 9.22191 2.579 9.19434 2.6484 9.19434H10.0101C10.0795 9.19434 10.1461 9.22191 10.1952 9.27098C10.2442 9.32005 10.2718 9.38661 10.2718 9.45601V14.4048C10.2718 14.5493 10.1546 14.6665 10.0101 14.6665ZM19.6641 14.6665H12.3024C12.268 14.6665 12.234 14.6598 12.2022 14.6466C12.1705 14.6335 12.1416 14.6142 12.1173 14.5899C12.093 14.5656 12.0738 14.5367 12.0606 14.505C12.0475 14.4732 12.0407 14.4392 12.0407 14.4048V9.45601C12.0407 9.38661 12.0683 9.32005 12.1173 9.27098C12.1664 9.22191 12.233 9.19434 12.3024 9.19434H19.6641C19.7335 9.19434 19.8 9.22191 19.8491 9.27098C19.8982 9.32005 19.9258 9.38661 19.9258 9.45601V14.4048C19.9258 14.5493 19.8086 14.6665 19.6641 14.6665Z" fill="#B5E7FE"/>
<path d="M29.2311 12.6105L28.556 9.19434H26.377L26.8343 11.5087C26.8402 11.5387 26.8432 11.5692 26.8432 11.5998V16.3942C27.6224 16.4873 28.5218 16.5576 29.5601 16.5937V14.3719C29.56 14.3078 29.5538 14.244 29.5414 14.1812L29.2311 12.6105Z" fill="#9AD8ED"/>
<path d="M5.67441 22.2014C6.26046 22.2014 6.73555 21.7263 6.73555 21.1402C6.73555 20.5542 6.26046 20.0791 5.67441 20.0791C5.08837 20.0791 4.61328 20.5542 4.61328 21.1402C4.61328 21.7263 5.08837 22.2014 5.67441 22.2014Z" fill="#CADDEA"/>
<path d="M21.9086 17.6989H22.6812C22.739 17.699 22.7962 17.6876 22.8495 17.6655C22.9029 17.6434 22.9514 17.611 22.9922 17.5701C23.0331 17.5293 23.0655 17.4808 23.0876 17.4275C23.1097 17.3741 23.121 17.3169 23.121 17.2591C23.121 17.2014 23.1097 17.1442 23.0876 17.0908C23.0655 17.0375 23.0331 16.989 22.9922 16.9481C22.9514 16.9073 22.9029 16.8749 22.8495 16.8528C22.7962 16.8307 22.739 16.8193 22.6812 16.8193H21.9086C21.7919 16.8193 21.68 16.8657 21.5976 16.9482C21.5151 17.0306 21.4688 17.1425 21.4688 17.2591C21.4688 17.3758 21.5151 17.4876 21.5976 17.5701C21.68 17.6526 21.7919 17.6989 21.9086 17.6989Z" fill="black"/>
<path d="M29.9986 14.3166C29.9958 14.2426 29.9872 14.1689 29.9729 14.0962L28.9876 9.10941C28.9875 9.10924 28.9875 9.10906 28.9874 9.10888L28.7919 8.11906C28.6605 7.45426 28.0733 6.97168 27.3956 6.97168H1.4274C0.640311 6.97162 0 7.61199 0 8.39914V20.1527C0 20.9398 0.640311 21.5801 1.4274 21.5801H2.82046C3.03287 22.9645 4.23198 24.0282 5.67485 24.0282C7.11772 24.0282 8.31684 22.9646 8.52924 21.5801H9.66185C9.7785 21.5801 9.89036 21.5338 9.97284 21.4513C10.0553 21.3688 10.1017 21.257 10.1017 21.1403C10.1017 21.0237 10.0553 20.9118 9.97284 20.8293C9.89036 20.7469 9.7785 20.7005 9.66185 20.7005H8.52918C8.31678 19.3162 7.11766 18.2525 5.67479 18.2525C4.23193 18.2525 3.03281 19.3161 2.8204 20.7005H1.4274C1.12529 20.7005 0.879549 20.4547 0.879549 20.1527V8.39914C0.879549 8.09703 1.12529 7.85123 1.4274 7.85123H27.3955C27.5214 7.85148 27.6432 7.89528 27.7405 7.97518C27.8377 8.05507 27.9043 8.16616 27.9289 8.28957L28.0209 8.75492H22.2465C21.8178 8.75492 21.4691 9.10367 21.4691 9.53234V14.2758C21.4691 14.722 21.6827 15.1454 22.0405 15.4082C22.9019 16.041 24.8278 16.823 29.1203 17.0166V19.9679C29.1203 20.3719 28.7916 20.7006 28.3876 20.7006H27.1794C26.967 19.3163 25.7679 18.2526 24.325 18.2526C22.8821 18.2526 21.683 19.3162 21.4706 20.7006H11.7082C11.5916 20.7006 11.4797 20.747 11.3973 20.8295C11.3148 20.9119 11.2684 21.0238 11.2684 21.1404C11.2684 21.2571 11.3148 21.3689 11.3973 21.4514C11.4797 21.5339 11.5916 21.5802 11.7082 21.5802H21.4707C21.6831 22.9646 22.8822 24.0283 24.3251 24.0283C25.768 24.0283 26.9671 22.9647 27.1795 21.5802H28.3877C29.2767 21.5802 30 20.857 30 19.9679V14.3722C29.9999 14.3537 29.9994 14.3351 29.9986 14.3166ZM5.67485 19.1321C6.78221 19.1321 7.68309 20.033 7.68309 21.1403C7.68309 22.2477 6.78221 23.1486 5.67485 23.1486C4.56749 23.1486 3.66661 22.2477 3.66661 21.1403C3.66661 20.033 4.56749 19.1321 5.67485 19.1321ZM24.3251 23.1486C23.2177 23.1486 22.3168 22.2476 22.3168 21.1403C22.3168 20.0329 23.2177 19.132 24.3251 19.132C25.4324 19.132 26.3334 20.0329 26.3334 21.1403C26.3333 22.2476 25.4324 23.1486 24.3251 23.1486ZM29.1204 16.136C24.8603 15.9396 23.1859 15.1581 22.5613 14.6992C22.4282 14.6014 22.3487 14.4431 22.3487 14.2757V9.63447H28.1947L29.11 14.2669C29.1117 14.2752 29.1125 14.2836 29.1137 14.292C29.1173 14.3165 29.1197 14.3411 29.12 14.3658C29.12 14.368 29.1203 14.3701 29.1203 14.3722V16.136H29.1204Z" fill="black"/>
<path d="M10.0104 8.75488H2.64869C2.26191 8.75488 1.94727 9.06953 1.94727 9.45631V14.4051C1.94727 14.7919 2.26191 15.1066 2.64869 15.1066H10.0104C10.3972 15.1066 10.7118 14.7919 10.7118 14.4051V9.45631C10.7118 9.06959 10.3972 8.75488 10.0104 8.75488ZM5.88975 14.2271H2.82682V9.63449H5.88975V14.2271ZM9.83228 14.2271H6.76935V9.63449H9.83228V14.2271ZM12.3026 15.1066H19.6644C20.0511 15.1066 20.3658 14.792 20.3658 14.4052V9.45637C20.3658 9.06959 20.0511 8.75494 19.6644 8.75494H12.3026C11.9158 8.75494 11.6012 9.06959 11.6012 9.45637V14.4052C11.6012 14.792 11.9158 15.1066 12.3026 15.1066ZM12.4807 9.63449H15.5437V10.5139C15.5436 10.5716 15.555 10.6288 15.5771 10.6822C15.5992 10.7355 15.6316 10.784 15.6725 10.8249C15.7133 10.8657 15.7618 10.8981 15.8151 10.9202C15.8685 10.9423 15.9257 10.9537 15.9835 10.9537C16.0412 10.9537 16.0984 10.9423 16.1518 10.9202C16.2051 10.8981 16.2536 10.8657 16.2945 10.8249C16.3353 10.784 16.3677 10.7355 16.3898 10.6822C16.4119 10.6288 16.4233 10.5716 16.4233 10.5139V9.63449H19.4862V14.2271H16.4233V12.5603C16.4233 12.5025 16.4119 12.4453 16.3898 12.3919C16.3677 12.3386 16.3353 12.2901 16.2945 12.2492C16.2536 12.2084 16.2051 12.176 16.1518 12.1539C16.0984 12.1318 16.0412 12.1204 15.9835 12.1204C15.9257 12.1204 15.8685 12.1318 15.8151 12.1539C15.7618 12.176 15.7133 12.2084 15.6725 12.2492C15.6316 12.2901 15.5992 12.3386 15.5771 12.3919C15.555 12.4453 15.5436 12.5025 15.5437 12.5603V14.2271H12.4807V9.63449Z" fill="black"/>
<path d="M24.3248 22.2014C24.9109 22.2014 25.3859 21.7263 25.3859 21.1402C25.3859 20.5542 24.9109 20.0791 24.3248 20.0791C23.7388 20.0791 23.2637 20.5542 23.2637 21.1402C23.2637 21.7263 23.7388 22.2014 24.3248 22.2014Z" stroke="black" stroke-width="0.878905" stroke-miterlimit="10" stroke-linecap="round" stroke-linejoin="round"/>
<path d="M5.67441 22.2014C6.26046 22.2014 6.73555 21.7263 6.73555 21.1402C6.73555 20.5542 6.26046 20.0791 5.67441 20.0791C5.08837 20.0791 4.61328 20.5542 4.61328 21.1402C4.61328 21.7263 5.08837 22.2014 5.67441 22.2014Z" stroke="black" stroke-width="0.878905" stroke-miterlimit="10" stroke-linecap="round" stroke-linejoin="round"/>
</svg>
