<svg width="80" height="48" viewBox="0 0 80 48" fill="none" xmlns="http://www.w3.org/2000/svg">
<path d="M77.5 36.5005V30.2505H75V22.7505C75 21.4244 74.4732 20.1526 73.5355 19.215C72.5979 18.2773 71.3261 17.7505 70 17.7505H67.5L60 6.50049H35L21.25 19.0005C13.925 19.0005 10.6875 20.813 7.5 24.0005C6.17161 25.3699 5.2985 27.1161 5 29.0005L3.75 36.5005H77.5Z" fill="#C89D14"/>
<path d="M7.7875 32.0255C8.0757 30.1049 8.94863 28.3198 10.2875 26.913C13.55 23.6505 16.875 21.788 24.3625 21.788L38.4875 9.00049H62.0875L60 6.50049H35L21.25 19.0005C13.925 19.0005 10.6875 20.813 7.5 24.0005C6.17161 25.3699 5.2985 27.1161 5 29.0005L3.75 36.5005H7.0375L7.7875 32.0255Z" fill="#FFB028"/>
<path d="M35 6.50049L21.25 19.0005H41.25V6.50049H35Z" fill="#6EE1EF"/>
<path d="M37.9125 9.00049H41.25V6.50049H35L21.25 19.0005H26.9125L37.9125 9.00049Z" fill="#5FB1D7"/>
<path d="M53.75 6.50049H41.25V19.0005H61.25L53.75 6.50049Z" fill="#6EE1EF"/>
<path d="M55.625 9.00049L53.75 6.50049H41.25V9.00049H55.625Z" fill="#5FB1D7"/>
<path d="M3.75 41.5015C3.08696 41.5015 2.45107 41.2381 1.98223 40.7692C1.51339 40.3004 1.25 39.6645 1.25 39.0015C1.25 38.3384 1.51339 37.7025 1.98223 37.2337C2.45107 36.7649 3.08696 36.5015 3.75 36.5015H76.25C76.913 36.5015 77.5489 36.7649 78.0178 37.2337C78.4866 37.7025 78.75 38.3384 78.75 39.0015C78.75 39.6645 78.4866 40.3004 78.0178 40.7692C77.5489 41.2381 76.913 41.5015 76.25 41.5015H3.75Z" fill="#58595B"/>
<path d="M16.25 46.501C20.3921 46.501 23.75 43.1431 23.75 39.001C23.75 34.8588 20.3921 31.501 16.25 31.501C12.1079 31.501 8.75 34.8588 8.75 39.001C8.75 43.1431 12.1079 46.501 16.25 46.501Z" fill="#808285"/>
<path d="M16.25 42.751C18.3211 42.751 20 41.072 20 39.001C20 36.9299 18.3211 35.251 16.25 35.251C14.1789 35.251 12.5 36.9299 12.5 39.001C12.5 41.072 14.1789 42.751 16.25 42.751Z" fill="#F1F2F2"/>
<path d="M58.75 46.501C62.8921 46.501 66.25 43.1431 66.25 39.001C66.25 34.8588 62.8921 31.501 58.75 31.501C54.6079 31.501 51.25 34.8588 51.25 39.001C51.25 43.1431 54.6079 46.501 58.75 46.501Z" fill="#808285"/>
<path d="M58.751 42.751C60.822 42.751 62.501 41.072 62.501 39.001C62.501 36.9299 60.822 35.251 58.751 35.251C56.6799 35.251 55.001 36.9299 55.001 39.001C55.001 41.072 56.6799 42.751 58.751 42.751Z" fill="#F1F2F2"/>
<path d="M53.75 6.50098H41.25L43.75 1.50098H51.25L53.75 6.50098Z" fill="#FFB028"/>
<path d="M16.25 30.251C14.5194 30.251 12.8277 30.7642 11.3888 31.7256C9.94983 32.6871 8.82832 34.0536 8.16606 35.6525C7.50379 37.2514 7.33051 39.0107 7.66813 40.708C8.00575 42.4053 8.83911 43.9645 10.0628 45.1882C11.2865 46.4119 12.8456 47.2452 14.543 47.5828C16.2403 47.9205 17.9996 47.7472 19.5985 47.0849C21.1973 46.4227 22.5639 45.3011 23.5254 43.8622C24.4868 42.4233 25 40.7316 25 39.001C25 36.6803 24.0781 34.4547 22.4372 32.8138C20.7962 31.1728 18.5706 30.251 16.25 30.251ZM16.25 45.251C15.0139 45.251 13.8055 44.8844 12.7777 44.1977C11.7499 43.5109 10.9488 42.5348 10.4758 41.3927C10.0027 40.2507 9.87894 38.994 10.1201 37.7817C10.3613 36.5693 10.9565 35.4556 11.8306 34.5816C12.7047 33.7075 13.8183 33.1122 15.0307 32.8711C16.2431 32.6299 17.4997 32.7537 18.6418 33.2267C19.7838 33.6998 20.7599 34.5009 21.4467 35.5287C22.1334 36.5565 22.5 37.7648 22.5 39.001C22.5 40.6586 21.8415 42.2483 20.6694 43.4204C19.4973 44.5925 17.9076 45.251 16.25 45.251Z" fill="#333333"/>
<path d="M20 37.751C19.6685 37.751 19.3505 37.8827 19.1161 38.1171C18.8817 38.3515 18.75 38.6695 18.75 39.001C18.75 39.4954 18.6034 39.9788 18.3287 40.3899C18.054 40.801 17.6635 41.1215 17.2067 41.3107C16.7499 41.4999 16.2472 41.5494 15.7623 41.4529C15.2773 41.3565 14.8319 41.1184 14.4822 40.7687C14.1326 40.4191 13.8945 39.9737 13.798 39.4887C13.7016 39.0038 13.7511 38.5011 13.9403 38.0443C14.1295 37.5875 14.45 37.197 14.8611 36.9223C15.2722 36.6476 15.7555 36.501 16.25 36.501C16.5815 36.501 16.8995 36.3693 17.1339 36.1349C17.3683 35.9004 17.5 35.5825 17.5 35.251C17.5 34.9195 17.3683 34.6015 17.1339 34.3671C16.8995 34.1327 16.5815 34.001 16.25 34.001C15.2611 34.001 14.2944 34.2942 13.4722 34.8436C12.6499 35.393 12.009 36.1739 11.6306 37.0876C11.2522 38.0012 11.1531 39.0065 11.3461 39.9764C11.539 40.9463 12.0152 41.8372 12.7145 42.5365C13.4137 43.2358 14.3046 43.712 15.2746 43.9049C16.2445 44.0978 17.2498 43.9988 18.1634 43.6204C19.0771 43.2419 19.8579 42.6011 20.4074 41.7788C20.9568 40.9566 21.25 39.9899 21.25 39.001C21.25 38.6695 21.1183 38.3515 20.8839 38.1171C20.6495 37.8827 20.3315 37.751 20 37.751Z" fill="#333333"/>
<path d="M58.75 30.251C57.0194 30.251 55.3277 30.7642 53.8888 31.7256C52.4498 32.6871 51.3283 34.0536 50.6661 35.6525C50.0038 37.2514 49.8305 39.0107 50.1681 40.708C50.5058 42.4053 51.3391 43.9645 52.5628 45.1882C53.7865 46.4119 55.3456 47.2452 57.043 47.5828C58.7403 47.9205 60.4996 47.7472 62.0985 47.0849C63.6973 46.4227 65.0639 45.3011 66.0254 43.8622C66.9868 42.4233 67.5 40.7316 67.5 39.001C67.5 36.6803 66.5781 34.4547 64.9372 32.8138C63.2962 31.1728 61.0706 30.251 58.75 30.251ZM58.75 45.251C57.5139 45.251 56.3055 44.8844 55.2777 44.1977C54.2499 43.5109 53.4488 42.5348 52.9758 41.3927C52.5027 40.2507 52.3789 38.994 52.6201 37.7817C52.8613 36.5693 53.4565 35.4556 54.3306 34.5816C55.2047 33.7075 56.3183 33.1122 57.5307 32.8711C58.7431 32.6299 59.9997 32.7537 61.1418 33.2267C62.2838 33.6998 63.2599 34.5009 63.9467 35.5287C64.6334 36.5565 65 37.7648 65 39.001C65 40.6586 64.3415 42.2483 63.1694 43.4204C61.9973 44.5925 60.4076 45.251 58.75 45.251Z" fill="#333333"/>
<path d="M62.5 37.751C62.1685 37.751 61.8505 37.8827 61.6161 38.1171C61.3817 38.3515 61.25 38.6695 61.25 39.001C61.25 39.4954 61.1034 39.9788 60.8287 40.3899C60.554 40.801 60.1635 41.1215 59.7067 41.3107C59.2499 41.4999 58.7472 41.5494 58.2623 41.4529C57.7773 41.3565 57.3319 41.1184 56.9822 40.7687C56.6326 40.4191 56.3945 39.9737 56.298 39.4887C56.2016 39.0038 56.2511 38.5011 56.4403 38.0443C56.6295 37.5875 56.95 37.197 57.3611 36.9223C57.7722 36.6476 58.2556 36.501 58.75 36.501C59.0815 36.501 59.3995 36.3693 59.6339 36.1349C59.8683 35.9004 60 35.5825 60 35.251C60 34.9195 59.8683 34.6015 59.6339 34.3671C59.3995 34.1327 59.0815 34.001 58.75 34.001C57.7611 34.001 56.7944 34.2942 55.9721 34.8436C55.1499 35.393 54.509 36.1739 54.1306 37.0876C53.7522 38.0012 53.6531 39.0065 53.8461 39.9764C54.039 40.9463 54.5152 41.8372 55.2145 42.5365C55.9137 43.2358 56.8046 43.712 57.7746 43.9049C58.7445 44.0978 59.7498 43.9988 60.6634 43.6204C61.5771 43.2419 62.3579 42.6011 62.9074 41.7788C63.4568 40.9566 63.75 39.9899 63.75 39.001C63.75 38.6695 63.6183 38.3515 63.3839 38.1171C63.1495 37.8827 62.8315 37.751 62.5 37.751Z" fill="#333333"/>
<path d="M48.75 40.251H26.25C25.9185 40.251 25.6005 40.3827 25.3661 40.6171C25.1317 40.8515 25 41.1695 25 41.501C25 41.8325 25.1317 42.1504 25.3661 42.3849C25.6005 42.6193 25.9185 42.751 26.25 42.751H48.75C49.0815 42.751 49.3995 42.6193 49.6339 42.3849C49.8683 42.1504 50 41.8325 50 41.501C50 41.1695 49.8683 40.8515 49.6339 40.6171C49.3995 40.3827 49.0815 40.251 48.75 40.251Z" fill="#333333"/>
<path d="M78.7495 36.276V30.251C78.7495 29.9195 78.6178 29.6015 78.3834 29.3671C78.1489 29.1327 77.831 29.001 77.4995 29.001H76.2495V22.751C76.2495 21.0934 75.591 19.5037 74.4189 18.3316C73.2468 17.1595 71.6571 16.501 69.9995 16.501H68.1745L61.037 5.81348C60.9237 5.64153 60.7698 5.50021 60.5888 5.40208C60.4078 5.30395 60.2054 5.25204 59.9995 5.25098H54.5245L52.362 0.938477C52.2581 0.732334 52.0992 0.55898 51.9028 0.437631C51.7064 0.316282 51.4803 0.251676 51.2495 0.250977H43.7495C43.5186 0.251676 43.2925 0.316282 43.0961 0.437631C42.8998 0.55898 42.7408 0.732334 42.637 0.938477L40.4745 5.25098H34.9995C34.6897 5.25179 34.3912 5.3676 34.162 5.57598L20.762 17.751C13.3495 17.8385 9.93697 19.7885 6.61197 23.1135C5.0928 24.6678 4.09275 26.6548 3.74947 28.801L2.64947 35.451C1.81621 35.7335 1.10882 36.3 0.651047 37.0514C0.193279 37.8027 0.0142861 38.6912 0.145385 39.5612C0.276485 40.4312 0.709328 41.2274 1.36819 41.8106C2.02704 42.3937 2.86996 42.7266 3.74947 42.751H6.24947C6.58099 42.751 6.89893 42.6193 7.13335 42.3849C7.36777 42.1504 7.49947 41.8325 7.49947 41.501C7.49947 41.1695 7.36777 40.8515 7.13335 40.6171C6.89893 40.3827 6.58099 40.251 6.24947 40.251H3.74947C3.41795 40.251 3.10001 40.1193 2.86559 39.8849C2.63117 39.6504 2.49947 39.3325 2.49947 39.001C2.49947 38.6695 2.63117 38.3515 2.86559 38.1171C3.10001 37.8827 3.41795 37.751 3.74947 37.751H6.24947C6.58099 37.751 6.89893 37.6193 7.13335 37.3849C7.36777 37.1504 7.49947 36.8325 7.49947 36.501C7.49947 36.1695 7.36777 35.8515 7.13335 35.6171C6.89893 35.3827 6.58099 35.251 6.24947 35.251H5.22447L6.24947 29.1385C6.52328 27.5381 7.27244 26.0572 8.39947 24.8885C11.387 21.876 14.3245 20.251 21.2495 20.251H61.2495C61.4701 20.2509 61.6868 20.1925 61.8775 20.0816C62.0683 19.9707 62.2263 19.8113 62.3354 19.6196C62.4446 19.4279 62.5011 19.2107 62.4992 18.9901C62.4973 18.7694 62.437 18.5533 62.3245 18.3635L55.962 7.75098H59.3245L66.462 18.4385C66.5752 18.6104 66.7292 18.7517 66.9102 18.8499C67.0912 18.948 67.2936 18.9999 67.4995 19.001H69.9995C70.994 19.001 71.9479 19.3961 72.6511 20.0993C73.3544 20.8026 73.7495 21.7564 73.7495 22.751V30.251C73.7495 30.5825 73.8812 30.9004 74.1156 31.1349C74.35 31.3693 74.668 31.501 74.9995 31.501H76.2495V35.251H68.7495C68.418 35.251 68.1 35.3827 67.8656 35.6171C67.6312 35.8515 67.4995 36.1695 67.4995 36.501C67.4995 36.8325 67.6312 37.1504 67.8656 37.3849C68.1 37.6193 68.418 37.751 68.7495 37.751H76.2495C76.581 37.751 76.8989 37.8827 77.1334 38.1171C77.3678 38.3515 77.4995 38.6695 77.4995 39.001C77.4995 39.3325 77.3678 39.6504 77.1334 39.8849C76.8989 40.1193 76.581 40.251 76.2495 40.251H68.7495C68.418 40.251 68.1 40.3827 67.8656 40.6171C67.6312 40.8515 67.4995 41.1695 67.4995 41.501C67.4995 41.8325 67.6312 42.1504 67.8656 42.3849C68.1 42.6193 68.418 42.751 68.7495 42.751H76.2495C77.2361 42.7257 78.1753 42.3225 78.8731 41.6246C79.571 40.9268 79.9742 39.9876 79.9995 39.001C79.9898 38.4852 79.8737 37.977 79.6586 37.5081C79.4436 37.0392 79.1341 36.6198 78.7495 36.276ZM44.5245 2.75098H50.4745L51.7245 5.25098H43.2745L44.5245 2.75098ZM39.9995 7.75098V17.751H24.487L35.487 7.75098H39.9995ZM42.4995 17.751V7.75098H53.037L59.037 17.751H42.4995Z" fill="#333333"/>
<path d="M25 36.501C25 36.8325 25.1317 37.1504 25.3661 37.3849C25.6005 37.6193 25.9185 37.751 26.25 37.751H48.75C49.0815 37.751 49.3995 37.6193 49.6339 37.3849C49.8683 37.1504 50 36.8325 50 36.501C50 36.1695 49.8683 35.8515 49.6339 35.6171C49.3995 35.3827 49.0815 35.251 48.75 35.251H26.25C25.9185 35.251 25.6005 35.3827 25.3661 35.6171C25.1317 35.8515 25 36.1695 25 36.501Z" fill="#333333"/>
<path d="M30 24.0005H25C24.6685 24.0005 24.3505 24.1322 24.1161 24.3666C23.8817 24.601 23.75 24.919 23.75 25.2505C23.75 25.582 23.8817 25.9 24.1161 26.1344C24.3505 26.3688 24.6685 26.5005 25 26.5005H26.25V30.2505C26.25 30.582 26.3817 30.9 26.6161 31.1344C26.8505 31.3688 27.1685 31.5005 27.5 31.5005C27.8315 31.5005 28.1495 31.3688 28.3839 31.1344C28.6183 30.9 28.75 30.582 28.75 30.2505V26.5005H30C30.3315 26.5005 30.6495 26.3688 30.8839 26.1344C31.1183 25.9 31.25 25.582 31.25 25.2505C31.25 24.919 31.1183 24.601 30.8839 24.3666C30.6495 24.1322 30.3315 24.0005 30 24.0005Z" fill="#333333"/>
<path d="M35 24.0005C34.0134 24.0258 33.0742 24.429 32.3764 25.1269C31.6785 25.8247 31.2753 26.7639 31.25 27.7505V30.2505C31.25 30.582 31.3817 30.9 31.6161 31.1344C31.8505 31.3688 32.1685 31.5005 32.5 31.5005C32.8315 31.5005 33.1495 31.3688 33.3839 31.1344C33.6183 30.9 33.75 30.582 33.75 30.2505H36.25C36.25 30.582 36.3817 30.9 36.6161 31.1344C36.8505 31.3688 37.1685 31.5005 37.5 31.5005C37.8315 31.5005 38.1495 31.3688 38.3839 31.1344C38.6183 30.9 38.75 30.582 38.75 30.2505V27.7505C38.7247 26.7639 38.3215 25.8247 37.6236 25.1269C36.9258 24.429 35.9866 24.0258 35 24.0005ZM33.75 27.7505C33.75 27.419 33.8817 27.101 34.1161 26.8666C34.3505 26.6322 34.6685 26.5005 35 26.5005C35.3315 26.5005 35.6495 26.6322 35.8839 26.8666C36.1183 27.101 36.25 27.419 36.25 27.7505H33.75Z" fill="#333333"/>
<path d="M40.361 31.1387C40.4772 31.2559 40.6154 31.3489 40.7677 31.4123C40.9201 31.4758 41.0834 31.5085 41.2485 31.5085C41.4135 31.5085 41.5769 31.4758 41.7292 31.4123C41.8815 31.3489 42.0198 31.2559 42.136 31.1387L43.7485 29.5137L45.361 31.1387C45.4772 31.2559 45.6154 31.3489 45.7677 31.4123C45.9201 31.4758 46.0834 31.5085 46.2485 31.5085C46.4135 31.5085 46.5769 31.4758 46.7292 31.4123C46.8815 31.3489 47.0198 31.2559 47.136 31.1387C47.2531 31.0225 47.3461 30.8842 47.4096 30.7319C47.473 30.5796 47.5057 30.4162 47.5057 30.2512C47.5057 30.0862 47.473 29.9228 47.4096 29.7705C47.3461 29.6182 47.2531 29.4799 47.136 29.3637L45.511 27.7512L47.136 26.1387C47.3713 25.9033 47.5036 25.5841 47.5036 25.2512C47.5036 24.9183 47.3713 24.5991 47.136 24.3637C46.9006 24.1283 46.5813 23.9961 46.2485 23.9961C45.9156 23.9961 45.5963 24.1283 45.361 24.3637L43.7485 25.9887L42.136 24.3637C41.9006 24.1283 41.5813 23.9961 41.2485 23.9961C40.9156 23.9961 40.5963 24.1283 40.361 24.3637C40.1256 24.5991 39.9933 24.9183 39.9933 25.2512C39.9933 25.5841 40.1256 25.9033 40.361 26.1387L41.986 27.7512L40.361 29.3637C40.2438 29.4799 40.1508 29.6182 40.0873 29.7705C40.0239 29.9228 39.9912 30.0862 39.9912 30.2512C39.9912 30.4162 40.0239 30.5796 40.0873 30.7319C40.1508 30.8842 40.2438 31.0225 40.361 31.1387Z" fill="#333333"/>
<path d="M51.25 30.2505V25.2505C51.25 24.919 51.1183 24.601 50.8839 24.3666C50.6495 24.1322 50.3315 24.0005 50 24.0005C49.6685 24.0005 49.3505 24.1322 49.1161 24.3666C48.8817 24.601 48.75 24.919 48.75 25.2505V30.2505C48.75 30.582 48.8817 30.9 49.1161 31.1344C49.3505 31.3688 49.6685 31.5005 50 31.5005C50.3315 31.5005 50.6495 31.3688 50.8839 31.1344C51.1183 30.9 51.25 30.582 51.25 30.2505Z" fill="#333333"/>
<path d="M58.75 24.0005H61.25V26.5005H58.75V24.0005Z" fill="#333333"/>
<path d="M61.25 26.501H63.75V29.001H61.25V26.501Z" fill="#333333"/>
<path d="M63.751 24.0005H66.251V26.5005H63.751V24.0005Z" fill="#333333"/>
<path d="M68.75 24.0005H71.25V26.5005H68.75V24.0005Z" fill="#333333"/>
<path d="M66.25 26.501H68.75V29.001H66.25V26.501Z" fill="#333333"/>
<path d="M8.75 26.501H11.25V29.001H8.75V26.501Z" fill="#333333"/>
</svg>
