<svg width="30" height="29" viewBox="0 0 30 29" fill="none" xmlns="http://www.w3.org/2000/svg">
<g clip-path="url(#clip0_15_5895)">
<path d="M1.57644 18.975V16.7377H2.47132V14.0531C2.47132 13.5784 2.65989 13.1232 2.99553 12.7875C3.33118 12.4519 3.78642 12.2633 4.26109 12.2633H5.15598L7.84064 8.23633H16.7895L21.7114 12.7108C24.3334 12.7108 25.4923 13.3596 26.6333 14.5005C27.1088 14.9907 27.4213 15.6158 27.5281 16.2903L27.9756 18.975H1.57644Z" fill="#C89D14"/>
<path d="M26.5303 17.3731C26.4272 16.6856 26.1147 16.0466 25.6355 15.5431C24.4676 14.3752 23.2774 13.7086 20.5972 13.7086L15.5411 9.13121H7.09341L7.84064 8.23633H16.7895L21.7114 12.7108C24.3334 12.7108 25.4923 13.3596 26.6333 14.5005C27.1088 14.9907 27.4213 15.6158 27.5281 16.2903L27.9756 18.975H26.7988L26.5303 17.3731Z" fill="#FFB028"/>
<path d="M16.79 8.23633L21.7119 12.7108H14.5528V8.23633H16.79Z" fill="#6EE1EF"/>
<path d="M15.7475 9.13121H14.5528V8.23633H16.79L21.7119 12.7108H19.685L15.7475 9.13121Z" fill="#5FB1D7"/>
<path d="M10.0783 8.23633H14.5527V12.7108H7.39364L10.0783 8.23633Z" fill="#6EE1EF"/>
<path d="M9.40714 9.13121L10.0783 8.23633H14.5527V9.13121H9.40714Z" fill="#5FB1D7"/>
<path d="M27.9762 20.7644C28.2135 20.7644 28.4412 20.6701 28.609 20.5023C28.7768 20.3345 28.8711 20.1068 28.8711 19.8695C28.8711 19.6322 28.7768 19.4045 28.609 19.2367C28.4412 19.0689 28.2135 18.9746 27.9762 18.9746H2.0245C1.78717 18.9746 1.55955 19.0689 1.39172 19.2367C1.2239 19.4045 1.12962 19.6322 1.12962 19.8695C1.12962 20.1068 1.2239 20.3345 1.39172 20.5023C1.55955 20.6701 1.78717 20.7644 2.0245 20.7644H27.9762Z" fill="#58595B"/>
<path d="M23.5019 22.5539C22.0192 22.5539 20.8172 21.3519 20.8172 19.8692C20.8172 18.3865 22.0192 17.1846 23.5019 17.1846C24.9846 17.1846 26.1865 18.3865 26.1865 19.8692C26.1865 21.3519 24.9846 22.5539 23.5019 22.5539Z" fill="#808285"/>
<path d="M23.5014 21.212C22.7601 21.212 22.1591 20.611 22.1591 19.8697C22.1591 19.1283 22.7601 18.5273 23.5014 18.5273C24.2428 18.5273 24.8438 19.1283 24.8438 19.8697C24.8438 20.611 24.2428 21.212 23.5014 21.212Z" fill="#F1F2F2"/>
<path d="M8.28897 22.5539C6.80628 22.5539 5.60431 21.3519 5.60431 19.8692C5.60431 18.3865 6.80628 17.1846 8.28897 17.1846C9.77167 17.1846 10.9736 18.3865 10.9736 19.8692C10.9736 21.3519 9.77167 22.5539 8.28897 22.5539Z" fill="#808285"/>
<path d="M8.28853 21.212C7.54718 21.212 6.9462 20.611 6.9462 19.8697C6.9462 19.1283 7.54718 18.5273 8.28853 18.5273C9.02988 18.5273 9.63086 19.1283 9.63086 19.8697C9.63086 20.611 9.02988 21.212 8.28853 21.212Z" fill="#F1F2F2"/>
<path d="M10.0783 8.23606H14.5527L13.6578 6.44629H10.9732L10.0783 8.23606Z" fill="#FFB028"/>
<path d="M23.5017 16.7373C24.1212 16.7373 24.7267 16.921 25.2418 17.2652C25.7569 17.6093 26.1583 18.0985 26.3954 18.6708C26.6324 19.2431 26.6945 19.8729 26.5736 20.4804C26.4528 21.088 26.1544 21.6461 25.7164 22.0841C25.2784 22.5222 24.7203 22.8205 24.1127 22.9413C23.5052 23.0622 22.8754 23.0002 22.3031 22.7631C21.7308 22.526 21.2416 22.1246 20.8974 21.6095C20.5533 21.0944 20.3696 20.4889 20.3696 19.8694C20.3696 19.0387 20.6996 18.2421 21.287 17.6547C21.8743 17.0673 22.671 16.7373 23.5017 16.7373ZM23.5017 22.1066C23.9442 22.1066 24.3767 21.9754 24.7446 21.7296C25.1125 21.4838 25.3993 21.1344 25.5686 20.7256C25.7379 20.3168 25.7822 19.8669 25.6959 19.4329C25.6096 18.999 25.3965 18.6003 25.0836 18.2875C24.7708 17.9746 24.3721 17.7615 23.9381 17.6752C23.5042 17.5889 23.0543 17.6332 22.6455 17.8025C22.2367 17.9718 21.8873 18.2586 21.6415 18.6265C21.3957 18.9944 21.2645 19.4269 21.2645 19.8694C21.2645 20.4628 21.5002 21.0318 21.9197 21.4514C22.3393 21.8709 22.9083 22.1066 23.5017 22.1066Z" fill="#333333"/>
<path d="M22.1589 19.4224C22.2776 19.4224 22.3914 19.4695 22.4753 19.5535C22.5592 19.6374 22.6064 19.7512 22.6064 19.8699C22.6064 20.0468 22.6588 20.2199 22.7572 20.367C22.8555 20.5142 22.9953 20.6289 23.1588 20.6966C23.3223 20.7643 23.5022 20.7821 23.6758 20.7475C23.8494 20.713 24.0089 20.6278 24.134 20.5026C24.2592 20.3775 24.3444 20.218 24.3789 20.0444C24.4135 19.8708 24.3957 19.6909 24.328 19.5274C24.2603 19.3639 24.1456 19.2241 23.9984 19.1258C23.8513 19.0274 23.6782 18.975 23.5012 18.975C23.3826 18.975 23.2688 18.9278 23.1849 18.8439C23.1009 18.76 23.0538 18.6462 23.0538 18.5275C23.0538 18.4089 23.1009 18.295 23.1849 18.2111C23.2688 18.1272 23.3826 18.0801 23.5012 18.0801C23.8552 18.0801 24.2013 18.185 24.4956 18.3817C24.7899 18.5784 25.0193 18.8579 25.1548 19.1849C25.2902 19.512 25.3257 19.8718 25.2566 20.219C25.1876 20.5662 25.0171 20.8851 24.7668 21.1354C24.5165 21.3857 24.1976 21.5562 23.8504 21.6252C23.5032 21.6943 23.1434 21.6588 22.8163 21.5234C22.4893 21.3879 22.2098 21.1585 22.0131 20.8642C21.8164 20.5699 21.7115 20.2238 21.7115 19.8699C21.7115 19.7512 21.7586 19.6374 21.8425 19.5535C21.9264 19.4695 22.0402 19.4224 22.1589 19.4224Z" fill="#333333"/>
<path d="M8.28879 16.7373C8.90827 16.7373 9.51383 16.921 10.0289 17.2652C10.544 17.6093 10.9454 18.0985 11.1825 18.6708C11.4195 19.2431 11.4816 19.8729 11.3607 20.4804C11.2399 21.088 10.9416 21.6461 10.5035 22.0841C10.0655 22.5222 9.50741 22.8205 8.89984 22.9413C8.29227 23.0622 7.66251 23.0002 7.09019 22.7631C6.51787 22.526 6.02871 22.1246 5.68455 21.6095C5.34039 21.0944 5.15669 20.4889 5.15669 19.8694C5.15669 19.0387 5.48668 18.2421 6.07406 17.6547C6.66145 17.0673 7.45811 16.7373 8.28879 16.7373ZM8.28879 22.1066C8.73127 22.1066 9.16382 21.9754 9.53173 21.7296C9.89963 21.4838 10.1864 21.1344 10.3557 20.7256C10.525 20.3168 10.5693 19.8669 10.483 19.4329C10.3967 18.999 10.1836 18.6003 9.87075 18.2875C9.55786 17.9746 9.15923 17.7615 8.72525 17.6752C8.29128 17.5889 7.84145 17.6332 7.43265 17.8025C7.02385 17.9718 6.67445 18.2586 6.42862 18.6265C6.18279 18.9944 6.05158 19.4269 6.05158 19.8694C6.05158 20.4628 6.28728 21.0318 6.70684 21.4514C7.1264 21.8709 7.69545 22.1066 8.28879 22.1066Z" fill="#333333"/>
<path d="M6.94602 19.4224C7.06469 19.4224 7.1785 19.4695 7.26241 19.5535C7.34632 19.6374 7.39347 19.7512 7.39347 19.8699C7.39347 20.0468 7.44595 20.2199 7.54428 20.367C7.64261 20.5142 7.78237 20.6289 7.94589 20.6966C8.10941 20.7643 8.28934 20.7821 8.46294 20.7475C8.63653 20.713 8.79598 20.6278 8.92113 20.5026C9.04628 20.3775 9.13151 20.218 9.16604 20.0444C9.20057 19.8708 9.18285 19.6909 9.11512 19.5274C9.04739 19.3639 8.93269 19.2241 8.78552 19.1258C8.63836 19.0274 8.46534 18.975 8.28835 18.975C8.16968 18.975 8.05587 18.9278 7.97196 18.8439C7.88805 18.76 7.84091 18.6462 7.84091 18.5275C7.84091 18.4089 7.88805 18.295 7.97196 18.2111C8.05587 18.1272 8.16968 18.0801 8.28835 18.0801C8.64233 18.0801 8.98837 18.185 9.2827 18.3817C9.57702 18.5784 9.80642 18.8579 9.94189 19.1849C10.0773 19.512 10.1128 19.8718 10.0437 20.219C9.97468 20.5662 9.80422 20.8851 9.55391 21.1354C9.30361 21.3857 8.9847 21.5562 8.63752 21.6252C8.29034 21.6943 7.93047 21.6588 7.60343 21.5234C7.2764 21.3879 6.99687 21.1585 6.80021 20.8642C6.60355 20.5699 6.49858 20.2238 6.49858 19.8699C6.49858 19.7512 6.54572 19.6374 6.62963 19.5535C6.71354 19.4695 6.82735 19.4224 6.94602 19.4224Z" fill="#333333"/>
<path d="M11.8677 20.3174H19.9217C20.0404 20.3174 20.1542 20.3645 20.2381 20.4484C20.322 20.5323 20.3691 20.6462 20.3691 20.7648C20.3691 20.8835 20.322 20.9973 20.2381 21.0812C20.1542 21.1651 20.0404 21.2123 19.9217 21.2123H11.8677C11.7491 21.2123 11.6352 21.1651 11.5513 21.0812C11.4674 20.9973 11.4203 20.8835 11.4203 20.7648C11.4203 20.6462 11.4674 20.5323 11.5513 20.4484C11.6352 20.3645 11.7491 20.3174 11.8677 20.3174Z" fill="#333333"/>
<path d="M1.12957 18.8943V16.7377C1.12957 16.619 1.17671 16.5052 1.26063 16.4213C1.34454 16.3374 1.45835 16.2902 1.57702 16.2902H2.02446V14.053C2.02446 13.4597 2.26017 12.8906 2.67972 12.4711C3.09928 12.0515 3.66833 11.8158 4.26167 11.8158H4.91494L7.46984 7.99015C7.51037 7.9286 7.56549 7.87801 7.63027 7.84288C7.69506 7.80776 7.76752 7.78918 7.84122 7.7888H9.80102L10.5751 6.24512C10.6123 6.17133 10.6692 6.10927 10.7395 6.06584C10.8097 6.0224 10.8907 5.99927 10.9733 5.99902H13.658C13.7406 5.99927 13.8216 6.0224 13.8918 6.06584C13.9621 6.10927 14.019 6.17133 14.0562 6.24512L14.8303 7.7888H16.7901C16.901 7.78909 17.0078 7.83054 17.0899 7.90513L21.8865 12.2632C24.5398 12.2945 25.7613 12.9926 26.9515 14.1828C27.4953 14.7391 27.8533 15.4504 27.9762 16.2186L28.3699 18.599C28.6682 18.7001 28.9214 18.9029 29.0853 19.1719C29.2491 19.4408 29.3132 19.7589 29.2663 20.0703C29.2193 20.3817 29.0644 20.6667 28.8286 20.8755C28.5927 21.0842 28.291 21.2034 27.9762 21.2121H27.0813C26.9626 21.2121 26.8488 21.165 26.7649 21.081C26.681 20.9971 26.6338 20.8833 26.6338 20.7646C26.6338 20.646 26.681 20.5322 26.7649 20.4483C26.8488 20.3643 26.9626 20.3172 27.0813 20.3172H27.9762C28.0948 20.3172 28.2086 20.2701 28.2926 20.1862C28.3765 20.1022 28.4236 19.9884 28.4236 19.8698C28.4236 19.7511 28.3765 19.6373 28.2926 19.5534C28.2086 19.4695 28.0948 19.4223 27.9762 19.4223H27.0813C26.9626 19.4223 26.8488 19.3752 26.7649 19.2913C26.681 19.2074 26.6338 19.0935 26.6338 18.9749C26.6338 18.8562 26.681 18.7424 26.7649 18.6585C26.8488 18.5746 26.9626 18.5274 27.0813 18.5274H27.4482L27.0813 16.3394C26.9833 15.7666 26.7151 15.2365 26.3117 14.8181C25.2423 13.7398 24.1908 13.1581 21.712 13.1581H7.39378C7.3148 13.1581 7.23724 13.1372 7.16896 13.0975C7.10069 13.0578 7.04414 13.0007 7.00505 12.9321C6.96597 12.8635 6.94574 12.7857 6.94643 12.7068C6.94712 12.6278 6.9687 12.5504 7.00898 12.4825L9.28646 8.68368H8.08284L5.52794 12.5093C5.48741 12.5709 5.4323 12.6215 5.36751 12.6566C5.30272 12.6917 5.23026 12.7103 5.15656 12.7107H4.26167C3.90567 12.7107 3.56424 12.8521 3.31251 13.1038C3.06077 13.3556 2.91935 13.697 2.91935 14.053V16.7377C2.91935 16.8563 2.87221 16.9701 2.78829 17.0541C2.70438 17.138 2.59057 17.1851 2.4719 17.1851H2.02446V18.5274H4.70912C4.82779 18.5274 4.9416 18.5746 5.02551 18.6585C5.10942 18.7424 5.15656 18.8562 5.15656 18.9749C5.15656 19.0935 5.10942 19.2074 5.02551 19.2913C4.9416 19.3752 4.82779 19.4223 4.70912 19.4223H2.02446C1.90579 19.4223 1.79198 19.4695 1.70807 19.5534C1.62416 19.6373 1.57702 19.7511 1.57702 19.8698C1.57702 19.9884 1.62416 20.1022 1.70807 20.1862C1.79198 20.2701 1.90579 20.3172 2.02446 20.3172H4.70912C4.82779 20.3172 4.9416 20.3643 5.02551 20.4483C5.10942 20.5322 5.15656 20.646 5.15656 20.7646C5.15656 20.8833 5.10942 20.9971 5.02551 21.081C4.9416 21.165 4.82779 21.2121 4.70912 21.2121H2.02446C1.67131 21.203 1.33512 21.0587 1.08532 20.8089C0.83552 20.5591 0.691189 20.2229 0.682129 19.8698C0.68561 19.6851 0.727144 19.5032 0.804132 19.3354C0.881123 19.1676 0.991911 19.0174 1.12957 18.8943ZM13.3806 6.89391H11.2507L10.8033 7.7888H13.828L13.3806 6.89391ZM15.0003 8.68368V12.2632H20.5531L16.6156 8.68368H15.0003ZM14.1054 12.2632V8.68368H10.3335L8.18575 12.2632H14.1054Z" fill="#333333"/>
<path d="M20.3691 18.9748C20.3691 19.0935 20.322 19.2073 20.2381 19.2912C20.1542 19.3751 20.0404 19.4222 19.9217 19.4222H11.8677C11.7491 19.4222 11.6352 19.3751 11.5513 19.2912C11.4674 19.2073 11.4203 19.0935 11.4203 18.9748C11.4203 18.8561 11.4674 18.7423 11.5513 18.6584C11.6352 18.5745 11.7491 18.5273 11.8677 18.5273H19.9217C20.0404 18.5273 20.1542 18.5745 20.2381 18.6584C20.322 18.7423 20.3691 18.8561 20.3691 18.9748Z" fill="#333333"/>
<path d="M18.5802 14.5H20.3699C20.4886 14.5 20.6024 14.5471 20.6863 14.6311C20.7702 14.715 20.8174 14.8288 20.8174 14.9474C20.8174 15.0661 20.7702 15.1799 20.6863 15.2638C20.6024 15.3477 20.4886 15.3949 20.3699 15.3949H19.9225V16.7372C19.9225 16.8559 19.8754 16.9697 19.7914 17.0536C19.7075 17.1375 19.5937 17.1847 19.4751 17.1847C19.3564 17.1847 19.2426 17.1375 19.1587 17.0536C19.0748 16.9697 19.0276 16.8559 19.0276 16.7372V15.3949H18.5802C18.4615 15.3949 18.3477 15.3477 18.2638 15.2638C18.1799 15.1799 18.1327 15.0661 18.1327 14.9474C18.1327 14.8288 18.1799 14.715 18.2638 14.6311C18.3477 14.5471 18.4615 14.5 18.5802 14.5Z" fill="#333333"/>
<path d="M16.7895 14.5C17.1427 14.5091 17.4788 14.6534 17.7286 14.9032C17.9784 15.153 18.1228 15.4892 18.1318 15.8423V16.7372C18.1318 16.8559 18.0847 16.9697 18.0008 17.0536C17.9169 17.1375 17.8031 17.1847 17.6844 17.1847C17.5657 17.1847 17.4519 17.1375 17.368 17.0536C17.2841 16.9697 17.2369 16.8559 17.2369 16.7372H16.3421C16.3421 16.8559 16.2949 16.9697 16.211 17.0536C16.1271 17.1375 16.0133 17.1847 15.8946 17.1847C15.776 17.1847 15.6621 17.1375 15.5782 17.0536C15.4943 16.9697 15.4472 16.8559 15.4472 16.7372V15.8423C15.4562 15.4892 15.6006 15.153 15.8504 14.9032C16.1002 14.6534 16.4364 14.5091 16.7895 14.5ZM17.2369 15.8423C17.2369 15.7237 17.1898 15.6099 17.1059 15.5259C17.022 15.442 16.9082 15.3949 16.7895 15.3949C16.6708 15.3949 16.557 15.442 16.4731 15.5259C16.3892 15.6099 16.3421 15.7237 16.3421 15.8423H17.2369Z" fill="#333333"/>
<path d="M14.8706 17.0558C14.829 17.0977 14.7795 17.131 14.725 17.1537C14.6704 17.1764 14.612 17.1881 14.5529 17.1881C14.4938 17.1881 14.4353 17.1764 14.3808 17.1537C14.3263 17.131 14.2768 17.0977 14.2352 17.0558L13.658 16.4741L13.0808 17.0558C13.0392 17.0977 12.9897 17.131 12.9352 17.1537C12.8807 17.1764 12.8222 17.1881 12.7631 17.1881C12.7041 17.1881 12.6456 17.1764 12.591 17.1537C12.5365 17.131 12.487 17.0977 12.4454 17.0558C12.4035 17.0142 12.3702 16.9647 12.3475 16.9101C12.3248 16.8556 12.3131 16.7971 12.3131 16.7381C12.3131 16.679 12.3248 16.6205 12.3475 16.566C12.3702 16.5115 12.4035 16.462 12.4454 16.4204L13.0271 15.8432L12.4454 15.266C12.3612 15.1817 12.3138 15.0675 12.3138 14.9483C12.3138 14.8291 12.3612 14.7149 12.4454 14.6306C12.5297 14.5464 12.644 14.499 12.7631 14.499C12.8823 14.499 12.9965 14.5464 13.0808 14.6306L13.658 15.2123L14.2352 14.6306C14.3195 14.5464 14.4337 14.499 14.5529 14.499C14.672 14.499 14.7863 14.5464 14.8706 14.6306C14.9548 14.7149 15.0022 14.8291 15.0022 14.9483C15.0022 15.0675 14.9548 15.1817 14.8706 15.266L14.2889 15.8432L14.8706 16.4204C14.9125 16.462 14.9458 16.5115 14.9685 16.566C14.9912 16.6205 15.0029 16.679 15.0029 16.7381C15.0029 16.7971 14.9912 16.8556 14.9685 16.9101C14.9458 16.9647 14.9125 17.0142 14.8706 17.0558Z" fill="#333333"/>
<path d="M10.9733 16.7372V14.9474C10.9733 14.8288 11.0204 14.715 11.1043 14.6311C11.1882 14.5471 11.3021 14.5 11.4207 14.5C11.5394 14.5 11.6532 14.5471 11.7371 14.6311C11.821 14.715 11.8682 14.8288 11.8682 14.9474V16.7372C11.8682 16.8559 11.821 16.9697 11.7371 17.0536C11.6532 17.1375 11.5394 17.1847 11.4207 17.1847C11.3021 17.1847 11.1882 17.1375 11.1043 17.0536C11.0204 16.9697 10.9733 16.8559 10.9733 16.7372Z" fill="#333333"/>
<path d="M8.28809 14.5H7.3932V15.3949H8.28809V14.5Z" fill="#333333"/>
<path d="M7.39355 15.3955H6.49867V16.2904H7.39355V15.3955Z" fill="#333333"/>
<path d="M6.49805 14.5H5.60316V15.3949H6.49805V14.5Z" fill="#333333"/>
<path d="M4.70898 14.5H3.8141V15.3949H4.70898V14.5Z" fill="#333333"/>
<path d="M5.60352 15.3955H4.70863V16.2904H5.60352V15.3955Z" fill="#333333"/>
<path d="M26.1865 15.3955H25.2916V16.2904H26.1865V15.3955Z" fill="#333333"/>
</g>
<defs>
<clipPath id="clip0_15_5895">
<rect width="28.6364" height="28.6364" fill="white" transform="matrix(-1 0 0 1 29.3184 0.181641)"/>
</clipPath>
</defs>
</svg>
