<svg width="54" height="27" viewBox="0 0 54 27" fill="none" xmlns="http://www.w3.org/2000/svg">
<g clip-path="url(#clip0_15_5588)">
<path d="M6.82382 6.65234H2.49057H1.61221C1.19641 6.65234 0.859375 6.98943 0.859375 7.40523V17.4432C0.859375 17.8591 1.19646 18.1962 1.61221 18.1962H2.49057H4.62444C4.62287 18.1607 4.62175 18.1252 4.62175 18.0893C4.62175 16.8419 5.6329 15.8308 6.88029 15.8308C8.12758 15.8308 9.13873 16.8419 9.13873 18.0893C9.13873 18.1252 9.13762 18.1607 9.13604 18.1962H18.3082C18.3065 18.1607 18.3054 18.1252 18.3054 18.0893C18.3054 16.8419 19.3165 15.8308 20.5638 15.8308C21.8112 15.8308 22.8224 16.8419 22.8224 18.0893C22.8224 18.1252 22.8213 18.1607 22.8197 18.1962H24.4071H25.2854C25.7012 18.1962 26.0382 17.8591 26.0382 17.4432V9.29342C26.0376 7.83458 24.8549 6.65234 23.396 6.65234H20.3133H8.19227" fill="#FF5357"/>
<path d="M2.34111 17.4432V7.40523C2.34111 6.98938 2.67819 6.65234 3.09394 6.65234H2.89584H2.01748C1.60168 6.65234 1.26465 6.98943 1.26465 7.40523V17.4432C1.26465 17.8591 1.60173 18.1962 2.01748 18.1962H2.89584H3.09394C2.67819 18.1961 2.34111 17.8591 2.34111 17.4432Z" fill="#ED3A47"/>
<path d="M20.5641 20.3479C21.8114 20.3479 22.8225 19.3368 22.8225 18.0895C22.8225 16.8422 21.8114 15.8311 20.5641 15.8311C19.3168 15.8311 18.3057 16.8422 18.3057 18.0895C18.3057 19.3368 19.3168 20.3479 20.5641 20.3479Z" fill="#5B5E5E"/>
<path d="M6.88051 20.3479C8.12781 20.3479 9.13895 19.3368 9.13895 18.0895C9.13895 16.8422 8.12781 15.8311 6.88051 15.8311C5.63321 15.8311 4.62207 16.8422 4.62207 18.0895C4.62207 19.3368 5.63321 20.3479 6.88051 20.3479Z" fill="#5B5E5E"/>
<path d="M20.5648 18.8649C20.9932 18.8649 21.3405 18.5176 21.3405 18.0892C21.3405 17.6608 20.9932 17.3135 20.5648 17.3135C20.1364 17.3135 19.7891 17.6608 19.7891 18.0892C19.7891 18.5176 20.1364 18.8649 20.5648 18.8649Z" fill="#E6E9ED"/>
<path d="M6.8812 18.8649C7.30963 18.8649 7.65693 18.5176 7.65693 18.0892C7.65693 17.6608 7.30963 17.3135 6.8812 17.3135C6.45278 17.3135 6.10547 17.6608 6.10547 18.0892C6.10547 18.5176 6.45278 18.8649 6.8812 18.8649Z" fill="#E6E9ED"/>
<path d="M16.8577 8.53516H10.626V18.1967H16.8577V8.53516Z" fill="#97D3EE"/>
<path d="M13.742 8.53516H10.626V18.1967H13.742V8.53516Z" fill="#52B2CC"/>
<path d="M16.8577 13.7939H10.626V18.0891H16.8577V13.7939Z" fill="#EF4556"/>
<path d="M13.742 13.7939H10.626V18.0891H13.742V13.7939Z" fill="#E23740"/>
<path d="M23.0813 13.7943H26.0389V9.10547H20.5645V13.7943H21.7129" fill="#97D3EE"/>
<path d="M20.5636 9.10547H16.8574V13.7942H20.5636V9.10547Z" fill="#52B2CC"/>
<path d="M10.5871 9.10547H6.88086V13.7942H10.5871V9.10547Z" fill="#97D3EE"/>
<path d="M6.88157 9.10547H3.1748V13.7942H6.88157V9.10547Z" fill="#52B2CC"/>
<path d="M0.859375 16.6284V15.1035H1.65486C2.07594 15.1035 2.41734 15.4449 2.41734 15.866C2.41734 16.2871 2.07599 16.6285 1.65486 16.6285H0.859375V16.6284Z" fill="#F98B38"/>
<path d="M26.0389 16.6284V15.1035H24.867C24.4459 15.1035 24.1045 15.4449 24.1045 15.866C24.1045 16.2871 24.4458 16.6285 24.867 16.6285H26.0389V16.6284Z" fill="#97D3EE"/>
<path d="M6.05698 18.0895C6.05698 17.0277 6.7899 16.1375 7.77719 15.8961C7.60464 15.8539 7.42452 15.8311 7.23901 15.8311C5.99162 15.8311 4.98047 16.8422 4.98047 18.0896C4.98047 19.3368 5.99162 20.3481 7.23901 20.3481C7.42452 20.3481 7.60464 20.3252 7.77719 20.283C6.7899 20.0415 6.05698 19.1513 6.05698 18.0895Z" fill="#424444"/>
<path d="M19.7874 18.0895C19.7874 17.0277 20.5203 16.1375 21.5077 15.8961C21.3351 15.8539 21.155 15.8311 20.9694 15.8311C19.7221 15.8311 18.7109 16.8422 18.7109 18.0896C18.7109 19.3368 19.7221 20.3481 20.9694 20.3481C21.155 20.3481 21.3351 20.3252 21.5077 20.283C20.5203 20.0415 19.7874 19.1513 19.7874 18.0895Z" fill="#424444"/>
<path d="M25.2835 15.8308C25.2835 15.4098 25.6249 15.0684 26.0461 15.0684H24.9696C24.5485 15.0684 24.207 15.4097 24.207 15.8308C24.207 16.2519 24.5484 16.5933 24.9696 16.5933H26.0461C25.625 16.5933 25.2835 16.252 25.2835 15.8308Z" fill="#6CC6E4"/>
<path d="M26.4345 8.99813C26.2847 7.45372 24.9793 6.24219 23.3965 6.24219H8.19268C7.9659 6.24219 7.78217 6.42602 7.78217 6.6527C7.78217 6.87939 7.9659 7.06322 8.19268 7.06322H23.3965C24.419 7.06322 25.2828 7.75511 25.5456 8.69502H20.5643H20.5642H17.2685V8.53486C17.2685 8.30812 17.0848 8.12434 16.858 8.12434H10.626C10.3992 8.12434 10.2155 8.30817 10.2155 8.53486V8.69502H6.88065H3.17414C2.94735 8.69502 2.76362 8.87885 2.76362 9.10553V13.7944C2.76362 14.0211 2.94735 14.2049 3.17414 14.2049H6.88065H10.2155V17.786H9.53249C9.53021 17.7658 9.52696 17.7458 9.52417 17.7257C9.52178 17.7083 9.5197 17.6907 9.51701 17.6734C9.51274 17.6462 9.50761 17.6193 9.50248 17.5924C9.49959 17.5772 9.4971 17.5617 9.49395 17.5466C9.4871 17.5135 9.47928 17.4808 9.4712 17.4482C9.46907 17.4395 9.46729 17.4306 9.46501 17.4219C9.45439 17.3809 9.44276 17.3402 9.43032 17.2999C9.42641 17.2874 9.42194 17.2752 9.41788 17.2628C9.40884 17.2351 9.39975 17.2074 9.38985 17.18C9.38411 17.1643 9.37781 17.1489 9.37177 17.1333C9.36268 17.1097 9.35364 17.0861 9.34394 17.0628C9.33699 17.0462 9.32942 17.0298 9.32216 17.0133C9.31251 16.9915 9.30296 16.9698 9.29271 16.9483C9.28473 16.9315 9.2763 16.915 9.26798 16.8984C9.25757 16.8777 9.24716 16.857 9.23629 16.8366C9.22735 16.82 9.21816 16.8035 9.20892 16.7871C9.1978 16.7673 9.18652 16.7475 9.17494 16.728C9.16519 16.7116 9.15519 16.6955 9.14514 16.6793C9.1332 16.6602 9.12107 16.6413 9.10862 16.6225C9.09811 16.6066 9.0875 16.5908 9.07668 16.5752C9.06384 16.5567 9.05073 16.5383 9.03743 16.5201C9.02626 16.5049 9.01503 16.4897 9.00361 16.4746C8.98985 16.4566 8.97578 16.4388 8.96166 16.4212C8.94988 16.4066 8.9382 16.3919 8.92607 16.3776C8.91139 16.3601 8.89631 16.3429 8.88118 16.3258C8.86899 16.3119 8.8568 16.298 8.84436 16.2844C8.82841 16.267 8.81211 16.2502 8.79576 16.2334C8.78337 16.2206 8.77118 16.2077 8.75854 16.1952C8.74097 16.1778 8.72284 16.1609 8.70486 16.144C8.69278 16.1326 8.68094 16.121 8.66871 16.1099C8.64779 16.091 8.6263 16.0728 8.60477 16.0545C8.59482 16.046 8.58512 16.0373 8.57502 16.029C8.54328 16.0028 8.51093 15.9774 8.47797 15.9527C8.4702 15.9469 8.46213 15.9414 8.45431 15.9358C8.42877 15.917 8.40307 15.8984 8.37687 15.8807C8.36402 15.872 8.35082 15.8637 8.33777 15.8553C8.31608 15.8411 8.2944 15.8269 8.27231 15.8133C8.25758 15.8042 8.24255 15.7957 8.22762 15.787C8.20665 15.7747 8.18573 15.7624 8.16445 15.7507C8.14861 15.742 8.13256 15.7337 8.11656 15.7253C8.09564 15.7143 8.07472 15.7034 8.05349 15.693C8.03689 15.6848 8.02008 15.677 8.00332 15.6692C7.98215 15.6594 7.96097 15.6496 7.93949 15.6403C7.92233 15.6328 7.90501 15.6257 7.88764 15.6186C7.86606 15.6098 7.84448 15.6012 7.82259 15.5929C7.80492 15.5862 7.7872 15.5798 7.76937 15.5735C7.74738 15.5657 7.72519 15.5582 7.703 15.551C7.68497 15.5451 7.66695 15.5395 7.64877 15.5339C7.62622 15.5271 7.60342 15.5207 7.58067 15.5145C7.56244 15.5095 7.54421 15.5046 7.52583 15.5C7.50257 15.4943 7.47906 15.489 7.4556 15.4838C7.43731 15.4798 7.41908 15.4756 7.40065 15.472C7.37648 15.4671 7.35205 15.463 7.32763 15.4589C7.30955 15.4558 7.29157 15.4525 7.27339 15.4498C7.2477 15.4461 7.2218 15.443 7.1959 15.44C7.17874 15.4379 7.16157 15.4356 7.14431 15.4338C7.11536 15.431 7.08611 15.4291 7.05691 15.4271C7.04239 15.4262 7.02802 15.4248 7.01339 15.4241C6.96942 15.4219 6.92529 15.4207 6.8808 15.4207C6.83637 15.4207 6.79214 15.4219 6.74821 15.4241C6.73359 15.4248 6.71922 15.4262 6.70464 15.4271C6.67545 15.4291 6.64625 15.4309 6.6173 15.4338C6.59993 15.4355 6.58282 15.4379 6.56555 15.44C6.53971 15.443 6.51381 15.4461 6.48821 15.4498C6.46998 15.4525 6.45191 15.4558 6.43383 15.4589C6.40945 15.463 6.38518 15.4672 6.36101 15.472C6.34252 15.4756 6.32419 15.4798 6.30576 15.4839C6.2824 15.489 6.25899 15.4943 6.23588 15.5C6.2174 15.5046 6.19907 15.5096 6.18063 15.5146C6.15799 15.5208 6.13539 15.5271 6.11294 15.5338C6.09461 15.5394 6.07643 15.5451 6.05825 15.551C6.03616 15.5581 6.01417 15.5656 5.99234 15.5733C5.97431 15.5797 5.95638 15.5862 5.93851 15.593C5.91688 15.6012 5.8955 15.6097 5.87417 15.6184C5.8566 15.6255 5.83903 15.6328 5.82161 15.6403C5.80038 15.6495 5.77941 15.6591 5.75849 15.6689C5.74148 15.6768 5.72447 15.6847 5.70766 15.6929C5.68674 15.7032 5.66612 15.714 5.6455 15.7248C5.6292 15.7333 5.6128 15.7418 5.59675 15.7507C5.57583 15.7621 5.55531 15.7743 5.5348 15.7864C5.51951 15.7953 5.50408 15.804 5.48899 15.8133C5.46746 15.8265 5.44639 15.8403 5.42531 15.8541C5.41176 15.863 5.39789 15.8716 5.38449 15.8807C5.35945 15.8977 5.33503 15.9154 5.31065 15.9333C5.30161 15.9398 5.29232 15.9461 5.28338 15.9528C5.25058 15.9773 5.21833 16.0027 5.1868 16.0287C5.17593 16.0377 5.16552 16.0472 5.1547 16.0563C5.13403 16.0739 5.11321 16.0915 5.09305 16.1097C5.08031 16.1212 5.06802 16.1332 5.05558 16.145C5.03801 16.1615 5.02034 16.1779 5.00317 16.1949C4.99027 16.2077 4.97773 16.221 4.96509 16.2341C4.94904 16.2507 4.93294 16.2672 4.9173 16.2842C4.9046 16.298 4.89221 16.3121 4.87982 16.3262C4.86494 16.3431 4.85007 16.36 4.83554 16.3773C4.8233 16.3919 4.81142 16.4067 4.79949 16.4216C4.78547 16.439 4.77156 16.4565 4.75805 16.4743C4.74642 16.4895 4.7351 16.5049 4.72382 16.5204C4.71067 16.5384 4.69772 16.5566 4.68503 16.575C4.67406 16.5908 4.66334 16.6067 4.65278 16.6227C4.64044 16.6414 4.62841 16.6602 4.61652 16.6791C4.60637 16.6954 4.59626 16.7117 4.58641 16.7282C4.57493 16.7475 4.56376 16.7671 4.55269 16.7868C4.54335 16.8034 4.534 16.82 4.52502 16.8369C4.51425 16.8571 4.50394 16.8775 4.49363 16.898C4.4852 16.9148 4.47667 16.9316 4.4686 16.9485C4.45849 16.9698 4.44895 16.9914 4.43935 17.013C4.43193 17.0297 4.42442 17.0462 4.41741 17.063C4.40776 17.086 4.39888 17.1094 4.38989 17.1327C4.38374 17.1486 4.37734 17.1642 4.3715 17.1802C4.36165 17.2074 4.35266 17.2348 4.34368 17.2623C4.33956 17.2749 4.33499 17.2873 4.33108 17.3C4.31859 17.3403 4.30701 17.3809 4.2964 17.4219C4.29406 17.431 4.29223 17.4402 4.29 17.4493C4.28203 17.4816 4.27431 17.5139 4.2675 17.5466C4.26431 17.5619 4.26182 17.5774 4.25892 17.5928C4.25384 17.6196 4.24877 17.6464 4.24445 17.6735C4.24171 17.6908 4.23963 17.7083 4.23729 17.7257C4.23455 17.7458 4.23125 17.7658 4.22896 17.7861H1.61261C1.42386 17.7861 1.2703 17.6325 1.2703 17.4436V17.0388H1.65527C2.30202 17.0388 2.82826 16.5126 2.82826 15.8658C2.82826 15.219 2.30207 14.6928 1.65527 14.6928H1.2703V7.40563C1.2703 7.21683 1.42391 7.06327 1.61261 7.06327H6.82428C7.05107 7.06327 7.2348 6.87944 7.2348 6.65275C7.2348 6.42607 7.05107 6.24224 6.82428 6.24224H1.61261C0.971097 6.24219 0.449219 6.76412 0.449219 7.40563V15.1033V16.6282V17.4435C0.449219 18.0851 0.971097 18.607 1.61261 18.607H4.26238C4.50404 19.8319 5.58599 20.7587 6.88065 20.7587C8.17527 20.7587 9.25716 19.8319 9.49883 18.607H10.626H16.858H17.9461C18.1877 19.8319 19.2696 20.7587 20.5642 20.7587C21.8589 20.7587 22.9409 19.8319 23.1825 18.607H25.2858C25.9273 18.607 26.4492 18.0851 26.4492 17.4435V16.6282V15.1033V13.7944V9.29363V9.10553C26.4492 9.06831 26.4437 9.03241 26.4345 8.99813ZM1.65522 15.5139C1.84926 15.5139 2.00718 15.6717 2.00718 15.8658C2.00718 16.0599 1.84926 16.2178 1.65522 16.2178H1.27025V15.5139H1.65522V15.5139ZM20.1537 9.5161V13.3838H17.2684V9.5161H20.1537ZM11.0365 14.2049H16.4475V17.6792H11.0365V14.2049ZM16.4474 9.10558V13.3838H14.1526V8.94542H16.4475V9.10558H16.4474ZM13.3315 8.94542V13.3838H11.0365V8.94542H13.3315ZM3.5847 9.5161H6.47014V13.3838H3.5847V9.5161ZM10.1765 13.3839H7.29122V9.51615H10.1765V13.3839ZM6.88065 19.9377C5.89133 19.9377 5.08122 19.1562 5.03486 18.1781C5.03354 18.1487 5.03262 18.1193 5.03262 18.0897C5.03262 17.0707 5.86168 16.2417 6.88065 16.2417C7.89958 16.2417 8.72858 17.0707 8.72858 18.0897C8.72858 18.1193 8.72766 18.1487 8.72634 18.1781C8.67998 19.1561 7.86992 19.9377 6.88065 19.9377ZM20.5642 19.9377C19.5755 19.9377 18.7658 19.1571 18.7186 18.1799C18.7186 18.1789 18.7187 18.1779 18.7186 18.1769C18.7172 18.1479 18.7163 18.1189 18.7163 18.0897C18.7163 17.0707 19.5453 16.2417 20.5642 16.2417C21.5832 16.2417 22.4123 17.0707 22.4123 18.0897C22.4122 19.1086 21.5832 19.9377 20.5642 19.9377ZM25.2858 17.786H23.2161C23.2138 17.7658 23.2106 17.7458 23.2078 17.7257C23.2054 17.7083 23.2033 17.6907 23.2006 17.6734C23.1963 17.6463 23.1913 17.6196 23.1861 17.5927C23.1832 17.5774 23.1807 17.5618 23.1775 17.5465C23.1707 17.5139 23.163 17.4815 23.155 17.4493C23.1528 17.4402 23.1509 17.4309 23.1486 17.4219C23.138 17.3808 23.1264 17.3402 23.114 17.3C23.11 17.2873 23.1055 17.2749 23.1014 17.2623C23.0924 17.2348 23.0834 17.2073 23.0735 17.1802C23.0678 17.1642 23.0613 17.1485 23.0552 17.1326C23.0462 17.1093 23.0373 17.0859 23.0276 17.0629C23.0206 17.0461 23.013 17.0296 23.0057 17.013C22.9961 16.9913 22.9866 16.9698 22.9764 16.9485C22.9683 16.9315 22.9598 16.9148 22.9514 16.898C22.9411 16.8775 22.9308 16.857 22.92 16.8368C22.911 16.82 22.9017 16.8033 22.8924 16.7867C22.8813 16.7671 22.8703 16.7475 22.8587 16.7282C22.8488 16.7117 22.8387 16.6953 22.8285 16.679C22.8167 16.66 22.8047 16.6413 22.7924 16.6227C22.7818 16.6066 22.7711 16.5907 22.7601 16.5749C22.7474 16.5566 22.7344 16.5384 22.7213 16.5203C22.7101 16.5049 22.6987 16.4895 22.6871 16.4742C22.6735 16.4565 22.6596 16.4389 22.6457 16.4215C22.6337 16.4067 22.6218 16.3919 22.6096 16.3772C22.5951 16.3599 22.5803 16.343 22.5653 16.3262C22.5529 16.312 22.5406 16.2979 22.5278 16.2841C22.5123 16.2671 22.4962 16.2506 22.4802 16.2341C22.4675 16.2209 22.4549 16.2076 22.442 16.1948C22.425 16.1779 22.4074 16.1616 22.3899 16.1451C22.3773 16.1332 22.3649 16.1212 22.3521 16.1095C22.332 16.0914 22.3115 16.074 22.291 16.0565C22.28 16.0473 22.2695 16.0376 22.2585 16.0285C22.2269 16.0025 22.1947 15.9772 22.1619 15.9526C22.1529 15.9459 22.1436 15.9397 22.1346 15.9331C22.1102 15.9153 22.0858 15.8975 22.0608 15.8806C22.0474 15.8714 22.0335 15.8629 22.0199 15.854C21.9988 15.8402 21.9778 15.8264 21.9563 15.8132C21.9412 15.8039 21.9257 15.7951 21.9105 15.7862C21.8899 15.7742 21.8694 15.7621 21.8485 15.7505C21.8324 15.7416 21.816 15.7332 21.7997 15.7247C21.7791 15.7139 21.7585 15.7031 21.7376 15.6928C21.7207 15.6845 21.7037 15.6766 21.6866 15.6687C21.6656 15.659 21.6447 15.6494 21.6235 15.6402C21.6061 15.6326 21.5886 15.6254 21.571 15.6182C21.5497 15.6095 21.5282 15.6009 21.5066 15.5928C21.4888 15.586 21.4709 15.5795 21.4529 15.5731C21.4311 15.5654 21.4091 15.5579 21.3869 15.5508C21.3688 15.5449 21.3506 15.5391 21.3323 15.5337C21.3099 15.5269 21.2872 15.5205 21.2646 15.5144C21.2462 15.5094 21.2279 15.5044 21.2095 15.4998C21.1863 15.4941 21.163 15.4888 21.1395 15.4836C21.1211 15.4796 21.1028 15.4754 21.0842 15.4718C21.0601 15.467 21.0358 15.4628 21.0114 15.4587C20.9933 15.4557 20.9753 15.4524 20.957 15.4496C20.9314 15.4459 20.9055 15.4428 20.8797 15.4398C20.8624 15.4377 20.8453 15.4354 20.8279 15.4336C20.799 15.4308 20.7698 15.4289 20.7406 15.4269C20.726 15.426 20.7117 15.4246 20.6971 15.4239C20.6531 15.4217 20.609 15.4205 20.5645 15.4205C20.5201 15.4205 20.4758 15.4217 20.4319 15.4239C20.4173 15.4246 20.403 15.426 20.3884 15.4269C20.3591 15.4289 20.3299 15.4307 20.301 15.4336C20.2837 15.4353 20.2666 15.4377 20.2494 15.4398C20.2235 15.4428 20.1976 15.4459 20.1719 15.4496C20.1537 15.4523 20.1358 15.4556 20.1177 15.4587C20.0932 15.4628 20.0689 15.4669 20.0447 15.4718C20.0263 15.4754 20.008 15.4795 19.9897 15.4836C19.9661 15.4888 19.9427 15.4941 19.9195 15.4998C19.9011 15.5045 19.8829 15.5094 19.8646 15.5143C19.8418 15.5206 19.8191 15.5269 19.7965 15.5337C19.7784 15.5392 19.7603 15.5449 19.7423 15.5508C19.72 15.558 19.6979 15.5655 19.6759 15.5733C19.6581 15.5796 19.6403 15.586 19.6227 15.5928C19.6009 15.6011 19.5792 15.6096 19.5578 15.6185C19.5404 15.6256 19.5231 15.6327 19.5059 15.6402C19.4844 15.6494 19.4632 15.6592 19.442 15.669C19.4252 15.6769 19.4084 15.6846 19.3919 15.6928C19.3706 15.7032 19.3497 15.7141 19.3288 15.7252C19.3128 15.7336 19.2967 15.7418 19.2809 15.7505C19.2596 15.7623 19.2387 15.7746 19.2177 15.7869C19.2029 15.7956 19.1878 15.8041 19.173 15.8131C19.151 15.8267 19.1293 15.8409 19.1076 15.8551C19.0945 15.8636 19.0814 15.8718 19.0685 15.8805C19.0424 15.8982 19.0169 15.9167 18.9914 15.9353C18.9835 15.9412 18.9753 15.9467 18.9673 15.9526C18.9344 15.9773 18.9021 16.0027 18.8703 16.0289C18.8602 16.0372 18.8506 16.046 18.8406 16.0544C18.819 16.0727 18.7976 16.0909 18.7766 16.1098C18.7644 16.121 18.7525 16.1325 18.7405 16.1439C18.7224 16.1608 18.7044 16.1776 18.6868 16.1951C18.6742 16.2076 18.662 16.2205 18.6496 16.2333C18.6332 16.2501 18.6168 16.267 18.601 16.2843C18.5884 16.2979 18.5764 16.3118 18.5641 16.3256C18.549 16.3428 18.5339 16.3599 18.5192 16.3774C18.5071 16.3919 18.4954 16.4065 18.4835 16.4212C18.4694 16.4388 18.4554 16.4565 18.4417 16.4744C18.4302 16.4894 18.4189 16.5047 18.4078 16.52C18.3945 16.5382 18.3815 16.5566 18.3686 16.575C18.3578 16.5907 18.3471 16.6065 18.3367 16.6223C18.3242 16.6411 18.3121 16.6601 18.3002 16.6792C18.2901 16.6953 18.2801 16.7115 18.2704 16.7278C18.2587 16.7473 18.2476 16.767 18.2364 16.7867C18.2271 16.8033 18.2178 16.8198 18.2089 16.8366C18.1981 16.8569 18.1878 16.8774 18.1775 16.8979C18.1691 16.9147 18.1606 16.9313 18.1526 16.9482C18.1425 16.9696 18.1329 16.9912 18.1233 17.0129C18.116 17.0295 18.1084 17.0459 18.1014 17.0627C18.0917 17.0858 18.0828 17.1093 18.0737 17.1328C18.0676 17.1485 18.0612 17.1641 18.0555 17.18C18.0457 17.207 18.0367 17.2345 18.0278 17.2619C18.0236 17.2746 18.019 17.2871 18.0151 17.2999C18.0026 17.3401 17.991 17.3807 17.9804 17.4217C17.9781 17.4308 17.9763 17.44 17.974 17.4491C17.9661 17.4814 17.9584 17.5137 17.9516 17.5464C17.9484 17.5618 17.9459 17.5774 17.9429 17.5928C17.9379 17.6196 17.9327 17.6463 17.9285 17.6732C17.9258 17.6907 17.9237 17.7084 17.9213 17.7259C17.9186 17.7458 17.9154 17.7658 17.9131 17.7859H17.2691V14.2049H20.5649H20.565H21.7133C21.9401 14.2049 22.1238 14.0211 22.1238 13.7944C22.1238 13.5677 21.9401 13.3839 21.7133 13.3839H20.9755V9.51615H25.6283V13.3839H23.0813C22.8545 13.3839 22.6707 13.5677 22.6707 13.7944C22.6707 14.0211 22.8545 14.2049 23.0813 14.2049H25.6283V14.6928H24.867C24.2202 14.6928 23.694 15.219 23.694 15.8658C23.694 16.5126 24.2202 17.0388 24.867 17.0388H25.6283V17.4436C25.6281 17.6325 25.4745 17.786 25.2858 17.786ZM25.6281 16.2177H24.8668C24.6727 16.2177 24.5148 16.0598 24.5148 15.8657C24.5148 15.6716 24.6727 15.5138 24.8668 15.5138H25.6281V16.2177Z" fill="#231F20"/>
<path d="M6.88058 16.9033C6.22647 16.9033 5.69434 17.4355 5.69434 18.0896C5.69434 18.7437 6.22647 19.2758 6.88058 19.2758C7.5347 19.2758 8.06683 18.7437 8.06683 18.0896C8.06683 17.4355 7.5347 16.9033 6.88058 16.9033ZM6.88058 18.4548C6.67919 18.4548 6.51537 18.291 6.51537 18.0896C6.51537 17.8882 6.67919 17.7244 6.88058 17.7244C7.08198 17.7244 7.2458 17.8882 7.2458 18.0896C7.2458 18.291 7.08198 18.4548 6.88058 18.4548Z" fill="#231F20"/>
<path d="M20.5642 16.9033C19.9101 16.9033 19.3779 17.4355 19.3779 18.0896C19.3779 18.7437 19.9101 19.2758 20.5642 19.2758C21.2183 19.2758 21.7504 18.7437 21.7504 18.0896C21.7504 17.4355 21.2183 16.9033 20.5642 16.9033ZM20.5642 18.4548C20.3628 18.4548 20.199 18.291 20.199 18.0896C20.199 17.8882 20.3628 17.7244 20.5642 17.7244C20.7656 17.7244 20.9294 17.8882 20.9294 18.0896C20.9294 18.291 20.7656 18.4548 20.5642 18.4548Z" fill="#231F20"/>
</g>
<path d="M47.6238 15.2368H48.055C48.5787 15.2368 49.0048 15.6629 49.0048 16.1867C49.0048 16.7105 48.5787 17.1365 48.055 17.1365H47.3449L47.2665 18.6459C47.2483 18.9931 47.3684 19.3214 47.6045 19.5701C47.8405 19.8186 48.1613 19.9554 48.5084 19.9554H49.92L50.1817 13.22C50.2118 12.4493 50.4172 11.6762 50.7923 10.9223L50.8318 10.8428L50.7865 10.8764C49.2452 12.0243 48.1093 13.5968 47.6238 15.2368Z" fill="#DBCA0B"/>
<path d="M48.2693 16.1872C48.2693 16.0689 48.1731 15.9727 48.0549 15.9727H40.415C40.4526 16.1144 40.4852 16.2575 40.5132 16.4017H48.0548C48.1731 16.4017 48.2693 16.3055 48.2693 16.1872Z" fill="#FFEC6B"/>
<path d="M38.6529 5.66792C38.6529 5.87103 38.4883 6.03561 38.2852 6.03561H35.2098V11.2251C36.0078 11.3596 36.7763 11.6383 37.4728 12.0569C38.3291 12.5713 39.3994 12.5927 40.266 12.1123L40.6352 11.9076L39.1172 5.75606C39.0901 5.64634 39.115 5.53022 39.1848 5.4413C39.2544 5.35222 39.3613 5.30028 39.4743 5.30028H39.8705C39.9955 5.30028 40.0972 5.19856 40.0972 5.0735C40.0972 4.94844 39.9955 4.84668 39.8705 4.84668H31.7356C31.6105 4.84668 31.5088 4.94844 31.5088 5.0735C31.5088 5.19856 31.6105 5.30028 31.7356 5.30028H38.2852C38.4883 5.30022 38.6529 5.4648 38.6529 5.66792Z" fill="#FFF296"/>
<path d="M43.812 18.2705C42.7692 18.2705 41.9209 19.1188 41.9209 20.1615C41.9209 21.2043 42.7693 22.0525 43.812 22.0525C44.8547 22.0525 45.7029 21.2042 45.7029 20.1615C45.7029 19.1188 44.8547 18.2705 43.812 18.2705ZM43.812 21.5302C43.0573 21.5302 42.4432 20.9162 42.4432 20.1615C42.4432 19.4069 43.0573 18.7929 43.812 18.7929C44.015 18.7929 44.1797 18.9574 44.1797 19.1606C44.1797 19.3637 44.015 19.5283 43.812 19.5283C43.4628 19.5283 43.1786 19.8124 43.1786 20.1616C43.1786 20.5107 43.4627 20.7948 43.812 20.7948C44.161 20.7948 44.4452 20.5107 44.4452 20.1616C44.4452 19.9585 44.6099 19.7939 44.8128 19.7939C45.0158 19.7939 45.1805 19.9585 45.1805 20.1616C45.1805 20.9162 44.5665 21.5302 43.812 21.5302Z" fill="#A3A3A3"/>
<path d="M33.8607 13.4287C31.4832 13.4287 29.5488 15.3631 29.5488 17.7406C29.5488 20.1182 31.4832 22.0525 33.8607 22.0525C36.2384 22.0525 38.1727 20.1182 38.1727 17.7406C38.1727 15.363 36.2384 13.4287 33.8607 13.4287ZM33.8607 20.341C32.4269 20.341 31.2604 19.1745 31.2604 17.7406C31.2604 16.3067 32.4269 15.1401 33.8607 15.1401C35.2946 15.1401 36.4611 16.3067 36.4611 17.7406C36.4611 19.1745 35.2946 20.341 33.8607 20.341Z" fill="#A3A3A3"/>
<path d="M33.861 15.875C32.8327 15.875 31.9961 16.7116 31.9961 17.74C31.9961 18.7684 32.8327 19.6051 33.861 19.6051C34.8893 19.6051 35.726 18.7684 35.726 17.74C35.726 16.7117 34.8894 15.875 33.861 15.875ZM33.861 19.057C33.1348 19.057 32.5441 18.4662 32.5441 17.74C32.5441 17.5369 32.7086 17.3723 32.9118 17.3723C33.1149 17.3723 33.2795 17.5369 33.2795 17.74C33.2795 18.0607 33.5403 18.3216 33.861 18.3216C34.1816 18.3216 34.4425 18.0607 34.4425 17.74C34.4425 17.4194 34.1816 17.1586 33.861 17.1586C33.6579 17.1586 33.4933 16.994 33.4933 16.7909C33.4933 16.5878 33.6579 16.4232 33.861 16.4232C34.5871 16.4232 35.1779 17.0139 35.1779 17.74C35.1779 18.4662 34.5871 19.057 33.861 19.057Z" fill="#DBCA0B"/>
<path d="M43.8121 17.535C44.2264 17.535 44.6172 17.6341 44.966 17.8057L45.0452 17.1367H40.6128C40.6257 17.3043 40.6341 17.4726 40.6341 17.6416C40.6341 17.8448 40.4694 18.0093 40.2664 18.0093C40.0633 18.0093 39.8987 17.8448 39.8987 17.6416C39.8987 16.5935 39.6152 15.5672 39.0787 14.6735C38.9743 14.4995 39.0306 14.2736 39.2048 14.169C39.3787 14.0644 39.6049 14.121 39.7093 14.2951C39.8901 14.5964 40.0422 14.9123 40.1712 15.2369H45.2702L45.4181 13.9865L41.0939 12.4941L40.6222 12.7557C39.5268 13.3635 38.1748 13.3373 37.0936 12.6875C36.1994 12.1502 35.1723 11.8662 34.1233 11.8662C32.792 11.8662 31.5411 12.3064 30.506 13.1392C30.3359 13.276 30.2323 13.4783 30.2216 13.6941C30.2138 13.8524 30.2553 14.003 30.3392 14.1315C31.2494 13.2431 32.4914 12.6931 33.8607 12.6931C36.6439 12.6931 38.9081 14.9573 38.9081 17.7403C38.9081 18.1966 38.8418 18.6366 38.7277 19.0573H41.4323C41.8504 18.1599 42.7586 17.535 43.8121 17.535Z" fill="#19B041"/>
<path d="M44.7732 12.985L44.9245 12.4144C44.9717 12.2375 44.8733 12.0511 44.7007 11.99L41.0977 10.7129L41.3683 11.8098L44.7732 12.985Z" fill="#A3A3A3"/>
<path d="M34.4745 11.1428V6.03613H32.8761L32.0049 11.4883C32.6831 11.2549 33.3994 11.131 34.1238 11.131C34.241 11.131 34.3578 11.1366 34.4745 11.1428Z" fill="#DBCA0B"/>
<path d="M44.8129 19.793C44.6099 19.793 44.4453 19.9576 44.4453 20.1607C44.4453 20.5098 44.1611 20.7939 43.8121 20.7939C43.4629 20.7939 43.1787 20.5098 43.1787 20.1607C43.1787 19.8115 43.4628 19.5274 43.8121 19.5274C44.0151 19.5274 44.1798 19.3628 44.1798 19.1597C44.1798 18.9566 44.0151 18.792 43.8121 18.792C43.0574 18.792 42.4434 19.406 42.4434 20.1606C42.4434 20.9153 43.0574 21.5293 43.8121 21.5293C44.5666 21.5293 45.1806 20.9153 45.1806 20.1606C45.1806 19.9576 45.016 19.793 44.8129 19.793Z" fill="#333333"/>
<path d="M33.8611 15.1396C32.4273 15.1396 31.2607 16.3062 31.2607 17.7401C31.2607 19.174 32.4272 20.3405 33.8611 20.3405C35.295 20.3405 36.4614 19.174 36.4614 17.7401C36.4614 16.3062 35.295 15.1396 33.8611 15.1396ZM33.8611 19.6051C32.8328 19.6051 31.9962 18.7685 31.9962 17.7401C31.9962 16.7117 32.8328 15.875 33.8611 15.875C34.8894 15.875 35.7261 16.7117 35.7261 17.7401C35.7261 18.7685 34.8895 19.6051 33.8611 19.6051Z" fill="#333333"/>
<path d="M33.8608 16.4229C33.6577 16.4229 33.4931 16.5874 33.4931 16.7905C33.4931 16.9937 33.6577 17.1582 33.8608 17.1582C34.1814 17.1582 34.4424 17.4191 34.4424 17.7397C34.4424 18.0604 34.1814 18.3213 33.8608 18.3213C33.5402 18.3213 33.2793 18.0604 33.2793 17.7397C33.2793 17.5366 33.1147 17.372 32.9116 17.372C32.7085 17.372 32.5439 17.5366 32.5439 17.7397C32.5439 18.4658 33.1346 19.0567 33.8608 19.0567C34.5869 19.0567 35.1777 18.4658 35.1777 17.7397C35.1777 17.0135 34.587 16.4229 33.8608 16.4229Z" fill="#333333"/>
<path d="M51.6263 9.33452L50.3475 10.2865C48.6159 11.5759 47.3561 13.3709 46.8619 15.2367H46.0106L46.1832 13.7785C46.2036 13.6069 46.1016 13.4441 45.9381 13.3877L45.4701 13.2262L45.6352 12.6037C45.7796 12.0593 45.477 11.4855 44.946 11.2974L40.8864 9.85847L39.9425 6.03299C40.4392 5.99591 40.832 5.5797 40.832 5.07354C40.832 4.54293 40.4005 4.11133 39.87 4.11133H31.7351C31.2046 4.11133 30.7729 4.54293 30.7729 5.07354C30.7729 5.60409 31.2046 6.03574 31.7351 6.03574H32.1308L31.2052 11.8282C30.7957 12.0333 30.4045 12.2767 30.045 12.566C29.7114 12.8344 29.508 13.2323 29.4872 13.6577C29.4685 14.0376 29.5989 14.4083 29.8459 14.6939C29.2011 15.5417 28.8135 16.5953 28.8135 17.7402C28.8135 20.5233 31.0777 22.7875 33.8607 22.7875C35.9128 22.7875 37.6793 21.5547 38.4676 19.7925H41.2146C41.1975 19.9133 41.1856 20.0357 41.1856 20.1612C41.1856 21.6093 42.3638 22.7875 43.8121 22.7875C45.2601 22.7875 46.4384 21.6093 46.4384 20.1612C46.4384 19.4279 46.1355 18.7646 45.6492 18.2876L45.7855 17.1364H46.6085L46.532 18.6076C46.5033 19.1583 46.6947 19.6799 47.071 20.0764C47.4471 20.4726 47.9574 20.6908 48.5083 20.6908H50.9387C51.1418 20.6908 51.3064 20.5262 51.3064 20.3231C51.3064 20.12 51.1417 19.9554 50.9387 19.9554H50.6558L50.9165 13.2486C50.9423 12.5825 51.1221 11.91 51.4505 11.2498L52.1749 9.79321C52.2508 9.64085 52.212 9.45636 52.0816 9.34736C51.9513 9.23832 51.7629 9.23291 51.6263 9.33452ZM44.7005 11.9906C44.8731 12.0516 44.9714 12.2381 44.9243 12.4151L44.773 12.9856L41.368 11.8105L41.0974 10.7136L44.7005 11.9906ZM31.7351 5.30036C31.61 5.30036 31.5083 5.19865 31.5083 5.07359C31.5083 4.94853 31.61 4.84676 31.7351 4.84676H39.87C39.995 4.84676 40.0967 4.94853 40.0967 5.07359C40.0967 5.19865 39.995 5.30036 39.87 5.30036H39.4737C39.3607 5.30036 39.2539 5.35231 39.1843 5.44138C39.1145 5.5303 39.0896 5.64642 39.1167 5.75614L40.6346 11.9077L40.2654 12.1124C39.3989 12.5927 38.3286 12.5715 37.4723 12.057C36.7758 11.6384 36.0073 11.3597 35.2093 11.2251V6.03569H38.2847C38.4878 6.03569 38.6523 5.87111 38.6523 5.668C38.6523 5.46489 38.4878 5.30031 38.2847 5.30031L31.7351 5.30036ZM32.8756 6.03574H34.474V11.1425C34.3574 11.1362 34.2406 11.1306 34.1233 11.1306C33.3989 11.1306 32.6826 11.2545 32.0044 11.4879L32.8756 6.03574ZM33.8607 22.0522C31.4832 22.0522 29.5488 20.1178 29.5488 17.7402C29.5488 15.3626 31.4832 13.4283 33.8607 13.4283C36.2383 13.4283 38.1726 15.3627 38.1726 17.7402C38.1726 20.1178 36.2383 22.0522 33.8607 22.0522ZM38.7277 19.0571C38.8418 18.6364 38.9081 18.1964 38.9081 17.7402C38.9081 14.9571 36.6439 12.6929 33.8608 12.6929C32.4914 12.6929 31.2494 13.2429 30.3392 14.1314C30.2554 14.0028 30.2139 13.8522 30.2216 13.6939C30.2323 13.4781 30.3359 13.2759 30.506 13.139C31.5411 12.3062 32.792 11.866 34.1233 11.866C35.1724 11.866 36.1995 12.1501 37.0936 12.6873C38.1748 13.3371 39.5268 13.3633 40.6222 12.7555L41.094 12.4939L45.4181 13.9863L45.2702 15.2367H40.1712C40.0423 14.9121 39.8902 14.5962 39.7093 14.2949C39.6049 14.1209 39.3787 14.0642 39.2048 14.1689C39.0306 14.2734 38.9743 14.4993 39.0787 14.6734C39.6152 15.567 39.8987 16.5933 39.8987 17.6415C39.8987 17.8446 40.0633 18.0092 40.2664 18.0092C40.4694 18.0092 40.6341 17.8446 40.6341 17.6415C40.6341 17.4724 40.6257 17.3041 40.6128 17.1365H45.0452L44.966 17.8055C44.6171 17.6339 44.2264 17.5348 43.8121 17.5348C42.7585 17.5348 41.8503 18.1598 41.4323 19.0572H38.7277V19.0571ZM45.703 20.1612C45.703 21.2039 44.8549 22.0522 43.8121 22.0522C42.7694 22.0522 41.9211 21.2039 41.9211 20.1612C41.9211 19.1184 42.7694 18.2701 43.8121 18.2701C44.8549 18.2701 45.703 19.1184 45.703 20.1612ZM40.5133 16.4011C40.4854 16.2569 40.4527 16.1139 40.4151 15.9721H48.0549C48.1732 15.9721 48.2694 16.0683 48.2694 16.1866C48.2694 16.3048 48.1732 16.4011 48.0549 16.4011H40.5133ZM50.7923 10.9222C50.4171 11.6762 50.2118 12.4492 50.1816 13.2199L49.92 19.9554H48.5083C48.1613 19.9554 47.8405 19.8186 47.6044 19.5701C47.3684 19.3214 47.2482 18.9931 47.2664 18.6458L47.3449 17.1364H48.0549C48.5787 17.1364 49.0048 16.7104 49.0048 16.1866C49.0048 15.6629 48.5787 15.2367 48.0549 15.2367H47.6238C48.1092 13.5968 49.2452 12.0243 50.7865 10.8764L50.8317 10.8428L50.7923 10.9222Z" fill="#333333"/>
<defs>
<clipPath id="clip0_15_5588">
<rect width="26" height="26" fill="white" transform="translate(0.449219 0.5)"/>
</clipPath>
</defs>
</svg>
