<svg width="128" height="128" viewBox="0 0 128 128" fill="none" xmlns="http://www.w3.org/2000/svg">
<path d="M64.001 128C99.3477 128 128.002 99.3462 128.002 64C128.002 28.6538 99.3477 0 64.001 0C28.6542 0 0 28.6538 0 64C0 99.3462 28.6542 128 64.001 128Z" fill="#D6E3F0"/>
<mask id="mask0_10_36270" style="mask-type:luminance" maskUnits="userSpaceOnUse" x="0" y="0" width="129" height="128">
<path d="M64.001 128C99.3477 128 128.002 99.3462 128.002 64C128.002 28.6538 99.3477 0 64.001 0C28.6542 0 0 28.6538 0 64C0 99.3462 28.6542 128 64.001 128Z" fill="white"/>
</mask>
<g mask="url(#mask0_10_36270)">
<path d="M110.009 139.735H17.9922L18.6767 137.828C22.3926 127.414 26.6463 117.098 31.2911 107.172C31.9267 105.852 32.8557 104.728 33.9802 103.897C34.3225 103.408 34.6647 102.919 35.007 102.43C37.7939 98.3229 40.4341 94.4604 40.3363 89.2778C40.2385 85.2198 38.8206 81.7973 37.0605 78.4238C36.7671 78.5215 36.4249 78.5704 36.0826 78.5704C34.3225 78.5704 32.9046 77.2503 32.709 75.588C30.0688 73.1434 28.3086 69.0853 28.3086 65.4184C28.3086 63.805 28.6509 62.3871 29.3354 61.1648C28.7487 58.6224 28.4064 56.08 28.3086 53.4398C27.5752 30.8027 42.3898 24.0555 43.6121 23.5177C44.0522 23.2733 46.6435 22.051 50.2616 21.8065C53.9775 18.9219 60.6269 16.2328 67.912 17.7973C79.8908 20.2908 87.078 24.5934 91.1851 31.7316C94.7053 35.3008 98.7146 41.999 98.2745 53.4887C98.1768 55.6888 97.9812 57.7423 97.59 59.8447C98.9101 61.2626 99.5947 63.2183 99.5947 65.4673C99.5947 69.7209 97.2967 74.3168 94.0697 76.5659C93.5319 77.7882 92.3096 78.6682 90.9406 78.6682H90.8917C89.3271 82.384 88.3493 85.6109 88.2515 89.3756C88.1537 94.5582 90.5494 98.4207 93.0919 102.528C93.3852 103.017 93.6786 103.457 93.972 103.946C95.1454 104.777 96.0744 105.95 96.71 107.27C101.355 117.195 105.608 127.463 109.324 137.926L110.009 139.735ZM22.0992 136.801H105.902C102.382 127.12 98.4212 117.586 94.0697 108.346C93.6297 107.368 92.9452 106.586 92.0651 105.999L91.7718 105.803L91.6251 105.51C91.2828 104.972 90.9406 104.386 90.5983 103.848C87.9581 99.5452 85.2201 95.1449 85.3668 89.0823C85.4646 83.9975 87.1269 79.7439 88.6915 76.1747L89.3271 74.7568L90.6961 75.4902C90.7939 75.5391 90.8428 75.5391 90.9406 75.5391C91.2339 75.5391 91.4295 75.3435 91.4784 75.0991L91.6251 74.5124L92.1629 74.1701C94.7542 72.6056 96.7589 68.6453 96.7589 65.2718C96.7589 63.5116 96.221 62.1915 95.1454 61.2626L94.5098 60.7247L94.6565 59.8936C95.0965 57.6934 95.341 55.4933 95.4387 53.1954C95.781 44.6881 93.6297 38.0387 89.0826 33.4918L88.936 33.3451L88.8382 33.1984C85.1712 26.7446 78.5706 22.8821 67.3741 20.5353C60.3824 19.0685 54.2708 22.1976 51.7773 24.2511L51.3861 24.5445H50.8972C47.3769 24.6911 44.9322 25.9623 44.9322 25.9623L44.7856 26.0112C44.1989 26.2557 30.5088 32.1228 31.1933 53.1464C31.2911 55.7866 31.6333 58.329 32.269 60.8714L32.4156 61.507L32.0245 62.0448C31.4378 62.876 31.1444 63.9516 31.1444 65.2228C31.1444 68.2542 32.7579 71.7744 35.007 73.6323L35.6426 74.1212L35.5448 74.9035V74.9524C35.5448 75.2458 35.7892 75.4902 36.0826 75.4902C36.2782 75.4902 36.4249 75.3925 36.4737 75.2947L36.9627 74.7568L38.4784 74.9524L38.8695 75.588C41.0208 79.4994 43.0743 83.8019 43.1721 89.0334C43.2699 95.096 40.2385 99.5452 37.3538 103.848C36.9627 104.386 36.5715 104.972 36.2293 105.559L36.0826 105.803L35.8381 105.95C35.007 106.537 34.3225 107.319 33.8824 108.248C29.5798 117.586 25.6195 127.169 22.0992 136.801Z" fill="white"/>
</g>
<mask id="mask1_10_36270" style="mask-type:luminance" maskUnits="userSpaceOnUse" x="0" y="0" width="129" height="128">
<path d="M64.001 128C99.3477 128 128.002 99.3462 128.002 64C128.002 28.6538 99.3477 0 64.001 0C28.6542 0 0 28.6538 0 64C0 99.3462 28.6542 128 64.001 128Z" fill="white"/>
</mask>
<g mask="url(#mask1_10_36270)">
<path d="M44.2461 24.7885C44.2461 24.7885 29.0404 30.949 29.7737 53.3416C30.3605 70.5517 41.6059 77.2989 41.8014 89.2286C42.0459 101.158 29.1381 106.243 29.7737 121.057C30.4094 135.872 39.699 136.899 39.699 136.899H64.6345C64.6345 136.899 73.8264 40.0918 64.6345 29.5311C55.4915 18.9215 44.2461 24.7885 44.2461 24.7885Z" fill="#7C3F25"/>
<path d="M81.9424 27.5754C81.9424 27.5754 97.7349 31.2424 96.8548 53.3417C96.1703 70.5518 87.0273 77.2989 86.8317 89.2286C86.5873 101.158 98.3216 106.243 97.686 121.057C97.0504 135.872 86.9784 136.899 86.9784 136.899H62.043V29.4823L81.9424 27.5754Z" fill="#7C3F25"/>
<path d="M70.4531 84.2903H57.0566V107.465H70.4531V84.2903Z" fill="#F9C9AA"/>
<path d="M97.2465 116.805C97.2465 109.667 91.3793 103.8 84.2409 103.8H43.7575C36.6191 103.8 30.752 109.667 30.752 116.805V138.269H97.2465V116.805Z" fill="#1A1A1A"/>
<path d="M34.7125 40.532C34.7125 40.532 33.9303 54.1729 37.5972 61.7023C40.0418 66.6893 43.2198 49.9682 43.2198 49.9682L34.7125 40.532Z" fill="#7C3F25"/>
<path d="M73.2903 103.8H54.7109L59.5514 138.269H68.4988L73.2903 103.8Z" fill="white"/>
<path d="M44.2475 73.8273C42.7318 75.4896 40.5806 76.4675 38.2338 76.4675C33.5401 76.4675 29.7754 70.3559 29.7754 65.3689C29.7754 60.333 33.589 58.2795 38.2338 58.2795C40.4339 58.2795 42.4385 59.1596 43.9053 60.6264L44.2475 73.8273Z" fill="#F9D6BE"/>
<path d="M83.7051 73.8273C85.2207 75.4896 87.372 76.4675 89.7188 76.4675C94.4125 76.4675 98.1772 70.3559 98.1772 65.3689C98.1772 60.333 94.3636 58.2795 89.7188 58.2795C87.5187 58.2795 85.5141 59.1596 84.0473 60.6264L83.7051 73.8273Z" fill="#F9C9AA"/>
<path d="M39.6992 34.7622V72.3604C39.6992 85.9524 50.7002 97.0021 64.3413 97.0021C77.9336 97.0021 88.9834 86.0013 88.9834 72.3604V34.7622H39.6992Z" fill="#F9D6BE"/>
<path d="M88.9329 72.3601V33.4907H63.1174C63.1174 33.4907 63.1174 62.9727 63.1174 63.4128C63.1174 63.8528 62.8729 64.3417 62.8729 64.3417L56.9569 75.3425C56.9569 75.3425 56.0768 76.467 57.348 76.467C58.4237 76.467 61.6995 76.467 62.7751 76.467C63.1174 76.467 63.1174 76.8093 63.1174 76.8093V96.904C63.5085 96.904 63.8997 96.9529 64.3397 96.9529C77.932 96.9529 88.9329 85.9521 88.9329 72.3601Z" fill="#F9C9AA"/>
<path d="M56.0801 82.9699L72.5081 80.3787C72.5081 80.3787 72.5081 87.9081 63.8052 89.0815C57.009 90.0593 56.0801 82.9699 56.0801 82.9699Z" fill="#A0174D"/>
<path d="M72.5559 80.4272C72.5559 80.4272 72.3603 82.2362 72.1647 82.5785C71.9203 83.0674 65.3198 84.9742 59.0616 84.8276C57.1548 84.7787 56.7637 82.8719 56.7637 82.8719L72.5559 80.4272Z" fill="white"/>
<path d="M57.3014 54.5637C57.2525 54.5637 57.2036 54.5637 57.1547 54.5637C53.1944 53.1458 49.772 53.7814 47.6207 54.5637C47.4251 54.6126 47.2296 54.5148 47.1807 54.3681C47.1318 54.1725 47.2296 53.977 47.3763 53.9281C49.6742 53.0969 53.2433 52.4124 57.3992 53.9281C57.5947 53.977 57.6925 54.2214 57.5947 54.3681C57.5947 54.4659 57.4481 54.5637 57.3014 54.5637Z" fill="#7C3F25"/>
<path d="M80.7233 54.5637C80.6744 54.5637 80.6255 54.5637 80.5766 54.5637C76.6163 53.1458 73.1939 53.7814 71.0426 54.5637C70.847 54.6126 70.6515 54.5148 70.6026 54.3681C70.5537 54.1725 70.6515 53.977 70.7981 53.9281C73.0961 53.0969 76.6652 52.4124 80.8211 53.9281C81.0166 53.977 81.1144 54.2214 81.0166 54.3681C81.0166 54.4659 80.8699 54.5637 80.7233 54.5637Z" fill="#7C3F25"/>
<path d="M63.9985 103.798L61.1139 108.541L54.709 103.798L55.7357 100.865L63.9985 103.798Z" fill="#EFEFEF"/>
<path d="M64 103.798L66.9335 108.541L73.2895 103.798L72.2628 100.865L64 103.798Z" fill="#EFEFEF"/>
<path d="M54.7073 103.799H47.9601L50.9915 109.568L47.0801 112.013L58.9609 134.21L54.7073 103.799Z" fill="#595757"/>
<path d="M73.2868 103.799H80.0339L77.0026 109.568L80.9629 112.013L69.082 134.21L73.2868 103.799Z" fill="#595757"/>
<path d="M42.6827 46.4972C42.6827 46.4972 42.2426 49.5774 40.6781 60.4804C40.3847 62.4361 39.7002 67.3742 39.7002 67.3742V58.3292L38.918 58.2802L39.7002 44.1504H44.7362L42.6827 46.4972Z" fill="#7C3F25"/>
<path d="M85.9539 46.4972C85.9539 46.4972 86.3939 49.5774 87.9584 60.4804C88.2518 62.4361 88.9363 67.3742 88.9363 67.3742V58.3292L89.7186 58.2802L88.9363 44.1504H83.9004L85.9539 46.4972Z" fill="#7C3F25"/>
<path d="M44.685 113.431C45.7117 111.182 45.4673 108.689 44.245 106.733L47.0807 108.053V103.8H37.9377C35.7376 104.093 33.6841 105.56 32.6573 107.76C27.9636 117.734 23.7588 127.903 20.0918 138.269H34.3197C37.3999 129.859 40.8713 121.596 44.685 113.431Z" fill="#1A1A1A"/>
<path d="M95.3902 107.76C94.3146 105.511 92.31 104.093 90.1098 103.8H80.9668V108.053L83.8026 106.733C82.5314 108.64 82.2869 111.182 83.3626 113.431C87.1762 121.547 90.6476 129.859 93.7768 138.269H108.005C104.289 127.903 100.084 117.734 95.3902 107.76Z" fill="#1A1A1A"/>
<path d="M52.4596 56.5683C51.8729 56.5683 51.384 56.7639 50.8951 57.1061C49.9661 56.7639 49.3305 55.9327 49.3305 55.9327C49.3305 55.9327 49.0861 55.786 49.0861 56.1772C49.0861 56.4705 49.2816 57.7417 49.6728 58.524C49.2327 59.3552 48.9883 60.3819 48.9883 61.5064C48.9883 64.2444 50.5528 66.4935 52.4596 66.4935C54.3664 66.4935 55.931 64.2444 55.931 61.5064C55.931 58.8174 54.3664 56.5683 52.4596 56.5683Z" fill="#481C05"/>
<path d="M75.8308 56.5683C75.293 56.5683 74.8041 56.715 74.364 57.0083C73.5329 56.6172 72.995 55.9327 72.995 55.9327C72.995 55.9327 72.7506 55.786 72.7506 56.1772C72.7506 56.4216 72.8973 57.4484 73.1906 58.2306C72.6528 59.1107 72.3105 60.2841 72.3105 61.5064C72.3105 64.2444 73.8751 66.4935 75.7819 66.4935C77.6887 66.4935 79.2533 64.2444 79.2533 61.5064C79.3021 58.8174 77.7376 56.5683 75.8308 56.5683Z" fill="#481C05"/>
<path d="M56.7639 37.9401C56.7639 37.9401 62.9733 33.0997 70.454 37.9401C77.9346 42.7804 83.704 56.7147 88.9355 57.5948C93.0426 57.937 93.2381 38.1356 90.0601 32.5619C86.7354 26.6948 80.7215 21.9034 67.6182 19.1654C57.8885 17.1119 49.6744 23.2235 49.0388 25.2769C48.501 27.2815 56.7639 37.9401 56.7639 37.9401Z" fill="#7C3F25"/>
<path d="M56.7617 37.9402C56.7617 37.9402 44.6362 36.3267 39.698 58.3282L34.7109 40.5314C34.7109 40.5314 41.996 25.8638 59.353 30.313C59.4508 30.313 56.7617 37.9402 56.7617 37.9402Z" fill="#7C3F25"/>
<path d="M38.0872 75.099C38.0872 76.1746 37.2071 77.0547 36.1315 77.0547C35.0558 77.0547 34.1758 76.1746 34.1758 75.099C34.1758 74.0234 35.0558 73.1433 36.1315 73.1433C37.2071 73.1433 38.0872 74.0234 38.0872 75.099Z" fill="#B60005"/>
<path d="M92.9387 75.099C92.9387 76.1746 92.0587 77.0547 90.983 77.0547C89.9074 77.0547 89.0273 76.1746 89.0273 75.099C89.0273 74.0234 89.9074 73.1433 90.983 73.1433C92.0587 73.1433 92.9387 74.0234 92.9387 75.099Z" fill="#B60005"/>
</g>
</svg>
