<svg width="13" height="17" viewBox="0 0 13 17" fill="none" xmlns="http://www.w3.org/2000/svg">
<path fill-rule="evenodd" clip-rule="evenodd" d="M4.19048 11.6869V15.6527C4.19048 15.8632 4.36103 16.0337 4.57143 16.0337H12C12.2104 16.0337 12.381 15.8632 12.381 15.6527V0.414644C12.381 0.204244 12.2104 0.0336914 12 0.0336914H4.57143C4.36103 0.0336914 4.19048 0.204244 4.19048 0.414644V4.38045C4.37943 4.37908 4.5725 4.4484 4.72922 4.60512L7.34968 7.22558C7.79598 7.67188 7.79598 8.3955 7.34968 8.84181L4.72922 11.4623C4.5725 11.619 4.37943 11.6883 4.19048 11.6869ZM4.19048 10.9235L6.81093 8.30306C6.9597 8.1543 6.9597 7.91308 6.81093 7.76432L4.19048 5.14386V6.31941C4.19048 6.63501 3.93465 6.89083 3.61905 6.89083H0.380952C0.170552 6.89083 0 7.06139 0 7.27179V8.7956C0 9.006 0.170552 9.17655 0.380952 9.17655H3.61905C3.93465 9.17655 4.19048 9.43238 4.19048 9.74798V10.9235ZM10.6667 6.60512C10.8771 6.60512 11.0476 6.77567 11.0476 6.98607V9.08131C11.0476 9.29171 10.8771 9.46226 10.6667 9.46226C10.4563 9.46226 10.2857 9.29171 10.2857 9.08131V6.98607C10.2857 6.77567 10.4563 6.60512 10.6667 6.60512Z" fill="#444444"/>
</svg>
