<svg width="62" height="27" viewBox="0 0 62 27" fill="none" xmlns="http://www.w3.org/2000/svg">
<path d="M28.8054 13.093L28.1269 11.0576H25.5488V13.093C25.5488 13.3178 25.7311 13.5 25.9559 13.5H29.2124L28.8054 13.093Z" fill="#5D5360"/>
<path d="M28.1269 11.0576H25.5488V12.2788H28.534L28.1269 11.0576Z" fill="#4B3F4E"/>
<path d="M25.5528 18.0039H25.5488C25.3384 18.0039 25.1699 18.1744 25.1699 18.3848C25.1699 18.5951 25.3425 18.7656 25.5528 18.7656C25.7632 18.7656 25.9337 18.5951 25.9337 18.3848C25.9337 18.1744 25.7632 18.0039 25.5528 18.0039Z" fill="#333333"/>
<path d="M29.3804 13.668L28.8047 13.0923L27.5835 9.42871H23.9199V17.9772L29.2118 17.9774C29.4366 17.9774 29.6189 17.7951 29.6189 17.5703V14.2437C29.6189 14.0278 29.5331 13.8207 29.3804 13.668Z" fill="#DBD9DC"/>
<path d="M4.78792 6.9873H23.5131C23.7379 6.9873 23.9202 7.16956 23.9202 7.39437V16.757H4.78792C4.56311 16.757 4.38086 16.5747 4.38086 16.3499V7.39432C4.38086 7.16951 4.56311 6.9873 4.78792 6.9873Z" fill="#3A7C97"/>
<path d="M23.9202 16.7562H4.78792C4.56311 16.7562 4.38086 16.5739 4.38086 16.3491V15.1279H23.9202V16.7562Z" fill="#7DA5D7"/>
<path d="M25.548 18.3851H6.00863C5.78382 18.3851 5.60156 18.2028 5.60156 17.978V16.7568H25.548V18.3851Z" fill="#6F6571"/>
<path d="M25.5489 20.0129C26.4481 20.0129 27.177 19.284 27.177 18.3849C27.177 17.4857 26.4481 16.7568 25.5489 16.7568C24.6498 16.7568 23.9209 17.4857 23.9209 18.3849C23.9209 19.284 24.6498 20.0129 25.5489 20.0129Z" fill="#4B3F4E"/>
<path d="M12.1144 20.0129C13.0135 20.0129 13.7424 19.284 13.7424 18.3849C13.7424 17.4857 13.0135 16.7568 12.1144 16.7568C11.2152 16.7568 10.4863 17.4857 10.4863 18.3849C10.4863 19.284 11.2152 20.0129 12.1144 20.0129Z" fill="#4B3F4E"/>
<path d="M8.85852 20.0129C9.75767 20.0129 10.4866 19.284 10.4866 18.3849C10.4866 17.4857 9.75767 16.7568 8.85852 16.7568C7.95937 16.7568 7.23047 17.4857 7.23047 18.3849C7.23047 19.284 7.95937 20.0129 8.85852 20.0129Z" fill="#4B3F4E"/>
<path d="M8.86238 18.0039H8.85827C8.64793 18.0039 8.47949 18.1744 8.47949 18.3848C8.47949 18.5951 8.65205 18.7656 8.86238 18.7656C9.07272 18.7656 9.24324 18.5951 9.24324 18.3848C9.24324 18.1744 9.07272 18.0039 8.86238 18.0039Z" fill="#333333"/>
<path d="M12.1192 18.0039H12.1152C11.9048 18.0039 11.7363 18.1744 11.7363 18.3848C11.7363 18.5951 11.9089 18.7656 12.1192 18.7656C12.3296 18.7656 12.5001 18.5951 12.5001 18.3848C12.5001 18.1744 12.3296 18.0039 12.1192 18.0039Z" fill="#333333"/>
<path d="M29.65 13.3986L29.1379 12.8865L28.1063 9.79159C28.2602 9.74269 28.3718 9.59872 28.3718 9.42866C28.3718 9.21832 28.2013 9.0478 27.9909 9.0478H24.3011V7.39339C24.3011 6.95891 23.9477 6.60547 23.5132 6.60547H4.78792C4.35344 6.60552 4 6.95901 4 7.39339V16.3489C4 16.7834 4.35344 17.1368 4.78792 17.1368H5.22119V17.9769C5.22119 18.4114 5.57463 18.7649 6.00911 18.7649H6.88616C7.06471 19.6911 7.88102 20.3931 8.85861 20.3931C9.52801 20.3931 10.1216 20.0637 10.4869 19.5589C10.8522 20.0637 11.4458 20.3931 12.1152 20.3931C13.0928 20.3931 13.9091 19.6911 14.0876 18.7649H23.576C23.7546 19.6911 24.5709 20.3931 25.5485 20.3931C26.6563 20.3931 27.5576 19.4918 27.5576 18.384C27.5576 18.3753 27.557 18.3667 27.5569 18.358H29.2121C29.6466 18.358 30 18.0046 30 17.5701V14.2435C30.0001 13.9243 29.8757 13.6243 29.65 13.3986ZM6.88616 18.0032H6.00911C5.99464 18.0032 5.98291 17.9915 5.98291 17.977V17.1369H7.2852C7.08817 17.385 6.94837 17.6803 6.88616 18.0032ZM8.85861 19.6315C8.17077 19.6315 7.61121 19.0719 7.61121 18.3841C7.61121 17.699 8.16661 17.1412 8.85084 17.1369H8.86648C9.55071 17.1411 10.1061 17.6989 10.1061 18.3841C10.1061 19.0719 9.54644 19.6315 8.85861 19.6315ZM12.1152 19.6315C11.4274 19.6315 10.8678 19.0719 10.8678 18.3841C10.8678 17.699 11.4232 17.1412 12.1074 17.1369H12.123C12.8073 17.1411 13.3627 17.6989 13.3627 18.3841C13.3626 19.0719 12.803 19.6315 12.1152 19.6315ZM23.5761 18.0032H14.0877C14.0255 17.6803 13.8857 17.3849 13.6886 17.1368H21.0707C21.281 17.1368 21.4516 16.9663 21.4516 16.7559C21.4516 16.5456 21.281 16.3751 21.0707 16.3751H4.78792C4.77345 16.3751 4.76172 16.3634 4.76172 16.3489V7.39339C4.76172 7.37892 4.77345 7.36719 4.78792 7.36719H23.5131C23.5276 7.36719 23.5393 7.37892 23.5393 7.39339V16.3751H22.6992C22.4888 16.3751 22.3183 16.5457 22.3183 16.756C22.3183 16.9663 22.4888 17.1369 22.6992 17.1369H23.9751C23.778 17.385 23.6383 17.6803 23.5761 18.0032ZM28.4123 13.1184H25.9556C25.9411 13.1184 25.9294 13.1067 25.9294 13.0922V11.4377H27.8521L28.4123 13.1184ZM25.5485 19.6315C24.8607 19.6315 24.3011 19.0719 24.3011 18.3841C24.3011 17.699 24.8565 17.1412 25.5407 17.1369H25.5486C25.5494 17.1369 25.5503 17.1368 25.5512 17.1368C26.2378 17.1382 26.796 17.6972 26.796 18.3841C26.7959 19.0719 26.2363 19.6315 25.5485 19.6315ZM29.2383 15.1539H28.8051C28.5947 15.1539 28.4242 15.3245 28.4242 15.5348C28.4242 15.7451 28.5947 15.9157 28.8051 15.9157H29.2383V17.5702C29.2383 17.5846 29.2266 17.5964 29.2121 17.5964H27.3966C27.0896 16.879 26.3769 16.375 25.5485 16.375C25.5459 16.375 25.5433 16.3752 25.5407 16.3752H24.3011V9.83582V9.83562C24.3011 9.82115 24.3128 9.80942 24.3273 9.80942H27.3094L27.5982 10.6759H25.5485C25.3382 10.6759 25.1676 10.8465 25.1676 11.0568V13.0922C25.1676 13.5267 25.5211 13.8801 25.9556 13.8801H29.0544L29.1114 13.9372C29.1932 14.019 29.2383 14.1278 29.2383 14.2435V15.1539Z" fill="#333333"/>
<path d="M6.00879 15.5098H22.2916C22.5019 15.5098 22.6724 15.3392 22.6724 15.1289C22.6724 14.9186 22.5019 14.748 22.2916 14.748H6.00879C5.79845 14.748 5.62793 14.9186 5.62793 15.1289C5.62793 15.3392 5.79845 15.5098 6.00879 15.5098Z" fill="#333333"/>
<path d="M52.074 15.2368H52.5052C53.0289 15.2368 53.455 15.6629 53.455 16.1867C53.455 16.7105 53.0289 17.1365 52.5052 17.1365H51.7951L51.7166 18.6459C51.6984 18.9931 51.8186 19.3214 52.0546 19.5701C52.2907 19.8186 52.6115 19.9554 52.9586 19.9554H54.3702L54.6319 13.22C54.662 12.4493 54.8674 11.6762 55.2425 10.9223L55.282 10.8428L55.2367 10.8764C53.6954 12.0243 52.5595 13.5968 52.074 15.2368Z" fill="#DBCA0B"/>
<path d="M52.7195 16.1872C52.7195 16.0689 52.6233 15.9727 52.5051 15.9727H44.8652C44.9028 16.1144 44.9354 16.2575 44.9634 16.4017H52.505C52.6233 16.4017 52.7195 16.3055 52.7195 16.1872Z" fill="#FFEC6B"/>
<path d="M43.1031 5.66792C43.1031 5.87103 42.9385 6.03561 42.7354 6.03561H39.66V11.2251C40.458 11.3596 41.2265 11.6383 41.923 12.0569C42.7793 12.5713 43.8496 12.5927 44.7161 12.1123L45.0853 11.9076L43.5674 5.75606C43.5403 5.64634 43.5652 5.53022 43.635 5.4413C43.7046 5.35222 43.8115 5.30028 43.9244 5.30028H44.3207C44.4457 5.30028 44.5474 5.19856 44.5474 5.0735C44.5474 4.94844 44.4457 4.84668 44.3207 4.84668H36.1858C36.0607 4.84668 35.959 4.94844 35.959 5.0735C35.959 5.19856 36.0607 5.30028 36.1858 5.30028H42.7354C42.9385 5.30022 43.1031 5.4648 43.1031 5.66792Z" fill="#FFF296"/>
<path d="M48.2622 18.2705C47.2194 18.2705 46.3711 19.1188 46.3711 20.1615C46.3711 21.2043 47.2195 22.0525 48.2622 22.0525C49.3049 22.0525 50.1531 21.2042 50.1531 20.1615C50.1531 19.1188 49.3049 18.2705 48.2622 18.2705ZM48.2622 21.5302C47.5074 21.5302 46.8934 20.9162 46.8934 20.1615C46.8934 19.4069 47.5074 18.7929 48.2622 18.7929C48.4652 18.7929 48.6299 18.9574 48.6299 19.1606C48.6299 19.3637 48.4652 19.5283 48.2622 19.5283C47.9129 19.5283 47.6288 19.8124 47.6288 20.1616C47.6288 20.5107 47.9129 20.7948 48.2622 20.7948C48.6112 20.7948 48.8954 20.5107 48.8954 20.1616C48.8954 19.9585 49.0601 19.7939 49.263 19.7939C49.466 19.7939 49.6307 19.9585 49.6307 20.1616C49.6307 20.9162 49.0167 21.5302 48.2622 21.5302Z" fill="#A3A3A3"/>
<path d="M38.3109 13.4287C35.9334 13.4287 33.999 15.3631 33.999 17.7406C33.999 20.1182 35.9334 22.0525 38.3109 22.0525C40.6886 22.0525 42.6229 20.1182 42.6229 17.7406C42.6229 15.363 40.6886 13.4287 38.3109 13.4287ZM38.3109 20.341C36.8771 20.341 35.7106 19.1745 35.7106 17.7406C35.7106 16.3067 36.8771 15.1401 38.3109 15.1401C39.7448 15.1401 40.9113 16.3067 40.9113 17.7406C40.9113 19.1745 39.7448 20.341 38.3109 20.341Z" fill="#A3A3A3"/>
<path d="M38.3112 15.875C37.2829 15.875 36.4463 16.7116 36.4463 17.74C36.4463 18.7684 37.2829 19.6051 38.3112 19.6051C39.3395 19.6051 40.1762 18.7684 40.1762 17.74C40.1762 16.7117 39.3396 15.875 38.3112 15.875ZM38.3112 19.057C37.585 19.057 36.9943 18.4662 36.9943 17.74C36.9943 17.5369 37.1588 17.3723 37.362 17.3723C37.5651 17.3723 37.7297 17.5369 37.7297 17.74C37.7297 18.0607 37.9905 18.3216 38.3112 18.3216C38.6318 18.3216 38.8927 18.0607 38.8927 17.74C38.8927 17.4194 38.6318 17.1586 38.3112 17.1586C38.1081 17.1586 37.9435 16.994 37.9435 16.7909C37.9435 16.5878 38.1081 16.4232 38.3112 16.4232C39.0373 16.4232 39.6281 17.0139 39.6281 17.74C39.6281 18.4662 39.0373 19.057 38.3112 19.057Z" fill="#DBCA0B"/>
<path d="M48.2623 17.535C48.6766 17.535 49.0674 17.6341 49.4162 17.8057L49.4954 17.1367H45.063C45.0759 17.3043 45.0843 17.4726 45.0843 17.6416C45.0843 17.8448 44.9196 18.0093 44.7166 18.0093C44.5135 18.0093 44.3489 17.8448 44.3489 17.6416C44.3489 16.5935 44.0654 15.5672 43.5289 14.6735C43.4245 14.4995 43.4808 14.2736 43.655 14.169C43.8289 14.0644 44.0551 14.121 44.1595 14.2951C44.3403 14.5964 44.4924 14.9123 44.6214 15.2369H49.7204L49.8683 13.9865L45.5441 12.4941L45.0723 12.7557C43.977 13.3635 42.625 13.3373 41.5438 12.6875C40.6496 12.1502 39.6225 11.8662 38.5735 11.8662C37.2422 11.8662 35.9913 12.3064 34.9562 13.1392C34.7861 13.276 34.6825 13.4783 34.6718 13.6941C34.664 13.8524 34.7055 14.003 34.7894 14.1315C35.6996 13.2431 36.9416 12.6931 38.3109 12.6931C41.0941 12.6931 43.3583 14.9573 43.3583 17.7403C43.3583 18.1966 43.292 18.6366 43.1779 19.0573H45.8825C46.3006 18.1599 47.2088 17.535 48.2623 17.535Z" fill="#19B041"/>
<path d="M49.2234 12.985L49.3747 12.4144C49.4219 12.2375 49.3235 12.0511 49.1509 11.99L45.5479 10.7129L45.8185 11.8098L49.2234 12.985Z" fill="#A3A3A3"/>
<path d="M38.9247 11.1428V6.03613H37.3263L36.4551 11.4883C37.1333 11.2549 37.8496 11.131 38.574 11.131C38.6912 11.131 38.808 11.1366 38.9247 11.1428Z" fill="#DBCA0B"/>
<path d="M49.2631 19.793C49.0601 19.793 48.8955 19.9576 48.8955 20.1607C48.8955 20.5098 48.6113 20.7939 48.2623 20.7939C47.9131 20.7939 47.6289 20.5098 47.6289 20.1607C47.6289 19.8115 47.913 19.5274 48.2623 19.5274C48.4653 19.5274 48.63 19.3628 48.63 19.1597C48.63 18.9566 48.4653 18.792 48.2623 18.792C47.5076 18.792 46.8936 19.406 46.8936 20.1606C46.8936 20.9153 47.5076 21.5293 48.2623 21.5293C49.0168 21.5293 49.6308 20.9153 49.6308 20.1606C49.6308 19.9576 49.4662 19.793 49.2631 19.793Z" fill="#333333"/>
<path d="M38.3112 15.1396C36.8775 15.1396 35.7109 16.3062 35.7109 17.7401C35.7109 19.174 36.8774 20.3405 38.3112 20.3405C39.7451 20.3405 40.9116 19.174 40.9116 17.7401C40.9116 16.3062 39.7451 15.1396 38.3112 15.1396ZM38.3112 19.6051C37.283 19.6051 36.4464 18.7685 36.4464 17.7401C36.4464 16.7117 37.283 15.875 38.3112 15.875C39.3396 15.875 40.1763 16.7117 40.1763 17.7401C40.1763 18.7685 39.3397 19.6051 38.3112 19.6051Z" fill="#333333"/>
<path d="M38.311 16.4229C38.1079 16.4229 37.9433 16.5874 37.9433 16.7905C37.9433 16.9937 38.1079 17.1582 38.311 17.1582C38.6316 17.1582 38.8926 17.4191 38.8926 17.7397C38.8926 18.0604 38.6316 18.3213 38.311 18.3213C37.9904 18.3213 37.7295 18.0604 37.7295 17.7397C37.7295 17.5366 37.5649 17.372 37.3618 17.372C37.1587 17.372 36.9941 17.5366 36.9941 17.7397C36.9941 18.4658 37.5848 19.0567 38.311 19.0567C39.0371 19.0567 39.6279 18.4658 39.6279 17.7397C39.6279 17.0135 39.0372 16.4229 38.311 16.4229Z" fill="#333333"/>
<path d="M56.0765 9.33452L54.7977 10.2865C53.0661 11.5759 51.8063 13.3709 51.3121 15.2367H50.4607L50.6334 13.7785C50.6538 13.6069 50.5518 13.4441 50.3883 13.3877L49.9203 13.2262L50.0854 12.6037C50.2298 12.0593 49.9272 11.4855 49.3962 11.2974L45.3366 9.85847L44.3927 6.03299C44.8894 5.99591 45.2822 5.5797 45.2822 5.07354C45.2822 4.54293 44.8507 4.11133 44.3202 4.11133H36.1853C35.6548 4.11133 35.2231 4.54293 35.2231 5.07354C35.2231 5.60409 35.6548 6.03574 36.1853 6.03574H36.581L35.6554 11.8282C35.2459 12.0333 34.8547 12.2767 34.4952 12.566C34.1616 12.8344 33.9582 13.2323 33.9374 13.6577C33.9187 14.0376 34.0491 14.4083 34.2961 14.6939C33.6513 15.5417 33.2637 16.5953 33.2637 17.7402C33.2637 20.5233 35.5279 22.7875 38.3109 22.7875C40.363 22.7875 42.1295 21.5547 42.9178 19.7925H45.6648C45.6477 19.9133 45.6358 20.0357 45.6358 20.1612C45.6358 21.6093 46.814 22.7875 48.2623 22.7875C49.7103 22.7875 50.8886 21.6093 50.8886 20.1612C50.8886 19.4279 50.5857 18.7646 50.0994 18.2876L50.2357 17.1364H51.0587L50.9822 18.6076C50.9534 19.1583 51.1449 19.6799 51.5212 20.0764C51.8973 20.4726 52.4076 20.6908 52.9585 20.6908H55.3889C55.5919 20.6908 55.7566 20.5262 55.7566 20.3231C55.7566 20.12 55.5919 19.9554 55.3889 19.9554H55.106L55.3667 13.2486C55.3925 12.5825 55.5723 11.91 55.9007 11.2498L56.6251 9.79321C56.701 9.64085 56.6622 9.45636 56.5317 9.34736C56.4015 9.23832 56.2131 9.23291 56.0765 9.33452ZM49.1507 11.9906C49.3232 12.0516 49.4216 12.2381 49.3745 12.4151L49.2231 12.9856L45.8182 11.8105L45.5476 10.7136L49.1507 11.9906ZM36.1853 5.30036C36.0602 5.30036 35.9585 5.19865 35.9585 5.07359C35.9585 4.94853 36.0602 4.84676 36.1853 4.84676H44.3202C44.4452 4.84676 44.5469 4.94853 44.5469 5.07359C44.5469 5.19865 44.4452 5.30036 44.3202 5.30036H43.9239C43.8109 5.30036 43.7041 5.35231 43.6345 5.44138C43.5647 5.5303 43.5398 5.64642 43.5668 5.75614L45.0848 11.9077L44.7156 12.1124C43.8491 12.5927 42.7788 12.5715 41.9225 12.057C41.226 11.6384 40.4575 11.3597 39.6595 11.2251V6.03569H42.7348C42.938 6.03569 43.1025 5.87111 43.1025 5.668C43.1025 5.46489 42.938 5.30031 42.7348 5.30031L36.1853 5.30036ZM37.3258 6.03574H38.9242V11.1425C38.8075 11.1362 38.6908 11.1306 38.5735 11.1306C37.8491 11.1306 37.1328 11.2545 36.4546 11.4879L37.3258 6.03574ZM38.3109 22.0522C35.9334 22.0522 33.999 20.1178 33.999 17.7402C33.999 15.3626 35.9334 13.4283 38.3109 13.4283C40.6885 13.4283 42.6228 15.3627 42.6228 17.7402C42.6228 20.1178 40.6885 22.0522 38.3109 22.0522ZM43.1779 19.0571C43.292 18.6364 43.3583 18.1964 43.3583 17.7402C43.3583 14.9571 41.0941 12.6929 38.3109 12.6929C36.9416 12.6929 35.6996 13.2429 34.7894 14.1314C34.7056 14.0028 34.6641 13.8522 34.6718 13.6939C34.6825 13.4781 34.7861 13.2759 34.9562 13.139C35.9913 12.3062 37.2422 11.866 38.5735 11.866C39.6226 11.866 40.6496 12.1501 41.5438 12.6873C42.625 13.3371 43.977 13.3633 45.0724 12.7555L45.5441 12.4939L49.8683 13.9863L49.7204 15.2367H44.6214C44.4924 14.9121 44.3403 14.5962 44.1595 14.2949C44.0551 14.1209 43.8289 14.0642 43.655 14.1689C43.4808 14.2734 43.4245 14.4993 43.5289 14.6734C44.0654 15.567 44.3489 16.5933 44.3489 17.6415C44.3489 17.8446 44.5135 18.0092 44.7166 18.0092C44.9196 18.0092 45.0843 17.8446 45.0843 17.6415C45.0843 17.4724 45.0759 17.3041 45.063 17.1365H49.4954L49.4162 17.8055C49.0673 17.6339 48.6766 17.5348 48.2623 17.5348C47.2087 17.5348 46.3005 18.1598 45.8825 19.0572H43.1779V19.0571ZM50.1532 20.1612C50.1532 21.2039 49.3051 22.0522 48.2623 22.0522C47.2196 22.0522 46.3713 21.2039 46.3713 20.1612C46.3713 19.1184 47.2196 18.2701 48.2623 18.2701C49.305 18.2701 50.1532 19.1184 50.1532 20.1612ZM44.9635 16.4011C44.9356 16.2569 44.9029 16.1139 44.8653 15.9721H52.5051C52.6234 15.9721 52.7196 16.0683 52.7196 16.1866C52.7196 16.3048 52.6234 16.4011 52.5051 16.4011H44.9635ZM55.2425 10.9222C54.8673 11.6762 54.662 12.4492 54.6318 13.2199L54.3702 19.9554H52.9585C52.6115 19.9554 52.2907 19.8186 52.0546 19.5701C51.8186 19.3214 51.6984 18.9931 51.7166 18.6458L51.7951 17.1364H52.5051C53.0289 17.1364 53.455 16.7104 53.455 16.1866C53.455 15.6629 53.0289 15.2367 52.5051 15.2367H52.074C52.5594 13.5968 53.6954 12.0243 55.2367 10.8764L55.2819 10.8428L55.2425 10.9222Z" fill="#333333"/>
</svg>
