<svg width="120" height="121" viewBox="0 0 120 121" fill="none" xmlns="http://www.w3.org/2000/svg">
<g clip-path="url(#clip0_15_3154)">
<path d="M119.994 60.7632C119.994 93.9003 93.1313 120.763 59.9941 120.763C42.5256 120.763 26.8007 113.299 15.8366 101.384C12.9566 98.257 10.4072 94.8211 8.2374 91.1354C2.99904 82.226 -0.00585938 71.8448 -0.00585938 60.7632C-0.00585938 27.626 26.857 0.763184 59.9941 0.763184C71.0782 0.763184 81.4594 3.76808 90.3664 9.0089C94.0521 11.1762 97.4855 13.7256 100.613 16.6081C112.527 27.5673 119.994 43.2946 119.994 60.7632Z" fill="#F0CD00"/>
<path d="M119.994 60.7633C119.994 93.1535 94.3311 119.549 62.2275 120.722C30.1238 119.549 4.46094 93.1535 4.46094 60.7633C4.46094 28.3731 30.1238 1.97799 62.2275 0.804932C94.3311 1.97799 119.994 28.3731 119.994 60.7633Z" fill="#FFDE50"/>
<path d="M100.614 16.608L15.8375 101.384C12.9575 98.2569 10.4081 94.821 8.23828 91.1353L90.3672 9.00879C94.053 11.1761 97.4864 13.7255 100.614 16.608Z" fill="#FFEA94"/>
<path d="M115.855 38.8277L38.0563 116.627C32.5485 114.462 27.4375 111.506 22.8652 107.899L107.13 23.6343C110.737 28.2065 113.693 33.3175 115.855 38.8277Z" fill="#FFEA94"/>
<path d="M106.618 60.7631C106.618 86.5116 85.7433 107.387 59.9948 107.387C51.0266 107.387 42.6511 104.854 35.5417 100.466C32.4437 98.5557 29.5882 96.2904 27.0266 93.7288C25.1433 91.848 23.4193 89.8031 21.8788 87.621C19.758 84.6161 17.9825 81.3492 16.6135 77.879C14.5858 72.7484 13.4446 67.1696 13.376 61.3361C13.3711 61.1451 13.3711 60.9541 13.3711 60.7631C13.3711 35.0145 34.2437 14.1394 59.9948 14.1394C60.1858 14.1394 60.3793 14.1394 60.5703 14.1443C66.4037 14.2129 71.9801 15.3565 77.1107 17.3819C80.5809 18.7533 83.8478 20.5263 86.8527 22.6472C89.0348 24.19 91.0772 25.9116 92.9605 27.7949C95.5221 30.3541 97.7874 33.2121 99.6976 36.31C104.086 43.4194 106.618 51.7949 106.618 60.7631Z" fill="#FAA300"/>
<path d="M92.9605 27.7949L27.0266 93.7288C25.1433 91.848 23.4193 89.8031 21.8788 87.621C19.758 84.6161 17.9825 81.3492 16.6135 77.879C14.5858 72.7484 13.4446 67.1696 13.376 61.3361C13.3711 61.1451 13.3711 60.9541 13.3711 60.7631C13.3711 35.0145 34.2437 14.1394 59.9948 14.1394C60.1858 14.1394 60.3793 14.1394 60.5703 14.1443C66.4037 14.2129 71.9801 15.3565 77.1107 17.3819C80.5809 18.7533 83.8478 20.5263 86.8527 22.6472C89.0348 24.19 91.0772 25.9116 92.9605 27.7949Z" fill="#FFBD00"/>
<path d="M106.616 60.7631C106.616 86.5116 85.7406 107.387 59.992 107.387C59.1079 107.387 58.2312 107.362 57.3594 107.313C81.8835 105.949 101.348 85.6276 101.348 60.7631C101.348 35.8986 81.8835 15.577 57.3594 14.2129C58.2312 14.1639 59.1079 14.1394 59.992 14.1394C85.7406 14.1394 106.616 35.0145 106.616 60.7631Z" fill="#F68E00"/>
<path d="M77.1896 28.2957C75.0298 26.6661 71.9591 27.0962 70.3295 29.2552L53.8726 51.0653L37.4155 29.2552C35.7864 27.0959 32.7149 26.6661 30.5554 28.2957C28.3961 29.925 27.9666 32.9963 29.5959 35.1555L45.9742 56.8611H36.6783C33.9732 56.8611 31.7804 59.0539 31.7804 61.759C31.7804 64.4642 33.9732 66.657 36.6783 66.657H48.9746V74.0076H36.6783C33.9732 74.0076 31.7804 76.2004 31.7804 78.9056C31.7804 81.6107 33.9732 83.8035 36.6783 83.8035H48.9746V94.6885C48.9746 97.3936 51.1675 99.5864 53.8726 99.5864C56.5777 99.5864 58.7706 97.3936 58.7706 94.6885V83.8035H71.0666C73.7718 83.8035 75.9646 81.6107 75.9646 78.9056C75.9646 76.2004 73.7718 74.0076 71.0666 74.0076H58.7706V66.657H71.0666C73.7718 66.657 75.9646 64.4642 75.9646 61.759C75.9646 59.0539 73.7718 56.8611 71.0666 56.8611H61.7711L78.1491 35.1555C79.7786 32.9963 79.3488 29.925 77.1896 28.2957Z" fill="#F68E00"/>
<path d="M83.3126 28.2957C81.1529 26.6661 78.0821 27.0962 76.4526 29.2552L59.9957 51.0653L43.5385 29.2552C41.9095 27.0959 38.8379 26.6661 36.6784 28.2957C34.5192 29.925 34.0896 32.9963 35.7189 35.1555L52.0972 56.8611H42.8014C40.0962 56.8611 37.9034 59.0539 37.9034 61.759C37.9034 64.4642 40.0962 66.657 42.8014 66.657H55.0977V74.0076H42.8014C40.0962 74.0076 37.9034 76.2004 37.9034 78.9056C37.9034 81.6107 40.0962 83.8035 42.8014 83.8035H55.0977V94.6885C55.0977 97.3936 57.2905 99.5865 59.9957 99.5865C62.7008 99.5865 64.8936 97.3936 64.8936 94.6885V83.8035H77.1897C79.8948 83.8035 82.0877 81.6107 82.0877 78.9056C82.0877 76.2004 79.8948 74.0076 77.1897 74.0076H64.8936V66.657H77.1897C79.8948 66.657 82.0877 64.4642 82.0877 61.759C82.0877 59.0539 79.8948 56.8611 77.1897 56.8611H67.8941L84.2721 35.1555C85.9014 32.9963 85.4717 29.925 83.3126 28.2957Z" fill="#FFEA94"/>
</g>
<defs>
<clipPath id="clip0_15_3154">
<rect width="120" height="120" fill="white" transform="translate(0 0.759766)"/>
</clipPath>
</defs>
</svg>
