<svg width="80" height="46" viewBox="0 0 80 46" fill="none" xmlns="http://www.w3.org/2000/svg">
<path d="M19.6148 1.93018H6.28175H3.5791C2.29972 1.93018 1.2627 2.96736 1.2627 4.24673V35.1329C1.2627 36.4126 2.29988 37.4498 3.5791 37.4498H6.28175H12.8475C12.8427 37.3404 12.8392 37.2312 12.8392 37.1209C12.8392 33.2828 15.9505 30.1715 19.7886 30.1715C23.6264 30.1715 26.7376 33.2828 26.7376 37.1209C26.7376 37.2312 26.7342 37.3406 26.7294 37.4498H54.9513C54.9462 37.3404 54.9428 37.2312 54.9428 37.1209C54.9428 33.2828 58.054 30.1715 61.8918 30.1715C65.7299 30.1715 68.8412 33.2828 68.8412 37.1209C68.8412 37.2312 68.8377 37.3406 68.8329 37.4498H73.7171H76.4197C77.6991 37.4498 78.7361 36.4126 78.7361 35.1329V10.0566C78.7341 5.56783 75.0951 1.93018 70.6062 1.93018H61.121H23.8255" fill="#FF5357"/>
<path d="M5.82097 35.1329V4.24673C5.82097 2.96721 6.85816 1.93018 8.13737 1.93018H7.52784H4.82519C3.54582 1.93018 2.50879 2.96736 2.50879 4.24673V35.1329C2.50879 36.4126 3.54597 37.4498 4.82519 37.4498H7.52784H8.13737C6.85816 37.4495 5.82097 36.4125 5.82097 35.1329Z" fill="#ED3A47"/>
<path d="M61.8934 44.0695C65.7312 44.0695 68.8424 40.9583 68.8424 37.1204C68.8424 33.2826 65.7312 30.1714 61.8934 30.1714C58.0555 30.1714 54.9443 33.2826 54.9443 37.1204C54.9443 40.9583 58.0555 44.0695 61.8934 44.0695Z" fill="#5B5E5E"/>
<path d="M19.7899 44.0695C23.6277 44.0695 26.7389 40.9583 26.7389 37.1204C26.7389 33.2826 23.6277 30.1714 19.7899 30.1714C15.952 30.1714 12.8408 33.2826 12.8408 37.1204C12.8408 40.9583 15.952 44.0695 19.7899 44.0695Z" fill="#5B5E5E"/>
<path d="M61.8947 39.5071C63.2129 39.5071 64.2816 38.4385 64.2816 37.1203C64.2816 35.802 63.2129 34.7334 61.8947 34.7334C60.5765 34.7334 59.5078 35.802 59.5078 37.1203C59.5078 38.4385 60.5765 39.5071 61.8947 39.5071Z" fill="#E6E9ED"/>
<path d="M19.7912 39.5071C21.1094 39.5071 22.178 38.4385 22.178 37.1203C22.178 35.802 21.1094 34.7334 19.7912 34.7334C18.4729 34.7334 17.4043 35.802 17.4043 37.1203C17.4043 38.4385 18.4729 39.5071 19.7912 39.5071Z" fill="#E6E9ED"/>
<path d="M50.4872 7.72119H31.3125V37.4491H50.4872V7.72119Z" fill="#97D3EE"/>
<path d="M40.9003 7.72119H31.3125V37.4491H40.9003V7.72119Z" fill="#52B2CC"/>
<path d="M50.4872 23.9048H31.3125V37.1207H50.4872V23.9048Z" fill="#EF4556"/>
<path d="M40.9003 23.9048H31.3125V37.1207H40.9003V23.9048Z" fill="#E23740"/>
<path d="M69.6368 23.9047H78.7371V9.47754H61.8926V23.9047H65.4263" fill="#97D3EE"/>
<path d="M61.892 9.47754H50.4883V23.9044H61.892V9.47754Z" fill="#52B2CC"/>
<path d="M31.1928 9.47754H19.7891V23.9044H31.1928V9.47754Z" fill="#97D3EE"/>
<path d="M19.7912 9.47754H8.38574V23.9044H19.7912V9.47754Z" fill="#52B2CC"/>
<path d="M1.2627 32.6242V27.9321H3.71035C5.00597 27.9321 6.05644 28.9824 6.05644 30.2782C6.05644 31.5738 5.00613 32.6243 3.71035 32.6243H1.2627V32.6242Z" fill="#F98B38"/>
<path d="M78.7362 32.6242V27.9321H75.1303C73.8346 27.9321 72.7842 28.9824 72.7842 30.2782C72.7842 31.5738 73.8345 32.6243 75.1303 32.6243H78.7362V32.6242Z" fill="#97D3EE"/>
<path d="M17.2557 37.1206C17.2557 33.8534 19.5108 31.1144 22.5487 30.3715C22.0177 30.2417 21.4635 30.1714 20.8927 30.1714C17.0546 30.1714 13.9434 33.2826 13.9434 37.1207C13.9434 40.9584 17.0546 44.0701 20.8927 44.0701C21.4635 44.0701 22.0177 43.9996 22.5487 43.8698C19.5108 43.1267 17.2557 40.3875 17.2557 37.1206Z" fill="#424444"/>
<path d="M59.5047 37.1206C59.5047 33.8534 61.7597 31.1144 64.7977 30.3715C64.2667 30.2417 63.7125 30.1714 63.1416 30.1714C59.3036 30.1714 56.1924 33.2826 56.1924 37.1207C56.1924 40.9584 59.3036 44.0701 63.1416 44.0701C63.7125 44.0701 64.2667 43.9996 64.7977 43.8698C61.7597 43.1267 59.5047 40.3875 59.5047 37.1206Z" fill="#424444"/>
<path d="M76.4139 30.1718C76.4139 28.8762 77.4644 27.8257 78.7601 27.8257H75.4478C74.1522 27.8257 73.1016 28.876 73.1016 30.1718C73.1016 31.4674 74.152 32.5179 75.4478 32.5179H78.7601C77.4645 32.5177 76.4139 31.4676 76.4139 30.1718Z" fill="#6CC6E4"/>
<path d="M79.9547 9.14682C79.4938 4.3948 75.4771 0.666992 70.6069 0.666992H23.8261C23.1282 0.666992 22.5629 1.23262 22.5629 1.93011C22.5629 2.62761 23.1282 3.19324 23.8261 3.19324H70.6069C73.7533 3.19324 76.411 5.32214 77.2195 8.21417H61.8927H61.8924H51.7516V7.72135C51.7516 7.0237 51.1863 6.45823 50.4885 6.45823H31.3131C30.6153 6.45823 30.0499 7.02386 30.0499 7.72135V8.21417H19.789H8.38436C7.68655 8.21417 7.12124 8.77979 7.12124 9.47729V23.9045C7.12124 24.6021 7.68655 25.1676 8.38436 25.1676H19.789H30.0499V36.1865H27.9485C27.9415 36.1241 27.9315 36.0629 27.9229 36.0008C27.9156 35.9472 27.9092 35.8933 27.9009 35.8401C27.8878 35.7563 27.872 35.6736 27.8562 35.5908C27.8473 35.5438 27.8396 35.4963 27.8299 35.4497C27.8089 35.348 27.7848 35.2472 27.7599 35.1469C27.7534 35.1202 27.7479 35.0929 27.7409 35.0661C27.7082 34.9399 27.6724 34.8147 27.6342 34.6908C27.6221 34.6522 27.6084 34.6147 27.5959 34.5765C27.5681 34.4913 27.5401 34.406 27.5096 34.3219C27.492 34.2735 27.4726 34.2262 27.454 34.178C27.426 34.1054 27.3982 34.0329 27.3684 33.9613C27.347 33.9101 27.3237 33.8596 27.3014 33.809C27.2717 33.7419 27.2423 33.6749 27.2107 33.6088C27.1862 33.5571 27.1603 33.5063 27.1346 33.4552C27.1026 33.3916 27.0706 33.3279 27.0371 33.2652C27.0096 33.214 26.9814 33.1633 26.9529 33.1129C26.9187 33.0519 26.884 32.9912 26.8484 32.931C26.8184 32.8807 26.7876 32.831 26.7567 32.7813C26.72 32.7226 26.6826 32.6641 26.6443 32.6063C26.612 32.5574 26.5793 32.509 26.546 32.461C26.5065 32.404 26.4662 32.3474 26.4253 32.2915C26.3909 32.2444 26.3564 32.1977 26.3212 32.1513C26.2789 32.0958 26.2356 32.0413 26.1921 31.9871C26.1559 31.9421 26.12 31.8969 26.0826 31.8529C26.0375 31.799 25.991 31.7462 25.9445 31.6933C25.907 31.6507 25.8695 31.608 25.8312 31.566C25.7821 31.5127 25.732 31.461 25.6817 31.4091C25.6435 31.3699 25.606 31.3301 25.5671 31.2916C25.5131 31.238 25.4573 31.1862 25.402 31.134C25.3648 31.0991 25.3284 31.0633 25.2907 31.0293C25.2264 30.971 25.1603 30.9149 25.094 30.8588C25.0634 30.8327 25.0335 30.8057 25.0025 30.7802C24.9048 30.6998 24.8053 30.6215 24.7039 30.5454C24.68 30.5276 24.6551 30.5108 24.6311 30.4933C24.5525 30.4357 24.4734 30.3785 24.3928 30.3238C24.3532 30.2971 24.3126 30.2718 24.2725 30.2457C24.2057 30.2021 24.139 30.1583 24.071 30.1165C24.0257 30.0887 23.9795 30.0626 23.9336 30.0357C23.869 29.9977 23.8046 29.9599 23.7392 29.9238C23.6904 29.8971 23.6411 29.8716 23.5918 29.8458C23.5275 29.8121 23.4631 29.7785 23.3978 29.7463C23.3467 29.7212 23.295 29.6973 23.2434 29.6732C23.1782 29.6429 23.1131 29.6129 23.047 29.5843C22.9942 29.5613 22.9409 29.5393 22.8875 29.5176C22.8211 29.4904 22.7546 29.464 22.6873 29.4385C22.6329 29.4179 22.5784 29.398 22.5236 29.3787C22.4559 29.3548 22.3876 29.3316 22.3193 29.3094C22.2639 29.2915 22.2084 29.274 22.1525 29.2569C22.0831 29.236 22.0129 29.2163 21.9429 29.1973C21.8868 29.1819 21.8307 29.1668 21.7742 29.1527C21.7026 29.1349 21.6303 29.1187 21.5581 29.1027C21.5018 29.0904 21.4457 29.0776 21.389 29.0663C21.3146 29.0515 21.2395 29.0388 21.1643 29.026C21.1087 29.0166 21.0534 29.0065 20.9975 28.9982C20.9184 28.9866 20.8387 28.9773 20.759 28.9679C20.7062 28.9616 20.6534 28.9543 20.6003 28.949C20.5112 28.9402 20.4212 28.9343 20.3314 28.9283C20.2867 28.9255 20.2425 28.9212 20.1975 28.919C20.0622 28.9123 19.9264 28.9085 19.7895 28.9085C19.6528 28.9085 19.5167 28.9123 19.3815 28.919C19.3365 28.9212 19.2923 28.9255 19.2475 28.9283C19.1576 28.9343 19.0678 28.9401 18.9787 28.949C18.9253 28.9541 18.8726 28.9616 18.8195 28.9679C18.74 28.9773 18.6603 28.9866 18.5815 28.9982C18.5254 29.0065 18.4698 29.0166 18.4142 29.0262C18.3392 29.0388 18.2645 29.0516 18.1901 29.0663C18.1332 29.0776 18.0768 29.0904 18.0201 29.1029C17.9482 29.1187 17.8762 29.1349 17.8051 29.1526C17.7482 29.1668 17.6918 29.1821 17.6351 29.1974C17.5654 29.2165 17.4959 29.236 17.4268 29.2566C17.3704 29.2737 17.3145 29.2913 17.2586 29.3094C17.1906 29.3315 17.1229 29.3544 17.0557 29.3782C17.0003 29.3977 16.9451 29.4179 16.8901 29.4387C16.8236 29.4638 16.7578 29.4901 16.6922 29.5168C16.6381 29.5388 16.584 29.5612 16.5304 29.5843C16.4651 29.6126 16.4006 29.6423 16.3362 29.6723C16.2839 29.6966 16.2315 29.721 16.1798 29.7462C16.1154 29.7779 16.052 29.811 15.9886 29.8443C15.9384 29.8705 15.8879 29.8965 15.8386 29.9238C15.7742 29.9591 15.7111 29.9965 15.6479 30.0337C15.6009 30.0613 15.5534 30.088 15.507 30.1166C15.4408 30.1573 15.3759 30.1998 15.3111 30.2423C15.2693 30.2696 15.2267 30.296 15.1854 30.324C15.1084 30.3763 15.0333 30.4308 14.9583 30.4857C14.9304 30.5058 14.9018 30.5251 14.8743 30.5457C14.7734 30.6213 14.6742 30.6993 14.5772 30.7794C14.5437 30.8071 14.5117 30.8362 14.4784 30.8643C14.4148 30.9185 14.3508 30.9726 14.2887 31.0287C14.2495 31.064 14.2117 31.101 14.1734 31.1371C14.1193 31.188 14.065 31.2385 14.0122 31.2908C13.9725 31.3302 13.9339 31.371 13.895 31.4113C13.8456 31.4624 13.7961 31.5132 13.7479 31.5654C13.7089 31.6079 13.6708 31.6515 13.6326 31.6947C13.5869 31.7468 13.5411 31.7988 13.4964 31.8519C13.4587 31.8969 13.4222 31.9426 13.3854 31.9882C13.3423 32.0419 13.2995 32.0957 13.2579 32.1504C13.2222 32.1973 13.1873 32.2446 13.1526 32.2922C13.1122 32.3477 13.0723 32.4035 13.0333 32.4602C12.9995 32.509 12.9665 32.5577 12.934 32.6071C12.8961 32.6646 12.859 32.7224 12.8225 32.7807C12.7912 32.8307 12.7601 32.8808 12.7298 32.9318C12.6945 32.9912 12.6601 33.0515 12.6261 33.1119C12.5973 33.1632 12.5686 33.2141 12.5409 33.266C12.5078 33.3282 12.4761 33.391 12.4444 33.4541C12.4184 33.5058 12.3922 33.5574 12.3673 33.6096C12.3362 33.6751 12.3069 33.7416 12.2773 33.808C12.2545 33.8593 12.2314 33.9101 12.2098 33.9618C12.1801 34.0326 12.1528 34.1044 12.1251 34.1762C12.1062 34.2251 12.0865 34.2732 12.0686 34.3226C12.0383 34.406 12.0106 34.4905 11.9829 34.5751C11.9703 34.6138 11.9562 34.6521 11.9442 34.6912C11.9058 34.8149 11.8701 34.9401 11.8375 35.0661C11.8303 35.0941 11.8247 35.1226 11.8178 35.1505C11.7933 35.2497 11.7695 35.3493 11.7486 35.4497C11.7387 35.4968 11.7311 35.5446 11.7222 35.5919C11.7065 35.6744 11.6909 35.7568 11.6776 35.8402C11.6692 35.8935 11.6628 35.9474 11.6556 36.001C11.6472 36.0629 11.637 36.1243 11.63 36.1866H3.57968C2.9989 36.1866 2.5264 35.714 2.5264 35.133V33.8874H3.71093C5.70093 33.8874 7.32014 32.2683 7.32014 30.2782C7.32014 28.288 5.70108 26.669 3.71093 26.669H2.5264V4.24683C2.5264 3.66589 2.99906 3.19339 3.57968 3.19339H19.6156C20.3134 3.19339 20.8787 2.62777 20.8787 1.93027C20.8787 1.23277 20.3134 0.667148 19.6156 0.667148H3.57968C1.60578 0.666992 0 2.27293 0 4.24683V27.9319V32.624V35.1327C0 37.1068 1.60578 38.7127 3.57968 38.7127H11.7328C12.4764 42.4814 15.8054 45.3332 19.789 45.3332C23.7725 45.3332 27.1014 42.4816 27.8449 38.7127H31.3131H50.4885H53.8365C54.5801 42.4814 57.909 45.3332 61.8924 45.3332C65.876 45.3332 69.205 42.4816 69.9486 38.7127H76.4203C78.3942 38.7127 80 37.1068 80 35.1327V32.624V27.9319V23.9045V10.056V9.47729C79.9999 9.36276 79.9831 9.25229 79.9547 9.14682ZM3.71077 29.1952C4.3078 29.1952 4.79374 29.681 4.79374 30.2782C4.79374 30.8754 4.3078 31.3612 3.71077 31.3612H2.52625V29.1954H3.71077V29.1952ZM60.6291 10.7406V22.6413H51.7515V10.7406H60.6291ZM32.5763 25.1677H49.2254V35.8577H32.5763V25.1677ZM49.2252 9.47745V22.6413H42.1641V8.98463H49.2254V9.47745H49.2252ZM39.6379 8.98463V22.6413H32.5763V8.98463H39.6379ZM9.64764 10.7406H18.5259V22.6413H9.64764V10.7406ZM29.9299 22.6415H21.0523V10.7407H29.9299V22.6415ZM19.789 42.8069C16.745 42.8069 14.2523 40.4024 14.1097 37.393C14.1056 37.3026 14.1028 37.2121 14.1028 37.1208C14.1028 33.9855 16.6537 31.4346 19.789 31.4346C22.9242 31.4346 25.475 33.9855 25.475 37.1208C25.475 37.2121 25.4721 37.3024 25.4681 37.3929C25.3254 40.4022 22.8329 42.8069 19.789 42.8069ZM61.8922 42.8069C58.8502 42.8069 56.3588 40.4052 56.2135 37.3985C56.2133 37.3954 56.2136 37.3922 56.2135 37.3891C56.2093 37.2999 56.2065 37.2108 56.2065 37.1208C56.2065 33.9855 58.7572 31.4346 61.8924 31.4346C65.0277 31.4346 67.5786 33.9855 67.5786 37.1208C67.5785 40.256 65.0277 42.8069 61.8922 42.8069ZM76.4202 36.1865H70.0519C70.0449 36.1241 70.0349 36.0629 70.0263 36.0008C70.0189 35.9472 70.0125 35.8933 70.0043 35.8401C69.9911 35.7566 69.9755 35.6743 69.9597 35.5918C69.9508 35.5444 69.943 35.4966 69.9333 35.4496C69.9124 35.3491 69.8886 35.2494 69.8641 35.1504C69.8572 35.1224 69.8514 35.0938 69.8444 35.066C69.8117 34.9397 69.776 34.8147 69.7377 34.691C69.7255 34.6519 69.7116 34.6138 69.6989 34.5749C69.6713 34.4904 69.6436 34.4058 69.6133 34.3224C69.5955 34.2732 69.5757 34.2249 69.5567 34.176C69.5291 34.1043 69.5018 34.0324 69.4721 33.9616C69.4505 33.9099 69.4271 33.8591 69.4046 33.8079C69.375 33.7413 69.3458 33.6751 69.3146 33.6094C69.2896 33.5571 69.2635 33.5057 69.2375 33.454C69.2058 33.391 69.1742 33.328 69.141 33.2658C69.1133 33.214 69.0846 33.1627 69.0558 33.1116C69.0219 33.0513 68.9878 32.9912 68.9522 32.9318C68.9219 32.8808 68.8908 32.8305 68.8594 32.7802C68.823 32.7219 68.786 32.6641 68.7483 32.6069C68.7157 32.5576 68.6827 32.5085 68.6489 32.4601C68.6099 32.4037 68.5699 32.3477 68.5296 32.2921C68.4949 32.2446 68.46 32.1971 68.4242 32.1502C68.3825 32.0955 68.3397 32.0416 68.2968 31.988C68.26 31.9424 68.2235 31.8968 68.1858 31.8518C68.1411 31.7985 68.0955 31.7465 68.0496 31.6946C68.0113 31.6512 67.9735 31.6077 67.9343 31.5651C67.8863 31.5129 67.8369 31.4621 67.7877 31.4113C67.7486 31.3708 67.7099 31.3299 67.67 31.2904C67.6177 31.2383 67.5636 31.1882 67.5097 31.1374C67.471 31.101 67.4328 31.0638 67.3935 31.028C67.3318 30.9723 67.2685 30.9187 67.2053 30.8649C67.1718 30.8365 67.1393 30.8068 67.1053 30.7788C67.0082 30.6987 66.9091 30.6208 66.8082 30.5452C66.7807 30.5246 66.7521 30.5055 66.7243 30.4852C66.6491 30.4305 66.5741 30.3757 66.4971 30.3235C66.4558 30.2954 66.4132 30.2691 66.3714 30.2418C66.3064 30.1993 66.2418 30.1568 66.1755 30.1162C66.1291 30.0877 66.0816 30.0607 66.0346 30.0332C65.9713 29.9962 65.9083 29.959 65.8439 29.9233C65.7944 29.896 65.7439 29.8701 65.6938 29.8438C65.6305 29.8107 65.5669 29.7774 65.5027 29.7458C65.4508 29.7204 65.3983 29.696 65.3457 29.6716C65.2813 29.6418 65.2169 29.6123 65.1518 29.5838C65.0982 29.5605 65.0441 29.5383 64.99 29.5162C64.9246 29.4894 64.8585 29.463 64.7921 29.438C64.7372 29.4173 64.6821 29.3971 64.6268 29.3776C64.5596 29.3538 64.4919 29.3308 64.4238 29.3088C64.368 29.2907 64.3119 29.2729 64.2557 29.2562C64.1866 29.2352 64.1169 29.2157 64.0472 29.1968C63.9908 29.1815 63.9344 29.1662 63.8777 29.1519C63.8064 29.1343 63.7346 29.118 63.6624 29.1023C63.6058 29.0898 63.5494 29.0769 63.4924 29.0657C63.4182 29.051 63.3433 29.0382 63.2683 29.0255C63.2125 29.0162 63.1571 29.006 63.101 28.9976C63.0222 28.986 62.9425 28.9766 62.863 28.9673C62.8099 28.961 62.7572 28.9537 62.7038 28.9483C62.6147 28.9396 62.5247 28.9337 62.435 28.9277C62.3902 28.9249 62.346 28.9205 62.3011 28.9184C62.1658 28.9116 62.03 28.9079 61.8932 28.9079C61.7565 28.9079 61.6204 28.9116 61.4852 28.9184C61.4404 28.9205 61.3961 28.9249 61.3513 28.9277C61.2613 28.9337 61.1715 28.9394 61.0824 28.9483C61.0291 28.9535 60.9766 28.9608 60.9236 28.9673C60.844 28.9766 60.7641 28.986 60.6852 28.9976C60.6293 29.0058 60.574 29.0158 60.5183 29.0254C60.4432 29.0382 60.3682 29.0508 60.2936 29.0657C60.2371 29.0769 60.1808 29.0896 60.1246 29.1021C60.0521 29.118 59.98 29.1343 59.9085 29.1521C59.8519 29.1663 59.7958 29.1815 59.7397 29.1966C59.6696 29.2158 59.5996 29.2354 59.5302 29.2563C59.4743 29.2732 59.4186 29.2908 59.3633 29.3088C59.2947 29.331 59.2268 29.3541 59.1591 29.378C59.1043 29.3974 59.0496 29.4173 58.9952 29.438C58.9282 29.4635 58.8616 29.4899 58.7955 29.5171C58.7421 29.539 58.6888 29.5608 58.6358 29.5838C58.5697 29.6124 58.5044 29.6424 58.4394 29.6727C58.3877 29.6968 58.336 29.7207 58.285 29.7458C58.2197 29.7779 58.1554 29.8115 58.091 29.8454C58.0418 29.8713 57.9922 29.8966 57.9436 29.9233C57.8782 29.9596 57.8138 29.9974 57.7493 30.0352C57.7035 30.0621 57.6571 30.0883 57.6118 30.116C57.5438 30.1577 57.4772 30.2016 57.4104 30.2452C57.3702 30.2715 57.3297 30.2966 57.2901 30.3233C57.2097 30.3779 57.1313 30.4346 57.053 30.4921C57.0285 30.5101 57.0032 30.5269 56.9788 30.5452C56.8774 30.6212 56.778 30.6994 56.6804 30.7799C56.6493 30.8055 56.6196 30.8326 56.5888 30.8585C56.5226 30.9146 56.4565 30.9708 56.3921 31.029C56.3544 31.0632 56.3179 31.0988 56.2808 31.1337C56.2252 31.1857 56.1697 31.2376 56.1157 31.2913C56.0768 31.3299 56.0393 31.3696 56.0011 31.4088C55.9508 31.4607 55.9004 31.5126 55.8516 31.5657C55.813 31.6076 55.7758 31.6504 55.738 31.693C55.6916 31.7457 55.6452 31.7985 55.6001 31.8522C55.5629 31.8968 55.5266 31.9418 55.4902 31.9871C55.4468 32.0412 55.4036 32.0955 55.3615 32.1507C55.3261 32.1969 55.2915 32.244 55.2571 32.2912C55.2163 32.3471 55.1762 32.4035 55.1366 32.4604C55.1033 32.5085 55.0705 32.5571 55.0383 32.6058C55.0001 32.6637 54.9627 32.7221 54.926 32.7808C54.8951 32.8305 54.8641 32.8802 54.8343 32.9305C54.7985 32.9904 54.7641 33.051 54.7299 33.1118C54.7013 33.1627 54.6727 33.2135 54.6452 33.2652C54.6119 33.3276 54.5802 33.3907 54.5485 33.4538C54.5227 33.5054 54.4966 33.5566 54.4719 33.6087C54.4408 33.6743 54.4113 33.741 54.3818 33.8076C54.3593 33.8587 54.336 33.9093 54.3143 33.961C54.2844 34.0321 54.2571 34.1043 54.2293 34.1765C54.2105 34.2249 54.1908 34.2729 54.1732 34.3218C54.1429 34.4049 54.1154 34.4894 54.0879 34.5738C54.0751 34.6129 54.061 34.6513 54.0488 34.6907C54.0104 34.8144 53.9747 34.9394 53.9422 35.0655C53.9351 35.0935 53.9294 35.1219 53.9226 35.1499C53.898 35.2491 53.8743 35.3487 53.8533 35.4491C53.8435 35.4965 53.8358 35.5444 53.8268 35.5921C53.8113 35.6743 53.7954 35.7565 53.7826 35.8394C53.7741 35.8932 53.7676 35.9476 53.7604 36.0015C53.7519 36.0629 53.7421 36.1241 53.7349 36.186H51.7535V25.1677H61.8943H61.8946H65.4279C66.1257 25.1677 66.691 24.6021 66.691 23.9046C66.691 23.207 66.1257 22.6415 65.4279 22.6415H63.1577V10.7407H77.4742V22.6415H69.6371C68.9393 22.6415 68.3739 23.2071 68.3739 23.9046C68.3739 24.6023 68.9393 25.1677 69.6371 25.1677H77.4742V26.6688H75.1316C73.1416 26.6688 71.5224 28.2879 71.5224 30.278C71.5224 32.2682 73.1414 33.8872 75.1316 33.8872H77.4742V35.1329C77.4736 35.714 77.001 36.1865 76.4202 36.1865ZM77.4736 31.3608H75.131C74.5339 31.3608 74.048 30.8751 74.048 30.2779C74.048 29.6807 74.5339 29.1949 75.131 29.1949H77.4736V31.3608Z" fill="#231F20"/>
<path d="M19.7887 33.4707C17.776 33.4707 16.1387 35.108 16.1387 37.1207C16.1387 39.1334 17.776 40.7707 19.7887 40.7707C21.8013 40.7707 23.4387 39.1334 23.4387 37.1207C23.4387 35.108 21.8013 33.4707 19.7887 33.4707ZM19.7887 38.2444C19.169 38.2444 18.6649 37.7404 18.6649 37.1207C18.6649 36.501 19.169 35.9969 19.7887 35.9969C20.4084 35.9969 20.9124 36.501 20.9124 37.1207C20.9124 37.7404 20.4084 38.2444 19.7887 38.2444Z" fill="#231F20"/>
<path d="M61.8932 33.4707C59.8805 33.4707 58.2432 35.108 58.2432 37.1207C58.2432 39.1334 59.8805 40.7707 61.8932 40.7707C63.9058 40.7707 65.5431 39.1334 65.5431 37.1207C65.5431 35.108 63.9058 33.4707 61.8932 33.4707ZM61.8932 38.2444C61.2735 38.2444 60.7694 37.7404 60.7694 37.1207C60.7694 36.501 61.2735 35.9969 61.8932 35.9969C62.5128 35.9969 63.0169 36.501 63.0169 37.1207C63.0169 37.7404 62.5128 38.2444 61.8932 38.2444Z" fill="#231F20"/>
</svg>
